<?xml version="1.0" encoding="UTF-8"?>
<!DOCTYPE svg PUBLIC "-//W3C//DTD SVG 1.1//EN" "http://www.w3.org/Graphics/SVG/1.1/DTD/svg11.dtd"><svg version="1.1" viewBox="0 0 21590 27940" preserveAspectRatio="xMidYMid" fill-rule="evenodd" xmlns="http://www.w3.org/2000/svg" xmlns:xlink="http://www.w3.org/1999/xlink"><g visibility="visible" id="Default"><desc>Master slide</desc><g style="stroke:none;fill:none"><rect x="0" y="0" width="21590" height="27940"/></g></g><g visibility="visible" id="page1"><desc>Slide</desc><g><desc>Graphic</desc><g><g style="stroke:rgb(255,0,0);fill:none"><path d="M 14634,13429 L 14984,13380 14992,13379 15000,13377 15011,13374 15019,13372 15029,13369 15040,13366 15053,13362 15066,13357 15073,13355 15081,13352 15088,13349 15096,13346 15104,13343 15113,13339 15122,13335 15131,13332 15140,13327 15150,13323 15159,13319 15169,13314 15180,13309 15190,13304 15201,13298 15212,13293 15223,13287 15235,13281 15247,13274 15259,13267 15271,13260 15283,13253 15296,13246 15309,13238 15322,13230 15335,13222 15348,13213 15362,13204 15376,13195 15390,13185 15404,13175 15418,13165 15433,13155 15447,13144 15462,13133 15477,13122 15492,13110 15508,13098 15523,13085 15539,13073 15554,13060 15570,13046 15586,13032 15602,13018 15619,13004 15635,12989 15651,12974 15668,12958 15690,12937 15608,12606 15579,12598 15557,12592 15536,12586 15514,12580 15493,12575 15472,12570 15452,12565 15431,12561 15411,12557 15392,12553 15372,12549 15353,12545 15334,12542 15316,12539 15297,12536 15279,12533 15262,12531 15244,12528 15227,12526 15210,12524 15194,12523 15178,12521 15162,12520 15146,12518 15131,12517 15116,12516 15101,12516 15087,12515 15073,12514 15059,12514 15046,12514 15033,12514 15020,12514 15008,12514 14996,12514 14984,12514 14972,12515 14961,12515 14950,12516 14940,12516 14930,12517 14920,12518 14911,12519 14901,12519 14893,12520 14884,12521 14876,12522 14868,12523 14861,12524 14847,12527 14834,12529 14823,12531 14813,12533 14804,12535 14793,12538 14785,12540 14777,12542 14444,12662 14218,12149 14530,11983 14537,11979 14544,11974 14553,11968 14560,11963 14569,11957 14578,11950 14588,11942 14599,11933 14605,11928 14611,11923 14617,11918 14624,11912 14630,11906 14637,11900 14644,11894 14651,11887 14659,11880 14666,11873 14674,11865 14682,11857 14690,11849 14698,11840 14706,11832 14714,11822 14723,11813 14732,11803 14740,11793 14749,11783 14758,11772 14768,11761 14777,11750 14786,11738 14796,11726 14805,11714 14815,11701 14825,11688 14835,11675 14844,11661 14854,11647 14864,11632 14874,11618 14885,11602 14895,11587 14905,11571 14915,11555 14925,11538 14936,11521 14946,11504 14956,11486 14967,11468 14977,11450 14987,11431 14997,11412 15008,11392 15018,11373 15028,11352 15041,11325 14852,11042 14822,11044 14799,11046 14777,11048 14755,11050 14733,11052 14712,11055 14691,11057 14670,11060 14650,11063 14630,11066 14610,11069 14591,11072 14572,11075 14554,11079 14536,11082 14518,11086 14500,11090 14483,11093 14466,11097 14450,11101 14434,11105 14418,11109 14403,11113 14387,11117 14373,11122 14358,11126 14344,11130 14331,11134 14317,11139 14304,11143 14292,11147 14279,11152 14267,11156 14256,11161 14245,11165 14234,11169 14223,11173 14213,11178 14203,11182 14193,11186 14184,11190 14175,11194 14166,11198 14158,11202 14150,11206 14142,11210 14135,11214 14128,11217 14121,11221 14109,11228 14098,11234 14088,11240 14079,11245 14071,11250 14062,11256 14056,11261 14049,11266 13777,11492 13389,11088 13625,10825 13630,10819 13635,10812 13642,10803 13647,10796 13653,10787 13659,10778 13666,10767 13673,10754 13677,10748 13681,10741 13685,10734 13689,10726 13693,10719 13698,10711 13702,10702 13707,10693 13711,10684 13716,10675 13720,10665 13725,10655 13730,10644 13734,10634 13739,10623 13744,10611 13749,10599 13753,10587 13758,10575 13763,10562 13768,10549 13773,10535 13778,10522 13783,10507 13787,10493 13792,10478 13797,10463 13801,10447 13806,10431 13811,10415 13815,10398 13820,10381 13824,10364 13828,10346 13833,10328 13837,10310 13841,10291 13845,10272 13849,10253 13853,10233 13856,10213 13860,10192 13863,10171 13866,10150 13869,10129 13872,10107 13875,10085 13878,10062 13881,10032 13606,9831 13578,9843 13558,9853 13537,9862 13517,9871 13498,9881 13479,9891 13460,9900 13441,9910 13423,9919 13406,9929 13388,9938 13371,9948 13355,9958 13338,9967 13323,9977 13307,9986 13292,9996 13277,10005 13263,10015 13248,10024 13235,10033 13221,10042 13208,10051 13195,10061 13183,10069 13171,10078 13159,10087 13148,10096 13137,10105 13126,10113 13116,10121 13106,10130 13096,10138 13087,10146 13077,10154 13069,10162 13060,10169 13052,10177 13044,10184 13036,10191 13029,10198 13022,10205 13015,10212 13009,10219 13003,10225 12997,10231 12991,10237 12986,10243 12981,10249 12971,10259 12963,10269 12956,10278 12949,10286 12944,10293 12937,10302 12933,10309 12928,10316 12750,10621 12247,10374 12379,10046 12382,10039 12384,10031 12388,10020 12390,10011 12392,10001 12395,9990 12398,9978 12400,9964 12402,9956 12403,9948 12404,9940 12406,9932 12407,9923 12408,9914 12409,9905 12411,9895 12412,9885 12413,9874 12414,9864 12415,9852 12415,9841 12416,9829 12417,9817 12417,9805 12418,9792 12418,9779 12419,9766 12419,9752 12419,9738 12419,9724 12419,9709 12418,9694 12418,9679 12417,9663 12416,9647 12416,9631 12414,9614 12413,9598 12412,9580 12410,9563 12408,9545 12406,9527 12404,9509 12402,9490 12399,9471 12396,9452 12393,9432 12390,9412 12387,9392 12383,9372 12379,9351 12375,9330 12371,9309 12366,9287 12361,9265 12356,9243 12348,9214 12021,9119 11999,9140 11983,9156 11967,9172 11952,9187 11937,9203 11922,9218 11907,9234 11893,9249 11880,9264 11866,9279 11853,9294 11841,9309 11828,9324 11816,9338 11805,9353 11793,9367 11782,9381 11772,9395 11761,9409 11751,9422 11741,9436 11732,9449 11723,9462 11714,9475 11705,9488 11697,9500 11689,9512 11681,9525 11674,9536 11667,9548 11660,9560 11653,9571 11647,9582 11641,9593 11635,9603 11629,9613 11624,9624 11619,9633 11614,9643 11609,9652 11605,9662 11600,9670 11596,9679 11593,9687 11589,9695 11586,9703 11582,9711 11579,9718 11577,9725 11571,9738 11567,9750 11563,9761 11560,9771 11557,9780 11554,9790 11552,9798 11550,9806 11487,10154 10930,10094 10942,9741 10942,9733 10942,9725 10941,9713 10940,9704 10939,9694 10938,9683 10936,9670 10934,9656 10932,9648 10931,9641 10929,9633 10928,9624 10926,9616 10924,9607 10922,9597 10920,9588 10917,9578 10915,9568 10912,9557 10909,9547 10906,9536 10903,9524 10899,9513 10895,9501 10892,9489 10887,9476 10883,9464 10879,9451 10874,9438 10869,9424 10864,9410 10858,9396 10853,9382 10847,9368 10841,9353 10834,9338 10827,9323 10820,9308 10813,9292 10806,9276 10798,9260 10790,9244 10782,9227 10773,9210 10764,9193 10755,9176 10745,9159 10735,9141 10725,9123 10715,9105 10704,9087 10693,9069 10681,9050 10670,9032 10658,9013 10645,8994 10628,8969 10288,8992 10275,9019 10265,9039 10256,9060 10246,9080 10238,9100 10229,9119 10221,9139 10213,9158 10205,9177 10198,9196 10191,9214 10184,9232 10177,9250 10171,9268 10165,9286 10159,9303 10154,9320 10148,9337 10143,9353 10138,9369 10134,9385 10129,9401 10125,9416 10121,9432 10118,9446 10114,9461 10111,9475 10108,9489 10105,9503 10102,9516 10100,9529 10097,9542 10095,9555 10093,9567 10091,9579 10089,9591 10088,9602 10086,9613 10085,9624 10084,9634 10083,9644 10082,9654 10081,9663 10080,9673 10079,9681 10079,9690 10078,9698 10078,9706 10078,9714 10078,9728 10077,9741 10078,9752 10078,9763 10078,9772 10079,9783 10080,9791 10081,9799 10141,10147 9596,10282 9487,9945 9484,9938 9481,9930 9477,9920 9473,9912 9468,9903 9463,9892 9457,9881 9450,9868 9446,9862 9442,9855 9438,9848 9434,9841 9429,9833 9424,9825 9419,9817 9414,9809 9408,9801 9402,9792 9396,9783 9389,9774 9383,9765 9376,9755 9369,9746 9361,9736 9353,9726 9345,9715 9337,9705 9328,9694 9319,9684 9310,9673 9300,9662 9291,9650 9280,9639 9270,9627 9259,9616 9248,9604 9236,9592 9225,9580 9212,9567 9200,9555 9187,9543 9174,9530 9161,9517 9147,9505 9132,9492 9118,9479 9103,9466 9088,9452 9072,9439 9056,9426 9040,9413 9023,9399 9006,9386 8989,9372 8971,9359 8953,9345 8928,9327 8616,9465 8613,9495 8611,9518 8609,9540 8607,9562 8606,9584 8604,9605 8603,9626 8602,9647 8602,9667 8601,9688 8601,9707 8601,9727 8601,9746 8601,9765 8601,9783 8602,9802 8602,9819 8603,9837 8604,9854 8605,9871 8606,9888 8607,9904 8609,9920 8610,9935 8612,9951 8613,9965 8615,9980 8617,9994 8619,10008 8621,10022 8623,10035 8625,10048 8627,10060 8630,10072 8632,10084 8634,10096 8637,10107 8639,10118 8641,10128 8644,10139 8646,10148 8649,10158 8651,10167 8654,10176 8656,10184 8659,10193 8661,10201 8663,10208 8666,10215 8670,10229 8675,10241 8679,10252 8682,10261 8686,10270 8690,10280 8694,10287 8698,10294 8873,10601 8407,10914 8190,10635 8184,10629 8179,10623 8171,10615 8165,10608 8157,10601 8149,10593 8139,10585 8129,10575 8123,10571 8117,10566 8110,10560 8104,10555 8097,10550 8090,10544 8082,10538 8074,10532 8066,10526 8057,10520 8049,10514 8039,10508 8030,10501 8020,10495 8010,10488 8000,10481 7989,10474 7978,10468 7966,10461 7955,10454 7943,10447 7930,10439 7917,10432 7904,10425 7891,10418 7877,10411 7863,10403 7848,10396 7833,10389 7818,10381 7802,10374 7786,10367 7770,10359 7754,10352 7736,10345 7719,10337 7701,10330 7683,10323 7665,10316 7646,10309 7627,10301 7607,10294 7587,10287 7567,10281 7546,10274 7525,10267 7504,10260 7482,10254 7453,10245 7207,10482 7215,10511 7220,10533 7226,10555 7232,10576 7238,10597 7244,10617 7250,10637 7256,10657 7263,10677 7269,10696 7276,10715 7282,10733 7289,10751 7295,10769 7302,10786 7308,10803 7315,10819 7322,10836 7329,10852 7335,10867 7342,10882 7349,10897 7355,10912 7362,10926 7369,10939 7376,10953 7382,10966 7389,10979 7395,10991 7402,11003 7408,11015 7415,11026 7421,11037 7427,11048 7434,11058 7440,11068 7446,11078 7452,11087 7458,11096 7463,11105 7469,11113 7475,11122 7480,11129 7485,11137 7491,11144 7496,11151 7501,11157 7505,11164 7510,11170 7519,11181 7527,11191 7535,11199 7542,11207 7548,11214 7556,11222 7561,11228 7567,11233 7837,11462 7506,11914 7206,11727 7199,11723 7192,11719 7182,11714 7174,11710 7165,11706 7154,11702 7142,11697 7129,11692 7122,11689 7114,11687 7106,11684 7098,11681 7090,11678 7081,11676 7072,11673 7063,11670 7053,11667 7043,11664 7032,11661 7022,11659 7011,11656 6999,11653 6987,11650 6975,11647 6963,11645 6950,11642 6937,11639 6924,11637 6910,11634 6896,11632 6881,11630 6866,11627 6851,11625 6836,11623 6820,11621 6804,11619 6787,11617 6770,11616 6753,11614 6736,11613 6718,11611 6700,11610 6681,11609 6662,11608 6643,11607 6624,11607 6604,11606 6584,11606 6563,11606 6543,11606 6522,11606 6500,11607 6478,11607 6456,11608 6434,11609 6411,11611 6381,11613 6231,11919 6248,11944 6261,11963 6273,11981 6286,11999 6299,12016 6312,12034 6324,12051 6337,12067 6350,12083 6362,12099 6375,12114 6387,12129 6399,12144 6412,12158 6424,12172 6436,12186 6448,12199 6460,12212 6471,12225 6483,12237 6494,12249 6506,12261 6517,12272 6528,12283 6539,12294 6550,12304 6561,12314 6571,12324 6582,12333 6592,12342 6602,12351 6612,12359 6622,12368 6631,12376 6641,12383 6650,12390 6659,12398 6668,12404 6676,12411 6685,12417 6693,12423 6701,12429 6709,12434 6716,12439 6724,12444 6731,12449 6738,12454 6744,12458 6751,12462 6763,12469 6774,12476 6784,12481 6793,12486 6801,12490 6811,12495 6819,12499 6826,12502 7158,12624 7002,13163 6656,13089 6648,13088 6640,13087 6629,13086 6620,13085 6610,13084 6598,13084 6585,13083 6571,13083 6563,13083 6556,13083 6547,13083 6539,13083 6530,13083 6521,13084 6511,13084 6501,13085 6491,13086 6481,13086 6470,13087 6459,13088 6448,13089 6436,13091 6424,13092 6412,13094 6399,13095 6386,13097 6373,13099 6359,13101 6346,13104 6331,13106 6317,13109 6302,13112 6287,13115 6272,13118 6257,13122 6241,13126 6225,13130 6208,13134 6192,13138 6175,13143 6157,13148 6140,13153 6122,13158 6104,13164 6086,13170 6067,13176 6049,13182 6030,13189 6010,13196 5991,13203 5971,13210 5951,13218 5931,13226 5911,13234 5890,13243 5869,13252 5842,13264 5805,13603 5829,13621 5848,13634 5866,13647 5884,13660 5902,13672 5920,13684 5938,13695 5955,13706 5973,13717 5990,13728 6007,13738 6024,13748 6040,13757 6057,13767 6073,13776 6089,13784 6105,13793 6120,13801 6136,13809 6151,13816 6166,13824 6180,13831 6195,13837 6209,13844 6223,13850 6237,13856 6250,13862 6263,13867 6276,13873 6289,13878 6302,13882 6314,13887 6326,13891 6337,13895 6349,13899 6360,13903 6371,13907 6382,13910 6392,13913 6402,13916 6412,13919 6421,13922 6430,13924 6439,13926 6448,13929 6456,13931 6464,13932 6472,13934 6479,13936 6493,13938 6506,13941 6517,13943 6527,13944 6536,13945 6547,13946 6556,13947 6563,13947 6917,13949 6955,14509 6605,14558 6597,14559 6589,14561 6578,14564 6569,14566 6559,14569 6548,14572 6536,14576 6523,14581 6516,14583 6508,14586 6500,14589 6492,14592 6484,14595 6476,14599 6467,14603 6458,14606 6449,14611 6439,14615 6429,14619 6419,14624 6409,14629 6398,14634 6388,14640 6377,14645 6365,14651 6354,14657 6342,14664 6330,14671 6318,14678 6306,14685 6293,14692 6280,14700 6267,14708 6254,14716 6241,14725 6227,14734 6213,14743 6199,14753 6185,14763 6171,14773 6156,14783 6141,14794 6127,14805 6112,14816 6096,14828 6081,14840 6066,14853 6050,14865 6034,14878 6018,14892 6003,14906 5986,14920 5970,14934 5954,14949 5937,14964 5921,14980 5899,15001 5981,15332 6010,15340 6032,15346 6053,15352 6075,15358 6096,15363 6117,15368 6137,15373 6157,15377 6177,15381 6197,15385 6217,15389 6236,15393 6255,15396 6273,15399 6291,15402 6309,15405 6327,15407 6345,15410 6362,15412 6378,15414 6395,15415 6411,15417 6427,15418 6443,15420 6458,15421 6473,15422 6488,15422 6502,15423 6516,15424 6530,15424 6543,15424 6556,15424 6569,15424 6581,15424 6593,15424 6605,15424 6616,15423 6627,15423 6638,15422 6649,15422 6659,15421 6669,15420 6678,15419 6687,15419 6696,15418 6705,15417 6713,15416 6721,15415 6728,15414 6742,15411 6755,15409 6766,15407 6776,15405 6785,15403 6796,15400 6804,15398 6811,15396 7144,15276 7371,15789 7059,15955 7052,15959 7045,15964 7036,15970 7028,15975 7020,15981 7011,15988 7001,15996 6989,16005 6984,16010 6978,16015 6971,16020 6965,16026 6958,16032 6952,16038 6945,16044 6937,16051 6930,16058 6923,16065 6915,16073 6907,16081 6899,16089 6891,16098 6883,16106 6874,16116 6866,16125 6857,16135 6848,16145 6839,16155 6830,16166 6821,16177 6812,16188 6802,16200 6793,16212 6783,16224 6774,16237 6764,16250 6754,16263 6744,16277 6734,16291 6724,16306 6714,16320 6704,16336 6694,16351 6684,16367 6674,16383 6663,16400 6653,16417 6643,16434 6632,16452 6622,16470 6612,16488 6602,16507 6591,16526 6581,16546 6571,16565 6560,16586 6547,16613 6737,16896 6767,16894 6790,16892 6812,16890 6834,16888 6856,16886 6877,16883 6898,16881 6919,16878 6939,16875 6959,16872 6978,16869 6998,16866 7016,16863 7035,16859 7053,16856 7071,16852 7089,16848 7106,16845 7122,16841 7139,16837 7155,16833 7171,16829 7186,16825 7201,16821 7216,16816 7230,16812 7244,16808 7258,16804 7271,16799 7284,16795 7297,16791 7309,16786 7321,16782 7333,16777 7344,16773 7355,16769 7366,16765 7376,16760 7386,16756 7396,16752 7405,16748 7414,16744 7422,16740 7431,16736 7439,16732 7446,16728 7454,16724 7461,16721 7467,16717 7480,16710 7491,16704 7501,16698 7510,16693 7517,16688 7526,16682 7533,16677 7539,16672 7812,16446 8200,16850 7963,17113 7958,17119 7953,17126 7947,17135 7942,17142 7936,17151 7929,17160 7923,17171 7915,17184 7911,17190 7908,17197 7904,17204 7899,17212 7895,17219 7891,17227 7887,17236 7882,17245 7878,17254 7873,17263 7869,17273 7864,17283 7859,17294 7854,17304 7850,17315 7845,17327 7840,17339 7835,17351 7830,17363 7826,17376 7821,17389 7816,17403 7811,17416 7806,17431 7801,17445 7797,17460 7792,17475 7787,17491 7783,17507 7778,17523 7773,17540 7769,17557 7765,17574 7760,17592 7756,17610 7752,17628 7748,17647 7744,17666 7740,17685 7736,17705 7733,17725 7729,17746 7726,17767 7722,17788 7719,17809 7716,17831 7713,17853 7711,17876 7708,17906 7983,18107 8010,18095 8031,18085 8051,18076 8071,18067 8091,18057 8110,18047 8129,18038 8147,18028 8165,18019 8183,18009 8200,18000 8217,17990 8234,17980 8250,17971 8266,17961 8282,17952 8297,17942 8312,17933 8326,17923 8340,17914 8354,17905 8367,17896 8380,17887 8393,17877 8406,17869 8418,17860 8429,17851 8441,17842 8452,17833 8463,17825 8473,17817 8483,17808 8493,17800 8502,17792 8511,17784 8520,17776 8529,17769 8537,17761 8545,17754 8552,17747 8560,17740 8567,17733 8573,17726 8580,17719 8586,17713 8592,17707 8597,17701 8603,17695 8608,17689 8617,17679 8626,17669 8633,17660 8639,17652 8645,17645 8651,17636 8656,17629 8660,17622 8839,17317 9342,17564 9209,17892 9207,17899 9204,17907 9201,17918 9199,17927 9196,17937 9194,17948 9191,17960 9188,17974 9187,17982 9186,17990 9184,17998 9183,18006 9182,18015 9181,18024 9179,18033 9178,18043 9177,18053 9176,18064 9175,18074 9174,18086 9173,18097 9173,18109 9172,18121 9171,18133 9171,18146 9170,18159 9170,18172 9170,18186 9170,18200 9170,18214 9170,18229 9170,18244 9171,18259 9171,18275 9172,18291 9173,18307 9174,18324 9175,18340 9177,18358 9179,18375 9180,18393 9182,18411 9184,18429 9187,18448 9189,18467 9192,18486 9195,18506 9198,18526 9202,18546 9206,18566 9210,18587 9214,18608 9218,18629 9223,18651 9228,18673 9233,18695 9240,18724 9568,18819 9589,18798 9606,18782 9621,18766 9637,18751 9652,18735 9667,18720 9681,18704 9695,18689 9709,18674 9722,18659 9735,18644 9748,18629 9760,18614 9772,18600 9784,18585 9795,18571 9806,18557 9817,18543 9828,18529 9838,18516 9847,18502 9857,18489 9866,18476 9875,18463 9883,18450 9892,18438 9900,18426 9907,18413 9915,18402 9922,18390 9929,18378 9935,18367 9942,18356 9948,18345 9954,18335 9959,18325 9965,18314 9970,18305 9975,18295 9980,18286 9984,18276 9988,18268 9992,18259 9996,18251 10000,18243 10003,18235 10006,18227 10009,18220 10012,18213 10017,18200 10022,18188 10026,18177 10029,18167 10032,18158 10035,18148 10037,18140 10038,18132 10102,17784 10659,17844 10647,18197 10647,18205 10647,18213 10648,18225 10649,18234 10650,18244 10651,18255 10653,18268 10655,18282 10656,18290 10658,18297 10659,18305 10661,18314 10663,18322 10665,18331 10667,18341 10669,18350 10672,18360 10674,18370 10677,18381 10680,18391 10683,18402 10686,18414 10690,18425 10693,18437 10697,18449 10701,18462 10706,18474 10710,18487 10715,18500 10720,18514 10725,18528 10730,18542 10736,18556 10742,18570 10748,18585 10755,18600 10761,18615 10768,18630 10775,18646 10783,18662 10791,18678 10799,18694 10807,18711 10816,18728 10825,18745 10834,18762 10843,18779 10853,18797 10863,18815 10874,18833 10885,18851 10896,18869 10907,18888 10919,18906 10931,18925 10944,18944 10960,18969 11301,18946 11314,18919 11324,18899 11333,18878 11342,18858 11351,18838 11360,18819 11368,18799 11376,18780 11384,18761 11391,18742 11398,18724 11405,18706 11411,18688 11418,18670 11424,18652 11430,18635 11435,18618 11440,18601 11445,18585 11450,18569 11455,18553 11459,18537 11463,18522 11467,18506 11471,18492 11475,18477 11478,18463 11481,18449 11484,18435 11487,18422 11489,18409 11492,18396 11494,18383 11496,18371 11498,18359 11499,18347 11501,18336 11503,18325 11504,18314 11505,18304 11506,18294 11507,18284 11508,18275 11509,18265 11509,18257 11510,18248 11510,18240 11511,18232 11511,18224 11511,18210 11511,18197 11511,18186 11511,18175 11510,18166 11510,18155 11509,18147 11508,18139 11448,17791 11992,17656 12102,17993 12105,18000 12108,18008 12112,18018 12116,18026 12120,18035 12126,18046 12132,18057 12139,18070 12142,18076 12146,18083 12151,18090 12155,18097 12160,18105 12165,18113 12170,18121 12175,18129 12181,18137 12187,18146 12193,18155 12199,18164 12206,18173 12213,18183 12220,18192 12228,18202 12235,18212 12243,18223 12252,18233 12261,18244 12269,18254 12279,18265 12288,18276 12298,18288 12308,18299 12319,18311 12330,18322 12341,18334 12352,18346 12364,18358 12376,18371 12389,18383 12402,18395 12415,18408 12428,18421 12442,18433 12456,18446 12471,18459 12486,18472 12501,18486 12517,18499 12533,18512 12549,18525 12566,18539 12583,18552 12600,18566 12618,18579 12636,18593 12660,18611 12972,18473 12975,18443 12978,18420 12980,18398 12981,18376 12983,18354 12984,18333 12985,18312 12986,18291 12987,18271 12988,18250 12988,18231 12988,18211 12988,18192 12988,18173 12988,18155 12987,18136 12987,18119 12986,18101 12985,18084 12984,18067 12983,18050 12982,18034 12980,18018 12979,18003 12977,17987 12975,17973 12974,17958 12972,17944 12970,17930 12968,17916 12966,17903 12964,17890 12961,17878 12959,17866 12957,17854 12954,17842 12952,17831 12950,17820 12947,17810 12945,17799 12942,17790 12940,17780 12937,17771 12935,17762 12933,17754 12930,17745 12928,17737 12925,17730 12923,17723 12919,17709 12914,17697 12910,17686 12906,17677 12903,17668 12898,17658 12895,17651 12891,17644 12716,17337 13181,17024 13399,17303 13404,17309 13410,17315 13418,17323 13424,17330 13431,17337 13440,17345 13449,17353 13460,17363 13466,17367 13472,17372 13478,17378 13485,17383 13492,17388 13499,17394 13507,17400 13515,17406 13523,17412 13531,17418 13540,17424 13549,17430 13559,17437 13568,17443 13579,17450 13589,17457 13600,17464 13611,17470 13622,17477 13634,17484 13646,17491 13659,17499 13671,17506 13685,17513 13698,17520 13712,17527 13726,17535 13741,17542 13755,17549 13771,17557 13786,17564 13802,17571 13819,17579 13835,17586 13852,17593 13870,17601 13887,17608 13905,17615 13924,17622 13943,17629 13962,17637 13982,17644 14001,17651 14022,17657 14042,17664 14063,17671 14085,17678 14107,17684 14135,17693 14381,17456 14374,17427 14368,17405 14363,17383 14357,17362 14351,17341 14345,17321 14339,17301 14332,17281 14326,17261 14320,17242 14313,17223 14307,17205 14300,17187 14294,17169 14287,17152 14280,17135 14274,17119 14267,17102 14260,17086 14253,17071 14247,17056 14240,17041 14233,17026 14227,17012 14220,16999 14213,16985 14207,16972 14200,16959 14193,16947 14187,16935 14180,16923 14174,16912 14168,16901 14161,16890 14155,16880 14149,16870 14143,16860 14137,16851 14131,16842 14125,16833 14120,16825 14114,16816 14109,16809 14103,16801 14098,16794 14093,16787 14088,16781 14083,16774 14079,16768 14070,16757 14061,16747 14054,16739 14047,16731 14041,16724 14033,16716 14027,16710 14022,16705 13752,16476 14082,16024 14382,16211 14389,16215 14397,16219 14407,16224 14415,16228 14424,16232 14435,16236 14447,16241 14460,16246 14467,16249 14475,16251 14482,16254 14490,16257 14499,16260 14508,16262 14517,16265 14526,16268 14536,16271 14546,16274 14556,16277 14567,16279 14578,16282 14589,16285 14601,16288 14613,16291 14626,16293 14639,16296 14652,16299 14665,16301 14679,16304 14693,16306 14708,16308 14722,16311 14737,16313 14753,16315 14769,16317 14785,16319 14801,16321 14818,16322 14835,16324 14853,16325 14871,16327 14889,16328 14907,16329 14926,16330 14945,16331 14965,16331 14985,16332 15005,16332 15025,16332 15046,16332 15067,16332 15089,16331 15110,16331 15132,16330 15155,16329 15177,16327 15207,16325 15358,16019 15341,15994 15328,15975 15315,15957 15302,15939 15290,15922 15277,15904 15264,15887 15252,15871 15239,15855 15227,15839 15214,15824 15202,15809 15189,15794 15177,15780 15165,15766 15153,15752 15141,15739 15129,15726 15117,15713 15106,15701 15094,15689 15083,15677 15072,15666 15060,15655 15049,15644 15039,15634 15028,15624 15017,15614 15007,15605 14997,15596 14987,15587 14977,15579 14967,15570 14957,15562 14948,15555 14939,15548 14930,15540 14921,15534 14912,15527 14904,15521 14896,15515 14888,15509 14880,15504 14872,15499 14865,15494 14858,15489 14851,15484 14844,15480 14838,15476 14826,15469 14815,15462 14805,15457 14795,15452 14787,15448 14777,15443 14770,15439 14763,15436 14431,15314 14587,14775 14933,14849 14941,14850 14949,14851 14960,14852 14969,14853 14979,14854 14991,14854 15004,14855 15018,14855 15025,14855 15033,14855 15041,14855 15050,14855 15059,14855 15068,14854 15077,14854 15087,14853 15097,14852 15108,14852 15119,14851 15130,14850 15141,14849 15153,14847 15165,14846 15177,14844 15190,14843 15203,14841 15216,14839 15229,14837 15243,14834 15257,14832 15272,14829 15286,14826 15301,14823 15317,14820 15332,14816 15348,14812 15364,14808 15381,14804 15397,14800 15414,14795 15431,14790 15449,14785 15467,14780 15485,14774 15503,14768 15521,14762 15540,14756 15559,14749 15578,14742 15598,14735 15618,14728 15638,14720 15658,14712 15678,14704 15699,14695 15720,14686 15747,14674 15784,14335 15759,14317 15741,14304 15723,14291 15704,14278 15686,14266 15669,14254 15651,14243 15633,14232 15616,14221 15599,14210 15582,14200 15565,14190 15548,14181 15532,14171 15516,14162 15500,14154 15484,14145 15469,14137 15453,14129 15438,14122 15423,14114 15408,14107 15394,14101 15380,14094 15366,14088 15352,14082 15339,14076 15325,14071 15312,14065 15300,14060 15287,14056 15275,14051 15263,14047 15251,14043 15240,14039 15229,14035 15218,14031 15207,14028 15197,14025 15187,14022 15177,14019 15168,14016 15158,14014 15150,14012 15141,14009 15133,14007 15125,14006 15117,14004 15110,14002 15096,14000 15083,13997 15072,13995 15061,13994 15052,13993 15041,13992 15033,13991 15025,13991 14671,13989 14634,13429 Z"/><path d="M 7166,13969 L 7171,13782 7185,13598 7208,13416 7240,13238 7281,13062 7330,12890 7387,12722 7452,12557 7524,12396 7604,12240 7692,12088 7786,11941 7887,11798 7995,11661 8109,11530 8229,11404 8355,11284 8487,11170 8624,11062 8766,10961 8913,10866 9065,10779 9222,10699 9382,10626 9547,10561 9716,10504 9888,10455 10063,10415 10242,10383 10423,10360 10608,10346 10794,10341 10981,10346 11165,10360 11347,10383 11525,10415 11701,10455 11873,10504 12042,10561 12206,10626 12367,10699 12524,10779 12676,10866 12823,10961 12965,11062 13102,11170 13234,11284 13360,11404 13480,11530 13594,11661 13701,11798 13803,11941 13897,12088 13984,12240 14064,12396 14137,12557 14202,12722 14259,12890 14308,13062 14349,13238 14380,13416 14403,13598 14417,13782 14422,13969 14417,14156 14403,14340 14380,14521 14349,14700 14308,14876 14259,15048 14202,15216 14137,15381 14064,15542 13984,15698 13897,15850 13803,15997 13701,16140 13594,16277 13480,16408 13360,16534 13234,16654 13102,16768 12965,16876 12823,16977 12676,17072 12524,17159 12367,17239 12206,17312 12042,17377 11873,17434 11701,17483 11525,17523 11347,17555 11165,17578 10981,17592 10794,17597 10608,17592 10423,17578 10242,17555 10063,17523 9888,17483 9716,17434 9547,17377 9382,17312 9222,17239 9065,17159 8913,17072 8766,16977 8624,16876 8487,16768 8355,16654 8229,16534 8109,16408 7995,16277 7887,16140 7786,15997 7692,15850 7604,15698 7524,15542 7452,15381 7387,15216 7330,15048 7281,14876 7240,14700 7208,14521 7185,14340 7171,14156 7166,13969 Z"/><path d="M 14422,13969 L 14417,13782 14403,13598 14380,13416 14349,13238 14308,13062 14259,12890 14202,12722 14137,12557 14064,12396 13984,12240 13897,12088 13803,11941 13701,11798 13594,11661 13480,11530 13360,11404 13234,11284 13102,11170 12965,11062 12823,10961 12676,10866 12524,10779 12367,10699 12206,10626 12042,10561 11873,10504 11701,10455 11525,10415 11347,10383 11165,10360 10981,10346 10794,10341 10608,10346 10423,10360 10242,10383 10063,10415 9888,10455 9716,10504 9547,10561 9382,10626 9222,10699 9065,10779 8913,10866 8766,10961 8624,11062 8487,11170 8355,11284 8229,11404 8109,11530 7995,11661 7887,11798 7786,11941 7692,12088 7604,12240 7524,12396 7452,12557 7387,12722 7330,12890 7281,13062 7240,13238 7208,13416 7185,13598 7171,13782 7166,13969 7171,14156 7185,14340 7208,14521 7240,14700 7281,14876 7330,15048 7387,15216 7452,15381 7524,15542 7604,15698 7692,15850 7786,15997 7887,16140 7995,16277 8109,16408 8229,16534 8355,16654 8487,16768 8624,16876 8766,16977 8913,17072 9065,17159 9222,17239 9382,17312 9547,17377 9716,17434 9888,17483 10063,17523 10242,17555 10423,17578 10608,17592 10794,17597 10981,17592 11165,17578 11347,17555 11525,17523 11701,17483 11873,17434 12042,17377 12206,17312 12367,17239 12524,17159 12676,17072 12823,16977 12965,16876 13102,16768 13234,16654 13360,16534 13480,16408 13594,16277 13701,16140 13803,15997 13897,15850 13984,15698 14064,15542 14137,15381 14202,15216 14259,15048 14308,14876 14349,14700 14380,14521 14403,14340 14417,14156 14422,13969 Z"/><path d="M 9797,13969 L 9802,13867 9817,13768 9842,13672 9875,13581 9917,13493 9967,13411 10025,13334 10089,13263 10160,13199 10237,13142 10319,13092 10406,13050 10498,13016 10593,12991 10692,12976 10794,12971 10896,12976 10996,12991 11091,13016 11183,13050 11270,13092 11352,13142 11429,13199 11500,13263 11564,13334 11622,13411 11672,13493 11714,13581 11747,13672 11772,13768 11787,13867 11792,13969 11787,14071 11772,14170 11747,14266 11714,14357 11672,14444 11622,14527 11564,14603 11500,14674 11429,14739 11352,14796 11270,14846 11183,14888 11091,14922 10996,14946 10896,14961 10794,14967 10692,14961 10593,14946 10498,14922 10406,14888 10319,14846 10237,14796 10160,14739 10089,14674 10025,14603 9967,14527 9917,14444 9875,14357 9842,14266 9817,14170 9802,14071 9797,13969 Z"/><path d="M 9978,11792 L 9982,11709 9995,11628 10015,11549 10042,11474 10077,11403 10118,11336 10165,11273 10217,11215 10275,11162 10338,11115 10405,11074 10477,11040 10552,11013 10630,10992 10711,10980 10795,10976 10878,10980 10959,10992 11037,11013 11112,11040 11184,11074 11251,11115 11314,11162 11372,11215 11424,11273 11471,11336 11512,11403 11547,11474 11574,11549 11594,11628 11607,11709 11611,11792 11607,11876 11594,11957 11574,12035 11547,12110 11512,12181 11471,12248 11424,12311 11372,12369 11314,12422 11251,12469 11184,12510 11112,12544 11037,12572 10959,12592 10878,12604 10795,12608 10711,12604 10630,12592 10552,12572 10477,12544 10405,12510 10338,12469 10275,12422 10217,12369 10165,12311 10118,12248 10077,12181 10042,12110 10015,12035 9995,11957 9982,11876 9978,11792 Z"/><path d="M 9978,16146 L 9982,16062 9995,15981 10015,15903 10042,15828 10077,15756 10118,15689 10165,15626 10217,15568 10275,15516 10338,15469 10405,15428 10477,15393 10552,15366 10630,15346 10711,15333 10795,15329 10878,15333 10959,15346 11037,15366 11112,15393 11184,15428 11251,15469 11314,15516 11372,15568 11424,15626 11471,15689 11512,15756 11547,15828 11574,15903 11594,15981 11607,16062 11611,16146 11607,16229 11594,16310 11574,16388 11547,16463 11512,16535 11471,16602 11424,16665 11372,16723 11314,16775 11251,16822 11184,16863 11112,16898 11037,16925 10959,16945 10878,16958 10795,16962 10711,16958 10630,16945 10552,16925 10477,16898 10405,16863 10338,16822 10275,16775 10217,16723 10165,16665 10118,16602 10077,16535 10042,16463 10015,16388 9995,16310 9982,16229 9978,16146 Z"/><path d="M 10504,11792 L 10506,11762 10510,11734 10517,11706 10527,11679 10539,11654 10554,11630 10589,11587 10632,11551 10656,11537 10682,11525 10708,11515 10736,11508 10765,11503 10795,11502 10824,11503 10853,11508 10881,11515 10907,11525 10933,11537 10957,11551 11000,11587 11035,11630 11050,11654 11062,11679 11072,11706 11079,11734 11083,11762 11085,11792 11083,11822 11079,11851 11072,11878 11062,11905 11050,11930 11035,11954 11000,11997 10957,12033 10933,12047 10907,12060 10881,12069 10853,12076 10824,12081 10795,12082 10765,12081 10736,12076 10708,12069 10682,12060 10656,12047 10632,12033 10589,11997 10554,11954 10539,11930 10527,11905 10517,11878 10510,11851 10506,11822 10504,11792 Z"/><path d="M 10504,16146 L 10506,16116 10510,16087 10517,16059 10527,16033 10539,16007 10554,15983 10589,15940 10632,15905 10656,15890 10682,15878 10708,15868 10736,15861 10765,15857 10795,15855 10824,15857 10853,15861 10881,15868 10907,15878 10933,15890 10957,15905 11000,15940 11035,15983 11050,16007 11062,16033 11072,16059 11079,16087 11083,16116 11085,16146 11083,16175 11079,16204 11072,16232 11062,16259 11050,16284 11035,16308 11000,16351 10957,16386 10933,16401 10907,16413 10881,16423 10853,16430 10824,16434 10795,16436 10765,16434 10736,16430 10708,16423 10682,16413 10656,16401 10632,16386 10589,16351 10554,16308 10539,16284 10527,16259 10517,16232 10510,16204 10506,16175 10504,16146 Z"/><path d="M 10305,13969 L 10307,13919 10315,13870 10327,13823 10343,13778 10364,13735 10388,13695 10417,13657 10448,13623 10483,13591 10521,13563 10561,13538 10604,13518 10649,13501 10696,13489 10744,13482 10794,13479 10845,13482 10893,13489 10940,13501 10985,13518 11028,13538 11068,13563 11106,13591 11141,13623 11172,13657 11201,13695 11225,13735 11246,13778 11262,13823 11274,13870 11282,13919 11284,13969 11282,14019 11274,14068 11262,14115 11246,14160 11225,14202 11201,14243 11172,14280 11141,14315 11106,14347 11068,14375 11028,14400 10985,14420 10940,14437 10893,14449 10845,14456 10794,14459 10744,14456 10696,14449 10649,14437 10604,14420 10561,14400 10521,14375 10483,14347 10448,14315 10417,14280 10388,14243 10364,14202 10343,14160 10327,14115 10315,14068 10307,14019 10305,13969 Z"/></g></g></g></g></svg>