<?xml version="1.0" encoding="UTF-8"?>
<!DOCTYPE svg PUBLIC "-//W3C//DTD SVG 1.1//EN" "http://www.w3.org/Graphics/SVG/1.1/DTD/svg11.dtd"><svg version="1.1" viewBox="0 0 21590 27940" preserveAspectRatio="xMidYMid" fill-rule="evenodd" xmlns="http://www.w3.org/2000/svg" xmlns:xlink="http://www.w3.org/1999/xlink"><g visibility="visible" id="Default"><desc>Master slide</desc><g style="stroke:none;fill:none"><rect x="0" y="0" width="21590" height="27940"/></g></g><g visibility="visible" id="page1"><desc>Slide</desc><g><desc>Graphic</desc><g><g style="stroke:rgb(255,0,0);fill:none"><path d="M 14934,13969 L 15137,13969 15143,13969 15150,13968 15157,13968 15165,13967 15174,13966 15185,13964 15190,13963 15196,13962 15203,13961 15209,13960 15216,13959 15224,13957 15231,13956 15239,13954 15247,13952 15256,13950 15265,13948 15274,13946 15283,13943 15293,13941 15303,13938 15313,13935 15324,13932 15335,13928 15346,13925 15358,13921 15369,13917 15381,13913 15394,13908 15406,13904 15419,13899 15432,13894 15446,13888 15459,13883 15473,13877 15487,13871 15502,13864 15516,13858 15531,13851 15546,13844 15562,13836 15577,13829 15593,13821 15609,13813 15625,13804 15642,13795 15658,13786 15675,13777 15692,13767 15710,13757 15727,13746 15745,13736 15763,13725 15781,13713 15794,13705 15772,13430 15757,13424 15738,13415 15718,13407 15699,13399 15680,13392 15661,13385 15643,13378 15625,13371 15607,13365 15589,13359 15572,13353 15555,13347 15538,13342 15521,13337 15505,13332 15489,13327 15473,13323 15458,13319 15442,13315 15428,13311 15413,13308 15399,13304 15384,13301 15371,13298 15357,13296 15344,13293 15331,13291 15319,13288 15307,13286 15295,13284 15283,13283 15272,13281 15261,13280 15250,13278 15240,13277 15230,13276 15220,13275 15211,13274 15202,13274 15193,13273 15184,13272 15176,13272 15168,13272 15161,13271 15154,13271 15147,13271 15141,13271 15135,13271 15129,13271 15118,13271 15109,13272 15101,13272 15094,13273 15087,13273 15081,13274 14881,13306 14793,12897 14989,12845 14995,12843 15002,12841 15008,12839 15015,12836 15024,12832 15034,12828 15039,12826 15045,12823 15051,12821 15057,12818 15063,12815 15070,12811 15077,12808 15084,12804 15091,12800 15099,12796 15107,12792 15115,12787 15124,12782 15132,12777 15141,12772 15151,12766 15160,12760 15170,12754 15180,12748 15190,12741 15200,12734 15210,12727 15221,12720 15232,12712 15243,12704 15255,12696 15266,12687 15278,12678 15290,12669 15302,12659 15314,12650 15327,12639 15339,12629 15352,12618 15365,12607 15378,12596 15391,12584 15404,12572 15418,12559 15431,12546 15445,12533 15459,12520 15473,12506 15487,12492 15501,12477 15516,12462 15530,12447 15544,12431 15555,12419 15463,12160 15447,12158 15426,12155 15405,12152 15385,12149 15364,12147 15344,12145 15325,12143 15306,12141 15287,12140 15268,12138 15250,12137 15232,12136 15214,12136 15197,12135 15180,12134 15163,12134 15147,12134 15130,12134 15115,12134 15099,12134 15084,12135 15070,12135 15055,12136 15041,12137 15028,12137 15014,12138 15001,12139 14988,12140 14976,12142 14964,12143 14952,12144 14941,12146 14930,12147 14919,12149 14909,12150 14899,12152 14890,12153 14880,12155 14871,12157 14863,12158 14854,12160 14847,12162 14839,12163 14832,12165 14825,12167 14818,12168 14812,12170 14806,12171 14800,12173 14790,12176 14781,12179 14774,12181 14768,12183 14761,12186 14755,12188 14570,12271 14380,11899 14555,11797 14560,11794 14566,11790 14572,11786 14578,11782 14586,11776 14594,11770 14599,11766 14603,11762 14608,11758 14613,11754 14619,11749 14624,11744 14630,11739 14636,11733 14642,11728 14649,11722 14655,11715 14662,11709 14669,11702 14676,11695 14683,11687 14691,11680 14698,11671 14706,11663 14714,11654 14722,11645 14730,11636 14739,11626 14747,11616 14756,11606 14764,11596 14773,11585 14782,11573 14791,11562 14800,11550 14809,11537 14819,11525 14828,11512 14837,11498 14847,11485 14857,11470 14866,11456 14876,11441 14886,11426 14895,11411 14905,11395 14915,11378 14925,11362 14935,11345 14945,11327 14955,11310 14965,11292 14975,11273 14985,11254 14992,11240 14835,11013 14820,11015 14798,11018 14778,11020 14757,11023 14737,11026 14717,11029 14698,11032 14679,11036 14660,11039 14642,11043 14624,11046 14606,11050 14589,11054 14572,11058 14555,11062 14539,11066 14523,11070 14508,11074 14493,11078 14478,11083 14463,11087 14449,11091 14436,11095 14422,11100 14409,11104 14397,11108 14384,11113 14372,11117 14361,11122 14349,11126 14338,11130 14328,11134 14318,11139 14308,11143 14298,11147 14289,11151 14280,11155 14272,11159 14263,11163 14255,11167 14248,11171 14241,11174 14234,11178 14227,11181 14221,11185 14215,11188 14209,11191 14204,11194 14199,11197 14190,11203 14182,11208 14176,11212 14170,11216 14164,11220 14159,11224 14002,11352 13722,11041 13865,10898 13869,10894 13874,10888 13878,10883 13883,10877 13889,10869 13895,10861 13899,10856 13902,10851 13906,10846 13910,10841 13914,10835 13918,10828 13922,10822 13927,10815 13931,10808 13936,10801 13941,10793 13945,10785 13950,10776 13955,10768 13960,10758 13966,10749 13971,10739 13976,10729 13981,10719 13987,10708 13992,10697 13998,10685 14003,10674 14009,10661 14015,10649 14020,10636 14026,10623 14032,10609 14037,10595 14043,10581 14049,10566 14055,10551 14060,10536 14066,10520 14071,10504 14077,10488 14083,10471 14088,10454 14094,10436 14099,10418 14104,10400 14109,10381 14115,10362 14120,10343 14125,10323 14130,10303 14134,10283 14139,10262 14143,10246 13933,10068 13918,10074 13898,10082 13879,10090 13860,10098 13841,10106 13823,10114 13805,10122 13787,10130 13770,10139 13753,10147 13737,10155 13721,10163 13705,10171 13690,10179 13675,10187 13660,10196 13646,10204 13632,10212 13618,10220 13605,10227 13592,10235 13580,10243 13568,10251 13556,10258 13545,10266 13533,10274 13523,10281 13512,10288 13502,10295 13492,10303 13483,10309 13474,10316 13465,10323 13457,10330 13448,10336 13441,10343 13433,10349 13426,10355 13419,10361 13412,10366 13406,10372 13400,10377 13394,10383 13389,10388 13384,10393 13379,10397 13374,10402 13370,10406 13366,10410 13358,10418 13352,10425 13347,10431 13342,10436 13338,10441 13334,10446 13215,10611 12864,10383 12966,10208 12968,10203 12972,10196 12974,10190 12978,10183 12981,10174 12985,10164 12987,10159 12989,10153 12992,10147 12994,10141 12996,10134 12999,10127 13001,10120 13004,10112 13006,10104 13009,10095 13011,10087 13014,10078 13016,10068 13019,10058 13021,10048 13024,10038 13027,10027 13029,10016 13032,10004 13034,9993 13036,9980 13039,9968 13041,9955 13043,9942 13046,9928 13048,9914 13050,9900 13052,9886 13054,9871 13056,9855 13057,9840 13059,9824 13060,9808 13062,9791 13063,9774 13064,9757 13065,9739 13066,9721 13067,9703 13067,9684 13068,9665 13068,9646 13068,9626 13068,9606 13068,9586 13067,9565 13067,9544 13066,9523 13065,9507 12816,9388 12803,9398 12786,9411 12770,9424 12753,9436 12737,9449 12722,9461 12707,9474 12692,9486 12677,9499 12663,9511 12649,9523 12636,9535 12623,9547 12610,9559 12598,9571 12586,9582 12574,9594 12563,9605 12552,9616 12541,9627 12531,9638 12521,9649 12511,9660 12502,9670 12492,9680 12484,9690 12475,9700 12467,9710 12459,9720 12451,9729 12444,9738 12437,9747 12430,9756 12424,9765 12418,9773 12412,9781 12406,9789 12401,9797 12395,9804 12391,9812 12386,9819 12382,9825 12377,9832 12373,9838 12370,9844 12366,9850 12363,9856 12360,9861 12357,9866 12352,9875 12348,9883 12344,9891 12341,9896 12338,9903 12336,9909 12264,10098 11866,9970 11918,9774 11919,9768 11921,9761 11922,9754 11923,9746 11925,9737 11926,9727 11926,9721 11927,9715 11928,9708 11928,9702 11929,9695 11929,9687 11930,9679 11930,9671 11930,9663 11931,9654 11931,9645 11931,9636 11931,9626 11931,9616 11931,9605 11931,9595 11930,9584 11930,9572 11929,9560 11929,9548 11928,9536 11927,9523 11926,9510 11925,9497 11923,9483 11922,9469 11920,9455 11918,9440 11916,9426 11914,9410 11911,9395 11909,9379 11906,9363 11903,9346 11900,9330 11897,9313 11893,9295 11889,9278 11885,9260 11881,9242 11876,9223 11871,9204 11866,9185 11861,9166 11856,9146 11850,9127 11844,9106 11838,9086 11833,9071 11562,9021 11552,9034 11539,9050 11526,9067 11513,9084 11501,9100 11489,9116 11478,9132 11467,9148 11456,9164 11446,9179 11436,9194 11426,9210 11416,9224 11407,9239 11398,9254 11389,9268 11381,9282 11373,9296 11365,9310 11358,9323 11351,9336 11344,9349 11337,9362 11331,9375 11325,9387 11319,9399 11313,9411 11308,9422 11303,9434 11298,9445 11293,9455 11288,9466 11284,9476 11280,9486 11276,9496 11273,9505 11269,9514 11266,9523 11263,9532 11260,9540 11257,9548 11255,9556 11253,9563 11250,9570 11248,9577 11247,9584 11245,9590 11243,9596 11242,9601 11239,9612 11237,9621 11236,9628 11234,9635 11233,9642 11232,9648 11212,9850 10794,9829 10794,9626 10794,9620 10793,9613 10793,9606 10792,9598 10791,9589 10789,9578 10788,9573 10787,9567 10786,9560 10785,9554 10784,9547 10782,9539 10781,9532 10779,9524 10777,9516 10775,9507 10773,9498 10771,9489 10768,9480 10766,9470 10763,9460 10760,9450 10757,9439 10753,9428 10750,9417 10746,9405 10742,9394 10738,9382 10733,9369 10729,9357 10724,9344 10719,9331 10713,9317 10708,9304 10702,9290 10696,9276 10689,9261 10683,9247 10676,9232 10669,9217 10661,9201 10654,9186 10646,9170 10638,9154 10629,9138 10620,9121 10611,9105 10602,9088 10592,9071 10582,9053 10571,9036 10561,9018 10550,9000 10538,8982 10530,8969 10255,8991 10249,9006 10240,9025 10232,9045 10224,9064 10217,9083 10210,9102 10203,9120 10196,9138 10190,9156 10184,9174 10178,9191 10172,9208 10167,9225 10162,9242 10157,9258 10152,9274 10148,9290 10144,9305 10140,9321 10136,9335 10133,9350 10129,9364 10126,9379 10123,9392 10121,9406 10118,9419 10116,9432 10113,9444 10111,9456 10109,9468 10108,9480 10106,9491 10105,9502 10103,9513 10102,9523 10101,9533 10100,9543 10099,9552 10099,9561 10098,9570 10097,9579 10097,9587 10097,9595 10096,9602 10096,9609 10096,9616 10096,9622 10096,9628 10096,9634 10096,9645 10097,9654 10097,9662 10098,9669 10098,9676 10099,9682 10131,9882 9722,9970 9670,9774 9668,9768 9666,9761 9664,9755 9661,9748 9657,9739 9653,9729 9651,9724 9648,9718 9646,9712 9643,9706 9640,9700 9636,9693 9633,9686 9629,9679 9625,9672 9621,9664 9617,9656 9612,9648 9607,9639 9602,9631 9597,9622 9591,9612 9585,9603 9579,9593 9573,9583 9566,9573 9559,9563 9552,9553 9545,9542 9537,9531 9529,9520 9521,9508 9512,9497 9503,9485 9494,9473 9484,9461 9475,9449 9464,9436 9454,9424 9443,9411 9432,9398 9421,9385 9409,9372 9397,9359 9384,9345 9371,9332 9358,9318 9345,9304 9331,9290 9317,9276 9302,9262 9287,9247 9272,9233 9256,9219 9244,9208 8985,9300 8983,9316 8980,9337 8977,9358 8974,9378 8972,9399 8970,9419 8968,9438 8966,9457 8965,9476 8963,9495 8962,9513 8961,9531 8961,9549 8960,9566 8959,9583 8959,9600 8959,9616 8959,9633 8959,9648 8959,9664 8960,9679 8960,9693 8961,9708 8962,9722 8962,9735 8963,9749 8964,9762 8965,9775 8967,9787 8968,9799 8969,9811 8971,9822 8972,9833 8974,9844 8975,9854 8977,9864 8978,9873 8980,9883 8982,9892 8983,9900 8985,9909 8987,9916 8988,9924 8990,9931 8992,9938 8993,9945 8995,9951 8996,9957 8998,9963 9001,9973 9004,9982 9006,9989 9008,9995 9011,10002 9013,10008 9096,10193 8724,10383 8622,10208 8619,10203 8615,10197 8611,10191 8607,10185 8601,10177 8595,10169 8591,10164 8587,10160 8583,10155 8579,10150 8574,10144 8569,10139 8564,10133 8558,10127 8553,10121 8547,10114 8540,10108 8534,10101 8527,10094 8520,10087 8512,10080 8505,10072 8496,10065 8488,10057 8479,10049 8470,10041 8461,10033 8451,10024 8441,10016 8431,10007 8421,9999 8410,9990 8398,9981 8387,9972 8375,9963 8362,9954 8350,9944 8337,9935 8323,9926 8310,9916 8295,9906 8281,9897 8266,9887 8251,9877 8236,9868 8220,9858 8203,9848 8187,9838 8170,9828 8152,9818 8135,9808 8117,9798 8098,9788 8079,9778 8065,9771 7838,9928 7840,9943 7843,9965 7845,9985 7848,10006 7851,10026 7854,10046 7857,10065 7861,10084 7864,10103 7868,10121 7871,10139 7875,10157 7879,10174 7883,10191 7887,10208 7891,10224 7895,10240 7899,10255 7903,10270 7908,10285 7912,10300 7916,10314 7920,10327 7925,10341 7929,10354 7933,10366 7938,10379 7942,10391 7947,10402 7951,10414 7955,10425 7959,10435 7964,10445 7968,10455 7972,10465 7976,10474 7980,10483 7984,10491 7988,10500 7992,10508 7996,10515 7999,10522 8003,10529 8006,10536 8010,10542 8013,10548 8016,10554 8019,10559 8022,10564 8028,10573 8033,10581 8037,10587 8041,10593 8045,10599 8049,10604 8177,10761 7866,11041 7723,10898 7719,10894 7713,10889 7708,10885 7702,10880 7694,10874 7686,10868 7681,10864 7676,10861 7671,10857 7666,10853 7660,10849 7653,10845 7647,10841 7640,10836 7633,10832 7626,10827 7618,10822 7610,10818 7601,10813 7593,10808 7583,10803 7574,10797 7564,10792 7554,10787 7544,10782 7533,10776 7522,10771 7510,10765 7499,10760 7486,10754 7474,10748 7461,10743 7448,10737 7434,10731 7420,10726 7406,10720 7391,10714 7376,10708 7361,10703 7345,10697 7329,10692 7313,10686 7296,10680 7279,10675 7261,10669 7243,10664 7225,10659 7206,10654 7187,10648 7168,10643 7148,10638 7128,10633 7108,10629 7087,10624 7071,10620 6893,10830 6899,10845 6907,10865 6915,10884 6923,10903 6931,10922 6939,10940 6947,10958 6955,10976 6964,10993 6972,11010 6980,11026 6988,11042 6996,11058 7004,11073 7012,11088 7021,11103 7029,11117 7037,11131 7045,11145 7052,11158 7060,11171 7068,11183 7076,11195 7083,11207 7091,11218 7099,11230 7106,11240 7113,11251 7120,11261 7128,11271 7134,11280 7141,11289 7148,11298 7155,11306 7161,11315 7168,11322 7174,11330 7180,11337 7186,11344 7191,11351 7197,11357 7202,11363 7208,11369 7213,11374 7218,11379 7222,11384 7227,11389 7231,11393 7235,11397 7243,11405 7250,11411 7256,11416 7261,11421 7266,11425 7271,11429 7436,11548 7208,11899 7033,11797 7028,11795 7021,11791 7015,11789 7008,11785 6999,11782 6989,11778 6984,11776 6978,11774 6972,11771 6966,11769 6959,11767 6952,11764 6945,11762 6937,11759 6929,11757 6920,11754 6912,11752 6903,11749 6893,11747 6883,11744 6873,11742 6863,11739 6852,11736 6841,11734 6829,11731 6818,11729 6805,11727 6793,11724 6780,11722 6767,11720 6753,11717 6739,11715 6725,11713 6711,11711 6696,11709 6680,11707 6665,11706 6649,11704 6633,11703 6616,11701 6599,11700 6582,11699 6564,11698 6546,11697 6528,11696 6509,11696 6490,11695 6471,11695 6451,11695 6431,11695 6411,11695 6390,11696 6369,11696 6348,11697 6332,11698 6213,11947 6223,11960 6236,11977 6249,11993 6261,12010 6274,12026 6286,12041 6299,12056 6311,12071 6324,12086 6336,12100 6348,12114 6360,12127 6372,12140 6384,12153 6396,12165 6407,12177 6419,12189 6430,12200 6441,12211 6452,12222 6463,12232 6474,12242 6485,12252 6495,12261 6505,12271 6515,12279 6525,12288 6535,12296 6545,12304 6554,12312 6563,12319 6572,12326 6581,12333 6590,12339 6598,12345 6606,12351 6614,12357 6622,12362 6629,12368 6637,12372 6644,12377 6650,12381 6657,12386 6663,12390 6669,12393 6675,12397 6681,12400 6686,12403 6691,12406 6700,12411 6708,12415 6716,12419 6721,12422 6728,12425 6734,12427 6923,12499 6795,12897 6599,12845 6593,12844 6586,12842 6579,12841 6571,12840 6562,12838 6552,12837 6546,12837 6540,12836 6533,12835 6527,12835 6520,12834 6512,12834 6504,12833 6496,12833 6488,12833 6479,12832 6470,12832 6461,12832 6451,12832 6441,12832 6430,12832 6420,12832 6409,12833 6397,12833 6385,12834 6373,12834 6361,12835 6348,12836 6335,12837 6322,12838 6308,12840 6294,12841 6280,12843 6265,12845 6251,12847 6235,12849 6220,12852 6204,12854 6188,12857 6171,12860 6155,12863 6138,12866 6120,12870 6103,12874 6085,12878 6067,12882 6048,12887 6029,12892 6010,12897 5991,12902 5971,12907 5952,12913 5931,12919 5911,12925 5896,12930 5846,13201 5859,13211 5875,13224 5892,13237 5909,13250 5925,13262 5941,13274 5957,13285 5973,13296 5989,13307 6004,13317 6019,13327 6035,13337 6049,13347 6064,13356 6079,13365 6093,13374 6107,13382 6121,13390 6135,13398 6148,13405 6161,13412 6174,13419 6187,13426 6200,13432 6212,13438 6224,13444 6236,13450 6247,13455 6259,13460 6270,13465 6280,13470 6291,13475 6301,13479 6311,13483 6321,13487 6330,13490 6339,13494 6348,13497 6357,13500 6365,13503 6373,13506 6381,13508 6388,13510 6395,13513 6402,13515 6409,13516 6415,13518 6421,13520 6426,13521 6437,13524 6446,13526 6453,13527 6460,13529 6467,13530 6473,13531 6675,13551 6654,13969 6451,13969 6445,13969 6438,13970 6431,13970 6423,13971 6414,13972 6403,13974 6398,13975 6392,13976 6385,13977 6379,13978 6372,13979 6364,13981 6357,13982 6349,13984 6341,13986 6332,13988 6323,13990 6314,13992 6305,13995 6295,13997 6285,14000 6275,14003 6264,14006 6253,14010 6242,14013 6230,14017 6219,14021 6207,14025 6194,14030 6182,14034 6169,14039 6156,14044 6142,14050 6129,14055 6115,14061 6101,14067 6086,14074 6072,14080 6057,14087 6042,14094 6026,14102 6011,14109 5995,14117 5979,14125 5963,14134 5946,14143 5930,14152 5913,14161 5896,14171 5878,14181 5861,14192 5843,14202 5825,14213 5807,14225 5794,14233 5816,14508 5831,14514 5850,14523 5870,14531 5889,14539 5908,14546 5927,14553 5945,14560 5963,14567 5981,14573 5999,14579 6016,14585 6033,14591 6050,14596 6067,14601 6083,14606 6099,14611 6115,14615 6130,14619 6146,14623 6160,14627 6175,14630 6189,14634 6204,14637 6217,14640 6231,14642 6244,14645 6257,14647 6269,14650 6281,14652 6293,14654 6305,14655 6316,14657 6327,14658 6338,14660 6348,14661 6358,14662 6368,14663 6377,14664 6386,14664 6395,14665 6404,14666 6412,14666 6420,14666 6427,14667 6434,14667 6441,14667 6447,14667 6453,14667 6459,14667 6470,14667 6479,14666 6487,14666 6494,14665 6501,14665 6507,14664 6707,14632 6795,15041 6599,15093 6593,15095 6586,15097 6580,15099 6573,15102 6564,15106 6554,15110 6549,15112 6543,15115 6537,15117 6531,15120 6525,15123 6518,15127 6511,15130 6504,15134 6497,15138 6489,15142 6481,15146 6473,15151 6464,15156 6456,15161 6447,15166 6437,15172 6428,15178 6418,15184 6408,15190 6398,15197 6388,15204 6378,15211 6367,15218 6356,15226 6345,15234 6333,15242 6322,15251 6310,15260 6298,15269 6286,15279 6274,15288 6261,15299 6249,15309 6236,15320 6223,15331 6210,15342 6197,15354 6184,15366 6170,15379 6157,15392 6143,15405 6129,15418 6115,15432 6101,15446 6087,15461 6072,15476 6058,15491 6044,15507 6033,15519 6125,15778 6141,15780 6162,15783 6183,15786 6203,15789 6224,15791 6244,15793 6263,15795 6282,15797 6301,15798 6320,15800 6338,15801 6356,15802 6374,15802 6391,15803 6408,15804 6425,15804 6441,15804 6458,15804 6473,15804 6489,15804 6504,15803 6518,15803 6533,15802 6547,15801 6560,15801 6574,15800 6587,15799 6600,15798 6612,15796 6624,15795 6636,15794 6647,15792 6658,15791 6669,15789 6679,15788 6689,15786 6698,15785 6708,15783 6717,15781 6725,15780 6734,15778 6741,15776 6749,15775 6756,15773 6763,15771 6770,15770 6776,15768 6782,15767 6788,15765 6798,15762 6807,15759 6814,15757 6820,15755 6827,15752 6833,15750 7018,15667 7208,16039 7033,16141 7028,16144 7022,16148 7016,16152 7010,16156 7002,16162 6994,16168 6989,16172 6985,16176 6980,16180 6975,16184 6969,16189 6964,16194 6958,16199 6952,16205 6946,16210 6939,16216 6933,16223 6926,16229 6919,16236 6912,16243 6905,16251 6897,16258 6890,16267 6882,16275 6874,16284 6866,16293 6858,16302 6849,16312 6841,16322 6832,16332 6824,16342 6815,16353 6806,16365 6797,16376 6788,16388 6779,16401 6769,16413 6760,16426 6751,16440 6741,16453 6731,16468 6722,16482 6712,16497 6702,16512 6693,16527 6683,16543 6673,16560 6663,16576 6653,16593 6643,16611 6633,16628 6623,16646 6613,16665 6603,16684 6596,16698 6753,16925 6768,16923 6790,16920 6810,16918 6831,16915 6851,16912 6871,16909 6890,16906 6909,16902 6928,16899 6946,16895 6964,16892 6982,16888 6999,16884 7016,16880 7033,16876 7049,16872 7065,16868 7080,16864 7095,16860 7110,16855 7125,16851 7139,16847 7152,16843 7166,16838 7179,16834 7191,16830 7204,16825 7216,16821 7227,16816 7239,16812 7250,16808 7260,16804 7270,16799 7280,16795 7290,16791 7299,16787 7308,16783 7316,16779 7325,16775 7333,16771 7340,16767 7347,16764 7354,16760 7361,16757 7367,16753 7373,16750 7379,16747 7384,16744 7389,16741 7398,16735 7406,16730 7412,16726 7418,16722 7424,16718 7429,16714 7586,16586 7866,16897 7723,17040 7719,17044 7714,17050 7710,17055 7705,17061 7699,17069 7693,17077 7689,17082 7686,17087 7682,17092 7678,17097 7674,17103 7670,17110 7666,17116 7661,17123 7657,17130 7652,17137 7647,17145 7643,17153 7638,17162 7633,17170 7628,17180 7622,17189 7617,17199 7612,17209 7607,17219 7601,17230 7596,17241 7590,17253 7585,17264 7579,17277 7573,17289 7568,17302 7562,17315 7556,17329 7551,17343 7545,17357 7539,17372 7533,17387 7528,17402 7522,17418 7517,17434 7511,17450 7505,17467 7500,17484 7494,17502 7489,17520 7484,17538 7479,17557 7473,17576 7468,17595 7463,17615 7458,17635 7454,17655 7449,17676 7445,17692 7655,17870 7670,17864 7690,17856 7709,17848 7728,17840 7747,17832 7765,17824 7783,17816 7801,17808 7818,17799 7835,17791 7851,17783 7867,17775 7883,17767 7898,17759 7913,17751 7928,17742 7942,17734 7956,17726 7970,17718 7983,17711 7996,17703 8008,17695 8020,17687 8032,17680 8043,17672 8055,17664 8065,17657 8076,17650 8086,17643 8096,17635 8105,17629 8114,17622 8123,17615 8131,17608 8140,17602 8147,17595 8155,17589 8162,17583 8169,17577 8176,17572 8182,17566 8188,17561 8194,17555 8199,17550 8204,17545 8209,17541 8214,17536 8218,17532 8222,17528 8230,17520 8236,17513 8241,17507 8246,17502 8250,17497 8254,17492 8373,17327 8724,17555 8622,17730 8620,17735 8616,17742 8614,17748 8610,17755 8607,17764 8603,17774 8601,17779 8599,17785 8596,17791 8594,17797 8592,17804 8589,17811 8587,17818 8584,17826 8582,17834 8579,17843 8577,17851 8574,17860 8572,17870 8569,17880 8567,17890 8564,17900 8561,17911 8559,17922 8556,17934 8554,17945 8552,17958 8549,17970 8547,17983 8545,17996 8542,18010 8540,18024 8538,18038 8536,18052 8534,18067 8532,18083 8531,18098 8529,18114 8528,18130 8526,18147 8525,18164 8524,18181 8523,18199 8522,18217 8521,18235 8521,18254 8520,18273 8520,18292 8520,18312 8520,18332 8520,18352 8521,18373 8521,18394 8522,18415 8523,18431 8772,18550 8785,18540 8802,18527 8818,18514 8835,18502 8851,18489 8866,18477 8881,18464 8896,18452 8911,18439 8925,18427 8939,18415 8952,18403 8965,18391 8978,18379 8990,18367 9002,18356 9014,18344 9025,18333 9036,18322 9047,18311 9057,18300 9067,18289 9077,18278 9086,18268 9096,18258 9104,18248 9113,18238 9121,18228 9129,18218 9137,18209 9144,18200 9151,18191 9158,18182 9164,18173 9170,18165 9176,18157 9182,18149 9187,18141 9193,18134 9197,18126 9202,18119 9206,18113 9211,18106 9215,18100 9218,18094 9222,18088 9225,18082 9228,18077 9231,18072 9236,18063 9240,18055 9244,18047 9247,18042 9250,18035 9252,18029 9324,17840 9722,17968 9670,18164 9669,18170 9667,18177 9666,18184 9665,18192 9663,18201 9662,18211 9662,18217 9661,18223 9660,18230 9660,18236 9659,18243 9659,18251 9658,18259 9658,18267 9658,18275 9657,18284 9657,18293 9657,18302 9657,18312 9657,18322 9657,18333 9657,18343 9658,18354 9658,18366 9659,18378 9659,18390 9660,18402 9661,18415 9662,18428 9663,18441 9665,18455 9666,18469 9668,18483 9670,18498 9672,18512 9674,18528 9677,18543 9679,18559 9682,18575 9685,18592 9688,18608 9691,18625 9695,18643 9699,18660 9703,18678 9707,18696 9712,18715 9717,18734 9722,18753 9727,18772 9732,18792 9738,18811 9744,18832 9750,18852 9755,18867 10026,18917 10036,18904 10049,18888 10062,18871 10075,18854 10087,18838 10099,18822 10110,18806 10121,18790 10132,18774 10142,18759 10152,18744 10162,18728 10172,18714 10181,18699 10190,18684 10199,18670 10207,18656 10215,18642 10223,18628 10230,18615 10237,18602 10244,18589 10251,18576 10257,18563 10263,18551 10269,18539 10275,18527 10280,18516 10285,18504 10290,18493 10295,18483 10300,18472 10304,18462 10308,18452 10312,18442 10315,18433 10319,18424 10322,18415 10325,18406 10328,18398 10331,18390 10333,18382 10335,18375 10338,18368 10340,18361 10341,18354 10343,18348 10345,18342 10346,18337 10349,18326 10351,18317 10352,18310 10354,18303 10355,18296 10356,18290 10376,18088 10794,18109 10794,18312 10794,18318 10795,18325 10795,18332 10796,18340 10797,18349 10799,18360 10800,18365 10801,18371 10802,18378 10803,18384 10804,18391 10806,18399 10807,18406 10809,18414 10811,18422 10813,18431 10815,18440 10817,18449 10820,18458 10822,18468 10825,18478 10828,18488 10831,18499 10835,18510 10838,18521 10842,18533 10846,18544 10850,18556 10855,18569 10859,18581 10864,18594 10869,18607 10875,18621 10880,18634 10886,18648 10892,18662 10899,18677 10905,18691 10912,18706 10919,18721 10927,18737 10934,18752 10942,18768 10950,18784 10959,18800 10968,18817 10977,18833 10986,18850 10996,18867 11006,18885 11017,18902 11027,18920 11038,18938 11050,18956 11058,18969 11333,18947 11339,18932 11348,18913 11356,18893 11364,18874 11371,18855 11378,18836 11385,18818 11392,18800 11398,18782 11404,18764 11410,18747 11416,18730 11421,18713 11426,18696 11431,18680 11436,18664 11440,18648 11444,18633 11448,18617 11452,18603 11455,18588 11459,18574 11462,18559 11465,18546 11467,18532 11470,18519 11472,18506 11475,18494 11477,18482 11479,18470 11480,18458 11482,18447 11483,18436 11485,18425 11486,18415 11487,18405 11488,18395 11489,18386 11489,18377 11490,18368 11491,18359 11491,18351 11491,18343 11492,18336 11492,18329 11492,18322 11492,18316 11492,18310 11492,18304 11492,18293 11491,18284 11491,18276 11490,18269 11490,18262 11489,18256 11457,18056 11866,17968 11918,18164 11920,18170 11922,18177 11924,18183 11927,18190 11931,18199 11935,18209 11937,18214 11940,18220 11942,18226 11945,18232 11948,18238 11952,18245 11955,18252 11959,18259 11963,18266 11967,18274 11971,18282 11976,18290 11981,18299 11986,18307 11991,18316 11997,18326 12003,18335 12009,18345 12015,18355 12022,18365 12029,18375 12036,18385 12043,18396 12051,18407 12059,18418 12067,18430 12076,18441 12085,18453 12094,18465 12104,18477 12113,18489 12124,18502 12134,18514 12145,18527 12156,18540 12167,18553 12179,18566 12191,18579 12204,18593 12217,18606 12230,18620 12243,18634 12257,18648 12271,18662 12286,18676 12301,18691 12316,18705 12332,18719 12344,18730 12603,18638 12605,18622 12608,18601 12611,18580 12614,18560 12616,18539 12618,18519 12620,18500 12622,18481 12623,18462 12625,18443 12626,18425 12627,18407 12627,18389 12628,18372 12629,18355 12629,18338 12629,18322 12629,18305 12629,18290 12629,18274 12628,18259 12628,18245 12627,18230 12626,18216 12626,18203 12625,18189 12624,18176 12623,18163 12621,18151 12620,18139 12619,18127 12617,18116 12616,18105 12614,18094 12613,18084 12611,18074 12610,18065 12608,18055 12606,18046 12605,18038 12603,18029 12601,18022 12600,18014 12598,18007 12596,18000 12595,17993 12593,17987 12592,17981 12590,17975 12587,17965 12584,17956 12582,17949 12580,17943 12577,17936 12575,17930 12492,17745 12864,17555 12966,17730 12969,17735 12973,17741 12977,17747 12981,17753 12987,17761 12993,17769 12997,17774 13001,17778 13005,17783 13009,17788 13014,17794 13019,17799 13024,17805 13030,17811 13035,17817 13041,17824 13048,17830 13054,17837 13061,17844 13068,17851 13076,17858 13083,17866 13092,17873 13100,17881 13109,17889 13118,17897 13127,17905 13137,17914 13147,17922 13157,17931 13167,17939 13178,17948 13190,17957 13201,17966 13213,17975 13226,17984 13238,17994 13251,18003 13265,18012 13278,18022 13293,18032 13307,18041 13322,18051 13337,18061 13352,18070 13368,18080 13385,18090 13401,18100 13418,18110 13436,18120 13453,18130 13471,18140 13490,18150 13509,18160 13523,18167 13750,18010 13748,17995 13745,17973 13743,17953 13740,17932 13737,17912 13734,17892 13731,17873 13727,17854 13724,17835 13720,17817 13717,17799 13713,17781 13709,17764 13705,17747 13701,17730 13697,17714 13693,17698 13689,17683 13685,17668 13680,17653 13676,17638 13672,17624 13668,17611 13663,17597 13659,17584 13655,17572 13650,17559 13646,17547 13641,17536 13637,17524 13633,17513 13629,17503 13624,17493 13620,17483 13616,17473 13612,17464 13608,17455 13604,17447 13600,17438 13596,17430 13592,17423 13589,17416 13585,17409 13582,17402 13578,17396 13575,17390 13572,17384 13569,17379 13566,17374 13560,17365 13555,17357 13551,17351 13547,17345 13543,17339 13539,17334 13411,17177 13722,16897 13865,17040 13869,17044 13875,17049 13880,17053 13886,17058 13894,17064 13902,17070 13907,17074 13912,17077 13917,17081 13922,17085 13928,17089 13935,17093 13941,17097 13948,17102 13955,17106 13962,17111 13970,17116 13978,17120 13987,17125 13995,17130 14005,17135 14014,17141 14024,17146 14034,17151 14044,17156 14055,17162 14066,17167 14078,17173 14089,17178 14102,17184 14114,17190 14127,17195 14140,17201 14154,17207 14168,17212 14182,17218 14197,17224 14212,17230 14227,17235 14243,17241 14259,17246 14275,17252 14292,17258 14309,17263 14327,17269 14345,17274 14363,17279 14382,17284 14401,17290 14420,17295 14440,17300 14460,17305 14480,17309 14501,17314 14517,17318 14695,17108 14689,17093 14681,17073 14673,17054 14665,17035 14657,17016 14649,16998 14641,16980 14633,16962 14624,16945 14616,16928 14608,16912 14600,16896 14592,16880 14584,16865 14576,16850 14567,16835 14559,16821 14551,16807 14543,16793 14536,16780 14528,16767 14520,16755 14512,16743 14505,16731 14497,16720 14489,16708 14482,16698 14475,16687 14468,16677 14460,16667 14454,16658 14447,16649 14440,16640 14433,16632 14427,16623 14420,16616 14414,16608 14408,16601 14402,16594 14397,16587 14391,16581 14386,16575 14380,16569 14375,16564 14370,16559 14366,16554 14361,16549 14357,16545 14353,16541 14345,16533 14338,16527 14332,16522 14327,16517 14322,16513 14317,16509 14152,16390 14380,16039 14555,16141 14560,16143 14567,16147 14573,16149 14580,16153 14589,16156 14599,16160 14604,16162 14610,16164 14616,16167 14622,16169 14629,16171 14636,16174 14643,16176 14651,16179 14659,16181 14668,16184 14676,16186 14685,16189 14695,16191 14705,16194 14715,16196 14725,16199 14736,16202 14747,16204 14759,16207 14770,16209 14783,16211 14795,16214 14808,16216 14821,16218 14835,16221 14849,16223 14863,16225 14877,16227 14892,16229 14908,16231 14923,16232 14939,16234 14955,16235 14972,16237 14989,16238 15006,16239 15024,16240 15042,16241 15060,16242 15079,16242 15098,16243 15117,16243 15137,16243 15157,16243 15177,16243 15198,16242 15219,16242 15240,16241 15256,16240 15375,15991 15365,15978 15352,15961 15339,15945 15327,15928 15314,15912 15302,15897 15289,15882 15277,15867 15264,15852 15252,15838 15240,15824 15228,15811 15216,15798 15204,15785 15192,15773 15181,15761 15169,15749 15158,15738 15147,15727 15136,15716 15125,15706 15114,15696 15103,15686 15093,15677 15083,15667 15073,15659 15063,15650 15053,15642 15043,15634 15034,15626 15025,15619 15016,15612 15007,15605 14998,15599 14990,15593 14982,15587 14974,15581 14966,15576 14959,15570 14951,15566 14944,15561 14938,15557 14931,15552 14925,15548 14919,15545 14913,15541 14907,15538 14902,15535 14897,15532 14888,15527 14880,15523 14872,15519 14867,15516 14860,15513 14854,15511 14665,15439 14793,15041 14989,15093 14995,15094 15002,15096 15009,15097 15017,15098 15026,15100 15036,15101 15042,15101 15048,15102 15055,15103 15061,15103 15068,15104 15076,15104 15084,15105 15092,15105 15100,15105 15109,15106 15118,15106 15127,15106 15137,15106 15147,15106 15158,15106 15168,15106 15179,15105 15191,15105 15203,15104 15215,15104 15227,15103 15240,15102 15253,15101 15266,15100 15280,15098 15294,15097 15308,15095 15323,15093 15337,15091 15353,15089 15368,15086 15384,15084 15400,15081 15417,15078 15433,15075 15450,15072 15468,15068 15485,15064 15503,15060 15521,15056 15540,15051 15559,15046 15578,15041 15597,15036 15617,15031 15636,15025 15657,15019 15677,15013 15692,15008 15742,14737 15729,14727 15713,14714 15696,14701 15679,14688 15663,14676 15647,14664 15631,14653 15615,14642 15599,14631 15584,14621 15569,14611 15553,14601 15539,14591 15524,14582 15509,14573 15495,14564 15481,14556 15467,14548 15453,14540 15440,14533 15427,14526 15414,14519 15401,14512 15388,14506 15376,14500 15364,14494 15352,14488 15341,14483 15329,14478 15318,14473 15308,14468 15297,14463 15287,14459 15277,14455 15267,14451 15258,14448 15249,14444 15240,14441 15231,14438 15223,14435 15215,14432 15207,14430 15200,14428 15193,14425 15186,14423 15179,14422 15173,14420 15167,14418 15162,14417 15151,14414 15142,14412 15135,14411 15128,14409 15121,14408 15115,14407 14913,14387 14934,13969 Z"/><path d="M 8021,13969 L 8025,13826 8035,13685 8053,13547 8077,13410 8108,13276 8146,13144 8189,13016 8239,12890 8294,12767 8356,12647 8422,12531 8495,12419 8572,12310 8654,12205 8741,12104 8833,12008 8929,11916 9030,11829 9135,11747 9244,11670 9356,11597 9472,11531 9592,11469 9715,11414 9841,11364 9969,11321 10101,11283 10235,11252 10372,11228 10510,11210 10651,11200 10794,11196 10937,11200 11078,11210 11216,11228 11353,11252 11487,11283 11619,11321 11747,11364 11873,11414 11996,11469 12116,11531 12232,11597 12344,11670 12453,11747 12558,11829 12659,11916 12755,12008 12847,12104 12934,12205 13016,12310 13093,12419 13166,12531 13232,12647 13294,12767 13349,12890 13399,13016 13442,13144 13480,13276 13511,13410 13535,13547 13553,13685 13563,13826 13567,13969 13563,14112 13553,14253 13535,14391 13511,14528 13480,14662 13442,14794 13399,14922 13349,15048 13294,15171 13232,15291 13166,15407 13093,15519 13016,15628 12934,15733 12847,15834 12755,15930 12659,16022 12558,16109 12453,16191 12344,16268 12232,16341 12116,16407 11996,16469 11873,16524 11747,16574 11619,16617 11487,16655 11353,16686 11216,16710 11078,16728 10937,16738 10794,16742 10651,16738 10510,16728 10372,16710 10235,16686 10101,16655 9969,16617 9841,16574 9715,16524 9592,16469 9472,16407 9356,16341 9244,16268 9135,16191 9030,16109 8929,16022 8833,15930 8741,15834 8654,15733 8572,15628 8495,15519 8422,15407 8356,15291 8294,15171 8239,15048 8189,14922 8146,14794 8108,14662 8077,14528 8053,14391 8035,14253 8025,14112 8021,13969 Z"/><path d="M 13567,13969 L 13563,13826 13553,13685 13535,13547 13511,13410 13480,13276 13442,13144 13399,13016 13349,12890 13294,12767 13232,12647 13166,12531 13093,12419 13016,12310 12934,12205 12847,12104 12755,12008 12659,11916 12558,11829 12453,11747 12344,11670 12232,11597 12116,11531 11996,11469 11873,11414 11747,11364 11619,11321 11487,11283 11353,11252 11216,11228 11078,11210 10937,11200 10794,11196 10651,11200 10510,11210 10372,11228 10235,11252 10101,11283 9969,11321 9841,11364 9715,11414 9592,11469 9472,11531 9356,11597 9244,11670 9135,11747 9030,11829 8929,11916 8833,12008 8741,12104 8654,12205 8572,12310 8495,12419 8422,12531 8356,12647 8294,12767 8239,12890 8189,13016 8146,13144 8108,13276 8077,13410 8053,13547 8035,13685 8025,13826 8021,13969 8025,14112 8035,14253 8053,14391 8077,14528 8108,14662 8146,14794 8189,14922 8239,15048 8294,15171 8356,15291 8422,15407 8495,15519 8572,15628 8654,15733 8741,15834 8833,15930 8929,16022 9030,16109 9135,16191 9244,16268 9356,16341 9472,16407 9592,16469 9715,16524 9841,16574 9969,16617 10101,16655 10235,16686 10372,16710 10510,16728 10651,16738 10794,16742 10937,16738 11078,16728 11216,16710 11353,16686 11487,16655 11619,16617 11747,16574 11873,16524 11996,16469 12116,16407 12232,16341 12344,16268 12453,16191 12558,16109 12659,16022 12755,15930 12847,15834 12934,15733 13016,15628 13093,15519 13166,15407 13232,15291 13294,15171 13349,15048 13399,14922 13442,14794 13480,14662 13511,14528 13535,14391 13553,14253 13563,14112 13567,13969 Z"/><path d="M 10170,12305 L 10173,12241 10183,12179 10198,12119 10219,12062 10245,12008 10277,11956 10313,11908 10353,11864 10397,11824 10445,11788 10497,11756 10551,11730 10609,11709 10668,11694 10730,11684 10794,11681 10858,11684 10920,11694 10980,11709 11037,11730 11092,11756 11143,11788 11191,11824 11235,11864 11276,11908 11312,11956 11343,12008 11369,12062 11390,12119 11405,12179 11415,12241 11418,12305 11415,12369 11405,12431 11390,12491 11369,12548 11343,12602 11312,12654 11276,12702 11235,12746 11191,12786 11143,12822 11092,12854 11037,12880 10980,12901 10920,12916 10858,12926 10794,12929 10730,12926 10668,12916 10609,12901 10551,12880 10497,12854 10445,12822 10397,12786 10353,12746 10313,12702 10277,12654 10245,12602 10219,12548 10198,12491 10183,12431 10173,12369 10170,12305 Z"/><path d="M 10170,15633 L 10173,15569 10183,15507 10198,15447 10219,15390 10245,15335 10277,15284 10313,15236 10353,15192 10397,15151 10445,15115 10497,15084 10551,15058 10609,15037 10668,15021 10730,15012 10794,15009 10858,15012 10920,15021 10980,15037 11037,15058 11092,15084 11143,15115 11191,15151 11235,15192 11276,15236 11312,15284 11343,15335 11369,15390 11390,15447 11405,15507 11415,15569 11418,15633 11415,15697 11405,15758 11390,15818 11369,15876 11343,15930 11312,15982 11276,16030 11235,16074 11191,16114 11143,16150 11092,16181 11037,16208 10980,16229 10920,16244 10858,16253 10794,16257 10730,16253 10668,16244 10609,16229 10551,16208 10497,16181 10445,16150 10397,16114 10353,16074 10313,16030 10277,15982 10245,15930 10219,15876 10198,15818 10183,15758 10173,15697 10170,15633 Z"/><path d="M 8957,13969 L 8960,13934 8970,13902 8986,13872 9008,13846 9033,13825 9063,13809 9095,13799 9130,13796 9165,13799 9198,13809 9227,13825 9253,13846 9274,13872 9290,13902 9300,13934 9303,13969 9300,14004 9290,14036 9274,14066 9253,14092 9227,14113 9198,14129 9165,14139 9130,14142 9095,14139 9063,14129 9033,14113 9008,14092 8986,14066 8970,14036 8960,14004 8957,13969 Z"/><path d="M 12285,13969 L 12288,13934 12298,13902 12314,13872 12335,13846 12361,13825 12390,13809 12423,13799 12458,13796 12493,13799 12525,13809 12555,13825 12580,13846 12602,13872 12618,13902 12628,13934 12631,13969 12628,14004 12618,14036 12602,14066 12580,14092 12555,14113 12525,14129 12493,14139 12458,14142 12423,14139 12390,14129 12361,14113 12335,14092 12314,14066 12298,14036 12288,14004 12285,13969 Z"/><path d="M 10572,12305 L 10573,12282 10577,12260 10582,12239 10590,12219 10599,12199 10610,12181 10637,12148 10670,12121 10688,12110 10708,12101 10728,12093 10749,12088 10771,12084 10794,12083 10817,12084 10839,12088 10860,12093 10880,12101 10900,12110 10918,12121 10951,12148 10978,12181 10989,12199 10998,12219 11006,12239 11011,12260 11015,12282 11016,12305 11015,12328 11011,12350 11006,12371 10998,12391 10989,12411 10978,12429 10951,12462 10918,12489 10900,12500 10880,12510 10860,12517 10839,12522 10817,12526 10794,12527 10771,12526 10749,12522 10728,12517 10708,12510 10688,12500 10670,12489 10637,12462 10610,12429 10599,12411 10590,12391 10582,12371 10577,12350 10573,12328 10572,12305 Z"/><path d="M 10572,15633 L 10573,15610 10577,15588 10582,15567 10590,15547 10599,15527 10610,15509 10637,15476 10670,15449 10688,15438 10708,15428 10728,15421 10749,15416 10771,15412 10794,15411 10817,15412 10839,15416 10860,15421 10880,15428 10900,15438 10918,15449 10951,15476 10978,15509 10989,15527 10998,15547 11006,15567 11011,15588 11015,15610 11016,15633 11015,15656 11011,15678 11006,15699 10998,15719 10989,15739 10978,15757 10951,15790 10918,15817 10900,15828 10880,15837 10860,15845 10839,15850 10817,15854 10794,15855 10771,15854 10749,15850 10728,15845 10708,15837 10688,15828 10670,15817 10637,15790 10610,15757 10599,15739 10590,15719 10582,15699 10577,15678 10573,15656 10572,15633 Z"/><path d="M 10420,13969 L 10421,13931 10427,13893 10436,13857 10449,13823 10465,13790 10483,13760 10505,13731 10529,13704 10556,13680 10585,13658 10615,13640 10648,13624 10683,13611 10718,13602 10756,13596 10794,13594 10832,13596 10869,13602 10905,13611 10940,13624 10972,13640 11003,13658 11032,13680 11059,13704 11083,13731 11104,13760 11123,13790 11139,13823 11151,13857 11161,13893 11166,13931 11168,13969 11166,14007 11161,14044 11151,14080 11139,14115 11123,14147 11104,14178 11083,14207 11059,14234 11032,14258 11003,14279 10972,14298 10940,14314 10905,14326 10869,14336 10832,14341 10794,14343 10756,14341 10718,14336 10683,14326 10648,14314 10615,14298 10585,14279 10556,14258 10529,14234 10505,14207 10483,14178 10465,14147 10449,14115 10436,14080 10427,14044 10421,14007 10420,13969 Z"/></g></g></g></g></svg>