<?xml version="1.0" encoding="UTF-8"?>
<!DOCTYPE svg PUBLIC "-//W3C//DTD SVG 1.1//EN" "http://www.w3.org/Graphics/SVG/1.1/DTD/svg11.dtd"><svg version="1.1" viewBox="0 0 21590 27940" preserveAspectRatio="xMidYMid" fill-rule="evenodd" xmlns="http://www.w3.org/2000/svg" xmlns:xlink="http://www.w3.org/1999/xlink"><g visibility="visible" id="Default"><desc>Master slide</desc><g style="stroke:none;fill:none"><rect x="0" y="0" width="21590" height="27940"/></g></g><g visibility="visible" id="page1"><desc>Slide</desc><g><desc>Graphic</desc><g><g style="stroke:rgb(255,0,0);fill:none"><path d="M 15491,13949 L 15502,13947 15511,13944 15521,13942 15531,13939 15542,13936 15553,13933 15564,13930 15575,13926 15587,13922 15599,13918 15612,13914 15624,13910 15637,13905 15650,13900 15664,13895 15678,13890 15692,13884 15706,13878 15721,13872 15736,13866 15751,13859 15766,13852 15782,13845 15794,13839 15790,13732 15778,13727 15761,13721 15745,13715 15730,13710 15715,13704 15700,13699 15685,13694 15670,13690 15656,13685 15642,13681 15629,13677 15616,13674 15603,13670 15590,13667 15578,13664 15566,13661 15554,13658 15543,13656 15531,13653 15521,13651 15510,13649 15500,13647 15490,13646 15480,13644 15472,13540 15482,13537 15491,13533 15501,13530 15511,13526 15521,13522 15531,13518 15542,13514 15553,13509 15565,13505 15577,13500 15588,13494 15601,13489 15613,13483 15626,13477 15639,13471 15652,13464 15666,13457 15680,13450 15694,13443 15708,13435 15722,13427 15737,13419 15752,13411 15764,13404 15750,13297 15737,13293 15721,13289 15705,13284 15689,13280 15673,13276 15657,13273 15642,13269 15628,13266 15613,13263 15599,13260 15585,13257 15572,13255 15558,13252 15545,13250 15533,13248 15521,13246 15509,13245 15497,13243 15486,13242 15475,13240 15464,13239 15454,13238 15444,13238 15434,13237 15417,13134 15426,13130 15435,13126 15445,13121 15454,13117 15464,13112 15474,13107 15485,13102 15495,13096 15506,13091 15517,13085 15529,13078 15541,13072 15552,13065 15565,13058 15577,13050 15590,13043 15603,13035 15616,13026 15629,13018 15643,13009 15656,13000 15670,12990 15684,12981 15695,12973 15673,12868 15660,12865 15643,12862 15626,12859 15610,12856 15594,12854 15578,12851 15563,12849 15548,12847 15533,12845 15519,12844 15505,12842 15491,12841 15478,12840 15465,12839 15452,12838 15440,12837 15428,12837 15416,12836 15405,12836 15394,12835 15383,12835 15373,12835 15363,12835 15353,12835 15326,12734 15335,12729 15344,12724 15353,12719 15362,12714 15372,12708 15381,12702 15391,12696 15401,12690 15412,12683 15422,12676 15433,12669 15444,12661 15456,12654 15467,12645 15479,12637 15491,12628 15503,12619 15515,12610 15528,12600 15540,12590 15553,12580 15566,12569 15580,12558 15590,12549 15558,12447 15545,12445 15528,12444 15511,12442 15495,12441 15478,12440 15463,12439 15447,12438 15432,12437 15417,12437 15403,12436 15389,12436 15375,12436 15361,12436 15348,12436 15336,12436 15323,12437 15311,12437 15300,12437 15288,12438 15277,12439 15267,12439 15257,12440 15247,12441 15236,12442 15201,12344 15210,12338 15218,12333 15227,12327 15235,12321 15244,12314 15253,12307 15263,12301 15272,12293 15282,12286 15292,12278 15302,12270 15313,12261 15323,12252 15334,12243 15345,12234 15356,12224 15367,12214 15379,12204 15390,12193 15402,12182 15414,12170 15426,12158 15439,12146 15448,12137 15408,12037 15394,12037 15377,12037 15360,12037 15343,12037 15327,12037 15311,12038 15296,12038 15281,12039 15266,12040 15252,12040 15238,12041 15224,12043 15210,12044 15197,12045 15185,12046 15173,12048 15161,12049 15149,12051 15138,12052 15127,12054 15117,12055 15106,12057 15097,12059 15086,12061 15043,11966 15051,11959 15059,11953 15067,11947 15075,11940 15083,11933 15092,11925 15100,11917 15109,11909 15118,11901 15128,11892 15137,11883 15147,11874 15156,11864 15166,11854 15176,11844 15187,11833 15197,11822 15208,11811 15218,11799 15229,11787 15240,11774 15251,11762 15262,11748 15271,11738 15222,11643 15208,11643 15191,11645 15174,11646 15158,11648 15142,11649 15126,11651 15111,11653 15096,11655 15081,11657 15067,11659 15053,11661 15039,11664 15026,11666 15013,11668 15001,11671 14988,11673 14977,11676 14965,11678 14954,11681 14944,11683 14933,11686 14923,11689 14914,11691 14904,11694 14852,11603 14860,11596 14867,11589 14874,11582 14882,11574 14889,11567 14897,11558 14905,11550 14913,11541 14922,11532 14930,11522 14939,11513 14947,11502 14956,11492 14965,11481 14974,11470 14984,11458 14993,11446 15003,11434 15012,11422 15022,11409 15032,11395 15042,11382 15051,11367 15059,11356 15002,11265 14989,11268 14972,11270 14955,11273 14939,11276 14923,11279 14907,11283 14892,11286 14877,11289 14863,11292 14849,11296 14835,11299 14822,11303 14809,11306 14796,11309 14784,11313 14772,11316 14761,11320 14750,11323 14739,11327 14729,11330 14719,11334 14709,11337 14700,11341 14690,11344 14631,11259 14637,11251 14644,11243 14651,11235 14657,11227 14664,11219 14671,11210 14679,11201 14686,11191 14693,11181 14701,11171 14709,11161 14717,11150 14725,11139 14733,11127 14741,11115 14749,11103 14757,11090 14766,11077 14774,11064 14783,11050 14791,11036 14800,11021 14809,11006 14815,10995 14750,10909 14737,10912 14721,10917 14704,10921 14688,10925 14673,10930 14658,10934 14643,10939 14628,10943 14614,10948 14601,10952 14587,10957 14574,10962 14562,10966 14549,10971 14538,10975 14526,10980 14515,10984 14504,10989 14494,10993 14484,10998 14474,11002 14465,11006 14456,11010 14446,11015 14380,10934 14386,10926 14392,10918 14398,10910 14404,10901 14410,10892 14416,10882 14423,10873 14429,10863 14436,10852 14442,10841 14449,10830 14456,10819 14463,10807 14470,10795 14477,10782 14484,10769 14491,10756 14498,10742 14506,10728 14513,10713 14520,10699 14528,10683 14535,10668 14541,10655 14469,10576 14456,10580 14440,10586 14424,10592 14408,10597 14393,10603 14378,10609 14364,10615 14350,10621 14336,10626 14323,10632 14310,10638 14298,10644 14286,10649 14274,10655 14262,10660 14251,10666 14241,10671 14230,10677 14220,10682 14211,10687 14201,10692 14192,10697 14184,10702 14175,10708 14102,10633 14107,10625 14112,10616 14117,10607 14123,10598 14128,10588 14133,10579 14139,10568 14145,10558 14150,10547 14156,10535 14162,10524 14168,10511 14173,10499 14179,10486 14185,10473 14191,10460 14197,10446 14203,10431 14209,10417 14215,10402 14221,10386 14227,10370 14233,10354 14238,10342 14159,10268 14147,10274 14131,10281 14116,10288 14101,10295 14086,10302 14072,10309 14058,10316 14045,10323 14032,10330 14019,10337 14007,10344 13995,10351 13983,10358 13972,10364 13961,10371 13950,10377 13940,10384 13930,10390 13921,10396 13912,10402 13903,10408 13894,10414 13886,10419 13878,10425 13798,10358 13803,10349 13807,10340 13812,10330 13816,10321 13821,10311 13825,10300 13830,10290 13834,10279 13839,10267 13844,10255 13849,10243 13853,10231 13858,10218 13863,10204 13868,10191 13872,10177 13877,10162 13882,10148 13887,10133 13891,10117 13896,10101 13900,10085 13905,10068 13908,10055 13824,9989 13812,9996 13797,10004 13782,10013 13768,10021 13754,10029 13741,10038 13727,10046 13715,10054 13702,10062 13690,10070 13678,10078 13667,10086 13656,10093 13645,10101 13635,10108 13625,10116 13616,10123 13606,10130 13597,10137 13589,10144 13581,10151 13573,10157 13565,10163 13557,10170 13472,10110 13476,10100 13480,10091 13483,10081 13487,10071 13490,10061 13494,10050 13498,10039 13501,10028 13505,10016 13509,10004 13512,9991 13516,9978 13519,9965 13523,9951 13527,9937 13530,9923 13534,9908 13537,9893 13540,9878 13544,9862 13547,9845 13550,9829 13553,9812 13555,9799 13465,9740 13454,9748 13440,9758 13426,9767 13413,9777 13399,9786 13387,9796 13374,9805 13362,9814 13351,9823 13339,9832 13328,9841 13318,9850 13307,9859 13298,9867 13288,9875 13279,9884 13270,9892 13261,9900 13253,9907 13245,9915 13237,9922 13230,9929 13223,9936 13216,9944 13126,9891 13129,9881 13131,9872 13134,9862 13137,9851 13139,9841 13142,9830 13145,9818 13147,9807 13150,9795 13153,9782 13155,9769 13158,9756 13160,9743 13163,9729 13165,9714 13167,9700 13169,9685 13171,9670 13173,9654 13175,9638 13177,9621 13179,9604 13180,9587 13181,9574 13087,9524 13076,9532 13063,9543 13050,9554 13037,9565 13025,9575 13013,9586 13002,9596 12990,9606 12980,9616 12969,9626 12959,9636 12949,9646 12940,9655 12930,9665 12922,9674 12913,9683 12905,9691 12897,9700 12889,9708 12882,9717 12875,9725 12869,9732 12862,9740 12856,9748 12761,9703 12763,9693 12765,9683 12767,9673 12769,9663 12771,9652 12772,9641 12774,9629 12776,9617 12777,9605 12779,9593 12780,9580 12782,9566 12783,9553 12784,9538 12785,9524 12786,9509 12787,9494 12788,9479 12788,9463 12789,9447 12789,9430 12789,9413 12789,9396 12789,9383 12690,9341 12681,9350 12668,9362 12656,9374 12645,9386 12634,9398 12623,9409 12612,9420 12602,9431 12592,9442 12582,9453 12573,9464 12564,9474 12556,9485 12547,9495 12539,9505 12531,9514 12524,9524 12517,9533 12510,9542 12504,9551 12497,9559 12491,9568 12486,9576 12480,9584 12382,9548 12383,9538 12384,9528 12385,9518 12386,9507 12387,9496 12388,9485 12388,9473 12389,9461 12389,9449 12390,9436 12390,9423 12390,9410 12390,9396 12390,9382 12390,9367 12390,9353 12389,9337 12389,9322 12388,9306 12387,9290 12386,9273 12385,9257 12383,9239 12382,9226 12280,9193 12271,9203 12260,9216 12249,9229 12238,9242 12228,9255 12218,9267 12209,9279 12199,9291 12191,9303 12182,9315 12174,9326 12166,9337 12158,9348 12151,9359 12143,9369 12137,9380 12130,9390 12124,9400 12118,9409 12112,9419 12107,9428 12101,9437 12096,9445 12091,9454 11991,9426 11991,9416 11991,9406 11991,9396 11991,9385 11991,9374 11991,9363 11990,9351 11990,9339 11989,9327 11989,9314 11988,9301 11987,9288 11986,9274 11984,9260 11983,9246 11981,9231 11980,9216 11978,9201 11975,9185 11973,9169 11971,9153 11968,9136 11965,9119 11963,9106 11858,9082 11850,9093 11840,9107 11830,9120 11821,9134 11812,9148 11803,9161 11795,9174 11786,9187 11779,9199 11771,9211 11764,9223 11757,9235 11750,9247 11744,9258 11737,9269 11732,9280 11726,9291 11720,9301 11715,9311 11710,9321 11706,9331 11701,9340 11697,9349 11693,9358 11590,9339 11590,9329 11589,9319 11588,9309 11587,9298 11586,9288 11585,9276 11583,9265 11582,9253 11580,9241 11578,9228 11576,9215 11574,9202 11572,9188 11569,9174 11567,9160 11564,9146 11561,9131 11557,9116 11554,9100 11550,9084 11546,9068 11542,9052 11538,9035 11534,9022 11428,9008 11421,9019 11412,9034 11404,9049 11396,9063 11388,9077 11380,9091 11373,9105 11366,9118 11359,9131 11353,9144 11346,9157 11341,9169 11335,9182 11329,9193 11324,9205 11319,9216 11315,9227 11310,9238 11306,9249 11302,9259 11298,9269 11294,9278 11291,9288 11288,9297 11184,9288 11182,9277 11181,9268 11179,9258 11177,9247 11175,9236 11173,9225 11170,9214 11168,9202 11165,9190 11162,9178 11159,9165 11156,9152 11152,9139 11149,9125 11145,9111 11141,9097 11136,9082 11132,9068 11127,9053 11122,9037 11116,9021 11111,9006 11105,8989 11100,8977 10993,8971 10987,8983 10980,8999 10973,9014 10966,9029 10959,9044 10953,9059 10947,9073 10941,9087 10935,9101 10930,9114 10925,9127 10920,9140 10916,9153 10911,9165 10907,9177 10903,9189 10899,9200 10896,9211 10893,9222 10889,9233 10886,9243 10884,9253 10881,9262 10879,9272 10774,9272 10772,9261 10769,9252 10767,9242 10764,9232 10761,9221 10758,9210 10755,9199 10751,9188 10747,9176 10743,9164 10739,9151 10735,9139 10730,9126 10725,9113 10720,9099 10715,9085 10709,9071 10703,9057 10697,9042 10691,9027 10684,9012 10677,8997 10670,8981 10664,8969 10557,8973 10552,8985 10546,9002 10540,9018 10535,9033 10529,9048 10524,9063 10519,9078 10515,9093 10510,9107 10506,9121 10502,9134 10499,9147 10495,9160 10492,9173 10489,9185 10486,9197 10483,9209 10481,9220 10478,9232 10476,9242 10474,9253 10472,9263 10471,9273 10469,9283 10365,9291 10362,9281 10358,9272 10355,9262 10351,9252 10347,9242 10343,9232 10339,9221 10334,9210 10330,9198 10325,9186 10319,9175 10314,9162 10308,9150 10302,9137 10296,9124 10289,9111 10282,9097 10275,9083 10268,9069 10260,9055 10252,9041 10244,9026 10236,9011 10229,8999 10122,9013 10118,9026 10114,9042 10109,9058 10105,9074 10101,9090 10098,9106 10094,9121 10091,9135 10088,9150 10085,9164 10082,9178 10080,9191 10077,9205 10075,9218 10073,9230 10071,9242 10070,9254 10068,9266 10067,9277 10065,9288 10064,9299 10063,9309 10063,9319 10062,9329 9959,9346 9955,9337 9951,9328 9946,9318 9942,9309 9937,9299 9932,9289 9927,9278 9921,9268 9916,9257 9910,9246 9903,9234 9897,9222 9890,9211 9883,9198 9875,9186 9868,9173 9860,9160 9851,9147 9843,9134 9834,9120 9825,9107 9815,9093 9806,9079 9798,9068 9693,9090 9690,9103 9687,9120 9684,9137 9681,9153 9679,9169 9676,9185 9674,9200 9672,9215 9670,9230 9669,9244 9667,9258 9666,9272 9665,9285 9664,9298 9663,9311 9662,9323 9662,9335 9661,9347 9661,9358 9660,9369 9660,9380 9660,9390 9660,9400 9660,9410 9559,9437 9554,9428 9549,9419 9544,9410 9539,9401 9533,9391 9527,9382 9521,9372 9515,9362 9508,9351 9501,9341 9494,9330 9486,9319 9479,9307 9470,9296 9462,9284 9453,9272 9444,9260 9435,9248 9425,9235 9415,9223 9405,9210 9394,9197 9383,9183 9374,9173 9272,9205 9270,9218 9269,9235 9267,9252 9266,9268 9265,9285 9264,9300 9263,9316 9262,9331 9262,9346 9261,9360 9261,9374 9261,9388 9261,9402 9261,9415 9261,9427 9262,9440 9262,9452 9262,9463 9263,9475 9264,9486 9264,9496 9265,9506 9266,9516 9267,9527 9169,9562 9163,9553 9158,9545 9152,9536 9146,9528 9139,9519 9132,9510 9126,9500 9118,9491 9111,9481 9103,9471 9095,9461 9086,9450 9077,9440 9068,9429 9059,9418 9049,9407 9039,9396 9029,9384 9018,9373 9007,9361 8995,9349 8983,9337 8971,9324 8962,9315 8862,9355 8862,9369 8862,9386 8862,9403 8862,9420 8862,9436 8863,9452 8863,9467 8864,9482 8865,9497 8865,9511 8866,9525 8868,9539 8869,9553 8870,9566 8871,9578 8873,9590 8874,9602 8876,9614 8877,9625 8879,9636 8880,9646 8882,9657 8884,9666 8886,9677 8791,9720 8784,9712 8778,9704 8772,9696 8765,9688 8758,9680 8750,9671 8742,9663 8734,9654 8726,9645 8717,9635 8708,9626 8699,9616 8689,9607 8679,9597 8669,9587 8658,9576 8647,9566 8636,9555 8624,9545 8612,9534 8599,9523 8587,9512 8573,9501 8563,9492 8468,9541 8468,9555 8470,9572 8471,9589 8473,9605 8474,9621 8476,9637 8478,9652 8480,9667 8482,9682 8484,9696 8486,9710 8489,9724 8491,9737 8493,9750 8496,9762 8498,9775 8501,9786 8503,9798 8506,9809 8508,9819 8511,9830 8514,9840 8516,9849 8519,9859 8428,9911 8421,9903 8414,9896 8407,9889 8399,9881 8392,9874 8383,9866 8375,9858 8366,9850 8357,9841 8347,9833 8338,9824 8327,9816 8317,9807 8306,9798 8295,9789 8283,9779 8271,9770 8259,9760 8247,9751 8234,9741 8220,9731 8207,9721 8192,9712 8181,9704 8090,9761 8093,9774 8095,9791 8098,9808 8101,9824 8104,9840 8108,9856 8111,9871 8114,9886 8117,9900 8121,9914 8124,9928 8128,9941 8131,9954 8134,9967 8138,9979 8141,9991 8145,10002 8148,10013 8152,10024 8155,10034 8159,10044 8162,10054 8166,10063 8169,10073 8084,10132 8076,10126 8068,10119 8060,10112 8052,10106 8044,10099 8035,10092 8026,10084 8016,10077 8006,10070 7996,10062 7986,10054 7975,10046 7964,10038 7952,10030 7940,10022 7928,10014 7915,10006 7902,9997 7889,9989 7875,9980 7861,9972 7846,9963 7831,9954 7820,9948 7734,10013 7737,10026 7742,10042 7746,10059 7750,10075 7755,10090 7759,10105 7764,10120 7768,10135 7773,10149 7777,10162 7782,10176 7787,10189 7791,10201 7796,10214 7800,10225 7805,10237 7809,10248 7814,10259 7818,10269 7823,10279 7827,10289 7831,10298 7835,10307 7840,10317 7759,10383 7751,10377 7743,10371 7735,10365 7726,10359 7717,10353 7707,10347 7698,10340 7688,10334 7677,10327 7666,10321 7655,10314 7644,10307 7632,10300 7620,10293 7607,10286 7594,10279 7581,10272 7567,10265 7553,10257 7538,10250 7524,10243 7508,10235 7493,10228 7480,10222 7401,10294 7405,10307 7411,10323 7417,10339 7422,10355 7428,10370 7434,10385 7440,10399 7446,10413 7451,10427 7457,10440 7463,10453 7469,10465 7474,10477 7480,10489 7485,10501 7491,10512 7496,10522 7502,10533 7507,10543 7512,10552 7517,10562 7522,10571 7527,10579 7533,10588 7458,10661 7450,10656 7441,10651 7432,10646 7423,10640 7413,10635 7404,10630 7393,10624 7383,10618 7372,10613 7360,10607 7349,10601 7336,10595 7324,10590 7311,10584 7298,10578 7285,10572 7271,10566 7256,10560 7242,10554 7227,10548 7211,10542 7195,10536 7179,10530 7167,10525 7093,10604 7099,10616 7106,10632 7113,10647 7120,10662 7127,10677 7134,10691 7141,10705 7148,10718 7155,10731 7162,10744 7169,10756 7176,10768 7183,10780 7189,10791 7196,10802 7202,10813 7209,10823 7215,10833 7221,10842 7227,10851 7233,10860 7239,10869 7244,10877 7250,10885 7183,10965 7174,10960 7165,10956 7155,10951 7146,10947 7136,10942 7125,10938 7115,10933 7104,10929 7092,10924 7080,10919 7068,10914 7056,10910 7043,10905 7029,10900 7016,10895 7002,10891 6987,10886 6973,10881 6958,10876 6942,10872 6926,10867 6910,10863 6893,10858 6880,10855 6814,10939 6821,10951 6829,10966 6838,10981 6846,10995 6854,11009 6863,11022 6871,11036 6879,11048 6887,11061 6895,11073 6903,11085 6911,11096 6918,11107 6926,11118 6933,11128 6941,11138 6948,11147 6955,11157 6962,11166 6969,11174 6976,11182 6982,11190 6988,11198 6995,11206 6935,11291 6925,11287 6916,11283 6906,11280 6896,11276 6886,11273 6875,11269 6864,11265 6853,11262 6841,11258 6829,11254 6816,11251 6803,11247 6790,11244 6776,11240 6762,11236 6748,11233 6733,11229 6718,11226 6703,11223 6687,11219 6670,11216 6654,11213 6637,11210 6624,11208 6565,11298 6573,11309 6583,11323 6592,11337 6602,11350 6611,11364 6621,11376 6630,11389 6639,11401 6648,11412 6657,11424 6666,11435 6675,11445 6684,11456 6692,11465 6700,11475 6709,11484 6717,11493 6725,11502 6732,11510 6740,11518 6747,11526 6754,11533 6761,11540 6769,11547 6716,11637 6706,11634 6697,11632 6687,11629 6676,11626 6666,11624 6655,11621 6643,11618 6632,11616 6620,11613 6607,11610 6594,11608 6581,11605 6568,11603 6554,11600 6539,11598 6525,11596 6510,11594 6495,11592 6479,11590 6463,11588 6446,11586 6429,11584 6412,11583 6399,11582 6349,11676 6357,11687 6368,11700 6379,11713 6390,11726 6400,11738 6411,11750 6421,11761 6431,11773 6441,11783 6451,11794 6461,11804 6471,11814 6480,11823 6490,11833 6499,11841 6508,11850 6516,11858 6525,11866 6533,11874 6542,11881 6550,11888 6557,11894 6565,11901 6573,11907 6528,12002 6518,12000 6508,11998 6498,11996 6488,11994 6477,11992 6466,11991 6454,11989 6442,11987 6430,11986 6418,11984 6405,11983 6391,11981 6378,11980 6363,11979 6349,11978 6334,11977 6319,11976 6304,11975 6288,11975 6272,11974 6255,11974 6238,11974 6221,11974 6208,11974 6166,12073 6175,12082 6187,12095 6199,12107 6211,12118 6223,12129 6234,12140 6245,12151 6256,12161 6267,12171 6278,12181 6289,12190 6299,12199 6310,12207 6320,12216 6330,12224 6339,12232 6349,12239 6358,12246 6367,12253 6376,12259 6384,12266 6393,12272 6401,12277 6409,12283 6373,12381 6363,12380 6353,12379 6343,12378 6332,12377 6321,12376 6310,12375 6298,12375 6286,12374 6274,12374 6261,12373 6248,12373 6235,12373 6221,12373 6207,12373 6192,12373 6178,12373 6162,12374 6147,12374 6131,12375 6115,12376 6098,12377 6082,12378 6064,12380 6051,12381 6018,12483 6028,12492 6041,12503 6054,12514 6067,12525 6080,12535 6092,12545 6104,12554 6116,12564 6128,12572 6140,12581 6151,12589 6162,12597 6173,12605 6184,12612 6194,12620 6205,12626 6215,12633 6225,12639 6234,12645 6244,12651 6253,12656 6262,12662 6270,12667 6279,12672 6251,12772 6241,12772 6231,12772 6221,12772 6210,12772 6199,12772 6188,12772 6176,12773 6164,12773 6152,12774 6139,12774 6126,12775 6113,12776 6099,12777 6085,12779 6071,12780 6056,12782 6041,12783 6026,12785 6010,12788 5994,12790 5978,12792 5961,12795 5944,12798 5931,12800 5907,12905 5918,12913 5932,12923 5945,12933 5959,12942 5973,12951 5986,12960 5999,12968 6012,12977 6024,12984 6036,12992 6048,12999 6060,13006 6072,13013 6083,13019 6094,13026 6105,13031 6116,13037 6126,13043 6136,13048 6146,13053 6156,13057 6165,13062 6174,13066 6183,13070 6164,13173 6154,13173 6144,13174 6134,13175 6123,13176 6113,13177 6101,13178 6090,13180 6078,13181 6066,13183 6053,13185 6040,13187 6027,13189 6013,13191 5999,13194 5985,13196 5971,13199 5956,13202 5941,13206 5925,13209 5909,13213 5893,13217 5877,13221 5860,13225 5847,13229 5833,13335 5844,13342 5859,13351 5874,13359 5888,13367 5902,13375 5916,13383 5930,13390 5943,13397 5956,13404 5969,13410 5982,13417 5994,13422 6007,13428 6018,13434 6030,13439 6041,13444 6052,13448 6063,13453 6074,13457 6084,13461 6094,13465 6103,13469 6113,13472 6122,13475 6113,13579 6102,13581 6093,13582 6083,13584 6072,13586 6061,13588 6050,13590 6039,13593 6027,13595 6015,13598 6003,13601 5990,13604 5977,13607 5964,13611 5950,13614 5936,13618 5922,13622 5907,13627 5893,13631 5878,13636 5862,13641 5846,13647 5831,13652 5814,13658 5802,13663 5796,13770 5808,13776 5824,13783 5839,13790 5854,13797 5869,13804 5884,13810 5898,13816 5912,13822 5926,13828 5939,13833 5952,13838 5965,13843 5978,13847 5990,13852 6002,13856 6014,13860 6025,13864 6036,13867 6047,13870 6058,13874 6068,13877 6078,13879 6087,13882 6097,13884 6097,13989 6086,13991 6077,13994 6067,13996 6057,13999 6046,14002 6035,14005 6024,14008 6013,14012 6001,14016 5989,14020 5976,14024 5964,14028 5951,14033 5938,14038 5924,14043 5910,14048 5896,14054 5882,14060 5867,14066 5852,14072 5837,14079 5822,14086 5806,14093 5794,14099 5798,14206 5810,14211 5827,14217 5843,14223 5858,14228 5873,14234 5888,14239 5903,14244 5918,14248 5932,14253 5946,14257 5959,14261 5972,14264 5985,14268 5998,14271 6010,14274 6022,14277 6034,14280 6045,14282 6057,14285 6067,14287 6078,14289 6088,14291 6098,14292 6108,14294 6116,14398 6106,14401 6097,14405 6087,14408 6077,14412 6067,14416 6057,14420 6046,14424 6035,14429 6023,14433 6011,14438 6000,14444 5987,14449 5975,14455 5962,14461 5949,14467 5936,14474 5922,14481 5908,14488 5894,14495 5880,14503 5866,14511 5851,14519 5836,14527 5824,14534 5838,14641 5851,14645 5867,14649 5883,14654 5899,14658 5915,14662 5931,14665 5946,14669 5960,14672 5975,14675 5989,14678 6003,14681 6016,14683 6030,14686 6043,14688 6055,14690 6067,14692 6079,14693 6091,14695 6102,14696 6113,14698 6124,14699 6134,14700 6144,14700 6154,14701 6171,14804 6162,14808 6153,14812 6143,14817 6134,14821 6124,14826 6114,14831 6103,14836 6093,14842 6082,14847 6071,14853 6059,14860 6047,14866 6036,14873 6023,14880 6011,14888 5998,14895 5985,14903 5972,14912 5959,14920 5945,14929 5932,14938 5918,14948 5904,14957 5893,14965 5915,15070 5928,15073 5945,15076 5962,15079 5978,15082 5994,15084 6010,15087 6025,15089 6040,15091 6055,15093 6069,15094 6083,15096 6097,15097 6110,15098 6123,15099 6136,15100 6148,15101 6160,15101 6172,15102 6183,15102 6194,15103 6205,15103 6215,15103 6225,15103 6235,15103 6262,15204 6253,15209 6244,15214 6235,15219 6226,15224 6216,15230 6207,15236 6197,15242 6187,15248 6176,15255 6166,15262 6155,15269 6144,15277 6132,15284 6121,15293 6109,15301 6097,15310 6085,15319 6073,15328 6060,15338 6048,15348 6035,15358 6022,15369 6008,15380 5998,15389 6030,15491 6043,15493 6060,15494 6077,15496 6093,15497 6110,15498 6125,15499 6141,15500 6156,15501 6171,15501 6185,15502 6199,15502 6213,15502 6227,15502 6240,15502 6252,15502 6265,15501 6277,15501 6288,15501 6300,15500 6311,15499 6321,15499 6331,15498 6341,15497 6352,15496 6387,15594 6378,15600 6370,15605 6361,15611 6353,15617 6344,15624 6335,15631 6325,15637 6316,15645 6306,15652 6296,15660 6286,15668 6275,15677 6265,15686 6254,15695 6243,15704 6232,15714 6221,15724 6209,15734 6198,15745 6186,15756 6174,15768 6162,15780 6149,15792 6140,15801 6180,15901 6194,15901 6211,15901 6228,15901 6245,15901 6261,15901 6277,15900 6292,15900 6307,15899 6322,15898 6336,15898 6350,15897 6364,15895 6378,15894 6391,15893 6403,15892 6415,15890 6427,15889 6439,15887 6450,15886 6461,15884 6471,15883 6482,15881 6491,15879 6502,15877 6545,15972 6537,15979 6529,15985 6521,15991 6513,15998 6505,16005 6496,16013 6488,16021 6479,16029 6470,16037 6460,16046 6451,16055 6441,16064 6432,16074 6422,16084 6412,16094 6401,16105 6391,16116 6380,16127 6370,16139 6359,16151 6348,16164 6337,16176 6326,16190 6317,16200 6366,16295 6380,16295 6397,16293 6414,16292 6430,16290 6446,16289 6462,16287 6477,16285 6492,16283 6507,16281 6521,16279 6535,16277 6549,16274 6562,16272 6575,16270 6587,16267 6600,16265 6611,16262 6623,16260 6634,16257 6644,16255 6655,16252 6665,16249 6674,16247 6684,16244 6736,16335 6728,16342 6721,16349 6714,16356 6706,16364 6699,16371 6691,16380 6683,16388 6675,16397 6666,16406 6658,16416 6649,16425 6641,16436 6632,16446 6623,16457 6614,16468 6604,16480 6595,16492 6585,16504 6576,16516 6566,16529 6556,16543 6546,16556 6537,16571 6529,16582 6586,16673 6599,16670 6616,16668 6633,16665 6649,16662 6665,16659 6681,16655 6696,16652 6711,16649 6725,16646 6739,16642 6753,16639 6766,16635 6779,16632 6792,16629 6804,16625 6816,16622 6827,16618 6838,16615 6849,16611 6859,16608 6869,16604 6879,16601 6888,16597 6898,16594 6957,16679 6951,16687 6944,16695 6937,16703 6931,16711 6924,16719 6917,16728 6909,16737 6902,16747 6895,16757 6887,16767 6879,16777 6871,16788 6863,16799 6855,16811 6847,16823 6839,16835 6831,16848 6822,16861 6814,16874 6805,16888 6797,16902 6788,16917 6779,16932 6773,16943 6838,17029 6851,17026 6867,17021 6884,17017 6900,17013 6915,17008 6930,17004 6945,16999 6960,16995 6974,16990 6987,16986 7001,16981 7014,16976 7026,16972 7039,16967 7050,16963 7062,16958 7073,16954 7084,16949 7094,16945 7104,16940 7114,16936 7123,16932 7132,16928 7142,16923 7208,17004 7202,17012 7196,17020 7190,17028 7184,17037 7178,17046 7172,17056 7165,17065 7159,17075 7152,17086 7146,17097 7139,17108 7132,17119 7125,17131 7118,17143 7111,17156 7104,17169 7097,17182 7090,17196 7082,17210 7075,17225 7068,17239 7060,17255 7053,17270 7047,17283 7119,17362 7132,17358 7148,17352 7164,17346 7180,17341 7195,17335 7210,17329 7224,17323 7238,17317 7252,17312 7265,17306 7278,17300 7290,17294 7302,17289 7314,17283 7326,17278 7337,17272 7347,17267 7358,17261 7368,17256 7377,17251 7387,17246 7396,17241 7404,17236 7413,17230 7486,17305 7481,17313 7476,17322 7471,17331 7465,17340 7460,17350 7455,17359 7449,17370 7443,17380 7438,17391 7432,17403 7426,17414 7420,17427 7415,17439 7409,17452 7403,17465 7397,17478 7391,17492 7385,17507 7379,17521 7373,17536 7367,17552 7361,17568 7355,17584 7350,17596 7429,17670 7441,17664 7457,17657 7472,17650 7487,17643 7502,17636 7516,17629 7530,17622 7543,17615 7556,17608 7569,17601 7581,17594 7593,17587 7605,17580 7616,17574 7627,17567 7638,17561 7648,17554 7658,17548 7667,17542 7676,17536 7685,17530 7694,17524 7702,17519 7710,17513 7790,17580 7785,17589 7781,17598 7776,17608 7772,17617 7767,17627 7763,17638 7758,17648 7754,17659 7749,17671 7744,17683 7739,17695 7735,17707 7730,17720 7725,17734 7720,17747 7716,17761 7711,17776 7706,17790 7701,17805 7697,17821 7692,17837 7688,17853 7683,17870 7680,17883 7764,17949 7776,17942 7791,17934 7806,17925 7820,17917 7834,17909 7847,17900 7861,17892 7873,17884 7886,17876 7898,17868 7910,17860 7921,17852 7932,17845 7943,17837 7953,17830 7963,17822 7972,17815 7982,17808 7991,17801 7999,17794 8007,17787 8015,17781 8023,17775 8031,17768 8116,17828 8112,17838 8108,17847 8105,17857 8101,17867 8098,17877 8094,17888 8090,17899 8087,17910 8083,17922 8079,17934 8076,17947 8072,17960 8069,17973 8065,17987 8061,18001 8058,18015 8054,18030 8051,18045 8048,18060 8044,18076 8041,18093 8038,18109 8035,18126 8033,18139 8123,18198 8134,18190 8148,18180 8162,18171 8175,18161 8189,18152 8201,18142 8214,18133 8226,18124 8237,18115 8249,18106 8260,18097 8270,18088 8281,18079 8290,18071 8300,18063 8309,18054 8318,18046 8327,18038 8335,18031 8343,18023 8351,18016 8358,18009 8365,18002 8372,17994 8462,18047 8459,18057 8457,18066 8454,18076 8451,18087 8449,18097 8446,18108 8443,18120 8441,18131 8438,18143 8435,18156 8433,18169 8430,18182 8428,18195 8425,18209 8423,18224 8421,18238 8419,18253 8417,18268 8415,18284 8413,18300 8411,18317 8409,18334 8408,18351 8407,18364 8501,18414 8512,18406 8525,18395 8538,18384 8551,18373 8563,18363 8575,18352 8586,18342 8598,18332 8608,18322 8619,18312 8629,18302 8639,18292 8648,18283 8658,18273 8666,18264 8675,18255 8683,18247 8691,18238 8699,18230 8706,18221 8713,18213 8719,18206 8726,18198 8732,18190 8827,18235 8825,18245 8823,18255 8821,18265 8819,18275 8817,18286 8816,18297 8814,18309 8812,18321 8811,18333 8809,18345 8808,18358 8806,18372 8805,18385 8804,18400 8803,18414 8802,18429 8801,18444 8800,18459 8800,18475 8799,18491 8799,18508 8799,18525 8799,18542 8799,18555 8898,18597 8907,18588 8920,18576 8932,18564 8943,18552 8954,18540 8965,18529 8976,18518 8986,18507 8996,18496 9006,18485 9015,18474 9024,18464 9032,18453 9041,18443 9049,18433 9057,18424 9064,18414 9071,18405 9078,18396 9084,18387 9091,18379 9097,18370 9102,18362 9108,18354 9206,18390 9205,18400 9204,18410 9203,18420 9202,18431 9201,18442 9200,18453 9200,18465 9199,18477 9199,18489 9198,18502 9198,18515 9198,18528 9198,18542 9198,18556 9198,18571 9198,18585 9199,18601 9199,18616 9200,18632 9201,18648 9202,18665 9203,18681 9205,18699 9206,18712 9308,18745 9317,18735 9328,18722 9339,18709 9350,18696 9360,18683 9370,18671 9379,18659 9389,18647 9397,18635 9406,18623 9414,18612 9422,18601 9430,18590 9437,18579 9445,18569 9451,18558 9458,18548 9464,18538 9470,18529 9476,18519 9481,18510 9487,18501 9492,18493 9497,18484 9597,18512 9597,18522 9597,18532 9597,18542 9597,18553 9597,18564 9597,18575 9598,18587 9598,18599 9599,18611 9599,18624 9600,18637 9601,18650 9602,18664 9604,18678 9605,18692 9607,18707 9608,18722 9610,18737 9613,18753 9615,18769 9617,18785 9620,18802 9623,18819 9625,18832 9730,18856 9738,18845 9748,18831 9758,18818 9767,18804 9776,18790 9785,18777 9793,18764 9802,18751 9809,18739 9817,18727 9824,18715 9831,18703 9838,18691 9844,18680 9851,18669 9856,18658 9862,18647 9868,18637 9873,18627 9878,18617 9882,18607 9887,18598 9891,18589 9895,18580 9998,18599 9998,18609 9999,18619 10000,18629 10001,18640 10002,18650 10003,18662 10005,18673 10006,18685 10008,18697 10010,18710 10012,18723 10014,18736 10016,18750 10019,18764 10021,18778 10024,18792 10027,18807 10031,18822 10034,18838 10038,18854 10042,18870 10046,18886 10050,18903 10054,18916 10160,18930 10167,18919 10176,18904 10184,18889 10192,18875 10200,18861 10208,18847 10215,18833 10222,18820 10229,18807 10235,18794 10242,18781 10247,18769 10253,18756 10259,18745 10264,18733 10269,18722 10273,18711 10278,18700 10282,18689 10286,18679 10290,18669 10294,18660 10297,18650 10300,18641 10404,18650 10406,18661 10407,18670 10409,18680 10411,18691 10413,18702 10415,18713 10418,18724 10420,18736 10423,18748 10426,18760 10429,18773 10432,18786 10436,18799 10439,18813 10443,18827 10447,18841 10452,18856 10456,18870 10461,18885 10466,18901 10472,18917 10477,18932 10483,18949 10488,18961 10595,18967 10601,18955 10608,18939 10615,18924 10622,18909 10629,18894 10635,18879 10641,18865 10647,18851 10653,18837 10658,18824 10663,18811 10668,18798 10672,18785 10677,18773 10681,18761 10685,18749 10689,18738 10692,18727 10695,18716 10699,18705 10702,18695 10704,18685 10707,18676 10709,18666 10814,18666 10816,18677 10819,18686 10821,18696 10824,18706 10827,18717 10830,18728 10833,18739 10837,18750 10841,18762 10845,18774 10849,18787 10853,18799 10858,18812 10863,18825 10868,18839 10873,18853 10879,18867 10885,18881 10891,18896 10897,18911 10904,18926 10911,18941 10918,18957 10924,18969 11031,18965 11036,18953 11042,18936 11048,18920 11053,18905 11059,18890 11064,18875 11069,18860 11073,18845 11078,18831 11082,18817 11086,18804 11089,18791 11093,18778 11096,18765 11099,18753 11102,18741 11105,18729 11107,18718 11110,18706 11112,18696 11114,18685 11116,18675 11117,18665 11119,18655 11223,18647 11226,18657 11230,18666 11233,18676 11237,18686 11241,18696 11245,18706 11249,18717 11254,18728 11258,18740 11263,18752 11269,18763 11274,18776 11280,18788 11286,18801 11292,18814 11299,18827 11306,18841 11313,18855 11320,18869 11328,18883 11336,18897 11344,18912 11352,18927 11359,18939 11466,18925 11470,18912 11474,18896 11479,18880 11483,18864 11487,18848 11490,18832 11494,18817 11497,18803 11500,18788 11503,18774 11506,18760 11508,18747 11511,18733 11513,18720 11515,18708 11517,18696 11518,18684 11520,18672 11521,18661 11523,18650 11524,18639 11525,18629 11525,18619 11526,18609 11629,18592 11633,18601 11637,18610 11642,18620 11646,18629 11651,18639 11656,18649 11661,18660 11667,18670 11672,18681 11678,18692 11685,18704 11691,18716 11698,18727 11705,18740 11713,18752 11720,18765 11728,18778 11737,18791 11745,18804 11754,18818 11763,18831 11773,18845 11782,18859 11790,18870 11895,18848 11898,18835 11901,18818 11904,18801 11907,18785 11909,18769 11912,18753 11914,18738 11916,18723 11918,18708 11919,18694 11921,18680 11922,18666 11923,18653 11924,18640 11925,18627 11926,18615 11926,18603 11927,18591 11927,18580 11928,18569 11928,18558 11928,18548 11928,18538 11928,18528 12029,18501 12034,18510 12039,18519 12044,18528 12049,18537 12055,18547 12061,18556 12067,18566 12073,18576 12080,18587 12087,18597 12094,18608 12102,18619 12109,18631 12118,18642 12126,18654 12135,18666 12144,18678 12153,18690 12163,18703 12173,18715 12183,18728 12194,18741 12205,18755 12214,18765 12316,18733 12318,18720 12319,18703 12321,18686 12322,18670 12323,18653 12324,18638 12325,18622 12326,18607 12326,18592 12327,18578 12327,18564 12327,18550 12327,18536 12327,18523 12327,18511 12326,18498 12326,18486 12326,18475 12325,18463 12324,18452 12324,18442 12323,18432 12322,18422 12321,18411 12419,18376 12425,18385 12430,18393 12436,18402 12442,18410 12449,18419 12456,18428 12462,18438 12470,18447 12477,18457 12485,18467 12493,18477 12502,18488 12511,18498 12520,18509 12529,18520 12539,18531 12549,18542 12559,18554 12570,18565 12581,18577 12593,18589 12605,18601 12617,18614 12626,18623 12726,18583 12726,18569 12726,18552 12726,18535 12726,18518 12726,18502 12725,18486 12725,18471 12724,18456 12723,18441 12723,18427 12722,18413 12720,18399 12719,18385 12718,18372 12717,18360 12715,18348 12714,18336 12712,18324 12711,18313 12709,18302 12708,18292 12706,18281 12704,18272 12702,18261 12797,18218 12804,18226 12810,18234 12816,18242 12823,18250 12830,18258 12838,18267 12846,18275 12854,18284 12862,18293 12871,18303 12880,18312 12889,18322 12899,18331 12909,18341 12919,18351 12930,18362 12941,18372 12952,18383 12964,18393 12976,18404 12989,18415 13001,18426 13015,18437 13025,18446 13120,18397 13120,18383 13118,18366 13117,18349 13115,18333 13114,18317 13112,18301 13110,18286 13108,18271 13106,18256 13104,18242 13102,18228 13099,18214 13097,18201 13095,18188 13092,18176 13090,18163 13087,18152 13085,18140 13082,18129 13080,18119 13077,18108 13074,18098 13072,18089 13069,18079 13160,18027 13167,18035 13174,18042 13181,18049 13189,18057 13196,18064 13205,18072 13213,18080 13222,18088 13231,18097 13241,18105 13250,18114 13261,18122 13271,18131 13282,18140 13293,18149 13305,18159 13317,18168 13329,18178 13341,18187 13354,18197 13368,18207 13381,18217 13396,18226 13407,18234 13498,18177 13495,18164 13493,18147 13490,18130 13487,18114 13484,18098 13480,18082 13477,18067 13474,18052 13471,18038 13467,18024 13464,18010 13460,17997 13457,17984 13454,17971 13450,17959 13447,17947 13443,17936 13440,17925 13436,17914 13433,17904 13429,17894 13426,17884 13422,17875 13419,17865 13504,17806 13512,17812 13520,17819 13528,17826 13536,17832 13544,17839 13553,17846 13562,17854 13572,17861 13582,17868 13592,17876 13602,17884 13613,17892 13624,17900 13636,17908 13648,17916 13660,17924 13673,17932 13686,17941 13699,17949 13713,17958 13727,17966 13742,17975 13757,17984 13768,17990 13854,17925 13851,17912 13846,17896 13842,17879 13838,17863 13833,17848 13829,17833 13824,17818 13820,17803 13815,17789 13811,17776 13806,17762 13801,17749 13797,17737 13792,17724 13788,17713 13783,17701 13779,17690 13774,17679 13770,17669 13765,17659 13761,17649 13757,17640 13753,17631 13748,17621 13829,17555 13837,17561 13845,17567 13853,17573 13862,17579 13871,17585 13881,17591 13890,17598 13900,17604 13911,17611 13922,17617 13933,17624 13944,17631 13956,17638 13968,17645 13981,17652 13994,17659 14007,17666 14021,17673 14035,17681 14050,17688 14064,17695 14080,17703 14095,17710 14108,17716 14187,17644 14183,17631 14177,17615 14171,17599 14166,17583 14160,17568 14154,17553 14148,17539 14142,17525 14137,17511 14131,17498 14125,17485 14119,17473 14114,17461 14108,17449 14103,17437 14097,17426 14092,17416 14086,17405 14081,17395 14076,17386 14071,17376 14066,17367 14061,17359 14055,17350 14130,17277 14138,17282 14147,17287 14156,17292 14165,17298 14175,17303 14184,17308 14195,17314 14205,17320 14216,17325 14228,17331 14239,17337 14252,17343 14264,17348 14277,17354 14290,17360 14303,17366 14317,17372 14332,17378 14346,17384 14361,17390 14377,17396 14393,17402 14409,17408 14421,17413 14495,17334 14489,17322 14482,17306 14475,17291 14468,17276 14461,17261 14454,17247 14447,17233 14440,17220 14433,17207 14426,17194 14419,17182 14412,17170 14405,17158 14399,17147 14392,17136 14386,17125 14379,17115 14373,17105 14367,17096 14361,17087 14355,17078 14349,17069 14344,17061 14338,17053 14405,16973 14414,16978 14423,16982 14433,16987 14442,16991 14452,16996 14463,17000 14473,17005 14484,17009 14496,17014 14508,17019 14520,17024 14532,17028 14545,17033 14559,17038 14572,17043 14586,17047 14601,17052 14615,17057 14630,17062 14646,17066 14662,17071 14678,17075 14695,17080 14708,17083 14774,16999 14767,16987 14759,16972 14750,16957 14742,16943 14734,16929 14725,16916 14717,16902 14709,16890 14701,16877 14693,16865 14685,16853 14677,16842 14670,16831 14662,16820 14655,16810 14647,16800 14640,16791 14633,16781 14626,16772 14619,16764 14612,16756 14606,16748 14600,16740 14593,16732 14653,16647 14663,16651 14672,16655 14682,16658 14692,16662 14702,16665 14713,16669 14724,16673 14735,16676 14747,16680 14759,16684 14772,16687 14785,16691 14798,16694 14812,16698 14826,16702 14840,16705 14855,16709 14870,16712 14885,16715 14901,16719 14918,16722 14934,16725 14951,16728 14964,16730 15023,16640 15015,16629 15005,16615 14996,16601 14986,16588 14977,16574 14967,16562 14958,16549 14949,16537 14940,16526 14931,16514 14922,16503 14913,16493 14904,16482 14896,16473 14888,16463 14879,16454 14871,16445 14863,16436 14856,16428 14848,16420 14841,16412 14834,16405 14827,16398 14819,16391 14872,16301 14882,16304 14891,16306 14901,16309 14912,16312 14922,16314 14933,16317 14945,16320 14956,16322 14968,16325 14981,16328 14994,16330 15007,16333 15020,16335 15034,16338 15049,16340 15063,16342 15078,16344 15093,16346 15109,16348 15125,16350 15142,16352 15159,16354 15176,16355 15189,16356 15239,16262 15231,16251 15220,16238 15209,16225 15198,16212 15188,16200 15177,16188 15167,16177 15157,16165 15147,16155 15137,16144 15127,16134 15117,16124 15108,16115 15098,16105 15089,16097 15080,16088 15072,16080 15063,16072 15055,16064 15046,16057 15038,16050 15031,16044 15023,16037 15015,16031 15060,15936 15070,15938 15080,15940 15090,15942 15100,15944 15111,15946 15122,15947 15134,15949 15146,15951 15158,15952 15170,15954 15183,15955 15197,15957 15210,15958 15225,15959 15239,15960 15254,15961 15269,15962 15284,15963 15300,15963 15316,15964 15333,15964 15350,15964 15367,15964 15380,15964 15422,15865 15413,15856 15401,15843 15389,15831 15377,15820 15365,15809 15354,15798 15343,15787 15332,15777 15321,15767 15310,15757 15299,15748 15289,15739 15278,15731 15268,15722 15258,15714 15249,15706 15239,15699 15230,15692 15221,15685 15212,15679 15204,15672 15195,15666 15187,15661 15179,15655 15215,15557 15225,15558 15235,15559 15245,15560 15256,15561 15267,15562 15278,15563 15290,15563 15302,15564 15314,15564 15327,15565 15340,15565 15353,15565 15367,15565 15381,15565 15396,15565 15410,15565 15426,15564 15441,15564 15457,15563 15473,15562 15490,15561 15506,15560 15524,15558 15537,15557 15570,15455 15560,15446 15547,15435 15534,15424 15521,15413 15508,15403 15496,15393 15484,15384 15472,15374 15460,15366 15448,15357 15437,15349 15426,15341 15415,15333 15404,15326 15394,15318 15383,15312 15373,15305 15363,15299 15354,15293 15344,15287 15335,15282 15326,15276 15318,15271 15309,15266 15337,15166 15347,15166 15357,15166 15367,15166 15378,15166 15389,15166 15400,15166 15412,15165 15424,15165 15436,15164 15449,15164 15462,15163 15475,15162 15489,15161 15503,15159 15517,15158 15532,15156 15547,15155 15562,15153 15578,15150 15594,15148 15610,15146 15627,15143 15644,15140 15657,15138 15681,15033 15670,15025 15656,15015 15643,15005 15629,14996 15615,14987 15602,14978 15589,14970 15576,14961 15564,14954 15552,14946 15540,14939 15528,14932 15516,14925 15505,14919 15494,14912 15483,14907 15472,14901 15462,14895 15452,14890 15442,14885 15432,14881 15423,14876 15414,14872 15405,14868 15424,14765 15434,14765 15444,14764 15454,14763 15465,14762 15475,14761 15487,14760 15498,14758 15510,14757 15522,14755 15535,14753 15548,14751 15561,14749 15575,14747 15589,14744 15603,14742 15617,14739 15632,14736 15647,14732 15663,14729 15679,14725 15695,14721 15711,14717 15728,14713 15741,14709 15755,14603 15744,14596 15729,14587 15714,14579 15700,14571 15686,14563 15672,14555 15658,14548 15645,14541 15632,14534 15619,14528 15606,14521 15594,14516 15581,14510 15570,14504 15558,14499 15547,14494 15536,14490 15525,14485 15514,14481 15504,14477 15494,14473 15485,14469 15475,14466 15466,14463 15475,14359 15486,14357 15495,14356 15505,14354 15516,14352 15527,14350 15538,14348 15549,14345 15561,14343 15573,14340 15585,14337 15598,14334 15611,14331 15624,14327 15638,14324 15652,14320 15666,14316 15681,14311 15695,14307 15710,14302 15726,14297 15742,14291 15757,14286 15774,14280 15786,14275 15792,14168 15780,14162 15764,14155 15749,14148 15734,14141 15719,14134 15704,14128 15690,14122 15676,14116 15662,14110 15649,14105 15636,14100 15623,14095 15610,14091 15598,14086 15586,14082 15574,14078 15563,14074 15552,14071 15541,14068 15530,14064 15520,14061 15510,14059 15501,14056 15491,14054 15491,13949 Z"/><path d="M 7655,13969 L 7656,13888 7659,13807 7664,13727 7671,13648 7680,13569 7691,13491 7704,13413 7719,13336 7735,13260 7754,13184 7774,13110 7796,13035 7820,12962 7845,12890 7873,12818 7902,12747 7932,12677 7965,12608 7998,12540 8034,12473 8071,12406 8109,12341 8149,12277 8191,12214 8234,12152 8279,12091 8324,12031 8372,11972 8420,11915 8470,11858 8522,11803 8574,11749 8628,11697 8683,11645 8740,11595 8797,11547 8856,11499 8916,11453 8977,11409 9039,11366 9102,11324 9166,11284 9232,11246 9298,11209 9365,11173 9433,11139 9502,11107 9572,11077 9643,11048 9715,11020 9787,10995 9861,10971 9935,10949 10010,10929 10085,10910 10161,10894 10238,10879 10316,10866 10394,10855 10473,10846 10553,10839 10633,10834 10713,10831 10794,10830 10875,10831 10956,10834 11036,10839 11115,10846 11194,10855 11272,10866 11350,10879 11427,10894 11503,10910 11579,10929 11653,10949 11728,10971 11801,10995 11873,11020 11945,11048 12016,11077 12086,11107 12155,11139 12223,11173 12290,11209 12357,11246 12422,11284 12486,11324 12549,11366 12611,11409 12672,11453 12732,11499 12791,11547 12848,11595 12905,11645 12960,11697 13014,11749 13066,11803 13118,11858 13168,11915 13216,11972 13264,12031 13310,12091 13354,12152 13397,12214 13439,12277 13479,12341 13517,12406 13554,12473 13590,12540 13624,12608 13656,12677 13686,12747 13715,12818 13743,12890 13768,12962 13792,13035 13814,13110 13834,13184 13853,13260 13869,13336 13884,13413 13897,13491 13908,13569 13917,13648 13924,13727 13929,13807 13932,13888 13933,13969 13932,14050 13929,14130 13924,14210 13917,14290 13908,14369 13897,14447 13884,14525 13869,14602 13853,14678 13834,14753 13814,14828 13792,14902 13768,14976 13743,15048 13715,15120 13686,15191 13656,15261 13624,15330 13590,15398 13554,15465 13517,15531 13479,15597 13439,15661 13397,15724 13354,15786 13310,15847 13264,15907 13216,15966 13168,16023 13118,16080 13066,16135 13014,16189 12960,16241 12905,16293 12848,16343 12791,16391 12732,16439 12672,16484 12611,16529 12549,16572 12486,16614 12422,16654 12357,16692 12290,16729 12223,16765 12155,16798 12086,16831 12016,16861 11945,16890 11873,16918 11801,16943 11728,16967 11653,16989 11579,17009 11503,17028 11427,17044 11350,17059 11272,17072 11194,17083 11115,17092 11036,17099 10956,17104 10875,17107 10794,17108 10713,17107 10633,17104 10553,17099 10473,17092 10394,17083 10316,17072 10238,17059 10161,17044 10085,17028 10010,17009 9935,16989 9861,16967 9787,16943 9715,16918 9643,16890 9572,16861 9502,16831 9433,16798 9365,16765 9298,16729 9232,16692 9166,16654 9102,16614 9039,16572 8977,16529 8916,16484 8856,16439 8797,16391 8740,16343 8683,16293 8628,16241 8574,16189 8522,16135 8470,16080 8420,16023 8372,15966 8324,15907 8279,15847 8234,15786 8191,15724 8149,15661 8109,15597 8071,15531 8034,15465 7998,15398 7965,15330 7932,15261 7902,15191 7873,15120 7845,15048 7820,14976 7796,14902 7774,14828 7754,14753 7735,14678 7719,14602 7704,14525 7691,14447 7680,14369 7671,14290 7664,14210 7659,14130 7656,14050 7655,13969 Z"/><path style="fill:none" d="M 10794,10830 L 13933,13969"/><path style="fill:none" d="M 10794,10830 L 7655,13969"/><path style="fill:none" d="M 10794,17108 L 7655,13969"/><path d="M 9821,13969 L 9822,13919 9826,13869 9832,13821 9840,13773 9851,13726 9864,13680 9880,13634 9897,13590 9917,13547 9938,13505 9962,13464 9987,13425 10014,13387 10043,13350 10074,13315 10106,13281 10140,13249 10175,13218 10212,13189 10250,13162 10289,13137 10330,13113 10372,13092 10415,13072 10459,13055 10505,13039 10551,13026 10598,13015 10646,13007 10694,13001 10744,12997 10794,12996 10844,12997 10894,13001 10942,13007 10990,13015 11037,13026 11083,13039 11129,13055 11173,13072 11216,13092 11258,13113 11299,13137 11338,13162 11376,13189 11413,13218 11448,13249 11482,13281 11514,13315 11545,13350 11574,13387 11601,13425 11626,13464 11650,13505 11671,13547 11691,13590 11708,13634 11724,13680 11737,13726 11748,13773 11756,13821 11762,13869 11766,13919 11767,13969 11766,14019 11762,14069 11756,14117 11748,14165 11737,14212 11724,14258 11708,14304 11691,14348 11671,14391 11650,14433 11626,14474 11601,14513 11574,14551 11545,14588 11514,14623 11482,14657 11448,14689 11413,14720 11376,14749 11338,14776 11299,14801 11258,14825 11216,14846 11173,14866 11129,14883 11083,14899 11037,14912 10990,14923 10942,14931 10894,14937 10844,14941 10794,14942 10744,14941 10694,14937 10646,14931 10598,14923 10551,14912 10505,14899 10459,14883 10415,14866 10372,14846 10330,14825 10289,14801 10250,14776 10212,14749 10175,14720 10140,14689 10106,14657 10074,14623 10043,14588 10014,14551 9987,14513 9962,14474 9938,14433 9917,14391 9897,14348 9880,14304 9864,14258 9851,14212 9840,14165 9832,14117 9826,14069 9822,14019 9821,13969 Z"/><path d="M 11767,13969 L 11766,13919 11762,13869 11756,13821 11748,13773 11737,13726 11724,13680 11708,13634 11691,13590 11671,13547 11650,13505 11626,13464 11601,13425 11574,13387 11545,13350 11514,13315 11482,13281 11448,13249 11413,13218 11376,13189 11338,13162 11299,13137 11258,13113 11216,13092 11173,13072 11129,13055 11083,13039 11037,13026 10990,13015 10942,13007 10894,13001 10844,12997 10794,12996 10744,12997 10694,13001 10646,13007 10598,13015 10551,13026 10505,13039 10459,13055 10415,13072 10372,13092 10330,13113 10289,13137 10250,13162 10212,13189 10175,13218 10140,13249 10106,13281 10074,13315 10043,13350 10014,13387 9987,13425 9962,13464 9938,13505 9917,13547 9897,13590 9880,13634 9864,13680 9851,13726 9840,13773 9832,13821 9826,13869 9822,13919 9821,13969 9822,14019 9826,14069 9832,14117 9840,14165 9851,14212 9864,14258 9880,14304 9897,14348 9917,14391 9938,14433 9962,14474 9987,14513 10014,14551 10043,14588 10074,14623 10106,14657 10140,14689 10175,14720 10212,14749 10250,14776 10289,14801 10330,14825 10372,14846 10415,14866 10459,14883 10505,14899 10551,14912 10598,14923 10646,14931 10694,14937 10744,14941 10794,14942 10844,14941 10894,14937 10942,14931 10990,14923 11037,14912 11083,14899 11129,14883 11173,14866 11216,14846 11258,14825 11299,14801 11338,14776 11376,14749 11413,14720 11448,14689 11482,14657 11514,14623 11545,14588 11574,14551 11601,14513 11626,14474 11650,14433 11671,14391 11691,14348 11708,14304 11724,14258 11737,14212 11748,14165 11756,14117 11762,14069 11766,14019 11767,13969 Z"/><path d="M 9821,13969 L 9819,13919 9816,13869 9809,13821 9801,13773 9790,13726 9777,13680 9762,13634 9744,13590 9725,13547 9703,13505 9680,13464 9654,13425 9627,13387 9598,13350 9568,13315 9536,13281 9502,13249 9467,13218 9430,13189 9392,13162 9352,13137 9311,13113 9269,13092 9226,13072 9182,13055 9137,13039 9091,13026 9044,13015 8996,13007 8947,13001 8897,12997 8847,12996 8797,12997 8748,13001 8699,13007 8651,13015 8604,13026 8558,13039 8513,13055 8469,13072 8425,13092 8383,13113 8343,13137 8303,13162 8265,13189 8228,13218 8193,13249 8159,13281 8127,13315 8096,13350 8067,13387 8040,13425 8015,13464 7992,13505 7970,13547 7951,13590 7933,13634 7918,13680 7905,13726 7894,13773 7885,13821 7879,13869 7875,13919 7874,13969 7875,14019 7879,14069 7885,14117 7894,14165 7905,14212 7918,14258 7933,14304 7951,14348 7970,14391 7992,14433 8015,14474 8040,14513 8067,14551 8096,14588 8127,14623 8159,14657 8193,14689 8228,14720 8265,14749 8303,14776 8343,14801 8383,14825 8425,14846 8469,14866 8513,14883 8558,14899 8604,14912 8651,14923 8699,14931 8748,14937 8797,14941 8847,14942 8897,14941 8947,14937 8996,14931 9044,14923 9091,14912 9137,14899 9182,14883 9226,14866 9269,14846 9311,14825 9352,14801 9392,14776 9430,14749 9467,14720 9502,14689 9536,14657 9568,14623 9598,14588 9627,14551 9654,14513 9680,14474 9703,14433 9725,14391 9744,14348 9762,14304 9777,14258 9790,14212 9801,14165 9809,14117 9816,14069 9819,14019 9821,13969 Z"/><path d="M 9821,12022 L 9822,12072 9826,12122 9832,12171 9840,12219 9851,12266 9864,12312 9880,12357 9897,12401 9917,12444 9938,12486 9962,12527 9987,12567 10014,12605 10043,12642 10074,12677 10106,12711 10140,12743 10175,12773 10212,12802 10250,12829 10289,12855 10330,12878 10372,12900 10415,12919 10459,12937 10505,12952 10551,12965 10598,12976 10646,12984 10694,12991 10744,12994 10794,12996 10844,12994 10894,12991 10942,12984 10990,12976 11037,12965 11083,12952 11129,12937 11173,12919 11216,12900 11258,12878 11299,12855 11338,12829 11376,12802 11413,12773 11448,12743 11482,12711 11514,12677 11545,12642 11574,12605 11601,12567 11626,12527 11650,12486 11671,12444 11691,12401 11708,12357 11724,12312 11737,12266 11748,12219 11756,12171 11762,12122 11766,12072 11767,12022 11766,11972 11762,11923 11756,11874 11748,11826 11737,11779 11724,11733 11708,11688 11691,11644 11671,11600 11650,11558 11626,11518 11601,11478 11574,11440 11545,11403 11514,11368 11482,11334 11448,11302 11413,11271 11376,11242 11338,11215 11299,11190 11258,11167 11216,11145 11173,11126 11129,11108 11083,11093 11037,11080 10990,11069 10942,11060 10894,11054 10844,11050 10794,11049 10744,11050 10694,11054 10646,11060 10598,11069 10551,11080 10505,11093 10459,11108 10415,11126 10372,11145 10330,11167 10289,11190 10250,11215 10212,11242 10175,11271 10140,11302 10106,11334 10074,11368 10043,11403 10014,11440 9987,11478 9962,11518 9938,11558 9917,11600 9897,11644 9880,11688 9864,11733 9851,11779 9840,11826 9832,11874 9826,11923 9822,11972 9821,12022 Z"/><path d="M 13714,13969 L 13713,13919 13709,13869 13703,13821 13694,13773 13683,13726 13670,13680 13655,13634 13637,13590 13618,13547 13596,13505 13573,13464 13548,13425 13521,13387 13492,13350 13461,13315 13429,13281 13395,13249 13360,13218 13323,13189 13285,13162 13245,13137 13205,13113 13163,13092 13119,13072 13075,13055 13030,13039 12984,13026 12937,13015 12889,13007 12840,13001 12791,12997 12741,12996 12691,12997 12641,13001 12592,13007 12544,13015 12497,13026 12451,13039 12406,13055 12362,13072 12319,13092 12277,13113 12236,13137 12196,13162 12158,13189 12121,13218 12086,13249 12052,13281 12020,13315 11990,13350 11961,13387 11934,13425 11908,13464 11885,13505 11863,13547 11844,13590 11826,13634 11811,13680 11798,13726 11787,13773 11779,13821 11772,13869 11769,13919 11767,13969 11769,14019 11772,14069 11779,14117 11787,14165 11798,14212 11811,14258 11826,14304 11844,14348 11863,14391 11885,14433 11908,14474 11934,14513 11961,14551 11990,14588 12020,14623 12052,14657 12086,14689 12121,14720 12158,14749 12196,14776 12236,14801 12277,14825 12319,14846 12362,14866 12406,14883 12451,14899 12497,14912 12544,14923 12592,14931 12641,14937 12691,14941 12741,14942 12791,14941 12840,14937 12889,14931 12937,14923 12984,14912 13030,14899 13075,14883 13119,14866 13163,14846 13205,14825 13245,14801 13285,14776 13323,14749 13360,14720 13395,14689 13429,14657 13461,14623 13492,14588 13521,14551 13548,14513 13573,14474 13596,14433 13618,14391 13637,14348 13655,14304 13670,14258 13683,14212 13694,14165 13703,14117 13709,14069 13713,14019 13714,13969 Z"/><path d="M 9821,15916 L 9822,15966 9826,16015 9832,16064 9840,16112 9851,16159 9864,16205 9880,16250 9897,16294 9917,16338 9938,16380 9962,16420 9987,16460 10014,16498 10043,16535 10074,16570 10106,16604 10140,16636 10175,16667 10212,16696 10250,16723 10289,16748 10330,16771 10372,16793 10415,16812 10459,16830 10505,16845 10551,16858 10598,16869 10646,16878 10694,16884 10744,16888 10794,16889 10844,16888 10894,16884 10942,16878 10990,16869 11037,16858 11083,16845 11129,16830 11173,16812 11216,16793 11258,16771 11299,16748 11338,16723 11376,16696 11413,16667 11448,16636 11482,16604 11514,16570 11545,16535 11574,16498 11601,16460 11626,16420 11650,16380 11671,16338 11691,16294 11708,16250 11724,16205 11737,16159 11748,16112 11756,16064 11762,16015 11766,15966 11767,15916 11766,15866 11762,15816 11756,15767 11748,15719 11737,15672 11724,15626 11708,15581 11691,15537 11671,15494 11650,15452 11626,15411 11601,15371 11574,15333 11545,15296 11514,15261 11482,15227 11448,15195 11413,15165 11376,15136 11338,15109 11299,15083 11258,15060 11216,15038 11173,15019 11129,15001 11083,14986 11037,14973 10990,14962 10942,14954 10894,14947 10844,14944 10794,14942 10744,14944 10694,14947 10646,14954 10598,14962 10551,14973 10505,14986 10459,15001 10415,15019 10372,15038 10330,15060 10289,15083 10250,15109 10212,15136 10175,15165 10140,15195 10106,15227 10074,15261 10043,15296 10014,15333 9987,15371 9962,15411 9938,15452 9917,15494 9897,15537 9880,15581 9864,15626 9851,15672 9840,15719 9832,15767 9826,15816 9822,15866 9821,15916 Z"/><path d="M 11767,12022 L 11766,12072 11762,12122 11756,12171 11748,12219 11737,12266 11724,12312 11708,12357 11691,12401 11671,12444 11650,12486 11626,12527 11601,12567 11574,12605 11545,12642 11514,12677 11482,12711 11448,12743 11413,12773 11376,12802 11338,12829 11299,12855 11258,12878 11216,12900 11173,12919 11129,12937 11083,12952 11037,12965 10990,12976 10942,12984 10894,12991 10844,12994 10794,12996 10744,12994 10694,12991 10646,12984 10598,12976 10551,12965 10505,12952 10459,12937 10415,12919 10372,12900 10330,12878 10289,12855 10250,12829 10212,12802 10175,12773 10140,12743 10106,12711 10074,12677 10043,12642 10014,12605 9987,12567 9962,12527 9938,12486 9917,12444 9897,12401 9880,12357 9864,12312 9851,12266 9840,12219 9832,12171 9826,12122 9822,12072 9821,12022 9822,11972 9826,11923 9832,11874 9840,11826 9851,11779 9864,11733 9880,11688 9897,11644 9917,11600 9938,11558 9962,11518 9987,11478 10014,11440 10043,11403 10074,11368 10106,11334 10140,11302 10175,11271 10212,11242 10250,11215 10289,11190 10330,11167 10372,11145 10415,11126 10459,11108 10505,11093 10551,11080 10598,11069 10646,11060 10694,11054 10744,11050 10794,11049 10844,11050 10894,11054 10942,11060 10990,11069 11037,11080 11083,11093 11129,11108 11173,11126 11216,11145 11258,11167 11299,11190 11338,11215 11376,11242 11413,11271 11448,11302 11482,11334 11514,11368 11545,11403 11574,11440 11601,11478 11626,11518 11650,11558 11671,11600 11691,11644 11708,11688 11724,11733 11737,11779 11748,11826 11756,11874 11762,11923 11766,11972 11767,12022 Z"/><path d="M 7874,13969 L 7875,13919 7879,13869 7885,13821 7894,13773 7905,13726 7918,13680 7933,13634 7951,13590 7970,13547 7992,13505 8015,13464 8040,13425 8067,13387 8096,13350 8127,13315 8159,13281 8193,13249 8228,13218 8265,13189 8303,13162 8343,13137 8383,13113 8425,13092 8469,13072 8513,13055 8558,13039 8604,13026 8651,13015 8699,13007 8748,13001 8797,12997 8847,12996 8897,12997 8947,13001 8996,13007 9044,13015 9091,13026 9137,13039 9182,13055 9226,13072 9269,13092 9311,13113 9352,13137 9392,13162 9430,13189 9467,13218 9502,13249 9536,13281 9568,13315 9598,13350 9627,13387 9654,13425 9680,13464 9703,13505 9725,13547 9744,13590 9762,13634 9777,13680 9790,13726 9801,13773 9809,13821 9816,13869 9819,13919 9821,13969 9819,14019 9816,14069 9809,14117 9801,14165 9790,14212 9777,14258 9762,14304 9744,14348 9725,14391 9703,14433 9680,14474 9654,14513 9627,14551 9598,14588 9568,14623 9536,14657 9502,14689 9467,14720 9430,14749 9392,14776 9352,14801 9311,14825 9269,14846 9226,14866 9182,14883 9137,14899 9091,14912 9044,14923 8996,14931 8947,14937 8897,14941 8847,14942 8797,14941 8748,14937 8699,14931 8651,14923 8604,14912 8558,14899 8513,14883 8469,14866 8425,14846 8383,14825 8343,14801 8303,14776 8265,14749 8228,14720 8193,14689 8159,14657 8127,14623 8096,14588 8067,14551 8040,14513 8015,14474 7992,14433 7970,14391 7951,14348 7933,14304 7918,14258 7905,14212 7894,14165 7885,14117 7879,14069 7875,14019 7874,13969 Z"/><path d="M 11767,15916 L 11766,15966 11762,16015 11756,16064 11748,16112 11737,16159 11724,16205 11708,16250 11691,16294 11671,16338 11650,16380 11626,16420 11601,16460 11574,16498 11545,16535 11514,16570 11482,16604 11448,16636 11413,16667 11376,16696 11338,16723 11299,16748 11258,16771 11216,16793 11173,16812 11129,16830 11083,16845 11037,16858 10990,16869 10942,16878 10894,16884 10844,16888 10794,16889 10744,16888 10694,16884 10646,16878 10598,16869 10551,16858 10505,16845 10459,16830 10415,16812 10372,16793 10330,16771 10289,16748 10250,16723 10212,16696 10175,16667 10140,16636 10106,16604 10074,16570 10043,16535 10014,16498 9987,16460 9962,16420 9938,16380 9917,16338 9897,16294 9880,16250 9864,16205 9851,16159 9840,16112 9832,16064 9826,16015 9822,15966 9821,15916 9822,15866 9826,15816 9832,15767 9840,15719 9851,15672 9864,15626 9880,15581 9897,15537 9917,15494 9938,15452 9962,15411 9987,15371 10014,15333 10043,15296 10074,15261 10106,15227 10140,15195 10175,15165 10212,15136 10250,15109 10289,15083 10330,15060 10372,15038 10415,15019 10459,15001 10505,14986 10551,14973 10598,14962 10646,14954 10694,14947 10744,14944 10794,14942 10844,14944 10894,14947 10942,14954 10990,14962 11037,14973 11083,14986 11129,15001 11173,15019 11216,15038 11258,15060 11299,15083 11338,15109 11376,15136 11413,15165 11448,15195 11482,15227 11514,15261 11545,15296 11574,15333 11601,15371 11626,15411 11650,15452 11671,15494 11691,15537 11708,15581 11724,15626 11737,15672 11748,15719 11756,15767 11762,15816 11766,15866 11767,15916 Z"/><path d="M 11767,13969 L 11769,13919 11772,13869 11779,13821 11787,13773 11798,13726 11811,13680 11826,13634 11844,13590 11863,13547 11885,13505 11908,13464 11934,13425 11961,13387 11990,13350 12020,13315 12052,13281 12086,13249 12121,13218 12158,13189 12196,13162 12236,13137 12277,13113 12319,13092 12362,13072 12406,13055 12451,13039 12497,13026 12544,13015 12592,13007 12641,13001 12691,12997 12741,12996 12791,12997 12840,13001 12889,13007 12937,13015 12984,13026 13030,13039 13075,13055 13119,13072 13163,13092 13205,13113 13245,13137 13285,13162 13323,13189 13360,13218 13395,13249 13429,13281 13461,13315 13492,13350 13521,13387 13548,13425 13573,13464 13596,13505 13618,13547 13637,13590 13655,13634 13670,13680 13683,13726 13694,13773 13703,13821 13709,13869 13713,13919 13714,13969 13713,14019 13709,14069 13703,14117 13694,14165 13683,14212 13670,14258 13655,14304 13637,14348 13618,14391 13596,14433 13573,14474 13548,14513 13521,14551 13492,14588 13461,14623 13429,14657 13395,14689 13360,14720 13323,14749 13285,14776 13245,14801 13205,14825 13163,14846 13119,14866 13075,14883 13030,14899 12984,14912 12937,14923 12889,14931 12840,14937 12791,14941 12741,14942 12691,14941 12641,14937 12592,14931 12544,14923 12497,14912 12451,14899 12406,14883 12362,14866 12319,14846 12277,14825 12236,14801 12196,14776 12158,14749 12121,14720 12086,14689 12052,14657 12020,14623 11990,14588 11961,14551 11934,14513 11908,14474 11885,14433 11863,14391 11844,14348 11826,14304 11811,14258 11798,14212 11787,14165 11779,14117 11772,14069 11769,14019 11767,13969 Z"/><path d="M 10526,13969 L 10528,13942 10532,13915 10538,13889 10547,13865 10559,13841 10572,13819 10588,13799 10605,13780 10624,13762 10644,13747 10666,13734 10690,13722 10714,13713 10740,13707 10767,13703 10794,13701 10821,13703 10848,13707 10874,13713 10898,13722 10922,13734 10944,13747 10964,13762 10983,13780 11001,13799 11016,13819 11029,13841 11041,13865 11050,13889 11056,13915 11060,13942 11062,13969 11060,13996 11056,14023 11050,14049 11041,14073 11029,14097 11016,14119 11001,14139 10983,14158 10964,14175 10944,14191 10922,14204 10898,14216 10874,14225 10848,14231 10821,14235 10794,14237 10767,14235 10740,14231 10714,14225 10690,14216 10666,14204 10644,14191 10624,14175 10605,14158 10588,14139 10572,14119 10559,14097 10547,14073 10538,14049 10532,14023 10528,13996 10526,13969 Z"/><path d="M 10575,11438 L 10576,11416 10580,11394 10585,11373 10592,11353 10601,11334 10612,11316 10625,11299 10639,11284 10655,11269 10672,11257 10690,11246 10709,11237 10729,11229 10750,11224 10772,11221 10794,11219 10816,11221 10838,11224 10859,11229 10879,11237 10898,11246 10916,11257 10933,11269 10949,11284 10963,11299 10976,11316 10987,11334 10996,11353 11003,11373 11009,11394 11012,11416 11013,11438 11012,11461 11009,11483 11003,11504 10996,11524 10987,11543 10976,11561 10963,11578 10949,11593 10933,11607 10916,11620 10898,11631 10879,11640 10859,11648 10838,11653 10816,11656 10794,11657 10772,11656 10750,11653 10729,11648 10709,11640 10690,11631 10672,11620 10655,11607 10639,11593 10625,11578 10612,11561 10601,11543 10592,11524 10585,11504 10580,11483 10576,11461 10575,11438 Z"/><path d="M 10575,12606 L 10576,12584 10580,12562 10585,12541 10592,12521 10601,12502 10612,12484 10625,12467 10639,12452 10655,12437 10672,12425 10690,12414 10709,12405 10729,12397 10750,12392 10772,12389 10794,12387 10816,12389 10838,12392 10859,12397 10879,12405 10898,12414 10916,12425 10933,12437 10949,12452 10963,12467 10976,12484 10987,12502 10996,12521 11003,12541 11009,12562 11012,12584 11013,12606 11012,12629 11009,12651 11003,12672 10996,12692 10987,12711 10976,12729 10963,12746 10949,12761 10933,12775 10916,12788 10898,12799 10879,12808 10859,12816 10838,12821 10816,12824 10794,12825 10772,12824 10750,12821 10729,12816 10709,12808 10690,12799 10672,12788 10655,12775 10639,12761 10625,12746 10612,12729 10601,12711 10592,12692 10585,12672 10580,12651 10576,12629 10575,12606 Z"/><path d="M 10575,13385 L 10576,13363 10580,13341 10585,13320 10592,13300 10601,13281 10612,13263 10625,13246 10639,13230 10655,13216 10672,13203 10690,13192 10709,13183 10729,13176 10750,13170 10772,13167 10794,13166 10816,13167 10838,13170 10859,13176 10879,13183 10898,13192 10916,13203 10933,13216 10949,13230 10963,13246 10976,13263 10987,13281 10996,13300 11003,13320 11009,13341 11012,13363 11013,13385 11012,13407 11009,13429 11003,13450 10996,13470 10987,13489 10976,13507 10963,13524 10949,13540 10933,13554 10916,13567 10898,13578 10879,13587 10859,13594 10838,13600 10816,13603 10794,13604 10772,13603 10750,13600 10729,13594 10709,13587 10690,13578 10672,13567 10655,13554 10639,13540 10625,13524 10612,13507 10601,13489 10592,13470 10585,13450 10580,13429 10576,13407 10575,13385 Z"/><path d="M 10575,14553 L 10576,14531 10580,14509 10585,14488 10592,14468 10601,14449 10612,14430 10625,14414 10639,14398 10655,14384 10672,14371 10690,14360 10709,14351 10729,14344 10750,14338 10772,14335 10794,14334 10816,14335 10838,14338 10859,14344 10879,14351 10898,14360 10916,14371 10933,14384 10949,14398 10963,14414 10976,14430 10987,14449 10996,14468 11003,14488 11009,14509 11012,14531 11013,14553 11012,14575 11009,14597 11003,14618 10996,14638 10987,14657 10976,14675 10963,14692 10949,14708 10933,14722 10916,14735 10898,14745 10879,14755 10859,14762 10838,14767 10816,14771 10794,14772 10772,14771 10750,14767 10729,14762 10709,14755 10690,14745 10672,14735 10655,14722 10639,14708 10625,14692 10612,14675 10601,14657 10592,14638 10585,14618 10580,14597 10576,14575 10575,14553 Z"/><path d="M 10575,15332 L 10576,15309 10580,15288 10585,15267 10592,15246 10601,15227 10612,15209 10625,15192 10639,15177 10655,15163 10672,15150 10690,15139 10709,15130 10729,15123 10750,15117 10772,15114 10794,15113 10816,15114 10838,15117 10859,15123 10879,15130 10898,15139 10916,15150 10933,15163 10949,15177 10963,15192 10976,15209 10987,15227 10996,15246 11003,15267 11009,15288 11012,15309 11013,15332 11012,15354 11009,15376 11003,15397 10996,15417 10987,15436 10976,15454 10963,15471 10949,15487 10933,15501 10916,15513 10898,15524 10879,15533 10859,15541 10838,15546 10816,15550 10794,15551 10772,15550 10750,15546 10729,15541 10709,15533 10690,15524 10672,15513 10655,15501 10639,15487 10625,15471 10612,15454 10601,15436 10592,15417 10585,15397 10580,15376 10576,15354 10575,15332 Z"/><path d="M 10575,16500 L 10576,16477 10580,16456 10585,16435 10592,16414 10601,16395 10612,16377 10625,16360 10639,16345 10655,16331 10672,16318 10690,16307 10709,16298 10729,16290 10750,16285 10772,16282 10794,16281 10816,16282 10838,16285 10859,16290 10879,16298 10898,16307 10916,16318 10933,16331 10949,16345 10963,16360 10976,16377 10987,16395 10996,16414 11003,16435 11009,16456 11012,16477 11013,16500 11012,16522 11009,16544 11003,16565 10996,16585 10987,16604 10976,16622 10963,16639 10949,16654 10933,16669 10916,16681 10898,16692 10879,16701 10859,16709 10838,16714 10816,16717 10794,16719 10772,16717 10750,16714 10729,16709 10709,16701 10690,16692 10672,16681 10655,16669 10639,16654 10625,16639 10612,16622 10601,16604 10592,16585 10585,16565 10580,16544 10576,16522 10575,16500 Z"/><path d="M 9370,13969 L 9372,13957 9375,13945 9381,13935 9388,13926 9397,13919 9408,13913 9419,13909 9431,13908 9444,13909 9455,13913 9465,13919 9474,13926 9482,13935 9487,13945 9491,13957 9492,13969 9491,13981 9487,13993 9482,14003 9474,14012 9465,14019 9455,14025 9444,14029 9431,14030 9419,14029 9408,14025 9397,14019 9388,14012 9381,14003 9375,13993 9372,13981 9370,13969 Z"/><path d="M 8203,13969 L 8204,13957 8207,13945 8213,13935 8220,13926 8229,13919 8240,13913 8251,13909 8263,13908 8276,13909 8287,13913 8297,13919 8306,13926 8314,13935 8319,13945 8323,13957 8324,13969 8323,13981 8319,13993 8314,14003 8306,14012 8297,14019 8287,14025 8276,14029 8263,14030 8251,14029 8240,14025 8229,14019 8220,14012 8213,14003 8207,13993 8204,13981 8203,13969 Z"/><path d="M 10149,12022 L 10150,12010 10154,11999 10160,11988 10167,11979 10176,11972 10186,11966 10198,11963 10210,11962 10222,11963 10234,11966 10244,11972 10253,11979 10261,11988 10266,11999 10270,12010 10271,12022 10270,12035 10266,12046 10261,12056 10253,12065 10244,12073 10234,12079 10222,12082 10210,12083 10198,12082 10186,12079 10176,12073 10167,12065 10160,12056 10154,12046 10150,12035 10149,12022 Z"/><path d="M 11317,12022 L 11318,12010 11322,11999 11328,11988 11335,11979 11344,11972 11354,11966 11366,11963 11378,11962 11390,11963 11402,11966 11412,11972 11421,11979 11428,11988 11434,11999 11438,12010 11439,12022 11438,12035 11434,12046 11428,12056 11421,12065 11412,12073 11402,12079 11390,12082 11378,12083 11366,12082 11354,12079 11344,12073 11335,12065 11328,12056 11322,12046 11318,12035 11317,12022 Z"/><path d="M 12096,13969 L 12097,13957 12101,13945 12106,13935 12114,13926 12123,13919 12133,13913 12144,13909 12157,13908 12169,13909 12180,13913 12191,13919 12200,13926 12207,13935 12213,13945 12216,13957 12217,13969 12216,13981 12213,13993 12207,14003 12200,14012 12191,14019 12180,14025 12169,14029 12157,14030 12144,14029 12133,14025 12123,14019 12114,14012 12106,14003 12101,13993 12097,13981 12096,13969 Z"/><path d="M 13264,13969 L 13265,13957 13268,13945 13274,13935 13282,13926 13291,13919 13301,13913 13312,13909 13325,13908 13337,13909 13348,13913 13359,13919 13368,13926 13375,13935 13381,13945 13384,13957 13385,13969 13384,13981 13381,13993 13375,14003 13368,14012 13359,14019 13348,14025 13337,14029 13325,14030 13312,14029 13301,14025 13291,14019 13282,14012 13274,14003 13268,13993 13265,13981 13264,13969 Z"/><path d="M 11317,15916 L 11318,15903 11322,15892 11328,15882 11335,15873 11344,15865 11354,15860 11366,15856 11378,15855 11390,15856 11402,15860 11412,15865 11421,15873 11428,15882 11434,15892 11438,15903 11439,15916 11438,15928 11434,15939 11428,15950 11421,15959 11412,15966 11402,15972 11390,15975 11378,15976 11366,15975 11354,15972 11344,15966 11335,15959 11328,15950 11322,15939 11318,15928 11317,15916 Z"/><path d="M 10149,15916 L 10150,15903 10154,15892 10160,15882 10167,15873 10176,15865 10186,15860 10198,15856 10210,15855 10222,15856 10234,15860 10244,15865 10253,15873 10261,15882 10266,15892 10270,15903 10271,15916 10270,15928 10266,15939 10261,15950 10253,15959 10244,15966 10234,15972 10222,15975 10210,15976 10198,15975 10186,15972 10176,15966 10167,15959 10160,15950 10154,15939 10150,15928 10149,15916 Z"/><path d="M 10716,16500 L 10717,16492 10718,16484 10720,16476 10722,16469 10726,16463 10729,16456 10739,16445 10751,16435 10757,16431 10764,16428 10771,16425 10778,16423 10786,16422 10794,16422 10802,16422 10810,16423 10817,16425 10824,16428 10831,16431 10838,16435 10849,16445 10859,16456 10863,16463 10866,16469 10868,16476 10870,16484 10872,16492 10872,16500 10872,16508 10870,16515 10868,16523 10866,16530 10863,16537 10859,16543 10849,16555 10838,16564 10831,16568 10824,16571 10817,16574 10810,16576 10802,16577 10794,16578 10786,16577 10778,16576 10771,16574 10764,16571 10757,16568 10751,16564 10739,16555 10729,16543 10726,16537 10722,16530 10720,16523 10718,16515 10717,16508 10716,16500 Z"/><path d="M 10716,15332 L 10717,15324 10718,15316 10720,15309 10722,15301 10726,15295 10729,15288 10739,15277 10751,15267 10757,15263 10764,15260 10771,15257 10778,15255 10786,15254 10794,15254 10802,15254 10810,15255 10817,15257 10824,15260 10831,15263 10838,15267 10849,15277 10859,15288 10863,15295 10866,15301 10868,15309 10870,15316 10872,15324 10872,15332 10872,15340 10870,15347 10868,15355 10866,15362 10863,15369 10859,15375 10849,15387 10838,15396 10831,15400 10824,15403 10817,15406 10810,15408 10802,15409 10794,15410 10786,15409 10778,15408 10771,15406 10764,15403 10757,15400 10751,15396 10739,15387 10729,15375 10726,15369 10722,15362 10720,15355 10718,15347 10717,15340 10716,15332 Z"/><path d="M 10716,14553 L 10717,14545 10718,14537 10720,14530 10722,14523 10726,14516 10729,14509 10739,14498 10751,14488 10757,14484 10764,14481 10771,14479 10778,14477 10786,14475 10794,14475 10802,14475 10810,14477 10817,14479 10824,14481 10831,14484 10838,14488 10849,14498 10859,14509 10863,14516 10866,14523 10868,14530 10870,14537 10872,14545 10872,14553 10872,14561 10870,14569 10868,14576 10866,14583 10863,14590 10859,14596 10849,14608 10838,14618 10831,14621 10824,14625 10817,14627 10810,14629 10802,14630 10794,14631 10786,14630 10778,14629 10771,14627 10764,14625 10757,14621 10751,14618 10739,14608 10729,14596 10726,14590 10722,14583 10720,14576 10718,14569 10717,14561 10716,14553 Z"/><path d="M 10716,13385 L 10717,13377 10718,13369 10720,13362 10722,13355 10726,13348 10729,13341 10739,13330 10751,13320 10757,13317 10764,13313 10771,13311 10778,13309 10786,13308 10794,13307 10802,13308 10810,13309 10817,13311 10824,13313 10831,13317 10838,13320 10849,13330 10859,13341 10863,13348 10866,13355 10868,13362 10870,13369 10872,13377 10872,13385 10872,13393 10870,13401 10868,13408 10866,13415 10863,13422 10859,13429 10849,13440 10838,13450 10831,13453 10824,13457 10817,13459 10810,13461 10802,13462 10794,13463 10786,13462 10778,13461 10771,13459 10764,13457 10757,13453 10751,13450 10739,13440 10729,13429 10726,13422 10722,13415 10720,13408 10718,13401 10717,13393 10716,13385 Z"/><path d="M 10716,12606 L 10717,12598 10718,12591 10720,12583 10722,12576 10726,12569 10729,12563 10739,12551 10751,12542 10757,12538 10764,12535 10771,12532 10778,12530 10786,12529 10794,12529 10802,12529 10810,12530 10817,12532 10824,12535 10831,12538 10838,12542 10849,12551 10859,12563 10863,12569 10866,12576 10868,12583 10870,12591 10872,12598 10872,12606 10872,12614 10870,12622 10868,12630 10866,12637 10863,12644 10859,12650 10849,12661 10838,12671 10831,12675 10824,12678 10817,12681 10810,12683 10802,12684 10794,12684 10786,12684 10778,12683 10771,12681 10764,12678 10757,12675 10751,12671 10739,12661 10729,12650 10726,12644 10722,12637 10720,12630 10718,12622 10717,12614 10716,12606 Z"/><path d="M 10716,11438 L 10717,11431 10718,11423 10720,11415 10722,11408 10726,11401 10729,11395 10739,11383 10751,11374 10757,11370 10764,11367 10771,11364 10778,11362 10786,11361 10794,11361 10802,11361 10810,11362 10817,11364 10824,11367 10831,11370 10838,11374 10849,11383 10859,11395 10863,11401 10866,11408 10868,11415 10870,11423 10872,11431 10872,11438 10872,11446 10870,11454 10868,11462 10866,11469 10863,11476 10859,11482 10849,11494 10838,11503 10831,11507 10824,11510 10817,11513 10810,11515 10802,11516 10794,11516 10786,11516 10778,11515 10771,11513 10764,11510 10757,11507 10751,11503 10739,11494 10729,11482 10726,11476 10722,11469 10720,11462 10718,11454 10717,11446 10716,11438 Z"/><path d="M 12609,13969 L 12610,13956 12612,13942 12615,13930 12619,13918 12625,13906 12632,13895 12639,13885 12648,13876 12657,13868 12667,13860 12678,13853 12689,13848 12701,13843 12714,13840 12727,13838 12741,13838 12754,13838 12767,13840 12780,13843 12792,13848 12803,13853 12814,13860 12824,13868 12833,13876 12842,13885 12850,13895 12856,13906 12862,13918 12866,13930 12869,13942 12871,13956 12872,13969 12871,13982 12869,13995 12866,14008 12862,14020 12856,14032 12850,14042 12842,14053 12833,14062 12824,14070 12814,14078 12803,14084 12792,14090 12780,14094 12767,14098 12754,14100 12741,14100 12727,14100 12714,14098 12701,14094 12689,14090 12678,14084 12667,14078 12657,14070 12648,14062 12639,14053 12632,14042 12625,14032 12619,14020 12615,14008 12612,13995 12610,13982 12609,13969 Z"/><path d="M 10663,12022 L 10663,12009 10665,11996 10669,11983 10673,11971 10679,11960 10685,11949 10693,11939 10701,11930 10710,11921 10721,11913 10731,11907 10743,11901 10755,11897 10768,11894 10781,11892 10794,11891 10807,11892 10821,11894 10833,11897 10845,11901 10857,11907 10868,11913 10878,11921 10887,11930 10895,11939 10903,11949 10910,11960 10915,11971 10920,11983 10923,11996 10925,12009 10925,12022 10925,12036 10923,12049 10920,12062 10915,12074 10910,12085 10903,12096 10895,12106 10887,12115 10878,12124 10868,12131 10857,12138 10845,12144 10833,12148 10821,12151 10807,12153 10794,12154 10781,12153 10768,12151 10755,12148 10743,12144 10731,12138 10721,12131 10710,12124 10701,12115 10693,12106 10685,12096 10679,12085 10673,12074 10669,12062 10665,12049 10663,12036 10663,12022 Z"/><path d="M 8716,13969 L 8717,13956 8719,13942 8722,13930 8726,13918 8732,13906 8738,13895 8746,13885 8754,13876 8764,13868 8774,13860 8785,13853 8796,13848 8808,13843 8821,13840 8834,13838 8847,13838 8861,13838 8874,13840 8886,13843 8898,13848 8910,13853 8921,13860 8931,13868 8940,13876 8949,13885 8956,13895 8963,13906 8968,13918 8973,13930 8976,13942 8978,13956 8979,13969 8978,13982 8976,13995 8973,14008 8968,14020 8963,14032 8956,14042 8949,14053 8940,14062 8931,14070 8921,14078 8910,14084 8898,14090 8886,14094 8874,14098 8861,14100 8847,14100 8834,14100 8821,14098 8808,14094 8796,14090 8785,14084 8774,14078 8764,14070 8754,14062 8746,14053 8738,14042 8732,14032 8726,14020 8722,14008 8719,13995 8717,13982 8716,13969 Z"/><path d="M 10663,15916 L 10663,15902 10665,15889 10669,15877 10673,15865 10679,15853 10685,15842 10693,15832 10701,15823 10710,15814 10721,15807 10731,15800 10743,15795 10755,15790 10768,15787 10781,15785 10794,15784 10807,15785 10821,15787 10833,15790 10845,15795 10857,15800 10868,15807 10878,15814 10887,15823 10895,15832 10903,15842 10910,15853 10915,15865 10920,15877 10923,15889 10925,15902 10925,15916 10925,15929 10923,15942 10920,15955 10915,15967 10910,15978 10903,15989 10895,15999 10887,16009 10878,16017 10868,16025 10857,16031 10845,16037 10833,16041 10821,16044 10807,16046 10794,16047 10781,16046 10768,16044 10755,16041 10743,16037 10731,16031 10721,16025 10710,16017 10701,16009 10693,15999 10685,15989 10679,15978 10673,15967 10669,15955 10665,15942 10663,15929 10663,15916 Z"/><path d="M 10663,13969 L 10663,13956 10665,13942 10669,13930 10673,13918 10679,13906 10685,13895 10693,13885 10701,13876 10710,13868 10721,13860 10731,13853 10743,13848 10755,13843 10768,13840 10781,13838 10794,13838 10807,13838 10821,13840 10833,13843 10845,13848 10857,13853 10868,13860 10878,13868 10887,13876 10895,13885 10903,13895 10910,13906 10915,13918 10920,13930 10923,13942 10925,13956 10925,13969 10925,13982 10923,13995 10920,14008 10915,14020 10910,14032 10903,14042 10895,14053 10887,14062 10878,14070 10868,14078 10857,14084 10845,14090 10833,14094 10821,14098 10807,14100 10794,14100 10781,14100 10768,14098 10755,14094 10743,14090 10731,14084 10721,14078 10710,14070 10701,14062 10693,14053 10685,14042 10679,14032 10673,14020 10669,14008 10665,13995 10663,13982 10663,13969 Z"/><path d="M 10470,10830 L 10336,10830 10336,9974 10310,9997 10280,10020 10246,10043 10208,10066 10170,10088 10134,10107 10099,10123 10067,10136 10067,10006 10095,9992 10122,9978 10147,9963 10173,9947 10197,9931 10220,9914 10243,9896 10264,9877 10284,9858 10303,9840 10320,9821 10336,9803 10350,9785 10363,9767 10374,9749 10384,9731 10470,9731 10470,10830 Z"/><path d="M 11521,10701 L 11521,10830 10797,10830 10798,10806 10801,10783 10806,10760 10813,10737 10820,10718 10829,10700 10838,10682 10849,10664 10860,10645 10873,10627 10887,10609 10901,10591 10917,10573 10935,10554 10976,10514 11023,10471 11077,10425 11120,10390 11159,10356 11195,10324 11227,10294 11255,10266 11280,10240 11301,10216 11319,10194 11333,10173 11346,10152 11357,10131 11366,10110 11373,10090 11378,10071 11380,10051 11381,10032 11381,10012 11378,9993 11373,9975 11367,9958 11359,9942 11349,9926 11337,9911 11324,9897 11309,9884 11293,9873 11276,9864 11258,9856 11239,9850 11219,9846 11198,9843 11175,9842 11152,9843 11129,9846 11108,9850 11088,9857 11069,9865 11051,9875 11035,9887 11020,9900 11006,9916 10994,9932 10984,9950 10976,9970 10970,9991 10965,10013 10962,10037 10961,10062 10823,10048 10828,10010 10835,9975 10839,9958 10844,9942 10850,9926 10857,9911 10864,9897 10871,9883 10879,9870 10888,9857 10898,9845 10908,9834 10918,9823 10930,9812 10941,9802 10954,9793 10967,9785 10980,9777 10994,9769 11008,9763 11023,9757 11038,9751 11054,9746 11070,9742 11104,9736 11140,9732 11178,9731 11217,9732 11235,9734 11253,9736 11270,9739 11287,9743 11304,9748 11319,9753 11335,9758 11350,9765 11364,9772 11378,9780 11391,9789 11404,9798 11416,9808 11428,9818 11439,9829 11449,9841 11459,9852 11468,9865 11476,9877 11484,9890 11491,9903 11497,9916 11502,9930 11507,9944 11511,9958 11514,9973 11516,9988 11518,10003 11519,10019 11520,10035 11519,10051 11518,10068 11516,10084 11513,10100 11509,10116 11504,10132 11499,10148 11493,10164 11485,10180 11477,10196 11468,10213 11457,10229 11445,10246 11432,10263 11403,10298 11386,10316 11367,10336 11320,10381 11263,10432 11196,10490 11141,10537 11097,10576 11063,10606 11041,10629 11024,10647 11009,10665 10996,10683 10984,10701 11521,10701 Z"/><path d="M 13708,12565 L 13634,12608 13392,12190 13406,12183 13421,12176 13436,12172 13451,12168 13478,12165 13506,12165 13535,12166 13565,12171 13598,12178 13634,12188 13675,12201 13719,12217 13787,12241 13845,12260 13871,12267 13894,12272 13915,12277 13934,12279 13951,12281 13967,12281 13983,12280 13997,12279 14011,12276 14024,12272 14037,12267 14048,12261 14059,12254 14069,12247 14078,12238 14086,12229 14092,12218 14098,12208 14103,12196 14106,12183 14109,12171 14110,12158 14110,12145 14109,12132 14106,12119 14101,12106 14096,12092 14089,12079 14080,12066 14071,12054 14062,12043 14051,12034 14040,12025 14029,12019 14016,12013 14003,12009 13990,12006 13976,12005 13963,12005 13949,12007 13934,12010 13920,12015 13905,12021 13891,12029 13853,11944 13876,11934 13899,11927 13921,11921 13943,11918 13964,11917 13984,11918 14005,11922 14024,11927 14043,11935 14062,11944 14079,11956 14096,11970 14111,11985 14126,12003 14141,12022 14154,12044 14166,12066 14176,12089 14183,12111 14189,12133 14191,12154 14192,12175 14191,12196 14187,12217 14181,12237 14173,12256 14164,12273 14153,12289 14141,12304 14126,12318 14110,12331 14092,12342 14073,12352 14052,12360 14031,12366 14009,12370 13985,12371 13959,12371 13931,12368 13902,12363 13868,12354 13826,12343 13777,12327 13722,12307 13639,12278 13610,12269 13590,12264 13574,12260 13559,12258 13544,12256 13529,12255 13708,12565 Z"/><path d="M 13480,15594 L 13631,15681 13790,15407 13861,15448 14104,15973 14068,16037 13658,15800 13609,15885 13537,15844 13587,15759 13435,15672 13480,15594 Z"/><path d="M 13703,15722 L 13988,15887 13817,15524 13703,15722 Z"/><path d="M 12675,16743 L 12598,16797 12587,16784 12575,16773 12564,16762 12552,16754 12541,16746 12529,16740 12516,16735 12504,16732 12491,16730 12479,16729 12467,16729 12455,16730 12442,16733 12431,16737 12419,16742 12407,16748 12394,16756 12382,16766 12371,16777 12361,16788 12353,16801 12346,16815 12341,16829 12337,16845 12334,16861 12333,16878 12333,16894 12336,16911 12340,16928 12346,16945 12353,16962 12362,16979 12372,16995 12383,17010 12394,17022 12406,17033 12419,17043 12432,17051 12446,17058 12460,17063 12475,17066 12490,17068 12505,17068 12520,17067 12535,17064 12550,17059 12565,17053 12580,17045 12598,17033 12613,17020 12627,17005 12638,16988 12647,16971 12654,16953 12658,16935 12660,16917 12738,16884 12864,17244 12550,17426 12507,17352 12760,17206 12696,17017 12687,17034 12677,17051 12666,17066 12654,17080 12642,17093 12628,17105 12614,17116 12599,17125 12578,17136 12557,17145 12536,17151 12514,17155 12493,17157 12471,17156 12449,17153 12426,17149 12404,17141 12384,17132 12364,17121 12346,17108 12328,17092 12312,17075 12298,17055 12284,17034 12273,17012 12263,16991 12256,16969 12250,16947 12247,16924 12245,16902 12246,16879 12248,16857 12251,16843 12254,16829 12258,16817 12262,16804 12267,16792 12273,16780 12280,16769 12287,16758 12295,16747 12304,16737 12313,16727 12323,16718 12334,16709 12345,16700 12370,16684 12392,16673 12413,16663 12434,16656 12456,16651 12477,16648 12498,16647 12518,16648 12539,16651 12559,16656 12578,16663 12597,16672 12614,16682 12631,16695 12646,16709 12661,16725 12675,16743 Z"/><path d="M 12480,11318 L 12402,11273 12688,10779 12665,10783 12640,10787 12613,10789 12583,10789 12554,10789 12527,10788 12502,10786 12478,10782 12522,10707 12563,10710 12602,10709 12641,10705 12660,10703 12678,10699 12714,10690 12745,10680 12759,10674 12772,10668 12785,10661 12796,10654 12846,10683 12480,11318 Z"/><path d="M 9112,17355 L 9069,17429 8660,17193 8695,17133 8719,17125 8745,17115 8771,17105 8798,17093 8826,17079 8854,17064 8883,17048 8913,17031 8943,17013 8972,16994 9000,16974 9028,16953 9055,16932 9081,16910 9106,16888 9131,16865 9165,16830 9198,16793 9230,16752 9261,16708 9341,16754 9329,16773 9316,16792 9301,16812 9285,16832 9268,16853 9249,16874 9207,16918 9185,16940 9162,16961 9138,16982 9113,17002 9088,17021 9063,17040 9037,17058 9010,17075 8983,17091 8956,17107 8929,17121 8903,17134 8877,17146 8852,17157 8827,17167 8802,17176 9112,17355 Z"/><path d="M 7773,15831 L 7775,15845 7776,15859 7776,15872 7776,15885 7774,15897 7772,15909 7768,15920 7764,15931 7758,15942 7752,15951 7746,15961 7738,15969 7729,15978 7720,15986 7710,15993 7699,16000 7681,16009 7664,16016 7646,16021 7628,16024 7610,16025 7591,16025 7573,16022 7554,16017 7536,16011 7518,16002 7501,15992 7485,15980 7470,15966 7456,15950 7443,15932 7431,15912 7420,15892 7411,15871 7404,15851 7400,15831 7397,15811 7397,15791 7398,15771 7402,15751 7408,15732 7415,15715 7423,15698 7434,15683 7445,15669 7459,15656 7473,15644 7490,15633 7501,15627 7512,15623 7523,15618 7534,15615 7546,15613 7557,15612 7569,15612 7580,15612 7592,15614 7603,15616 7614,15620 7626,15625 7637,15630 7648,15637 7659,15645 7671,15653 7667,15636 7666,15620 7665,15603 7666,15588 7668,15573 7671,15558 7675,15543 7681,15530 7687,15516 7695,15503 7704,15491 7714,15480 7725,15469 7737,15459 7750,15449 7764,15441 7784,15430 7805,15422 7826,15416 7847,15412 7868,15410 7890,15411 7911,15414 7933,15419 7955,15427 7975,15436 7995,15448 8013,15462 8030,15478 8046,15496 8062,15516 8076,15538 8088,15562 8098,15585 8105,15608 8111,15631 8113,15654 8114,15676 8112,15699 8108,15721 8101,15743 8093,15763 8082,15782 8070,15800 8056,15817 8040,15832 8022,15846 8002,15858 7987,15867 7972,15874 7956,15879 7941,15883 7926,15886 7911,15888 7896,15888 7881,15887 7866,15884 7852,15881 7838,15876 7824,15869 7811,15861 7798,15852 7785,15842 7773,15831 Z"/><path d="M 7650,15922 L 7661,15915 7671,15908 7679,15900 7687,15891 7693,15882 7699,15872 7703,15862 7707,15851 7709,15839 7710,15828 7710,15817 7709,15805 7707,15794 7703,15782 7698,15771 7692,15759 7685,15749 7678,15739 7670,15730 7662,15723 7652,15716 7643,15710 7633,15706 7622,15702 7610,15700 7599,15698 7588,15698 7578,15699 7567,15701 7556,15704 7546,15708 7536,15713 7525,15720 7516,15727 7508,15735 7501,15743 7494,15753 7489,15763 7485,15773 7481,15784 7479,15796 7477,15807 7477,15819 7478,15830 7480,15841 7484,15853 7488,15864 7494,15875 7501,15885 7508,15895 7516,15904 7525,15911 7534,15918 7544,15924 7554,15928 7565,15932 7576,15935 7588,15936 7598,15937 7609,15936 7620,15934 7630,15931 7640,15927 7650,15922 Z"/><path d="M 7957,15778 L 7973,15768 7987,15756 8000,15742 8012,15726 8021,15708 8025,15699 8028,15690 8030,15681 8032,15671 8033,15651 8031,15631 8027,15611 8020,15593 8011,15574 8003,15561 7994,15549 7984,15538 7973,15529 7962,15521 7949,15513 7936,15508 7923,15503 7908,15500 7894,15498 7880,15498 7866,15499 7852,15502 7838,15507 7824,15512 7811,15520 7797,15528 7785,15537 7774,15547 7765,15558 7757,15570 7750,15583 7744,15596 7740,15611 7736,15625 7735,15640 7735,15654 7736,15668 7739,15683 7743,15697 7749,15711 7757,15725 7765,15738 7774,15750 7784,15760 7795,15770 7806,15778 7818,15785 7832,15790 7845,15795 7860,15798 7874,15799 7888,15800 7902,15798 7916,15795 7929,15791 7943,15786 7957,15778 Z"/><path d="M 7963,12587 L 7918,12664 7424,12379 7429,12402 7432,12427 7434,12454 7435,12483 7435,12513 7433,12540 7431,12565 7428,12588 7353,12545 7355,12504 7354,12464 7351,12426 7348,12407 7344,12388 7336,12353 7325,12322 7320,12307 7313,12294 7307,12282 7300,12270 7329,12220 7963,12587 Z"/><path d="M 7766,12208 L 7739,12192 7714,12176 7690,12160 7668,12144 7648,12128 7630,12112 7614,12097 7599,12081 7586,12065 7574,12049 7564,12033 7555,12017 7548,12001 7541,11985 7537,11968 7533,11951 7531,11935 7531,11918 7532,11901 7535,11884 7540,11867 7546,11850 7553,11833 7562,11815 7570,11803 7578,11791 7586,11781 7595,11771 7604,11761 7614,11753 7624,11745 7635,11738 7645,11732 7656,11726 7668,11721 7680,11717 7692,11714 7704,11712 7717,11710 7730,11709 7757,11709 7786,11711 7816,11716 7847,11724 7863,11729 7881,11735 7918,11751 7959,11771 8004,11796 8031,11812 8056,11828 8080,11844 8102,11859 8122,11875 8140,11891 8156,11907 8171,11922 8184,11938 8196,11954 8206,11970 8215,11986 8223,12002 8229,12019 8234,12035 8237,12052 8239,12069 8239,12085 8238,12102 8235,12119 8231,12136 8225,12153 8217,12171 8208,12188 8194,12210 8179,12229 8162,12246 8144,12260 8125,12272 8105,12282 8083,12289 8059,12294 8045,12295 8030,12296 8014,12296 7998,12295 7981,12293 7964,12290 7947,12286 7929,12281 7910,12275 7891,12268 7851,12252 7810,12232 7766,12208 Z"/><path d="M 7812,12128 L 7850,12149 7885,12167 7917,12182 7947,12194 7975,12203 7999,12209 8021,12212 8031,12212 8041,12212 8058,12209 8074,12205 8089,12200 8103,12193 8115,12185 8126,12175 8136,12164 8144,12151 8151,12138 8156,12124 8159,12109 8159,12095 8159,12079 8156,12064 8151,12048 8144,12032 8140,12023 8134,12015 8121,11997 8104,11978 8082,11959 8057,11939 8028,11919 7995,11897 7958,11875 7921,11854 7885,11836 7853,11821 7823,11810 7796,11801 7771,11795 7749,11792 7739,11792 7730,11792 7712,11795 7696,11799 7681,11804 7668,11811 7655,11819 7644,11829 7635,11840 7626,11853 7619,11867 7614,11880 7611,11894 7610,11908 7610,11922 7612,11936 7616,11950 7622,11965 7627,11974 7633,11983 7647,12003 7665,12022 7687,12042 7713,12063 7742,12084 7775,12106 7812,12128 Z"/><path d="M 9139,11301 L 9062,11345 8776,10851 8769,10873 8759,10896 8747,10921 8733,10947 8719,10972 8704,10995 8689,11016 8675,11034 8632,10959 8654,10925 8673,10890 8689,10855 8696,10837 8703,10819 8713,10784 8720,10752 8722,10737 8723,10722 8723,10708 8723,10695 8773,10666 9139,11301 Z"/><path d="M 9543,11067 L 9466,11112 9180,10618 9173,10640 9163,10663 9151,10688 9137,10714 9122,10739 9108,10762 9093,10783 9079,10801 9035,10726 9058,10691 9077,10657 9093,10622 9100,10604 9106,10586 9117,10551 9123,10519 9125,10504 9127,10489 9127,10475 9127,10462 9177,10433 9543,11067 Z"/><path d="M 14242,13610 L 14260,13745 14232,13751 14206,13759 14183,13767 14161,13776 14142,13786 14124,13798 14108,13810 14094,13823 14083,13838 14073,13853 14064,13869 14057,13885 14051,13903 14048,13921 14045,13940 14044,13959 14045,13983 14049,14005 14054,14026 14061,14047 14070,14066 14081,14085 14095,14102 14110,14119 14127,14135 14145,14148 14164,14159 14184,14168 14205,14176 14226,14181 14249,14184 14273,14185 14296,14184 14317,14181 14338,14176 14357,14170 14376,14161 14393,14151 14410,14139 14425,14124 14440,14109 14452,14092 14462,14074 14471,14056 14477,14036 14482,14015 14485,13993 14486,13970 14485,13950 14482,13928 14477,13903 14471,13876 14589,13891 14587,13912 14588,13933 14590,13954 14594,13974 14599,13994 14605,14013 14613,14031 14622,14049 14632,14067 14644,14083 14658,14097 14673,14109 14689,14118 14707,14126 14727,14131 14748,14134 14770,14136 14789,14135 14806,14132 14822,14129 14838,14123 14853,14116 14867,14107 14880,14097 14893,14086 14904,14073 14914,14059 14923,14044 14929,14028 14935,14012 14938,13994 14941,13976 14941,13956 14941,13937 14938,13919 14935,13901 14929,13884 14922,13868 14914,13853 14904,13839 14892,13826 14879,13813 14864,13802 14848,13792 14831,13783 14811,13775 14791,13768 14768,13763 14744,13758 14768,13624 14801,13631 14832,13640 14861,13651 14888,13664 14913,13679 14937,13696 14958,13715 14977,13736 14995,13758 15010,13782 15023,13807 15033,13834 15042,13862 15047,13891 15051,13921 15052,13953 15051,13976 15050,13997 15047,14019 15042,14039 15037,14060 15030,14080 15022,14099 15013,14118 15003,14137 14992,14154 14981,14170 14968,14185 14954,14199 14940,14211 14925,14223 14909,14233 14892,14243 14875,14251 14858,14258 14840,14264 14822,14268 14804,14271 14786,14273 14767,14274 14750,14273 14733,14271 14716,14268 14700,14264 14684,14259 14668,14252 14653,14245 14638,14236 14624,14226 14611,14214 14598,14202 14586,14188 14575,14174 14564,14158 14555,14141 14546,14123 14539,14146 14531,14169 14522,14190 14511,14209 14499,14227 14485,14244 14469,14260 14452,14274 14434,14286 14415,14297 14395,14307 14373,14314 14350,14320 14327,14324 14302,14327 14276,14328 14258,14327 14241,14326 14224,14324 14207,14321 14191,14317 14175,14313 14159,14308 14143,14301 14128,14294 14114,14287 14099,14278 14085,14269 14072,14258 14058,14247 14045,14236 14032,14223 14020,14210 14009,14196 13999,14182 13989,14167 13980,14152 13972,14137 13965,14121 13958,14105 13952,14088 13947,14071 13943,14053 13939,14035 13937,14017 13935,13998 13934,13978 13933,13959 13934,13923 13939,13890 13942,13873 13945,13857 13950,13842 13955,13827 13960,13812 13967,13797 13974,13783 13981,13770 13990,13756 13999,13743 14009,13731 14019,13719 14041,13696 14053,13686 14065,13676 14078,13667 14091,13659 14104,13651 14118,13644 14132,13638 14146,13632 14176,13622 14208,13615 14242,13610 Z"/><path d="M 10452,17955 L 10586,17944 10590,17963 10596,17981 10601,17997 10607,18012 10614,18026 10621,18038 10628,18049 10636,18059 10650,18073 10665,18084 10681,18094 10697,18102 10715,18109 10733,18113 10751,18116 10771,18117 10787,18116 10802,18114 10817,18112 10831,18108 10845,18103 10858,18096 10871,18089 10884,18081 10899,18069 10914,18055 10928,18040 10940,18024 10953,18006 10964,17987 10974,17967 10984,17946 10992,17922 11000,17896 11006,17868 11012,17838 11016,17805 11019,17770 11021,17732 11022,17692 11009,17710 10996,17727 10982,17742 10968,17757 10953,17770 10937,17782 10920,17793 10903,17802 10885,17811 10868,17818 10850,17824 10831,17829 10813,17833 10794,17836 10775,17837 10756,17838 10739,17838 10723,17836 10707,17835 10691,17832 10676,17828 10661,17824 10646,17819 10632,17813 10617,17807 10604,17799 10590,17791 10577,17782 10564,17772 10552,17762 10539,17751 10527,17739 10516,17726 10505,17713 10495,17700 10486,17686 10477,17671 10470,17657 10463,17641 10456,17626 10451,17609 10446,17593 10442,17576 10438,17558 10436,17540 10434,17522 10433,17503 10433,17483 10433,17458 10435,17433 10439,17408 10444,17384 10450,17360 10458,17337 10467,17314 10477,17291 10489,17270 10502,17250 10515,17231 10530,17213 10546,17197 10562,17182 10580,17169 10599,17156 10619,17145 10639,17136 10660,17127 10682,17121 10704,17116 10727,17112 10751,17110 10775,17109 10796,17110 10816,17111 10836,17113 10856,17117 10874,17121 10893,17126 10911,17133 10928,17140 10945,17148 10961,17157 10977,17167 10993,17178 11008,17190 11022,17203 11036,17217 11049,17232 11062,17248 11074,17266 11086,17284 11096,17304 11105,17325 11114,17348 11122,17371 11129,17396 11135,17422 11141,17450 11145,17478 11149,17508 11152,17539 11154,17572 11155,17605 11156,17640 11155,17679 11154,17717 11151,17753 11148,17788 11144,17822 11139,17854 11133,17885 11126,17914 11118,17942 11110,17969 11100,17995 11090,18019 11078,18042 11066,18063 11052,18083 11038,18102 11025,18117 11012,18131 10997,18144 10983,18157 10967,18168 10952,18178 10935,18187 10918,18196 10901,18203 10883,18210 10864,18215 10845,18219 10825,18223 10805,18225 10784,18227 10763,18227 10731,18226 10701,18223 10672,18217 10645,18209 10620,18199 10595,18186 10573,18172 10551,18155 10532,18136 10514,18115 10498,18093 10485,18068 10474,18043 10464,18015 10457,17986 10452,17955 Z"/><path d="M 11001,17483 L 11000,17465 10999,17448 10997,17431 10994,17415 10990,17398 10985,17382 10979,17366 10972,17350 10964,17334 10955,17320 10946,17306 10936,17294 10925,17282 10914,17271 10902,17261 10889,17252 10876,17245 10862,17238 10848,17232 10835,17228 10821,17224 10806,17222 10792,17220 10778,17220 10757,17221 10737,17224 10717,17229 10698,17237 10681,17246 10663,17258 10647,17272 10631,17288 10617,17306 10604,17326 10594,17347 10585,17369 10579,17393 10574,17419 10571,17446 10570,17475 10571,17503 10574,17529 10578,17553 10585,17576 10594,17598 10604,17618 10616,17637 10630,17654 10646,17669 10663,17682 10680,17694 10699,17703 10718,17710 10739,17715 10760,17718 10783,17719 10805,17718 10827,17715 10847,17710 10867,17703 10886,17694 10904,17682 10921,17669 10937,17654 10952,17637 10965,17618 10976,17599 10985,17578 10992,17556 10997,17533 11000,17508 11001,17483 Z"/><path d="M 7382,14309 L 7370,14180 7392,14175 7412,14170 7431,14163 7448,14156 7464,14147 7478,14138 7491,14128 7502,14117 7512,14105 7520,14092 7527,14078 7533,14064 7537,14049 7540,14033 7542,14016 7543,13998 7543,13983 7541,13968 7539,13954 7536,13940 7532,13927 7527,13914 7521,13902 7515,13890 7507,13878 7499,13867 7491,13857 7482,13847 7472,13838 7462,13829 7451,13821 7439,13813 7427,13806 7413,13799 7383,13785 7349,13774 7311,13763 7270,13754 7229,13748 7188,13744 7146,13743 7119,13743 7135,13754 7150,13765 7164,13778 7178,13791 7190,13806 7202,13821 7214,13837 7224,13854 7233,13872 7241,13889 7248,13908 7254,13926 7258,13945 7261,13965 7263,13985 7264,14005 7263,14022 7262,14038 7260,14054 7257,14070 7254,14086 7250,14101 7245,14116 7239,14130 7232,14145 7225,14158 7217,14172 7208,14185 7199,14198 7188,14211 7177,14223 7165,14235 7152,14246 7139,14257 7126,14267 7112,14276 7097,14285 7082,14292 7067,14299 7051,14305 7034,14311 7017,14316 7000,14320 6982,14323 6963,14326 6944,14328 6925,14329 6905,14329 6885,14329 6864,14327 6845,14326 6826,14323 6807,14319 6789,14315 6772,14310 6755,14305 6738,14298 6722,14291 6707,14283 6692,14274 6677,14264 6663,14254 6650,14243 6637,14231 6625,14219 6613,14206 6602,14192 6593,14179 6583,14165 6575,14150 6568,14135 6561,14120 6555,14105 6550,14089 6545,14072 6542,14056 6539,14038 6537,14021 6536,14003 6535,13985 6536,13958 6539,13932 6543,13907 6550,13883 6558,13858 6568,13835 6579,13812 6593,13790 6608,13768 6625,13748 6643,13729 6663,13712 6684,13696 6707,13681 6731,13667 6757,13655 6785,13644 6816,13635 6850,13627 6887,13621 6927,13616 6970,13612 7016,13610 7065,13609 7116,13610 7165,13612 7210,13615 7254,13620 7294,13627 7332,13635 7367,13644 7400,13655 7430,13667 7458,13680 7484,13695 7509,13711 7532,13729 7552,13748 7571,13769 7589,13790 7604,13813 7617,13837 7628,13862 7637,13888 7644,13915 7649,13943 7653,13971 7654,14001 7652,14032 7649,14062 7644,14091 7636,14118 7626,14143 7614,14167 7599,14190 7583,14211 7564,14230 7543,14248 7521,14263 7496,14276 7470,14287 7443,14297 7413,14304 7382,14309 Z"/><path d="M 6898,13758 L 6870,13759 6844,13762 6818,13767 6795,13774 6772,13783 6752,13793 6732,13806 6715,13820 6699,13836 6685,13853 6673,13870 6664,13888 6656,13907 6651,13927 6648,13947 6647,13968 6648,13990 6651,14012 6657,14032 6665,14052 6675,14071 6688,14090 6703,14107 6720,14124 6739,14140 6759,14153 6781,14165 6804,14174 6828,14181 6854,14187 6881,14190 6910,14191 6935,14190 6959,14187 6983,14182 7004,14175 7025,14166 7045,14156 7063,14143 7080,14128 7095,14112 7108,14095 7119,14076 7129,14057 7136,14037 7141,14016 7144,13995 7145,13972 7144,13949 7141,13927 7136,13907 7129,13887 7119,13868 7108,13851 7095,13834 7080,13819 7063,13805 7044,13792 7024,13782 7002,13773 6978,13767 6953,13762 6927,13759 6898,13758 Z"/></g></g></g></g></svg>