<?xml version="1.0" encoding="UTF-8"?>
<!DOCTYPE svg PUBLIC "-//W3C//DTD SVG 1.1//EN" "http://www.w3.org/Graphics/SVG/1.1/DTD/svg11.dtd"><svg version="1.1" viewBox="0 0 21590 27940" preserveAspectRatio="xMidYMid" fill-rule="evenodd" xmlns="http://www.w3.org/2000/svg" xmlns:xlink="http://www.w3.org/1999/xlink"><g visibility="visible" id="Default"><desc>Master slide</desc><g style="stroke:none;fill:none"><rect x="0" y="0" width="21590" height="27940"/></g></g><g visibility="visible" id="page1"><desc>Slide</desc><g><desc>Graphic</desc><g><g style="stroke:rgb(255,0,0);fill:none"><path d="M 15491,13949 L 15502,13947 15511,13944 15521,13942 15531,13939 15542,13936 15553,13933 15564,13930 15575,13926 15587,13922 15599,13918 15612,13914 15624,13910 15637,13905 15650,13900 15664,13895 15678,13890 15692,13884 15706,13878 15721,13872 15736,13866 15751,13859 15766,13852 15782,13845 15794,13839 15790,13732 15778,13727 15761,13721 15745,13715 15730,13710 15715,13704 15700,13699 15685,13694 15670,13690 15656,13685 15642,13681 15629,13677 15616,13674 15603,13670 15590,13667 15578,13664 15566,13661 15554,13658 15543,13656 15531,13653 15521,13651 15510,13649 15500,13647 15490,13646 15480,13644 15472,13540 15482,13537 15491,13533 15501,13530 15511,13526 15521,13522 15531,13518 15542,13514 15553,13509 15565,13505 15577,13500 15588,13494 15601,13489 15613,13483 15626,13477 15639,13471 15652,13464 15666,13457 15680,13450 15694,13443 15708,13435 15722,13427 15737,13419 15752,13411 15764,13404 15750,13297 15737,13293 15721,13289 15705,13284 15689,13280 15673,13276 15657,13273 15642,13269 15628,13266 15613,13263 15599,13260 15585,13257 15572,13255 15558,13252 15545,13250 15533,13248 15521,13246 15509,13245 15497,13243 15486,13242 15475,13240 15464,13239 15454,13238 15444,13238 15434,13237 15417,13134 15426,13130 15435,13126 15445,13121 15454,13117 15464,13112 15474,13107 15485,13102 15495,13096 15506,13091 15517,13085 15529,13078 15541,13072 15552,13065 15565,13058 15577,13050 15590,13043 15603,13035 15616,13026 15629,13018 15643,13009 15656,13000 15670,12990 15684,12981 15695,12973 15673,12868 15660,12865 15643,12862 15626,12859 15610,12856 15594,12854 15578,12851 15563,12849 15548,12847 15533,12845 15519,12844 15505,12842 15491,12841 15478,12840 15465,12839 15452,12838 15440,12837 15428,12837 15416,12836 15405,12836 15394,12835 15383,12835 15373,12835 15363,12835 15353,12835 15326,12734 15335,12729 15344,12724 15353,12719 15362,12714 15372,12708 15381,12702 15391,12696 15401,12690 15412,12683 15422,12676 15433,12669 15444,12661 15456,12654 15467,12645 15479,12637 15491,12628 15503,12619 15515,12610 15528,12600 15540,12590 15553,12580 15566,12569 15580,12558 15590,12549 15558,12447 15545,12445 15528,12444 15511,12442 15495,12441 15478,12440 15463,12439 15447,12438 15432,12437 15417,12437 15403,12436 15389,12436 15375,12436 15361,12436 15348,12436 15336,12436 15323,12437 15311,12437 15300,12437 15288,12438 15277,12439 15267,12439 15257,12440 15247,12441 15236,12442 15201,12344 15210,12338 15218,12333 15227,12327 15235,12321 15244,12314 15253,12307 15263,12301 15272,12293 15282,12286 15292,12278 15302,12270 15313,12261 15323,12252 15334,12243 15345,12234 15356,12224 15367,12214 15379,12204 15390,12193 15402,12182 15414,12170 15426,12158 15439,12146 15448,12137 15408,12037 15394,12037 15377,12037 15360,12037 15343,12037 15327,12037 15311,12038 15296,12038 15281,12039 15266,12040 15252,12040 15238,12041 15224,12043 15210,12044 15197,12045 15185,12046 15173,12048 15161,12049 15149,12051 15138,12052 15127,12054 15117,12055 15106,12057 15097,12059 15086,12061 15043,11966 15051,11959 15059,11953 15067,11947 15075,11940 15083,11933 15092,11925 15100,11917 15109,11909 15118,11901 15128,11892 15137,11883 15147,11874 15156,11864 15166,11854 15176,11844 15187,11833 15197,11822 15208,11811 15218,11799 15229,11787 15240,11774 15251,11762 15262,11748 15271,11738 15222,11643 15208,11643 15191,11645 15174,11646 15158,11648 15142,11649 15126,11651 15111,11653 15096,11655 15081,11657 15067,11659 15053,11661 15039,11664 15026,11666 15013,11668 15001,11671 14988,11673 14977,11676 14965,11678 14954,11681 14944,11683 14933,11686 14923,11689 14914,11691 14904,11694 14852,11603 14860,11596 14867,11589 14874,11582 14882,11574 14889,11567 14897,11558 14905,11550 14913,11541 14922,11532 14930,11522 14939,11513 14947,11502 14956,11492 14965,11481 14974,11470 14984,11458 14993,11446 15003,11434 15012,11422 15022,11409 15032,11395 15042,11382 15051,11367 15059,11356 15002,11265 14989,11268 14972,11270 14955,11273 14939,11276 14923,11279 14907,11283 14892,11286 14877,11289 14863,11292 14849,11296 14835,11299 14822,11303 14809,11306 14796,11309 14784,11313 14772,11316 14761,11320 14750,11323 14739,11327 14729,11330 14719,11334 14709,11337 14700,11341 14690,11344 14631,11259 14637,11251 14644,11243 14651,11235 14657,11227 14664,11219 14671,11210 14679,11201 14686,11191 14693,11181 14701,11171 14709,11161 14717,11150 14725,11139 14733,11127 14741,11115 14749,11103 14757,11090 14766,11077 14774,11064 14783,11050 14791,11036 14800,11021 14809,11006 14815,10995 14750,10909 14737,10912 14721,10917 14704,10921 14688,10925 14673,10930 14658,10934 14643,10939 14628,10943 14614,10948 14601,10952 14587,10957 14574,10962 14562,10966 14549,10971 14538,10975 14526,10980 14515,10984 14504,10989 14494,10993 14484,10998 14474,11002 14465,11006 14456,11010 14446,11015 14380,10934 14386,10926 14392,10918 14398,10910 14404,10901 14410,10892 14416,10882 14423,10873 14429,10863 14436,10852 14442,10841 14449,10830 14456,10819 14463,10807 14470,10795 14477,10782 14484,10769 14491,10756 14498,10742 14506,10728 14513,10713 14520,10699 14528,10683 14535,10668 14541,10655 14469,10576 14456,10580 14440,10586 14424,10592 14408,10597 14393,10603 14378,10609 14364,10615 14350,10621 14336,10626 14323,10632 14310,10638 14298,10644 14286,10649 14274,10655 14262,10660 14251,10666 14241,10671 14230,10677 14220,10682 14211,10687 14201,10692 14192,10697 14184,10702 14175,10708 14102,10633 14107,10625 14112,10616 14117,10607 14123,10598 14128,10588 14133,10579 14139,10568 14145,10558 14150,10547 14156,10535 14162,10524 14168,10511 14173,10499 14179,10486 14185,10473 14191,10460 14197,10446 14203,10431 14209,10417 14215,10402 14221,10386 14227,10370 14233,10354 14238,10342 14159,10268 14147,10274 14131,10281 14116,10288 14101,10295 14086,10302 14072,10309 14058,10316 14045,10323 14032,10330 14019,10337 14007,10344 13995,10351 13983,10358 13972,10364 13961,10371 13950,10377 13940,10384 13930,10390 13921,10396 13912,10402 13903,10408 13894,10414 13886,10419 13878,10425 13798,10358 13803,10349 13807,10340 13812,10330 13816,10321 13821,10311 13825,10300 13830,10290 13834,10279 13839,10267 13844,10255 13849,10243 13853,10231 13858,10218 13863,10204 13868,10191 13872,10177 13877,10162 13882,10148 13887,10133 13891,10117 13896,10101 13900,10085 13905,10068 13908,10055 13824,9989 13812,9996 13797,10004 13782,10013 13768,10021 13754,10029 13741,10038 13727,10046 13715,10054 13702,10062 13690,10070 13678,10078 13667,10086 13656,10093 13645,10101 13635,10108 13625,10116 13616,10123 13606,10130 13597,10137 13589,10144 13581,10151 13573,10157 13565,10163 13557,10170 13472,10110 13476,10100 13480,10091 13483,10081 13487,10071 13490,10061 13494,10050 13498,10039 13501,10028 13505,10016 13509,10004 13512,9991 13516,9978 13519,9965 13523,9951 13527,9937 13530,9923 13534,9908 13537,9893 13540,9878 13544,9862 13547,9845 13550,9829 13553,9812 13555,9799 13465,9740 13454,9748 13440,9758 13426,9767 13413,9777 13399,9786 13387,9796 13374,9805 13362,9814 13351,9823 13339,9832 13328,9841 13318,9850 13307,9859 13298,9867 13288,9875 13279,9884 13270,9892 13261,9900 13253,9907 13245,9915 13237,9922 13230,9929 13223,9936 13216,9944 13126,9891 13129,9881 13131,9872 13134,9862 13137,9851 13139,9841 13142,9830 13145,9818 13147,9807 13150,9795 13153,9782 13155,9769 13158,9756 13160,9743 13163,9729 13165,9714 13167,9700 13169,9685 13171,9670 13173,9654 13175,9638 13177,9621 13179,9604 13180,9587 13181,9574 13087,9524 13076,9532 13063,9543 13050,9554 13037,9565 13025,9575 13013,9586 13002,9596 12990,9606 12980,9616 12969,9626 12959,9636 12949,9646 12940,9655 12930,9665 12922,9674 12913,9683 12905,9691 12897,9700 12889,9708 12882,9717 12875,9725 12869,9732 12862,9740 12856,9748 12761,9703 12763,9693 12765,9683 12767,9673 12769,9663 12771,9652 12772,9641 12774,9629 12776,9617 12777,9605 12779,9593 12780,9580 12782,9566 12783,9553 12784,9538 12785,9524 12786,9509 12787,9494 12788,9479 12788,9463 12789,9447 12789,9430 12789,9413 12789,9396 12789,9383 12690,9341 12681,9350 12668,9362 12656,9374 12645,9386 12634,9398 12623,9409 12612,9420 12602,9431 12592,9442 12582,9453 12573,9464 12564,9474 12556,9485 12547,9495 12539,9505 12531,9514 12524,9524 12517,9533 12510,9542 12504,9551 12497,9559 12491,9568 12486,9576 12480,9584 12382,9548 12383,9538 12384,9528 12385,9518 12386,9507 12387,9496 12388,9485 12388,9473 12389,9461 12389,9449 12390,9436 12390,9423 12390,9410 12390,9396 12390,9382 12390,9367 12390,9353 12389,9337 12389,9322 12388,9306 12387,9290 12386,9273 12385,9257 12383,9239 12382,9226 12280,9193 12271,9203 12260,9216 12249,9229 12238,9242 12228,9255 12218,9267 12209,9279 12199,9291 12191,9303 12182,9315 12174,9326 12166,9337 12158,9348 12151,9359 12143,9369 12137,9380 12130,9390 12124,9400 12118,9409 12112,9419 12107,9428 12101,9437 12096,9445 12091,9454 11991,9426 11991,9416 11991,9406 11991,9396 11991,9385 11991,9374 11991,9363 11990,9351 11990,9339 11989,9327 11989,9314 11988,9301 11987,9288 11986,9274 11984,9260 11983,9246 11981,9231 11980,9216 11978,9201 11975,9185 11973,9169 11971,9153 11968,9136 11965,9119 11963,9106 11858,9082 11850,9093 11840,9107 11830,9120 11821,9134 11812,9148 11803,9161 11795,9174 11786,9187 11779,9199 11771,9211 11764,9223 11757,9235 11750,9247 11744,9258 11737,9269 11732,9280 11726,9291 11720,9301 11715,9311 11710,9321 11706,9331 11701,9340 11697,9349 11693,9358 11590,9339 11590,9329 11589,9319 11588,9309 11587,9298 11586,9288 11585,9276 11583,9265 11582,9253 11580,9241 11578,9228 11576,9215 11574,9202 11572,9188 11569,9174 11567,9160 11564,9146 11561,9131 11557,9116 11554,9100 11550,9084 11546,9068 11542,9052 11538,9035 11534,9022 11428,9008 11421,9019 11412,9034 11404,9049 11396,9063 11388,9077 11380,9091 11373,9105 11366,9118 11359,9131 11353,9144 11346,9157 11341,9169 11335,9182 11329,9193 11324,9205 11319,9216 11315,9227 11310,9238 11306,9249 11302,9259 11298,9269 11294,9278 11291,9288 11288,9297 11184,9288 11182,9277 11181,9268 11179,9258 11177,9247 11175,9236 11173,9225 11170,9214 11168,9202 11165,9190 11162,9178 11159,9165 11156,9152 11152,9139 11149,9125 11145,9111 11141,9097 11136,9082 11132,9068 11127,9053 11122,9037 11116,9021 11111,9006 11105,8989 11100,8977 10993,8971 10987,8983 10980,8999 10973,9014 10966,9029 10959,9044 10953,9059 10947,9073 10941,9087 10935,9101 10930,9114 10925,9127 10920,9140 10916,9153 10911,9165 10907,9177 10903,9189 10899,9200 10896,9211 10893,9222 10889,9233 10886,9243 10884,9253 10881,9262 10879,9272 10774,9272 10772,9261 10769,9252 10767,9242 10764,9232 10761,9221 10758,9210 10755,9199 10751,9188 10747,9176 10743,9164 10739,9151 10735,9139 10730,9126 10725,9113 10720,9099 10715,9085 10709,9071 10703,9057 10697,9042 10691,9027 10684,9012 10677,8997 10670,8981 10664,8969 10557,8973 10552,8985 10546,9002 10540,9018 10535,9033 10529,9048 10524,9063 10519,9078 10515,9093 10510,9107 10506,9121 10502,9134 10499,9147 10495,9160 10492,9173 10489,9185 10486,9197 10483,9209 10481,9220 10478,9232 10476,9242 10474,9253 10472,9263 10471,9273 10469,9283 10365,9291 10362,9281 10358,9272 10355,9262 10351,9252 10347,9242 10343,9232 10339,9221 10334,9210 10330,9198 10325,9186 10319,9175 10314,9162 10308,9150 10302,9137 10296,9124 10289,9111 10282,9097 10275,9083 10268,9069 10260,9055 10252,9041 10244,9026 10236,9011 10229,8999 10122,9013 10118,9026 10114,9042 10109,9058 10105,9074 10101,9090 10098,9106 10094,9121 10091,9135 10088,9150 10085,9164 10082,9178 10080,9191 10077,9205 10075,9218 10073,9230 10071,9242 10070,9254 10068,9266 10067,9277 10065,9288 10064,9299 10063,9309 10063,9319 10062,9329 9959,9346 9955,9337 9951,9328 9946,9318 9942,9309 9937,9299 9932,9289 9927,9278 9921,9268 9916,9257 9910,9246 9903,9234 9897,9222 9890,9211 9883,9198 9875,9186 9868,9173 9860,9160 9851,9147 9843,9134 9834,9120 9825,9107 9815,9093 9806,9079 9798,9068 9693,9090 9690,9103 9687,9120 9684,9137 9681,9153 9679,9169 9676,9185 9674,9200 9672,9215 9670,9230 9669,9244 9667,9258 9666,9272 9665,9285 9664,9298 9663,9311 9662,9323 9662,9335 9661,9347 9661,9358 9660,9369 9660,9380 9660,9390 9660,9400 9660,9410 9559,9437 9554,9428 9549,9419 9544,9410 9539,9401 9533,9391 9527,9382 9521,9372 9515,9362 9508,9351 9501,9341 9494,9330 9486,9319 9479,9307 9470,9296 9462,9284 9453,9272 9444,9260 9435,9248 9425,9235 9415,9223 9405,9210 9394,9197 9383,9183 9374,9173 9272,9205 9270,9218 9269,9235 9267,9252 9266,9268 9265,9285 9264,9300 9263,9316 9262,9331 9262,9346 9261,9360 9261,9374 9261,9388 9261,9402 9261,9415 9261,9427 9262,9440 9262,9452 9262,9463 9263,9475 9264,9486 9264,9496 9265,9506 9266,9516 9267,9527 9169,9562 9163,9553 9158,9545 9152,9536 9146,9528 9139,9519 9132,9510 9126,9500 9118,9491 9111,9481 9103,9471 9095,9461 9086,9450 9077,9440 9068,9429 9059,9418 9049,9407 9039,9396 9029,9384 9018,9373 9007,9361 8995,9349 8983,9337 8971,9324 8962,9315 8862,9355 8862,9369 8862,9386 8862,9403 8862,9420 8862,9436 8863,9452 8863,9467 8864,9482 8865,9497 8865,9511 8866,9525 8868,9539 8869,9553 8870,9566 8871,9578 8873,9590 8874,9602 8876,9614 8877,9625 8879,9636 8880,9646 8882,9657 8884,9666 8886,9677 8791,9720 8784,9712 8778,9704 8772,9696 8765,9688 8758,9680 8750,9671 8742,9663 8734,9654 8726,9645 8717,9635 8708,9626 8699,9616 8689,9607 8679,9597 8669,9587 8658,9576 8647,9566 8636,9555 8624,9545 8612,9534 8599,9523 8587,9512 8573,9501 8563,9492 8468,9541 8468,9555 8470,9572 8471,9589 8473,9605 8474,9621 8476,9637 8478,9652 8480,9667 8482,9682 8484,9696 8486,9710 8489,9724 8491,9737 8493,9750 8496,9762 8498,9775 8501,9786 8503,9798 8506,9809 8508,9819 8511,9830 8514,9840 8516,9849 8519,9859 8428,9911 8421,9903 8414,9896 8407,9889 8399,9881 8392,9874 8383,9866 8375,9858 8366,9850 8357,9841 8347,9833 8338,9824 8327,9816 8317,9807 8306,9798 8295,9789 8283,9779 8271,9770 8259,9760 8247,9751 8234,9741 8220,9731 8207,9721 8192,9712 8181,9704 8090,9761 8093,9774 8095,9791 8098,9808 8101,9824 8104,9840 8108,9856 8111,9871 8114,9886 8117,9900 8121,9914 8124,9928 8128,9941 8131,9954 8134,9967 8138,9979 8141,9991 8145,10002 8148,10013 8152,10024 8155,10034 8159,10044 8162,10054 8166,10063 8169,10073 8084,10132 8076,10126 8068,10119 8060,10112 8052,10106 8044,10099 8035,10092 8026,10084 8016,10077 8006,10070 7996,10062 7986,10054 7975,10046 7964,10038 7952,10030 7940,10022 7928,10014 7915,10006 7902,9997 7889,9989 7875,9980 7861,9972 7846,9963 7831,9954 7820,9948 7734,10013 7737,10026 7742,10042 7746,10059 7750,10075 7755,10090 7759,10105 7764,10120 7768,10135 7773,10149 7777,10162 7782,10176 7787,10189 7791,10201 7796,10214 7800,10225 7805,10237 7809,10248 7814,10259 7818,10269 7823,10279 7827,10289 7831,10298 7835,10307 7840,10317 7759,10383 7751,10377 7743,10371 7735,10365 7726,10359 7717,10353 7707,10347 7698,10340 7688,10334 7677,10327 7666,10321 7655,10314 7644,10307 7632,10300 7620,10293 7607,10286 7594,10279 7581,10272 7567,10265 7553,10257 7538,10250 7524,10243 7508,10235 7493,10228 7480,10222 7401,10294 7405,10307 7411,10323 7417,10339 7422,10355 7428,10370 7434,10385 7440,10399 7446,10413 7451,10427 7457,10440 7463,10453 7469,10465 7474,10477 7480,10489 7485,10501 7491,10512 7496,10522 7502,10533 7507,10543 7512,10552 7517,10562 7522,10571 7527,10579 7533,10588 7458,10661 7450,10656 7441,10651 7432,10646 7423,10640 7413,10635 7404,10630 7393,10624 7383,10618 7372,10613 7360,10607 7349,10601 7336,10595 7324,10590 7311,10584 7298,10578 7285,10572 7271,10566 7256,10560 7242,10554 7227,10548 7211,10542 7195,10536 7179,10530 7167,10525 7093,10604 7099,10616 7106,10632 7113,10647 7120,10662 7127,10677 7134,10691 7141,10705 7148,10718 7155,10731 7162,10744 7169,10756 7176,10768 7183,10780 7189,10791 7196,10802 7202,10813 7209,10823 7215,10833 7221,10842 7227,10851 7233,10860 7239,10869 7244,10877 7250,10885 7183,10965 7174,10960 7165,10956 7155,10951 7146,10947 7136,10942 7125,10938 7115,10933 7104,10929 7092,10924 7080,10919 7068,10914 7056,10910 7043,10905 7029,10900 7016,10895 7002,10891 6987,10886 6973,10881 6958,10876 6942,10872 6926,10867 6910,10863 6893,10858 6880,10855 6814,10939 6821,10951 6829,10966 6838,10981 6846,10995 6854,11009 6863,11022 6871,11036 6879,11048 6887,11061 6895,11073 6903,11085 6911,11096 6918,11107 6926,11118 6933,11128 6941,11138 6948,11147 6955,11157 6962,11166 6969,11174 6976,11182 6982,11190 6988,11198 6995,11206 6935,11291 6925,11287 6916,11283 6906,11280 6896,11276 6886,11273 6875,11269 6864,11265 6853,11262 6841,11258 6829,11254 6816,11251 6803,11247 6790,11244 6776,11240 6762,11236 6748,11233 6733,11229 6718,11226 6703,11223 6687,11219 6670,11216 6654,11213 6637,11210 6624,11208 6565,11298 6573,11309 6583,11323 6592,11337 6602,11350 6611,11364 6621,11376 6630,11389 6639,11401 6648,11412 6657,11424 6666,11435 6675,11445 6684,11456 6692,11465 6700,11475 6709,11484 6717,11493 6725,11502 6732,11510 6740,11518 6747,11526 6754,11533 6761,11540 6769,11547 6716,11637 6706,11634 6697,11632 6687,11629 6676,11626 6666,11624 6655,11621 6643,11618 6632,11616 6620,11613 6607,11610 6594,11608 6581,11605 6568,11603 6554,11600 6539,11598 6525,11596 6510,11594 6495,11592 6479,11590 6463,11588 6446,11586 6429,11584 6412,11583 6399,11582 6349,11676 6357,11687 6368,11700 6379,11713 6390,11726 6400,11738 6411,11750 6421,11761 6431,11773 6441,11783 6451,11794 6461,11804 6471,11814 6480,11823 6490,11833 6499,11841 6508,11850 6516,11858 6525,11866 6533,11874 6542,11881 6550,11888 6557,11894 6565,11901 6573,11907 6528,12002 6518,12000 6508,11998 6498,11996 6488,11994 6477,11992 6466,11991 6454,11989 6442,11987 6430,11986 6418,11984 6405,11983 6391,11981 6378,11980 6363,11979 6349,11978 6334,11977 6319,11976 6304,11975 6288,11975 6272,11974 6255,11974 6238,11974 6221,11974 6208,11974 6166,12073 6175,12082 6187,12095 6199,12107 6211,12118 6223,12129 6234,12140 6245,12151 6256,12161 6267,12171 6278,12181 6289,12190 6299,12199 6310,12207 6320,12216 6330,12224 6339,12232 6349,12239 6358,12246 6367,12253 6376,12259 6384,12266 6393,12272 6401,12277 6409,12283 6373,12381 6363,12380 6353,12379 6343,12378 6332,12377 6321,12376 6310,12375 6298,12375 6286,12374 6274,12374 6261,12373 6248,12373 6235,12373 6221,12373 6207,12373 6192,12373 6178,12373 6162,12374 6147,12374 6131,12375 6115,12376 6098,12377 6082,12378 6064,12380 6051,12381 6018,12483 6028,12492 6041,12503 6054,12514 6067,12525 6080,12535 6092,12545 6104,12554 6116,12564 6128,12572 6140,12581 6151,12589 6162,12597 6173,12605 6184,12612 6194,12620 6205,12626 6215,12633 6225,12639 6234,12645 6244,12651 6253,12656 6262,12662 6270,12667 6279,12672 6251,12772 6241,12772 6231,12772 6221,12772 6210,12772 6199,12772 6188,12772 6176,12773 6164,12773 6152,12774 6139,12774 6126,12775 6113,12776 6099,12777 6085,12779 6071,12780 6056,12782 6041,12783 6026,12785 6010,12788 5994,12790 5978,12792 5961,12795 5944,12798 5931,12800 5907,12905 5918,12913 5932,12923 5945,12933 5959,12942 5973,12951 5986,12960 5999,12968 6012,12977 6024,12984 6036,12992 6048,12999 6060,13006 6072,13013 6083,13019 6094,13026 6105,13031 6116,13037 6126,13043 6136,13048 6146,13053 6156,13057 6165,13062 6174,13066 6183,13070 6164,13173 6154,13173 6144,13174 6134,13175 6123,13176 6113,13177 6101,13178 6090,13180 6078,13181 6066,13183 6053,13185 6040,13187 6027,13189 6013,13191 5999,13194 5985,13196 5971,13199 5956,13202 5941,13206 5925,13209 5909,13213 5893,13217 5877,13221 5860,13225 5847,13229 5833,13335 5844,13342 5859,13351 5874,13359 5888,13367 5902,13375 5916,13383 5930,13390 5943,13397 5956,13404 5969,13410 5982,13417 5994,13422 6007,13428 6018,13434 6030,13439 6041,13444 6052,13448 6063,13453 6074,13457 6084,13461 6094,13465 6103,13469 6113,13472 6122,13475 6113,13579 6102,13581 6093,13582 6083,13584 6072,13586 6061,13588 6050,13590 6039,13593 6027,13595 6015,13598 6003,13601 5990,13604 5977,13607 5964,13611 5950,13614 5936,13618 5922,13622 5907,13627 5893,13631 5878,13636 5862,13641 5846,13647 5831,13652 5814,13658 5802,13663 5796,13770 5808,13776 5824,13783 5839,13790 5854,13797 5869,13804 5884,13810 5898,13816 5912,13822 5926,13828 5939,13833 5952,13838 5965,13843 5978,13847 5990,13852 6002,13856 6014,13860 6025,13864 6036,13867 6047,13870 6058,13874 6068,13877 6078,13879 6087,13882 6097,13884 6097,13989 6086,13991 6077,13994 6067,13996 6057,13999 6046,14002 6035,14005 6024,14008 6013,14012 6001,14016 5989,14020 5976,14024 5964,14028 5951,14033 5938,14038 5924,14043 5910,14048 5896,14054 5882,14060 5867,14066 5852,14072 5837,14079 5822,14086 5806,14093 5794,14099 5798,14206 5810,14211 5827,14217 5843,14223 5858,14228 5873,14234 5888,14239 5903,14244 5918,14248 5932,14253 5946,14257 5959,14261 5972,14264 5985,14268 5998,14271 6010,14274 6022,14277 6034,14280 6045,14282 6057,14285 6067,14287 6078,14289 6088,14291 6098,14292 6108,14294 6116,14398 6106,14401 6097,14405 6087,14408 6077,14412 6067,14416 6057,14420 6046,14424 6035,14429 6023,14433 6011,14438 6000,14444 5987,14449 5975,14455 5962,14461 5949,14467 5936,14474 5922,14481 5908,14488 5894,14495 5880,14503 5866,14511 5851,14519 5836,14527 5824,14534 5838,14641 5851,14645 5867,14649 5883,14654 5899,14658 5915,14662 5931,14665 5946,14669 5960,14672 5975,14675 5989,14678 6003,14681 6016,14683 6030,14686 6043,14688 6055,14690 6067,14692 6079,14693 6091,14695 6102,14696 6113,14698 6124,14699 6134,14700 6144,14700 6154,14701 6171,14804 6162,14808 6153,14812 6143,14817 6134,14821 6124,14826 6114,14831 6103,14836 6093,14842 6082,14847 6071,14853 6059,14860 6047,14866 6036,14873 6023,14880 6011,14888 5998,14895 5985,14903 5972,14912 5959,14920 5945,14929 5932,14938 5918,14948 5904,14957 5893,14965 5915,15070 5928,15073 5945,15076 5962,15079 5978,15082 5994,15084 6010,15087 6025,15089 6040,15091 6055,15093 6069,15094 6083,15096 6097,15097 6110,15098 6123,15099 6136,15100 6148,15101 6160,15101 6172,15102 6183,15102 6194,15103 6205,15103 6215,15103 6225,15103 6235,15103 6262,15204 6253,15209 6244,15214 6235,15219 6226,15224 6216,15230 6207,15236 6197,15242 6187,15248 6176,15255 6166,15262 6155,15269 6144,15277 6132,15284 6121,15293 6109,15301 6097,15310 6085,15319 6073,15328 6060,15338 6048,15348 6035,15358 6022,15369 6008,15380 5998,15389 6030,15491 6043,15493 6060,15494 6077,15496 6093,15497 6110,15498 6125,15499 6141,15500 6156,15501 6171,15501 6185,15502 6199,15502 6213,15502 6227,15502 6240,15502 6252,15502 6265,15501 6277,15501 6288,15501 6300,15500 6311,15499 6321,15499 6331,15498 6341,15497 6352,15496 6387,15594 6378,15600 6370,15605 6361,15611 6353,15617 6344,15624 6335,15631 6325,15637 6316,15645 6306,15652 6296,15660 6286,15668 6275,15677 6265,15686 6254,15695 6243,15704 6232,15714 6221,15724 6209,15734 6198,15745 6186,15756 6174,15768 6162,15780 6149,15792 6140,15801 6180,15901 6194,15901 6211,15901 6228,15901 6245,15901 6261,15901 6277,15900 6292,15900 6307,15899 6322,15898 6336,15898 6350,15897 6364,15895 6378,15894 6391,15893 6403,15892 6415,15890 6427,15889 6439,15887 6450,15886 6461,15884 6471,15883 6482,15881 6491,15879 6502,15877 6545,15972 6537,15979 6529,15985 6521,15991 6513,15998 6505,16005 6496,16013 6488,16021 6479,16029 6470,16037 6460,16046 6451,16055 6441,16064 6432,16074 6422,16084 6412,16094 6401,16105 6391,16116 6380,16127 6370,16139 6359,16151 6348,16164 6337,16176 6326,16190 6317,16200 6366,16295 6380,16295 6397,16293 6414,16292 6430,16290 6446,16289 6462,16287 6477,16285 6492,16283 6507,16281 6521,16279 6535,16277 6549,16274 6562,16272 6575,16270 6587,16267 6600,16265 6611,16262 6623,16260 6634,16257 6644,16255 6655,16252 6665,16249 6674,16247 6684,16244 6736,16335 6728,16342 6721,16349 6714,16356 6706,16364 6699,16371 6691,16380 6683,16388 6675,16397 6666,16406 6658,16416 6649,16425 6641,16436 6632,16446 6623,16457 6614,16468 6604,16480 6595,16492 6585,16504 6576,16516 6566,16529 6556,16543 6546,16556 6537,16571 6529,16582 6586,16673 6599,16670 6616,16668 6633,16665 6649,16662 6665,16659 6681,16655 6696,16652 6711,16649 6725,16646 6739,16642 6753,16639 6766,16635 6779,16632 6792,16629 6804,16625 6816,16622 6827,16618 6838,16615 6849,16611 6859,16608 6869,16604 6879,16601 6888,16597 6898,16594 6957,16679 6951,16687 6944,16695 6937,16703 6931,16711 6924,16719 6917,16728 6909,16737 6902,16747 6895,16757 6887,16767 6879,16777 6871,16788 6863,16799 6855,16811 6847,16823 6839,16835 6831,16848 6822,16861 6814,16874 6805,16888 6797,16902 6788,16917 6779,16932 6773,16943 6838,17029 6851,17026 6867,17021 6884,17017 6900,17013 6915,17008 6930,17004 6945,16999 6960,16995 6974,16990 6987,16986 7001,16981 7014,16976 7026,16972 7039,16967 7050,16963 7062,16958 7073,16954 7084,16949 7094,16945 7104,16940 7114,16936 7123,16932 7132,16928 7142,16923 7208,17004 7202,17012 7196,17020 7190,17028 7184,17037 7178,17046 7172,17056 7165,17065 7159,17075 7152,17086 7146,17097 7139,17108 7132,17119 7125,17131 7118,17143 7111,17156 7104,17169 7097,17182 7090,17196 7082,17210 7075,17225 7068,17239 7060,17255 7053,17270 7047,17283 7119,17362 7132,17358 7148,17352 7164,17346 7180,17341 7195,17335 7210,17329 7224,17323 7238,17317 7252,17312 7265,17306 7278,17300 7290,17294 7302,17289 7314,17283 7326,17278 7337,17272 7347,17267 7358,17261 7368,17256 7377,17251 7387,17246 7396,17241 7404,17236 7413,17230 7486,17305 7481,17313 7476,17322 7471,17331 7465,17340 7460,17350 7455,17359 7449,17370 7443,17380 7438,17391 7432,17403 7426,17414 7420,17427 7415,17439 7409,17452 7403,17465 7397,17478 7391,17492 7385,17507 7379,17521 7373,17536 7367,17552 7361,17568 7355,17584 7350,17596 7429,17670 7441,17664 7457,17657 7472,17650 7487,17643 7502,17636 7516,17629 7530,17622 7543,17615 7556,17608 7569,17601 7581,17594 7593,17587 7605,17580 7616,17574 7627,17567 7638,17561 7648,17554 7658,17548 7667,17542 7676,17536 7685,17530 7694,17524 7702,17519 7710,17513 7790,17580 7785,17589 7781,17598 7776,17608 7772,17617 7767,17627 7763,17638 7758,17648 7754,17659 7749,17671 7744,17683 7739,17695 7735,17707 7730,17720 7725,17734 7720,17747 7716,17761 7711,17776 7706,17790 7701,17805 7697,17821 7692,17837 7688,17853 7683,17870 7680,17883 7764,17949 7776,17942 7791,17934 7806,17925 7820,17917 7834,17909 7847,17900 7861,17892 7873,17884 7886,17876 7898,17868 7910,17860 7921,17852 7932,17845 7943,17837 7953,17830 7963,17822 7972,17815 7982,17808 7991,17801 7999,17794 8007,17787 8015,17781 8023,17775 8031,17768 8116,17828 8112,17838 8108,17847 8105,17857 8101,17867 8098,17877 8094,17888 8090,17899 8087,17910 8083,17922 8079,17934 8076,17947 8072,17960 8069,17973 8065,17987 8061,18001 8058,18015 8054,18030 8051,18045 8048,18060 8044,18076 8041,18093 8038,18109 8035,18126 8033,18139 8123,18198 8134,18190 8148,18180 8162,18171 8175,18161 8189,18152 8201,18142 8214,18133 8226,18124 8237,18115 8249,18106 8260,18097 8270,18088 8281,18079 8290,18071 8300,18063 8309,18054 8318,18046 8327,18038 8335,18031 8343,18023 8351,18016 8358,18009 8365,18002 8372,17994 8462,18047 8459,18057 8457,18066 8454,18076 8451,18087 8449,18097 8446,18108 8443,18120 8441,18131 8438,18143 8435,18156 8433,18169 8430,18182 8428,18195 8425,18209 8423,18224 8421,18238 8419,18253 8417,18268 8415,18284 8413,18300 8411,18317 8409,18334 8408,18351 8407,18364 8501,18414 8512,18406 8525,18395 8538,18384 8551,18373 8563,18363 8575,18352 8586,18342 8598,18332 8608,18322 8619,18312 8629,18302 8639,18292 8648,18283 8658,18273 8666,18264 8675,18255 8683,18247 8691,18238 8699,18230 8706,18221 8713,18213 8719,18206 8726,18198 8732,18190 8827,18235 8825,18245 8823,18255 8821,18265 8819,18275 8817,18286 8816,18297 8814,18309 8812,18321 8811,18333 8809,18345 8808,18358 8806,18372 8805,18385 8804,18400 8803,18414 8802,18429 8801,18444 8800,18459 8800,18475 8799,18491 8799,18508 8799,18525 8799,18542 8799,18555 8898,18597 8907,18588 8920,18576 8932,18564 8943,18552 8954,18540 8965,18529 8976,18518 8986,18507 8996,18496 9006,18485 9015,18474 9024,18464 9032,18453 9041,18443 9049,18433 9057,18424 9064,18414 9071,18405 9078,18396 9084,18387 9091,18379 9097,18370 9102,18362 9108,18354 9206,18390 9205,18400 9204,18410 9203,18420 9202,18431 9201,18442 9200,18453 9200,18465 9199,18477 9199,18489 9198,18502 9198,18515 9198,18528 9198,18542 9198,18556 9198,18571 9198,18585 9199,18601 9199,18616 9200,18632 9201,18648 9202,18665 9203,18681 9205,18699 9206,18712 9308,18745 9317,18735 9328,18722 9339,18709 9350,18696 9360,18683 9370,18671 9379,18659 9389,18647 9397,18635 9406,18623 9414,18612 9422,18601 9430,18590 9437,18579 9445,18569 9451,18558 9458,18548 9464,18538 9470,18529 9476,18519 9481,18510 9487,18501 9492,18493 9497,18484 9597,18512 9597,18522 9597,18532 9597,18542 9597,18553 9597,18564 9597,18575 9598,18587 9598,18599 9599,18611 9599,18624 9600,18637 9601,18650 9602,18664 9604,18678 9605,18692 9607,18707 9608,18722 9610,18737 9613,18753 9615,18769 9617,18785 9620,18802 9623,18819 9625,18832 9730,18856 9738,18845 9748,18831 9758,18818 9767,18804 9776,18790 9785,18777 9793,18764 9802,18751 9809,18739 9817,18727 9824,18715 9831,18703 9838,18691 9844,18680 9851,18669 9856,18658 9862,18647 9868,18637 9873,18627 9878,18617 9882,18607 9887,18598 9891,18589 9895,18580 9998,18599 9998,18609 9999,18619 10000,18629 10001,18640 10002,18650 10003,18662 10005,18673 10006,18685 10008,18697 10010,18710 10012,18723 10014,18736 10016,18750 10019,18764 10021,18778 10024,18792 10027,18807 10031,18822 10034,18838 10038,18854 10042,18870 10046,18886 10050,18903 10054,18916 10160,18930 10167,18919 10176,18904 10184,18889 10192,18875 10200,18861 10208,18847 10215,18833 10222,18820 10229,18807 10235,18794 10242,18781 10247,18769 10253,18756 10259,18745 10264,18733 10269,18722 10273,18711 10278,18700 10282,18689 10286,18679 10290,18669 10294,18660 10297,18650 10300,18641 10404,18650 10406,18661 10407,18670 10409,18680 10411,18691 10413,18702 10415,18713 10418,18724 10420,18736 10423,18748 10426,18760 10429,18773 10432,18786 10436,18799 10439,18813 10443,18827 10447,18841 10452,18856 10456,18870 10461,18885 10466,18901 10472,18917 10477,18932 10483,18949 10488,18961 10595,18967 10601,18955 10608,18939 10615,18924 10622,18909 10629,18894 10635,18879 10641,18865 10647,18851 10653,18837 10658,18824 10663,18811 10668,18798 10672,18785 10677,18773 10681,18761 10685,18749 10689,18738 10692,18727 10695,18716 10699,18705 10702,18695 10704,18685 10707,18676 10709,18666 10814,18666 10816,18677 10819,18686 10821,18696 10824,18706 10827,18717 10830,18728 10833,18739 10837,18750 10841,18762 10845,18774 10849,18787 10853,18799 10858,18812 10863,18825 10868,18839 10873,18853 10879,18867 10885,18881 10891,18896 10897,18911 10904,18926 10911,18941 10918,18957 10924,18969 11031,18965 11036,18953 11042,18936 11048,18920 11053,18905 11059,18890 11064,18875 11069,18860 11073,18845 11078,18831 11082,18817 11086,18804 11089,18791 11093,18778 11096,18765 11099,18753 11102,18741 11105,18729 11107,18718 11110,18706 11112,18696 11114,18685 11116,18675 11117,18665 11119,18655 11223,18647 11226,18657 11230,18666 11233,18676 11237,18686 11241,18696 11245,18706 11249,18717 11254,18728 11258,18740 11263,18752 11269,18763 11274,18776 11280,18788 11286,18801 11292,18814 11299,18827 11306,18841 11313,18855 11320,18869 11328,18883 11336,18897 11344,18912 11352,18927 11359,18939 11466,18925 11470,18912 11474,18896 11479,18880 11483,18864 11487,18848 11490,18832 11494,18817 11497,18803 11500,18788 11503,18774 11506,18760 11508,18747 11511,18733 11513,18720 11515,18708 11517,18696 11518,18684 11520,18672 11521,18661 11523,18650 11524,18639 11525,18629 11525,18619 11526,18609 11629,18592 11633,18601 11637,18610 11642,18620 11646,18629 11651,18639 11656,18649 11661,18660 11667,18670 11672,18681 11678,18692 11685,18704 11691,18716 11698,18727 11705,18740 11713,18752 11720,18765 11728,18778 11737,18791 11745,18804 11754,18818 11763,18831 11773,18845 11782,18859 11790,18870 11895,18848 11898,18835 11901,18818 11904,18801 11907,18785 11909,18769 11912,18753 11914,18738 11916,18723 11918,18708 11919,18694 11921,18680 11922,18666 11923,18653 11924,18640 11925,18627 11926,18615 11926,18603 11927,18591 11927,18580 11928,18569 11928,18558 11928,18548 11928,18538 11928,18528 12029,18501 12034,18510 12039,18519 12044,18528 12049,18537 12055,18547 12061,18556 12067,18566 12073,18576 12080,18587 12087,18597 12094,18608 12102,18619 12109,18631 12118,18642 12126,18654 12135,18666 12144,18678 12153,18690 12163,18703 12173,18715 12183,18728 12194,18741 12205,18755 12214,18765 12316,18733 12318,18720 12319,18703 12321,18686 12322,18670 12323,18653 12324,18638 12325,18622 12326,18607 12326,18592 12327,18578 12327,18564 12327,18550 12327,18536 12327,18523 12327,18511 12326,18498 12326,18486 12326,18475 12325,18463 12324,18452 12324,18442 12323,18432 12322,18422 12321,18411 12419,18376 12425,18385 12430,18393 12436,18402 12442,18410 12449,18419 12456,18428 12462,18438 12470,18447 12477,18457 12485,18467 12493,18477 12502,18488 12511,18498 12520,18509 12529,18520 12539,18531 12549,18542 12559,18554 12570,18565 12581,18577 12593,18589 12605,18601 12617,18614 12626,18623 12726,18583 12726,18569 12726,18552 12726,18535 12726,18518 12726,18502 12725,18486 12725,18471 12724,18456 12723,18441 12723,18427 12722,18413 12720,18399 12719,18385 12718,18372 12717,18360 12715,18348 12714,18336 12712,18324 12711,18313 12709,18302 12708,18292 12706,18281 12704,18272 12702,18261 12797,18218 12804,18226 12810,18234 12816,18242 12823,18250 12830,18258 12838,18267 12846,18275 12854,18284 12862,18293 12871,18303 12880,18312 12889,18322 12899,18331 12909,18341 12919,18351 12930,18362 12941,18372 12952,18383 12964,18393 12976,18404 12989,18415 13001,18426 13015,18437 13025,18446 13120,18397 13120,18383 13118,18366 13117,18349 13115,18333 13114,18317 13112,18301 13110,18286 13108,18271 13106,18256 13104,18242 13102,18228 13099,18214 13097,18201 13095,18188 13092,18176 13090,18163 13087,18152 13085,18140 13082,18129 13080,18119 13077,18108 13074,18098 13072,18089 13069,18079 13160,18027 13167,18035 13174,18042 13181,18049 13189,18057 13196,18064 13205,18072 13213,18080 13222,18088 13231,18097 13241,18105 13250,18114 13261,18122 13271,18131 13282,18140 13293,18149 13305,18159 13317,18168 13329,18178 13341,18187 13354,18197 13368,18207 13381,18217 13396,18226 13407,18234 13498,18177 13495,18164 13493,18147 13490,18130 13487,18114 13484,18098 13480,18082 13477,18067 13474,18052 13471,18038 13467,18024 13464,18010 13460,17997 13457,17984 13454,17971 13450,17959 13447,17947 13443,17936 13440,17925 13436,17914 13433,17904 13429,17894 13426,17884 13422,17875 13419,17865 13504,17806 13512,17812 13520,17819 13528,17826 13536,17832 13544,17839 13553,17846 13562,17854 13572,17861 13582,17868 13592,17876 13602,17884 13613,17892 13624,17900 13636,17908 13648,17916 13660,17924 13673,17932 13686,17941 13699,17949 13713,17958 13727,17966 13742,17975 13757,17984 13768,17990 13854,17925 13851,17912 13846,17896 13842,17879 13838,17863 13833,17848 13829,17833 13824,17818 13820,17803 13815,17789 13811,17776 13806,17762 13801,17749 13797,17737 13792,17724 13788,17713 13783,17701 13779,17690 13774,17679 13770,17669 13765,17659 13761,17649 13757,17640 13753,17631 13748,17621 13829,17555 13837,17561 13845,17567 13853,17573 13862,17579 13871,17585 13881,17591 13890,17598 13900,17604 13911,17611 13922,17617 13933,17624 13944,17631 13956,17638 13968,17645 13981,17652 13994,17659 14007,17666 14021,17673 14035,17681 14050,17688 14064,17695 14080,17703 14095,17710 14108,17716 14187,17644 14183,17631 14177,17615 14171,17599 14166,17583 14160,17568 14154,17553 14148,17539 14142,17525 14137,17511 14131,17498 14125,17485 14119,17473 14114,17461 14108,17449 14103,17437 14097,17426 14092,17416 14086,17405 14081,17395 14076,17386 14071,17376 14066,17367 14061,17359 14055,17350 14130,17277 14138,17282 14147,17287 14156,17292 14165,17298 14175,17303 14184,17308 14195,17314 14205,17320 14216,17325 14228,17331 14239,17337 14252,17343 14264,17348 14277,17354 14290,17360 14303,17366 14317,17372 14332,17378 14346,17384 14361,17390 14377,17396 14393,17402 14409,17408 14421,17413 14495,17334 14489,17322 14482,17306 14475,17291 14468,17276 14461,17261 14454,17247 14447,17233 14440,17220 14433,17207 14426,17194 14419,17182 14412,17170 14405,17158 14399,17147 14392,17136 14386,17125 14379,17115 14373,17105 14367,17096 14361,17087 14355,17078 14349,17069 14344,17061 14338,17053 14405,16973 14414,16978 14423,16982 14433,16987 14442,16991 14452,16996 14463,17000 14473,17005 14484,17009 14496,17014 14508,17019 14520,17024 14532,17028 14545,17033 14559,17038 14572,17043 14586,17047 14601,17052 14615,17057 14630,17062 14646,17066 14662,17071 14678,17075 14695,17080 14708,17083 14774,16999 14767,16987 14759,16972 14750,16957 14742,16943 14734,16929 14725,16916 14717,16902 14709,16890 14701,16877 14693,16865 14685,16853 14677,16842 14670,16831 14662,16820 14655,16810 14647,16800 14640,16791 14633,16781 14626,16772 14619,16764 14612,16756 14606,16748 14600,16740 14593,16732 14653,16647 14663,16651 14672,16655 14682,16658 14692,16662 14702,16665 14713,16669 14724,16673 14735,16676 14747,16680 14759,16684 14772,16687 14785,16691 14798,16694 14812,16698 14826,16702 14840,16705 14855,16709 14870,16712 14885,16715 14901,16719 14918,16722 14934,16725 14951,16728 14964,16730 15023,16640 15015,16629 15005,16615 14996,16601 14986,16588 14977,16574 14967,16562 14958,16549 14949,16537 14940,16526 14931,16514 14922,16503 14913,16493 14904,16482 14896,16473 14888,16463 14879,16454 14871,16445 14863,16436 14856,16428 14848,16420 14841,16412 14834,16405 14827,16398 14819,16391 14872,16301 14882,16304 14891,16306 14901,16309 14912,16312 14922,16314 14933,16317 14945,16320 14956,16322 14968,16325 14981,16328 14994,16330 15007,16333 15020,16335 15034,16338 15049,16340 15063,16342 15078,16344 15093,16346 15109,16348 15125,16350 15142,16352 15159,16354 15176,16355 15189,16356 15239,16262 15231,16251 15220,16238 15209,16225 15198,16212 15188,16200 15177,16188 15167,16177 15157,16165 15147,16155 15137,16144 15127,16134 15117,16124 15108,16115 15098,16105 15089,16097 15080,16088 15072,16080 15063,16072 15055,16064 15046,16057 15038,16050 15031,16044 15023,16037 15015,16031 15060,15936 15070,15938 15080,15940 15090,15942 15100,15944 15111,15946 15122,15947 15134,15949 15146,15951 15158,15952 15170,15954 15183,15955 15197,15957 15210,15958 15225,15959 15239,15960 15254,15961 15269,15962 15284,15963 15300,15963 15316,15964 15333,15964 15350,15964 15367,15964 15380,15964 15422,15865 15413,15856 15401,15843 15389,15831 15377,15820 15365,15809 15354,15798 15343,15787 15332,15777 15321,15767 15310,15757 15299,15748 15289,15739 15278,15731 15268,15722 15258,15714 15249,15706 15239,15699 15230,15692 15221,15685 15212,15679 15204,15672 15195,15666 15187,15661 15179,15655 15215,15557 15225,15558 15235,15559 15245,15560 15256,15561 15267,15562 15278,15563 15290,15563 15302,15564 15314,15564 15327,15565 15340,15565 15353,15565 15367,15565 15381,15565 15396,15565 15410,15565 15426,15564 15441,15564 15457,15563 15473,15562 15490,15561 15506,15560 15524,15558 15537,15557 15570,15455 15560,15446 15547,15435 15534,15424 15521,15413 15508,15403 15496,15393 15484,15384 15472,15374 15460,15366 15448,15357 15437,15349 15426,15341 15415,15333 15404,15326 15394,15318 15383,15312 15373,15305 15363,15299 15354,15293 15344,15287 15335,15282 15326,15276 15318,15271 15309,15266 15337,15166 15347,15166 15357,15166 15367,15166 15378,15166 15389,15166 15400,15166 15412,15165 15424,15165 15436,15164 15449,15164 15462,15163 15475,15162 15489,15161 15503,15159 15517,15158 15532,15156 15547,15155 15562,15153 15578,15150 15594,15148 15610,15146 15627,15143 15644,15140 15657,15138 15681,15033 15670,15025 15656,15015 15643,15005 15629,14996 15615,14987 15602,14978 15589,14970 15576,14961 15564,14954 15552,14946 15540,14939 15528,14932 15516,14925 15505,14919 15494,14912 15483,14907 15472,14901 15462,14895 15452,14890 15442,14885 15432,14881 15423,14876 15414,14872 15405,14868 15424,14765 15434,14765 15444,14764 15454,14763 15465,14762 15475,14761 15487,14760 15498,14758 15510,14757 15522,14755 15535,14753 15548,14751 15561,14749 15575,14747 15589,14744 15603,14742 15617,14739 15632,14736 15647,14732 15663,14729 15679,14725 15695,14721 15711,14717 15728,14713 15741,14709 15755,14603 15744,14596 15729,14587 15714,14579 15700,14571 15686,14563 15672,14555 15658,14548 15645,14541 15632,14534 15619,14528 15606,14521 15594,14516 15581,14510 15570,14504 15558,14499 15547,14494 15536,14490 15525,14485 15514,14481 15504,14477 15494,14473 15485,14469 15475,14466 15466,14463 15475,14359 15486,14357 15495,14356 15505,14354 15516,14352 15527,14350 15538,14348 15549,14345 15561,14343 15573,14340 15585,14337 15598,14334 15611,14331 15624,14327 15638,14324 15652,14320 15666,14316 15681,14311 15695,14307 15710,14302 15726,14297 15742,14291 15757,14286 15774,14280 15786,14275 15792,14168 15780,14162 15764,14155 15749,14148 15734,14141 15719,14134 15704,14128 15690,14122 15676,14116 15662,14110 15649,14105 15636,14100 15623,14095 15610,14091 15598,14086 15586,14082 15574,14078 15563,14074 15552,14071 15541,14068 15530,14064 15520,14061 15510,14059 15501,14056 15491,14054 15491,13949 Z"/><path d="M 7655,13969 L 7656,13888 7659,13807 7664,13727 7671,13648 7680,13569 7691,13491 7704,13413 7719,13336 7735,13260 7754,13184 7774,13110 7796,13035 7820,12962 7845,12890 7873,12818 7902,12747 7932,12677 7965,12608 7998,12540 8034,12473 8071,12406 8109,12341 8149,12277 8191,12214 8234,12152 8279,12091 8324,12031 8372,11972 8420,11915 8470,11858 8522,11803 8574,11749 8628,11697 8683,11645 8740,11595 8797,11547 8856,11499 8916,11453 8977,11409 9039,11366 9102,11324 9166,11284 9232,11246 9298,11209 9365,11173 9433,11139 9502,11107 9572,11077 9643,11048 9715,11020 9787,10995 9861,10971 9935,10949 10010,10929 10085,10910 10161,10894 10238,10879 10316,10866 10394,10855 10473,10846 10553,10839 10633,10834 10713,10831 10794,10830 10875,10831 10956,10834 11036,10839 11115,10846 11194,10855 11272,10866 11350,10879 11427,10894 11503,10910 11579,10929 11653,10949 11728,10971 11801,10995 11873,11020 11945,11048 12016,11077 12086,11107 12155,11139 12223,11173 12290,11209 12357,11246 12422,11284 12486,11324 12549,11366 12611,11409 12672,11453 12732,11499 12791,11547 12848,11595 12905,11645 12960,11697 13014,11749 13066,11803 13118,11858 13168,11915 13216,11972 13264,12031 13310,12091 13354,12152 13397,12214 13439,12277 13479,12341 13517,12406 13554,12473 13590,12540 13624,12608 13656,12677 13686,12747 13715,12818 13743,12890 13768,12962 13792,13035 13814,13110 13834,13184 13853,13260 13869,13336 13884,13413 13897,13491 13908,13569 13917,13648 13924,13727 13929,13807 13932,13888 13933,13969 13932,14050 13929,14130 13924,14210 13917,14290 13908,14369 13897,14447 13884,14525 13869,14602 13853,14678 13834,14753 13814,14828 13792,14902 13768,14976 13743,15048 13715,15120 13686,15191 13656,15261 13624,15330 13590,15398 13554,15465 13517,15531 13479,15597 13439,15661 13397,15724 13354,15786 13310,15847 13264,15907 13216,15966 13168,16023 13118,16080 13066,16135 13014,16189 12960,16241 12905,16293 12848,16343 12791,16391 12732,16439 12672,16484 12611,16529 12549,16572 12486,16614 12422,16654 12357,16692 12290,16729 12223,16765 12155,16798 12086,16831 12016,16861 11945,16890 11873,16918 11801,16943 11728,16967 11653,16989 11579,17009 11503,17028 11427,17044 11350,17059 11272,17072 11194,17083 11115,17092 11036,17099 10956,17104 10875,17107 10794,17108 10713,17107 10633,17104 10553,17099 10473,17092 10394,17083 10316,17072 10238,17059 10161,17044 10085,17028 10010,17009 9935,16989 9861,16967 9787,16943 9715,16918 9643,16890 9572,16861 9502,16831 9433,16798 9365,16765 9298,16729 9232,16692 9166,16654 9102,16614 9039,16572 8977,16529 8916,16484 8856,16439 8797,16391 8740,16343 8683,16293 8628,16241 8574,16189 8522,16135 8470,16080 8420,16023 8372,15966 8324,15907 8279,15847 8234,15786 8191,15724 8149,15661 8109,15597 8071,15531 8034,15465 7998,15398 7965,15330 7932,15261 7902,15191 7873,15120 7845,15048 7820,14976 7796,14902 7774,14828 7754,14753 7735,14678 7719,14602 7704,14525 7691,14447 7680,14369 7671,14290 7664,14210 7659,14130 7656,14050 7655,13969 Z"/><path style="fill:none" d="M 10794,10830 L 13933,13969"/><path style="fill:none" d="M 10794,10830 L 7655,13969"/><path style="fill:none" d="M 10794,17108 L 7655,13969"/><path d="M 9821,13969 L 9822,13919 9826,13869 9832,13821 9840,13773 9851,13726 9864,13680 9880,13634 9897,13590 9917,13547 9938,13505 9962,13464 9987,13425 10014,13387 10043,13350 10074,13315 10106,13281 10140,13249 10175,13218 10212,13189 10250,13162 10289,13137 10330,13113 10372,13092 10415,13072 10459,13055 10505,13039 10551,13026 10598,13015 10646,13007 10694,13001 10744,12997 10794,12996 10844,12997 10894,13001 10942,13007 10990,13015 11037,13026 11083,13039 11129,13055 11173,13072 11216,13092 11258,13113 11299,13137 11338,13162 11376,13189 11413,13218 11448,13249 11482,13281 11514,13315 11545,13350 11574,13387 11601,13425 11626,13464 11650,13505 11671,13547 11691,13590 11708,13634 11724,13680 11737,13726 11748,13773 11756,13821 11762,13869 11766,13919 11767,13969 11766,14019 11762,14069 11756,14117 11748,14165 11737,14212 11724,14258 11708,14304 11691,14348 11671,14391 11650,14433 11626,14474 11601,14513 11574,14551 11545,14588 11514,14623 11482,14657 11448,14689 11413,14720 11376,14749 11338,14776 11299,14801 11258,14825 11216,14846 11173,14866 11129,14883 11083,14899 11037,14912 10990,14923 10942,14931 10894,14937 10844,14941 10794,14942 10744,14941 10694,14937 10646,14931 10598,14923 10551,14912 10505,14899 10459,14883 10415,14866 10372,14846 10330,14825 10289,14801 10250,14776 10212,14749 10175,14720 10140,14689 10106,14657 10074,14623 10043,14588 10014,14551 9987,14513 9962,14474 9938,14433 9917,14391 9897,14348 9880,14304 9864,14258 9851,14212 9840,14165 9832,14117 9826,14069 9822,14019 9821,13969 Z"/><path d="M 11767,13969 L 11766,13919 11762,13869 11756,13821 11748,13773 11737,13726 11724,13680 11708,13634 11691,13590 11671,13547 11650,13505 11626,13464 11601,13425 11574,13387 11545,13350 11514,13315 11482,13281 11448,13249 11413,13218 11376,13189 11338,13162 11299,13137 11258,13113 11216,13092 11173,13072 11129,13055 11083,13039 11037,13026 10990,13015 10942,13007 10894,13001 10844,12997 10794,12996 10744,12997 10694,13001 10646,13007 10598,13015 10551,13026 10505,13039 10459,13055 10415,13072 10372,13092 10330,13113 10289,13137 10250,13162 10212,13189 10175,13218 10140,13249 10106,13281 10074,13315 10043,13350 10014,13387 9987,13425 9962,13464 9938,13505 9917,13547 9897,13590 9880,13634 9864,13680 9851,13726 9840,13773 9832,13821 9826,13869 9822,13919 9821,13969 9822,14019 9826,14069 9832,14117 9840,14165 9851,14212 9864,14258 9880,14304 9897,14348 9917,14391 9938,14433 9962,14474 9987,14513 10014,14551 10043,14588 10074,14623 10106,14657 10140,14689 10175,14720 10212,14749 10250,14776 10289,14801 10330,14825 10372,14846 10415,14866 10459,14883 10505,14899 10551,14912 10598,14923 10646,14931 10694,14937 10744,14941 10794,14942 10844,14941 10894,14937 10942,14931 10990,14923 11037,14912 11083,14899 11129,14883 11173,14866 11216,14846 11258,14825 11299,14801 11338,14776 11376,14749 11413,14720 11448,14689 11482,14657 11514,14623 11545,14588 11574,14551 11601,14513 11626,14474 11650,14433 11671,14391 11691,14348 11708,14304 11724,14258 11737,14212 11748,14165 11756,14117 11762,14069 11766,14019 11767,13969 Z"/><path d="M 9821,13969 L 9819,13919 9816,13869 9809,13821 9801,13773 9790,13726 9777,13680 9762,13634 9744,13590 9725,13547 9703,13505 9680,13464 9654,13425 9627,13387 9598,13350 9568,13315 9536,13281 9502,13249 9467,13218 9430,13189 9392,13162 9352,13137 9311,13113 9269,13092 9226,13072 9182,13055 9137,13039 9091,13026 9044,13015 8996,13007 8947,13001 8897,12997 8847,12996 8797,12997 8748,13001 8699,13007 8651,13015 8604,13026 8558,13039 8513,13055 8469,13072 8425,13092 8383,13113 8343,13137 8303,13162 8265,13189 8228,13218 8193,13249 8159,13281 8127,13315 8096,13350 8067,13387 8040,13425 8015,13464 7992,13505 7970,13547 7951,13590 7933,13634 7918,13680 7905,13726 7894,13773 7885,13821 7879,13869 7875,13919 7874,13969 7875,14019 7879,14069 7885,14117 7894,14165 7905,14212 7918,14258 7933,14304 7951,14348 7970,14391 7992,14433 8015,14474 8040,14513 8067,14551 8096,14588 8127,14623 8159,14657 8193,14689 8228,14720 8265,14749 8303,14776 8343,14801 8383,14825 8425,14846 8469,14866 8513,14883 8558,14899 8604,14912 8651,14923 8699,14931 8748,14937 8797,14941 8847,14942 8897,14941 8947,14937 8996,14931 9044,14923 9091,14912 9137,14899 9182,14883 9226,14866 9269,14846 9311,14825 9352,14801 9392,14776 9430,14749 9467,14720 9502,14689 9536,14657 9568,14623 9598,14588 9627,14551 9654,14513 9680,14474 9703,14433 9725,14391 9744,14348 9762,14304 9777,14258 9790,14212 9801,14165 9809,14117 9816,14069 9819,14019 9821,13969 Z"/><path d="M 9821,12022 L 9822,12072 9826,12122 9832,12171 9840,12219 9851,12266 9864,12312 9880,12357 9897,12401 9917,12444 9938,12486 9962,12527 9987,12567 10014,12605 10043,12642 10074,12677 10106,12711 10140,12743 10175,12773 10212,12802 10250,12829 10289,12855 10330,12878 10372,12900 10415,12919 10459,12937 10505,12952 10551,12965 10598,12976 10646,12984 10694,12991 10744,12994 10794,12996 10844,12994 10894,12991 10942,12984 10990,12976 11037,12965 11083,12952 11129,12937 11173,12919 11216,12900 11258,12878 11299,12855 11338,12829 11376,12802 11413,12773 11448,12743 11482,12711 11514,12677 11545,12642 11574,12605 11601,12567 11626,12527 11650,12486 11671,12444 11691,12401 11708,12357 11724,12312 11737,12266 11748,12219 11756,12171 11762,12122 11766,12072 11767,12022 11766,11972 11762,11923 11756,11874 11748,11826 11737,11779 11724,11733 11708,11688 11691,11644 11671,11600 11650,11558 11626,11518 11601,11478 11574,11440 11545,11403 11514,11368 11482,11334 11448,11302 11413,11271 11376,11242 11338,11215 11299,11190 11258,11167 11216,11145 11173,11126 11129,11108 11083,11093 11037,11080 10990,11069 10942,11060 10894,11054 10844,11050 10794,11049 10744,11050 10694,11054 10646,11060 10598,11069 10551,11080 10505,11093 10459,11108 10415,11126 10372,11145 10330,11167 10289,11190 10250,11215 10212,11242 10175,11271 10140,11302 10106,11334 10074,11368 10043,11403 10014,11440 9987,11478 9962,11518 9938,11558 9917,11600 9897,11644 9880,11688 9864,11733 9851,11779 9840,11826 9832,11874 9826,11923 9822,11972 9821,12022 Z"/><path d="M 13714,13969 L 13713,13919 13709,13869 13703,13821 13694,13773 13683,13726 13670,13680 13655,13634 13637,13590 13618,13547 13596,13505 13573,13464 13548,13425 13521,13387 13492,13350 13461,13315 13429,13281 13395,13249 13360,13218 13323,13189 13285,13162 13245,13137 13205,13113 13163,13092 13119,13072 13075,13055 13030,13039 12984,13026 12937,13015 12889,13007 12840,13001 12791,12997 12741,12996 12691,12997 12641,13001 12592,13007 12544,13015 12497,13026 12451,13039 12406,13055 12362,13072 12319,13092 12277,13113 12236,13137 12196,13162 12158,13189 12121,13218 12086,13249 12052,13281 12020,13315 11990,13350 11961,13387 11934,13425 11908,13464 11885,13505 11863,13547 11844,13590 11826,13634 11811,13680 11798,13726 11787,13773 11779,13821 11772,13869 11769,13919 11767,13969 11769,14019 11772,14069 11779,14117 11787,14165 11798,14212 11811,14258 11826,14304 11844,14348 11863,14391 11885,14433 11908,14474 11934,14513 11961,14551 11990,14588 12020,14623 12052,14657 12086,14689 12121,14720 12158,14749 12196,14776 12236,14801 12277,14825 12319,14846 12362,14866 12406,14883 12451,14899 12497,14912 12544,14923 12592,14931 12641,14937 12691,14941 12741,14942 12791,14941 12840,14937 12889,14931 12937,14923 12984,14912 13030,14899 13075,14883 13119,14866 13163,14846 13205,14825 13245,14801 13285,14776 13323,14749 13360,14720 13395,14689 13429,14657 13461,14623 13492,14588 13521,14551 13548,14513 13573,14474 13596,14433 13618,14391 13637,14348 13655,14304 13670,14258 13683,14212 13694,14165 13703,14117 13709,14069 13713,14019 13714,13969 Z"/><path d="M 9821,15916 L 9822,15966 9826,16015 9832,16064 9840,16112 9851,16159 9864,16205 9880,16250 9897,16294 9917,16338 9938,16380 9962,16420 9987,16460 10014,16498 10043,16535 10074,16570 10106,16604 10140,16636 10175,16667 10212,16696 10250,16723 10289,16748 10330,16771 10372,16793 10415,16812 10459,16830 10505,16845 10551,16858 10598,16869 10646,16878 10694,16884 10744,16888 10794,16889 10844,16888 10894,16884 10942,16878 10990,16869 11037,16858 11083,16845 11129,16830 11173,16812 11216,16793 11258,16771 11299,16748 11338,16723 11376,16696 11413,16667 11448,16636 11482,16604 11514,16570 11545,16535 11574,16498 11601,16460 11626,16420 11650,16380 11671,16338 11691,16294 11708,16250 11724,16205 11737,16159 11748,16112 11756,16064 11762,16015 11766,15966 11767,15916 11766,15866 11762,15816 11756,15767 11748,15719 11737,15672 11724,15626 11708,15581 11691,15537 11671,15494 11650,15452 11626,15411 11601,15371 11574,15333 11545,15296 11514,15261 11482,15227 11448,15195 11413,15165 11376,15136 11338,15109 11299,15083 11258,15060 11216,15038 11173,15019 11129,15001 11083,14986 11037,14973 10990,14962 10942,14954 10894,14947 10844,14944 10794,14942 10744,14944 10694,14947 10646,14954 10598,14962 10551,14973 10505,14986 10459,15001 10415,15019 10372,15038 10330,15060 10289,15083 10250,15109 10212,15136 10175,15165 10140,15195 10106,15227 10074,15261 10043,15296 10014,15333 9987,15371 9962,15411 9938,15452 9917,15494 9897,15537 9880,15581 9864,15626 9851,15672 9840,15719 9832,15767 9826,15816 9822,15866 9821,15916 Z"/><path d="M 11767,12022 L 11766,12072 11762,12122 11756,12171 11748,12219 11737,12266 11724,12312 11708,12357 11691,12401 11671,12444 11650,12486 11626,12527 11601,12567 11574,12605 11545,12642 11514,12677 11482,12711 11448,12743 11413,12773 11376,12802 11338,12829 11299,12855 11258,12878 11216,12900 11173,12919 11129,12937 11083,12952 11037,12965 10990,12976 10942,12984 10894,12991 10844,12994 10794,12996 10744,12994 10694,12991 10646,12984 10598,12976 10551,12965 10505,12952 10459,12937 10415,12919 10372,12900 10330,12878 10289,12855 10250,12829 10212,12802 10175,12773 10140,12743 10106,12711 10074,12677 10043,12642 10014,12605 9987,12567 9962,12527 9938,12486 9917,12444 9897,12401 9880,12357 9864,12312 9851,12266 9840,12219 9832,12171 9826,12122 9822,12072 9821,12022 9822,11972 9826,11923 9832,11874 9840,11826 9851,11779 9864,11733 9880,11688 9897,11644 9917,11600 9938,11558 9962,11518 9987,11478 10014,11440 10043,11403 10074,11368 10106,11334 10140,11302 10175,11271 10212,11242 10250,11215 10289,11190 10330,11167 10372,11145 10415,11126 10459,11108 10505,11093 10551,11080 10598,11069 10646,11060 10694,11054 10744,11050 10794,11049 10844,11050 10894,11054 10942,11060 10990,11069 11037,11080 11083,11093 11129,11108 11173,11126 11216,11145 11258,11167 11299,11190 11338,11215 11376,11242 11413,11271 11448,11302 11482,11334 11514,11368 11545,11403 11574,11440 11601,11478 11626,11518 11650,11558 11671,11600 11691,11644 11708,11688 11724,11733 11737,11779 11748,11826 11756,11874 11762,11923 11766,11972 11767,12022 Z"/><path d="M 7874,13969 L 7875,13919 7879,13869 7885,13821 7894,13773 7905,13726 7918,13680 7933,13634 7951,13590 7970,13547 7992,13505 8015,13464 8040,13425 8067,13387 8096,13350 8127,13315 8159,13281 8193,13249 8228,13218 8265,13189 8303,13162 8343,13137 8383,13113 8425,13092 8469,13072 8513,13055 8558,13039 8604,13026 8651,13015 8699,13007 8748,13001 8797,12997 8847,12996 8897,12997 8947,13001 8996,13007 9044,13015 9091,13026 9137,13039 9182,13055 9226,13072 9269,13092 9311,13113 9352,13137 9392,13162 9430,13189 9467,13218 9502,13249 9536,13281 9568,13315 9598,13350 9627,13387 9654,13425 9680,13464 9703,13505 9725,13547 9744,13590 9762,13634 9777,13680 9790,13726 9801,13773 9809,13821 9816,13869 9819,13919 9821,13969 9819,14019 9816,14069 9809,14117 9801,14165 9790,14212 9777,14258 9762,14304 9744,14348 9725,14391 9703,14433 9680,14474 9654,14513 9627,14551 9598,14588 9568,14623 9536,14657 9502,14689 9467,14720 9430,14749 9392,14776 9352,14801 9311,14825 9269,14846 9226,14866 9182,14883 9137,14899 9091,14912 9044,14923 8996,14931 8947,14937 8897,14941 8847,14942 8797,14941 8748,14937 8699,14931 8651,14923 8604,14912 8558,14899 8513,14883 8469,14866 8425,14846 8383,14825 8343,14801 8303,14776 8265,14749 8228,14720 8193,14689 8159,14657 8127,14623 8096,14588 8067,14551 8040,14513 8015,14474 7992,14433 7970,14391 7951,14348 7933,14304 7918,14258 7905,14212 7894,14165 7885,14117 7879,14069 7875,14019 7874,13969 Z"/><path d="M 11767,15916 L 11766,15966 11762,16015 11756,16064 11748,16112 11737,16159 11724,16205 11708,16250 11691,16294 11671,16338 11650,16380 11626,16420 11601,16460 11574,16498 11545,16535 11514,16570 11482,16604 11448,16636 11413,16667 11376,16696 11338,16723 11299,16748 11258,16771 11216,16793 11173,16812 11129,16830 11083,16845 11037,16858 10990,16869 10942,16878 10894,16884 10844,16888 10794,16889 10744,16888 10694,16884 10646,16878 10598,16869 10551,16858 10505,16845 10459,16830 10415,16812 10372,16793 10330,16771 10289,16748 10250,16723 10212,16696 10175,16667 10140,16636 10106,16604 10074,16570 10043,16535 10014,16498 9987,16460 9962,16420 9938,16380 9917,16338 9897,16294 9880,16250 9864,16205 9851,16159 9840,16112 9832,16064 9826,16015 9822,15966 9821,15916 9822,15866 9826,15816 9832,15767 9840,15719 9851,15672 9864,15626 9880,15581 9897,15537 9917,15494 9938,15452 9962,15411 9987,15371 10014,15333 10043,15296 10074,15261 10106,15227 10140,15195 10175,15165 10212,15136 10250,15109 10289,15083 10330,15060 10372,15038 10415,15019 10459,15001 10505,14986 10551,14973 10598,14962 10646,14954 10694,14947 10744,14944 10794,14942 10844,14944 10894,14947 10942,14954 10990,14962 11037,14973 11083,14986 11129,15001 11173,15019 11216,15038 11258,15060 11299,15083 11338,15109 11376,15136 11413,15165 11448,15195 11482,15227 11514,15261 11545,15296 11574,15333 11601,15371 11626,15411 11650,15452 11671,15494 11691,15537 11708,15581 11724,15626 11737,15672 11748,15719 11756,15767 11762,15816 11766,15866 11767,15916 Z"/><path d="M 11767,13969 L 11769,13919 11772,13869 11779,13821 11787,13773 11798,13726 11811,13680 11826,13634 11844,13590 11863,13547 11885,13505 11908,13464 11934,13425 11961,13387 11990,13350 12020,13315 12052,13281 12086,13249 12121,13218 12158,13189 12196,13162 12236,13137 12277,13113 12319,13092 12362,13072 12406,13055 12451,13039 12497,13026 12544,13015 12592,13007 12641,13001 12691,12997 12741,12996 12791,12997 12840,13001 12889,13007 12937,13015 12984,13026 13030,13039 13075,13055 13119,13072 13163,13092 13205,13113 13245,13137 13285,13162 13323,13189 13360,13218 13395,13249 13429,13281 13461,13315 13492,13350 13521,13387 13548,13425 13573,13464 13596,13505 13618,13547 13637,13590 13655,13634 13670,13680 13683,13726 13694,13773 13703,13821 13709,13869 13713,13919 13714,13969 13713,14019 13709,14069 13703,14117 13694,14165 13683,14212 13670,14258 13655,14304 13637,14348 13618,14391 13596,14433 13573,14474 13548,14513 13521,14551 13492,14588 13461,14623 13429,14657 13395,14689 13360,14720 13323,14749 13285,14776 13245,14801 13205,14825 13163,14846 13119,14866 13075,14883 13030,14899 12984,14912 12937,14923 12889,14931 12840,14937 12791,14941 12741,14942 12691,14941 12641,14937 12592,14931 12544,14923 12497,14912 12451,14899 12406,14883 12362,14866 12319,14846 12277,14825 12236,14801 12196,14776 12158,14749 12121,14720 12086,14689 12052,14657 12020,14623 11990,14588 11961,14551 11934,14513 11908,14474 11885,14433 11863,14391 11844,14348 11826,14304 11811,14258 11798,14212 11787,14165 11779,14117 11772,14069 11769,14019 11767,13969 Z"/><path d="M 10575,13385 L 10576,13363 10580,13341 10585,13320 10592,13300 10601,13281 10612,13263 10625,13246 10639,13230 10655,13216 10672,13203 10690,13192 10709,13183 10729,13176 10750,13170 10772,13167 10794,13166 10816,13167 10838,13170 10859,13176 10879,13183 10898,13192 10916,13203 10933,13216 10949,13230 10963,13246 10976,13263 10987,13281 10996,13300 11003,13320 11009,13341 11012,13363 11013,13385 11012,13407 11009,13429 11003,13450 10996,13470 10987,13489 10976,13507 10963,13524 10949,13540 10933,13554 10916,13567 10898,13578 10879,13587 10859,13594 10838,13600 10816,13603 10794,13604 10772,13603 10750,13600 10729,13594 10709,13587 10690,13578 10672,13567 10655,13554 10639,13540 10625,13524 10612,13507 10601,13489 10592,13470 10585,13450 10580,13429 10576,13407 10575,13385 Z"/><path d="M 10575,14553 L 10576,14531 10580,14509 10585,14488 10592,14468 10601,14449 10612,14430 10625,14414 10639,14398 10655,14384 10672,14371 10690,14360 10709,14351 10729,14344 10750,14338 10772,14335 10794,14334 10816,14335 10838,14338 10859,14344 10879,14351 10898,14360 10916,14371 10933,14384 10949,14398 10963,14414 10976,14430 10987,14449 10996,14468 11003,14488 11009,14509 11012,14531 11013,14553 11012,14575 11009,14597 11003,14618 10996,14638 10987,14657 10976,14675 10963,14692 10949,14708 10933,14722 10916,14735 10898,14745 10879,14755 10859,14762 10838,14767 10816,14771 10794,14772 10772,14771 10750,14767 10729,14762 10709,14755 10690,14745 10672,14735 10655,14722 10639,14708 10625,14692 10612,14675 10601,14657 10592,14638 10585,14618 10580,14597 10576,14575 10575,14553 Z"/><path d="M 10704,12022 L 10704,12013 10705,12004 10708,11996 10711,11987 10714,11979 10719,11972 10724,11965 10730,11958 10736,11953 10743,11947 10751,11943 10759,11939 10767,11936 10776,11934 10785,11932 10794,11932 10803,11932 10812,11934 10821,11936 10829,11939 10837,11943 10845,11947 10852,11953 10858,11958 10864,11965 10869,11972 10874,11979 10877,11987 10880,11996 10883,12004 10884,12013 10885,12022 10884,12032 10883,12041 10880,12049 10877,12058 10874,12066 10869,12073 10864,12080 10858,12086 10852,12092 10845,12098 10837,12102 10829,12106 10821,12109 10812,12111 10803,12112 10794,12113 10785,12112 10776,12111 10767,12109 10759,12106 10751,12102 10743,12098 10736,12092 10730,12086 10724,12080 10719,12073 10714,12066 10711,12058 10708,12049 10705,12041 10704,12032 10704,12022 Z"/><path d="M 12650,13969 L 12651,13960 12652,13951 12654,13942 12657,13934 12661,13926 12665,13918 12671,13911 12677,13905 12683,13899 12690,13894 12697,13889 12705,13886 12714,13883 12722,13880 12731,13879 12741,13878 12750,13879 12759,13880 12767,13883 12776,13886 12784,13889 12791,13894 12798,13899 12805,13905 12810,13911 12816,13918 12820,13926 12824,13934 12827,13942 12829,13951 12831,13960 12831,13969 12831,13978 12829,13987 12827,13996 12824,14004 12820,14012 12816,14020 12810,14027 12805,14033 12798,14039 12791,14044 12784,14049 12776,14052 12767,14055 12759,14058 12750,14059 12741,14059 12731,14059 12722,14058 12714,14055 12705,14052 12697,14049 12690,14044 12683,14039 12677,14033 12671,14027 12665,14020 12661,14012 12657,14004 12654,13996 12652,13987 12651,13978 12650,13969 Z"/><path d="M 10704,15916 L 10704,15925 10705,15934 10708,15943 10711,15951 10714,15959 10719,15966 10724,15973 10730,15980 10736,15985 10743,15991 10751,15995 10759,15999 10767,16002 10776,16004 10785,16006 10794,16006 10803,16006 10812,16004 10821,16002 10829,15999 10837,15995 10845,15991 10852,15985 10858,15980 10864,15973 10869,15966 10874,15959 10877,15951 10880,15943 10883,15934 10884,15925 10885,15916 10884,15906 10883,15897 10880,15889 10877,15880 10874,15873 10869,15865 10864,15858 10858,15852 10852,15846 10845,15841 10837,15836 10829,15832 10821,15829 10812,15827 10803,15826 10794,15825 10785,15826 10776,15827 10767,15829 10759,15832 10751,15836 10743,15841 10736,15846 10730,15852 10724,15858 10719,15865 10714,15873 10711,15880 10708,15889 10705,15897 10704,15906 10704,15916 Z"/><path d="M 10152,13966 L 10154,13955 10157,13944 10162,13934 10169,13926 10178,13919 10188,13913 10198,13910 10210,13909 10222,13910 10232,13913 10242,13919 10251,13926 10258,13934 10263,13944 10266,13955 10268,13966 10266,13978 10263,13989 10258,13999 10251,14007 10242,14014 10232,14019 10222,14023 10210,14024 10198,14023 10188,14019 10178,14014 10169,14007 10162,13999 10157,13989 10154,13978 10152,13966 Z"/><path d="M 11320,13972 L 11322,13960 11325,13949 11330,13939 11337,13931 11346,13924 11356,13919 11366,13915 11378,13914 11390,13915 11400,13919 11410,13924 11419,13931 11426,13939 11431,13949 11434,13960 11436,13972 11434,13983 11431,13994 11426,14004 11419,14012 11410,14019 11400,14025 11390,14028 11378,14029 11366,14028 11356,14025 11346,14019 11337,14012 11330,14004 11325,13994 11322,13983 11320,13972 Z"/><path d="M 8938,13969 L 8937,13960 8936,13951 8934,13942 8931,13934 8927,13926 8922,13918 8917,13911 8911,13905 8905,13899 8898,13894 8890,13889 8883,13886 8874,13883 8866,13880 8857,13879 8847,13878 8838,13879 8829,13880 8820,13883 8812,13886 8804,13889 8797,13894 8790,13899 8783,13905 8778,13911 8772,13918 8768,13926 8764,13934 8761,13942 8759,13951 8757,13960 8757,13969 8757,13978 8759,13987 8761,13996 8764,14004 8768,14012 8772,14020 8778,14027 8783,14033 8790,14039 8797,14044 8804,14049 8812,14052 8820,14055 8829,14058 8838,14059 8847,14059 8857,14059 8866,14058 8874,14055 8883,14052 8890,14049 8898,14044 8905,14039 8911,14033 8917,14027 8922,14020 8927,14012 8931,14004 8934,13996 8936,13987 8937,13978 8938,13969 Z"/><path d="M 10716,13385 L 10717,13377 10718,13369 10720,13362 10722,13355 10726,13348 10729,13341 10739,13330 10751,13320 10757,13317 10764,13313 10771,13311 10778,13309 10786,13308 10794,13307 10802,13308 10810,13309 10817,13311 10824,13313 10831,13317 10838,13320 10849,13330 10859,13341 10863,13348 10866,13355 10868,13362 10870,13369 10872,13377 10872,13385 10872,13393 10870,13401 10868,13408 10866,13415 10863,13422 10859,13429 10849,13440 10838,13450 10831,13453 10824,13457 10817,13459 10810,13461 10802,13462 10794,13463 10786,13462 10778,13461 10771,13459 10764,13457 10757,13453 10751,13450 10739,13440 10729,13429 10726,13422 10722,13415 10720,13408 10718,13401 10717,13393 10716,13385 Z"/><path d="M 10716,14553 L 10717,14545 10718,14537 10720,14530 10722,14523 10726,14516 10729,14509 10739,14498 10751,14488 10757,14484 10764,14481 10771,14479 10778,14477 10786,14475 10794,14475 10802,14475 10810,14477 10817,14479 10824,14481 10831,14484 10838,14488 10849,14498 10859,14509 10863,14516 10866,14523 10868,14530 10870,14537 10872,14545 10872,14553 10872,14561 10870,14569 10868,14576 10866,14583 10863,14590 10859,14596 10849,14608 10838,14618 10831,14621 10824,14625 10817,14627 10810,14629 10802,14630 10794,14631 10786,14630 10778,14629 10771,14627 10764,14625 10757,14621 10751,14618 10739,14608 10729,14596 10726,14590 10722,14583 10720,14576 10718,14569 10717,14561 10716,14553 Z"/><path d="M 10663,13969 L 10663,13956 10665,13942 10669,13930 10673,13918 10679,13906 10685,13895 10693,13885 10701,13876 10710,13868 10721,13860 10731,13853 10743,13848 10755,13843 10768,13840 10781,13838 10794,13838 10807,13838 10821,13840 10833,13843 10845,13848 10857,13853 10868,13860 10878,13868 10887,13876 10895,13885 10903,13895 10910,13906 10915,13918 10920,13930 10923,13942 10925,13956 10925,13969 10925,13982 10923,13995 10920,14008 10915,14020 10910,14032 10903,14042 10895,14053 10887,14062 10878,14070 10868,14078 10857,14084 10845,14090 10833,14094 10821,14098 10807,14100 10794,14100 10781,14100 10768,14098 10755,14094 10743,14090 10731,14084 10721,14078 10710,14070 10701,14062 10693,14053 10685,14042 10679,14032 10673,14020 10669,14008 10665,13995 10663,13982 10663,13969 Z"/></g></g></g></g></svg>