<?xml version="1.0" encoding="UTF-8"?>
<!DOCTYPE svg PUBLIC "-//W3C//DTD SVG 1.1//EN" "http://www.w3.org/Graphics/SVG/1.1/DTD/svg11.dtd"><svg version="1.1" viewBox="0 0 21590 27940" preserveAspectRatio="xMidYMid" fill-rule="evenodd" xmlns="http://www.w3.org/2000/svg" xmlns:xlink="http://www.w3.org/1999/xlink"><g visibility="visible" id="Default"><desc>Master slide</desc><g style="stroke:none;fill:none"><rect x="0" y="0" width="21590" height="27940"/></g></g><g visibility="visible" id="page1"><desc>Slide</desc><g><desc>Graphic</desc><g><g style="stroke:rgb(255,0,0);fill:none"><path d="M 13781,14067 L 14677,14067 14692,14066 14706,14065 14720,14063 14736,14060 14754,14057 14768,14054 14783,14050 14799,14046 14816,14042 14834,14037 14854,14031 14874,14024 14895,14017 14917,14009 14940,14000 14964,13990 14977,13985 14989,13980 15002,13974 15015,13968 15029,13962 15042,13956 15056,13949 15070,13942 15084,13935 15098,13928 15112,13920 15127,13912 15142,13904 15157,13896 15172,13887 15188,13878 15203,13869 15219,13859 15235,13849 15251,13839 15267,13829 15284,13818 15300,13807 15317,13795 15334,13784 15351,13772 15368,13759 15385,13747 15403,13734 15420,13720 15438,13707 15455,13693 15473,13679 15491,13664 15509,13649 15527,13634 15546,13618 15564,13602 15582,13585 15601,13569 15619,13552 15638,13534 15656,13516 15675,13498 15694,13479 15713,13460 15732,13441 15750,13421 15769,13401 15794,13374 15696,12865 15663,12849 15638,12837 15614,12826 15589,12815 15564,12804 15540,12794 15516,12784 15492,12774 15468,12765 15445,12756 15421,12747 15398,12739 15375,12731 15353,12723 15330,12715 15308,12708 15286,12701 15264,12694 15242,12688 15221,12682 15200,12676 15179,12670 15158,12665 15138,12660 15117,12655 15097,12650 15078,12646 15058,12642 15039,12638 15020,12634 15001,12631 14983,12627 14965,12624 14947,12621 14929,12619 14912,12616 14895,12614 14878,12612 14861,12610 14845,12608 14829,12607 14813,12605 14798,12604 14783,12603 14768,12602 14753,12601 14739,12601 14725,12600 14711,12600 14698,12600 14672,12599 14647,12600 14623,12600 14601,12602 14580,12603 14560,12605 14541,12606 14523,12608 14507,12611 14492,12613 14478,12615 14459,12619 14443,12623 14430,12626 14416,12630 14402,12634 13569,12966 13084,12153 13771,11577 13782,11567 13791,11557 13801,11547 13811,11534 13823,11520 13832,11508 13841,11496 13851,11483 13861,11468 13872,11453 13883,11436 13894,11418 13905,11399 13917,11378 13929,11356 13941,11334 13948,11322 13954,11309 13960,11297 13966,11284 13972,11271 13979,11257 13985,11243 13991,11229 13997,11215 14004,11200 14010,11185 14016,11169 14022,11153 14028,11137 14034,11121 14040,11104 14046,11087 14052,11069 14058,11052 14064,11033 14070,11015 14075,10996 14081,10977 14086,10958 14092,10938 14097,10918 14102,10897 14107,10876 14112,10855 14117,10834 14122,10812 14126,10790 14131,10768 14135,10745 14139,10722 14143,10698 14147,10675 14151,10651 14154,10626 14158,10602 14161,10577 14164,10551 14167,10526 14169,10500 14172,10473 14174,10447 14176,10420 14178,10393 14179,10365 14181,10329 13779,10001 13743,10010 13717,10017 13690,10024 13664,10032 13639,10039 13614,10047 13589,10055 13564,10063 13540,10071 13516,10079 13492,10087 13469,10096 13447,10104 13424,10113 13402,10122 13380,10130 13359,10139 13338,10148 13317,10157 13297,10166 13277,10175 13257,10184 13238,10194 13219,10203 13200,10212 13182,10221 13164,10231 13146,10240 13129,10249 13112,10259 13096,10268 13079,10278 13063,10287 13048,10296 13033,10306 13018,10315 13003,10324 12989,10333 12975,10342 12962,10352 12948,10361 12935,10370 12923,10379 12910,10388 12898,10397 12887,10405 12875,10414 12864,10423 12854,10431 12843,10440 12823,10456 12804,10472 12787,10488 12770,10503 12755,10518 12741,10532 12728,10546 12715,10558 12704,10571 12694,10582 12685,10593 12673,10608 12663,10621 12655,10632 12647,10644 12639,10656 12214,11446 11320,11135 11476,10252 11478,10238 11479,10223 11479,10210 11479,10193 11479,10174 11479,10160 11478,10145 11477,10128 11475,10111 11473,10092 11471,10072 11468,10051 11464,10029 11460,10006 11455,9981 11450,9956 11447,9943 11444,9929 11441,9916 11437,9902 11433,9888 11429,9874 11425,9859 11421,9844 11416,9829 11412,9814 11407,9798 11401,9782 11396,9766 11390,9750 11384,9733 11378,9716 11372,9700 11365,9682 11358,9665 11351,9647 11343,9630 11336,9611 11328,9593 11319,9575 11311,9556 11302,9537 11293,9518 11283,9499 11273,9480 11263,9460 11253,9441 11242,9421 11231,9401 11220,9380 11208,9360 11196,9340 11184,9319 11172,9298 11159,9277 11145,9256 11132,9235 11118,9214 11103,9192 11089,9171 11074,9149 11058,9127 11042,9105 11026,9083 11010,9061 10988,9032 10469,9040 10447,9069 10432,9092 10416,9114 10401,9137 10386,9159 10372,9181 10358,9203 10344,9225 10331,9247 10318,9268 10305,9290 10293,9311 10281,9332 10269,9353 10258,9374 10247,9395 10236,9416 10226,9436 10216,9456 10206,9476 10196,9496 10187,9516 10178,9535 10170,9554 10161,9573 10153,9592 10146,9611 10138,9629 10131,9648 10124,9666 10117,9683 10111,9701 10105,9718 10099,9736 10093,9752 10088,9769 10082,9786 10077,9802 10073,9818 10068,9834 10064,9849 10060,9864 10056,9879 10052,9894 10049,9909 10045,9923 10042,9937 10039,9950 10037,9964 10034,9977 10029,10003 10025,10027 10022,10050 10019,10073 10017,10094 10015,10114 10014,10133 10013,10150 10012,10167 10012,10182 10012,10196 10012,10215 10013,10232 10013,10245 10015,10259 10017,10274 10199,11152 9315,11489 8866,10712 8858,10700 8850,10689 8841,10678 8831,10665 8819,10651 8809,10640 8799,10629 8787,10617 8775,10605 8761,10591 8746,10578 8731,10564 8714,10549 8696,10534 8676,10518 8656,10502 8645,10494 8634,10486 8623,10477 8611,10469 8599,10461 8587,10452 8575,10444 8562,10435 8549,10426 8535,10418 8521,10409 8507,10400 8493,10391 8478,10383 8463,10374 8447,10365 8431,10356 8415,10347 8399,10338 8382,10329 8364,10321 8347,10312 8329,10303 8311,10294 8292,10285 8273,10277 8254,10268 8235,10259 8215,10251 8194,10242 8174,10234 8153,10226 8132,10217 8110,10209 8088,10201 8066,10193 8043,10185 8020,10177 7996,10169 7973,10162 7949,10154 7924,10147 7899,10140 7874,10133 7849,10126 7823,10119 7797,10112 7770,10106 7743,10099 7708,10092 7315,10431 7318,10467 7321,10495 7323,10522 7326,10549 7329,10575 7332,10602 7335,10627 7339,10653 7343,10678 7347,10703 7351,10728 7355,10752 7360,10776 7364,10800 7369,10823 7374,10846 7379,10868 7384,10891 7389,10913 7394,10934 7400,10956 7406,10976 7411,10997 7417,11017 7423,11037 7429,11057 7435,11076 7441,11095 7447,11114 7454,11132 7460,11150 7466,11168 7473,11185 7479,11202 7486,11218 7492,11235 7499,11251 7506,11266 7512,11282 7519,11297 7525,11311 7532,11325 7539,11339 7545,11353 7552,11366 7559,11379 7565,11392 7572,11405 7578,11417 7585,11428 7598,11451 7610,11472 7623,11492 7635,11511 7647,11529 7658,11545 7669,11561 7680,11575 7690,11588 7699,11600 7708,11611 7721,11625 7732,11637 7742,11647 7752,11657 7763,11667 8466,12222 8005,13049 7163,12742 7149,12738 7135,12735 7122,12732 7106,12729 7087,12726 7073,12724 7058,12722 7041,12720 7023,12719 7005,12717 6985,12716 6963,12715 6941,12715 6917,12715 6893,12715 6867,12716 6853,12717 6840,12718 6826,12719 6811,12720 6797,12721 6782,12722 6767,12724 6751,12726 6736,12727 6720,12729 6704,12732 6687,12734 6670,12737 6653,12739 6636,12742 6618,12746 6601,12749 6582,12753 6564,12756 6546,12760 6527,12765 6508,12769 6488,12774 6469,12779 6449,12784 6429,12790 6408,12795 6388,12801 6367,12808 6346,12814 6325,12821 6304,12828 6282,12835 6260,12843 6238,12851 6216,12859 6193,12868 6171,12876 6148,12886 6125,12895 6101,12905 6078,12915 6054,12925 6030,12936 6006,12947 5982,12958 5958,12970 5933,12982 5909,12995 5876,13011 5794,13524 5819,13550 5839,13569 5858,13588 5878,13607 5897,13626 5916,13644 5936,13661 5955,13679 5974,13695 5993,13712 6012,13728 6031,13744 6050,13760 6068,13775 6087,13789 6105,13804 6124,13818 6142,13832 6160,13845 6178,13858 6196,13871 6214,13884 6231,13896 6249,13908 6266,13919 6283,13930 6300,13941 6317,13952 6334,13962 6351,13972 6367,13982 6383,13991 6399,14000 6415,14009 6431,14017 6446,14026 6462,14034 6477,14041 6492,14049 6506,14056 6521,14063 6535,14070 6549,14076 6563,14082 6577,14088 6590,14094 6603,14099 6616,14105 6629,14110 6642,14114 6666,14123 6689,14132 6712,14139 6733,14146 6754,14152 6773,14157 6791,14162 6808,14166 6825,14169 6840,14172 6854,14175 6872,14178 6889,14180 6902,14181 6916,14182 6931,14183 7827,14156 8005,15086 7163,15392 7149,15398 7137,15404 7125,15411 7110,15419 7094,15428 7082,15436 7069,15444 7055,15454 7041,15464 7026,15475 7010,15487 6993,15500 6975,15514 6957,15529 6939,15545 6919,15563 6909,15572 6899,15581 6889,15591 6879,15601 6869,15611 6858,15622 6848,15633 6837,15644 6826,15655 6815,15667 6804,15679 6793,15692 6782,15705 6771,15718 6759,15731 6748,15745 6736,15759 6725,15773 6713,15788 6702,15803 6690,15818 6678,15834 6666,15850 6655,15866 6643,15883 6631,15900 6619,15918 6607,15936 6595,15954 6583,15972 6572,15991 6560,16010 6548,16030 6536,16050 6524,16070 6512,16091 6501,16112 6489,16133 6477,16155 6466,16177 6454,16199 6443,16222 6431,16245 6420,16268 6409,16292 6397,16317 6386,16341 6375,16366 6364,16392 6350,16425 6617,16871 6653,16874 6680,16877 6707,16879 6734,16881 6761,16882 6787,16884 6814,16885 6839,16886 6865,16887 6890,16887 6915,16887 6940,16887 6964,16887 6988,16887 7012,16886 7035,16885 7058,16884 7081,16883 7104,16882 7126,16880 7148,16879 7169,16877 7191,16875 7212,16872 7232,16870 7253,16868 7273,16865 7292,16862 7312,16859 7331,16856 7350,16853 7368,16850 7386,16847 7404,16843 7422,16840 7439,16836 7456,16832 7472,16828 7488,16825 7504,16821 7520,16817 7535,16813 7550,16808 7565,16804 7579,16800 7593,16796 7607,16791 7620,16787 7633,16783 7646,16778 7670,16770 7693,16761 7715,16752 7736,16744 7755,16735 7773,16727 7790,16718 7806,16710 7821,16703 7834,16695 7847,16688 7863,16679 7877,16670 7888,16662 7900,16654 7911,16645 8581,16048 9315,16646 8866,17422 8860,17435 8854,17448 8849,17461 8843,17476 8837,17494 8832,17508 8828,17522 8823,17538 8819,17555 8814,17574 8810,17593 8805,17614 8801,17636 8797,17659 8793,17684 8789,17709 8788,17723 8786,17736 8784,17750 8783,17765 8782,17779 8780,17794 8779,17809 8778,17825 8777,17840 8777,17856 8776,17873 8776,17889 8775,17906 8775,17924 8775,17941 8775,17959 8775,17977 8776,17996 8776,18014 8777,18033 8778,18053 8779,18072 8780,18092 8782,18112 8783,18133 8785,18153 8787,18174 8790,18196 8792,18217 8795,18239 8798,18261 8801,18283 8805,18306 8809,18329 8813,18352 8817,18375 8821,18399 8826,18423 8831,18447 8836,18471 8842,18496 8848,18521 8854,18546 8860,18571 8867,18597 8874,18622 8881,18648 8889,18675 8897,18701 8908,18736 9398,18906 9428,18885 9451,18870 9473,18854 9495,18838 9516,18822 9537,18806 9558,18790 9578,18774 9598,18759 9618,18743 9637,18727 9656,18711 9675,18695 9693,18679 9711,18664 9728,18648 9745,18632 9762,18617 9778,18601 9794,18586 9810,18570 9825,18555 9840,18540 9855,18525 9869,18510 9883,18495 9897,18480 9910,18465 9923,18450 9936,18436 9948,18421 9960,18407 9972,18393 9984,18379 9995,18365 10006,18351 10016,18337 10026,18324 10036,18310 10046,18297 10055,18284 10064,18271 10073,18258 10082,18246 10090,18233 10098,18221 10105,18209 10113,18197 10120,18185 10127,18174 10140,18151 10152,18130 10163,18109 10174,18089 10183,18070 10192,18052 10199,18035 10206,18018 10213,18003 10218,17989 10223,17976 10229,17958 10234,17942 10238,17929 10242,17915 10245,17901 10374,17014 11320,16999 11476,17882 11479,17897 11483,17910 11487,17923 11493,17939 11500,17957 11505,17970 11511,17984 11518,17999 11525,18015 11533,18032 11542,18050 11552,18069 11563,18088 11575,18109 11588,18130 11602,18152 11609,18163 11616,18175 11624,18186 11632,18198 11641,18210 11649,18222 11658,18235 11667,18247 11677,18260 11686,18273 11696,18285 11707,18299 11717,18312 11728,18325 11739,18339 11751,18352 11763,18366 11775,18380 11788,18394 11800,18408 11813,18422 11827,18436 11841,18451 11855,18465 11869,18480 11884,18494 11899,18509 11914,18524 11930,18539 11946,18554 11963,18569 11980,18584 11997,18599 12014,18614 12032,18629 12051,18644 12069,18660 12088,18675 12108,18690 12127,18705 12147,18721 12168,18736 12189,18751 12210,18766 12231,18782 12253,18797 12276,18812 12298,18827 12321,18842 12352,18862 12837,18677 12847,18642 12854,18615 12861,18589 12867,18563 12874,18537 12880,18511 12885,18486 12891,18460 12896,18435 12901,18411 12905,18386 12910,18362 12914,18338 12917,18314 12921,18291 12924,18267 12927,18244 12930,18222 12933,18199 12935,18177 12937,18155 12939,18134 12941,18112 12942,18091 12943,18071 12944,18050 12945,18030 12946,18010 12947,17990 12947,17971 12947,17952 12947,17933 12947,17915 12947,17897 12946,17879 12946,17861 12945,17844 12944,17827 12943,17811 12942,17794 12941,17778 12939,17762 12938,17747 12936,17732 12935,17717 12933,17703 12931,17688 12929,17675 12927,17661 12925,17648 12920,17622 12916,17598 12911,17575 12906,17553 12901,17532 12896,17513 12891,17495 12886,17478 12881,17462 12876,17447 12871,17434 12864,17416 12858,17401 12853,17389 12846,17376 12839,17363 12368,16600 13084,15981 13771,16557 13783,16566 13794,16574 13806,16581 13820,16590 13837,16599 13849,16606 13863,16613 13878,16620 13894,16627 13911,16635 13929,16643 13949,16651 13970,16659 13992,16667 14016,16675 14040,16683 14053,16687 14066,16691 14080,16695 14094,16699 14108,16703 14122,16706 14137,16710 14152,16714 14167,16717 14183,16721 14199,16724 14215,16728 14232,16731 14249,16734 14266,16738 14284,16741 14302,16743 14320,16746 14338,16749 14357,16752 14376,16754 14396,16756 14416,16758 14436,16760 14456,16762 14477,16764 14498,16766 14519,16767 14541,16768 14563,16769 14585,16770 14608,16771 14631,16771 14654,16772 14677,16772 14701,16772 14725,16771 14749,16771 14774,16770 14799,16769 14824,16768 14849,16766 14875,16765 14901,16763 14928,16761 14954,16758 14981,16755 15008,16752 15036,16749 15072,16745 15324,16291 15309,16258 15298,16233 15286,16208 15274,16184 15262,16160 15250,16137 15238,16114 15226,16091 15214,16068 15202,16046 15190,16025 15177,16003 15165,15982 15153,15962 15140,15941 15128,15921 15115,15902 15103,15883 15090,15864 15078,15845 15066,15827 15053,15810 15041,15792 15028,15775 15016,15758 15004,15742 14991,15726 14979,15710 14967,15695 14955,15680 14943,15665 14931,15651 14919,15637 14907,15623 14895,15610 14883,15597 14872,15584 14860,15571 14849,15559 14837,15548 14826,15536 14815,15525 14804,15514 14793,15504 14782,15493 14771,15483 14761,15474 14750,15464 14740,15455 14730,15446 14710,15430 14691,15414 14673,15399 14655,15386 14638,15373 14621,15361 14606,15351 14591,15341 14577,15332 14564,15324 14551,15317 14535,15308 14520,15300 14508,15294 14495,15288 14481,15283 13630,15002 13781,14067 Z"/><path d="M 10167,13969 L 10171,13905 10180,13843 10196,13783 10217,13725 10243,13670 10274,13619 10310,13570 10351,13526 10395,13485 10444,13449 10495,13418 10550,13392 10608,13371 10668,13355 10730,13346 10794,13342 10858,13346 10920,13355 10980,13371 11038,13392 11093,13418 11144,13449 11193,13485 11237,13526 11278,13570 11314,13619 11345,13670 11371,13725 11392,13783 11408,13843 11417,13905 11421,13969 11417,14033 11408,14095 11392,14155 11371,14213 11345,14268 11314,14319 11278,14368 11237,14412 11193,14453 11144,14489 11093,14520 11038,14546 10980,14567 10920,14583 10858,14592 10794,14596 10730,14592 10668,14583 10608,14567 10550,14546 10495,14520 10444,14489 10395,14453 10351,14412 10310,14368 10274,14319 10243,14268 10217,14213 10196,14155 10180,14095 10171,14033 10167,13969 Z"/></g></g></g></g></svg>