<?xml version="1.0" encoding="UTF-8"?>
<!DOCTYPE svg PUBLIC "-//W3C//DTD SVG 1.1//EN" "http://www.w3.org/Graphics/SVG/1.1/DTD/svg11.dtd"><svg version="1.1" viewBox="0 0 21590 27940" preserveAspectRatio="xMidYMid" fill-rule="evenodd" xmlns="http://www.w3.org/2000/svg" xmlns:xlink="http://www.w3.org/1999/xlink"><g visibility="visible" id="Default"><desc>Master slide</desc><g style="stroke:none;fill:none"><rect x="0" y="0" width="21590" height="27940"/></g></g><g visibility="visible" id="page1"><desc>Slide</desc><g><desc>Graphic</desc><g><g style="stroke:rgb(255,0,0);fill:none"><path d="M 7651,12605 L 7651,12606 7651,12607 7667,12613 7669,12614 7677,12617 7686,12621 7694,12624 7702,12627 7709,12631 7717,12634 7724,12636 7732,12639 7739,12642 7746,12644 7753,12646 7759,12649 7766,12651 7772,12653 7778,12654 7781,12655 7805,12664 7805,12664 7805,12710 7650,12764 7649,12823 7803,12880 7803,12926 7648,12980 7647,13039 7802,13096 7801,13141 7646,13196 7646,13255 7800,13311 7800,13357 7645,13412 7645,13471 7799,13527 7799,13573 7644,13628 7644,13687 7799,13743 7799,13789 7644,13844 7644,13903 7798,13959 7798,14004 7644,14060 7644,14119 7798,14174 7799,14220 7644,14276 7644,14335 7799,14390 7799,14436 7645,14492 7645,14550 7800,14606 7800,14651 7645,14708 7646,14766 7801,14822 7801,14867 7647,14924 7647,14982 7802,15037 7802,15083 7648,15140 7649,15198 7804,15253 7804,15299 7650,15356 7651,15414 7654,15416 7654,15416 7655,15417 7664,15420 7673,15423 7682,15426 7690,15429 7698,15431 7707,15434 7715,15436 7722,15439 7730,15441 7738,15443 7745,15445 7752,15447 7759,15449 7766,15450 7772,15452 7779,15453 7785,15455 7791,15456 7797,15457 7803,15458 7808,15459 7812,15460 7817,15512 7813,15513 7808,15515 7802,15517 7797,15519 7791,15522 7785,15524 7779,15527 7773,15529 7766,15532 7760,15535 7753,15538 7746,15541 7739,15545 7732,15548 7724,15552 7717,15555 7709,15559 7702,15563 7694,15568 7686,15572 7678,15577 7670,15581 7669,15582 7676,15636 7677,15637 7686,15639 7695,15642 7704,15644 7712,15646 7721,15648 7729,15650 7737,15652 7745,15654 7753,15655 7761,15657 7768,15658 7775,15659 7782,15661 7789,15662 7796,15663 7803,15664 7809,15664 7815,15665 7821,15666 7827,15666 7833,15667 7836,15667 7845,15719 7842,15720 7836,15723 7831,15725 7826,15728 7820,15731 7814,15734 7808,15737 7802,15740 7796,15743 7790,15746 7783,15750 7777,15754 7770,15758 7763,15762 7756,15766 7749,15770 7742,15775 7735,15780 7727,15784 7720,15789 7712,15795 7704,15800 7703,15801 7714,15854 7715,15855 7725,15856 7734,15858 7743,15860 7752,15861 7760,15862 7769,15864 7777,15865 7785,15866 7793,15867 7801,15868 7808,15868 7816,15869 7823,15870 7830,15870 7837,15871 7843,15871 7850,15872 7856,15872 7862,15872 7868,15872 7873,15872 7877,15872 7890,15923 7887,15925 7882,15928 7877,15930 7871,15933 7866,15937 7861,15940 7855,15943 7849,15947 7843,15951 7837,15955 7831,15959 7825,15963 7818,15968 7812,15972 7805,15977 7799,15982 7792,15987 7785,15992 7778,15998 7771,16003 7763,16009 7756,16015 7755,16016 7771,16068 7772,16069 7781,16070 7790,16071 7800,16071 7808,16072 7817,16073 7826,16073 7834,16074 7842,16074 7850,16075 7858,16075 7865,16075 7873,16075 7880,16075 7887,16075 7894,16075 7900,16075 7907,16075 7913,16074 7919,16074 7925,16074 7931,16073 7934,16073 7951,16123 7948,16125 7943,16128 7938,16131 7933,16135 7928,16138 7923,16142 7918,16146 7912,16150 7907,16154 7901,16159 7895,16163 7889,16168 7883,16173 7877,16178 7871,16183 7865,16189 7858,16194 7852,16200 7845,16206 7839,16212 7832,16219 7825,16225 7824,16226 7844,16277 7845,16277 7855,16278 7864,16278 7873,16278 7882,16278 7891,16278 7899,16278 7907,16278 7916,16277 7924,16277 7931,16277 7939,16276 7946,16276 7953,16275 7960,16275 7967,16274 7974,16273 7980,16273 7986,16272 7992,16271 7998,16270 8004,16269 8007,16269 8028,16317 8025,16319 8021,16323 8016,16326 8012,16330 8007,16334 8002,16338 7997,16343 7992,16347 7987,16352 7981,16357 7976,16362 7970,16367 7965,16372 7959,16378 7953,16384 7947,16390 7942,16396 7935,16402 7929,16409 7923,16415 7917,16422 7911,16429 7910,16430 7934,16480 7935,16480 7944,16479 7954,16479 7963,16478 7972,16477 7980,16476 7989,16476 7997,16475 8005,16474 8013,16473 8021,16472 8028,16471 8036,16470 8043,16469 8050,16467 8056,16466 8063,16465 8069,16464 8075,16463 8081,16461 8087,16460 8092,16459 8096,16458 8121,16504 8118,16507 8114,16511 8109,16515 8105,16519 8101,16523 8096,16528 8091,16532 8087,16537 8082,16542 8077,16548 8072,16553 8067,16559 8062,16565 8057,16571 8051,16577 8046,16583 8041,16590 8035,16597 8030,16604 8024,16611 8018,16618 8013,16626 8012,16627 8040,16674 8041,16674 8050,16673 8059,16671 8068,16670 8077,16669 8086,16667 8094,16666 8102,16664 8110,16663 8118,16661 8126,16659 8133,16658 8140,16656 8147,16654 8154,16653 8161,16651 8167,16649 8173,16647 8179,16646 8185,16644 8191,16642 8196,16641 8200,16639 8228,16683 8225,16686 8221,16690 8218,16695 8214,16699 8209,16704 8205,16709 8201,16714 8197,16719 8192,16725 8188,16730 8183,16736 8179,16742 8174,16748 8169,16755 8165,16761 8160,16768 8155,16775 8150,16782 8145,16790 8140,16797 8135,16805 8130,16813 8129,16814 8161,16859 8162,16859 8171,16857 8180,16855 8189,16853 8198,16851 8206,16849 8214,16847 8222,16844 8230,16842 8238,16840 8245,16838 8253,16835 8260,16833 8267,16831 8273,16829 8280,16826 8286,16824 8292,16822 8298,16820 8303,16818 8309,16816 8314,16813 8317,16812 8349,16854 8347,16857 8343,16861 8340,16866 8336,16871 8332,16876 8329,16881 8325,16886 8321,16892 8317,16898 8313,16904 8309,16910 8305,16916 8301,16923 8297,16929 8292,16936 8288,16944 8284,16951 8280,16959 8275,16966 8271,16974 8266,16982 8262,16991 8261,16992 8296,17034 8297,17034 8307,17031 8315,17028 8324,17026 8333,17023 8341,17020 8349,17017 8357,17014 8364,17011 8372,17009 8379,17006 8386,17003 8393,17000 8400,16997 8406,16995 8412,16992 8418,16989 8424,16987 8430,16984 8435,16981 8440,16979 8445,16976 8449,16974 8484,17013 8482,17016 8479,17021 8475,17026 8472,17031 8469,17037 8466,17042 8462,17048 8459,17054 8455,17060 8452,17066 8448,17073 8445,17079 8441,17086 8437,17093 8434,17100 8430,17108 8426,17116 8423,17124 8419,17132 8415,17140 8412,17148 8408,17157 8407,17158 8446,17198 8447,17197 8456,17194 8464,17190 8473,17187 8481,17183 8489,17180 8497,17176 8504,17173 8512,17170 8519,17166 8526,17163 8533,17159 8539,17156 8546,17153 8552,17149 8558,17146 8563,17143 8569,17140 8574,17137 8580,17134 8585,17131 8590,17128 8593,17126 8631,17162 8629,17165 8626,17170 8623,17175 8621,17181 8618,17186 8615,17192 8612,17198 8609,17204 8606,17210 8603,17217 8600,17224 8597,17231 8594,17238 8591,17245 8588,17253 8585,17260 8582,17268 8579,17277 8576,17285 8573,17293 8570,17302 8567,17311 8566,17312 8608,17349 8609,17348 8617,17344 8625,17340 8634,17336 8641,17331 8649,17327 8657,17323 8664,17319 8671,17315 8678,17311 8685,17307 8691,17303 8697,17300 8704,17296 8709,17292 8715,17288 8721,17285 8726,17281 8731,17277 8736,17274 8741,17271 8745,17267 8748,17265 8789,17298 8788,17301 8785,17306 8783,17312 8781,17317 8778,17323 8776,17329 8773,17335 8771,17342 8769,17348 8766,17355 8764,17362 8761,17369 8759,17376 8756,17384 8754,17392 8751,17400 8749,17408 8747,17416 8744,17425 8742,17434 8740,17443 8737,17452 8737,17453 8781,17486 8782,17485 8790,17480 8798,17476 8806,17471 8814,17466 8821,17461 8828,17457 8835,17452 8842,17448 8848,17443 8855,17439 8861,17434 8867,17430 8873,17426 8878,17421 8884,17417 8889,17413 8894,17409 8899,17405 8903,17401 8908,17397 8912,17394 8915,17391 8958,17421 8957,17424 8955,17430 8953,17435 8951,17441 8949,17447 8947,17453 8945,17459 8944,17466 8942,17473 8940,17480 8938,17487 8936,17494 8934,17502 8932,17509 8930,17517 8929,17525 8927,17534 8925,17542 8924,17551 8922,17560 8920,17569 8919,17579 8919,17580 8965,17609 8966,17608 8974,17603 8981,17597 8989,17592 8996,17587 9003,17581 9010,17576 9016,17571 9023,17566 9029,17561 9035,17556 9040,17551 9046,17546 9051,17541 9057,17537 9062,17532 9067,17528 9071,17523 9076,17519 9080,17515 9084,17511 9088,17507 9091,17504 9136,17530 9135,17533 9134,17539 9132,17545 9131,17550 9130,17556 9128,17563 9127,17569 9125,17576 9124,17583 9123,17590 9121,17597 9120,17605 9119,17612 9118,17620 9117,17628 9115,17636 9114,17645 9113,17654 9112,17662 9112,17671 9111,17681 9110,17690 9110,17691 9159,17717 9159,17716 9167,17710 9174,17704 9181,17698 9187,17692 9194,17686 9200,17680 9206,17675 9212,17669 9218,17664 9224,17658 9229,17653 9234,17647 9239,17642 9244,17637 9249,17632 9253,17627 9257,17623 9262,17618 9265,17613 9269,17609 9273,17605 9275,17602 9323,17624 9322,17628 9321,17633 9320,17639 9319,17645 9318,17651 9317,17658 9316,17664 9316,17671 9315,17678 9314,17685 9313,17692 9313,17700 9312,17708 9312,17716 9311,17724 9311,17732 9310,17740 9310,17749 9310,17758 9309,17767 9309,17777 9309,17786 9309,17787 9360,17808 9361,17808 9368,17801 9374,17794 9381,17788 9387,17781 9393,17775 9399,17769 9404,17763 9410,17757 9415,17751 9420,17745 9425,17739 9430,17733 9434,17728 9439,17722 9443,17717 9447,17712 9451,17707 9455,17702 9458,17697 9462,17692 9465,17688 9467,17685 9516,17703 9516,17707 9515,17712 9515,17718 9514,17724 9514,17730 9513,17737 9513,17743 9513,17750 9513,17757 9512,17764 9512,17772 9512,17779 9512,17787 9512,17795 9512,17803 9513,17812 9513,17820 9513,17829 9514,17838 9514,17847 9515,17856 9516,17866 9516,17867 9568,17884 9569,17883 9575,17876 9581,17869 9587,17862 9593,17855 9598,17848 9603,17841 9608,17835 9613,17828 9618,17822 9623,17816 9627,17809 9632,17803 9636,17798 9640,17792 9643,17786 9647,17781 9651,17775 9654,17770 9657,17765 9660,17760 9663,17755 9665,17752 9715,17766 9715,17770 9715,17775 9715,17781 9715,17787 9715,17794 9715,17800 9716,17807 9716,17813 9716,17820 9717,17828 9717,17835 9718,17842 9718,17850 9719,17858 9720,17866 9721,17875 9722,17883 9723,17892 9724,17901 9725,17910 9727,17919 9728,17928 9728,17929 9782,17942 9782,17941 9788,17934 9793,17926 9799,17919 9804,17911 9809,17904 9813,17897 9818,17890 9822,17883 9827,17876 9831,17870 9835,17863 9838,17857 9842,17851 9846,17845 9849,17839 9852,17833 9855,17827 9858,17822 9861,17816 9863,17811 9866,17806 9868,17803 9919,17813 9919,17817 9919,17822 9920,17828 9920,17834 9921,17840 9922,17847 9922,17853 9923,17860 9924,17867 9925,17874 9926,17881 9927,17889 9929,17897 9930,17904 9931,17912 9933,17921 9935,17929 9936,17938 9938,17946 9940,17955 9942,17964 9945,17973 9945,17975 9999,17983 10000,17982 10005,17974 10010,17966 10014,17958 10019,17951 10023,17943 10027,17935 10031,17928 10035,17921 10039,17914 10042,17907 10046,17900 10049,17894 10052,17887 10055,17881 10058,17875 10061,17869 10063,17863 10066,17857 10068,17851 10070,17846 10072,17841 10074,17837 10126,17843 10126,17847 10127,17853 10128,17858 10129,17864 10130,17870 10131,17877 10132,17883 10134,17890 10135,17897 10137,17904 10138,17911 10140,17918 10142,17926 10144,17934 10146,17941 10148,17950 10151,17958 10153,17966 10156,17975 10158,17983 10161,17992 10164,18001 10165,18002 10219,18006 10220,18005 10224,17997 10228,17989 10232,17980 10236,17972 10240,17964 10243,17957 10247,17949 10250,17942 10253,17934 10256,17927 10259,17920 10262,17913 10264,17907 10267,17900 10269,17894 10271,17887 10273,17881 10275,17875 10277,17870 10279,17864 10281,17859 10282,17855 10334,17857 10335,17861 10336,17866 10337,17872 10339,17878 10340,17884 10342,17890 10344,17896 10346,17903 10348,17909 10350,17916 10352,17923 10354,17931 10357,17938 10360,17945 10362,17953 10365,17961 10368,17969 10371,17977 10375,17985 10378,17994 10382,18002 10385,18011 10386,18012 10441,18012 10441,18011 10445,18002 10448,17993 10451,17985 10455,17977 10458,17969 10461,17960 10463,17953 10466,17945 10468,17937 10471,17930 10473,17923 10475,17916 10477,17909 10479,17902 10481,17895 10483,17889 10484,17883 10486,17877 10487,17871 10489,17865 10490,17860 10491,17856 10543,17854 10544,17857 10546,17863 10548,17868 10549,17874 10551,17880 10554,17886 10556,17892 10558,17898 10561,17905 10564,17912 10566,17918 10569,17925 10572,17933 10575,17940 10579,17947 10582,17955 10586,17963 10590,17971 10594,17979 10598,17987 10602,17995 10606,18003 10607,18004 10662,18000 10662,17999 10665,17990 10668,17981 10670,17972 10673,17963 10675,17955 10677,17947 10679,17939 10681,17931 10683,17923 10685,17916 10687,17908 10688,17901 10690,17894 10691,17887 10693,17880 10694,17874 10695,17867 10696,17861 10697,17855 10698,17850 10698,17844 10699,17840 10751,17834 10752,17837 10754,17842 10757,17848 10759,17853 10762,17859 10764,17865 10767,17871 10770,17877 10773,17883 10776,17890 10779,17896 10783,17903 10786,17910 10790,17917 10794,17924 10798,17931 10802,17939 10807,17946 10811,17954 10816,17962 10821,17970 10826,17978 10827,17979 10881,17970 10881,17969 10883,17959 10885,17950 10887,17941 10889,17933 10891,17924 10892,17916 10894,17907 10895,17899 10896,17892 10898,17884 10899,17876 10900,17869 10901,17862 10901,17855 10902,17848 10903,17842 10903,17835 10904,17829 10904,17823 10905,17817 10905,17811 10905,17808 10956,17797 10958,17800 10961,17805 10963,17811 10966,17816 10969,17821 10972,17827 10976,17833 10979,17839 10982,17845 10986,17851 10990,17857 10994,17864 10998,17870 11002,17877 11007,17884 11012,17891 11016,17898 11021,17905 11027,17912 11032,17919 11037,17927 11043,17935 11044,17935 11097,17922 11097,17921 11099,17912 11100,17902 11101,17893 11102,17884 11103,17876 11104,17867 11105,17859 11106,17851 11106,17843 11107,17835 11107,17828 11108,17820 11108,17813 11108,17806 11109,17799 11109,17793 11109,17786 11109,17780 11109,17774 11109,17768 11108,17762 11108,17759 11158,17744 11160,17747 11163,17752 11166,17757 11170,17762 11173,17767 11177,17773 11180,17778 11184,17784 11188,17789 11192,17795 11197,17801 11201,17807 11206,17814 11211,17820 11216,17826 11221,17833 11226,17839 11232,17846 11238,17853 11244,17860 11250,17867 11256,17874 11257,17875 11309,17857 11309,17856 11309,17847 11310,17837 11310,17828 11311,17819 11311,17811 11311,17802 11311,17794 11312,17786 11312,17778 11311,17770 11311,17762 11311,17755 11311,17748 11311,17741 11310,17734 11310,17727 11309,17721 11309,17715 11308,17709 11308,17703 11307,17697 11307,17694 11356,17675 11358,17678 11361,17682 11365,17687 11368,17692 11372,17697 11376,17702 11380,17707 11384,17712 11389,17718 11394,17723 11398,17729 11403,17735 11409,17740 11414,17746 11419,17752 11425,17758 11431,17764 11437,17771 11443,17777 11450,17784 11456,17790 11463,17797 11464,17797 11514,17776 11514,17774 11514,17765 11514,17756 11514,17747 11514,17738 11513,17729 11513,17720 11512,17712 11512,17704 11511,17696 11510,17688 11509,17681 11509,17673 11508,17666 11507,17659 11506,17653 11505,17646 11504,17640 11503,17634 11502,17628 11501,17622 11500,17616 11499,17613 11546,17590 11549,17593 11553,17597 11556,17601 11561,17606 11565,17611 11569,17615 11574,17620 11578,17625 11583,17630 11588,17635 11593,17640 11599,17646 11605,17651 11610,17656 11616,17662 11622,17668 11629,17673 11635,17679 11642,17685 11649,17691 11656,17697 11664,17703 11664,17703 11713,17678 11713,17677 11712,17667 11711,17658 11710,17649 11709,17640 11708,17631 11707,17623 11706,17615 11704,17607 11703,17599 11702,17591 11700,17584 11699,17576 11698,17569 11696,17562 11695,17556 11693,17549 11692,17543 11690,17537 11689,17531 11687,17525 11686,17520 11685,17516 11730,17490 11733,17493 11737,17497 11741,17501 11745,17505 11750,17509 11754,17514 11759,17518 11764,17522 11770,17527 11775,17532 11781,17537 11787,17541 11793,17546 11799,17551 11805,17556 11812,17561 11819,17567 11826,17572 11833,17577 11840,17582 11848,17588 11856,17593 11857,17594 11903,17564 11903,17563 11901,17554 11899,17545 11898,17536 11896,17527 11894,17518 11892,17510 11890,17502 11889,17494 11887,17486 11885,17479 11883,17471 11881,17464 11879,17457 11877,17451 11875,17444 11873,17438 11871,17432 11869,17426 11867,17420 11865,17414 11863,17409 11862,17406 11905,17376 11908,17378 11912,17382 11917,17385 11921,17389 11926,17393 11931,17397 11936,17401 11942,17405 11947,17409 11953,17414 11959,17418 11965,17422 11972,17427 11978,17431 11985,17436 11992,17440 11999,17445 12007,17449 12014,17454 12022,17459 12030,17464 12038,17468 12039,17469 12083,17436 12083,17435 12080,17425 12078,17416 12076,17408 12073,17399 12071,17391 12068,17382 12066,17375 12063,17367 12061,17359 12058,17352 12056,17345 12053,17338 12051,17331 12048,17325 12046,17318 12043,17312 12041,17306 12038,17300 12036,17295 12033,17289 12031,17284 12029,17281 12070,17248 12073,17250 12078,17253 12082,17256 12087,17260 12092,17263 12098,17267 12103,17270 12109,17274 12115,17278 12121,17282 12128,17285 12134,17289 12141,17293 12148,17297 12155,17301 12162,17305 12170,17309 12177,17313 12185,17317 12194,17321 12202,17325 12211,17329 12212,17330 12252,17293 12252,17292 12249,17283 12246,17274 12243,17266 12240,17257 12236,17249 12233,17241 12230,17234 12227,17226 12224,17219 12221,17212 12218,17205 12215,17198 12212,17191 12209,17185 12206,17179 12203,17173 12200,17167 12197,17162 12194,17157 12191,17151 12188,17146 12187,17143 12224,17107 12227,17109 12232,17112 12237,17115 12242,17118 12248,17121 12254,17124 12259,17127 12265,17130 12272,17133 12278,17136 12285,17140 12291,17143 12298,17146 12306,17150 12313,17153 12321,17156 12329,17160 12337,17163 12345,17167 12353,17170 12362,17173 12371,17177 12372,17177 12410,17137 12409,17136 12405,17128 12402,17119 12398,17111 12394,17103 12390,17095 12386,17087 12383,17080 12379,17073 12375,17065 12372,17059 12368,17052 12364,17046 12361,17039 12357,17033 12354,17027 12350,17022 12347,17016 12344,17011 12340,17006 12337,17001 12334,16996 12332,16993 12366,16954 12370,16956 12375,16958 12380,16961 12386,16963 12391,16966 12397,16968 12403,16971 12409,16974 12416,16976 12423,16979 12429,16982 12437,16985 12444,16987 12451,16990 12459,16993 12467,16996 12475,16998 12483,17001 12492,17004 12500,17006 12509,17009 12518,17012 12520,17012 12554,16969 12553,16968 12549,16960 12544,16952 12540,16944 12536,16936 12531,16929 12527,16921 12522,16914 12518,16907 12514,16901 12510,16894 12506,16888 12501,16882 12497,16876 12493,16870 12489,16864 12486,16859 12482,16854 12478,16849 12474,16844 12471,16839 12467,16835 12465,16832 12496,16790 12500,16791 12505,16794 12510,16796 12516,16798 12522,16800 12528,16802 12534,16804 12541,16806 12547,16809 12554,16811 12561,16813 12568,16815 12576,16817 12584,16819 12591,16821 12599,16824 12608,16826 12616,16828 12625,16830 12634,16832 12643,16834 12652,16836 12653,16836 12684,16790 12684,16790 12678,16782 12673,16774 12668,16766 12663,16759 12658,16752 12653,16745 12648,16738 12644,16731 12639,16725 12634,16719 12629,16713 12625,16707 12620,16702 12616,16696 12611,16691 12607,16686 12603,16681 12599,16676 12595,16672 12591,16668 12587,16663 12584,16661 12612,16616 12616,16617 12621,16619 12627,16621 12633,16622 12639,16624 12645,16626 12651,16627 12658,16629 12665,16631 12672,16632 12679,16634 12686,16635 12694,16637 12702,16639 12710,16640 12718,16641 12726,16643 12735,16644 12744,16646 12753,16647 12762,16648 12771,16649 12773,16649 12800,16602 12799,16601 12793,16593 12787,16586 12782,16579 12776,16572 12771,16565 12765,16559 12760,16552 12754,16546 12749,16540 12744,16534 12739,16529 12734,16523 12729,16518 12724,16513 12719,16508 12714,16504 12710,16499 12705,16495 12701,16491 12697,16487 12693,16483 12690,16480 12714,16434 12717,16435 12723,16436 12729,16437 12735,16438 12741,16439 12747,16441 12754,16442 12760,16443 12767,16444 12774,16445 12782,16446 12789,16447 12797,16448 12805,16449 12813,16450 12821,16450 12830,16451 12838,16452 12847,16452 12856,16453 12866,16453 12875,16454 12876,16454 12900,16404 12899,16403 12892,16396 12886,16389 12880,16383 12874,16376 12868,16370 12862,16364 12856,16358 12850,16352 12844,16347 12839,16342 12833,16336 12827,16331 12822,16327 12817,16322 12812,16318 12807,16313 12802,16309 12797,16305 12792,16301 12788,16298 12783,16294 12780,16292 12800,16244 12804,16244 12810,16245 12816,16246 12822,16247 12828,16247 12834,16248 12841,16248 12848,16249 12855,16250 12862,16250 12869,16250 12877,16251 12884,16251 12892,16251 12900,16251 12909,16252 12917,16252 12926,16252 12935,16251 12944,16251 12953,16251 12963,16251 12964,16251 12983,16199 12982,16198 12975,16192 12969,16186 12962,16179 12955,16174 12949,16168 12942,16162 12936,16157 12930,16152 12923,16147 12917,16142 12911,16137 12906,16133 12900,16128 12894,16124 12889,16120 12883,16116 12878,16112 12873,16109 12868,16105 12863,16102 12858,16099 12855,16097 12871,16047 12875,16048 12881,16048 12887,16048 12893,16048 12899,16049 12905,16049 12912,16049 12919,16049 12926,16049 12933,16049 12940,16048 12948,16048 12956,16048 12964,16047 12972,16047 12980,16046 12989,16046 12997,16045 13006,16044 13015,16043 13025,16042 13034,16041 13035,16041 13050,15988 13049,15987 13042,15982 13034,15976 13027,15970 13020,15965 13013,15960 13006,15955 12999,15950 12993,15945 12986,15941 12980,15936 12973,15932 12967,15928 12961,15924 12955,15920 12950,15917 12944,15913 12938,15910 12933,15907 12928,15904 12923,15901 12918,15898 12914,15897 12927,15846 12930,15846 12936,15846 12942,15845 12948,15845 12954,15845 12960,15844 12967,15844 12974,15843 12981,15843 12988,15842 12995,15841 13003,15840 13011,15840 13018,15839 13027,15837 13035,15836 13043,15835 13052,15833 13061,15832 13070,15830 13079,15828 13088,15826 13089,15826 13100,15772 13099,15772 13091,15767 13083,15761 13076,15756 13068,15752 13061,15747 13053,15743 13046,15738 13039,15734 13032,15730 13026,15726 13019,15723 13012,15719 13006,15716 13000,15713 12994,15709 12988,15706 12982,15704 12976,15701 12971,15698 12966,15696 12961,15694 12957,15692 12965,15641 12969,15640 12975,15640 12980,15639 12986,15638 12993,15637 12999,15636 13005,15635 13012,15634 13019,15633 13026,15632 13033,15631 13041,15629 13048,15628 13056,15626 13064,15624 13072,15622 13081,15620 13089,15618 13098,15616 13106,15613 13115,15611 13125,15608 13126,15608 13132,15553 13131,15553 13123,15548 13115,15544 13107,15539 13099,15535 13091,15531 13083,15527 13076,15524 13068,15520 13061,15517 13054,15513 13047,15510 13041,15507 13034,15504 13028,15502 13021,15499 13015,15497 13009,15494 13003,15492 12998,15490 12992,15488 12987,15486 12983,15485 12987,15433 12991,15432 12996,15431 13002,15430 13008,15429 13014,15427 13020,15426 13027,15424 13034,15423 13040,15421 13047,15419 13054,15417 13062,15415 13069,15413 13077,15411 13085,15408 13092,15406 13101,15403 13109,15400 13117,15397 13126,15394 13135,15391 13143,15388 13145,15387 13146,15333 13145,15332 13137,15328 13128,15324 13120,15321 13025,15285 12993,15273 12990,15272 12991,15227 13146,15172 13146,15114 12992,15057 12992,15011 13147,14956 13148,14898 12994,14841 12994,14795 13149,14740 13149,14682 12995,14625 12995,14579 13150,14524 13150,14466 12996,14409 12996,14364 13150,14308 13151,14250 12996,14194 12996,14148 13151,14092 13151,14034 12996,13978 12996,13932 13151,13876 13151,13818 12996,13762 12996,13717 13150,13660 13150,13602 12995,13546 12995,13501 13150,13444 13149,13386 12995,13331 12994,13285 13149,13228 13148,13170 12993,13115 12993,13069 13147,13012 13147,12954 12992,12899 12991,12854 13146,12796 13145,12738 12990,12684 12989,12638 12992,12637 13018,12627 13111,12593 13119,12589 13128,12585 13136,12581 13143,12578 13143,12533 13143,12522 13142,12521 13133,12518 13124,12515 13116,12512 13107,12509 13099,12507 13091,12504 13083,12502 13075,12499 13067,12497 13060,12495 13053,12493 13045,12491 13039,12489 13032,12488 13025,12486 13019,12485 13012,12483 13006,12482 13000,12481 12995,12480 12989,12479 12985,12478 12981,12426 12984,12425 12990,12423 12995,12421 13001,12419 13007,12416 13013,12414 13019,12411 13025,12409 13031,12406 13038,12403 13045,12400 13052,12397 13059,12393 13066,12390 13073,12386 13080,12383 13088,12379 13096,12375 13104,12370 13111,12366 13120,12361 13128,12357 13129,12356 13122,12302 13121,12301 13112,12299 13103,12296 13094,12294 13085,12292 13077,12290 13068,12288 13060,12286 13052,12284 13044,12283 13037,12281 13029,12280 13022,12279 13015,12277 13008,12276 13001,12275 12995,12274 12988,12274 12982,12273 12976,12272 12970,12272 12965,12271 12961,12271 12952,12219 12956,12218 12961,12215 12966,12213 12972,12210 12977,12207 12983,12204 12989,12201 12995,12198 13001,12195 13008,12192 13014,12188 13021,12184 13027,12180 13034,12176 13041,12172 13048,12168 13055,12163 13063,12158 13070,12154 13078,12149 13086,12143 13093,12138 13094,12137 13083,12084 13082,12083 13073,12082 13063,12080 13055,12078 13046,12077 13037,12076 13029,12074 13020,12073 13012,12072 13004,12071 12997,12070 12989,12070 12982,12069 12975,12068 12968,12068 12961,12067 12954,12067 12948,12066 12942,12066 12936,12066 12930,12066 12924,12066 12920,12066 12908,12015 12911,12013 12916,12010 12921,12008 12926,12005 12931,12001 12937,11998 12943,11995 12948,11991 12954,11987 12960,11983 12966,11979 12973,11975 12979,11970 12986,11966 12992,11961 12999,11956 13006,11951 13013,11946 13020,11940 13027,11935 13034,11929 13041,11923 13042,11922 13027,11870 13026,11869 13016,11868 13007,11867 12998,11867 12989,11866 12980,11865 12972,11865 12964,11864 12955,11864 12947,11863 12940,11863 12932,11863 12925,11863 12918,11863 12911,11863 12904,11863 12897,11863 12891,11863 12884,11864 12878,11864 12873,11864 12867,11865 12863,11865 12846,11815 12849,11813 12854,11810 12859,11807 12864,11803 12869,11800 12874,11796 12880,11792 12885,11788 12891,11784 12896,11779 12902,11775 12908,11770 12914,11765 12920,11760 12926,11755 12933,11749 12939,11744 12946,11738 12952,11732 12959,11726 12966,11719 12972,11713 12973,11712 12954,11661 12952,11661 12943,11660 12934,11660 12925,11660 12916,11660 12907,11660 12898,11660 12890,11660 12882,11661 12874,11661 12866,11661 12859,11662 12851,11662 12844,11663 12837,11663 12830,11664 12824,11665 12817,11665 12811,11666 12805,11667 12799,11668 12794,11669 12790,11669 12769,11621 12772,11619 12777,11615 12781,11612 12786,11608 12791,11604 12796,11600 12801,11595 12806,11591 12811,11586 12816,11581 12822,11576 12827,11571 12833,11566 12838,11560 12844,11554 12850,11548 12856,11542 12862,11536 12868,11529 12874,11523 12880,11516 12887,11509 12887,11508 12864,11458 12863,11458 12853,11459 12844,11459 12835,11460 12826,11461 12817,11462 12809,11462 12800,11463 12792,11464 12784,11465 12777,11466 12769,11467 12762,11468 12755,11469 12748,11471 12741,11472 12735,11473 12728,11474 12722,11475 12716,11477 12711,11478 12705,11479 12701,11480 12677,11434 12680,11431 12684,11427 12688,11423 12692,11419 12697,11415 12701,11410 12706,11406 12711,11401 12715,11396 12720,11390 12725,11385 12730,11379 12736,11373 12741,11367 12746,11361 12751,11355 12757,11348 12762,11341 12768,11334 12774,11327 12779,11320 12785,11312 12786,11311 12758,11264 12757,11264 12747,11265 12738,11267 12729,11268 12720,11269 12712,11271 12703,11272 12695,11274 12687,11275 12679,11277 12672,11279 12664,11280 12657,11282 12650,11284 12643,11285 12637,11287 12630,11289 12624,11291 12618,11292 12612,11294 12607,11296 12601,11297 12598,11299 12570,11255 12572,11252 12576,11248 12580,11243 12584,11239 12588,11234 12592,11229 12596,11224 12601,11219 12605,11213 12610,11208 12614,11202 12619,11196 12623,11190 12628,11183 12633,11177 12638,11170 12643,11163 12647,11156 12652,11148 12657,11141 12662,11133 12668,11125 12668,11124 12637,11079 12636,11079 12626,11081 12617,11083 12608,11085 12600,11087 12591,11089 12583,11091 12575,11094 12567,11096 12559,11098 12552,11100 12545,11103 12538,11105 12531,11107 12524,11109 12518,11112 12512,11114 12506,11116 12500,11118 12494,11120 12489,11123 12483,11125 12480,11126 12448,11084 12451,11081 12454,11077 12458,11072 12461,11067 12465,11062 12469,11057 12473,11052 12476,11046 12480,11040 12484,11034 12488,11028 12492,11022 12497,11015 12501,11009 12505,11002 12509,10994 12514,10987 12518,10979 12522,10972 12527,10964 12531,10956 12535,10947 12536,10946 12501,10904 12500,10904 12491,10907 12482,10910 12473,10912 12465,10915 12457,10918 12449,10921 12441,10924 12433,10927 12426,10929 12418,10932 12411,10935 12405,10938 12398,10941 12391,10943 12385,10946 12379,10949 12373,10951 12368,10954 12362,10957 12357,10959 12352,10962 12349,10964 12314,10925 12316,10922 12319,10917 12322,10912 12325,10907 12329,10901 12332,10896 12335,10890 12339,10884 12342,10878 12346,10872 12349,10865 12353,10859 12356,10852 12360,10845 12364,10838 12367,10830 12371,10822 12375,10814 12378,10806 12382,10798 12386,10790 12390,10781 12390,10780 12352,10740 12351,10741 12342,10744 12333,10748 12325,10751 12317,10755 12309,10758 12301,10762 12293,10765 12286,10768 12279,10772 12272,10775 12265,10779 12258,10782 12252,10785 12246,10789 12240,10792 12234,10795 12228,10798 12223,10801 12218,10804 12213,10807 12208,10810 12205,10812 12167,10776 12169,10773 12171,10768 12174,10763 12177,10757 12180,10752 12183,10746 12185,10740 12188,10734 12191,10728 12194,10721 12197,10714 12200,10707 12203,10700 12206,10693 12209,10685 12213,10678 12216,10670 12219,10662 12222,10653 12225,10645 12228,10636 12231,10627 12231,10626 12190,10590 12189,10590 12180,10594 12172,10598 12164,10602 12156,10607 12148,10611 12141,10615 12133,10619 12126,10623 12119,10627 12113,10631 12106,10635 12100,10638 12094,10642 12088,10646 12082,10650 12077,10653 12071,10657 12066,10661 12061,10664 12057,10667 12052,10671 12049,10673 12008,10640 12010,10637 12012,10632 12014,10626 12017,10621 12019,10615 12022,10609 12024,10603 12026,10596 12029,10590 12031,10583 12034,10576 12036,10569 12039,10562 12041,10554 12044,10546 12046,10538 12048,10530 12051,10522 12053,10513 12055,10504 12058,10495 12060,10486 12060,10485 12016,10452 12015,10453 12007,10458 11999,10462 11991,10467 11984,10472 11977,10477 11969,10481 11962,10486 11956,10490 11949,10495 11943,10499 11937,10504 11931,10508 11925,10512 11919,10517 11914,10521 11909,10525 11904,10529 11899,10533 11894,10537 11890,10541 11885,10544 11883,10547 11839,10517 11841,10514 11843,10508 11844,10503 11846,10497 11848,10491 11850,10485 11852,10479 11854,10472 11856,10465 11858,10458 11860,10451 11861,10444 11863,10436 11865,10429 11867,10421 11869,10413 11870,10404 11872,10396 11874,10387 11875,10378 11877,10369 11879,10359 11879,10358 11832,10329 11831,10330 11824,10335 11816,10341 11809,10346 11802,10351 11795,10357 11788,10362 11781,10367 11775,10372 11769,10377 11763,10382 11757,10387 11751,10392 11746,10397 11741,10401 11736,10406 11731,10410 11726,10415 11722,10419 11717,10423 11713,10427 11709,10431 11707,10434 11661,10408 11662,10405 11664,10399 11665,10393 11666,10388 11668,10382 11669,10375 11671,10369 11672,10362 11673,10355 11675,10348 11676,10341 11677,10333 11679,10326 11680,10318 11681,10310 11682,10302 11683,10293 11684,10284 11685,10276 11686,10267 11687,10257 11688,10248 11688,10247 11639,10221 11638,10222 11631,10228 11624,10234 11617,10240 11610,10246 11604,10252 11597,10258 11591,10263 11585,10269 11579,10274 11574,10280 11569,10285 11563,10291 11558,10296 11554,10301 11549,10306 11544,10311 11540,10315 11536,10320 11532,10325 11528,10329 11525,10333 11522,10336 11475,10314 11475,10310 11476,10305 11477,10299 11478,10293 11479,10287 11480,10280 11481,10274 11482,10267 11483,10260 11483,10253 11484,10246 11485,10238 11485,10230 11486,10222 11486,10214 11487,10206 11487,10198 11488,10189 11488,10180 11488,10171 11488,10161 11488,10152 11488,10151 11438,10130 11437,10130 11430,10137 11423,10144 11417,10150 11411,10157 11405,10163 11399,10169 11393,10175 11388,10181 11383,10187 11377,10193 11373,10199 11368,10205 11363,10210 11359,10216 11355,10221 11350,10226 11347,10231 11343,10236 11339,10241 11336,10246 11332,10250 11330,10253 11281,10235 11282,10231 11282,10226 11283,10220 11283,10214 11284,10208 11284,10201 11284,10195 11285,10188 11285,10181 11285,10174 11285,10166 11285,10159 11285,10151 11285,10143 11285,10135 11285,10126 11284,10118 11284,10109 11284,10100 11283,10091 11282,10082 11282,10072 11281,10071 11229,10054 11229,10055 11222,10062 11216,10069 11211,10076 11205,10083 11199,10090 11194,10097 11189,10103 11184,10110 11179,10116 11175,10122 11170,10129 11166,10135 11162,10140 11158,10146 11154,10152 11150,10157 11147,10163 11144,10168 11140,10173 11137,10178 11134,10183 11132,10186 11082,10172 11082,10168 11082,10163 11082,10157 11082,10151 11082,10144 11082,10138 11082,10131 11082,10125 11081,10118 11081,10110 11080,10103 11080,10096 11079,10088 11079,10080 11078,10072 11077,10063 11076,10055 11075,10046 11074,10037 11072,10028 11071,10019 11069,10010 11069,10009 11016,9996 11015,9997 11010,10004 11004,10012 10999,10019 10994,10027 10989,10034 10984,10041 10980,10048 10975,10055 10971,10062 10967,10068 10963,10075 10959,10081 10955,10087 10952,10093 10949,10099 10945,10105 10942,10111 10939,10116 10937,10122 10934,10127 10932,10132 10930,10135 10879,10125 10878,10121 10878,10116 10878,10110 10877,10104 10876,10098 10876,10091 10875,10085 10874,10078 10873,10071 10872,10064 10871,10057 10870,10049 10869,10041 10868,10034 10866,10026 10865,10017 10863,10009 10861,10000 10859,9992 10857,9983 10855,9974 10853,9965 10852,9963 10798,9955 10798,9956 10793,9964 10788,9972 10783,9980 10779,9987 10774,9995 10770,10003 10766,10010 10762,10017 10759,10024 10755,10031 10752,10038 10749,10044 10745,10051 10742,10057 10740,10063 10737,10069 10734,10075 10732,10081 10730,10087 10727,10092 10725,10097 10724,10101 10672,10095 10671,10091 10671,10085 10670,10080 10669,10074 10668,10068 10666,10061 10665,10055 10664,10048 10662,10041 10661,10034 10659,10027 10657,10020 10656,10012 10654,10004 10651,9997 10649,9988 10647,9980 10644,9972 10642,9963 10639,9955 10636,9946 10633,9937 10633,9936 10578,9932 10578,9933 10573,9941 10569,9949 10565,9958 10561,9966 10558,9974 10554,9981 10551,9989 10547,9996 10544,10004 10541,10011 10539,10018 10536,10025 10533,10031 10531,10038 10528,10044 10526,10051 10524,10057 10522,10063 10520,10068 10518,10074 10517,10079 10516,10083 10463,10081 10463,10077 10461,10072 10460,10066 10459,10060 10457,10054 10455,10048 10454,10042 10452,10035 10450,10029 10448,10022 10445,10015 10443,10007 10441,10000 10438,9993 10435,9985 10432,9977 10429,9969 10426,9961 10423,9953 10420,9944 10416,9936 10412,9927 10412,9926 10357,9926 10356,9927 10353,9936 10349,9945 10346,9953 10343,9961 10340,9969 10337,9978 10334,9985 10331,9993 10329,10001 10327,10008 10324,10015 10322,10022 10320,10029 10318,10036 10316,10043 10315,10049 10313,10055 10312,10061 10310,10067 10309,10073 10308,10078 10307,10082 10255,10084 10253,10081 10252,10075 10250,10070 10248,10064 10246,10058 10244,10052 10242,10046 10239,10040 10237,10033 10234,10026 10231,10020 10228,10013 10225,10005 10222,9998 10219,9991 10215,9983 10212,9975 10208,9967 10204,9959 10200,9951 10196,9943 10191,9935 10191,9934 10136,9938 10136,9939 10133,9948 10130,9957 10127,9966 10125,9975 10122,9983 10120,9991 10118,9999 10116,10007 10114,10015 10112,10022 10111,10030 10109,10037 10108,10044 10106,10051 10105,10058 10104,10064 10103,10071 10102,10077 10101,10083 10100,10088 10099,10094 10099,10098 10047,10104 10045,10101 10043,10096 10041,10090 10038,10085 10036,10079 10033,10073 10031,10067 10028,10061 10025,10055 10021,10048 10018,10042 10015,10035 10011,10028 10007,10021 10003,10014 9999,10007 9995,9999 9991,9992 9986,9984 9981,9976 9976,9968 9971,9960 9971,9959 9917,9968 9916,9969 9914,9979 9912,9988 9910,9997 9908,10005 9907,10014 9905,10022 9904,10031 9902,10039 9901,10046 9900,10054 9899,10062 9898,10069 9897,10076 9896,10083 9895,10090 9895,10096 9894,10103 9894,10109 9893,10115 9893,10121 9892,10127 9892,10130 9841,10141 9839,10138 9837,10133 9834,10127 9831,10122 9828,10117 9825,10111 9822,10105 9819,10099 9815,10093 9811,10087 9807,10081 9803,10074 9799,10068 9795,10061 9790,10054 9786,10047 9781,10040 9776,10033 9771,10026 9766,10019 9760,10011 9754,10003 9754,10003 9700,10016 9700,10017 9699,10026 9698,10036 9696,10045 9695,10054 9694,10062 9693,10071 9693,10079 9692,10087 9691,10095 9691,10103 9690,10110 9690,10118 9689,10125 9689,10132 9689,10139 9689,10145 9689,10152 9689,10158 9689,10164 9689,10170 9689,10176 9689,10179 9639,10194 9637,10191 9634,10186 9631,10181 9628,10176 9624,10171 9621,10165 9617,10160 9613,10154 9609,10149 9605,10143 9601,10137 9596,10131 9592,10124 9587,10118 9582,10112 9576,10105 9571,10099 9566,10092 9560,10085 9554,10078 9548,10071 9541,10064 9541,10063 9489,10081 9489,10082 9488,10091 9487,10101 9487,10110 9487,10119 9486,10127 9486,10136 9486,10144 9486,10152 9486,10160 9486,10168 9486,10176 9486,10183 9487,10190 9487,10197 9487,10204 9488,10211 9488,10217 9489,10223 9489,10229 9490,10235 9490,10241 9491,10244 9442,10263 9440,10260 9436,10256 9433,10251 9429,10246 9425,10241 9421,10236 9417,10231 9413,10226 9409,10220 9404,10215 9399,10209 9394,10203 9389,10198 9384,10192 9378,10186 9372,10180 9367,10174 9360,10167 9354,10161 9348,10154 9341,10148 9334,10141 9333,10141 9283,10162 9283,10163 9283,10173 9283,10182 9284,10191 9284,10200 9284,10209 9285,10218 9285,10226 9286,10234 9287,10242 9287,10250 9288,10257 9289,10265 9290,10272 9290,10279 9291,10285 9292,10292 9293,10298 9294,10304 9295,10310 9296,10316 9297,10322 9298,10325 9251,10348 9249,10345 9245,10341 9241,10337 9237,10332 9233,10327 9228,10323 9224,10318 9219,10313 9214,10308 9209,10303 9204,10298 9199,10292 9193,10287 9187,10282 9181,10276 9175,10270 9169,10265 9162,10259 9155,10253 9148,10247 9141,10241 9134,10235 9133,10235 9085,10260 9085,10261 9086,10271 9086,10280 9087,10289 9088,10298 9090,10307 9091,10315 9092,10323 9093,10331 9094,10339 9096,10347 9097,10354 9098,10362 9100,10369 9101,10376 9103,10382 9104,10389 9106,10395 9107,10401 9109,10407 9110,10413 9112,10418 9113,10422 9067,10448 9065,10445 9061,10441 9057,10437 9052,10433 9048,10429 9043,10424 9038,10420 9033,10416 9028,10411 9022,10406 9017,10401 9011,10397 9005,10392 8999,10387 8992,10382 8986,10377 8979,10371 8972,10366 8965,10361 8957,10356 8950,10350 8942,10345 8941,10344 8895,10374 8895,10375 8896,10384 8898,10393 8900,10402 8902,10411 8903,10420 8905,10428 8907,10436 8909,10444 8911,10452 8913,10459 8915,10467 8917,10474 8919,10481 8921,10487 8923,10494 8924,10500 8926,10506 8928,10512 8930,10518 8932,10524 8934,10529 8936,10532 8893,10562 8890,10560 8885,10556 8881,10553 8876,10549 8871,10545 8866,10541 8861,10537 8856,10533 8850,10529 8844,10524 8838,10520 8832,10516 8826,10511 8819,10507 8812,10502 8805,10498 8798,10493 8791,10489 8783,10484 8775,10479 8767,10474 8759,10470 8758,10469 8714,10502 8715,10503 8717,10513 8719,10522 8722,10530 8724,10539 8727,10547 8729,10556 8732,10563 8734,10571 8737,10579 8739,10586 8742,10593 8744,10600 8747,10607 8749,10613 8752,10620 8754,10626 8757,10632 8759,10638 8762,10643 8764,10648 8766,10654 8768,10657 8728,10690 8725,10688 8720,10685 8715,10682 8710,10678 8705,10675 8700,10671 8694,10668 8688,10664 8682,10660 8676,10656 8670,10653 8663,10649 8657,10645 8650,10641 8643,10637 8635,10633 8628,10629 8620,10625 8612,10621 8604,10617 8595,10613 8587,10609 8586,10608 8545,10645 8545,10646 8548,10655 8552,10664 8555,10672 8558,10681 8561,10689 8564,10697 8567,10704 8570,10712 8574,10719 8577,10726 8580,10733 8583,10740 8586,10747 8589,10753 8592,10759 8595,10765 8598,10771 8601,10776 8604,10781 8606,10787 8609,10792 8611,10795 8573,10831 8570,10829 8565,10826 8560,10823 8555,10820 8550,10817 8544,10814 8538,10811 8532,10808 8526,10805 8519,10802 8513,10798 8506,10795 8499,10792 8492,10788 8484,10785 8477,10782 8469,10778 8461,10775 8453,10771 8444,10768 8435,10765 8427,10761 8426,10761 8388,10801 8388,10802 8392,10810 8396,10819 8400,10827 8403,10835 8407,10843 8411,10851 8415,10858 8418,10865 8422,10873 8426,10879 8429,10886 8433,10892 8437,10899 8440,10905 8444,10911 8447,10916 8450,10922 8454,10927 8457,10932 8460,10937 8463,10942 8465,10945 8431,10984 8428,10982 8423,10980 8417,10977 8412,10975 8406,10972 8400,10970 8394,10967 8388,10964 8382,10962 8375,10959 8368,10956 8361,10953 8354,10951 8346,10948 8339,10945 8331,10942 8323,10940 8314,10937 8306,10934 8297,10932 8288,10929 8279,10926 8278,10926 8243,10969 8244,10970 8249,10978 8253,10986 8257,10994 8262,11002 8266,11009 8271,11017 8275,11024 8279,11031 8284,11037 8288,11044 8292,11050 8296,11056 8300,11062 8304,11068 8308,11074 8312,11079 8316,11084 8319,11089 8323,11094 8327,11099 8330,11103 8333,11106 8301,11148 8298,11147 8293,11144 8287,11142 8282,11140 8276,11138 8270,11136 8263,11134 8257,11132 8250,11129 8243,11127 8236,11125 8229,11123 8222,11121 8214,11119 8206,11117 8198,11114 8190,11112 8181,11110 8173,11108 8164,11106 8155,11104 8145,11102 8144,11102 8113,11148 8114,11148 8119,11156 8124,11164 8129,11172 8134,11179 8139,11186 8144,11193 8149,11200 8154,11207 8159,11213 8163,11219 8168,11225 8173,11231 8177,11236 8182,11242 8186,11247 8190,11252 8195,11257 8199,11262 8203,11266 8207,11270 8210,11275 8213,11277 8185,11322 8182,11321 8176,11319 8171,11317 8165,11316 8159,11314 8153,11312 8146,11311 8140,11309 8133,11307 8126,11306 8119,11304 8111,11303 8104,11301 8096,11299 8088,11298 8080,11297 8071,11295 8063,11294 8054,11292 8045,11291 8035,11290 8026,11289 8025,11289 7998,11336 7998,11337 8004,11345 8010,11352 8016,11359 8021,11366 8027,11373 8032,11379 8038,11386 8043,11392 8048,11398 8054,11404 8059,11409 8064,11415 8069,11420 8074,11425 8078,11430 8083,11434 8088,11439 8092,11443 8096,11447 8101,11451 8105,11455 8108,11458 8084,11504 8080,11503 8074,11502 8069,11501 8063,11500 8057,11499 8050,11497 8044,11496 8037,11495 8030,11494 8023,11493 8016,11492 8008,11491 8001,11490 7993,11489 7985,11488 7976,11488 7968,11487 7959,11486 7950,11486 7941,11485 7932,11485 7922,11484 7921,11484 7898,11534 7899,11535 7905,11542 7911,11549 7918,11555 7924,11562 7930,11568 7936,11574 7942,11580 7948,11586 7953,11591 7959,11596 7965,11602 7970,11607 7975,11611 7981,11616 7986,11620 7991,11625 7996,11629 8001,11633 8005,11637 8010,11640 8014,11644 8017,11646 7997,11694 7993,11694 7988,11693 7982,11692 7976,11691 7970,11691 7963,11690 7957,11690 7950,11689 7943,11688 7936,11688 7928,11688 7921,11687 7913,11687 7905,11687 7897,11687 7889,11686 7880,11686 7871,11686 7862,11687 7853,11687 7844,11687 7835,11687 7833,11687 7814,11739 7815,11740 7822,11746 7829,11752 7836,11759 7842,11764 7849,11770 7855,11776 7862,11781 7868,11786 7874,11791 7880,11796 7886,11801 7892,11805 7898,11810 7903,11814 7909,11818 7914,11822 7919,11826 7924,11829 7929,11833 7934,11836 7939,11839 7942,11841 7926,11891 7922,11890 7917,11890 7911,11890 7905,11890 7898,11889 7892,11889 7885,11889 7879,11889 7872,11889 7864,11889 7857,11890 7849,11890 7842,11890 7834,11891 7826,11891 7817,11892 7809,11892 7800,11893 7791,11894 7782,11895 7773,11896 7763,11897 7762,11897 7747,11950 7748,11951 7756,11956 7763,11962 7770,11968 7777,11973 7784,11978 7791,11983 7798,11988 7805,11993 7811,11997 7818,12002 7824,12006 7830,12010 7836,12014 7842,12018 7848,12021 7854,12025 7859,12028 7865,12031 7870,12034 7875,12037 7880,12040 7883,12041 7871,12092 7867,12092 7861,12092 7856,12093 7850,12093 7843,12093 7837,12094 7830,12094 7824,12095 7817,12095 7809,12096 7802,12097 7795,12098 7787,12098 7779,12099 7771,12101 7763,12102 7754,12103 7746,12105 7737,12106 7728,12108 7719,12110 7709,12112 7708,12112 7698,12166 7699,12166 7706,12171 7714,12177 7722,12182 7729,12186 7737,12191 7744,12195 7751,12200 7758,12204 7765,12208 7772,12212 7779,12215 7785,12219 7791,12222 7798,12225 7804,12229 7810,12232 7815,12234 7821,12237 7826,12240 7832,12242 7837,12244 7840,12246 7832,12297 7829,12298 7823,12298 7817,12299 7811,12300 7805,12301 7799,12302 7792,12303 7785,12304 7778,12305 7771,12306 7764,12307 7757,12309 7749,12310 7741,12312 7733,12314 7725,12316 7717,12318 7708,12320 7700,12322 7691,12325 7682,12327 7673,12330 7672,12330 7665,12385 7666,12385 7675,12390 7683,12394 7691,12399 7699,12403 7707,12407 7714,12411 7722,12414 7729,12418 7736,12421 7743,12425 7750,12428 7757,12431 7763,12434 7770,12436 7776,12439 7782,12441 7788,12444 7794,12446 7800,12448 7805,12450 7811,12452 7814,12453 7810,12505 7807,12506 7801,12507 7795,12508 7789,12509 7783,12511 7777,12512 7771,12514 7764,12515 7757,12517 7750,12519 7743,12521 7736,12523 7728,12525 7721,12527 7713,12530 7705,12532 7697,12535 7689,12538 7680,12541 7672,12544 7663,12547 7654,12550 7653,12551 7651,12603 7651,12605 Z"/><path d="M 12600,14486 L 12600,14484 12754,14429 12755,14371 12600,14314 12600,14269 12755,14213 12755,14155 12600,14099 12600,14053 12755,13997 12755,13939 12600,13883 12600,13837 12754,13781 12754,13723 12599,13667 12599,13622 12754,13565 12753,13507 12600,13452 12590,13459 12581,13467 12572,13476 12563,13485 12554,13495 12545,13506 12537,13517 12529,13530 12521,13542 12513,13556 12506,13570 12499,13584 12492,13599 12485,13615 12479,13631 12473,13648 12467,13665 12462,13682 12457,13700 12452,13719 12447,13738 12443,13757 12440,13777 12436,13797 12433,13817 12431,13838 12428,13859 12426,13881 12425,13902 12424,13924 12423,13947 12423,13969 12423,13991 12424,14014 12425,14036 12426,14057 12428,14079 12431,14100 12433,14121 12436,14141 12440,14161 12443,14181 12447,14200 12452,14219 12457,14238 12462,14256 12467,14273 12473,14291 12479,14307 12485,14323 12492,14339 12499,14354 12506,14369 12513,14382 12521,14396 12529,14409 12537,14421 12545,14432 12554,14443 12563,14453 12572,14462 12581,14471 12590,14479 12600,14486 Z"/><path d="M 9243,11434 L 9243,11466 9244,11498 9245,11529 9246,11561 9248,11592 9250,11624 9253,11655 9256,11686 9259,11717 9263,11748 9267,11779 9271,11810 9276,11840 9281,11870 9287,11901 9293,11931 9299,11961 9306,11991 9313,12021 9320,12050 9328,12080 9336,12109 9345,12138 9354,12167 9363,12196 9372,12225 9382,12253 9392,12282 9403,12310 9414,12338 9425,12366 9437,12394 9448,12421 9461,12449 9473,12476 9486,12503 9499,12530 9513,12556 9526,12583 9540,12609 9555,12635 9569,12661 9600,12712 9631,12763 9664,12812 9698,12861 9733,12909 9769,12956 9806,13002 9844,13047 9883,13092 9924,13135 9965,13177 10007,13219 10050,13259 10095,13298 10140,13336 10186,13373 10233,13410 10281,13444 10330,13478 10379,13511 10430,13542 10481,13573 10507,13587 10533,13602 10559,13616 10586,13630 10612,13643 10639,13656 10666,13669 10693,13681 10721,13694 10748,13706 10776,13717 10804,13728 10832,13739 10860,13750 10889,13760 10917,13770 10946,13779 10975,13788 11004,13797 11033,13806 11062,13814 11092,13822 11121,13829 11151,13836 11181,13843 11211,13849 11241,13855 11272,13861 11302,13866 11333,13871 11363,13875 11394,13879 11425,13883 11456,13887 11487,13889 11518,13892 11550,13894 11581,13896 11613,13897 11644,13898 11676,13899 11708,13899 11740,13899 11772,13898 11803,13897 11835,13896 11866,13894 11898,13892 11929,13889 11960,13887 11991,13883 12022,13879 12053,13875 12083,13871 12114,13866 12144,13861 12175,13855 12205,13849 12235,13843 12265,13836 12294,13829 12324,13822 12353,13814 12383,13806 12412,13797 12441,13788 12470,13779 12499,13770 12527,13760 12556,13750 12584,13739 12612,13728 12640,13717 12667,13706 12695,13694 12722,13681 12750,13669 12777,13656 12804,13643 12830,13630 12857,13616 12883,13602 12909,13587 12935,13573 12986,13542 13037,13511 13086,13478 13135,13444 13183,13410 13230,13373 13276,13336 13321,13298 13365,13259 13409,13219 13451,13177 13492,13135 13533,13092 13572,13047 13610,13002 13647,12956 13683,12909 13718,12861 13752,12812 13785,12763 13816,12712 13846,12661 13861,12635 13876,12609 13890,12583 13903,12556 13917,12530 13930,12503 13943,12476 13955,12449 13968,12421 13979,12394 13991,12366 14002,12338 14013,12310 14024,12282 14034,12253 14044,12225 14053,12196 14062,12167 14071,12138 14080,12109 14088,12080 14095,12050 14103,12021 14110,11991 14117,11961 14123,11931 14129,11901 14135,11870 14140,11840 14145,11810 14149,11779 14153,11748 14157,11717 14160,11686 14163,11655 14166,11624 14168,11592 14170,11561 14171,11529 14172,11498 14173,11466 14173,11434 14173,11402 14172,11371 14171,11339 14170,11307 14168,11276 14166,11244 14163,11213 14160,11182 14157,11151 14153,11120 14149,11089 14145,11059 14140,11028 14135,10998 14129,10967 14123,10937 14117,10907 14110,10877 14103,10848 14095,10818 14088,10789 14080,10759 14071,10730 14062,10701 14053,10672 14044,10643 14034,10615 14024,10587 14013,10558 14002,10530 13991,10502 13979,10475 13968,10447 13955,10420 13943,10392 13930,10365 13917,10339 13903,10312 13890,10285 13876,10259 13861,10233 13846,10207 13816,10156 13785,10105 13752,10056 13718,10007 13683,9959 13647,9912 13610,9866 13572,9821 13533,9777 13492,9733 13451,9691 13409,9650 13365,9609 13321,9570 13276,9532 13230,9495 13183,9459 13135,9424 13086,9390 13037,9357 12986,9326 12935,9296 12909,9281 12883,9267 12857,9252 12830,9239 12804,9225 12777,9212 12750,9199 12722,9187 12695,9175 12667,9163 12640,9151 12612,9140 12584,9129 12556,9119 12527,9108 12499,9099 12470,9089 12441,9080 12412,9071 12383,9063 12353,9054 12324,9047 12294,9039 12265,9032 12235,9025 12205,9019 12175,9013 12144,9008 12114,9002 12083,8997 12053,8993 12022,8989 11991,8985 11960,8982 11929,8979 11898,8976 11866,8974 11835,8972 11803,8971 11772,8970 11740,8969 11708,8969 11676,8969 11644,8970 11613,8971 11581,8972 11550,8974 11518,8976 11487,8979 11456,8982 11425,8985 11394,8989 11363,8993 11333,8997 11302,9002 11272,9008 11241,9013 11211,9019 11181,9025 11151,9032 11121,9039 11092,9047 11062,9054 11033,9063 11004,9071 10975,9080 10946,9089 10917,9099 10889,9108 10860,9119 10832,9129 10804,9140 10776,9151 10748,9163 10721,9175 10693,9187 10666,9199 10639,9212 10612,9225 10586,9239 10559,9252 10533,9267 10507,9281 10481,9296 10430,9326 10379,9357 10330,9390 10281,9424 10233,9459 10186,9495 10140,9532 10095,9570 10050,9609 10007,9650 9965,9691 9924,9733 9883,9777 9844,9821 9806,9866 9769,9912 9733,9959 9698,10007 9664,10056 9631,10105 9600,10156 9569,10207 9555,10233 9540,10259 9526,10285 9513,10312 9499,10339 9486,10365 9473,10392 9461,10420 9448,10447 9437,10475 9425,10502 9414,10530 9403,10558 9392,10587 9382,10615 9372,10643 9363,10672 9354,10701 9345,10730 9336,10759 9328,10789 9320,10818 9313,10848 9306,10877 9299,10907 9293,10937 9287,10967 9281,10998 9276,11028 9271,11059 9267,11089 9263,11120 9259,11151 9256,11182 9253,11213 9250,11244 9248,11276 9246,11307 9245,11339 9244,11371 9243,11402 9243,11434 Z"/><path d="M 9243,16504 L 9243,16536 9244,16567 9245,16599 9246,16631 9248,16662 9250,16694 9253,16725 9256,16756 9259,16787 9263,16818 9267,16849 9271,16879 9276,16910 9281,16940 9287,16971 9293,17001 9299,17031 9306,17061 9313,17090 9320,17120 9328,17149 9336,17179 9345,17208 9354,17237 9363,17266 9372,17295 9382,17323 9392,17351 9403,17380 9414,17408 9425,17436 9437,17463 9448,17491 9461,17518 9473,17546 9486,17573 9499,17599 9513,17626 9526,17653 9540,17679 9555,17705 9569,17731 9600,17782 9631,17833 9664,17882 9698,17931 9733,17979 9769,18026 9806,18072 9844,18117 9883,18161 9924,18205 9965,18247 10007,18288 10050,18329 10095,18368 10140,18406 10186,18443 10233,18479 10281,18514 10330,18548 10379,18581 10430,18612 10481,18642 10507,18657 10533,18671 10559,18686 10586,18699 10612,18713 10639,18726 10666,18739 10693,18751 10721,18763 10748,18775 10776,18787 10804,18798 10832,18809 10860,18819 10889,18830 10917,18839 10946,18849 10975,18858 11004,18867 11033,18875 11062,18884 11092,18891 11121,18899 11151,18906 11181,18913 11211,18919 11241,18925 11272,18930 11302,18936 11333,18941 11363,18945 11394,18949 11425,18953 11456,18956 11487,18959 11518,18962 11550,18964 11581,18966 11613,18967 11644,18968 11676,18969 11708,18969 11740,18969 11772,18968 11803,18967 11835,18966 11866,18964 11898,18962 11929,18959 11960,18956 11991,18953 12022,18949 12053,18945 12083,18941 12114,18936 12144,18930 12175,18925 12205,18919 12235,18913 12265,18906 12294,18899 12324,18891 12353,18884 12383,18875 12412,18867 12441,18858 12470,18849 12499,18839 12527,18830 12556,18819 12584,18809 12612,18798 12640,18787 12667,18775 12695,18763 12722,18751 12750,18739 12777,18726 12804,18713 12830,18699 12857,18686 12883,18671 12909,18657 12935,18642 12986,18612 13037,18581 13086,18548 13135,18514 13183,18479 13230,18443 13276,18406 13321,18368 13365,18329 13409,18288 13451,18247 13492,18205 13533,18161 13572,18117 13610,18072 13647,18026 13683,17979 13718,17931 13752,17882 13785,17833 13816,17782 13846,17731 13861,17705 13876,17679 13890,17653 13903,17626 13917,17599 13930,17573 13943,17546 13955,17518 13968,17491 13979,17463 13991,17436 14002,17408 14013,17380 14024,17351 14034,17323 14044,17295 14053,17266 14062,17237 14071,17208 14080,17179 14088,17149 14095,17120 14103,17090 14110,17061 14117,17031 14123,17001 14129,16971 14135,16940 14140,16910 14145,16879 14149,16849 14153,16818 14157,16787 14160,16756 14163,16725 14166,16694 14168,16662 14170,16631 14171,16599 14172,16567 14173,16536 14173,16504 14173,16472 14172,16440 14171,16409 14170,16377 14168,16346 14166,16314 14163,16283 14160,16252 14157,16221 14153,16190 14149,16159 14145,16128 14140,16098 14135,16068 14129,16037 14123,16007 14117,15977 14110,15947 14103,15917 14095,15888 14088,15858 14080,15829 14071,15800 14062,15771 14053,15742 14044,15713 14034,15685 14024,15656 14013,15628 14002,15600 13991,15572 13979,15544 13968,15517 13955,15489 13943,15462 13930,15435 13917,15408 13903,15382 13890,15355 13876,15329 13861,15303 13846,15277 13816,15226 13785,15175 13752,15126 13718,15077 13683,15029 13647,14982 13610,14936 13572,14891 13533,14846 13492,14803 13451,14761 13409,14719 13365,14679 13321,14640 13276,14602 13230,14565 13183,14528 13135,14494 13086,14460 13037,14427 12986,14396 12935,14365 12909,14351 12883,14336 12857,14322 12830,14308 12804,14295 12777,14282 12750,14269 12722,14257 12695,14244 12667,14232 12640,14221 12612,14210 12584,14199 12556,14188 12527,14178 12499,14168 12470,14159 12441,14150 12412,14141 12383,14132 12353,14124 12324,14116 12294,14109 12265,14102 12235,14095 12205,14089 12175,14083 12144,14077 12114,14072 12083,14067 12053,14063 12022,14059 11991,14055 11960,14051 11929,14049 11898,14046 11866,14044 11835,14042 11803,14041 11772,14040 11740,14039 11708,14039 11676,14039 11644,14040 11613,14041 11581,14042 11550,14044 11518,14046 11487,14049 11456,14051 11425,14055 11394,14059 11363,14063 11333,14067 11302,14072 11272,14077 11241,14083 11211,14089 11181,14095 11151,14102 11121,14109 11092,14116 11062,14124 11033,14132 11004,14141 10975,14150 10946,14159 10917,14168 10889,14178 10860,14188 10832,14199 10804,14210 10776,14221 10748,14232 10721,14244 10693,14257 10666,14269 10639,14282 10612,14295 10586,14308 10559,14322 10533,14336 10507,14351 10481,14365 10430,14396 10379,14427 10330,14460 10281,14494 10233,14528 10186,14565 10140,14602 10095,14640 10050,14679 10007,14719 9965,14761 9924,14803 9883,14846 9844,14891 9806,14936 9769,14982 9733,15029 9698,15077 9664,15126 9631,15175 9600,15226 9569,15277 9555,15303 9540,15329 9526,15355 9513,15382 9499,15408 9486,15435 9473,15462 9461,15489 9448,15517 9437,15544 9425,15572 9414,15600 9403,15628 9392,15656 9382,15685 9372,15713 9363,15742 9354,15771 9345,15800 9336,15829 9328,15858 9320,15888 9313,15917 9306,15947 9299,15977 9293,16007 9287,16037 9281,16068 9276,16098 9271,16128 9267,16159 9263,16190 9259,16221 9256,16252 9253,16283 9250,16314 9248,16346 9246,16377 9245,16409 9244,16440 9243,16472 9243,16504 Z"/><path d="M 8971,11675 L 8998,11674 9025,11673 9052,11670 9078,11666 9105,11661 9131,11654 9157,11646 9182,11637 9207,11626 9232,11614 9256,11600 9279,11586 9291,11578 9302,11570 9314,11561 9325,11553 9335,11543 9346,11534 9357,11524 9367,11514 9377,11504 9387,11493 9396,11482 9405,11471 9414,11460 9422,11449 9430,11437 9438,11426 9452,11402 9465,11378 9477,11353 9487,11328 9496,11302 9504,11276 9511,11250 9516,11224 9520,11197 9522,11170 9523,11143 9523,11117 9533,11097 9542,11077 9550,11057 9558,11037 9565,11017 9572,10998 9578,10979 9583,10959 9588,10940 9592,10921 9596,10903 9599,10884 9601,10866 9603,10848 9604,10831 9605,10813 9605,10796 9604,10779 9603,10763 9600,10747 9598,10731 9594,10716 9590,10701 9586,10686 9580,10672 9574,10658 9567,10645 9560,10632 9552,10620 9543,10608 9533,10597 9523,10586 9512,10576 9501,10567 9489,10558 9477,10550 9464,10543 9451,10536 9437,10530 9423,10525 9408,10521 9393,10517 9378,10513 9362,10511 9346,10509 9329,10508 9313,10507 9295,10507 9278,10508 9260,10509 9242,10511 9224,10514 9206,10517 9187,10521 9168,10525 9150,10530 9130,10536 9111,10542 9092,10549 9072,10557 9052,10565 9033,10574 9013,10583 8993,10593 8966,10593 8939,10594 8913,10597 8886,10601 8860,10606 8834,10613 8808,10621 8782,10631 8757,10641 8732,10653 8708,10667 8685,10681 8673,10689 8662,10697 8651,10706 8640,10715 8629,10724 8618,10733 8608,10743 8597,10753 8587,10763 8578,10774 8568,10785 8559,10796 8551,10807 8542,10818 8534,10830 8526,10841 8512,10865 8499,10889 8487,10914 8477,10939 8468,10965 8460,10991 8454,11017 8448,11044 8445,11070 8442,11097 8441,11124 8441,11150 8432,11170 8423,11190 8414,11210 8406,11230 8399,11250 8392,11269 8386,11289 8381,11308 8376,11327 8372,11346 8368,11364 8365,11383 8363,11401 8361,11419 8360,11437 8359,11454 8359,11471 8360,11488 8362,11504 8364,11520 8366,11536 8370,11551 8374,11566 8379,11581 8384,11595 8390,11609 8397,11622 8404,11635 8412,11647 8421,11659 8431,11670 8441,11681 8452,11691 8463,11700 8475,11709 8487,11717 8500,11724 8514,11731 8527,11737 8542,11742 8556,11747 8571,11750 8587,11754 8602,11756 8618,11758 8635,11759 8652,11760 8669,11760 8686,11759 8704,11758 8722,11756 8740,11753 8758,11750 8777,11746 8796,11742 8815,11737 8834,11731 8853,11725 8873,11718 8892,11710 8912,11702 8932,11694 8951,11684 8971,11675 Z"/><path d="M 8602,11518 L 8582,11498 8564,11477 8547,11456 8532,11434 8517,11411 8504,11388 8492,11364 8482,11340 8472,11315 8464,11291 8457,11265 8451,11240 8447,11214 8444,11188 8442,11163 8441,11137 8441,11111 8443,11085 8446,11059 8450,11033 8456,11008 8462,10982 8470,10957 8479,10933 8490,10908 8501,10885 8514,10861 8528,10838 8544,10816 8560,10794 8578,10773 8597,10753 8617,10734 8638,10716 8660,10699 8682,10683 8705,10669 8728,10656 8751,10644 8776,10633 8800,10624 8825,10616 8850,10609 8876,10603 8901,10598 8927,10595 8953,10593 8979,10592 9005,10593 9031,10595 9057,10598 9082,10602 9108,10607 9133,10614 9158,10622 9183,10631 9207,10641 9231,10653 9254,10666 9277,10680 9300,10695 9321,10712 9342,10730 9363,10749 9382,10769 9400,10790 9417,10811 9432,10833 9447,10856 9460,10879 9472,10903 9482,10927 9492,10952 9500,10977 9507,11002 9513,11027 9517,11053 9520,11079 9522,11105 9523,11131 9523,11156 9521,11182 9518,11208 9514,11234 9508,11259 9502,11285 9494,11310 9485,11334 9474,11359 9463,11383 9450,11406 9436,11429 9420,11451 9404,11473 9386,11494 9367,11514 9347,11533 9326,11551 9304,11568 9282,11584 9260,11598 9236,11611 9213,11623 9189,11634 9164,11643 9139,11652 9114,11658 9088,11664 9063,11669 9037,11672 9011,11674 8985,11675 8959,11674 8933,11672 8907,11670 8882,11665 8856,11660 8831,11653 8806,11645 8781,11636 8757,11626 8733,11614 8710,11601 8687,11587 8665,11572 8643,11555 8622,11537 8602,11518 Z"/><path d="M 11287,11434 L 11288,11412 11289,11391 11292,11370 11296,11349 11300,11329 11306,11309 11313,11289 11320,11270 11329,11252 11338,11234 11348,11216 11359,11199 11371,11182 11383,11166 11396,11151 11410,11137 11425,11123 11440,11109 11456,11097 11473,11085 11490,11074 11507,11064 11526,11055 11544,11046 11563,11039 11583,11032 11603,11027 11623,11022 11644,11018 11665,11015 11686,11014 11708,11013 11730,11014 11751,11015 11772,11018 11793,11022 11813,11027 11833,11032 11853,11039 11872,11046 11890,11055 11909,11064 11926,11074 11943,11085 11960,11097 11976,11109 11991,11123 12006,11137 12020,11151 12033,11166 12045,11182 12057,11199 12068,11216 12078,11234 12087,11252 12096,11270 12103,11289 12110,11309 12116,11329 12120,11349 12124,11370 12127,11391 12128,11412 12129,11434 12128,11456 12127,11477 12124,11498 12120,11519 12116,11539 12110,11559 12103,11579 12096,11598 12087,11617 12078,11635 12068,11652 12057,11669 12045,11686 12033,11702 12020,11717 12006,11732 11991,11746 11976,11759 11960,11771 11943,11783 11926,11794 11909,11804 11890,11814 11872,11822 11853,11829 11833,11836 11813,11842 11793,11846 11772,11850 11751,11853 11730,11854 11708,11855 11686,11854 11665,11853 11644,11850 11623,11846 11603,11842 11583,11836 11563,11829 11544,11822 11526,11814 11507,11804 11490,11794 11473,11783 11456,11771 11440,11759 11425,11746 11410,11732 11396,11717 11383,11702 11371,11686 11359,11669 11348,11652 11338,11635 11329,11617 11320,11598 11313,11579 11306,11559 11300,11539 11296,11519 11292,11498 11289,11477 11288,11456 11287,11434 Z"/><path d="M 11287,16504 L 11288,16482 11289,16461 11292,16440 11296,16419 11300,16399 11306,16379 11313,16359 11320,16340 11329,16321 11338,16303 11348,16286 11359,16269 11371,16252 11383,16236 11396,16221 11410,16206 11425,16192 11440,16179 11456,16167 11473,16155 11490,16144 11507,16134 11526,16125 11544,16116 11563,16109 11583,16102 11603,16096 11623,16092 11644,16088 11665,16085 11686,16084 11708,16083 11730,16084 11751,16085 11772,16088 11793,16092 11813,16096 11833,16102 11853,16109 11872,16116 11890,16125 11909,16134 11926,16144 11943,16155 11960,16167 11976,16179 11991,16192 12006,16206 12020,16221 12033,16236 12045,16252 12057,16269 12068,16286 12078,16303 12087,16321 12096,16340 12103,16359 12110,16379 12116,16399 12120,16419 12124,16440 12127,16461 12128,16482 12129,16504 12128,16526 12127,16547 12124,16568 12120,16589 12116,16609 12110,16629 12103,16649 12096,16668 12087,16686 12078,16704 12068,16722 12057,16739 12045,16756 12033,16772 12020,16787 12006,16801 11991,16815 11976,16829 11960,16841 11943,16853 11926,16864 11909,16874 11890,16883 11872,16892 11853,16899 11833,16906 11813,16911 11793,16916 11772,16920 11751,16923 11730,16924 11708,16925 11686,16924 11665,16923 11644,16920 11623,16916 11603,16911 11583,16906 11563,16899 11544,16892 11526,16883 11507,16874 11490,16864 11473,16853 11456,16841 11440,16829 11425,16815 11410,16801 11396,16787 11383,16772 11371,16756 11359,16739 11348,16722 11338,16704 11329,16686 11320,16668 11313,16649 11306,16629 11300,16609 11296,16589 11292,16568 11289,16547 11288,16526 11287,16504 Z"/><path d="M 8454,14053 L 8454,14053 8454,14053 8454,14053 8454,14053 10266,10639 10135,10569 8362,13909 7649,13909 7649,14053 8454,14053 Z"/><path d="M 11140,11083 L 11140,15719 11284,15719 11284,10995 11284,10995 10494,10569 10427,10698 11140,11083 Z"/><path d="M 11154,15657 L 11155,15651 11155,15645 11157,15640 11159,15634 11161,15629 11164,15624 11168,15619 11172,15615 11176,15611 11181,15608 11186,15605 11191,15602 11196,15600 11202,15598 11208,15598 11214,15597 11220,15598 11226,15598 11232,15600 11238,15602 11243,15605 11248,15608 11253,15611 11257,15615 11261,15619 11264,15624 11267,15629 11270,15634 11272,15640 11273,15645 11274,15651 11274,15657 11274,15664 11273,15669 11272,15675 11270,15681 11267,15686 11264,15691 11261,15696 11257,15700 11253,15704 11248,15707 11243,15710 11238,15713 11232,15715 11226,15716 11220,15717 11214,15718 11208,15717 11202,15716 11196,15715 11191,15713 11186,15710 11181,15707 11176,15704 11172,15700 11168,15696 11164,15691 11161,15686 11159,15681 11157,15675 11155,15669 11155,15664 11154,15657 Z"/><path d="M 11154,12477 L 11155,12470 11156,12464 11157,12459 11159,12453 11162,12448 11165,12443 11168,12438 11172,12434 11176,12430 11181,12427 11186,12424 11191,12421 11197,12419 11202,12418 11208,12417 11215,12416 11221,12417 11227,12418 11232,12419 11238,12421 11243,12424 11248,12427 11253,12430 11257,12434 11261,12438 11264,12443 11267,12448 11270,12453 11272,12459 11273,12464 11274,12470 11275,12477 11274,12483 11273,12489 11272,12494 11270,12500 11267,12505 11264,12510 11261,12515 11257,12519 11253,12523 11248,12526 11243,12529 11238,12532 11232,12534 11227,12536 11221,12536 11215,12537 11208,12536 11202,12536 11197,12534 11191,12532 11186,12529 11181,12526 11176,12523 11172,12519 11168,12515 11165,12510 11162,12505 11159,12500 11157,12494 11156,12489 11155,12483 11154,12477 Z"/><path d="M 10453,10668 L 10453,10661 10454,10653 10456,10646 10458,10640 10461,10634 10465,10628 10469,10622 10474,10617 10479,10612 10484,10608 10490,10604 10497,10601 10503,10599 10510,10597 10517,10596 10525,10596 10532,10596 10539,10597 10546,10599 10553,10601 10559,10604 10565,10608 10571,10612 10576,10617 10580,10622 10585,10628 10588,10634 10591,10640 10594,10646 10595,10653 10596,10661 10597,10668 10596,10675 10595,10682 10594,10689 10591,10696 10588,10702 10585,10708 10580,10714 10576,10719 10571,10724 10565,10728 10559,10731 10553,10734 10546,10737 10539,10739 10532,10740 10525,10740 10517,10740 10510,10739 10503,10737 10497,10734 10490,10731 10484,10728 10479,10724 10474,10719 10469,10714 10465,10708 10461,10702 10458,10696 10456,10689 10454,10682 10453,10675 10453,10668 Z"/><path d="M 10094,10668 L 10094,10661 10095,10653 10097,10646 10100,10640 10103,10634 10106,10628 10110,10622 10115,10617 10120,10612 10126,10608 10132,10604 10138,10601 10145,10599 10152,10597 10159,10596 10166,10596 10174,10596 10181,10597 10188,10599 10194,10601 10201,10604 10206,10608 10212,10612 10217,10617 10222,10622 10226,10628 10230,10634 10233,10640 10235,10646 10237,10653 10238,10661 10238,10668 10238,10675 10237,10682 10235,10689 10233,10696 10230,10702 10226,10708 10222,10714 10217,10719 10212,10724 10206,10728 10201,10731 10194,10734 10188,10737 10181,10739 10174,10740 10166,10740 10159,10740 10152,10739 10145,10737 10138,10734 10132,10731 10126,10728 10120,10724 10115,10719 10110,10714 10106,10708 10103,10702 10100,10696 10097,10689 10095,10682 10094,10675 10094,10668 Z"/><path d="M 9459,14084 L 9460,14063 9461,14041 9464,14020 9468,14000 9473,13979 9478,13959 9485,13940 9492,13921 9501,13902 9510,13884 9520,13866 9531,13849 9543,13833 9555,13817 9569,13801 9583,13787 9597,13773 9612,13760 9628,13747 9645,13735 9662,13724 9680,13714 9698,13705 9716,13697 9735,13689 9755,13682 9775,13677 9795,13672 9816,13668 9837,13666 9858,13664 9880,13664 9902,13664 9923,13666 9944,13668 9965,13672 9985,13677 10005,13682 10025,13689 10044,13697 10063,13705 10081,13714 10098,13724 10115,13735 10132,13747 10148,13760 10163,13773 10178,13787 10192,13801 10205,13817 10217,13833 10229,13849 10240,13866 10250,13884 10260,13902 10268,13921 10275,13940 10282,13959 10288,13979 10292,14000 10296,14020 10299,14041 10300,14063 10301,14084 10300,14106 10299,14127 10296,14149 10292,14169 10288,14190 10282,14210 10275,14229 10268,14248 10260,14267 10250,14285 10240,14303 10229,14320 10217,14336 10205,14352 10192,14367 10178,14382 10163,14396 10148,14409 10132,14422 10115,14433 10098,14444 10081,14455 10063,14464 10044,14472 10025,14480 10005,14486 9985,14492 9965,14497 9944,14500 9923,14503 9902,14505 9880,14505 9858,14505 9837,14503 9816,14500 9795,14497 9775,14492 9755,14486 9735,14480 9716,14472 9698,14464 9680,14455 9662,14444 9645,14433 9628,14422 9612,14409 9597,14396 9583,14382 9569,14367 9555,14352 9543,14336 9531,14320 9520,14303 9510,14285 9501,14267 9492,14248 9485,14229 9478,14210 9473,14190 9468,14169 9464,14149 9461,14127 9460,14106 9459,14084 Z"/><path d="M 7415,14084 L 7415,14053 7416,14021 7417,13989 7418,13958 7420,13926 7422,13895 7425,13864 7428,13832 7431,13801 7435,13770 7439,13740 7443,13709 7448,13678 7454,13648 7459,13618 7465,13588 7471,13558 7478,13528 7485,13498 7493,13468 7500,13439 7509,13410 7517,13380 7526,13351 7535,13323 7545,13294 7554,13265 7565,13237 7575,13209 7586,13181 7597,13153 7609,13125 7621,13097 7633,13070 7645,13043 7658,13016 7671,12989 7685,12962 7698,12936 7713,12909 7727,12883 7742,12857 7772,12806 7803,12756 7836,12706 7870,12657 7905,12610 7941,12563 7978,12516 8016,12471 8055,12427 8096,12384 8137,12341 8179,12300 8223,12260 8267,12220 8312,12182 8358,12145 8405,12109 8453,12074 8502,12040 8551,12008 8602,11976 8653,11946 8679,11931 8705,11917 8731,11903 8758,11889 8785,11876 8811,11862 8838,11850 8866,11837 8893,11825 8921,11813 8948,11802 8976,11790 9004,11779 9033,11769 9061,11759 9089,11749 9118,11739 9147,11730 9176,11721 9205,11713 9235,11705 9264,11697 9294,11690 9323,11682 9353,11676 9383,11669 9413,11663 9444,11658 9474,11653 9505,11648 9535,11643 9566,11639 9597,11635 9628,11632 9659,11629 9690,11627 9722,11624 9753,11623 9785,11621 9817,11620 9848,11620 9880,11619 9912,11620 9944,11620 9975,11621 10007,11623 10038,11624 10070,11627 10101,11629 10132,11632 10163,11635 10194,11639 10225,11643 10256,11648 10286,11653 10316,11658 10347,11663 10377,11669 10407,11676 10437,11682 10467,11690 10496,11697 10526,11705 10555,11713 10584,11721 10613,11730 10642,11739 10671,11749 10699,11759 10728,11769 10756,11779 10784,11790 10812,11802 10840,11813 10867,11825 10895,11837 10922,11850 10949,11862 10976,11876 11002,11889 11029,11903 11055,11917 11081,11931 11107,11946 11158,11976 11209,12008 11258,12040 11307,12074 11355,12109 11402,12145 11448,12182 11493,12220 11538,12260 11581,12300 11623,12341 11665,12384 11705,12427 11744,12471 11782,12516 11819,12563 11856,12610 11890,12657 11924,12706 11957,12756 11988,12806 12019,12857 12033,12883 12048,12909 12062,12936 12076,12962 12089,12989 12102,13016 12115,13043 12127,13070 12140,13097 12152,13125 12163,13153 12174,13181 12185,13209 12196,13237 12206,13265 12216,13294 12225,13323 12234,13351 12243,13380 12252,13410 12260,13439 12268,13468 12275,13498 12282,13528 12289,13558 12295,13588 12301,13618 12307,13648 12312,13678 12317,13709 12321,13740 12325,13770 12329,13801 12333,13832 12335,13864 12338,13895 12340,13926 12342,13958 12343,13989 12344,14021 12345,14053 12345,14084 12345,14116 12344,14148 12343,14180 12342,14211 12340,14243 12338,14274 12335,14305 12333,14336 12329,14368 12325,14398 12321,14429 12317,14460 12312,14490 12307,14521 12301,14551 12295,14581 12289,14611 12282,14641 12275,14671 12268,14701 12260,14730 12252,14759 12243,14788 12234,14817 12225,14846 12216,14875 12206,14904 12196,14932 12185,14960 12174,14988 12163,15016 12152,15044 12140,15072 12127,15099 12115,15126 12102,15153 12089,15180 12076,15207 12062,15233 12048,15259 12033,15286 12019,15311 11988,15363 11957,15413 11924,15463 11890,15511 11856,15559 11819,15606 11782,15652 11744,15698 11705,15742 11665,15785 11623,15828 11581,15869 11538,15909 11493,15948 11448,15987 11402,16024 11355,16060 11307,16095 11258,16129 11209,16161 11158,16193 11107,16223 11081,16238 11055,16252 11029,16266 11002,16280 10976,16293 10949,16306 10922,16319 10895,16332 10867,16344 10840,16356 10812,16367 10784,16379 10756,16389 10728,16400 10699,16410 10671,16420 10642,16430 10613,16439 10584,16448 10555,16456 10526,16464 10496,16472 10467,16479 10437,16486 10407,16493 10377,16499 10347,16505 10316,16511 10286,16516 10256,16521 10225,16526 10194,16530 10163,16533 10132,16537 10101,16540 10070,16542 10038,16545 10007,16546 9975,16548 9944,16549 9912,16549 9880,16550 9848,16549 9817,16549 9785,16548 9753,16546 9722,16545 9690,16542 9659,16540 9628,16537 9597,16533 9566,16530 9535,16526 9505,16521 9474,16516 9444,16511 9413,16505 9383,16499 9353,16493 9323,16486 9294,16479 9264,16472 9235,16464 9205,16456 9176,16448 9147,16439 9118,16430 9089,16420 9061,16410 9033,16400 9004,16389 8976,16379 8948,16367 8921,16356 8893,16344 8866,16332 8838,16319 8811,16306 8785,16293 8758,16280 8731,16266 8705,16252 8679,16238 8653,16223 8602,16193 8551,16161 8502,16129 8453,16095 8405,16060 8358,16024 8312,15987 8267,15948 8223,15909 8179,15869 8137,15828 8096,15785 8055,15742 8016,15698 7978,15652 7941,15606 7905,15559 7870,15511 7836,15463 7803,15413 7772,15363 7742,15311 7727,15286 7713,15259 7698,15233 7685,15207 7671,15180 7658,15153 7645,15126 7633,15099 7621,15072 7609,15044 7597,15016 7586,14988 7575,14960 7565,14932 7554,14904 7545,14875 7535,14846 7526,14817 7517,14788 7509,14759 7500,14730 7493,14701 7485,14671 7478,14641 7471,14611 7465,14581 7459,14551 7454,14521 7448,14490 7443,14460 7439,14429 7435,14398 7431,14368 7428,14336 7425,14305 7422,14274 7420,14243 7418,14211 7417,14180 7416,14148 7415,14116 7415,14084 Z"/><path d="M 10209,11039 L 10206,11037 10203,11035 10202,11032 10200,11029 10200,11026 10200,11022 10200,11019 10202,11015 10204,11012 10206,11010 10209,11008 10212,11007 10215,11006 10219,11006 10222,11007 10226,11008 10229,11010 10231,11013 10233,11015 10234,11019 10235,11022 10235,11025 10234,11029 10233,11032 10231,11035 10228,11037 10225,11039 10222,11041 10219,11041 10216,11041 10212,11041 10209,11039 Z"/><path d="M 11185,10781 L 11183,10784 11180,10786 11178,10788 11174,10789 11171,10790 11168,10790 11164,10789 11161,10788 11158,10786 11156,10783 11154,10780 11152,10777 11152,10774 11152,10770 11153,10767 11154,10764 11156,10761 11158,10758 11161,10756 11164,10755 11168,10754 11171,10754 11175,10755 11178,10757 11181,10759 11183,10761 11185,10764 11186,10767 11187,10770 11187,10774 11186,10777 11185,10781 Z"/><path d="M 10997,12160 L 11000,12160 11004,12161 11007,12163 11009,12165 11012,12167 11013,12170 11014,12174 11015,12177 11014,12181 11013,12184 11012,12187 11009,12190 11007,12192 11004,12194 11000,12195 10997,12195 10993,12195 10990,12194 10987,12192 10984,12190 10982,12187 10981,12184 10980,12181 10979,12177 10980,12174 10981,12170 10982,12167 10984,12165 10987,12163 10990,12161 10993,12160 10997,12160 Z"/><path d="M 11427,15381 L 11424,15380 11420,15379 11417,15378 11415,15376 11412,15373 11411,15370 11410,15367 11409,15363 11410,15360 11411,15356 11412,15353 11415,15351 11417,15348 11420,15347 11424,15346 11427,15345 11431,15346 11434,15347 11437,15348 11440,15351 11442,15353 11443,15356 11444,15360 11445,15363 11444,15367 11443,15370 11442,15373 11440,15376 11437,15378 11434,15379 11431,15380 11427,15381 Z"/><path d="M 8221,14198 L 8221,14194 8222,14191 8224,14188 8226,14185 8229,14183 8232,14182 8235,14181 8239,14180 8242,14181 8245,14182 8248,14183 8251,14185 8253,14188 8255,14191 8256,14194 8256,14198 8256,14201 8255,14205 8253,14208 8251,14210 8248,14213 8245,14214 8242,14215 8239,14216 8235,14215 8232,14214 8229,14213 8226,14210 8224,14208 8222,14205 8221,14201 8221,14198 Z"/><path d="M 8094,14306 L 8383,14306 8383,14025 8094,14025 8094,14306 Z"/><path d="M 11535,15508 L 11535,15219 11254,15219 11254,15508 11535,15508 Z"/><path d="M 10889,12033 L 10889,12321 11170,12321 11170,12033 10889,12033 Z"/><path d="M 11348,10746 L 11095,10608 10960,10855 11214,10993 11348,10746 Z"/><path d="M 10244,11202 L 10380,10948 10133,10815 9996,11070 10244,11202 Z"/><path d="M 10054,11100 L 10190,10846 9999,10744 9863,10998 10054,11100 Z"/><path d="M 11245,10936 L 10991,10798 10888,10988 11141,11126 11245,10936 Z"/><path d="M 11105,12033 L 11105,12321 11321,12321 11321,12033 11105,12033 Z"/><path d="M 8094,14090 L 8383,14090 8383,13873 8094,13873 8094,14090 Z"/><path d="M 11319,15508 L 11319,15219 11103,15219 11103,15508 11319,15508 Z"/><path d="M 9766,10304 L 9767,10308 9768,10312 9770,10316 9773,10319 9776,10322 9779,10324 9783,10325 9788,10325 9792,10325 9796,10324 9800,10322 9803,10319 9806,10316 9808,10312 9809,10308 9809,10304 9809,10299 9808,10295 9806,10292 9803,10288 9800,10286 9796,10284 9792,10283 9788,10282 9783,10283 9779,10284 9776,10286 9773,10288 9770,10292 9768,10295 9767,10299 9766,10304 Z"/><path d="M 9766,11017 L 9767,11021 9768,11025 9770,11029 9773,11032 9776,11035 9779,11037 9783,11038 9788,11038 9792,11038 9796,11037 9800,11035 9803,11032 9806,11029 9808,11025 9809,11021 9809,11017 9809,11012 9808,11008 9806,11005 9803,11001 9800,10999 9796,10997 9792,10995 9788,10995 9783,10995 9779,10997 9776,10999 9773,11001 9770,11005 9768,11008 9767,11012 9766,11017 Z"/><path d="M 10713,10304 L 10713,10308 10715,10312 10717,10316 10719,10319 10722,10322 10726,10324 10730,10325 10734,10325 10739,10325 10743,10324 10747,10322 10750,10319 10752,10316 10754,10312 10756,10308 10756,10304 10756,10299 10754,10295 10752,10292 10750,10288 10747,10286 10743,10284 10739,10283 10734,10282 10730,10283 10726,10284 10722,10286 10719,10288 10717,10292 10715,10295 10713,10299 10713,10304 Z"/><path d="M 10713,11017 L 10713,11021 10715,11025 10717,11029 10719,11032 10722,11035 10726,11037 10730,11038 10734,11038 10739,11038 10743,11037 10747,11035 10750,11032 10752,11029 10754,11025 10756,11021 10756,11017 10756,11012 10754,11008 10752,11005 10750,11001 10747,10999 10743,10997 10739,10995 10734,10995 10730,10995 10726,10997 10722,10999 10719,11001 10717,11005 10715,11008 10713,11012 10713,11017 Z"/><path d="M 9391,10720 L 9388,10716 9386,10713 9384,10709 9382,10705 9380,10701 9379,10697 9379,10693 9378,10689 9379,10685 9379,10681 9380,10677 9382,10673 9383,10669 9385,10665 9388,10662 9391,10658 9394,10655 9398,10653 9401,10651 9405,10649 9409,10647 9413,10646 9417,10646 9422,10646 9426,10646 9430,10646 9434,10647 9438,10649 9442,10650 9445,10653 9449,10655 9452,10658 9455,10661 9458,10665 9460,10669 9462,10672 9463,10676 9464,10680 9465,10685 9465,10689 9465,10693 9464,10697 9463,10701 9462,10705 9460,10709 9458,10713 9456,10716 9453,10719 9449,10722 9446,10725 9442,10727 9438,10729 9434,10730 9430,10731 9426,10732 9422,10732 9418,10732 9414,10731 9410,10730 9406,10729 9402,10727 9398,10725 9395,10723 9391,10720 Z"/><path d="M 8512,11609 L 8509,11606 8506,11602 8504,11599 8502,11595 8501,11591 8500,11587 8499,11583 8499,11578 8499,11574 8500,11570 8501,11566 8502,11562 8504,11558 8506,11555 8509,11551 8512,11548 8515,11545 8518,11542 8522,11540 8526,11538 8530,11537 8534,11536 8538,11535 8542,11535 8546,11535 8550,11536 8555,11537 8558,11538 8562,11540 8566,11542 8570,11544 8573,11547 8576,11551 8578,11554 8581,11558 8582,11562 8584,11566 8585,11570 8585,11574 8586,11578 8586,11582 8585,11586 8584,11590 8583,11594 8581,11598 8579,11602 8576,11605 8573,11609 8570,11612 8566,11614 8563,11616 8559,11618 8555,11620 8551,11621 8547,11621 8543,11621 8539,11621 8534,11621 8530,11620 8526,11618 8523,11617 8519,11614 8515,11612 8512,11609 Z"/><path d="M 11654,16504 L 11654,16498 11655,16493 11656,16488 11658,16483 11660,16478 11663,16474 11666,16469 11670,16466 11674,16462 11678,16459 11682,16456 11687,16454 11692,16452 11697,16451 11702,16450 11708,16450 11714,16450 11719,16451 11724,16452 11729,16454 11734,16456 11738,16459 11742,16462 11746,16466 11750,16469 11753,16474 11756,16478 11758,16483 11760,16488 11761,16493 11762,16498 11762,16504 11762,16509 11761,16515 11760,16520 11758,16525 11756,16530 11753,16534 11750,16538 11746,16542 11742,16546 11738,16549 11734,16551 11729,16554 11724,16556 11719,16557 11714,16558 11708,16558 11702,16558 11697,16557 11692,16556 11687,16554 11682,16551 11678,16549 11674,16546 11670,16542 11666,16538 11663,16534 11660,16530 11658,16525 11656,16520 11655,16515 11654,16509 11654,16504 Z"/><path d="M 11654,11434 L 11654,11429 11655,11423 11656,11418 11658,11413 11660,11408 11663,11404 11666,11400 11670,11396 11674,11392 11678,11389 11682,11387 11687,11384 11692,11382 11697,11381 11702,11380 11708,11380 11714,11380 11719,11381 11724,11382 11729,11384 11734,11387 11738,11389 11742,11392 11746,11396 11750,11400 11753,11404 11756,11408 11758,11413 11760,11418 11761,11423 11762,11429 11762,11434 11762,11440 11761,11445 11760,11450 11758,11455 11756,11460 11753,11464 11750,11469 11746,11472 11742,11476 11738,11479 11734,11482 11729,11484 11724,11486 11719,11487 11714,11488 11708,11488 11702,11488 11697,11487 11692,11486 11687,11484 11682,11482 11678,11479 11674,11476 11670,11472 11666,11469 11663,11464 11660,11460 11658,11455 11656,11450 11655,11445 11654,11440 11654,11434 Z"/><path d="M 9826,14084 L 9826,14079 9827,14074 9828,14068 9830,14063 9833,14059 9835,14054 9838,14050 9842,14046 9846,14043 9850,14040 9854,14037 9859,14035 9864,14033 9869,14031 9875,14031 9880,14030 9886,14031 9891,14031 9896,14033 9901,14035 9906,14037 9910,14040 9915,14043 9918,14046 9922,14050 9925,14054 9928,14059 9930,14063 9932,14068 9933,14074 9934,14079 9934,14084 9934,14090 9933,14095 9932,14101 9930,14106 9928,14110 9925,14115 9922,14119 9918,14123 9915,14126 9910,14129 9906,14132 9901,14134 9896,14136 9891,14137 9886,14138 9880,14139 9875,14138 9869,14137 9864,14136 9859,14134 9854,14132 9850,14129 9846,14126 9842,14123 9838,14119 9835,14115 9833,14110 9830,14106 9828,14101 9827,14095 9826,14090 9826,14084 Z"/></g></g></g></g></svg>