<?xml version="1.0" encoding="UTF-8"?>
<!DOCTYPE svg PUBLIC "-//W3C//DTD SVG 1.1//EN" "http://www.w3.org/Graphics/SVG/1.1/DTD/svg11.dtd"><svg version="1.1" viewBox="0 0 21590 27940" preserveAspectRatio="xMidYMid" fill-rule="evenodd" xmlns="http://www.w3.org/2000/svg" xmlns:xlink="http://www.w3.org/1999/xlink"><g visibility="visible" id="Default"><desc>Master slide</desc><g style="stroke:none;fill:none"><rect x="0" y="0" width="21590" height="27940"/></g></g><g visibility="visible" id="page1"><desc>Slide</desc><g><desc>Graphic</desc><g><g style="stroke:rgb(255,0,0);fill:none"><path d="M 14575,13970 L 14577,13941 14581,13913 14588,13886 14597,13860 14609,13836 14623,13812 14639,13791 14658,13771 14678,13753 14699,13736 14722,13722 14747,13710 14773,13701 14800,13694 14828,13690 14857,13688 14885,13690 14913,13694 14940,13701 14966,13710 14991,13722 15014,13736 15035,13753 15055,13771 15074,13791 15090,13812 15104,13836 15116,13860 15125,13886 15132,13913 15136,13941 15138,13970 15136,13998 15132,14026 15125,14053 15116,14079 15104,14104 15090,14127 15074,14149 15055,14168 15035,14187 15014,14203 14991,14217 14966,14229 14940,14238 14913,14245 14885,14249 14857,14251 14828,14249 14800,14245 14773,14238 14747,14229 14722,14217 14699,14203 14678,14187 14658,14168 14639,14149 14623,14127 14609,14104 14597,14079 14588,14053 14581,14026 14577,13998 14575,13970 Z"/><path d="M 6450,13970 L 6452,13941 6456,13913 6463,13886 6472,13860 6484,13836 6498,13812 6514,13791 6533,13771 6553,13753 6574,13736 6597,13722 6622,13710 6648,13701 6675,13694 6703,13690 6732,13688 6760,13690 6788,13694 6815,13701 6841,13710 6866,13722 6889,13736 6910,13753 6930,13771 6949,13791 6965,13812 6979,13836 6991,13860 7000,13886 7007,13913 7011,13941 7013,13970 7011,13998 7007,14026 7000,14053 6991,14079 6979,14104 6965,14127 6949,14149 6930,14168 6910,14187 6889,14203 6866,14217 6841,14229 6815,14238 6788,14245 6760,14249 6732,14251 6703,14249 6675,14245 6648,14238 6622,14229 6597,14217 6574,14203 6553,14187 6533,14168 6514,14149 6498,14127 6484,14104 6472,14079 6463,14053 6456,14026 6452,13998 6450,13970 Z"/><path d="M 8245,16391 L 8368,16514 8498,16632 8632,16742 8773,16846 8918,16943 9069,17033 9224,17116 9384,17191 9547,17258 9715,17317 9887,17367 10063,17409 10151,17427 10241,17442 10332,17455 10423,17466 10515,17474 10607,17480 10700,17484 10794,17485 10888,17484 10981,17480 11074,17474 11165,17466 11257,17455 11347,17442 11437,17427 11526,17409 11701,17367 11873,17317 12041,17258 12205,17191 12365,17116 12520,17033 12670,16943 12816,16846 12956,16742 13091,16631 13220,16514 13343,16391 13479,16344 13612,16294 13742,16243 13869,16189 13993,16132 14114,16074 14231,16013 14345,15951 14455,15886 14562,15820 14664,15752 14763,15681 14858,15609 14949,15536 15036,15460 15119,15383 15197,15304 15271,15224 15340,15143 15405,15059 15466,14975 15521,14889 15572,14802 15617,14714 15658,14624 15694,14534 15724,14442 15749,14349 15768,14256 15783,14161 15791,14066 15794,13970 15791,13873 15783,13778 15768,13683 15749,13590 15724,13497 15694,13405 15658,13315 15617,13225 15572,13137 15521,13050 15466,12964 15405,12880 15340,12797 15271,12715 15197,12635 15119,12556 15036,12479 14949,12403 14858,12330 14763,12258 14664,12187 14561,12119 14455,12053 14345,11988 14231,11926 14114,11865 13993,11807 13869,11750 13742,11696 13612,11645 13479,11595 13343,11548 13220,11425 13090,11308 12956,11197 12815,11093 12670,10996 12519,10906 12364,10823 12204,10748 12041,10681 11873,10623 11701,10572 11525,10530 11437,10513 11347,10497 11256,10484 11165,10473 11073,10465 10981,10459 10888,10455 10794,10454 10700,10455 10607,10459 10514,10465 10423,10473 10331,10484 10241,10497 10151,10513 10062,10530 9887,10572 9715,10623 9547,10682 9383,10749 9223,10823 9068,10906 8918,10996 8772,11093 8632,11197 8497,11308 8368,11425 8245,11548 8109,11595 7976,11645 7846,11697 7719,11751 7595,11807 7474,11865 7357,11926 7243,11988 7133,12053 7026,12119 6924,12188 6825,12258 6730,12330 6639,12404 6552,12479 6469,12556 6391,12635 6317,12715 6248,12797 6183,12880 6122,12964 6067,13050 6016,13137 5971,13225 5930,13315 5894,13406 5864,13497 5839,13590 5820,13683 5805,13778 5797,13873 5794,13970 5797,14066 5805,14161 5820,14256 5839,14350 5864,14442 5894,14534 5930,14624 5971,14714 6016,14802 6067,14889 6122,14975 6183,15060 6248,15143 6317,15224 6391,15305 6469,15383 6552,15460 6639,15536 6730,15610 6825,15682 6924,15752 7027,15820 7133,15887 7243,15951 7357,16014 7474,16074 7595,16133 7719,16189 7846,16243 7976,16295 8109,16344 8245,16391 Z"/><path d="M 7278,13970 L 7283,13789 7297,13610 7319,13434 7350,13261 7389,13091 7436,12924 7492,12761 7555,12601 7625,12445 7703,12294 7787,12147 7879,12004 7977,11866 8081,11733 8192,11606 8308,11484 8430,11367 8558,11257 8691,11152 8828,11054 8971,10963 9118,10878 9270,10801 9426,10730 9585,10667 9749,10612 9915,10565 10085,10525 10259,10495 10435,10472 10613,10459 10794,10454 10975,10459 11153,10472 11329,10495 11503,10525 11673,10565 11839,10612 12003,10667 12162,10730 12318,10801 12470,10878 12617,10963 12760,11054 12897,11152 13030,11257 13158,11367 13280,11484 13396,11606 13507,11733 13611,11866 13709,12004 13801,12147 13885,12294 13963,12445 14033,12601 14096,12761 14152,12924 14199,13091 14238,13261 14269,13434 14291,13610 14305,13789 14310,13970 14305,14151 14291,14329 14269,14505 14238,14678 14199,14848 14152,15015 14096,15178 14033,15338 13963,15494 13885,15645 13801,15793 13709,15935 13611,16073 13507,16206 13396,16333 13280,16456 13158,16572 13030,16682 12897,16787 12760,16885 12617,16976 12470,17061 12318,17139 12162,17209 12003,17272 11839,17327 11673,17375 11503,17414 11329,17445 11153,17467 10975,17481 10794,17485 10613,17481 10435,17467 10259,17445 10085,17414 9915,17375 9749,17327 9585,17272 9426,17209 9270,17139 9118,17061 8971,16976 8828,16885 8691,16787 8558,16682 8430,16572 8308,16456 8192,16333 8081,16206 7977,16073 7879,15935 7787,15793 7703,15645 7625,15494 7555,15338 7492,15178 7436,15015 7389,14848 7350,14678 7319,14505 7297,14329 7283,14151 7278,13970 Z"/><path d="M 10013,13970 L 10017,13890 10029,13812 10048,13737 10074,13666 10107,13597 10146,13533 10191,13473 10242,13417 10297,13367 10357,13322 10422,13283 10490,13250 10562,13223 10637,13204 10714,13192 10794,13188 10874,13192 10951,13204 11026,13223 11098,13250 11166,13283 11231,13322 11291,13367 11346,13417 11397,13473 11442,13533 11481,13597 11514,13666 11540,13737 11559,13812 11571,13890 11575,13970 11571,14050 11559,14127 11540,14202 11514,14274 11481,14342 11442,14406 11397,14467 11346,14522 11291,14572 11231,14617 11166,14657 11098,14689 11026,14716 10951,14735 10874,14747 10794,14751 10714,14747 10637,14735 10562,14716 10490,14689 10422,14657 10357,14617 10297,14572 10242,14522 10191,14467 10146,14406 10107,14342 10074,14274 10048,14202 10029,14127 10017,14050 10013,13970 Z"/></g></g></g></g></svg>