  0
SECTION
  2
HEADER
  9
$ACADVER
  1
AC1009
  9
$EXTMIN
 10
0.01038418
 20
0.00964568
 30
0.0
  9
$EXTMAX
 10
2.76096456
 20
2.76609097
 30
0.0
  0
ENDSEC
  0
SECTION
  2
TABLES
  0
TABLE
  2
LAYER
 70
2
 0
LAYER
 2
1
 70
0
 62
1
 6
CONTINUOUS
 0
LAYER
 2
Default Layer
 70
0
 62
1
 6
CONTINUOUS
 0
ENDTAB
 0
ENDSEC
  0
SECTION
  2
ENTITIES
  0
POLYLINE
  8
1
 66
   1
 39
0.000000
 70
    1
  0
VERTEX
  8
0
 10
2.44398451
 20
1.53660411
  0
VERTEX
  8
0
 10
2.54056170
 20
1.55017715
  0
VERTEX
  8
0
 10
2.54270164
 20
1.55056714
  0
VERTEX
  8
0
 10
2.54491480
 20
1.55104962
  0
VERTEX
  8
0
 10
2.54789026
 20
1.55177961
  0
VERTEX
  8
0
 10
2.55029223
 20
1.55242399
  0
VERTEX
  8
0
 10
2.55302447
 20
1.55320803
  0
VERTEX
  8
0
 10
2.55608142
 20
1.55414298
  0
VERTEX
  8
0
 10
2.55946028
 20
1.55524148
  0
VERTEX
  8
0
 10
2.56315463
 20
1.55651366
  0
VERTEX
  8
0
 10
2.56511892
 20
1.55721884
  0
VERTEX
  8
0
 10
2.56716069
 20
1.55797202
  0
VERTEX
  8
0
 10
2.56927868
 20
1.55877500
  0
VERTEX
  8
0
 10
2.57147190
 20
1.55962766
  0
VERTEX
  8
0
 10
2.57373994
 20
1.56053295
  0
VERTEX
  8
0
 10
2.57608266
 20
1.56149185
  0
VERTEX
  8
0
 10
2.57849894
 20
1.56250520
  0
VERTEX
  8
0
 10
2.58098765
 20
1.56357384
  0
VERTEX
  8
0
 10
2.58354840
 20
1.56470074
  0
VERTEX
  8
0
 10
2.58618004
 20
1.56588673
  0
VERTEX
  8
0
 10
2.58888259
 20
1.56713181
  0
VERTEX
  8
0
 10
2.59165352
 20
1.56843964
  0
VERTEX
  8
0
 10
2.59449297
 20
1.56980924
  0
VERTEX
  8
0
 10
2.59740066
 20
1.57124258
  0
VERTEX
  8
0
 10
2.60037521
 20
1.57274245
  0
VERTEX
  8
0
 10
2.60341477
 20
1.57430761
  0
VERTEX
  8
0
 10
2.60651893
 20
1.57594101
  0
VERTEX
  8
0
 10
2.60968757
 20
1.57764362
  0
VERTEX
  8
0
 10
2.61291954
 20
1.57941630
  0
VERTEX
  8
0
 10
2.61621262
 20
1.58126072
  0
VERTEX
  8
0
 10
2.61956667
 20
1.58317789
  0
VERTEX
  8
0
 10
2.62298042
 20
1.58516962
  0
VERTEX
  8
0
 10
2.62645387
 20
1.58723591
  0
VERTEX
  8
0
 10
2.62998380
 20
1.58937832
  0
VERTEX
  8
0
 10
2.63357105
 20
1.59159796
  0
VERTEX
  8
0
 10
2.63721437
 20
1.59389667
  0
VERTEX
  8
0
 10
2.64091165
 20
1.59627516
  0
VERTEX
  8
0
 10
2.64466275
 20
1.59873440
  0
VERTEX
  8
0
 10
2.64846556
 20
1.60127510
  0
VERTEX
  8
0
 10
2.65231982
 20
1.60389923
  0
VERTEX
  8
0
 10
2.65622341
 20
1.60660750
  0
VERTEX
  8
0
 10
2.66017606
 20
1.60940186
  0
VERTEX
  8
0
 10
2.66417693
 20
1.61228121
  0
VERTEX
  8
0
 10
2.66822362
 20
1.61524822
  0
VERTEX
  8
0
 10
2.67231503
 20
1.61830372
  0
VERTEX
  8
0
 10
2.67645102
 20
1.62144870
  0
VERTEX
  8
0
 10
2.68062933
 20
1.62468486
  0
VERTEX
  8
0
 10
2.68484913
 20
1.62801107
  0
VERTEX
  8
0
 10
2.68910902
 20
1.63143014
  0
VERTEX
  8
0
 10
2.69340703
 20
1.63494179
  0
VERTEX
  8
0
 10
2.69774288
 20
1.63854800
  0
VERTEX
  8
0
 10
2.70211546
 20
1.64224961
  0
VERTEX
  8
0
 10
2.70652168
 20
1.64604718
  0
VERTEX
  8
0
 10
2.71096251
 20
1.64994086
  0
VERTEX
  8
0
 10
2.71543460
 20
1.65393317
  0
VERTEX
  8
0
 10
2.71993795
 20
1.65802412
  0
VERTEX
  8
0
 10
2.72447058
 20
1.66221344
  0
VERTEX
  8
0
 10
2.72903110
 20
1.66650393
  0
VERTEX
  8
0
 10
2.73501283
 20
1.67225346
  0
VERTEX
  8
0
 10
2.71251020
 20
1.76349600
  0
VERTEX
  8
0
 10
2.70454167
 20
1.76580507
  0
VERTEX
  8
0
 10
2.69850871
 20
1.76748281
  0
VERTEX
  8
0
 10
2.69254760
 20
1.76908441
  0
VERTEX
  8
0
 10
2.68665907
 20
1.77061200
  0
VERTEX
  8
0
 10
2.68084394
 20
1.77206668
  0
VERTEX
  8
0
 10
2.67510110
 20
1.77344931
  0
VERTEX
  8
0
 10
2.66943421
 20
1.77476240
  0
VERTEX
  8
0
 10
2.66384214
 20
1.77600680
  0
VERTEX
  8
0
 10
2.65832687
 20
1.77718278
  0
VERTEX
  8
0
 10
2.65288797
 20
1.77829330
  0
VERTEX
  8
0
 10
2.64752727
 20
1.77933962
  0
VERTEX
  8
0
 10
2.64224464
 20
1.78032271
  0
VERTEX
  8
0
 10
2.63704177
 20
1.78124482
  0
VERTEX
  8
0
 10
2.63191767
 20
1.78210581
  0
VERTEX
  8
0
 10
2.62687390
 20
1.78290891
  0
VERTEX
  8
0
 10
2.62191241
 20
1.78365440
  0
VERTEX
  8
0
 10
2.61703098
 20
1.78434396
  0
VERTEX
  8
0
 10
2.61223241
 20
1.78497899
  0
VERTEX
  8
0
 10
2.60751740
 20
1.78556160
  0
VERTEX
  8
0
 10
2.60288484
 20
1.78609263
  0
VERTEX
  8
0
 10
2.59833641
 20
1.78657432
  0
VERTEX
  8
0
 10
2.59387199
 20
1.78700767
  0
VERTEX
  8
0
 10
2.58949339
 20
1.78739391
  0
VERTEX
  8
0
 10
2.58519935
 20
1.78773490
  0
VERTEX
  8
0
 10
2.58099059
 20
1.78803272
  0
VERTEX
  8
0
 10
2.57686906
 20
1.78828766
  0
VERTEX
  8
0
 10
2.57283338
 20
1.78850253
  0
VERTEX
  8
0
 10
2.56888551
 20
1.78867761
  0
VERTEX
  8
0
 10
2.56502419
 20
1.78881471
  0
VERTEX
  8
0
 10
2.56125096
 20
1.78891708
  0
VERTEX
  8
0
 10
2.55756598
 20
1.78898371
  0
VERTEX
  8
0
 10
2.55396881
 20
1.78901758
  0
VERTEX
  8
0
 10
2.55046117
 20
1.78902091
  0
VERTEX
  8
0
 10
2.54704205
 20
1.78899357
  0
VERTEX
  8
0
 10
2.54371217
 20
1.78893766
  0
VERTEX
  8
0
 10
2.54047125
 20
1.78885516
  0
VERTEX
  8
0
 10
2.53732014
 20
1.78874718
  0
VERTEX
  8
0
 10
2.53425856
 20
1.78861568
  0
VERTEX
  8
0
 10
2.53128722
 20
1.78846278
  0
VERTEX
  8
0
 10
2.52840611
 20
1.78828847
  0
VERTEX
  8
0
 10
2.52561483
 20
1.78809570
  0
VERTEX
  8
0
 10
2.52291533
 20
1.78788475
  0
VERTEX
  8
0
 10
2.52030412
 20
1.78765914
  0
VERTEX
  8
0
 10
2.51778429
 20
1.78741830
  0
VERTEX
  8
0
 10
2.51535555
 20
1.78716419
  0
VERTEX
  8
0
 10
2.51301651
 20
1.78689963
  0
VERTEX
  8
0
 10
2.51076900
 20
1.78662587
  0
VERTEX
  8
0
 10
2.50861092
 20
1.78634363
  0
VERTEX
  8
0
 10
2.50654408
 20
1.78605416
  0
VERTEX
  8
0
 10
2.50268181
 20
1.78546322
  0
VERTEX
  8
0
 10
2.49917953
 20
1.78486473
  0
VERTEX
  8
0
 10
2.49603855
 20
1.78427090
  0
VERTEX
  8
0
 10
2.49325496
 20
1.78369521
  0
VERTEX
  8
0
 10
2.49082921
 20
1.78314875
  0
VERTEX
  8
0
 10
2.48785486
 20
1.78241089
  0
VERTEX
  8
0
 10
2.48567147
 20
1.78180927
  0
VERTEX
  8
0
 10
2.48359512
 20
1.78115952
  0
VERTEX
  8
0
 10
2.39178194
 20
1.74827071
  0
VERTEX
  8
0
 10
2.32929012
 20
1.88959794
  0
VERTEX
  8
0
 10
2.41540064
 20
1.93538314
  0
VERTEX
  8
0
 10
2.41727850
 20
1.93648224
  0
VERTEX
  8
0
 10
2.41919296
 20
1.93769176
  0
VERTEX
  8
0
 10
2.42173971
 20
1.93939621
  0
VERTEX
  8
0
 10
2.42377613
 20
1.94082239
  0
VERTEX
  8
0
 10
2.42607483
 20
1.94249398
  0
VERTEX
  8
0
 10
2.42862784
 20
1.94441788
  0
VERTEX
  8
0
 10
2.43142744
 20
1.94660604
  0
VERTEX
  8
0
 10
2.43446370
 20
1.94906507
  0
VERTEX
  8
0
 10
2.43606884
 20
1.95039956
  0
VERTEX
  8
0
 10
2.43772905
 20
1.95180596
  0
VERTEX
  8
0
 10
2.43944432
 20
1.95328427
  0
VERTEX
  8
0
 10
2.44121438
 20
1.95483644
  0
VERTEX
  8
0
 10
2.44303628
 20
1.95646208
  0
VERTEX
  8
0
 10
2.44490960
 20
1.95816412
  0
VERTEX
  8
0
 10
2.44683421
 20
1.95994356
  0
VERTEX
  8
0
 10
2.44880729
 20
1.96179899
  0
VERTEX
  8
0
 10
2.45082745
 20
1.96373322
  0
VERTEX
  8
0
 10
2.45289539
 20
1.96574836
  0
VERTEX
  8
0
 10
2.45500831
 20
1.96784302
  0
VERTEX
  8
0
 10
2.45716494
 20
1.97001902
  0
VERTEX
  8
0
 10
2.45936514
 20
1.97227734
  0
VERTEX
  8
0
 10
2.46160681
 20
1.97461869
  0
VERTEX
  8
0
 10
2.46388870
 20
1.97704490
  0
VERTEX
  8
0
 10
2.46620981
 20
1.97955582
  0
VERTEX
  8
0
 10
2.46856902
 20
1.98215232
  0
VERTEX
  8
0
 10
2.47096410
 20
1.98483607
  0
VERTEX
  8
0
 10
2.47339406
 20
1.98760693
  0
VERTEX
  8
0
 10
2.47585764
 20
1.99046675
  0
VERTEX
  8
0
 10
2.47835386
 20
1.99341537
  0
VERTEX
  8
0
 10
2.48088047
 20
1.99645448
  0
VERTEX
  8
0
 10
2.48343761
 20
1.99958311
  0
VERTEX
  8
0
 10
2.48602277
 20
2.00280492
  0
VERTEX
  8
0
 10
2.48863425
 20
2.00611764
  0
VERTEX
  8
0
 10
2.49127178
 20
2.00952327
  0
VERTEX
  8
0
 10
2.49393226
 20
2.01302235
  0
VERTEX
  8
0
 10
2.49661543
 20
2.01661687
  0
VERTEX
  8
0
 10
2.49932044
 20
2.02030569
  0
VERTEX
  8
0
 10
2.50204419
 20
2.02408939
  0
VERTEX
  8
0
 10
2.50478642
 20
2.02796994
  0
VERTEX
  8
0
 10
2.50754614
 20
2.03194718
  0
VERTEX
  8
0
 10
2.51032026
 20
2.03602171
  0
VERTEX
  8
0
 10
2.51310781
 20
2.04019336
  0
VERTEX
  8
0
 10
2.51590751
 20
2.04446398
  0
VERTEX
  8
0
 10
2.51871825
 20
2.04883441
  0
VERTEX
  8
0
 10
2.52153820
 20
2.05330339
  0
VERTEX
  8
0
 10
2.52436512
 20
2.05787260
  0
VERTEX
  8
0
 10
2.52719900
 20
2.06254206
  0
VERTEX
  8
0
 10
2.53003677
 20
2.06731232
  0
VERTEX
  8
0
 10
2.53287827
 20
2.07218438
  0
VERTEX
  8
0
 10
2.53572057
 20
2.07715781
  0
VERTEX
  8
0
 10
2.53856353
 20
2.08223360
  0
VERTEX
  8
0
 10
2.54140418
 20
2.08741133
  0
VERTEX
  8
0
 10
2.54424128
 20
2.09269284
  0
VERTEX
  8
0
 10
2.54707398
 20
2.09807700
  0
VERTEX
  8
0
 10
2.54990018
 20
2.10356452
  0
VERTEX
  8
0
 10
2.55271790
 20
2.10915512
  0
VERTEX
  8
0
 10
2.55637235
 20
2.11660387
  0
VERTEX
  8
0
 10
2.50402081
 20
2.19464686
  0
VERTEX
  8
0
 10
2.49574193
 20
2.19409193
  0
VERTEX
  8
0
 10
2.48949989
 20
2.19360469
  0
VERTEX
  8
0
 10
2.48335056
 20
2.19307132
  0
VERTEX
  8
0
 10
2.47729380
 20
2.19249281
  0
VERTEX
  8
0
 10
2.47133144
 20
2.19187042
  0
VERTEX
  8
0
 10
2.46546320
 20
2.19120611
  0
VERTEX
  8
0
 10
2.45968880
 20
2.19050186
  0
VERTEX
  8
0
 10
2.45400825
 20
2.18975765
  0
VERTEX
  8
0
 10
2.44842296
 20
2.18897770
  0
VERTEX
  8
0
 10
2.44293209
 20
2.18816089
  0
VERTEX
  8
0
 10
2.43753718
 20
2.18731044
  0
VERTEX
  8
0
 10
2.43223711
 20
2.18642721
  0
VERTEX
  8
0
 10
2.42703246
 20
2.18551426
  0
VERTEX
  8
0
 10
2.42192237
 20
2.18457050
  0
VERTEX
  8
0
 10
2.41690925
 20
2.18360026
  0
VERTEX
  8
0
 10
2.41199113
 20
2.18260326
  0
VERTEX
  8
0
 10
2.40716872
 20
2.18158161
  0
VERTEX
  8
0
 10
2.40244258
 20
2.18053840
  0
VERTEX
  8
0
 10
2.39781187
 20
2.17947251
  0
VERTEX
  8
0
 10
2.39327716
 20
2.17838703
  0
VERTEX
  8
0
 10
2.38883817
 20
2.17728392
  0
VERTEX
  8
0
 10
2.38449574
 20
2.17616429
  0
VERTEX
  8
0
 10
2.38024764
 20
2.17502986
  0
VERTEX
  8
0
 10
2.37609667
 20
2.17388200
  0
VERTEX
  8
0
 10
2.37204060
 20
2.17272241
  0
VERTEX
  8
0
 10
2.36807928
 20
2.17155208
  0
VERTEX
  8
0
 10
2.36421441
 20
2.17037324
  0
VERTEX
  8
0
 10
2.36044374
 20
2.16918759
  0
VERTEX
  8
0
 10
2.35676909
 20
2.16799639
  0
VERTEX
  8
0
 10
2.35318824
 20
2.16680132
  0
VERTEX
  8
0
 10
2.34970286
 20
2.16560463
  0
VERTEX
  8
0
 10
2.34631099
 20
2.16440605
  0
VERTEX
  8
0
 10
2.34301320
 20
2.16320865
  0
VERTEX
  8
0
 10
2.33981034
 20
2.16201357
  0
VERTEX
  8
0
 10
2.33670015
 20
2.16082249
  0
VERTEX
  8
0
 10
2.33368251
 20
2.15963639
  0
VERTEX
  8
0
 10
2.33075813
 20
2.15845739
  0
VERTEX
  8
0
 10
2.32792671
 20
2.15728744
  0
VERTEX
  8
0
 10
2.32518729
 20
2.15612641
  0
VERTEX
  8
0
 10
2.32253944
 20
2.15497724
  0
VERTEX
  8
0
 10
2.31998289
 20
2.15384191
  0
VERTEX
  8
0
 10
2.31751666
 20
2.15272028
  0
VERTEX
  8
0
 10
2.31514145
 20
2.15161444
  0
VERTEX
  8
0
 10
2.31285600
 20
2.15052624
  0
VERTEX
  8
0
 10
2.31066005
 20
2.14945762
  0
VERTEX
  8
0
 10
2.30855344
 20
2.14840959
  0
VERTEX
  8
0
 10
2.30653408
 20
2.14738285
  0
VERTEX
  8
0
 10
2.30460365
 20
2.14637963
  0
VERTEX
  8
0
 10
2.30276005
 20
2.14540064
  0
VERTEX
  8
0
 10
2.29933210
 20
2.14352422
  0
VERTEX
  8
0
 10
2.29624674
 20
2.14176413
  0
VERTEX
  8
0
 10
2.29349740
 20
2.14013148
  0
VERTEX
  8
0
 10
2.29107933
 20
2.13863862
  0
VERTEX
  8
0
 10
2.28898623
 20
2.13729471
  0
VERTEX
  8
0
 10
2.28644425
 20
2.13558492
  0
VERTEX
  8
0
 10
2.28459835
 20
2.13427274
  0
VERTEX
  8
0
 10
2.28286897
 20
2.13295187
  0
VERTEX
  8
0
 10
2.20784135
 20
2.07064495
  0
VERTEX
  8
0
 10
2.10078157
 20
2.18207570
  0
VERTEX
  8
0
 10
2.16603918
 20
2.25455174
  0
VERTEX
  8
0
 10
2.16742815
 20
2.25622582
  0
VERTEX
  8
0
 10
2.16881360
 20
2.25801771
  0
VERTEX
  8
0
 10
2.17062380
 20
2.26048993
  0
VERTEX
  8
0
 10
2.17204899
 20
2.26252703
  0
VERTEX
  8
0
 10
2.17363778
 20
2.26488390
  0
VERTEX
  8
0
 10
2.17537951
 20
2.26756506
  0
VERTEX
  8
0
 10
2.17726100
 20
2.27057869
  0
VERTEX
  8
0
 10
2.17927371
 20
2.27392858
  0
VERTEX
  8
0
 10
2.18032486
 20
2.27573064
  0
VERTEX
  8
0
 10
2.18140485
 20
2.27761997
  0
VERTEX
  8
0
 10
2.18251074
 20
2.27959616
  0
VERTEX
  8
0
 10
2.18364336
 20
2.28166032
  0
VERTEX
  8
0
 10
2.18479893
 20
2.28381093
  0
VERTEX
  8
0
 10
2.18597801
 20
2.28605107
  0
VERTEX
  8
0
 10
2.18717667
 20
2.28838019
  0
VERTEX
  8
0
 10
2.18839673
 20
2.29079954
  0
VERTEX
  8
0
 10
2.18963329
 20
2.29330844
  0
VERTEX
  8
0
 10
2.19088704
 20
2.29590899
  0
VERTEX
  8
0
 10
2.19215617
 20
2.29859993
  0
VERTEX
  8
0
 10
2.19343954
 20
2.30138210
  0
VERTEX
  8
0
 10
2.19473394
 20
2.30425707
  0
VERTEX
  8
0
 10
2.19603949
 20
2.30722383
  0
VERTEX
  8
0
 10
2.19735397
 20
2.31028410
  0
VERTEX
  8
0
 10
2.19867637
 20
2.31343772
  0
VERTEX
  8
0
 10
2.20000475
 20
2.31668442
  0
VERTEX
  8
0
 10
2.20133798
 20
2.32002504
  0
VERTEX
  8
0
 10
2.20267394
 20
2.32346030
  0
VERTEX
  8
0
 10
2.20401068
 20
2.32698991
  0
VERTEX
  8
0
 10
2.20534806
 20
2.33061486
  0
VERTEX
  8
0
 10
2.20668313
 20
2.33433474
  0
VERTEX
  8
0
 10
2.20801589
 20
2.33814954
  0
VERTEX
  8
0
 10
2.20934311
 20
2.34206082
  0
VERTEX
  8
0
 10
2.21066394
 20
2.34606745
  0
VERTEX
  8
0
 10
2.21197741
 20
2.35016930
  0
VERTEX
  8
0
 10
2.21328127
 20
2.35436805
  0
VERTEX
  8
0
 10
2.21457369
 20
2.35866246
  0
VERTEX
  8
0
 10
2.21585342
 20
2.36305433
  0
VERTEX
  8
0
 10
2.21711876
 20
2.36754145
  0
VERTEX
  8
0
 10
2.21836845
 20
2.37212562
  0
VERTEX
  8
0
 10
2.21960054
 20
2.37680657
  0
VERTEX
  8
0
 10
2.22081402
 20
2.38158417
  0
VERTEX
  8
0
 10
2.22200694
 20
2.38645815
  0
VERTEX
  8
0
 10
2.22317720
 20
2.39142920
  0
VERTEX
  8
0
 10
2.22432381
 20
2.39649718
  0
VERTEX
  8
0
 10
2.22544493
 20
2.40166085
  0
VERTEX
  8
0
 10
2.22653932
 20
2.40692202
  0
VERTEX
  8
0
 10
2.22760430
 20
2.41227832
  0
VERTEX
  8
0
 10
2.22863959
 20
2.41773172
  0
VERTEX
  8
0
 10
2.22964323
 20
2.42328193
  0
VERTEX
  8
0
 10
2.23061339
 20
2.42892769
  0
VERTEX
  8
0
 10
2.23154809
 20
2.43466874
  0
VERTEX
  8
0
 10
2.23244707
 20
2.44050703
  0
VERTEX
  8
0
 10
2.23330681
 20
2.44643907
  0
VERTEX
  8
0
 10
2.23412788
 20
2.45246794
  0
VERTEX
  8
0
 10
2.23490661
 20
2.45859112
  0
VERTEX
  8
0
 10
2.23564203
 20
2.46480848
  0
VERTEX
  8
0
 10
2.23652795
 20
2.47305826
  0
VERTEX
  8
0
 10
2.16064143
 20
2.52848909
  0
VERTEX
  8
0
 10
2.15305264
 20
2.52513557
  0
VERTEX
  8
0
 10
2.14735301
 20
2.52254385
  0
VERTEX
  8
0
 10
2.14175642
 20
2.51993955
  0
VERTEX
  8
0
 10
2.13626370
 20
2.51732377
  0
VERTEX
  8
0
 10
2.13087333
 20
2.51470032
  0
VERTEX
  8
0
 10
2.12558544
 20
2.51206821
  0
VERTEX
  8
0
 10
2.12040047
 20
2.50943152
  0
VERTEX
  8
0
 10
2.11531742
 20
2.50679010
  0
VERTEX
  8
0
 10
2.11033602
 20
2.50414592
  0
VERTEX
  8
0
 10
2.10545600
 20
2.50150095
  0
VERTEX
  8
0
 10
2.10067624
 20
2.49885603
  0
VERTEX
  8
0
 10
2.09599828
 20
2.49621440
  0
VERTEX
  8
0
 10
2.09141918
 20
2.49357562
  0
VERTEX
  8
0
 10
2.08694063
 20
2.49094196
  0
VERTEX
  8
0
 10
2.08256150
 20
2.48831425
  0
VERTEX
  8
0
 10
2.07828125
 20
2.48569642
  0
VERTEX
  8
0
 10
2.07409902
 20
2.48308735
  0
VERTEX
  8
0
 10
2.07001455
 20
2.48048902
  0
VERTEX
  8
0
 10
2.06602840
 20
2.47790450
  0
VERTEX
  8
0
 10
2.06213761
 20
2.47533339
  0
VERTEX
  8
0
 10
2.05834375
 20
2.47277891
  0
VERTEX
  8
0
 10
2.05464583
 20
2.47024092
  0
VERTEX
  8
0
 10
2.05104245
 20
2.46772223
  0
VERTEX
  8
0
 10
2.04753446
 20
2.46522397
  0
VERTEX
  8
0
 10
2.04411975
 20
2.46274683
  0
VERTEX
  8
0
 10
2.04079805
 20
2.46029280
  0
VERTEX
  8
0
 10
2.03756823
 20
2.45786270
  0
VERTEX
  8
0
 10
2.03443086
 20
2.45545964
  0
VERTEX
  8
0
 10
2.03138496
 20
2.45308347
  0
VERTEX
  8
0
 10
2.02842942
 20
2.45073503
  0
VERTEX
  8
0
 10
2.02556366
 20
2.44841827
  0
VERTEX
  8
0
 10
2.02278588
 20
2.44613191
  0
VERTEX
  8
0
 10
2.02009663
 20
2.44387906
  0
VERTEX
  8
0
 10
2.01749480
 20
2.44166054
  0
VERTEX
  8
0
 10
2.01498024
 20
2.43947736
  0
VERTEX
  8
0
 10
2.01255071
 20
2.43733119
  0
VERTEX
  8
0
 10
2.01020609
 20
2.43522302
  0
VERTEX
  8
0
 10
2.00794510
 20
2.43315467
  0
VERTEX
  8
0
 10
2.00576760
 20
2.43112714
  0
VERTEX
  8
0
 10
2.00367235
 20
2.42914225
  0
VERTEX
  8
0
 10
2.00165835
 20
2.42719985
  0
VERTEX
  8
0
 10
1.99972519
 20
2.42530291
  0
VERTEX
  8
0
 10
1.99787076
 20
2.42345213
  0
VERTEX
  8
0
 10
1.99609606
 20
2.42164764
  0
VERTEX
  8
0
 10
1.99439771
 20
2.41989198
  0
VERTEX
  8
0
 10
1.99277656
 20
2.41818628
  0
VERTEX
  8
0
 10
1.99123051
 20
2.41653123
  0
VERTEX
  8
0
 10
1.98975941
 20
2.41492783
  0
VERTEX
  8
0
 10
1.98836201
 20
2.41337789
  0
VERTEX
  8
0
 10
1.98578284
 20
2.41044168
  0
VERTEX
  8
0
 10
1.98348459
 20
2.40773243
  0
VERTEX
  8
0
 10
1.98145913
 20
2.40525804
  0
VERTEX
  8
0
 10
1.97969806
 20
2.40302835
  0
VERTEX
  8
0
 10
1.97819143
 20
2.40104999
  0
VERTEX
  8
0
 10
1.97638684
 20
2.39857355
  0
VERTEX
  8
0
 10
1.97510078
 20
2.39670940
  0
VERTEX
  8
0
 10
1.97392852
 20
2.39487728
  0
VERTEX
  8
0
 10
1.92473586
 20
2.31066640
  0
VERTEX
  8
0
 10
1.78602001
 20
2.37875940
  0
VERTEX
  8
0
 10
1.82255451
 20
2.46918422
  0
VERTEX
  8
0
 10
1.82328622
 20
2.47123314
  0
VERTEX
  8
0
 10
1.82397563
 20
2.47339043
  0
VERTEX
  8
0
 10
1.82483139
 20
2.47633308
  0
VERTEX
  8
0
 10
1.82547446
 20
2.47873451
  0
VERTEX
  8
0
 10
1.82616158
 20
2.48149305
  0
VERTEX
  8
0
 10
1.82687985
 20
2.48460788
  0
VERTEX
  8
0
 10
1.82761761
 20
2.48808339
  0
VERTEX
  8
0
 10
1.82836292
 20
2.49191890
  0
VERTEX
  8
0
 10
1.82873505
 20
2.49397244
  0
VERTEX
  8
0
 10
1.82910331
 20
2.49611767
  0
VERTEX
  8
0
 10
1.82946700
 20
2.49835250
  0
VERTEX
  8
0
 10
1.82982485
 20
2.50067875
  0
VERTEX
  8
0
 10
1.83017492
 20
2.50309615
  0
VERTEX
  8
0
 10
1.83051634
 20
2.50560357
  0
VERTEX
  8
0
 10
1.83084687
 20
2.50820270
  0
VERTEX
  8
0
 10
1.83116554
 20
2.51089341
  0
VERTEX
  8
0
 10
1.83146953
 20
2.51367430
  0
VERTEX
  8
0
 10
1.83175871
 20
2.51654635
  0
VERTEX
  8
0
 10
1.83203110
 20
2.51950929
  0
VERTEX
  8
0
 10
1.83228473
 20
2.52256284
  0
VERTEX
  8
0
 10
1.83251864
 20
2.52570685
  0
VERTEX
  8
0
 10
1.83273085
 20
2.52894106
  0
VERTEX
  8
0
 10
1.83291925
 20
2.53226617
  0
VERTEX
  8
0
 10
1.83308286
 20
2.53568205
  0
VERTEX
  8
0
 10
1.83322085
 20
2.53918757
  0
VERTEX
  8
0
 10
1.83333123
 20
2.54278245
  0
VERTEX
  8
0
 10
1.83341093
 20
2.54646726
  0
VERTEX
  8
0
 10
1.83345994
 20
2.55024201
  0
VERTEX
  8
0
 10
1.83347742
 20
2.55410557
  0
VERTEX
  8
0
 10
1.83345943
 20
2.55805740
  0
VERTEX
  8
0
 10
1.83340696
 20
2.56209762
  0
VERTEX
  8
0
 10
1.83331693
 20
2.56622680
  0
VERTEX
  8
0
 10
1.83318749
 20
2.57044370
  0
VERTEX
  8
0
 10
1.83301866
 20
2.57474830
  0
VERTEX
  8
0
 10
1.83280762
 20
2.57913921
  0
VERTEX
  8
0
 10
1.83255325
 20
2.58361727
  0
VERTEX
  8
0
 10
1.83225373
 20
2.58818123
  0
VERTEX
  8
0
 10
1.83190904
 20
2.59283109
  0
VERTEX
  8
0
 10
1.83151526
 20
2.59756628
  0
VERTEX
  8
0
 10
1.83107253
 20
2.60238584
  0
VERTEX
  8
0
 10
1.83057776
 20
2.60729032
  0
VERTEX
  8
0
 10
1.83003207
 20
2.61227888
  0
VERTEX
  8
0
 10
1.82943167
 20
2.61735000
  0
VERTEX
  8
0
 10
1.82877543
 20
2.62250450
  0
VERTEX
  8
0
 10
1.82806264
 20
2.62774029
  0
VERTEX
  8
0
 10
1.82729220
 20
2.63305821
  0
VERTEX
  8
0
 10
1.82646142
 20
2.63845589
  0
VERTEX
  8
0
 10
1.82556904
 20
2.64393514
  0
VERTEX
  8
0
 10
1.82461351
 20
2.64949275
  0
VERTEX
  8
0
 10
1.82359456
 20
2.65513067
  0
VERTEX
  8
0
 10
1.82250866
 20
2.66084542
  0
VERTEX
  8
0
 10
1.82135667
 20
2.66663810
  0
VERTEX
  8
0
 10
1.82013577
 20
2.67250732
  0
VERTEX
  8
0
 10
1.81884497
 20
2.67845295
  0
VERTEX
  8
0
 10
1.81748260
 20
2.68447274
  0
VERTEX
  8
0
 10
1.81604752
 20
2.69056753
  0
VERTEX
  8
0
 10
1.81405917
 20
2.69862290
  0
VERTEX
  8
0
 10
1.72378976
 20
2.72475596
  0
VERTEX
  8
0
 10
1.71780565
 20
2.71900911
  0
VERTEX
  8
0
 10
1.71333575
 20
2.71462307
  0
VERTEX
  8
0
 10
1.70896856
 20
2.71026250
  0
VERTEX
  8
0
 10
1.70470125
 20
2.70592599
  0
VERTEX
  8
0
 10
1.70053342
 20
2.70161649
  0
VERTEX
  8
0
 10
1.69646478
 20
2.69733597
  0
VERTEX
  8
0
 10
1.69249436
 20
2.69308430
  0
VERTEX
  8
0
 10
1.68862089
 20
2.68886330
  0
VERTEX
  8
0
 10
1.68484410
 20
2.68467493
  0
VERTEX
  8
0
 10
1.68116287
 20
2.68052005
  0
VERTEX
  8
0
 10
1.67757692
 20
2.67640061
  0
VERTEX
  8
0
 10
1.67408414
 20
2.67231733
  0
VERTEX
  8
0
 10
1.67068427
 20
2.66827217
  0
VERTEX
  8
0
 10
1.66737617
 20
2.66426598
  0
VERTEX
  8
0
 10
1.66415985
 20
2.66029876
  0
VERTEX
  8
0
 10
1.66103279
 20
2.65637416
  0
VERTEX
  8
0
 10
1.65799499
 20
2.65249218
  0
VERTEX
  8
0
 10
1.65504617
 20
2.64865479
  0
VERTEX
  8
0
 10
1.65218338
 20
2.64486158
  0
VERTEX
  8
0
 10
1.64940720
 20
2.64111563
  0
VERTEX
  8
0
 10
1.64671551
 20
2.63741765
  0
VERTEX
  8
0
 10
1.64410832
 20
2.63376764
  0
VERTEX
  8
0
 10
1.64158423
 20
2.63016841
  0
VERTEX
  8
0
 10
1.63914211
 20
2.62662080
  0
VERTEX
  8
0
 10
1.63678001
 20
2.62312455
  0
VERTEX
  8
0
 10
1.63449849
 20
2.61968273
  0
VERTEX
  8
0
 10
1.63229460
 20
2.61629494
  0
VERTEX
  8
0
 10
1.63016904
 20
2.61296328
  0
VERTEX
  8
0
 10
1.62811972
 20
2.60968844
  0
VERTEX
  8
0
 10
1.62614439
 20
2.60647214
  0
VERTEX
  8
0
 10
1.62424417
 20
2.60331351
  0
VERTEX
  8
0
 10
1.62241556
 20
2.60021608
  0
VERTEX
  8
0
 10
1.62065968
 20
2.59717901
  0
VERTEX
  8
0
 10
1.61897317
 20
2.59420482
  0
VERTEX
  8
0
 10
1.61735714
 20
2.59129268
  0
VERTEX
  8
0
 10
1.61580824
 20
2.58844511
  0
VERTEX
  8
0
 10
1.61432548
 20
2.58566198
  0
VERTEX
  8
0
 10
1.61290858
 20
2.58294526
  0
VERTEX
  8
0
 10
1.61155643
 20
2.58029579
  0
VERTEX
  8
0
 10
1.61026607
 20
2.57771316
  0
VERTEX
  8
0
 10
1.60903821
 20
2.57519946
  0
VERTEX
  8
0
 10
1.60786976
 20
2.57275528
  0
VERTEX
  8
0
 10
1.60676058
 20
2.57038159
  0
VERTEX
  8
0
 10
1.60570956
 20
2.56807924
  0
VERTEX
  8
0
 10
1.60471458
 20
2.56584894
  0
VERTEX
  8
0
 10
1.60377453
 20
2.56369152
  0
VERTEX
  8
0
 10
1.60288730
 20
2.56160770
  0
VERTEX
  8
0
 10
1.60205388
 20
2.55959762
  0
VERTEX
  8
0
 10
1.60126992
 20
2.55766366
  0
VERTEX
  8
0
 10
1.59985064
 20
2.55402219
  0
VERTEX
  8
0
 10
1.59861839
 20
2.55069074
  0
VERTEX
  8
0
 10
1.59756167
 20
2.54767272
  0
VERTEX
  8
0
 10
1.59666856
 20
2.54497447
  0
VERTEX
  8
0
 10
1.59592937
 20
2.54260064
  0
VERTEX
  8
0
 10
1.59508091
 20
2.53965600
  0
VERTEX
  8
0
 10
1.59451063
 20
2.53746433
  0
VERTEX
  8
0
 10
1.59403500
 20
2.53534110
  0
VERTEX
  8
0
 10
1.57661092
 20
2.43938457
  0
VERTEX
  8
0
 10
1.42297188
 20
2.45592782
  0
VERTEX
  8
0
 10
1.42637552
 20
2.55339502
  0
VERTEX
  8
0
 10
1.42636249
 20
2.55557089
  0
VERTEX
  8
0
 10
1.42627215
 20
2.55783315
  0
VERTEX
  8
0
 10
1.42607002
 20
2.56089081
  0
VERTEX
  8
0
 10
1.42585323
 20
2.56336791
  0
VERTEX
  8
0
 10
1.42555523
 20
2.56619454
  0
VERTEX
  8
0
 10
1.42516535
 20
2.56936819
  0
VERTEX
  8
0
 10
1.42466996
 20
2.57288596
  0
VERTEX
  8
0
 10
1.42405837
 20
2.57674533
  0
VERTEX
  8
0
 10
1.42370513
 20
2.57880220
  0
VERTEX
  8
0
 10
1.42331698
 20
2.58094340
  0
VERTEX
  8
0
 10
1.42289504
 20
2.58316807
  0
VERTEX
  8
0
 10
1.42243621
 20
2.58547680
  0
VERTEX
  8
0
 10
1.42193882
 20
2.58786734
  0
VERTEX
  8
0
 10
1.42140160
 20
2.59034151
  0
VERTEX
  8
0
 10
1.42082287
 20
2.59289708
  0
VERTEX
  8
0
 10
1.42020177
 20
2.59553291
  0
VERTEX
  8
0
 10
1.41953705
 20
2.59825085
  0
VERTEX
  8
0
 10
1.41882603
 20
2.60104851
  0
VERTEX
  8
0
 10
1.41806872
 20
2.60392588
  0
VERTEX
  8
0
 10
1.41726328
 20
2.60688172
  0
VERTEX
  8
0
 10
1.41640663
 20
2.60991658
  0
VERTEX
  8
0
 10
1.41550003
 20
2.61302865
  0
VERTEX
  8
0
 10
1.41453955
 20
2.61621736
  0
VERTEX
  8
0
 10
1.41352616
 20
2.61948286
  0
VERTEX
  8
0
 10
1.41245594
 20
2.62282459
  0
VERTEX
  8
0
 10
1.41133014
 20
2.62624072
  0
VERTEX
  8
0
 10
1.41014484
 20
2.62973071
  0
VERTEX
  8
0
 10
1.40890017
 20
2.63329356
  0
VERTEX
  8
0
 10
1.40759500
 20
2.63693013
  0
VERTEX
  8
0
 10
1.40622667
 20
2.64063803
  0
VERTEX
  8
0
 10
1.40479518
 20
2.64441727
  0
VERTEX
  8
0
 10
1.40329785
 20
2.64826545
  0
VERTEX
  8
0
 10
1.40173440
 20
2.65218456
  0
VERTEX
  8
0
 10
1.40010428
 20
2.65617149
  0
VERTEX
  8
0
 10
1.39840367
 20
2.66022472
  0
VERTEX
  8
0
 10
1.39663330
 20
2.66434635
  0
VERTEX
  8
0
 10
1.39479076
 20
2.66853203
  0
VERTEX
  8
0
 10
1.39287577
 20
2.67278373
  0
VERTEX
  8
0
 10
1.39088665
 20
2.67709921
  0
VERTEX
  8
0
 10
1.38882171
 20
2.68147621
  0
VERTEX
  8
0
 10
1.38668067
 20
2.68591672
  0
VERTEX
  8
0
 10
1.38446113
 20
2.69041637
  0
VERTEX
  8
0
 10
1.38216183
 20
2.69497701
  0
VERTEX
  8
0
 10
1.37978319
 20
2.69959568
  0
VERTEX
  8
0
 10
1.37732213
 20
2.70427295
  0
VERTEX
  8
0
 10
1.37477904
 20
2.70900586
  0
VERTEX
  8
0
 10
1.37215198
 20
2.71379415
  0
VERTEX
  8
0
 10
1.36943995
 20
2.71863767
  0
VERTEX
  8
0
 10
1.36664126
 20
2.72353419
  0
VERTEX
  8
0
 10
1.36375508
 20
2.72848258
  0
VERTEX
  8
0
 10
1.36078055
 20
2.73348171
  0
VERTEX
  8
0
 10
1.35771683
 20
2.73853047
  0
VERTEX
  8
0
 10
1.35456196
 20
2.74362859
  0
VERTEX
  8
0
 10
1.35131620
 20
2.74877409
  0
VERTEX
  8
0
 10
1.34797676
 20
2.75396558
  0
VERTEX
  8
0
 10
1.34454389
 20
2.75920108
  0
VERTEX
  8
0
 10
1.33992002
 20
2.76609097
  0
VERTEX
  8
0
 10
1.24615604
 20
2.75977426
  0
VERTEX
  8
0
 10
1.24249837
 20
2.75232706
  0
VERTEX
  8
0
 10
1.23979831
 20
2.74667680
  0
VERTEX
  8
0
 10
1.23718629
 20
2.74108503
  0
VERTEX
  8
0
 10
1.23465935
 20
2.73555134
  0
VERTEX
  8
0
 10
1.23221637
 20
2.73007657
  0
VERTEX
  8
0
 10
1.22985722
 20
2.72466171
  0
VERTEX
  8
0
 10
1.22758062
 20
2.71930858
  0
VERTEX
  8
0
 10
1.22538449
 20
2.71401790
  0
VERTEX
  8
0
 10
1.22326769
 20
2.70879050
  0
VERTEX
  8
0
 10
1.22123008
 20
2.70362737
  0
VERTEX
  8
0
 10
1.21926859
 20
2.69852907
  0
VERTEX
  8
0
 10
1.21738294
 20
2.69349759
  0
VERTEX
  8
0
 10
1.21557199
 20
2.68853375
  0
VERTEX
  8
0
 10
1.21383380
 20
2.68363729
  0
VERTEX
  8
0
 10
1.21216807
 20
2.67881016
  0
VERTEX
  8
0
 10
1.21057186
 20
2.67405196
  0
VERTEX
  8
0
 10
1.20904574
 20
2.66936578
  0
VERTEX
  8
0
 10
1.20758690
 20
2.66475021
  0
VERTEX
  8
0
 10
1.20619408
 20
2.66020708
  0
VERTEX
  8
0
 10
1.20486616
 20
2.65573724
  0
VERTEX
  8
0
 10
1.20360201
 20
2.65134154
  0
VERTEX
  8
0
 10
1.20240051
 20
2.64702081
  0
VERTEX
  8
0
 10
1.20125970
 20
2.64277479
  0
VERTEX
  8
0
 10
1.20017832
 20
2.63860530
  0
VERTEX
  8
0
 10
1.19915427
 20
2.63451304
  0
VERTEX
  8
0
 10
1.19818753
 20
2.63049802
  0
VERTEX
  8
0
 10
1.19727504
 20
2.62656081
  0
VERTEX
  8
0
 10
1.19641650
 20
2.62270337
  0
VERTEX
  8
0
 10
1.19561108
 20
2.61892458
  0
VERTEX
  8
0
 10
1.19485540
 20
2.61522698
  0
VERTEX
  8
0
 10
1.19414962
 20
2.61160958
  0
VERTEX
  8
0
 10
1.19349161
 20
2.60807309
  0
VERTEX
  8
0
 10
1.19287929
 20
2.60461822
  0
VERTEX
  8
0
 10
1.19231237
 20
2.60124693
  0
VERTEX
  8
0
 10
1.19178916
 20
2.59795698
  0
VERTEX
  8
0
 10
1.19130813
 20
2.59475216
  0
VERTEX
  8
0
 10
1.19086661
 20
2.59163010
  0
VERTEX
  8
0
 10
1.19046431
 20
2.58859276
  0
VERTEX
  8
0
 10
1.19009927
 20
2.58563986
  0
VERTEX
  8
0
 10
1.18977051
 20
2.58277127
  0
VERTEX
  8
0
 10
1.18947564
 20
2.57998966
  0
VERTEX
  8
0
 10
1.18921481
 20
2.57729404
  0
VERTEX
  8
0
 10
1.18898408
 20
2.57468387
  0
VERTEX
  8
0
 10
1.18878332
 20
2.57216012
  0
VERTEX
  8
0
 10
1.18861126
 20
2.56972463
  0
VERTEX
  8
0
 10
1.18846621
 20
2.56737515
  0
VERTEX
  8
0
 10
1.18834594
 20
2.56511337
  0
VERTEX
  8
0
 10
1.18824932
 20
2.56294014
  0
VERTEX
  8
0
 10
1.18817451
 20
2.56085419
  0
VERTEX
  8
0
 10
1.18808589
 20
2.55694754
  0
VERTEX
  8
0
 10
1.18806785
 20
2.55339472
  0
VERTEX
  8
0
 10
1.18810609
 20
2.55019771
  0
VERTEX
  8
0
 10
1.18819048
 20
2.54735710
  0
VERTEX
  8
0
 10
1.18830798
 20
2.54487307
  0
VERTEX
  8
0
 10
1.18851700
 20
2.54181637
  0
VERTEX
  8
0
 10
1.18873162
 20
2.53956156
  0
VERTEX
  8
0
 10
1.18901078
 20
2.53740404
  0
VERTEX
  8
0
 10
1.20545656
 20
2.44127470
  0
VERTEX
  8
0
 10
1.05542461
 20
2.40427242
  0
VERTEX
  8
0
 10
1.02528722
 20
2.49702574
  0
VERTEX
  8
0
 10
1.02453124
 20
2.49906611
  0
VERTEX
  8
0
 10
1.02367231
 20
2.50116119
  0
VERTEX
  8
0
 10
1.02243701
 20
2.50396538
  0
VERTEX
  8
0
 10
1.02138538
 20
2.50621886
  0
VERTEX
  8
0
 10
1.02013912
 20
2.50877286
  0
VERTEX
  8
0
 10
1.01868712
 20
2.51162078
  0
VERTEX
  8
0
 10
1.01701897
 20
2.51475816
  0
VERTEX
  8
0
 10
1.01512400
 20
2.51817548
  0
VERTEX
  8
0
 10
1.01408835
 20
2.51998705
  0
VERTEX
  8
0
 10
1.01299206
 20
2.52186630
  0
VERTEX
  8
0
 10
1.01183415
 20
2.52381309
  0
VERTEX
  8
0
 10
1.01061291
 20
2.52582517
  0
VERTEX
  8
0
 10
1.00932751
 20
2.52790142
  0
VERTEX
  8
0
 10
1.00797683
 20
2.53004270
  0
VERTEX
  8
0
 10
1.00655931
 20
2.53224577
  0
VERTEX
  8
0
 10
1.00507383
 20
2.53451147
  0
VERTEX
  8
0
 10
1.00351968
 20
2.53683771
  0
VERTEX
  8
0
 10
1.00189505
 20
2.53922323
  0
VERTEX
  8
0
 10
1.00019893
 20
2.54166788
  0
VERTEX
  8
0
 10
0.99843050
 20
2.54417054
  0
VERTEX
  8
0
 10
0.99658805
 20
2.54672897
  0
VERTEX
  8
0
 10
0.99467160
 20
2.54934318
  0
VERTEX
  8
0
 10
0.99267930
 20
2.55201190
  0
VERTEX
  8
0
 10
0.99060934
 20
2.55473387
  0
VERTEX
  8
0
 10
0.98846100
 20
2.55750699
  0
VERTEX
  8
0
 10
0.98623415
 20
2.56033224
  0
VERTEX
  8
0
 10
0.98392723
 20
2.56320639
  0
VERTEX
  8
0
 10
0.98153926
 20
2.56612932
  0
VERTEX
  8
0
 10
0.97906842
 20
2.56909974
  0
VERTEX
  8
0
 10
0.97651498
 20
2.57211571
  0
VERTEX
  8
0
 10
0.97387684
 20
2.57517793
  0
VERTEX
  8
0
 10
0.97115356
 20
2.57828233
  0
VERTEX
  8
0
 10
0.96834500
 20
2.58142988
  0
VERTEX
  8
0
 10
0.96544851
 20
2.58461822
  0
VERTEX
  8
0
 10
0.96246420
 20
2.58784635
  0
VERTEX
  8
0
 10
0.95939124
 20
2.59111315
  0
VERTEX
  8
0
 10
0.95622780
 20
2.59441737
  0
VERTEX
  8
0
 10
0.95297415
 20
2.59775704
  0
VERTEX
  8
0
 10
0.94962945
 20
2.60113103
  0
VERTEX
  8
0
 10
0.94619174
 20
2.60453907
  0
VERTEX
  8
0
 10
0.94266142
 20
2.60797822
  0
VERTEX
  8
0
 10
0.93903654
 20
2.61144819
  0
VERTEX
  8
0
 10
0.93531624
 20
2.61494787
  0
VERTEX
  8
0
 10
0.93150095
 20
2.61847429
  0
VERTEX
  8
0
 10
0.92758967
 20
2.62202734
  0
VERTEX
  8
0
 10
0.92358072
 20
2.62560476
  0
VERTEX
  8
0
 10
0.91947410
 20
2.62920654
  0
VERTEX
  8
0
 10
0.91526924
 20
2.63282962
  0
VERTEX
  8
0
 10
0.91096417
 20
2.63647370
  0
VERTEX
  8
0
 10
0.90656015
 20
2.64013697
  0
VERTEX
  8
0
 10
0.90205549
 20
2.64381717
  0
VERTEX
  8
0
 10
0.89744922
 20
2.64751417
  0
VERTEX
  8
0
 10
0.89274075
 20
2.65122488
  0
VERTEX
  8
0
 10
0.88793094
 20
2.65495042
  0
VERTEX
  8
0
 10
0.88301739
 20
2.65868646
  0
VERTEX
  8
0
 10
0.87800024
 20
2.66243199
  0
VERTEX
  8
0
 10
0.87129891
 20
2.66732445
  0
VERTEX
  8
0
 10
0.78535124
 20
2.62931944
  0
VERTEX
  8
0
 10
0.78446111
 20
2.62107108
  0
VERTEX
  8
0
 10
0.78385610
 20
2.61483896
  0
VERTEX
  8
0
 10
0.78331362
 20
2.60868982
  0
VERTEX
  8
0
 10
0.78283143
 20
2.60262536
  0
VERTEX
  8
0
 10
0.78240953
 20
2.59664557
  0
VERTEX
  8
0
 10
0.78204385
 20
2.59075089
  0
VERTEX
  8
0
 10
0.78173537
 20
2.58494144
  0
VERTEX
  8
0
 10
0.78148087
 20
2.57921879
  0
VERTEX
  8
0
 10
0.78128034
 20
2.57358293
  0
VERTEX
  8
0
 10
0.78113083
 20
2.56803345
  0
VERTEX
  8
0
 10
0.78103110
 20
2.56257217
  0
VERTEX
  8
0
 10
0.78098099
 20
2.55720009
  0
VERTEX
  8
0
 10
0.78097685
 20
2.55191468
  0
VERTEX
  8
0
 10
0.78101813
 20
2.54671987
  0
VERTEX
  8
0
 10
0.78110314
 20
2.54161342
  0
VERTEX
  8
0
 10
0.78123160
 20
2.53659730
  0
VERTEX
  8
0
 10
0.78139958
 20
2.53167095
  0
VERTEX
  8
0
 10
0.78160694
 20
2.52683536
  0
VERTEX
  8
0
 10
0.78185270
 20
2.52209039
  0
VERTEX
  8
0
 10
0.78213391
 20
2.51743562
  0
VERTEX
  8
0
 10
0.78244931
 20
2.51287289
  0
VERTEX
  8
0
 10
0.78279805
 20
2.50840107
  0
VERTEX
  8
0
 10
0.78317803
 20
2.50402087
  0
VERTEX
  8
0
 10
0.78358714
 20
2.49973300
  0
VERTEX
  8
0
 10
0.78402539
 20
2.49553745
  0
VERTEX
  8
0
 10
0.78448983
 20
2.49143381
  0
VERTEX
  8
0
 10
0.78497933
 20
2.48742292
  0
VERTEX
  8
0
 10
0.78549206
 20
2.48350354
  0
VERTEX
  8
0
 10
0.78602677
 20
2.47967747
  0
VERTEX
  8
0
 10
0.78658163
 20
2.47594348
  0
VERTEX
  8
0
 10
0.78715537
 20
2.47230337
  0
VERTEX
  8
0
 10
0.78774730
 20
2.46875506
  0
VERTEX
  8
0
 10
0.78835320
 20
2.46529995
  0
VERTEX
  8
0
 10
0.78897419
 20
2.46193719
  0
VERTEX
  8
0
 10
0.78960719
 20
2.45866736
  0
VERTEX
  8
0
 10
0.79025121
 20
2.45549032
  0
VERTEX
  8
0
 10
0.79090429
 20
2.45240579
  0
VERTEX
  8
0
 10
0.79156544
 20
2.44941364
  0
VERTEX
  8
0
 10
0.79223256
 20
2.44651456
  0
VERTEX
  8
0
 10
0.79290382
 20
2.44370731
  0
VERTEX
  8
0
 10
0.79357921
 20
2.44099187
  0
VERTEX
  8
0
 10
0.79425454
 20
2.43836967
  0
VERTEX
  8
0
 10
0.79493120
 20
2.43583790
  0
VERTEX
  8
0
 10
0.79560596
 20
2.43339809
  0
VERTEX
  8
0
 10
0.79627686
 20
2.43104999
  0
VERTEX
  8
0
 10
0.79694403
 20
2.42879260
  0
VERTEX
  8
0
 10
0.79760439
 20
2.42662650
  0
VERTEX
  8
0
 10
0.79825709
 20
2.42455055
  0
VERTEX
  8
0
 10
0.79890101
 20
2.42256562
  0
VERTEX
  8
0
 10
0.80015421
 20
2.41886359
  0
VERTEX
  8
0
 10
0.80135108
 20
2.41551961
  0
VERTEX
  8
0
 10
0.80248135
 20
2.41252821
  0
VERTEX
  8
0
 10
0.80353224
 20
2.40988761
  0
VERTEX
  8
0
 10
0.80449125
 20
2.40759403
  0
VERTEX
  8
0
 10
0.80573414
 20
2.40479292
  0
VERTEX
  8
0
 10
0.80670635
 20
2.40274785
  0
VERTEX
  8
0
 10
0.80770690
 20
2.40081504
  0
VERTEX
  8
0
 10
0.85603901
 20
2.31610820
  0
VERTEX
  8
0
 10
0.72771085
 20
2.23002375
  0
VERTEX
  8
0
 10
0.66766718
 20
2.30687539
  0
VERTEX
  8
0
 10
0.66625895
 20
2.30853433
  0
VERTEX
  8
0
 10
0.66473520
 20
2.31020913
  0
VERTEX
  8
0
 10
0.66261452
 20
2.31242166
  0
VERTEX
  8
0
 10
0.66085647
 20
2.31417983
  0
VERTEX
  8
0
 10
0.65881148
 20
2.31615334
  0
VERTEX
  8
0
 10
0.65647280
 20
2.31833322
  0
VERTEX
  8
0
 10
0.65383268
 20
2.32071037
  0
VERTEX
  8
0
 10
0.65088267
 20
2.32327357
  0
VERTEX
  8
0
 10
0.64928951
 20
2.32462178
  0
VERTEX
  8
0
 10
0.64761713
 20
2.32601300
  0
VERTEX
  8
0
 10
0.64586269
 20
2.32744582
  0
VERTEX
  8
0
 10
0.64402733
 20
2.32891941
  0
VERTEX
  8
0
 10
0.64210935
 20
2.33043152
  0
VERTEX
  8
0
 10
0.64010792
 20
2.33198103
  0
VERTEX
  8
0
 10
0.63802217
 20
2.33356682
  0
VERTEX
  8
0
 10
0.63585226
 20
2.33518790
  0
VERTEX
  8
0
 10
0.63359551
 20
2.33684189
  0
VERTEX
  8
0
 10
0.63125304
 20
2.33852795
  0
VERTEX
  8
0
 10
0.62882302
 20
2.34024482
  0
VERTEX
  8
0
 10
0.62630559
 20
2.34199152
  0
VERTEX
  8
0
 10
0.62370005
 20
2.34376593
  0
VERTEX
  8
0
 10
0.62100456
 20
2.34556681
  0
VERTEX
  8
0
 10
0.61821926
 20
2.34739317
  0
VERTEX
  8
0
 10
0.61534345
 20
2.34924290
  0
VERTEX
  8
0
 10
0.61237628
 20
2.35111488
  0
VERTEX
  8
0
 10
0.60931705
 20
2.35300701
  0
VERTEX
  8
0
 10
0.60616674
 20
2.35491943
  0
VERTEX
  8
0
 10
0.60292267
 20
2.35684975
  0
VERTEX
  8
0
 10
0.59958526
 20
2.35879503
  0
VERTEX
  8
0
 10
0.59615339
 20
2.36075610
  0
VERTEX
  8
0
 10
0.59262831
 20
2.36273115
  0
VERTEX
  8
0
 10
0.58900736
 20
2.36471779
  0
VERTEX
  8
0
 10
0.58529081
 20
2.36671406
  0
VERTEX
  8
0
 10
0.58147866
 20
2.36871995
  0
VERTEX
  8
0
 10
0.57757035
 20
2.37073237
  0
VERTEX
  8
0
 10
0.57356488
 20
2.37275120
  0
VERTEX
  8
0
 10
0.56946253
 20
2.37477446
  0
VERTEX
  8
0
 10
0.56526359
 20
2.37680018
  0
VERTEX
  8
0
 10
0.56096538
 20
2.37882599
  0
VERTEX
  8
0
 10
0.55656972
 20
2.38085314
  0
VERTEX
  8
0
 10
0.55207521
 20
2.38287743
  0
VERTEX
  8
0
 10
0.54748296
 20
2.38489801
  0
VERTEX
  8
0
 10
0.54279002
 20
2.38691446
  0
VERTEX
  8
0
 10
0.53799892
 20
2.38892314
  0
VERTEX
  8
0
 10
0.53310867
 20
2.39092389
  0
VERTEX
  8
0
 10
0.52811744
 20
2.39291547
  0
VERTEX
  8
0
 10
0.52302663
 20
2.39489506
  0
VERTEX
  8
0
 10
0.51783638
 20
2.39686167
  0
VERTEX
  8
0
 10
0.51254500
 20
2.39881307
  0
VERTEX
  8
0
 10
0.50715347
 20
2.40074939
  0
VERTEX
  8
0
 10
0.50166136
 20
2.40266656
  0
VERTEX
  8
0
 10
0.49606853
 20
2.40456557
  0
VERTEX
  8
0
 10
0.49037554
 20
2.40644248
  0
VERTEX
  8
0
 10
0.48458140
 20
2.40829715
  0
VERTEX
  8
0
 10
0.47868639
 20
2.41012762
  0
VERTEX
  8
0
 10
0.47269078
 20
2.41193192
  0
VERTEX
  8
0
 10
0.46471972
 20
2.41423763
  0
VERTEX
  8
0
 10
0.39695393
 20
2.34912829
  0
VERTEX
  8
0
 10
0.39893835
 20
2.34107236
  0
VERTEX
  8
0
 10
0.40050128
 20
2.33500958
  0
VERTEX
  8
0
 10
0.40209434
 20
2.32904627
  0
VERTEX
  8
0
 10
0.40371656
 20
2.32318232
  0
VERTEX
  8
0
 10
0.40536385
 20
2.31741813
  0
VERTEX
  8
0
 10
0.40703721
 20
2.31175387
  0
VERTEX
  8
0
 10
0.40873452
 20
2.30619023
  0
VERTEX
  8
0
 10
0.41045312
 20
2.30072482
  0
VERTEX
  8
0
 10
0.41219161
 20
2.29536047
  0
VERTEX
  8
0
 10
0.41394928
 20
2.29009507
  0
VERTEX
  8
0
 10
0.41572304
 20
2.28492918
  0
VERTEX
  8
0
 10
0.41751289
 20
2.27986281
  0
VERTEX
  8
0
 10
0.41931687
 20
2.27489568
  0
VERTEX
  8
0
 10
0.42113301
 20
2.27002751
  0
VERTEX
  8
0
 10
0.42295921
 20
2.26525901
  0
VERTEX
  8
0
 10
0.42479461
 20
2.26058907
  0
VERTEX
  8
0
 10
0.42663824
 20
2.25601753
  0
VERTEX
  8
0
 10
0.42848715
 20
2.25154399
  0
VERTEX
  8
0
 10
0.43034035
 20
2.24716830
  0
VERTEX
  8
0
 10
0.43219673
 20
2.24289132
  0
VERTEX
  8
0
 10
0.43405347
 20
2.23871165
  0
VERTEX
  8
0
 10
0.43591070
 20
2.23462830
  0
VERTEX
  8
0
 10
0.43776620
 20
2.23064295
  0
VERTEX
  8
0
 10
0.43961713
 20
2.22675423
  0
VERTEX
  8
0
 10
0.44146366
 20
2.22296113
  0
VERTEX
  8
0
 10
0.44330380
 20
2.21926339
  0
VERTEX
  8
0
 10
0.44513545
 20
2.21566172
  0
VERTEX
  8
0
 10
0.44695791
 20
2.21215399
  0
VERTEX
  8
0
 10
0.44876893
 20
2.20874192
  0
VERTEX
  8
0
 10
0.45056780
 20
2.20542339
  0
VERTEX
  8
0
 10
0.45235257
 20
2.20219812
  0
VERTEX
  8
0
 10
0.45412112
 20
2.19906683
  0
VERTEX
  8
0
 10
0.45587275
 20
2.19602741
  0
VERTEX
  8
0
 10
0.45760648
 20
2.19307971
  0
VERTEX
  8
0
 10
0.45931935
 20
2.19022334
  0
VERTEX
  8
0
 10
0.46101136
 20
2.18745827
  0
VERTEX
  8
0
 10
0.46267971
 20
2.18478313
  0
VERTEX
  8
0
 10
0.46432439
 20
2.18219790
  0
VERTEX
  8
0
 10
0.46594260
 20
2.17970120
  0
VERTEX
  8
0
 10
0.46753433
 20
2.17729301
  0
VERTEX
  8
0
 10
0.46909677
 20
2.17497195
  0
VERTEX
  8
0
 10
0.47062978
 20
2.17273899
  0
VERTEX
  8
0
 10
0.47213069
 20
2.17059176
  0
VERTEX
  8
0
 10
0.47359951
 20
2.16853025
  0
VERTEX
  8
0
 10
0.47503341
 20
2.16655307
  0
VERTEX
  8
0
 10
0.47643141
 20
2.16466008
  0
VERTEX
  8
0
 10
0.47779366
 20
2.16285029
  0
VERTEX
  8
0
 10
0.47911622
 20
2.16112316
  0
VERTEX
  8
0
 10
0.48040035
 20
2.15947685
  0
VERTEX
  8
0
 10
0.48284321
 20
2.15642729
  0
VERTEX
  8
0
 10
0.48511323
 20
2.15369434
  0
VERTEX
  8
0
 10
0.48719750
 20
2.15127015
  0
VERTEX
  8
0
 10
0.48908797
 20
2.14914759
  0
VERTEX
  8
0
 10
0.49077453
 20
2.14732021
  0
VERTEX
  8
0
 10
0.49290043
 20
2.14511343
  0
VERTEX
  8
0
 10
0.49451339
 20
2.14352437
  0
VERTEX
  8
0
 10
0.49611412
 20
2.14205089
  0
VERTEX
  8
0
 10
0.57050335
 20
2.07898218
  0
VERTEX
  8
0
 10
0.47935600
 20
1.95419920
  0
VERTEX
  8
0
 10
0.39664925
 20
2.00588021
  0
VERTEX
  8
0
 10
0.39475837
 20
2.00695697
  0
VERTEX
  8
0
 10
0.39275356
 20
2.00800971
  0
VERTEX
  8
0
 10
0.39000468
 20
2.00936293
  0
VERTEX
  8
0
 10
0.38775147
 20
2.01041384
  0
VERTEX
  8
0
 10
0.38515477
 20
2.01156888
  0
VERTEX
  8
0
 10
0.38221104
 20
2.01281751
  0
VERTEX
  8
0
 10
0.37891688
 20
2.01414825
  0
VERTEX
  8
0
 10
0.37526905
 20
2.01554858
  0
VERTEX
  8
0
 10
0.37331066
 20
2.01627096
  0
VERTEX
  8
0
 10
0.37126230
 20
2.01700576
  0
VERTEX
  8
0
 10
0.36912411
 20
2.01775199
  0
VERTEX
  8
0
 10
0.36689621
 20
2.01850868
  0
VERTEX
  8
0
 10
0.36457594
 20
2.01927345
  0
VERTEX
  8
0
 10
0.36216540
 20
2.02004557
  0
VERTEX
  8
0
 10
0.35966303
 20
2.02082184
  0
VERTEX
  8
0
 10
0.35706984
 20
2.02160239
  0
VERTEX
  8
0
 10
0.35438397
 20
2.02238595
  0
VERTEX
  8
0
 10
0.35160599
 20
2.02316861
  0
VERTEX
  8
0
 10
0.34873478
 20
2.02395119
  0
VERTEX
  8
0
 10
0.34577160
 20
2.02473187
  0
VERTEX
  8
0
 10
0.34271587
 20
2.02550757
  0
VERTEX
  8
0
 10
0.33956759
 20
2.02627829
  0
VERTEX
  8
0
 10
0.33632522
 20
2.02704079
  0
VERTEX
  8
0
 10
0.33299059
 20
2.02779634
  0
VERTEX
  8
0
 10
0.32956241
 20
2.02853975
  0
VERTEX
  8
0
 10
0.32604041
 20
2.02927298
  0
VERTEX
  8
0
 10
0.32242529
 20
2.02999111
  0
VERTEX
  8
0
 10
0.31871690
 20
2.03069514
  0
VERTEX
  8
0
 10
0.31491552
 20
2.03138309
  0
VERTEX
  8
0
 10
0.31102058
 20
2.03205188
  0
VERTEX
  8
0
 10
0.30703208
 20
2.03270150
  0
VERTEX
  8
0
 10
0.30295030
 20
2.03332999
  0
VERTEX
  8
0
 10
0.29877453
 20
2.03393524
  0
VERTEX
  8
0
 10
0.29450701
 20
2.03451557
  0
VERTEX
  8
0
 10
0.29014578
 20
2.03507069
  0
VERTEX
  8
0
 10
0.28569126
 20
2.03559767
  0
VERTEX
  8
0
 10
0.28114456
 20
2.03609565
  0
VERTEX
  8
0
 10
0.27650595
 20
2.03656266
  0
VERTEX
  8
0
 10
0.27177460
 20
2.03699759
  0
VERTEX
  8
0
 10
0.26694980
 20
2.03739834
  0
VERTEX
  8
0
 10
0.26203478
 20
2.03776334
  0
VERTEX
  8
0
 10
0.25702769
 20
2.03809134
  0
VERTEX
  8
0
 10
0.25192870
 20
2.03838135
  0
VERTEX
  8
0
 10
0.24673918
 20
2.03863058
  0
VERTEX
  8
0
 10
0.24145928
 20
2.03883802
  0
VERTEX
  8
0
 10
0.23608830
 20
2.03900158
  0
VERTEX
  8
0
 10
0.23062735
 20
2.03912042
  0
VERTEX
  8
0
 10
0.22507657
 20
2.03919354
  0
VERTEX
  8
0
 10
0.21943736
 20
2.03921814
  0
VERTEX
  8
0
 10
0.21370888
 20
2.03919309
  0
VERTEX
  8
0
 10
0.20789238
 20
2.03911658
  0
VERTEX
  8
0
 10
0.20198801
 20
2.03898761
  0
VERTEX
  8
0
 10
0.19599505
 20
2.03880407
  0
VERTEX
  8
0
 10
0.18991659
 20
2.03856541
  0
VERTEX
  8
0
 10
0.18375095
 20
2.03826938
  0
VERTEX
  8
0
 10
0.17749938
 20
2.03791415
  0
VERTEX
  8
0
 10
0.16922119
 20
2.03735431
  0
VERTEX
  8
0
 10
0.12781072
 20
1.95299489
  0
VERTEX
  8
0
 10
0.13243081
 20
1.94610346
  0
VERTEX
  8
0
 10
0.13597378
 20
1.94094058
  0
VERTEX
  8
0
 10
0.13951010
 20
1.93588204
  0
VERTEX
  8
0
 10
0.14303894
 20
1.93092671
  0
VERTEX
  8
0
 10
0.14655945
 20
1.92607349
  0
VERTEX
  8
0
 10
0.15006938
 20
1.92132406
  0
VERTEX
  8
0
 10
0.15356619
 20
1.91667505
  0
VERTEX
  8
0
 10
0.15705074
 20
1.91212759
  0
VERTEX
  8
0
 10
0.16051910
 20
1.90768112
  0
VERTEX
  8
0
 10
0.16397139
 20
1.90333466
  0
VERTEX
  8
0
 10
0.16740579
 20
1.89908696
  0
VERTEX
  8
0
 10
0.17082020
 20
1.89493871
  0
VERTEX
  8
0
 10
0.17421391
 20
1.89088781
  0
VERTEX
  8
0
 10
0.17758579
 20
1.88693511
  0
VERTEX
  8
0
 10
0.18093319
 20
1.88307823
  0
VERTEX
  8
0
 10
0.18425510
 20
1.87931703
  0
VERTEX
  8
0
 10
0.18755055
 20
1.87565137
  0
VERTEX
  8
0
 10
0.19081856
 20
1.87208111
  0
VERTEX
  8
0
 10
0.19405659
 20
1.86860289
  0
VERTEX
  8
0
 10
0.19726337
 20
1.86521854
  0
VERTEX
  8
0
 10
0.20043822
 20
1.86192595
  0
VERTEX
  8
0
 10
0.20357914
 20
1.85872484
  0
VERTEX
  8
0
 10
0.20668532
 20
1.85561410
  0
VERTEX
  8
0
 10
0.20975588
 20
1.85259261
  0
VERTEX
  8
0
 10
0.21278790
 20
1.84965994
  0
VERTEX
  8
0
 10
0.21578164
 20
1.84681413
  0
VERTEX
  8
0
 10
0.21873500
 20
1.84405589
  0
VERTEX
  8
0
 10
0.22164714
 20
1.84138410
  0
VERTEX
  8
0
 10
0.22451636
 20
1.83879652
  0
VERTEX
  8
0
 10
0.22734154
 20
1.83629398
  0
VERTEX
  8
0
 10
0.23012113
 20
1.83387327
  0
VERTEX
  8
0
 10
0.23285500
 20
1.83153537
  0
VERTEX
  8
0
 10
0.23554046
 20
1.82927789
  0
VERTEX
  8
0
 10
0.23817739
 20
1.82710182
  0
VERTEX
  8
0
 10
0.24076423
 20
1.82500393
  0
VERTEX
  8
0
 10
0.24329901
 20
1.82298395
  0
VERTEX
  8
0
 10
0.24578187
 20
1.82104090
  0
VERTEX
  8
0
 10
0.24821197
 20
1.81917365
  0
VERTEX
  8
0
 10
0.25058649
 20
1.81738080
  0
VERTEX
  8
0
 10
0.25290544
 20
1.81566235
  0
VERTEX
  8
0
 10
0.25516811
 20
1.81401621
  0
VERTEX
  8
0
 10
0.25737155
 20
1.81244195
  0
VERTEX
  8
0
 10
0.25951701
 20
1.81093775
  0
VERTEX
  8
0
 10
0.26160169
 20
1.80950221
  0
VERTEX
  8
0
 10
0.26362572
 20
1.80813435
  0
VERTEX
  8
0
 10
0.26558715
 20
1.80683388
  0
VERTEX
  8
0
 10
0.26748610
 20
1.80559983
  0
VERTEX
  8
0
 10
0.26932004
 20
1.80442884
  0
VERTEX
  8
0
 10
0.27108884
 20
1.80332188
  0
VERTEX
  8
0
 10
0.27442816
 20
1.80129165
  0
VERTEX
  8
0
 10
0.27749548
 20
1.79949891
  0
VERTEX
  8
0
 10
0.28028404
 20
1.79793470
  0
VERTEX
  8
0
 10
0.28278552
 20
1.79658681
  0
VERTEX
  8
0
 10
0.28499528
 20
1.79544557
  0
VERTEX
  8
0
 10
0.28774811
 20
1.79409992
  0
VERTEX
  8
0
 10
0.28980765
 20
1.79315714
  0
VERTEX
  8
0
 10
0.29181520
 20
1.79232036
  0
VERTEX
  8
0
 10
0.38328860
 20
1.75849794
  0
VERTEX
  8
0
 10
0.34031728
 20
1.61006603
  0
VERTEX
  8
0
 10
0.24492241
 20
1.63034232
  0
VERTEX
  8
0
 10
0.24277759
 20
1.63070763
  0
VERTEX
  8
0
 10
0.24053308
 20
1.63101180
  0
VERTEX
  8
0
 10
0.23748758
 20
1.63134377
  0
VERTEX
  8
0
 10
0.23500978
 20
1.63156002
  0
VERTEX
  8
0
 10
0.23217473
 20
1.63175714
  0
VERTEX
  8
0
 10
0.22898198
 20
1.63192404
  0
VERTEX
  8
0
 10
0.22543136
 20
1.63204766
  0
VERTEX
  8
0
 10
0.22152466
 20
1.63211522
  0
VERTEX
  8
0
 10
0.21943787
 20
1.63212474
  0
VERTEX
  8
0
 10
0.21726159
 20
1.63211465
  0
VERTEX
  8
0
 10
0.21499680
 20
1.63208511
  0
VERTEX
  8
0
 10
0.21264378
 20
1.63203415
  0
VERTEX
  8
0
 10
0.21020296
 20
1.63195882
  0
VERTEX
  8
0
 10
0.20767319
 20
1.63185995
  0
VERTEX
  8
0
 10
0.20505603
 20
1.63173377
  0
VERTEX
  8
0
 10
0.20235245
 20
1.63158040
  0
VERTEX
  8
0
 10
0.19956077
 20
1.63139760
  0
VERTEX
  8
0
 10
0.19668224
 20
1.63118355
  0
VERTEX
  8
0
 10
0.19371700
 20
1.63093726
  0
VERTEX
  8
0
 10
0.19066533
 20
1.63065676
  0
VERTEX
  8
0
 10
0.18752849
 20
1.63034023
  0
VERTEX
  8
0
 10
0.18430648
 20
1.62998767
  0
VERTEX
  8
0
 10
0.18099872
 20
1.62959599
  0
VERTEX
  8
0
 10
0.17760733
 20
1.62916448
  0
VERTEX
  8
0
 10
0.17413062
 20
1.62869090
  0
VERTEX
  8
0
 10
0.17057068
 20
1.62817454
  0
VERTEX
  8
0
 10
0.16692766
 20
1.62761442
  0
VERTEX
  8
0
 10
0.16320295
 20
1.62700773
  0
VERTEX
  8
0
 10
0.15939473
 20
1.62635320
  0
VERTEX
  8
0
 10
0.15550609
 20
1.62565028
  0
VERTEX
  8
0
 10
0.15153546
 20
1.62489573
  0
VERTEX
  8
0
 10
0.14748581
 20
1.62408997
  0
VERTEX
  8
0
 10
0.14335544
 20
1.62323076
  0
VERTEX
  8
0
 10
0.13914547
 20
1.62231724
  0
VERTEX
  8
0
 10
0.13485828
 20
1.62134675
  0
VERTEX
  8
0
 10
0.13049192
 20
1.62031902
  0
VERTEX
  8
0
 10
0.12604973
 20
1.61923150
  0
VERTEX
  8
0
 10
0.12152976
 20
1.61808391
  0
VERTEX
  8
0
 10
0.11693537
 20
1.61687374
  0
VERTEX
  8
0
 10
0.11226558
 20
1.61560083
  0
VERTEX
  8
0
 10
0.10752178
 20
1.61426237
  0
VERTEX
  8
0
 10
0.10270397
 20
1.61285837
  0
VERTEX
  8
0
 10
0.09781342
 20
1.61138700
  0
VERTEX
  8
0
 10
0.09285151
 20
1.60984544
  0
VERTEX
  8
0
 10
0.08781911
 20
1.60823481
  0
VERTEX
  8
0
 10
0.08271563
 20
1.60655204
  0
VERTEX
  8
0
 10
0.07754417
 20
1.60479655
  0
VERTEX
  8
0
 10
0.07230303
 20
1.60296609
  0
VERTEX
  8
0
 10
0.06699531
 20
1.60106010
  0
VERTEX
  8
0
 10
0.06162114
 20
1.59907760
  0
VERTEX
  8
0
 10
0.05618079
 20
1.59701661
  0
VERTEX
  8
0
 10
0.05067652
 20
1.59487546
  0
VERTEX
  8
0
 10
0.04510831
 20
1.59265413
  0
VERTEX
  8
0
 10
0.03947744
 20
1.59035081
  0
VERTEX
  8
0
 10
0.03378516
 20
1.58796366
  0
VERTEX
  8
0
 10
0.02803258
 20
1.58549183
  0
VERTEX
  8
0
 10
0.02044533
 20
1.58213452
  0
VERTEX
  8
0
 10
0.01038418
 20
1.48869867
  0
VERTEX
  8
0
 10
0.01708298
 20
1.48380285
  0
VERTEX
  8
0
 10
0.02217746
 20
1.48016343
  0
VERTEX
  8
0
 10
0.02723144
 20
1.47661959
  0
VERTEX
  8
0
 10
0.03224210
 20
1.47316992
  0
VERTEX
  8
0
 10
0.03720959
 20
1.46981344
  0
VERTEX
  8
0
 10
0.04213292
 20
1.46655002
  0
VERTEX
  8
0
 10
0.04700928
 20
1.46337825
  0
VERTEX
  8
0
 10
0.05183782
 20
1.46029702
  0
VERTEX
  8
0
 10
0.05661869
 20
1.45730533
  0
VERTEX
  8
0
 10
0.06134920
 20
1.45440082
  0
VERTEX
  8
0
 10
0.06602923
 20
1.45158447
  0
VERTEX
  8
0
 10
0.07065708
 20
1.44885402
  0
VERTEX
  8
0
 10
0.07523190
 20
1.44620836
  0
VERTEX
  8
0
 10
0.07975187
 20
1.44364623
  0
VERTEX
  8
0
 10
0.08421601
 20
1.44116750
  0
VERTEX
  8
0
 10
0.08862458
 20
1.43877019
  0
VERTEX
  8
0
 10
0.09297493
 20
1.43645192
  0
VERTEX
  8
0
 10
0.09726676
 20
1.43421466
  0
VERTEX
  8
0
 10
0.10149868
 20
1.43205421
  0
VERTEX
  8
0
 10
0.10566968
 20
1.42997042
  0
VERTEX
  8
0
 10
0.10977992
 20
1.42796231
  0
VERTEX
  8
0
 10
0.11382659
 20
1.42602848
  0
VERTEX
  8
0
 10
0.11780896
 20
1.42416683
  0
VERTEX
  8
0
 10
0.12172790
 20
1.42237848
  0
VERTEX
  8
0
 10
0.12558001
 20
1.42065894
  0
VERTEX
  8
0
 10
0.12936615
 20
1.41900933
  0
VERTEX
  8
0
 10
0.13308449
 20
1.41742841
  0
VERTEX
  8
0
 10
0.13673543
 20
1.41591321
  0
VERTEX
  8
0
 10
0.14031604
 20
1.41446331
  0
VERTEX
  8
0
 10
0.14382658
 20
1.41307677
  0
VERTEX
  8
0
 10
0.14726707
 20
1.41175357
  0
VERTEX
  8
0
 10
0.15063481
 20
1.41049133
  0
VERTEX
  8
0
 10
0.15393094
 20
1.40928921
  0
VERTEX
  8
0
 10
0.15715279
 20
1.40814484
  0
VERTEX
  8
0
 10
0.16030133
 20
1.40705833
  0
VERTEX
  8
0
 10
0.16337487
 20
1.40602746
  0
VERTEX
  8
0
 10
0.16637257
 20
1.40505110
  0
VERTEX
  8
0
 10
0.16929472
 20
1.40412729
  0
VERTEX
  8
0
 10
0.17213933
 20
1.40325575
  0
VERTEX
  8
0
 10
0.17490584
 20
1.40243339
  0
VERTEX
  8
0
 10
0.17759426
 20
1.40166021
  0
VERTEX
  8
0
 10
0.18020387
 20
1.40093410
  0
VERTEX
  8
0
 10
0.18273467
 20
1.40025508
  0
VERTEX
  8
0
 10
0.18518428
 20
1.39961878
  0
VERTEX
  8
0
 10
0.18755352
 20
1.39902633
  0
VERTEX
  8
0
 10
0.18984170
 20
1.39847563
  0
VERTEX
  8
0
 10
0.19204825
 20
1.39796359
  0
VERTEX
  8
0
 10
0.19417205
 20
1.39749105
  0
VERTEX
  8
0
 10
0.19621337
 20
1.39705605
  0
VERTEX
  8
0
 10
0.20004574
 20
1.39629024
  0
VERTEX
  8
0
 10
0.20354086
 20
1.39565550
  0
VERTEX
  8
0
 10
0.20669561
 20
1.39513836
  0
VERTEX
  8
0
 10
0.20950855
 20
1.39472758
  0
VERTEX
  8
0
 10
0.21197531
 20
1.39441153
  0
VERTEX
  8
0
 10
0.21502168
 20
1.39408770
  0
VERTEX
  8
0
 10
0.21727896
 20
1.39390664
  0
VERTEX
  8
0
 10
0.21945261
 20
1.39380706
  0
VERTEX
  8
0
 10
0.31697752
 20
1.39331012
  0
VERTEX
  8
0
 10
0.32736424
 20
1.23913253
  0
VERTEX
  8
0
 10
0.23078704
 20
1.22555950
  0
VERTEX
  8
0
 10
0.22864711
 20
1.22516951
  0
VERTEX
  8
0
 10
0.22643395
 20
1.22468703
  0
VERTEX
  8
0
 10
0.22345848
 20
1.22395704
  0
VERTEX
  8
0
 10
0.22105652
 20
1.22331266
  0
VERTEX
  8
0
 10
0.21832427
 20
1.22252862
  0
VERTEX
  8
0
 10
0.21526732
 20
1.22159367
  0
VERTEX
  8
0
 10
0.21188846
 20
1.22049517
  0
VERTEX
  8
0
 10
0.20819412
 20
1.21922299
  0
VERTEX
  8
0
 10
0.20622982
 20
1.21851781
  0
VERTEX
  8
0
 10
0.20418805
 20
1.21776463
  0
VERTEX
  8
0
 10
0.20207007
 20
1.21696165
  0
VERTEX
  8
0
 10
0.19987685
 20
1.21610899
  0
VERTEX
  8
0
 10
0.19760881
 20
1.21520370
  0
VERTEX
  8
0
 10
0.19526609
 20
1.21424480
  0
VERTEX
  8
0
 10
0.19284981
 20
1.21323145
  0
VERTEX
  8
0
 10
0.19036109
 20
1.21216281
  0
VERTEX
  8
0
 10
0.18780035
 20
1.21103591
  0
VERTEX
  8
0
 10
0.18516871
 20
1.20984992
  0
VERTEX
  8
0
 10
0.18246616
 20
1.20860484
  0
VERTEX
  8
0
 10
0.17969523
 20
1.20729700
  0
VERTEX
  8
0
 10
0.17685578
 20
1.20592741
  0
VERTEX
  8
0
 10
0.17394808
 20
1.20449407
  0
VERTEX
  8
0
 10
0.17097354
 20
1.20299420
  0
VERTEX
  8
0
 10
0.16793398
 20
1.20142904
  0
VERTEX
  8
0
 10
0.16482981
 20
1.19979564
  0
VERTEX
  8
0
 10
0.16166118
 20
1.19809303
  0
VERTEX
  8
0
 10
0.15842920
 20
1.19632035
  0
VERTEX
  8
0
 10
0.15513612
 20
1.19447592
  0
VERTEX
  8
0
 10
0.15178208
 20
1.19255876
  0
VERTEX
  8
0
 10
0.14836833
 20
1.19056703
  0
VERTEX
  8
0
 10
0.14489488
 20
1.18850074
  0
VERTEX
  8
0
 10
0.14136495
 20
1.18635833
  0
VERTEX
  8
0
 10
0.13777769
 20
1.18413869
  0
VERTEX
  8
0
 10
0.13413437
 20
1.18183998
  0
VERTEX
  8
0
 10
0.13043710
 20
1.17946149
  0
VERTEX
  8
0
 10
0.12668600
 20
1.17700225
  0
VERTEX
  8
0
 10
0.12288318
 20
1.17446155
  0
VERTEX
  8
0
 10
0.11902893
 20
1.17183742
  0
VERTEX
  8
0
 10
0.11512534
 20
1.16912915
  0
VERTEX
  8
0
 10
0.11117269
 20
1.16633479
  0
VERTEX
  8
0
 10
0.10717182
 20
1.16345544
  0
VERTEX
  8
0
 10
0.10312512
 20
1.16048843
  0
VERTEX
  8
0
 10
0.09903371
 20
1.15743293
  0
VERTEX
  8
0
 10
0.09489773
 20
1.15428795
  0
VERTEX
  8
0
 10
0.09071942
 20
1.15105179
  0
VERTEX
  8
0
 10
0.08649962
 20
1.14772558
  0
VERTEX
  8
0
 10
0.08223973
 20
1.14430651
  0
VERTEX
  8
0
 10
0.07794172
 20
1.14079486
  0
VERTEX
  8
0
 10
0.07360586
 20
1.13718865
  0
VERTEX
  8
0
 10
0.06923329
 20
1.13348704
  0
VERTEX
  8
0
 10
0.06482707
 20
1.12968947
  0
VERTEX
  8
0
 10
0.06038624
 20
1.12579579
  0
VERTEX
  8
0
 10
0.05591415
 20
1.12180348
  0
VERTEX
  8
0
 10
0.05141080
 20
1.11771253
  0
VERTEX
  8
0
 10
0.04687817
 20
1.11352321
  0
VERTEX
  8
0
 10
0.04231764
 20
1.10923272
  0
VERTEX
  8
0
 10
0.03633591
 20
1.10348319
  0
VERTEX
  8
0
 10
0.05883855
 20
1.01224065
  0
VERTEX
  8
0
 10
0.06680708
 20
1.00993158
  0
VERTEX
  8
0
 10
0.07284004
 20
1.00825384
  0
VERTEX
  8
0
 10
0.07880114
 20
1.00665224
  0
VERTEX
  8
0
 10
0.08468968
 20
1.00512465
  0
VERTEX
  8
0
 10
0.09050481
 20
1.00366997
  0
VERTEX
  8
0
 10
0.09624764
 20
1.00228734
  0
VERTEX
  8
0
 10
0.10191454
 20
1.00097425
  0
VERTEX
  8
0
 10
0.10750660
 20
0.99972985
  0
VERTEX
  8
0
 10
0.11302188
 20
0.99855387
  0
VERTEX
  8
0
 10
0.11846078
 20
0.99744335
  0
VERTEX
  8
0
 10
0.12382148
 20
0.99639703
  0
VERTEX
  8
0
 10
0.12910410
 20
0.99541394
  0
VERTEX
  8
0
 10
0.13430698
 20
0.99449183
  0
VERTEX
  8
0
 10
0.13943108
 20
0.99363084
  0
VERTEX
  8
0
 10
0.14447485
 20
0.99282774
  0
VERTEX
  8
0
 10
0.14943633
 20
0.99208225
  0
VERTEX
  8
0
 10
0.15431777
 20
0.99139269
  0
VERTEX
  8
0
 10
0.15911634
 20
0.99075766
  0
VERTEX
  8
0
 10
0.16383135
 20
0.99017505
  0
VERTEX
  8
0
 10
0.16846391
 20
0.98964402
  0
VERTEX
  8
0
 10
0.17301233
 20
0.98916233
  0
VERTEX
  8
0
 10
0.17747676
 20
0.98872898
  0
VERTEX
  8
0
 10
0.18185536
 20
0.98834274
  0
VERTEX
  8
0
 10
0.18614940
 20
0.98800175
  0
VERTEX
  8
0
 10
0.19035816
 20
0.98770393
  0
VERTEX
  8
0
 10
0.19447968
 20
0.98744899
  0
VERTEX
  8
0
 10
0.19851536
 20
0.98723412
  0
VERTEX
  8
0
 10
0.20246324
 20
0.98705904
  0
VERTEX
  8
0
 10
0.20632456
 20
0.98692194
  0
VERTEX
  8
0
 10
0.21009778
 20
0.98681957
  0
VERTEX
  8
0
 10
0.21378277
 20
0.98675294
  0
VERTEX
  8
0
 10
0.21737993
 20
0.98671907
  0
VERTEX
  8
0
 10
0.22088758
 20
0.98671574
  0
VERTEX
  8
0
 10
0.22430670
 20
0.98674308
  0
VERTEX
  8
0
 10
0.22763657
 20
0.98679899
  0
VERTEX
  8
0
 10
0.23087749
 20
0.98688149
  0
VERTEX
  8
0
 10
0.23402860
 20
0.98698947
  0
VERTEX
  8
0
 10
0.23709018
 20
0.98712097
  0
VERTEX
  8
0
 10
0.24006153
 20
0.98727387
  0
VERTEX
  8
0
 10
0.24294263
 20
0.98744818
  0
VERTEX
  8
0
 10
0.24573392
 20
0.98764095
  0
VERTEX
  8
0
 10
0.24843342
 20
0.98785190
  0
VERTEX
  8
0
 10
0.25104462
 20
0.98807751
  0
VERTEX
  8
0
 10
0.25356446
 20
0.98831835
  0
VERTEX
  8
0
 10
0.25599320
 20
0.98857246
  0
VERTEX
  8
0
 10
0.25833223
 20
0.98883702
  0
VERTEX
  8
0
 10
0.26057974
 20
0.98911078
  0
VERTEX
  8
0
 10
0.26273783
 20
0.98939302
  0
VERTEX
  8
0
 10
0.26480466
 20
0.98968249
  0
VERTEX
  8
0
 10
0.26866694
 20
0.99027343
  0
VERTEX
  8
0
 10
0.27216921
 20
0.99087192
  0
VERTEX
  8
0
 10
0.27531019
 20
0.99146575
  0
VERTEX
  8
0
 10
0.27809378
 20
0.99204144
  0
VERTEX
  8
0
 10
0.28051953
 20
0.99258790
  0
VERTEX
  8
0
 10
0.28349389
 20
0.99332576
  0
VERTEX
  8
0
 10
0.28567727
 20
0.99392738
  0
VERTEX
  8
0
 10
0.28775363
 20
0.99457713
  0
VERTEX
  8
0
 10
0.37956681
 20
1.02746594
  0
VERTEX
  8
0
 10
0.44205863
 20
0.88613871
  0
VERTEX
  8
0
 10
0.35594810
 20
0.84035351
  0
VERTEX
  8
0
 10
0.35407025
 20
0.83925441
  0
VERTEX
  8
0
 10
0.35215578
 20
0.83804489
  0
VERTEX
  8
0
 10
0.34960903
 20
0.83634044
  0
VERTEX
  8
0
 10
0.34757262
 20
0.83491426
  0
VERTEX
  8
0
 10
0.34527391
 20
0.83324267
  0
VERTEX
  8
0
 10
0.34272091
 20
0.83131877
  0
VERTEX
  8
0
 10
0.33992130
 20
0.82913061
  0
VERTEX
  8
0
 10
0.33688505
 20
0.82667158
  0
VERTEX
  8
0
 10
0.33527990
 20
0.82533709
  0
VERTEX
  8
0
 10
0.33361970
 20
0.82393069
  0
VERTEX
  8
0
 10
0.33190443
 20
0.82245238
  0
VERTEX
  8
0
 10
0.33013437
 20
0.82090021
  0
VERTEX
  8
0
 10
0.32831247
 20
0.81927457
  0
VERTEX
  8
0
 10
0.32643915
 20
0.81757253
  0
VERTEX
  8
0
 10
0.32451454
 20
0.81579309
  0
VERTEX
  8
0
 10
0.32254146
 20
0.81393766
  0
VERTEX
  8
0
 10
0.32052130
 20
0.81200343
  0
VERTEX
  8
0
 10
0.31845335
 20
0.80998829
  0
VERTEX
  8
0
 10
0.31634044
 20
0.80789363
  0
VERTEX
  8
0
 10
0.31418381
 20
0.80571763
  0
VERTEX
  8
0
 10
0.31198360
 20
0.80345931
  0
VERTEX
  8
0
 10
0.30974193
 20
0.80111796
  0
VERTEX
  8
0
 10
0.30746005
 20
0.79869175
  0
VERTEX
  8
0
 10
0.30513894
 20
0.79618083
  0
VERTEX
  8
0
 10
0.30277972
 20
0.79358433
  0
VERTEX
  8
0
 10
0.30038464
 20
0.79090058
  0
VERTEX
  8
0
 10
0.29795468
 20
0.78812972
  0
VERTEX
  8
0
 10
0.29549110
 20
0.78526990
  0
VERTEX
  8
0
 10
0.29299489
 20
0.78232128
  0
VERTEX
  8
0
 10
0.29046828
 20
0.77928217
  0
VERTEX
  8
0
 10
0.28791113
 20
0.77615354
  0
VERTEX
  8
0
 10
0.28532598
 20
0.77293173
  0
VERTEX
  8
0
 10
0.28271450
 20
0.76961901
  0
VERTEX
  8
0
 10
0.28007697
 20
0.76621338
  0
VERTEX
  8
0
 10
0.27741648
 20
0.76271430
  0
VERTEX
  8
0
 10
0.27473332
 20
0.75911978
  0
VERTEX
  8
0
 10
0.27202831
 20
0.75543096
  0
VERTEX
  8
0
 10
0.26930455
 20
0.75164726
  0
VERTEX
  8
0
 10
0.26656232
 20
0.74776671
  0
VERTEX
  8
0
 10
0.26380260
 20
0.74378947
  0
VERTEX
  8
0
 10
0.26102848
 20
0.73971494
  0
VERTEX
  8
0
 10
0.25824094
 20
0.73554329
  0
VERTEX
  8
0
 10
0.25544124
 20
0.73127267
  0
VERTEX
  8
0
 10
0.25263050
 20
0.72690224
  0
VERTEX
  8
0
 10
0.24981055
 20
0.72243326
  0
VERTEX
  8
0
 10
0.24698363
 20
0.71786405
  0
VERTEX
  8
0
 10
0.24414974
 20
0.71319459
  0
VERTEX
  8
0
 10
0.24131198
 20
0.70842433
  0
VERTEX
  8
0
 10
0.23847047
 20
0.70355227
  0
VERTEX
  8
0
 10
0.23562817
 20
0.69857884
  0
VERTEX
  8
0
 10
0.23278522
 20
0.69350305
  0
VERTEX
  8
0
 10
0.22994456
 20
0.68832532
  0
VERTEX
  8
0
 10
0.22710746
 20
0.68304381
  0
VERTEX
  8
0
 10
0.22427476
 20
0.67765965
  0
VERTEX
  8
0
 10
0.22144857
 20
0.67217213
  0
VERTEX
  8
0
 10
0.21863085
 20
0.66658153
  0
VERTEX
  8
0
 10
0.21497639
 20
0.65913278
  0
VERTEX
  8
0
 10
0.26732793
 20
0.58108979
  0
VERTEX
  8
0
 10
0.27560681
 20
0.58164472
  0
VERTEX
  8
0
 10
0.28184885
 20
0.58213196
  0
VERTEX
  8
0
 10
0.28799818
 20
0.58266533
  0
VERTEX
  8
0
 10
0.29405495
 20
0.58324384
  0
VERTEX
  8
0
 10
0.30001731
 20
0.58386623
  0
VERTEX
  8
0
 10
0.30588555
 20
0.58453054
  0
VERTEX
  8
0
 10
0.31165994
 20
0.58523479
  0
VERTEX
  8
0
 10
0.31734049
 20
0.58597900
  0
VERTEX
  8
0
 10
0.32292578
 20
0.58675895
  0
VERTEX
  8
0
 10
0.32841666
 20
0.58757576
  0
VERTEX
  8
0
 10
0.33381157
 20
0.58842621
  0
VERTEX
  8
0
 10
0.33911164
 20
0.58930944
  0
VERTEX
  8
0
 10
0.34431629
 20
0.59022238
  0
VERTEX
  8
0
 10
0.34942637
 20
0.59116615
  0
VERTEX
  8
0
 10
0.35443949
 20
0.59213639
  0
VERTEX
  8
0
 10
0.35935761
 20
0.59313339
  0
VERTEX
  8
0
 10
0.36418003
 20
0.59415504
  0
VERTEX
  8
0
 10
0.36890617
 20
0.59519824
  0
VERTEX
  8
0
 10
0.37353688
 20
0.59626414
  0
VERTEX
  8
0
 10
0.37807159
 20
0.59734962
  0
VERTEX
  8
0
 10
0.38251058
 20
0.59845273
  0
VERTEX
  8
0
 10
0.38685300
 20
0.59957236
  0
VERTEX
  8
0
 10
0.39110111
 20
0.60070679
  0
VERTEX
  8
0
 10
0.39525207
 20
0.60185465
  0
VERTEX
  8
0
 10
0.39930814
 20
0.60301424
  0
VERTEX
  8
0
 10
0.40326946
 20
0.60418457
  0
VERTEX
  8
0
 10
0.40713434
 20
0.60536341
  0
VERTEX
  8
0
 10
0.41090501
 20
0.60654906
  0
VERTEX
  8
0
 10
0.41457965
 20
0.60774026
  0
VERTEX
  8
0
 10
0.41816051
 20
0.60893533
  0
VERTEX
  8
0
 10
0.42164589
 20
0.61013202
  0
VERTEX
  8
0
 10
0.42503776
 20
0.61133060
  0
VERTEX
  8
0
 10
0.42833554
 20
0.61252800
  0
VERTEX
  8
0
 10
0.43153841
 20
0.61372308
  0
VERTEX
  8
0
 10
0.43464859
 20
0.61491416
  0
VERTEX
  8
0
 10
0.43766623
 20
0.61610026
  0
VERTEX
  8
0
 10
0.44059062
 20
0.61727926
  0
VERTEX
  8
0
 10
0.44342204
 20
0.61844921
  0
VERTEX
  8
0
 10
0.44616146
 20
0.61961024
  0
VERTEX
  8
0
 10
0.44880931
 20
0.62075941
  0
VERTEX
  8
0
 10
0.45136586
 20
0.62189474
  0
VERTEX
  8
0
 10
0.45383209
 20
0.62301637
  0
VERTEX
  8
0
 10
0.45620730
 20
0.62412221
  0
VERTEX
  8
0
 10
0.45849274
 20
0.62521041
  0
VERTEX
  8
0
 10
0.46068870
 20
0.62627902
  0
VERTEX
  8
0
 10
0.46279531
 20
0.62732706
  0
VERTEX
  8
0
 10
0.46481467
 20
0.62835380
  0
VERTEX
  8
0
 10
0.46674510
 20
0.62935702
  0
VERTEX
  8
0
 10
0.46858870
 20
0.63033601
  0
VERTEX
  8
0
 10
0.47201664
 20
0.63221243
  0
VERTEX
  8
0
 10
0.47510200
 20
0.63397252
  0
VERTEX
  8
0
 10
0.47785134
 20
0.63560517
  0
VERTEX
  8
0
 10
0.48026941
 20
0.63709803
  0
VERTEX
  8
0
 10
0.48236251
 20
0.63844194
  0
VERTEX
  8
0
 10
0.48490450
 20
0.64015173
  0
VERTEX
  8
0
 10
0.48675040
 20
0.64146391
  0
VERTEX
  8
0
 10
0.48847977
 20
0.64278478
  0
VERTEX
  8
0
 10
0.56350739
 20
0.70509170
  0
VERTEX
  8
0
 10
0.67056718
 20
0.59366095
  0
VERTEX
  8
0
 10
0.60530957
 20
0.52118491
  0
VERTEX
  8
0
 10
0.60392059
 20
0.51951083
  0
VERTEX
  8
0
 10
0.60253514
 20
0.51771894
  0
VERTEX
  8
0
 10
0.60072494
 20
0.51524672
  0
VERTEX
  8
0
 10
0.59929976
 20
0.51320962
  0
VERTEX
  8
0
 10
0.59771097
 20
0.51085275
  0
VERTEX
  8
0
 10
0.59596924
 20
0.50817159
  0
VERTEX
  8
0
 10
0.59408774
 20
0.50515796
  0
VERTEX
  8
0
 10
0.59207504
 20
0.50180807
  0
VERTEX
  8
0
 10
0.59102389
 20
0.50000601
  0
VERTEX
  8
0
 10
0.58994389
 20
0.49811668
  0
VERTEX
  8
0
 10
0.58883801
 20
0.49614049
  0
VERTEX
  8
0
 10
0.58770538
 20
0.49407633
  0
VERTEX
  8
0
 10
0.58654982
 20
0.49192572
  0
VERTEX
  8
0
 10
0.58537074
 20
0.48968558
  0
VERTEX
  8
0
 10
0.58417208
 20
0.48735646
  0
VERTEX
  8
0
 10
0.58295201
 20
0.48493711
  0
VERTEX
  8
0
 10
0.58171546
 20
0.48242821
  0
VERTEX
  8
0
 10
0.58046170
 20
0.47982766
  0
VERTEX
  8
0
 10
0.57919258
 20
0.47713672
  0
VERTEX
  8
0
 10
0.57790921
 20
0.47435455
  0
VERTEX
  8
0
 10
0.57661481
 20
0.47147958
  0
VERTEX
  8
0
 10
0.57530925
 20
0.46851282
  0
VERTEX
  8
0
 10
0.57399478
 20
0.46545255
  0
VERTEX
  8
0
 10
0.57267237
 20
0.46229893
  0
VERTEX
  8
0
 10
0.57134399
 20
0.45905223
  0
VERTEX
  8
0
 10
0.57001077
 20
0.45571161
  0
VERTEX
  8
0
 10
0.56867480
 20
0.45227635
  0
VERTEX
  8
0
 10
0.56733806
 20
0.44874674
  0
VERTEX
  8
0
 10
0.56600068
 20
0.44512179
  0
VERTEX
  8
0
 10
0.56466561
 20
0.44140191
  0
VERTEX
  8
0
 10
0.56333286
 20
0.43758711
  0
VERTEX
  8
0
 10
0.56200564
 20
0.43367583
  0
VERTEX
  8
0
 10
0.56068480
 20
0.42966920
  0
VERTEX
  8
0
 10
0.55937134
 20
0.42556735
  0
VERTEX
  8
0
 10
0.55806747
 20
0.42136860
  0
VERTEX
  8
0
 10
0.55677505
 20
0.41707419
  0
VERTEX
  8
0
 10
0.55549532
 20
0.41268231
  0
VERTEX
  8
0
 10
0.55422998
 20
0.40819520
  0
VERTEX
  8
0
 10
0.55298029
 20
0.40361103
  0
VERTEX
  8
0
 10
0.55174821
 20
0.39893008
  0
VERTEX
  8
0
 10
0.55053472
 20
0.39415248
  0
VERTEX
  8
0
 10
0.54934180
 20
0.38927850
  0
VERTEX
  8
0
 10
0.54817155
 20
0.38430745
  0
VERTEX
  8
0
 10
0.54702494
 20
0.37923947
  0
VERTEX
  8
0
 10
0.54590381
 20
0.37407580
  0
VERTEX
  8
0
 10
0.54480942
 20
0.36881463
  0
VERTEX
  8
0
 10
0.54374444
 20
0.36345833
  0
VERTEX
  8
0
 10
0.54270915
 20
0.35800493
  0
VERTEX
  8
0
 10
0.54170552
 20
0.35245472
  0
VERTEX
  8
0
 10
0.54073536
 20
0.34680896
  0
VERTEX
  8
0
 10
0.53980065
 20
0.34106791
  0
VERTEX
  8
0
 10
0.53890167
 20
0.33522962
  0
VERTEX
  8
0
 10
0.53804193
 20
0.32929758
  0
VERTEX
  8
0
 10
0.53722087
 20
0.32326871
  0
VERTEX
  8
0
 10
0.53644214
 20
0.31714553
  0
VERTEX
  8
0
 10
0.53570672
 20
0.31092817
  0
VERTEX
  8
0
 10
0.53482079
 20
0.30267839
  0
VERTEX
  8
0
 10
0.61070732
 20
0.24724756
  0
VERTEX
  8
0
 10
0.61829610
 20
0.25060108
  0
VERTEX
  8
0
 10
0.62399573
 20
0.25319280
  0
VERTEX
  8
0
 10
0.62959233
 20
0.25579710
  0
VERTEX
  8
0
 10
0.63508504
 20
0.25841288
  0
VERTEX
  8
0
 10
0.64047541
 20
0.26103633
  0
VERTEX
  8
0
 10
0.64576330
 20
0.26366844
  0
VERTEX
  8
0
 10
0.65094828
 20
0.26630513
  0
VERTEX
  8
0
 10
0.65603133
 20
0.26894655
  0
VERTEX
  8
0
 10
0.66101272
 20
0.27159073
  0
VERTEX
  8
0
 10
0.66589274
 20
0.27423570
  0
VERTEX
  8
0
 10
0.67067251
 20
0.27688062
  0
VERTEX
  8
0
 10
0.67535046
 20
0.27952225
  0
VERTEX
  8
0
 10
0.67992956
 20
0.28216103
  0
VERTEX
  8
0
 10
0.68440812
 20
0.28479469
  0
VERTEX
  8
0
 10
0.68878724
 20
0.28742240
  0
VERTEX
  8
0
 10
0.69306750
 20
0.29004023
  0
VERTEX
  8
0
 10
0.69724972
 20
0.29264930
  0
VERTEX
  8
0
 10
0.70133420
 20
0.29524763
  0
VERTEX
  8
0
 10
0.70532035
 20
0.29783215
  0
VERTEX
  8
0
 10
0.70921113
 20
0.30040326
  0
VERTEX
  8
0
 10
0.71300499
 20
0.30295774
  0
VERTEX
  8
0
 10
0.71670291
 20
0.30549573
  0
VERTEX
  8
0
 10
0.72030629
 20
0.30801442
  0
VERTEX
  8
0
 10
0.72381428
 20
0.31051268
  0
VERTEX
  8
0
 10
0.72722899
 20
0.31298982
  0
VERTEX
  8
0
 10
0.73055070
 20
0.31544385
  0
VERTEX
  8
0
 10
0.73378052
 20
0.31787395
  0
VERTEX
  8
0
 10
0.73691788
 20
0.32027701
  0
VERTEX
  8
0
 10
0.73996378
 20
0.32265318
  0
VERTEX
  8
0
 10
0.74291933
 20
0.32500162
  0
VERTEX
  8
0
 10
0.74578508
 20
0.32731838
  0
VERTEX
  8
0
 10
0.74856287
 20
0.32960474
  0
VERTEX
  8
0
 10
0.75125212
 20
0.33185759
  0
VERTEX
  8
0
 10
0.75385395
 20
0.33407611
  0
VERTEX
  8
0
 10
0.75636851
 20
0.33625929
  0
VERTEX
  8
0
 10
0.75879803
 20
0.33840546
  0
VERTEX
  8
0
 10
0.76114266
 20
0.34051363
  0
VERTEX
  8
0
 10
0.76340365
 20
0.34258198
  0
VERTEX
  8
0
 10
0.76558114
 20
0.34460951
  0
VERTEX
  8
0
 10
0.76767640
 20
0.34659440
  0
VERTEX
  8
0
 10
0.76969040
 20
0.34853680
  0
VERTEX
  8
0
 10
0.77162356
 20
0.35043374
  0
VERTEX
  8
0
 10
0.77347798
 20
0.35228452
  0
VERTEX
  8
0
 10
0.77525269
 20
0.35408901
  0
VERTEX
  8
0
 10
0.77695104
 20
0.35584467
  0
VERTEX
  8
0
 10
0.77857219
 20
0.35755037
  0
VERTEX
  8
0
 10
0.78011824
 20
0.35920542
  0
VERTEX
  8
0
 10
0.78158934
 20
0.36080882
  0
VERTEX
  8
0
 10
0.78298673
 20
0.36235876
  0
VERTEX
  8
0
 10
0.78556591
 20
0.36529497
  0
VERTEX
  8
0
 10
0.78786416
 20
0.36800422
  0
VERTEX
  8
0
 10
0.78988962
 20
0.37047861
  0
VERTEX
  8
0
 10
0.79165068
 20
0.37270830
  0
VERTEX
  8
0
 10
0.79315731
 20
0.37468666
  0
VERTEX
  8
0
 10
0.79496191
 20
0.37716310
  0
VERTEX
  8
0
 10
0.79624797
 20
0.37902725
  0
VERTEX
  8
0
 10
0.79742022
 20
0.38085937
  0
VERTEX
  8
0
 10
0.84661288
 20
0.46507025
  0
VERTEX
  8
0
 10
0.98532874
 20
0.39697725
  0
VERTEX
  8
0
 10
0.94879424
 20
0.30655243
  0
VERTEX
  8
0
 10
0.94806253
 20
0.30450351
  0
VERTEX
  8
0
 10
0.94737311
 20
0.30234622
  0
VERTEX
  8
0
 10
0.94651736
 20
0.29940357
  0
VERTEX
  8
0
 10
0.94587429
 20
0.29700214
  0
VERTEX
  8
0
 10
0.94518716
 20
0.29424360
  0
VERTEX
  8
0
 10
0.94446890
 20
0.29112877
  0
VERTEX
  8
0
 10
0.94373114
 20
0.28765326
  0
VERTEX
  8
0
 10
0.94298582
 20
0.28381775
  0
VERTEX
  8
0
 10
0.94261370
 20
0.28176421
  0
VERTEX
  8
0
 10
0.94224544
 20
0.27961898
  0
VERTEX
  8
0
 10
0.94188175
 20
0.27738415
  0
VERTEX
  8
0
 10
0.94152389
 20
0.27505790
  0
VERTEX
  8
0
 10
0.94117383
 20
0.27264050
  0
VERTEX
  8
0
 10
0.94083241
 20
0.27013308
  0
VERTEX
  8
0
 10
0.94050187
 20
0.26753395
  0
VERTEX
  8
0
 10
0.94018320
 20
0.26484324
  0
VERTEX
  8
0
 10
0.93987921
 20
0.26206235
  0
VERTEX
  8
0
 10
0.93959004
 20
0.25919029
  0
VERTEX
  8
0
 10
0.93931765
 20
0.25622736
  0
VERTEX
  8
0
 10
0.93906401
 20
0.25317381
  0
VERTEX
  8
0
 10
0.93883011
 20
0.25002980
  0
VERTEX
  8
0
 10
0.93861790
 20
0.24679559
  0
VERTEX
  8
0
 10
0.93842950
 20
0.24347048
  0
VERTEX
  8
0
 10
0.93826588
 20
0.24005460
  0
VERTEX
  8
0
 10
0.93812790
 20
0.23654908
  0
VERTEX
  8
0
 10
0.93801752
 20
0.23295420
  0
VERTEX
  8
0
 10
0.93793782
 20
0.22926939
  0
VERTEX
  8
0
 10
0.93788881
 20
0.22549464
  0
VERTEX
  8
0
 10
0.93787133
 20
0.22163108
  0
VERTEX
  8
0
 10
0.93788932
 20
0.21767925
  0
VERTEX
  8
0
 10
0.93794178
 20
0.21363903
  0
VERTEX
  8
0
 10
0.93803182
 20
0.20950985
  0
VERTEX
  8
0
 10
0.93816125
 20
0.20529295
  0
VERTEX
  8
0
 10
0.93833008
 20
0.20098835
  0
VERTEX
  8
0
 10
0.93854112
 20
0.19659744
  0
VERTEX
  8
0
 10
0.93879549
 20
0.19211938
  0
VERTEX
  8
0
 10
0.93909502
 20
0.18755542
  0
VERTEX
  8
0
 10
0.93943971
 20
0.18290556
  0
VERTEX
  8
0
 10
0.93983348
 20
0.17817037
  0
VERTEX
  8
0
 10
0.94027621
 20
0.17335081
  0
VERTEX
  8
0
 10
0.94077098
 20
0.16844633
  0
VERTEX
  8
0
 10
0.94131667
 20
0.16345777
  0
VERTEX
  8
0
 10
0.94191708
 20
0.15838665
  0
VERTEX
  8
0
 10
0.94257332
 20
0.15323215
  0
VERTEX
  8
0
 10
0.94328610
 20
0.14799636
  0
VERTEX
  8
0
 10
0.94405655
 20
0.14267844
  0
VERTEX
  8
0
 10
0.94488733
 20
0.13728076
  0
VERTEX
  8
0
 10
0.94577971
 20
0.13180151
  0
VERTEX
  8
0
 10
0.94673524
 20
0.12624390
  0
VERTEX
  8
0
 10
0.94775419
 20
0.12060598
  0
VERTEX
  8
0
 10
0.94884008
 20
0.11489123
  0
VERTEX
  8
0
 10
0.94999208
 20
0.10909855
  0
VERTEX
  8
0
 10
0.95121298
 20
0.10322933
  0
VERTEX
  8
0
 10
0.95250377
 20
0.09728370
  0
VERTEX
  8
0
 10
0.95386615
 20
0.09126391
  0
VERTEX
  8
0
 10
0.95530123
 20
0.08516912
  0
VERTEX
  8
0
 10
0.95728958
 20
0.07711375
  0
VERTEX
  8
0
 10
1.04755899
 20
0.05098069
  0
VERTEX
  8
0
 10
1.05354310
 20
0.05672754
  0
VERTEX
  8
0
 10
1.05801299
 20
0.06111358
  0
VERTEX
  8
0
 10
1.06238019
 20
0.06547415
  0
VERTEX
  8
0
 10
1.06664749
 20
0.06981066
  0
VERTEX
  8
0
 10
1.07081533
 20
0.07412016
  0
VERTEX
  8
0
 10
1.07488396
 20
0.07840068
  0
VERTEX
  8
0
 10
1.07885439
 20
0.08265235
  0
VERTEX
  8
0
 10
1.08272785
 20
0.08687335
  0
VERTEX
  8
0
 10
1.08650464
 20
0.09106172
  0
VERTEX
  8
0
 10
1.09018587
 20
0.09521660
  0
VERTEX
  8
0
 10
1.09377183
 20
0.09933604
  0
VERTEX
  8
0
 10
1.09726460
 20
0.10341932
  0
VERTEX
  8
0
 10
1.10066448
 20
0.10746448
  0
VERTEX
  8
0
 10
1.10397258
 20
0.11147067
  0
VERTEX
  8
0
 10
1.10718890
 20
0.11543789
  0
VERTEX
  8
0
 10
1.11031596
 20
0.11936249
  0
VERTEX
  8
0
 10
1.11335376
 20
0.12324447
  0
VERTEX
  8
0
 10
1.11630258
 20
0.12708186
  0
VERTEX
  8
0
 10
1.11916537
 20
0.13087507
  0
VERTEX
  8
0
 10
1.12194155
 20
0.13462102
  0
VERTEX
  8
0
 10
1.12463324
 20
0.13831900
  0
VERTEX
  8
0
 10
1.12724043
 20
0.14196901
  0
VERTEX
  8
0
 10
1.12976452
 20
0.14556824
  0
VERTEX
  8
0
 10
1.13220663
 20
0.14911585
  0
VERTEX
  8
0
 10
1.13456874
 20
0.15261210
  0
VERTEX
  8
0
 10
1.13685026
 20
0.15605392
  0
VERTEX
  8
0
 10
1.13905415
 20
0.15944171
  0
VERTEX
  8
0
 10
1.14117970
 20
0.16277337
  0
VERTEX
  8
0
 10
1.14322902
 20
0.16604820
  0
VERTEX
  8
0
 10
1.14520435
 20
0.16926451
  0
VERTEX
  8
0
 10
1.14710457
 20
0.17242314
  0
VERTEX
  8
0
 10
1.14893318
 20
0.17552057
  0
VERTEX
  8
0
 10
1.15068906
 20
0.17855764
  0
VERTEX
  8
0
 10
1.15237558
 20
0.18153183
  0
VERTEX
  8
0
 10
1.15399160
 20
0.18444397
  0
VERTEX
  8
0
 10
1.15554050
 20
0.18729154
  0
VERTEX
  8
0
 10
1.15702326
 20
0.19007467
  0
VERTEX
  8
0
 10
1.15844016
 20
0.19279139
  0
VERTEX
  8
0
 10
1.15979232
 20
0.19544086
  0
VERTEX
  8
0
 10
1.16108268
 20
0.19802349
  0
VERTEX
  8
0
 10
1.16231054
 20
0.20053719
  0
VERTEX
  8
0
 10
1.16347899
 20
0.20298137
  0
VERTEX
  8
0
 10
1.16458817
 20
0.20535506
  0
VERTEX
  8
0
 10
1.16563919
 20
0.20765741
  0
VERTEX
  8
0
 10
1.16663417
 20
0.20988771
  0
VERTEX
  8
0
 10
1.16757421
 20
0.21204513
  0
VERTEX
  8
0
 10
1.16846144
 20
0.21412895
  0
VERTEX
  8
0
 10
1.16929486
 20
0.21613903
  0
VERTEX
  8
0
 10
1.17007883
 20
0.21807299
  0
VERTEX
  8
0
 10
1.17149810
 20
0.22171446
  0
VERTEX
  8
0
 10
1.17273035
 20
0.22504591
  0
VERTEX
  8
0
 10
1.17378707
 20
0.22806393
  0
VERTEX
  8
0
 10
1.17468019
 20
0.23076218
  0
VERTEX
  8
0
 10
1.17541937
 20
0.23313601
  0
VERTEX
  8
0
 10
1.17626784
 20
0.23608065
  0
VERTEX
  8
0
 10
1.17683812
 20
0.23827232
  0
VERTEX
  8
0
 10
1.17731374
 20
0.24039555
  0
VERTEX
  8
0
 10
1.19473783
 20
0.33635208
  0
VERTEX
  8
0
 10
1.34837686
 20
0.31980883
  0
VERTEX
  8
0
 10
1.34497322
 20
0.22234163
  0
VERTEX
  8
0
 10
1.34498626
 20
0.22016576
  0
VERTEX
  8
0
 10
1.34507660
 20
0.21790350
  0
VERTEX
  8
0
 10
1.34527873
 20
0.21484584
  0
VERTEX
  8
0
 10
1.34549552
 20
0.21236874
  0
VERTEX
  8
0
 10
1.34579352
 20
0.20954211
  0
VERTEX
  8
0
 10
1.34618340
 20
0.20636846
  0
VERTEX
  8
0
 10
1.34667879
 20
0.20285069
  0
VERTEX
  8
0
 10
1.34729037
 20
0.19899132
  0
VERTEX
  8
0
 10
1.34764361
 20
0.19693445
  0
VERTEX
  8
0
 10
1.34803177
 20
0.19479325
  0
VERTEX
  8
0
 10
1.34845371
 20
0.19256858
  0
VERTEX
  8
0
 10
1.34891253
 20
0.19025985
  0
VERTEX
  8
0
 10
1.34940992
 20
0.18786931
  0
VERTEX
  8
0
 10
1.34994714
 20
0.18539514
  0
VERTEX
  8
0
 10
1.35052588
 20
0.18283957
  0
VERTEX
  8
0
 10
1.35114698
 20
0.18020374
  0
VERTEX
  8
0
 10
1.35181170
 20
0.17748580
  0
VERTEX
  8
0
 10
1.35252271
 20
0.17468814
  0
VERTEX
  8
0
 10
1.35328003
 20
0.17181077
  0
VERTEX
  8
0
 10
1.35408546
 20
0.16885493
  0
VERTEX
  8
0
 10
1.35494211
 20
0.16582007
  0
VERTEX
  8
0
 10
1.35584871
 20
0.16270800
  0
VERTEX
  8
0
 10
1.35680920
 20
0.15951929
  0
VERTEX
  8
0
 10
1.35782258
 20
0.15625379
  0
VERTEX
  8
0
 10
1.35889280
 20
0.15291206
  0
VERTEX
  8
0
 10
1.36001860
 20
0.14949593
  0
VERTEX
  8
0
 10
1.36120391
 20
0.14600594
  0
VERTEX
  8
0
 10
1.36244858
 20
0.14244309
  0
VERTEX
  8
0
 10
1.36375374
 20
0.13880652
  0
VERTEX
  8
0
 10
1.36512207
 20
0.13509862
  0
VERTEX
  8
0
 10
1.36655357
 20
0.13131938
  0
VERTEX
  8
0
 10
1.36805090
 20
0.12747120
  0
VERTEX
  8
0
 10
1.36961434
 20
0.12355209
  0
VERTEX
  8
0
 10
1.37124447
 20
0.11956516
  0
VERTEX
  8
0
 10
1.37294507
 20
0.11551193
  0
VERTEX
  8
0
 10
1.37471545
 20
0.11139030
  0
VERTEX
  8
0
 10
1.37655799
 20
0.10720462
  0
VERTEX
  8
0
 10
1.37847297
 20
0.10295292
  0
VERTEX
  8
0
 10
1.38046209
 20
0.09863744
  0
VERTEX
  8
0
 10
1.38252704
 20
0.09426044
  0
VERTEX
  8
0
 10
1.38466808
 20
0.08981993
  0
VERTEX
  8
0
 10
1.38688762
 20
0.08532028
  0
VERTEX
  8
0
 10
1.38918691
 20
0.08075964
  0
VERTEX
  8
0
 10
1.39156555
 20
0.07614097
  0
VERTEX
  8
0
 10
1.39402662
 20
0.07146370
  0
VERTEX
  8
0
 10
1.39656970
 20
0.06673079
  0
VERTEX
  8
0
 10
1.39919677
 20
0.06194250
  0
VERTEX
  8
0
 10
1.40190880
 20
0.05709898
  0
VERTEX
  8
0
 10
1.40470748
 20
0.05220246
  0
VERTEX
  8
0
 10
1.40759367
 20
0.04725407
  0
VERTEX
  8
0
 10
1.41056819
 20
0.04225494
  0
VERTEX
  8
0
 10
1.41363191
 20
0.03720618
  0
VERTEX
  8
0
 10
1.41678679
 20
0.03210806
  0
VERTEX
  8
0
 10
1.42003254
 20
0.02696256
  0
VERTEX
  8
0
 10
1.42337199
 20
0.02177107
  0
VERTEX
  8
0
 10
1.42680485
 20
0.01653557
  0
VERTEX
  8
0
 10
1.43142873
 20
0.00964568
  0
VERTEX
  8
0
 10
1.52519270
 20
0.01596239
  0
VERTEX
  8
0
 10
1.52885038
 20
0.02340959
  0
VERTEX
  8
0
 10
1.53155043
 20
0.02905985
  0
VERTEX
  8
0
 10
1.53416245
 20
0.03465162
  0
VERTEX
  8
0
 10
1.53668939
 20
0.04018531
  0
VERTEX
  8
0
 10
1.53913237
 20
0.04566008
  0
VERTEX
  8
0
 10
1.54149153
 20
0.05107494
  0
VERTEX
  8
0
 10
1.54376812
 20
0.05642807
  0
VERTEX
  8
0
 10
1.54596426
 20
0.06171875
  0
VERTEX
  8
0
 10
1.54808106
 20
0.06694615
  0
VERTEX
  8
0
 10
1.55011866
 20
0.07210928
  0
VERTEX
  8
0
 10
1.55208015
 20
0.07720758
  0
VERTEX
  8
0
 10
1.55396581
 20
0.08223906
  0
VERTEX
  8
0
 10
1.55577675
 20
0.08720290
  0
VERTEX
  8
0
 10
1.55751495
 20
0.09209936
  0
VERTEX
  8
0
 10
1.55918068
 20
0.09692649
  0
VERTEX
  8
0
 10
1.56077688
 20
0.10168469
  0
VERTEX
  8
0
 10
1.56230300
 20
0.10637087
  0
VERTEX
  8
0
 10
1.56376184
 20
0.11098644
  0
VERTEX
  8
0
 10
1.56515466
 20
0.11552957
  0
VERTEX
  8
0
 10
1.56648259
 20
0.11999941
  0
VERTEX
  8
0
 10
1.56774674
 20
0.12439511
  0
VERTEX
  8
0
 10
1.56894823
 20
0.12871584
  0
VERTEX
  8
0
 10
1.57008904
 20
0.13296186
  0
VERTEX
  8
0
 10
1.57117042
 20
0.13713135
  0
VERTEX
  8
0
 10
1.57219448
 20
0.14122361
  0
VERTEX
  8
0
 10
1.57316121
 20
0.14523863
  0
VERTEX
  8
0
 10
1.57407371
 20
0.14917584
  0
VERTEX
  8
0
 10
1.57493225
 20
0.15303328
  0
VERTEX
  8
0
 10
1.57573767
 20
0.15681207
  0
VERTEX
  8
0
 10
1.57649334
 20
0.16050967
  0
VERTEX
  8
0
 10
1.57719913
 20
0.16412707
  0
VERTEX
  8
0
 10
1.57785713
 20
0.16766356
  0
VERTEX
  8
0
 10
1.57846945
 20
0.17111843
  0
VERTEX
  8
0
 10
1.57903637
 20
0.17448972
  0
VERTEX
  8
0
 10
1.57955958
 20
0.17777967
  0
VERTEX
  8
0
 10
1.58004061
 20
0.18098449
  0
VERTEX
  8
0
 10
1.58048214
 20
0.18410655
  0
VERTEX
  8
0
 10
1.58088444
 20
0.18714389
  0
VERTEX
  8
0
 10
1.58124948
 20
0.19009679
  0
VERTEX
  8
0
 10
1.58157824
 20
0.19296538
  0
VERTEX
  8
0
 10
1.58187310
 20
0.19574699
  0
VERTEX
  8
0
 10
1.58213393
 20
0.19844261
  0
VERTEX
  8
0
 10
1.58236466
 20
0.20105278
  0
VERTEX
  8
0
 10
1.58256543
 20
0.20357653
  0
VERTEX
  8
0
 10
1.58273749
 20
0.20601202
  0
VERTEX
  8
0
 10
1.58288253
 20
0.20836150
  0
VERTEX
  8
0
 10
1.58300281
 20
0.21062328
  0
VERTEX
  8
0
 10
1.58309943
 20
0.21279651
  0
VERTEX
  8
0
 10
1.58317423
 20
0.21488246
  0
VERTEX
  8
0
 10
1.58326286
 20
0.21878911
  0
VERTEX
  8
0
 10
1.58328090
 20
0.22234193
  0
VERTEX
  8
0
 10
1.58324266
 20
0.22553894
  0
VERTEX
  8
0
 10
1.58315826
 20
0.22837954
  0
VERTEX
  8
0
 10
1.58304076
 20
0.23086358
  0
VERTEX
  8
0
 10
1.58283175
 20
0.23392028
  0
VERTEX
  8
0
 10
1.58261712
 20
0.23617509
  0
VERTEX
  8
0
 10
1.58233797
 20
0.23833261
  0
VERTEX
  8
0
 10
1.56589218
 20
0.33446195
  0
VERTEX
  8
0
 10
1.71592414
 20
0.37146423
  0
VERTEX
  8
0
 10
1.74606153
 20
0.27871091
  0
VERTEX
  8
0
 10
1.74681751
 20
0.27667054
  0
VERTEX
  8
0
 10
1.74767643
 20
0.27457546
  0
VERTEX
  8
0
 10
1.74891174
 20
0.27177127
  0
VERTEX
  8
0
 10
1.74996337
 20
0.26951779
  0
VERTEX
  8
0
 10
1.75120963
 20
0.26696379
  0
VERTEX
  8
0
 10
1.75266163
 20
0.26411587
  0
VERTEX
  8
0
 10
1.75432977
 20
0.26097849
  0
VERTEX
  8
0
 10
1.75622475
 20
0.25756117
  0
VERTEX
  8
0
 10
1.75726039
 20
0.25574960
  0
VERTEX
  8
0
 10
1.75835668
 20
0.25387035
  0
VERTEX
  8
0
 10
1.75951460
 20
0.25192356
  0
VERTEX
  8
0
 10
1.76073584
 20
0.24991148
  0
VERTEX
  8
0
 10
1.76202123
 20
0.24783523
  0
VERTEX
  8
0
 10
1.76337192
 20
0.24569395
  0
VERTEX
  8
0
 10
1.76478944
 20
0.24349088
  0
VERTEX
  8
0
 10
1.76627492
 20
0.24122518
  0
VERTEX
  8
0
 10
1.76782906
 20
0.23889894
  0
VERTEX
  8
0
 10
1.76945370
 20
0.23651342
  0
VERTEX
  8
0
 10
1.77114981
 20
0.23406877
  0
VERTEX
  8
0
 10
1.77291825
 20
0.23156611
  0
VERTEX
  8
0
 10
1.77476069
 20
0.22900768
  0
VERTEX
  8
0
 10
1.77667715
 20
0.22639347
  0
VERTEX
  8
0
 10
1.77866944
 20
0.22372475
  0
VERTEX
  8
0
 10
1.78073941
 20
0.22100278
  0
VERTEX
  8
0
 10
1.78288775
 20
0.21822966
  0
VERTEX
  8
0
 10
1.78511460
 20
0.21540441
  0
VERTEX
  8
0
 10
1.78742152
 20
0.21253026
  0
VERTEX
  8
0
 10
1.78980948
 20
0.20960733
  0
VERTEX
  8
0
 10
1.79228032
 20
0.20663691
  0
VERTEX
  8
0
 10
1.79483376
 20
0.20362094
  0
VERTEX
  8
0
 10
1.79747191
 20
0.20055872
  0
VERTEX
  8
0
 10
1.80019519
 20
0.19745432
  0
VERTEX
  8
0
 10
1.80300374
 20
0.19430677
  0
VERTEX
  8
0
 10
1.80590024
 20
0.19111843
  0
VERTEX
  8
0
 10
1.80888455
 20
0.18789030
  0
VERTEX
  8
0
 10
1.81195751
 20
0.18462350
  0
VERTEX
  8
0
 10
1.81512095
 20
0.18131928
  0
VERTEX
  8
0
 10
1.81837460
 20
0.17797961
  0
VERTEX
  8
0
 10
1.82171929
 20
0.17460562
  0
VERTEX
  8
0
 10
1.82515701
 20
0.17119757
  0
VERTEX
  8
0
 10
1.82868732
 20
0.16775843
  0
VERTEX
  8
0
 10
1.83231221
 20
0.16428846
  0
VERTEX
  8
0
 10
1.83603250
 20
0.16078878
  0
VERTEX
  8
0
 10
1.83984780
 20
0.15726236
  0
VERTEX
  8
0
 10
1.84375908
 20
0.15370931
  0
VERTEX
  8
0
 10
1.84776803
 20
0.15013189
  0
VERTEX
  8
0
 10
1.85187465
 20
0.14653011
  0
VERTEX
  8
0
 10
1.85607951
 20
0.14290703
  0
VERTEX
  8
0
 10
1.86038458
 20
0.13926295
  0
VERTEX
  8
0
 10
1.86478860
 20
0.13559968
  0
VERTEX
  8
0
 10
1.86929325
 20
0.13191948
  0
VERTEX
  8
0
 10
1.87389953
 20
0.12822248
  0
VERTEX
  8
0
 10
1.87860799
 20
0.12451177
  0
VERTEX
  8
0
 10
1.88341780
 20
0.12078623
  0
VERTEX
  8
0
 10
1.88833135
 20
0.11705019
  0
VERTEX
  8
0
 10
1.89334851
 20
0.11330466
  0
VERTEX
  8
0
 10
1.90004984
 20
0.10841220
  0
VERTEX
  8
0
 10
1.98599751
 20
0.14641721
  0
VERTEX
  8
0
 10
1.98688764
 20
0.15466557
  0
VERTEX
  8
0
 10
1.98749265
 20
0.16089769
  0
VERTEX
  8
0
 10
1.98803513
 20
0.16704683
  0
VERTEX
  8
0
 10
1.98851731
 20
0.17311129
  0
VERTEX
  8
0
 10
1.98893921
 20
0.17909108
  0
VERTEX
  8
0
 10
1.98930489
 20
0.18498576
  0
VERTEX
  8
0
 10
1.98961337
 20
0.19079521
  0
VERTEX
  8
0
 10
1.98986788
 20
0.19651786
  0
VERTEX
  8
0
 10
1.99006841
 20
0.20215372
  0
VERTEX
  8
0
 10
1.99021791
 20
0.20770320
  0
VERTEX
  8
0
 10
1.99031765
 20
0.21316448
  0
VERTEX
  8
0
 10
1.99036776
 20
0.21853656
  0
VERTEX
  8
0
 10
1.99037190
 20
0.22382197
  0
VERTEX
  8
0
 10
1.99033062
 20
0.22901678
  0
VERTEX
  8
0
 10
1.99024561
 20
0.23412323
  0
VERTEX
  8
0
 10
1.99011715
 20
0.23913935
  0
VERTEX
  8
0
 10
1.98994917
 20
0.24406570
  0
VERTEX
  8
0
 10
1.98974181
 20
0.24890129
  0
VERTEX
  8
0
 10
1.98949605
 20
0.25364626
  0
VERTEX
  8
0
 10
1.98921484
 20
0.25830103
  0
VERTEX
  8
0
 10
1.98889944
 20
0.26286376
  0
VERTEX
  8
0
 10
1.98855070
 20
0.26733558
  0
VERTEX
  8
0
 10
1.98817072
 20
0.27171578
  0
VERTEX
  8
0
 10
1.98776160
 20
0.27600365
  0
VERTEX
  8
0
 10
1.98732335
 20
0.28019920
  0
VERTEX
  8
0
 10
1.98685892
 20
0.28430284
  0
VERTEX
  8
0
 10
1.98636942
 20
0.28831373
  0
VERTEX
  8
0
 10
1.98585669
 20
0.29223311
  0
VERTEX
  8
0
 10
1.98532198
 20
0.29605918
  0
VERTEX
  8
0
 10
1.98476712
 20
0.29979317
  0
VERTEX
  8
0
 10
1.98419337
 20
0.30343328
  0
VERTEX
  8
0
 10
1.98360145
 20
0.30698159
  0
VERTEX
  8
0
 10
1.98299555
 20
0.31043670
  0
VERTEX
  8
0
 10
1.98237455
 20
0.31379946
  0
VERTEX
  8
0
 10
1.98174155
 20
0.31706929
  0
VERTEX
  8
0
 10
1.98109753
 20
0.32024633
  0
VERTEX
  8
0
 10
1.98044446
 20
0.32333086
  0
VERTEX
  8
0
 10
1.97978331
 20
0.32632301
  0
VERTEX
  8
0
 10
1.97911619
 20
0.32922209
  0
VERTEX
  8
0
 10
1.97844493
 20
0.33202934
  0
VERTEX
  8
0
 10
1.97776953
 20
0.33474478
  0
VERTEX
  8
0
 10
1.97709420
 20
0.33736698
  0
VERTEX
  8
0
 10
1.97641755
 20
0.33989875
  0
VERTEX
  8
0
 10
1.97574278
 20
0.34233856
  0
VERTEX
  8
0
 10
1.97507189
 20
0.34468666
  0
VERTEX
  8
0
 10
1.97440472
 20
0.34694405
  0
VERTEX
  8
0
 10
1.97374436
 20
0.34911015
  0
VERTEX
  8
0
 10
1.97309166
 20
0.35118610
  0
VERTEX
  8
0
 10
1.97244774
 20
0.35317103
  0
VERTEX
  8
0
 10
1.97119454
 20
0.35687306
  0
VERTEX
  8
0
 10
1.96999767
 20
0.36021704
  0
VERTEX
  8
0
 10
1.96886740
 20
0.36320843
  0
VERTEX
  8
0
 10
1.96781650
 20
0.36584904
  0
VERTEX
  8
0
 10
1.96685750
 20
0.36814262
  0
VERTEX
  8
0
 10
1.96561460
 20
0.37094373
  0
VERTEX
  8
0
 10
1.96464240
 20
0.37298880
  0
VERTEX
  8
0
 10
1.96364185
 20
0.37492161
  0
VERTEX
  8
0
 10
1.91530974
 20
0.45962845
  0
VERTEX
  8
0
 10
2.04363789
 20
0.54571290
  0
VERTEX
  8
0
 10
2.10368157
 20
0.46886126
  0
VERTEX
  8
0
 10
2.10508979
 20
0.46720232
  0
VERTEX
  8
0
 10
2.10661354
 20
0.46552752
  0
VERTEX
  8
0
 10
2.10873423
 20
0.46331499
  0
VERTEX
  8
0
 10
2.11049228
 20
0.46155682
  0
VERTEX
  8
0
 10
2.11253726
 20
0.45958331
  0
VERTEX
  8
0
 10
2.11487595
 20
0.45740342
  0
VERTEX
  8
0
 10
2.11751607
 20
0.45502628
  0
VERTEX
  8
0
 10
2.12046608
 20
0.45246308
  0
VERTEX
  8
0
 10
2.12205923
 20
0.45111487
  0
VERTEX
  8
0
 10
2.12373162
 20
0.44972365
  0
VERTEX
  8
0
 10
2.12548606
 20
0.44829083
  0
VERTEX
  8
0
 10
2.12732142
 20
0.44681724
  0
VERTEX
  8
0
 10
2.12923939
 20
0.44530513
  0
VERTEX
  8
0
 10
2.13124083
 20
0.44375562
  0
VERTEX
  8
0
 10
2.13332657
 20
0.44216983
  0
VERTEX
  8
0
 10
2.13549648
 20
0.44054875
  0
VERTEX
  8
0
 10
2.13775324
 20
0.43889476
  0
VERTEX
  8
0
 10
2.14009571
 20
0.43720870
  0
VERTEX
  8
0
 10
2.14252573
 20
0.43549183
  0
VERTEX
  8
0
 10
2.14504315
 20
0.43374513
  0
VERTEX
  8
0
 10
2.14764870
 20
0.43197072
  0
VERTEX
  8
0
 10
2.15034419
 20
0.43016984
  0
VERTEX
  8
0
 10
2.15312948
 20
0.42834348
  0
VERTEX
  8
0
 10
2.15600529
 20
0.42649375
  0
VERTEX
  8
0
 10
2.15897246
 20
0.42462177
  0
VERTEX
  8
0
 10
2.16203169
 20
0.42272964
  0
VERTEX
  8
0
 10
2.16518201
 20
0.42081722
  0
VERTEX
  8
0
 10
2.16842608
 20
0.41888690
  0
VERTEX
  8
0
 10
2.17176349
 20
0.41694162
  0
VERTEX
  8
0
 10
2.17519536
 20
0.41498055
  0
VERTEX
  8
0
 10
2.17872043
 20
0.41300550
  0
VERTEX
  8
0
 10
2.18234138
 20
0.41101886
  0
VERTEX
  8
0
 10
2.18605793
 20
0.40902259
  0
VERTEX
  8
0
 10
2.18987008
 20
0.40701670
  0
VERTEX
  8
0
 10
2.19377840
 20
0.40500428
  0
VERTEX
  8
0
 10
2.19778387
 20
0.40298545
  0
VERTEX
  8
0
 10
2.20188621
 20
0.40096219
  0
VERTEX
  8
0
 10
2.20608515
 20
0.39893647
  0
VERTEX
  8
0
 10
2.21038337
 20
0.39691066
  0
VERTEX
  8
0
 10
2.21477902
 20
0.39488351
  0
VERTEX
  8
0
 10
2.21927354
 20
0.39285922
  0
VERTEX
  8
0
 10
2.22386579
 20
0.39083864
  0
VERTEX
  8
0
 10
2.22855872
 20
0.38882219
  0
VERTEX
  8
0
 10
2.23334982
 20
0.38681351
  0
VERTEX
  8
0
 10
2.23824007
 20
0.38481276
  0
VERTEX
  8
0
 10
2.24323130
 20
0.38282118
  0
VERTEX
  8
0
 10
2.24832211
 20
0.38084159
  0
VERTEX
  8
0
 10
2.25351236
 20
0.37887498
  0
VERTEX
  8
0
 10
2.25880374
 20
0.37692358
  0
VERTEX
  8
0
 10
2.26419528
 20
0.37498726
  0
VERTEX
  8
0
 10
2.26968739
 20
0.37307009
  0
VERTEX
  8
0
 10
2.27528021
 20
0.37117108
  0
VERTEX
  8
0
 10
2.28097320
 20
0.36929417
  0
VERTEX
  8
0
 10
2.28676734
 20
0.36743950
  0
VERTEX
  8
0
 10
2.29266236
 20
0.36560903
  0
VERTEX
  8
0
 10
2.29865796
 20
0.36380473
  0
VERTEX
  8
0
 10
2.30662902
 20
0.36149902
  0
VERTEX
  8
0
 10
2.37439481
 20
0.42660836
  0
VERTEX
  8
0
 10
2.37241039
 20
0.43466429
  0
VERTEX
  8
0
 10
2.37084746
 20
0.44072707
  0
VERTEX
  8
0
 10
2.36925440
 20
0.44669038
  0
VERTEX
  8
0
 10
2.36763219
 20
0.45255433
  0
VERTEX
  8
0
 10
2.36598489
 20
0.45831851
  0
VERTEX
  8
0
 10
2.36431154
 20
0.46398278
  0
VERTEX
  8
0
 10
2.36261422
 20
0.46954642
  0
VERTEX
  8
0
 10
2.36089562
 20
0.47501183
  0
VERTEX
  8
0
 10
2.35915713
 20
0.48037618
  0
VERTEX
  8
0
 10
2.35739947
 20
0.48564158
  0
VERTEX
  8
0
 10
2.35562571
 20
0.49080747
  0
VERTEX
  8
0
 10
2.35383585
 20
0.49587384
  0
VERTEX
  8
0
 10
2.35203187
 20
0.50084097
  0
VERTEX
  8
0
 10
2.35021574
 20
0.50570914
  0
VERTEX
  8
0
 10
2.34838954
 20
0.51047764
  0
VERTEX
  8
0
 10
2.34655414
 20
0.51514758
  0
VERTEX
  8
0
 10
2.34471050
 20
0.51971912
  0
VERTEX
  8
0
 10
2.34286160
 20
0.52419266
  0
VERTEX
  8
0
 10
2.34100839
 20
0.52856835
  0
VERTEX
  8
0
 10
2.33915202
 20
0.53284533
  0
VERTEX
  8
0
 10
2.33729528
 20
0.53702500
  0
VERTEX
  8
0
 10
2.33543804
 20
0.54110835
  0
VERTEX
  8
0
 10
2.33358255
 20
0.54509369
  0
VERTEX
  8
0
 10
2.33173161
 20
0.54898242
  0
VERTEX
  8
0
 10
2.32988509
 20
0.55277552
  0
VERTEX
  8
0
 10
2.32804495
 20
0.55647326
  0
VERTEX
  8
0
 10
2.32621330
 20
0.56007493
  0
VERTEX
  8
0
 10
2.32439084
 20
0.56358266
  0
VERTEX
  8
0
 10
2.32257982
 20
0.56699473
  0
VERTEX
  8
0
 10
2.32078094
 20
0.57031326
  0
VERTEX
  8
0
 10
2.31899618
 20
0.57353853
  0
VERTEX
  8
0
 10
2.31722762
 20
0.57666982
  0
VERTEX
  8
0
 10
2.31547600
 20
0.57970924
  0
VERTEX
  8
0
 10
2.31374227
 20
0.58265694
  0
VERTEX
  8
0
 10
2.31202940
 20
0.58551331
  0
VERTEX
  8
0
 10
2.31033738
 20
0.58827838
  0
VERTEX
  8
0
 10
2.30866904
 20
0.59095352
  0
VERTEX
  8
0
 10
2.30702435
 20
0.59353875
  0
VERTEX
  8
0
 10
2.30540615
 20
0.59603545
  0
VERTEX
  8
0
 10
2.30381442
 20
0.59844364
  0
VERTEX
  8
0
 10
2.30225198
 20
0.60076470
  0
VERTEX
  8
0
 10
2.30071897
 20
0.60299766
  0
VERTEX
  8
0
 10
2.29921805
 20
0.60514489
  0
VERTEX
  8
0
 10
2.29774924
 20
0.60720640
  0
VERTEX
  8
0
 10
2.29631534
 20
0.60918358
  0
VERTEX
  8
0
 10
2.29491734
 20
0.61107657
  0
VERTEX
  8
0
 10
2.29355509
 20
0.61288636
  0
VERTEX
  8
0
 10
2.29223253
 20
0.61461349
  0
VERTEX
  8
0
 10
2.29094840
 20
0.61625980
  0
VERTEX
  8
0
 10
2.28850554
 20
0.61930936
  0
VERTEX
  8
0
 10
2.28623551
 20
0.62204231
  0
VERTEX
  8
0
 10
2.28415125
 20
0.62446650
  0
VERTEX
  8
0
 10
2.28226078
 20
0.62658906
  0
VERTEX
  8
0
 10
2.28057421
 20
0.62841644
  0
VERTEX
  8
0
 10
2.27844832
 20
0.63062322
  0
VERTEX
  8
0
 10
2.27683535
 20
0.63221228
  0
VERTEX
  8
0
 10
2.27523462
 20
0.63368576
  0
VERTEX
  8
0
 10
2.20084540
 20
0.69675447
  0
VERTEX
  8
0
 10
2.29199275
 20
0.82153745
  0
VERTEX
  8
0
 10
2.37469949
 20
0.76985644
  0
VERTEX
  8
0
 10
2.37659038
 20
0.76877968
  0
VERTEX
  8
0
 10
2.37859519
 20
0.76772694
  0
VERTEX
  8
0
 10
2.38134407
 20
0.76637372
  0
VERTEX
  8
0
 10
2.38359728
 20
0.76532281
  0
VERTEX
  8
0
 10
2.38619398
 20
0.76416777
  0
VERTEX
  8
0
 10
2.38913771
 20
0.76291913
  0
VERTEX
  8
0
 10
2.39243186
 20
0.76158840
  0
VERTEX
  8
0
 10
2.39607970
 20
0.76018807
  0
VERTEX
  8
0
 10
2.39803808
 20
0.75946569
  0
VERTEX
  8
0
 10
2.40008644
 20
0.75873089
  0
VERTEX
  8
0
 10
2.40222464
 20
0.75798465
  0
VERTEX
  8
0
 10
2.40445254
 20
0.75722797
  0
VERTEX
  8
0
 10
2.40677281
 20
0.75646320
  0
VERTEX
  8
0
 10
2.40918335
 20
0.75569108
  0
VERTEX
  8
0
 10
2.41168571
 20
0.75491481
  0
VERTEX
  8
0
 10
2.41427891
 20
0.75413426
  0
VERTEX
  8
0
 10
2.41696477
 20
0.75335070
  0
VERTEX
  8
0
 10
2.41974275
 20
0.75256804
  0
VERTEX
  8
0
 10
2.42261396
 20
0.75178546
  0
VERTEX
  8
0
 10
2.42557715
 20
0.75100478
  0
VERTEX
  8
0
 10
2.42863288
 20
0.75022908
  0
VERTEX
  8
0
 10
2.43178115
 20
0.74945836
  0
VERTEX
  8
0
 10
2.43502352
 20
0.74869586
  0
VERTEX
  8
0
 10
2.43835816
 20
0.74794031
  0
VERTEX
  8
0
 10
2.44178633
 20
0.74719690
  0
VERTEX
  8
0
 10
2.44530833
 20
0.74646367
  0
VERTEX
  8
0
 10
2.44892346
 20
0.74574554
  0
VERTEX
  8
0
 10
2.45263185
 20
0.74504151
  0
VERTEX
  8
0
 10
2.45643323
 20
0.74435356
  0
VERTEX
  8
0
 10
2.46032817
 20
0.74368477
  0
VERTEX
  8
0
 10
2.46431667
 20
0.74303515
  0
VERTEX
  8
0
 10
2.46839845
 20
0.74240666
  0
VERTEX
  8
0
 10
2.47257422
 20
0.74180141
  0
VERTEX
  8
0
 10
2.47684173
 20
0.74122108
  0
VERTEX
  8
0
 10
2.48120296
 20
0.74066596
  0
VERTEX
  8
0
 10
2.48565749
 20
0.74013898
  0
VERTEX
  8
0
 10
2.49020419
 20
0.73964100
  0
VERTEX
  8
0
 10
2.49484279
 20
0.73917399
  0
VERTEX
  8
0
 10
2.49957414
 20
0.73873906
  0
VERTEX
  8
0
 10
2.50439894
 20
0.73833831
  0
VERTEX
  8
0
 10
2.50931397
 20
0.73797331
  0
VERTEX
  8
0
 10
2.51432105
 20
0.73764531
  0
VERTEX
  8
0
 10
2.51942005
 20
0.73735529
  0
VERTEX
  8
0
 10
2.52460957
 20
0.73710607
  0
VERTEX
  8
0
 10
2.52988946
 20
0.73689863
  0
VERTEX
  8
0
 10
2.53526045
 20
0.73673507
  0
VERTEX
  8
0
 10
2.54072140
 20
0.73661623
  0
VERTEX
  8
0
 10
2.54627218
 20
0.73654311
  0
VERTEX
  8
0
 10
2.55191138
 20
0.73651851
  0
VERTEX
  8
0
 10
2.55763987
 20
0.73654356
  0
VERTEX
  8
0
 10
2.56345636
 20
0.73662007
  0
VERTEX
  8
0
 10
2.56936074
 20
0.73674904
  0
VERTEX
  8
0
 10
2.57535370
 20
0.73693258
  0
VERTEX
  8
0
 10
2.58143215
 20
0.73717124
  0
VERTEX
  8
0
 10
2.58759779
 20
0.73746727
  0
VERTEX
  8
0
 10
2.59384936
 20
0.73782250
  0
VERTEX
  8
0
 10
2.60212755
 20
0.73838234
  0
VERTEX
  8
0
 10
2.64353802
 20
0.82274176
  0
VERTEX
  8
0
 10
2.63891794
 20
0.82963319
  0
VERTEX
  8
0
 10
2.63537497
 20
0.83479607
  0
VERTEX
  8
0
 10
2.63183864
 20
0.83985461
  0
VERTEX
  8
0
 10
2.62830980
 20
0.84480994
  0
VERTEX
  8
0
 10
2.62478930
 20
0.84966316
  0
VERTEX
  8
0
 10
2.62127937
 20
0.85441259
  0
VERTEX
  8
0
 10
2.61778255
 20
0.85906160
  0
VERTEX
  8
0
 10
2.61429800
 20
0.86360906
  0
VERTEX
  8
0
 10
2.61082965
 20
0.86805553
  0
VERTEX
  8
0
 10
2.60737736
 20
0.87240199
  0
VERTEX
  8
0
 10
2.60394296
 20
0.87664969
  0
VERTEX
  8
0
 10
2.60052855
 20
0.88079794
  0
VERTEX
  8
0
 10
2.59713484
 20
0.88484884
  0
VERTEX
  8
0
 10
2.59376295
 20
0.88880154
  0
VERTEX
  8
0
 10
2.59041556
 20
0.89265842
  0
VERTEX
  8
0
 10
2.58709365
 20
0.89641962
  0
VERTEX
  8
0
 10
2.58379819
 20
0.90008528
  0
VERTEX
  8
0
 10
2.58053019
 20
0.90365554
  0
VERTEX
  8
0
 10
2.57729216
 20
0.90713376
  0
VERTEX
  8
0
 10
2.57408537
 20
0.91051811
  0
VERTEX
  8
0
 10
2.57091053
 20
0.91381070
  0
VERTEX
  8
0
 10
2.56776960
 20
0.91701181
  0
VERTEX
  8
0
 10
2.56466343
 20
0.92012255
  0
VERTEX
  8
0
 10
2.56159286
 20
0.92314404
  0
VERTEX
  8
0
 10
2.55856084
 20
0.92607671
  0
VERTEX
  8
0
 10
2.55556710
 20
0.92892252
  0
VERTEX
  8
0
 10
2.55261374
 20
0.93168076
  0
VERTEX
  8
0
 10
2.54970161
 20
0.93435255
  0
VERTEX
  8
0
 10
2.54683239
 20
0.93694013
  0
VERTEX
  8
0
 10
2.54400721
 20
0.93944267
  0
VERTEX
  8
0
 10
2.54122761
 20
0.94186338
  0
VERTEX
  8
0
 10
2.53849375
 20
0.94420128
  0
VERTEX
  8
0
 10
2.53580828
 20
0.94645876
  0
VERTEX
  8
0
 10
2.53317135
 20
0.94863483
  0
VERTEX
  8
0
 10
2.53058452
 20
0.95073272
  0
VERTEX
  8
0
 10
2.52804974
 20
0.95275270
  0
VERTEX
  8
0
 10
2.52556687
 20
0.95469575
  0
VERTEX
  8
0
 10
2.52313678
 20
0.95656300
  0
VERTEX
  8
0
 10
2.52076225
 20
0.95835585
  0
VERTEX
  8
0
 10
2.51844330
 20
0.96007430
  0
VERTEX
  8
0
 10
2.51618064
 20
0.96172044
  0
VERTEX
  8
0
 10
2.51397720
 20
0.96329470
  0
VERTEX
  8
0
 10
2.51183174
 20
0.96479890
  0
VERTEX
  8
0
 10
2.50974706
 20
0.96623444
  0
VERTEX
  8
0
 10
2.50772302
 20
0.96760230
  0
VERTEX
  8
0
 10
2.50576160
 20
0.96890277
  0
VERTEX
  8
0
 10
2.50386265
 20
0.97013682
  0
VERTEX
  8
0
 10
2.50202871
 20
0.97130781
  0
VERTEX
  8
0
 10
2.50025991
 20
0.97241477
  0
VERTEX
  8
0
 10
2.49692059
 20
0.97444500
  0
VERTEX
  8
0
 10
2.49385327
 20
0.97623774
  0
VERTEX
  8
0
 10
2.49106471
 20
0.97780195
  0
VERTEX
  8
0
 10
2.48856322
 20
0.97914984
  0
VERTEX
  8
0
 10
2.48635347
 20
0.98029108
  0
VERTEX
  8
0
 10
2.48360064
 20
0.98163673
  0
VERTEX
  8
0
 10
2.48154110
 20
0.98257951
  0
VERTEX
  8
0
 10
2.47953355
 20
0.98341629
  0
VERTEX
  8
0
 10
2.38806015
 20
1.01723871
  0
VERTEX
  8
0
 10
2.43103147
 20
1.16567062
  0
VERTEX
  8
0
 10
2.52642633
 20
1.14539433
  0
VERTEX
  8
0
 10
2.52857115
 20
1.14502902
  0
VERTEX
  8
0
 10
2.53081566
 20
1.14472485
  0
VERTEX
  8
0
 10
2.53386117
 20
1.14439287
  0
VERTEX
  8
0
 10
2.53633896
 20
1.14417663
  0
VERTEX
  8
0
 10
2.53917401
 20
1.14397951
  0
VERTEX
  8
0
 10
2.54236677
 20
1.14381261
  0
VERTEX
  8
0
 10
2.54591739
 20
1.14368899
  0
VERTEX
  8
0
 10
2.54982408
 20
1.14362143
  0
VERTEX
  8
0
 10
2.55191088
 20
1.14361191
  0
VERTEX
  8
0
 10
2.55408716
 20
1.14362200
  0
VERTEX
  8
0
 10
2.55635195
 20
1.14365153
  0
VERTEX
  8
0
 10
2.55870496
 20
1.14370250
  0
VERTEX
  8
0
 10
2.56114579
 20
1.14377783
  0
VERTEX
  8
0
 10
2.56367555
 20
1.14387670
  0
VERTEX
  8
0
 10
2.56629272
 20
1.14400288
  0
VERTEX
  8
0
 10
2.56899629
 20
1.14415625
  0
VERTEX
  8
0
 10
2.57178798
 20
1.14433905
  0
VERTEX
  8
0
 10
2.57466651
 20
1.14455310
  0
VERTEX
  8
0
 10
2.57763174
 20
1.14479939
  0
VERTEX
  8
0
 10
2.58068341
 20
1.14507989
  0
VERTEX
  8
0
 10
2.58382025
 20
1.14539642
  0
VERTEX
  8
0
 10
2.58704227
 20
1.14574898
  0
VERTEX
  8
0
 10
2.59035002
 20
1.14614066
  0
VERTEX
  8
0
 10
2.59374141
 20
1.14657217
  0
VERTEX
  8
0
 10
2.59721813
 20
1.14704575
  0
VERTEX
  8
0
 10
2.60077806
 20
1.14756211
  0
VERTEX
  8
0
 10
2.60442109
 20
1.14812223
  0
VERTEX
  8
0
 10
2.60814579
 20
1.14872892
  0
VERTEX
  8
0
 10
2.61195401
 20
1.14938345
  0
VERTEX
  8
0
 10
2.61584266
 20
1.15008637
  0
VERTEX
  8
0
 10
2.61981329
 20
1.15084092
  0
VERTEX
  8
0
 10
2.62386294
 20
1.15164668
  0
VERTEX
  8
0
 10
2.62799331
 20
1.15250589
  0
VERTEX
  8
0
 10
2.63220328
 20
1.15341941
  0
VERTEX
  8
0
 10
2.63649046
 20
1.15438990
  0
VERTEX
  8
0
 10
2.64085683
 20
1.15541763
  0
VERTEX
  8
0
 10
2.64529902
 20
1.15650515
  0
VERTEX
  8
0
 10
2.64981899
 20
1.15765273
  0
VERTEX
  8
0
 10
2.65441338
 20
1.15886291
  0
VERTEX
  8
0
 10
2.65908317
 20
1.16013582
  0
VERTEX
  8
0
 10
2.66382697
 20
1.16147428
  0
VERTEX
  8
0
 10
2.66864478
 20
1.16287828
  0
VERTEX
  8
0
 10
2.67353533
 20
1.16434965
  0
VERTEX
  8
0
 10
2.67849723
 20
1.16589121
  0
VERTEX
  8
0
 10
2.68352964
 20
1.16750184
  0
VERTEX
  8
0
 10
2.68863311
 20
1.16918461
  0
VERTEX
  8
0
 10
2.69380458
 20
1.17094010
  0
VERTEX
  8
0
 10
2.69904571
 20
1.17277056
  0
VERTEX
  8
0
 10
2.70435344
 20
1.17467655
  0
VERTEX
  8
0
 10
2.70972761
 20
1.17665905
  0
VERTEX
  8
0
 10
2.71516795
 20
1.17872003
  0
VERTEX
  8
0
 10
2.72067223
 20
1.18086119
  0
VERTEX
  8
0
 10
2.72624043
 20
1.18308251
  0
VERTEX
  8
0
 10
2.73187131
 20
1.18538584
  0
VERTEX
  8
0
 10
2.73756359
 20
1.18777299
  0
VERTEX
  8
0
 10
2.74331616
 20
1.19024482
  0
VERTEX
  8
0
 10
2.75090342
 20
1.19360213
  0
VERTEX
  8
0
 10
2.76096456
 20
1.28703798
  0
VERTEX
  8
0
 10
2.75426577
 20
1.29193380
  0
VERTEX
  8
0
 10
2.74917129
 20
1.29557322
  0
VERTEX
  8
0
 10
2.74411731
 20
1.29911706
  0
VERTEX
  8
0
 10
2.73910664
 20
1.30256673
  0
VERTEX
  8
0
 10
2.73413916
 20
1.30592321
  0
VERTEX
  8
0
 10
2.72921583
 20
1.30918663
  0
VERTEX
  8
0
 10
2.72433947
 20
1.31235840
  0
VERTEX
  8
0
 10
2.71951092
 20
1.31543963
  0
VERTEX
  8
0
 10
2.71473006
 20
1.31843132
  0
VERTEX
  8
0
 10
2.70999954
 20
1.32133583
  0
VERTEX
  8
0
 10
2.70531952
 20
1.32415218
  0
VERTEX
  8
0
 10
2.70069167
 20
1.32688263
  0
VERTEX
  8
0
 10
2.69611685
 20
1.32952829
  0
VERTEX
  8
0
 10
2.69159688
 20
1.33209042
  0
VERTEX
  8
0
 10
2.68713274
 20
1.33456915
  0
VERTEX
  8
0
 10
2.68272416
 20
1.33696646
  0
VERTEX
  8
0
 10
2.67837382
 20
1.33928473
  0
VERTEX
  8
0
 10
2.67408198
 20
1.34152199
  0
VERTEX
  8
0
 10
2.66985007
 20
1.34368244
  0
VERTEX
  8
0
 10
2.66567906
 20
1.34576623
  0
VERTEX
  8
0
 10
2.66156882
 20
1.34777434
  0
VERTEX
  8
0
 10
2.65752216
 20
1.34970817
  0
VERTEX
  8
0
 10
2.65353978
 20
1.35156982
  0
VERTEX
  8
0
 10
2.64962085
 20
1.35335817
  0
VERTEX
  8
0
 10
2.64576873
 20
1.35507771
  0
VERTEX
  8
0
 10
2.64198259
 20
1.35672732
  0
VERTEX
  8
0
 10
2.63826426
 20
1.35830824
  0
VERTEX
  8
0
 10
2.63461331
 20
1.35982344
  0
VERTEX
  8
0
 10
2.63103271
 20
1.36127333
  0
VERTEX
  8
0
 10
2.62752216
 20
1.36265988
  0
VERTEX
  8
0
 10
2.62408168
 20
1.36398308
  0
VERTEX
  8
0
 10
2.62071393
 20
1.36524532
  0
VERTEX
  8
0
 10
2.61741780
 20
1.36644744
  0
VERTEX
  8
0
 10
2.61419596
 20
1.36759181
  0
VERTEX
  8
0
 10
2.61104742
 20
1.36867832
  0
VERTEX
  8
0
 10
2.60797388
 20
1.36970919
  0
VERTEX
  8
0
 10
2.60497617
 20
1.37068555
  0
VERTEX
  8
0
 10
2.60205403
 20
1.37160936
  0
VERTEX
  8
0
 10
2.59920942
 20
1.37248090
  0
VERTEX
  8
0
 10
2.59644290
 20
1.37330326
  0
VERTEX
  8
0
 10
2.59375449
 20
1.37407644
  0
VERTEX
  8
0
 10
2.59114488
 20
1.37480255
  0
VERTEX
  8
0
 10
2.58861407
 20
1.37548157
  0
VERTEX
  8
0
 10
2.58616447
 20
1.37611787
  0
VERTEX
  8
0
 10
2.58379522
 20
1.37671032
  0
VERTEX
  8
0
 10
2.58150704
 20
1.37726102
  0
VERTEX
  8
0
 10
2.57930049
 20
1.37777306
  0
VERTEX
  8
0
 10
2.57717670
 20
1.37824560
  0
VERTEX
  8
0
 10
2.57513538
 20
1.37868060
  0
VERTEX
  8
0
 10
2.57130300
 20
1.37944641
  0
VERTEX
  8
0
 10
2.56780788
 20
1.38008115
  0
VERTEX
  8
0
 10
2.56465314
 20
1.38059829
  0
VERTEX
  8
0
 10
2.56184019
 20
1.38100907
  0
VERTEX
  8
0
 10
2.55937344
 20
1.38132512
  0
VERTEX
  8
0
 10
2.55632707
 20
1.38164895
  0
VERTEX
  8
0
 10
2.55406978
 20
1.38183001
  0
VERTEX
  8
0
 10
2.55189614
 20
1.38192959
  0
VERTEX
  8
0
 10
2.45437123
 20
1.38242653
  0
VERTEX
  8
0
 10
2.44398451
 20
1.53660411
  0
SEQEND
  0
POLYLINE
  8
Default Layer
 66
   1
 39
0.000000
 70
    1
  0
VERTEX
  8
0
 10
0.38567000
 20
1.38787200
  0
VERTEX
  8
0
 10
0.38697119
 20
1.43933187
  0
VERTEX
  8
0
 10
0.39083289
 20
1.49011619
  0
VERTEX
  8
0
 10
0.39719225
 20
1.54016214
  0
VERTEX
  8
0
 10
0.40598645
 20
1.58940688
  0
VERTEX
  8
0
 10
0.41715265
 20
1.63778758
  0
VERTEX
  8
0
 10
0.43062802
 20
1.68524141
  0
VERTEX
  8
0
 10
0.44634973
 20
1.73170554
  0
VERTEX
  8
0
 10
0.46425496
 20
1.77711713
  0
VERTEX
  8
0
 10
0.48428086
 20
1.82141335
  0
VERTEX
  8
0
 10
0.50636460
 20
1.86453138
  0
VERTEX
  8
0
 10
0.53044336
 20
1.90640838
  0
VERTEX
  8
0
 10
0.55645429
 20
1.94698151
  0
VERTEX
  8
0
 10
0.58433458
 20
1.98618795
  0
VERTEX
  8
0
 10
0.61402139
 20
2.02396486
  0
VERTEX
  8
0
 10
0.64545188
 20
2.06024942
  0
VERTEX
  8
0
 10
0.67856322
 20
2.09497878
  0
VERTEX
  8
0
 10
0.71329258
 20
2.12809012
  0
VERTEX
  8
0
 10
0.74957714
 20
2.15952061
  0
VERTEX
  8
0
 10
0.78735405
 20
2.18920742
  0
VERTEX
  8
0
 10
0.82656049
 20
2.21708771
  0
VERTEX
  8
0
 10
0.86713362
 20
2.24309864
  0
VERTEX
  8
0
 10
0.90901062
 20
2.26717740
  0
VERTEX
  8
0
 10
0.95212865
 20
2.28926114
  0
VERTEX
  8
0
 10
0.99642487
 20
2.30928704
  0
VERTEX
  8
0
 10
1.04183646
 20
2.32719227
  0
VERTEX
  8
0
 10
1.08830059
 20
2.34291398
  0
VERTEX
  8
0
 10
1.13575442
 20
2.35638935
  0
VERTEX
  8
0
 10
1.18413512
 20
2.36755555
  0
VERTEX
  8
0
 10
1.23337986
 20
2.37634975
  0
VERTEX
  8
0
 10
1.28342581
 20
2.38270911
  0
VERTEX
  8
0
 10
1.33421013
 20
2.38657081
  0
VERTEX
  8
0
 10
1.38567000
 20
2.38787200
  0
VERTEX
  8
0
 10
1.43712987
 20
2.38657081
  0
VERTEX
  8
0
 10
1.48791419
 20
2.38270911
  0
VERTEX
  8
0
 10
1.53796014
 20
2.37634975
  0
VERTEX
  8
0
 10
1.58720488
 20
2.36755555
  0
VERTEX
  8
0
 10
1.63558558
 20
2.35638935
  0
VERTEX
  8
0
 10
1.68303941
 20
2.34291398
  0
VERTEX
  8
0
 10
1.72950354
 20
2.32719227
  0
VERTEX
  8
0
 10
1.77491513
 20
2.30928704
  0
VERTEX
  8
0
 10
1.81921135
 20
2.28926114
  0
VERTEX
  8
0
 10
1.86232938
 20
2.26717740
  0
VERTEX
  8
0
 10
1.90420638
 20
2.24309864
  0
VERTEX
  8
0
 10
1.94477951
 20
2.21708771
  0
VERTEX
  8
0
 10
1.98398595
 20
2.18920742
  0
VERTEX
  8
0
 10
2.02176286
 20
2.15952061
  0
VERTEX
  8
0
 10
2.05804742
 20
2.12809012
  0
VERTEX
  8
0
 10
2.09277678
 20
2.09497878
  0
VERTEX
  8
0
 10
2.12588812
 20
2.06024942
  0
VERTEX
  8
0
 10
2.15731861
 20
2.02396486
  0
VERTEX
  8
0
 10
2.18700542
 20
1.98618795
  0
VERTEX
  8
0
 10
2.21488571
 20
1.94698151
  0
VERTEX
  8
0
 10
2.24089664
 20
1.90640838
  0
VERTEX
  8
0
 10
2.26497540
 20
1.86453138
  0
VERTEX
  8
0
 10
2.28705914
 20
1.82141335
  0
VERTEX
  8
0
 10
2.30708504
 20
1.77711713
  0
VERTEX
  8
0
 10
2.32499027
 20
1.73170554
  0
VERTEX
  8
0
 10
2.34071198
 20
1.68524141
  0
VERTEX
  8
0
 10
2.35418735
 20
1.63778758
  0
VERTEX
  8
0
 10
2.36535355
 20
1.58940688
  0
VERTEX
  8
0
 10
2.37414775
 20
1.54016214
  0
VERTEX
  8
0
 10
2.38050711
 20
1.49011619
  0
VERTEX
  8
0
 10
2.38436881
 20
1.43933187
  0
VERTEX
  8
0
 10
2.38567000
 20
1.38787200
  0
VERTEX
  8
0
 10
2.38436881
 20
1.33641213
  0
VERTEX
  8
0
 10
2.38050711
 20
1.28562781
  0
VERTEX
  8
0
 10
2.37414775
 20
1.23558186
  0
VERTEX
  8
0
 10
2.36535355
 20
1.18633712
  0
VERTEX
  8
0
 10
2.35418735
 20
1.13795642
  0
VERTEX
  8
0
 10
2.34071198
 20
1.09050259
  0
VERTEX
  8
0
 10
2.32499027
 20
1.04403846
  0
VERTEX
  8
0
 10
2.30708504
 20
0.99862687
  0
VERTEX
  8
0
 10
2.28705914
 20
0.95433065
  0
VERTEX
  8
0
 10
2.26497540
 20
0.91121262
  0
VERTEX
  8
0
 10
2.24089664
 20
0.86933562
  0
VERTEX
  8
0
 10
2.21488571
 20
0.82876249
  0
VERTEX
  8
0
 10
2.18700542
 20
0.78955605
  0
VERTEX
  8
0
 10
2.15731861
 20
0.75177914
  0
VERTEX
  8
0
 10
2.12588812
 20
0.71549458
  0
VERTEX
  8
0
 10
2.09277678
 20
0.68076522
  0
VERTEX
  8
0
 10
2.05804742
 20
0.64765388
  0
VERTEX
  8
0
 10
2.02176286
 20
0.61622339
  0
VERTEX
  8
0
 10
1.98398595
 20
0.58653658
  0
VERTEX
  8
0
 10
1.94477951
 20
0.55865629
  0
VERTEX
  8
0
 10
1.90420638
 20
0.53264536
  0
VERTEX
  8
0
 10
1.86232938
 20
0.50856660
  0
VERTEX
  8
0
 10
1.81921135
 20
0.48648286
  0
VERTEX
  8
0
 10
1.77491513
 20
0.46645696
  0
VERTEX
  8
0
 10
1.72950354
 20
0.44855173
  0
VERTEX
  8
0
 10
1.68303941
 20
0.43283002
  0
VERTEX
  8
0
 10
1.63558558
 20
0.41935465
  0
VERTEX
  8
0
 10
1.58720488
 20
0.40818845
  0
VERTEX
  8
0
 10
1.53796014
 20
0.39939425
  0
VERTEX
  8
0
 10
1.48791419
 20
0.39303489
  0
VERTEX
  8
0
 10
1.43712987
 20
0.38917319
  0
VERTEX
  8
0
 10
1.38567000
 20
0.38787200
  0
VERTEX
  8
0
 10
1.33421013
 20
0.38917319
  0
VERTEX
  8
0
 10
1.28342581
 20
0.39303489
  0
VERTEX
  8
0
 10
1.23337986
 20
0.39939425
  0
VERTEX
  8
0
 10
1.18413512
 20
0.40818845
  0
VERTEX
  8
0
 10
1.13575442
 20
0.41935465
  0
VERTEX
  8
0
 10
1.08830059
 20
0.43283002
  0
VERTEX
  8
0
 10
1.04183646
 20
0.44855173
  0
VERTEX
  8
0
 10
0.99642487
 20
0.46645696
  0
VERTEX
  8
0
 10
0.95212865
 20
0.48648286
  0
VERTEX
  8
0
 10
0.90901062
 20
0.50856660
  0
VERTEX
  8
0
 10
0.86713362
 20
0.53264536
  0
VERTEX
  8
0
 10
0.82656049
 20
0.55865629
  0
VERTEX
  8
0
 10
0.78735405
 20
0.58653658
  0
VERTEX
  8
0
 10
0.74957714
 20
0.61622339
  0
VERTEX
  8
0
 10
0.71329258
 20
0.64765388
  0
VERTEX
  8
0
 10
0.67856322
 20
0.68076522
  0
VERTEX
  8
0
 10
0.64545188
 20
0.71549458
  0
VERTEX
  8
0
 10
0.61402139
 20
0.75177914
  0
VERTEX
  8
0
 10
0.58433458
 20
0.78955605
  0
VERTEX
  8
0
 10
0.55645429
 20
0.82876249
  0
VERTEX
  8
0
 10
0.53044336
 20
0.86933562
  0
VERTEX
  8
0
 10
0.50636460
 20
0.91121262
  0
VERTEX
  8
0
 10
0.48428086
 20
0.95433065
  0
VERTEX
  8
0
 10
0.46425496
 20
0.99862687
  0
VERTEX
  8
0
 10
0.44634973
 20
1.04403846
  0
VERTEX
  8
0
 10
0.43062802
 20
1.09050259
  0
VERTEX
  8
0
 10
0.41715265
 20
1.13795642
  0
VERTEX
  8
0
 10
0.40598645
 20
1.18633712
  0
VERTEX
  8
0
 10
0.39719225
 20
1.23558186
  0
VERTEX
  8
0
 10
0.39083289
 20
1.28562781
  0
VERTEX
  8
0
 10
0.38697119
 20
1.33641213
  0
VERTEX
  8
0
 10
0.38567000
 20
1.38787200
  0
SEQEND
  0
POLYLINE
  8
Default Layer
 66
   1
 39
0.000000
 70
    1
  0
VERTEX
  8
0
 10
2.38567000
 20
1.38787200
  0
VERTEX
  8
0
 10
2.38436881
 20
1.43933187
  0
VERTEX
  8
0
 10
2.38050711
 20
1.49011619
  0
VERTEX
  8
0
 10
2.37414775
 20
1.54016214
  0
VERTEX
  8
0
 10
2.36535355
 20
1.58940688
  0
VERTEX
  8
0
 10
2.35418735
 20
1.63778758
  0
VERTEX
  8
0
 10
2.34071198
 20
1.68524141
  0
VERTEX
  8
0
 10
2.32499027
 20
1.73170554
  0
VERTEX
  8
0
 10
2.30708504
 20
1.77711713
  0
VERTEX
  8
0
 10
2.28705914
 20
1.82141335
  0
VERTEX
  8
0
 10
2.26497540
 20
1.86453138
  0
VERTEX
  8
0
 10
2.24089664
 20
1.90640838
  0
VERTEX
  8
0
 10
2.21488571
 20
1.94698151
  0
VERTEX
  8
0
 10
2.18700542
 20
1.98618795
  0
VERTEX
  8
0
 10
2.15731861
 20
2.02396486
  0
VERTEX
  8
0
 10
2.12588812
 20
2.06024942
  0
VERTEX
  8
0
 10
2.09277678
 20
2.09497878
  0
VERTEX
  8
0
 10
2.05804742
 20
2.12809012
  0
VERTEX
  8
0
 10
2.02176286
 20
2.15952061
  0
VERTEX
  8
0
 10
1.98398595
 20
2.18920742
  0
VERTEX
  8
0
 10
1.94477951
 20
2.21708771
  0
VERTEX
  8
0
 10
1.90420638
 20
2.24309864
  0
VERTEX
  8
0
 10
1.86232938
 20
2.26717740
  0
VERTEX
  8
0
 10
1.81921135
 20
2.28926114
  0
VERTEX
  8
0
 10
1.77491513
 20
2.30928704
  0
VERTEX
  8
0
 10
1.72950354
 20
2.32719227
  0
VERTEX
  8
0
 10
1.68303941
 20
2.34291398
  0
VERTEX
  8
0
 10
1.63558558
 20
2.35638935
  0
VERTEX
  8
0
 10
1.58720488
 20
2.36755555
  0
VERTEX
  8
0
 10
1.53796014
 20
2.37634975
  0
VERTEX
  8
0
 10
1.48791419
 20
2.38270911
  0
VERTEX
  8
0
 10
1.43712987
 20
2.38657081
  0
VERTEX
  8
0
 10
1.38567000
 20
2.38787200
  0
VERTEX
  8
0
 10
1.33421013
 20
2.38657081
  0
VERTEX
  8
0
 10
1.28342581
 20
2.38270911
  0
VERTEX
  8
0
 10
1.23337986
 20
2.37634975
  0
VERTEX
  8
0
 10
1.18413512
 20
2.36755555
  0
VERTEX
  8
0
 10
1.13575442
 20
2.35638935
  0
VERTEX
  8
0
 10
1.08830059
 20
2.34291398
  0
VERTEX
  8
0
 10
1.04183646
 20
2.32719227
  0
VERTEX
  8
0
 10
0.99642487
 20
2.30928704
  0
VERTEX
  8
0
 10
0.95212865
 20
2.28926114
  0
VERTEX
  8
0
 10
0.90901062
 20
2.26717740
  0
VERTEX
  8
0
 10
0.86713362
 20
2.24309864
  0
VERTEX
  8
0
 10
0.82656049
 20
2.21708771
  0
VERTEX
  8
0
 10
0.78735405
 20
2.18920742
  0
VERTEX
  8
0
 10
0.74957714
 20
2.15952061
  0
VERTEX
  8
0
 10
0.71329258
 20
2.12809012
  0
VERTEX
  8
0
 10
0.67856322
 20
2.09497878
  0
VERTEX
  8
0
 10
0.64545188
 20
2.06024942
  0
VERTEX
  8
0
 10
0.61402139
 20
2.02396486
  0
VERTEX
  8
0
 10
0.58433458
 20
1.98618795
  0
VERTEX
  8
0
 10
0.55645429
 20
1.94698151
  0
VERTEX
  8
0
 10
0.53044336
 20
1.90640838
  0
VERTEX
  8
0
 10
0.50636460
 20
1.86453138
  0
VERTEX
  8
0
 10
0.48428086
 20
1.82141335
  0
VERTEX
  8
0
 10
0.46425496
 20
1.77711713
  0
VERTEX
  8
0
 10
0.44634973
 20
1.73170554
  0
VERTEX
  8
0
 10
0.43062802
 20
1.68524141
  0
VERTEX
  8
0
 10
0.41715265
 20
1.63778758
  0
VERTEX
  8
0
 10
0.40598645
 20
1.58940688
  0
VERTEX
  8
0
 10
0.39719225
 20
1.54016214
  0
VERTEX
  8
0
 10
0.39083289
 20
1.49011619
  0
VERTEX
  8
0
 10
0.38697119
 20
1.43933187
  0
VERTEX
  8
0
 10
0.38567000
 20
1.38787200
  0
VERTEX
  8
0
 10
0.38697119
 20
1.33641213
  0
VERTEX
  8
0
 10
0.39083289
 20
1.28562781
  0
VERTEX
  8
0
 10
0.39719225
 20
1.23558186
  0
VERTEX
  8
0
 10
0.40598645
 20
1.18633712
  0
VERTEX
  8
0
 10
0.41715265
 20
1.13795642
  0
VERTEX
  8
0
 10
0.43062802
 20
1.09050259
  0
VERTEX
  8
0
 10
0.44634973
 20
1.04403846
  0
VERTEX
  8
0
 10
0.46425496
 20
0.99862687
  0
VERTEX
  8
0
 10
0.48428086
 20
0.95433065
  0
VERTEX
  8
0
 10
0.50636460
 20
0.91121262
  0
VERTEX
  8
0
 10
0.53044336
 20
0.86933562
  0
VERTEX
  8
0
 10
0.55645429
 20
0.82876249
  0
VERTEX
  8
0
 10
0.58433458
 20
0.78955605
  0
VERTEX
  8
0
 10
0.61402139
 20
0.75177914
  0
VERTEX
  8
0
 10
0.64545188
 20
0.71549458
  0
VERTEX
  8
0
 10
0.67856322
 20
0.68076522
  0
VERTEX
  8
0
 10
0.71329258
 20
0.64765388
  0
VERTEX
  8
0
 10
0.74957714
 20
0.61622339
  0
VERTEX
  8
0
 10
0.78735405
 20
0.58653658
  0
VERTEX
  8
0
 10
0.82656049
 20
0.55865629
  0
VERTEX
  8
0
 10
0.86713362
 20
0.53264536
  0
VERTEX
  8
0
 10
0.90901062
 20
0.50856660
  0
VERTEX
  8
0
 10
0.95212865
 20
0.48648286
  0
VERTEX
  8
0
 10
0.99642487
 20
0.46645696
  0
VERTEX
  8
0
 10
1.04183646
 20
0.44855173
  0
VERTEX
  8
0
 10
1.08830059
 20
0.43283002
  0
VERTEX
  8
0
 10
1.13575442
 20
0.41935465
  0
VERTEX
  8
0
 10
1.18413512
 20
0.40818845
  0
VERTEX
  8
0
 10
1.23337986
 20
0.39939425
  0
VERTEX
  8
0
 10
1.28342581
 20
0.39303489
  0
VERTEX
  8
0
 10
1.33421013
 20
0.38917319
  0
VERTEX
  8
0
 10
1.38567000
 20
0.38787200
  0
VERTEX
  8
0
 10
1.43712987
 20
0.38917319
  0
VERTEX
  8
0
 10
1.48791419
 20
0.39303489
  0
VERTEX
  8
0
 10
1.53796014
 20
0.39939425
  0
VERTEX
  8
0
 10
1.58720488
 20
0.40818845
  0
VERTEX
  8
0
 10
1.63558558
 20
0.41935465
  0
VERTEX
  8
0
 10
1.68303941
 20
0.43283002
  0
VERTEX
  8
0
 10
1.72950354
 20
0.44855173
  0
VERTEX
  8
0
 10
1.77491513
 20
0.46645696
  0
VERTEX
  8
0
 10
1.81921135
 20
0.48648286
  0
VERTEX
  8
0
 10
1.86232938
 20
0.50856660
  0
VERTEX
  8
0
 10
1.90420638
 20
0.53264536
  0
VERTEX
  8
0
 10
1.94477951
 20
0.55865629
  0
VERTEX
  8
0
 10
1.98398595
 20
0.58653658
  0
VERTEX
  8
0
 10
2.02176286
 20
0.61622339
  0
VERTEX
  8
0
 10
2.05804742
 20
0.64765388
  0
VERTEX
  8
0
 10
2.09277678
 20
0.68076522
  0
VERTEX
  8
0
 10
2.12588812
 20
0.71549458
  0
VERTEX
  8
0
 10
2.15731861
 20
0.75177914
  0
VERTEX
  8
0
 10
2.18700542
 20
0.78955605
  0
VERTEX
  8
0
 10
2.21488571
 20
0.82876249
  0
VERTEX
  8
0
 10
2.24089664
 20
0.86933562
  0
VERTEX
  8
0
 10
2.26497540
 20
0.91121262
  0
VERTEX
  8
0
 10
2.28705914
 20
0.95433065
  0
VERTEX
  8
0
 10
2.30708504
 20
0.99862687
  0
VERTEX
  8
0
 10
2.32499027
 20
1.04403846
  0
VERTEX
  8
0
 10
2.34071198
 20
1.09050259
  0
VERTEX
  8
0
 10
2.35418735
 20
1.13795642
  0
VERTEX
  8
0
 10
2.36535355
 20
1.18633712
  0
VERTEX
  8
0
 10
2.37414775
 20
1.23558186
  0
VERTEX
  8
0
 10
2.38050711
 20
1.28562781
  0
VERTEX
  8
0
 10
2.38436881
 20
1.33641213
  0
VERTEX
  8
0
 10
2.38567000
 20
1.38787200
  0
SEQEND
  0
POLYLINE
  8
Default Layer
 66
   1
 39
0.000000
 70
    1
  0
VERTEX
  8
0
 10
1.11070000
 20
1.38790000
  0
VERTEX
  8
0
 10
1.11211979
 20
1.41601715
  0
VERTEX
  8
0
 10
1.11628702
 20
1.44332209
  0
VERTEX
  8
0
 10
1.12306346
 20
1.46967659
  0
VERTEX
  8
0
 10
1.13231086
 20
1.49494241
  0
VERTEX
  8
0
 10
1.14389101
 20
1.51898133
  0
VERTEX
  8
0
 10
1.15766568
 20
1.54165512
  0
VERTEX
  8
0
 10
1.17349663
 20
1.56282554
  0
VERTEX
  8
0
 10
1.19124564
 20
1.58235436
  0
VERTEX
  8
0
 10
1.21077446
 20
1.60010337
  0
VERTEX
  8
0
 10
1.23194488
 20
1.61593432
  0
VERTEX
  8
0
 10
1.25461867
 20
1.62970899
  0
VERTEX
  8
0
 10
1.27865759
 20
1.64128914
  0
VERTEX
  8
0
 10
1.30392341
 20
1.65053654
  0
VERTEX
  8
0
 10
1.33027791
 20
1.65731298
  0
VERTEX
  8
0
 10
1.35758285
 20
1.66148021
  0
VERTEX
  8
0
 10
1.38570000
 20
1.66290000
  0
VERTEX
  8
0
 10
1.41381715
 20
1.66148021
  0
VERTEX
  8
0
 10
1.44112209
 20
1.65731298
  0
VERTEX
  8
0
 10
1.46747659
 20
1.65053654
  0
VERTEX
  8
0
 10
1.49274241
 20
1.64128914
  0
VERTEX
  8
0
 10
1.51678133
 20
1.62970899
  0
VERTEX
  8
0
 10
1.53945512
 20
1.61593432
  0
VERTEX
  8
0
 10
1.56062554
 20
1.60010337
  0
VERTEX
  8
0
 10
1.58015436
 20
1.58235436
  0
VERTEX
  8
0
 10
1.59790337
 20
1.56282554
  0
VERTEX
  8
0
 10
1.61373432
 20
1.54165512
  0
VERTEX
  8
0
 10
1.62750899
 20
1.51898133
  0
VERTEX
  8
0
 10
1.63908914
 20
1.49494241
  0
VERTEX
  8
0
 10
1.64833654
 20
1.46967659
  0
VERTEX
  8
0
 10
1.65511298
 20
1.44332209
  0
VERTEX
  8
0
 10
1.65928021
 20
1.41601715
  0
VERTEX
  8
0
 10
1.66070000
 20
1.38790000
  0
VERTEX
  8
0
 10
1.65928021
 20
1.35978285
  0
VERTEX
  8
0
 10
1.65511298
 20
1.33247791
  0
VERTEX
  8
0
 10
1.64833654
 20
1.30612341
  0
VERTEX
  8
0
 10
1.63908914
 20
1.28085759
  0
VERTEX
  8
0
 10
1.62750899
 20
1.25681867
  0
VERTEX
  8
0
 10
1.61373432
 20
1.23414488
  0
VERTEX
  8
0
 10
1.59790337
 20
1.21297446
  0
VERTEX
  8
0
 10
1.58015436
 20
1.19344564
  0
VERTEX
  8
0
 10
1.56062554
 20
1.17569663
  0
VERTEX
  8
0
 10
1.53945512
 20
1.15986568
  0
VERTEX
  8
0
 10
1.51678133
 20
1.14609101
  0
VERTEX
  8
0
 10
1.49274241
 20
1.13451086
  0
VERTEX
  8
0
 10
1.46747659
 20
1.12526346
  0
VERTEX
  8
0
 10
1.44112209
 20
1.11848702
  0
VERTEX
  8
0
 10
1.41381715
 20
1.11431979
  0
VERTEX
  8
0
 10
1.38570000
 20
1.11290000
  0
VERTEX
  8
0
 10
1.35758285
 20
1.11431979
  0
VERTEX
  8
0
 10
1.33027791
 20
1.11848702
  0
VERTEX
  8
0
 10
1.30392341
 20
1.12526346
  0
VERTEX
  8
0
 10
1.27865759
 20
1.13451086
  0
VERTEX
  8
0
 10
1.25461867
 20
1.14609101
  0
VERTEX
  8
0
 10
1.23194488
 20
1.15986568
  0
VERTEX
  8
0
 10
1.21077446
 20
1.17569663
  0
VERTEX
  8
0
 10
1.19124564
 20
1.19344564
  0
VERTEX
  8
0
 10
1.17349663
 20
1.21297446
  0
VERTEX
  8
0
 10
1.15766568
 20
1.23414488
  0
VERTEX
  8
0
 10
1.14389101
 20
1.25681867
  0
VERTEX
  8
0
 10
1.13231086
 20
1.28085759
  0
VERTEX
  8
0
 10
1.12306346
 20
1.30612341
  0
VERTEX
  8
0
 10
1.11628702
 20
1.33247791
  0
VERTEX
  8
0
 10
1.11211979
 20
1.35978285
  0
VERTEX
  8
0
 10
1.11070000
 20
1.38790000
  0
SEQEND
  0
POLYLINE
  8
Default Layer
 66
   1
 39
0.000000
 70
    1
  0
VERTEX
  8
0
 10
1.16071600
 20
1.98791800
  0
VERTEX
  8
0
 10
1.16187765
 20
2.01092294
  0
VERTEX
  8
0
 10
1.16528720
 20
2.03326335
  0
VERTEX
  8
0
 10
1.17083155
 20
2.05482612
  0
VERTEX
  8
0
 10
1.17839762
 20
2.07549815
  0
VERTEX
  8
0
 10
1.18787228
 20
2.09516636
  0
VERTEX
  8
0
 10
1.19914247
 20
2.11371764
  0
VERTEX
  8
0
 10
1.21209506
 20
2.13103889
  0
VERTEX
  8
0
 10
1.22661697
 20
2.14701703
  0
VERTEX
  8
0
 10
1.24259511
 20
2.16153894
  0
VERTEX
  8
0
 10
1.25991636
 20
2.17449153
  0
VERTEX
  8
0
 10
1.27846764
 20
2.18576172
  0
VERTEX
  8
0
 10
1.29813585
 20
2.19523638
  0
VERTEX
  8
0
 10
1.31880788
 20
2.20280245
  0
VERTEX
  8
0
 10
1.34037065
 20
2.20834680
  0
VERTEX
  8
0
 10
1.36271106
 20
2.21175635
  0
VERTEX
  8
0
 10
1.38571600
 20
2.21291800
  0
VERTEX
  8
0
 10
1.40872094
 20
2.21175635
  0
VERTEX
  8
0
 10
1.43106135
 20
2.20834680
  0
VERTEX
  8
0
 10
1.45262412
 20
2.20280245
  0
VERTEX
  8
0
 10
1.47329615
 20
2.19523638
  0
VERTEX
  8
0
 10
1.49296436
 20
2.18576172
  0
VERTEX
  8
0
 10
1.51151564
 20
2.17449153
  0
VERTEX
  8
0
 10
1.52883689
 20
2.16153894
  0
VERTEX
  8
0
 10
1.54481503
 20
2.14701703
  0
VERTEX
  8
0
 10
1.55933694
 20
2.13103889
  0
VERTEX
  8
0
 10
1.57228953
 20
2.11371764
  0
VERTEX
  8
0
 10
1.58355972
 20
2.09516636
  0
VERTEX
  8
0
 10
1.59303438
 20
2.07549815
  0
VERTEX
  8
0
 10
1.60060045
 20
2.05482612
  0
VERTEX
  8
0
 10
1.60614480
 20
2.03326335
  0
VERTEX
  8
0
 10
1.60955435
 20
2.01092294
  0
VERTEX
  8
0
 10
1.61071600
 20
1.98791800
  0
VERTEX
  8
0
 10
1.60955435
 20
1.96491306
  0
VERTEX
  8
0
 10
1.60614480
 20
1.94257265
  0
VERTEX
  8
0
 10
1.60060045
 20
1.92100988
  0
VERTEX
  8
0
 10
1.59303438
 20
1.90033785
  0
VERTEX
  8
0
 10
1.58355972
 20
1.88066964
  0
VERTEX
  8
0
 10
1.57228953
 20
1.86211836
  0
VERTEX
  8
0
 10
1.55933694
 20
1.84479711
  0
VERTEX
  8
0
 10
1.54481503
 20
1.82881897
  0
VERTEX
  8
0
 10
1.52883689
 20
1.81429706
  0
VERTEX
  8
0
 10
1.51151564
 20
1.80134447
  0
VERTEX
  8
0
 10
1.49296436
 20
1.79007428
  0
VERTEX
  8
0
 10
1.47329615
 20
1.78059962
  0
VERTEX
  8
0
 10
1.45262412
 20
1.77303355
  0
VERTEX
  8
0
 10
1.43106135
 20
1.76748920
  0
VERTEX
  8
0
 10
1.40872094
 20
1.76407965
  0
VERTEX
  8
0
 10
1.38571600
 20
1.76291800
  0
VERTEX
  8
0
 10
1.36271106
 20
1.76407965
  0
VERTEX
  8
0
 10
1.34037065
 20
1.76748920
  0
VERTEX
  8
0
 10
1.31880788
 20
1.77303355
  0
VERTEX
  8
0
 10
1.29813585
 20
1.78059962
  0
VERTEX
  8
0
 10
1.27846764
 20
1.79007428
  0
VERTEX
  8
0
 10
1.25991636
 20
1.80134447
  0
VERTEX
  8
0
 10
1.24259511
 20
1.81429706
  0
VERTEX
  8
0
 10
1.22661697
 20
1.82881897
  0
VERTEX
  8
0
 10
1.21209506
 20
1.84479711
  0
VERTEX
  8
0
 10
1.19914247
 20
1.86211836
  0
VERTEX
  8
0
 10
1.18787228
 20
1.88066964
  0
VERTEX
  8
0
 10
1.17839762
 20
1.90033785
  0
VERTEX
  8
0
 10
1.17083155
 20
1.92100988
  0
VERTEX
  8
0
 10
1.16528720
 20
1.94257265
  0
VERTEX
  8
0
 10
1.16187765
 20
1.96491306
  0
VERTEX
  8
0
 10
1.16071600
 20
1.98791800
  0
SEQEND
  0
POLYLINE
  8
Default Layer
 66
   1
 39
0.000000
 70
    1
  0
VERTEX
  8
0
 10
1.16071600
 20
0.78791800
  0
VERTEX
  8
0
 10
1.16187765
 20
0.81092294
  0
VERTEX
  8
0
 10
1.16528720
 20
0.83326335
  0
VERTEX
  8
0
 10
1.17083155
 20
0.85482612
  0
VERTEX
  8
0
 10
1.17839762
 20
0.87549815
  0
VERTEX
  8
0
 10
1.18787228
 20
0.89516636
  0
VERTEX
  8
0
 10
1.19914247
 20
0.91371764
  0
VERTEX
  8
0
 10
1.21209506
 20
0.93103889
  0
VERTEX
  8
0
 10
1.22661697
 20
0.94701703
  0
VERTEX
  8
0
 10
1.24259511
 20
0.96153894
  0
VERTEX
  8
0
 10
1.25991636
 20
0.97449153
  0
VERTEX
  8
0
 10
1.27846764
 20
0.98576172
  0
VERTEX
  8
0
 10
1.29813585
 20
0.99523638
  0
VERTEX
  8
0
 10
1.31880788
 20
1.00280245
  0
VERTEX
  8
0
 10
1.34037065
 20
1.00834680
  0
VERTEX
  8
0
 10
1.36271106
 20
1.01175635
  0
VERTEX
  8
0
 10
1.38571600
 20
1.01291800
  0
VERTEX
  8
0
 10
1.40872094
 20
1.01175635
  0
VERTEX
  8
0
 10
1.43106135
 20
1.00834680
  0
VERTEX
  8
0
 10
1.45262412
 20
1.00280245
  0
VERTEX
  8
0
 10
1.47329615
 20
0.99523638
  0
VERTEX
  8
0
 10
1.49296436
 20
0.98576172
  0
VERTEX
  8
0
 10
1.51151564
 20
0.97449153
  0
VERTEX
  8
0
 10
1.52883689
 20
0.96153894
  0
VERTEX
  8
0
 10
1.54481503
 20
0.94701703
  0
VERTEX
  8
0
 10
1.55933694
 20
0.93103889
  0
VERTEX
  8
0
 10
1.57228953
 20
0.91371764
  0
VERTEX
  8
0
 10
1.58355972
 20
0.89516636
  0
VERTEX
  8
0
 10
1.59303438
 20
0.87549815
  0
VERTEX
  8
0
 10
1.60060045
 20
0.85482612
  0
VERTEX
  8
0
 10
1.60614480
 20
0.83326335
  0
VERTEX
  8
0
 10
1.60955435
 20
0.81092294
  0
VERTEX
  8
0
 10
1.61071600
 20
0.78791800
  0
VERTEX
  8
0
 10
1.60955435
 20
0.76491306
  0
VERTEX
  8
0
 10
1.60614480
 20
0.74257265
  0
VERTEX
  8
0
 10
1.60060045
 20
0.72100988
  0
VERTEX
  8
0
 10
1.59303438
 20
0.70033785
  0
VERTEX
  8
0
 10
1.58355972
 20
0.68066964
  0
VERTEX
  8
0
 10
1.57228953
 20
0.66211836
  0
VERTEX
  8
0
 10
1.55933694
 20
0.64479711
  0
VERTEX
  8
0
 10
1.54481503
 20
0.62881897
  0
VERTEX
  8
0
 10
1.52883689
 20
0.61429706
  0
VERTEX
  8
0
 10
1.51151564
 20
0.60134447
  0
VERTEX
  8
0
 10
1.49296436
 20
0.59007428
  0
VERTEX
  8
0
 10
1.47329615
 20
0.58059962
  0
VERTEX
  8
0
 10
1.45262412
 20
0.57303355
  0
VERTEX
  8
0
 10
1.43106135
 20
0.56748920
  0
VERTEX
  8
0
 10
1.40872094
 20
0.56407965
  0
VERTEX
  8
0
 10
1.38571600
 20
0.56291800
  0
VERTEX
  8
0
 10
1.36271106
 20
0.56407965
  0
VERTEX
  8
0
 10
1.34037065
 20
0.56748920
  0
VERTEX
  8
0
 10
1.31880788
 20
0.57303355
  0
VERTEX
  8
0
 10
1.29813585
 20
0.58059962
  0
VERTEX
  8
0
 10
1.27846764
 20
0.59007428
  0
VERTEX
  8
0
 10
1.25991636
 20
0.60134447
  0
VERTEX
  8
0
 10
1.24259511
 20
0.61429706
  0
VERTEX
  8
0
 10
1.22661697
 20
0.62881897
  0
VERTEX
  8
0
 10
1.21209506
 20
0.64479711
  0
VERTEX
  8
0
 10
1.19914247
 20
0.66211836
  0
VERTEX
  8
0
 10
1.18787228
 20
0.68066964
  0
VERTEX
  8
0
 10
1.17839762
 20
0.70033785
  0
VERTEX
  8
0
 10
1.17083155
 20
0.72100988
  0
VERTEX
  8
0
 10
1.16528720
 20
0.74257265
  0
VERTEX
  8
0
 10
1.16187765
 20
0.76491306
  0
VERTEX
  8
0
 10
1.16071600
 20
0.78791800
  0
SEQEND
  0
POLYLINE
  8
Default Layer
 66
   1
 39
0.000000
 70
    1
  0
VERTEX
  8
0
 10
1.30571600
 20
1.98791800
  0
VERTEX
  8
0
 10
1.30612903
 20
1.99609754
  0
VERTEX
  8
0
 10
1.30734132
 20
2.00404079
  0
VERTEX
  8
0
 10
1.30931264
 20
2.01170755
  0
VERTEX
  8
0
 10
1.31200280
 20
2.01905761
  0
VERTEX
  8
0
 10
1.31537157
 20
2.02605075
  0
VERTEX
  8
0
 10
1.31937874
 20
2.03264676
  0
VERTEX
  8
0
 10
1.32914746
 20
2.04448654
  0
VERTEX
  8
0
 10
1.34098724
 20
2.05425526
  0
VERTEX
  8
0
 10
1.34758325
 20
2.05826243
  0
VERTEX
  8
0
 10
1.35457639
 20
2.06163120
  0
VERTEX
  8
0
 10
1.36192645
 20
2.06432136
  0
VERTEX
  8
0
 10
1.36959321
 20
2.06629268
  0
VERTEX
  8
0
 10
1.37753646
 20
2.06750497
  0
VERTEX
  8
0
 10
1.38571600
 20
2.06791800
  0
VERTEX
  8
0
 10
1.39389554
 20
2.06750497
  0
VERTEX
  8
0
 10
1.40183879
 20
2.06629268
  0
VERTEX
  8
0
 10
1.40950555
 20
2.06432136
  0
VERTEX
  8
0
 10
1.41685561
 20
2.06163120
  0
VERTEX
  8
0
 10
1.42384875
 20
2.05826243
  0
VERTEX
  8
0
 10
1.43044476
 20
2.05425526
  0
VERTEX
  8
0
 10
1.44228454
 20
2.04448654
  0
VERTEX
  8
0
 10
1.45205326
 20
2.03264676
  0
VERTEX
  8
0
 10
1.45606043
 20
2.02605075
  0
VERTEX
  8
0
 10
1.45942920
 20
2.01905761
  0
VERTEX
  8
0
 10
1.46211936
 20
2.01170755
  0
VERTEX
  8
0
 10
1.46409068
 20
2.00404079
  0
VERTEX
  8
0
 10
1.46530297
 20
1.99609754
  0
VERTEX
  8
0
 10
1.46571600
 20
1.98791800
  0
VERTEX
  8
0
 10
1.46530297
 20
1.97973846
  0
VERTEX
  8
0
 10
1.46409068
 20
1.97179521
  0
VERTEX
  8
0
 10
1.46211936
 20
1.96412845
  0
VERTEX
  8
0
 10
1.45942920
 20
1.95677839
  0
VERTEX
  8
0
 10
1.45606043
 20
1.94978525
  0
VERTEX
  8
0
 10
1.45205326
 20
1.94318924
  0
VERTEX
  8
0
 10
1.44228454
 20
1.93134946
  0
VERTEX
  8
0
 10
1.43044476
 20
1.92158074
  0
VERTEX
  8
0
 10
1.42384875
 20
1.91757357
  0
VERTEX
  8
0
 10
1.41685561
 20
1.91420480
  0
VERTEX
  8
0
 10
1.40950555
 20
1.91151464
  0
VERTEX
  8
0
 10
1.40183879
 20
1.90954332
  0
VERTEX
  8
0
 10
1.39389554
 20
1.90833103
  0
VERTEX
  8
0
 10
1.38571600
 20
1.90791800
  0
VERTEX
  8
0
 10
1.37753646
 20
1.90833103
  0
VERTEX
  8
0
 10
1.36959321
 20
1.90954332
  0
VERTEX
  8
0
 10
1.36192645
 20
1.91151464
  0
VERTEX
  8
0
 10
1.35457639
 20
1.91420480
  0
VERTEX
  8
0
 10
1.34758325
 20
1.91757357
  0
VERTEX
  8
0
 10
1.34098724
 20
1.92158074
  0
VERTEX
  8
0
 10
1.32914746
 20
1.93134946
  0
VERTEX
  8
0
 10
1.31937874
 20
1.94318924
  0
VERTEX
  8
0
 10
1.31537157
 20
1.94978525
  0
VERTEX
  8
0
 10
1.31200280
 20
1.95677839
  0
VERTEX
  8
0
 10
1.30931264
 20
1.96412845
  0
VERTEX
  8
0
 10
1.30734132
 20
1.97179521
  0
VERTEX
  8
0
 10
1.30612903
 20
1.97973846
  0
VERTEX
  8
0
 10
1.30571600
 20
1.98791800
  0
SEQEND
  0
POLYLINE
  8
Default Layer
 66
   1
 39
0.000000
 70
    1
  0
VERTEX
  8
0
 10
1.30571600
 20
0.78791800
  0
VERTEX
  8
0
 10
1.30612903
 20
0.79609754
  0
VERTEX
  8
0
 10
1.30734132
 20
0.80404079
  0
VERTEX
  8
0
 10
1.30931264
 20
0.81170755
  0
VERTEX
  8
0
 10
1.31200280
 20
0.81905761
  0
VERTEX
  8
0
 10
1.31537157
 20
0.82605075
  0
VERTEX
  8
0
 10
1.31937874
 20
0.83264676
  0
VERTEX
  8
0
 10
1.32914746
 20
0.84448654
  0
VERTEX
  8
0
 10
1.34098724
 20
0.85425526
  0
VERTEX
  8
0
 10
1.34758325
 20
0.85826243
  0
VERTEX
  8
0
 10
1.35457639
 20
0.86163120
  0
VERTEX
  8
0
 10
1.36192645
 20
0.86432136
  0
VERTEX
  8
0
 10
1.36959321
 20
0.86629268
  0
VERTEX
  8
0
 10
1.37753646
 20
0.86750497
  0
VERTEX
  8
0
 10
1.38571600
 20
0.86791800
  0
VERTEX
  8
0
 10
1.39389554
 20
0.86750497
  0
VERTEX
  8
0
 10
1.40183879
 20
0.86629268
  0
VERTEX
  8
0
 10
1.40950555
 20
0.86432136
  0
VERTEX
  8
0
 10
1.41685561
 20
0.86163120
  0
VERTEX
  8
0
 10
1.42384875
 20
0.85826243
  0
VERTEX
  8
0
 10
1.43044476
 20
0.85425526
  0
VERTEX
  8
0
 10
1.44228454
 20
0.84448654
  0
VERTEX
  8
0
 10
1.45205326
 20
0.83264676
  0
VERTEX
  8
0
 10
1.45606043
 20
0.82605075
  0
VERTEX
  8
0
 10
1.45942920
 20
0.81905761
  0
VERTEX
  8
0
 10
1.46211936
 20
0.81170755
  0
VERTEX
  8
0
 10
1.46409068
 20
0.80404079
  0
VERTEX
  8
0
 10
1.46530297
 20
0.79609754
  0
VERTEX
  8
0
 10
1.46571600
 20
0.78791800
  0
VERTEX
  8
0
 10
1.46530297
 20
0.77973846
  0
VERTEX
  8
0
 10
1.46409068
 20
0.77179521
  0
VERTEX
  8
0
 10
1.46211936
 20
0.76412845
  0
VERTEX
  8
0
 10
1.45942920
 20
0.75677839
  0
VERTEX
  8
0
 10
1.45606043
 20
0.74978525
  0
VERTEX
  8
0
 10
1.45205326
 20
0.74318924
  0
VERTEX
  8
0
 10
1.44228454
 20
0.73134946
  0
VERTEX
  8
0
 10
1.43044476
 20
0.72158074
  0
VERTEX
  8
0
 10
1.42384875
 20
0.71757357
  0
VERTEX
  8
0
 10
1.41685561
 20
0.71420480
  0
VERTEX
  8
0
 10
1.40950555
 20
0.71151464
  0
VERTEX
  8
0
 10
1.40183879
 20
0.70954332
  0
VERTEX
  8
0
 10
1.39389554
 20
0.70833103
  0
VERTEX
  8
0
 10
1.38571600
 20
0.70791800
  0
VERTEX
  8
0
 10
1.37753646
 20
0.70833103
  0
VERTEX
  8
0
 10
1.36959321
 20
0.70954332
  0
VERTEX
  8
0
 10
1.36192645
 20
0.71151464
  0
VERTEX
  8
0
 10
1.35457639
 20
0.71420480
  0
VERTEX
  8
0
 10
1.34758325
 20
0.71757357
  0
VERTEX
  8
0
 10
1.34098724
 20
0.72158074
  0
VERTEX
  8
0
 10
1.32914746
 20
0.73134946
  0
VERTEX
  8
0
 10
1.31937874
 20
0.74318924
  0
VERTEX
  8
0
 10
1.31537157
 20
0.74978525
  0
VERTEX
  8
0
 10
1.31200280
 20
0.75677839
  0
VERTEX
  8
0
 10
1.30931264
 20
0.76412845
  0
VERTEX
  8
0
 10
1.30734132
 20
0.77179521
  0
VERTEX
  8
0
 10
1.30612903
 20
0.77973846
  0
VERTEX
  8
0
 10
1.30571600
 20
0.78791800
  0
SEQEND
  0
POLYLINE
  8
Default Layer
 66
   1
 39
0.000000
 70
    1
  0
VERTEX
  8
0
 10
1.25070000
 20
1.38790000
  0
VERTEX
  8
0
 10
1.25139699
 20
1.40170297
  0
VERTEX
  8
0
 10
1.25344272
 20
1.41510721
  0
VERTEX
  8
0
 10
1.25676933
 20
1.42804487
  0
VERTEX
  8
0
 10
1.26130897
 20
1.44044809
  0
VERTEX
  8
0
 10
1.26699377
 20
1.45224902
  0
VERTEX
  8
0
 10
1.27375588
 20
1.46337978
  0
VERTEX
  8
0
 10
1.28152744
 20
1.47377254
  0
VERTEX
  8
0
 10
1.29024058
 20
1.48335942
  0
VERTEX
  8
0
 10
1.29982746
 20
1.49207256
  0
VERTEX
  8
0
 10
1.31022022
 20
1.49984412
  0
VERTEX
  8
0
 10
1.32135098
 20
1.50660623
  0
VERTEX
  8
0
 10
1.33315191
 20
1.51229103
  0
VERTEX
  8
0
 10
1.34555513
 20
1.51683067
  0
VERTEX
  8
0
 10
1.35849279
 20
1.52015728
  0
VERTEX
  8
0
 10
1.37189703
 20
1.52220301
  0
VERTEX
  8
0
 10
1.38570000
 20
1.52290000
  0
VERTEX
  8
0
 10
1.39950297
 20
1.52220301
  0
VERTEX
  8
0
 10
1.41290721
 20
1.52015728
  0
VERTEX
  8
0
 10
1.42584487
 20
1.51683067
  0
VERTEX
  8
0
 10
1.43824809
 20
1.51229103
  0
VERTEX
  8
0
 10
1.45004902
 20
1.50660623
  0
VERTEX
  8
0
 10
1.46117978
 20
1.49984412
  0
VERTEX
  8
0
 10
1.47157254
 20
1.49207256
  0
VERTEX
  8
0
 10
1.48115942
 20
1.48335942
  0
VERTEX
  8
0
 10
1.48987256
 20
1.47377254
  0
VERTEX
  8
0
 10
1.49764412
 20
1.46337978
  0
VERTEX
  8
0
 10
1.50440623
 20
1.45224902
  0
VERTEX
  8
0
 10
1.51009103
 20
1.44044809
  0
VERTEX
  8
0
 10
1.51463067
 20
1.42804487
  0
VERTEX
  8
0
 10
1.51795728
 20
1.41510721
  0
VERTEX
  8
0
 10
1.52000301
 20
1.40170297
  0
VERTEX
  8
0
 10
1.52070000
 20
1.38790000
  0
VERTEX
  8
0
 10
1.52000301
 20
1.37409703
  0
VERTEX
  8
0
 10
1.51795728
 20
1.36069279
  0
VERTEX
  8
0
 10
1.51463067
 20
1.34775513
  0
VERTEX
  8
0
 10
1.51009103
 20
1.33535191
  0
VERTEX
  8
0
 10
1.50440623
 20
1.32355098
  0
VERTEX
  8
0
 10
1.49764412
 20
1.31242022
  0
VERTEX
  8
0
 10
1.48987256
 20
1.30202746
  0
VERTEX
  8
0
 10
1.48115942
 20
1.29244058
  0
VERTEX
  8
0
 10
1.47157254
 20
1.28372744
  0
VERTEX
  8
0
 10
1.46117978
 20
1.27595588
  0
VERTEX
  8
0
 10
1.45004902
 20
1.26919377
  0
VERTEX
  8
0
 10
1.43824809
 20
1.26350897
  0
VERTEX
  8
0
 10
1.42584487
 20
1.25896933
  0
VERTEX
  8
0
 10
1.41290721
 20
1.25564272
  0
VERTEX
  8
0
 10
1.39950297
 20
1.25359699
  0
VERTEX
  8
0
 10
1.38570000
 20
1.25290000
  0
VERTEX
  8
0
 10
1.37189703
 20
1.25359699
  0
VERTEX
  8
0
 10
1.35849279
 20
1.25564272
  0
VERTEX
  8
0
 10
1.34555513
 20
1.25896933
  0
VERTEX
  8
0
 10
1.33315191
 20
1.26350897
  0
VERTEX
  8
0
 10
1.32135098
 20
1.26919377
  0
VERTEX
  8
0
 10
1.31022022
 20
1.27595588
  0
VERTEX
  8
0
 10
1.29982746
 20
1.28372744
  0
VERTEX
  8
0
 10
1.29024058
 20
1.29244058
  0
VERTEX
  8
0
 10
1.28152744
 20
1.30202746
  0
VERTEX
  8
0
 10
1.27375588
 20
1.31242022
  0
VERTEX
  8
0
 10
1.26699377
 20
1.32355098
  0
VERTEX
  8
0
 10
1.26130897
 20
1.33535191
  0
VERTEX
  8
0
 10
1.25676933
 20
1.34775513
  0
VERTEX
  8
0
 10
1.25344272
 20
1.36069279
  0
VERTEX
  8
0
 10
1.25139699
 20
1.37409703
  0
VERTEX
  8
0
 10
1.25070000
 20
1.38790000
  0
SEQEND
  0
ENDSEC
  0
EOF
