  0
SECTION
  2
HEADER
  9
$ACADVER
  1
AC1009
  9
$EXTMIN
 10
0.00000000
 20
0.00000000
 30
0.0
  9
$EXTMAX
 10
3.60607200
 20
3.60607200
 30
0.0
  0
ENDSEC
  0
SECTION
  2
TABLES
  0
TABLE
  2
LAYER
 70
2
 0
LAYER
 2
1
 70
0
 62
1
 6
CONTINUOUS
 0
LAYER
 2
Default Layer
 70
0
 62
1
 6
CONTINUOUS
 0
ENDTAB
 0
ENDSEC
  0
SECTION
  2
ENTITIES
  0
POLYLINE
  8
1
 66
   1
 39
0.000000
 70
    1
  0
VERTEX
  8
0
 10
3.29609200
 20
1.80303600
  0
VERTEX
  8
0
 10
3.36919000
 20
1.80303600
  0
VERTEX
  8
0
 10
3.37133600
 20
1.80311100
  0
VERTEX
  8
0
 10
3.37401300
 20
1.80328900
  0
VERTEX
  8
0
 10
3.37639000
 20
1.80349700
  0
VERTEX
  8
0
 10
3.37923600
 20
1.80379700
  0
VERTEX
  8
0
 10
3.38255100
 20
1.80420500
  0
VERTEX
  8
0
 10
3.38633000
 20
1.80473700
  0
VERTEX
  8
0
 10
3.38839300
 20
1.80505400
  0
VERTEX
  8
0
 10
3.39057100
 20
1.80540900
  0
VERTEX
  8
0
 10
3.39286300
 20
1.80580300
  0
VERTEX
  8
0
 10
3.39526900
 20
1.80623800
  0
VERTEX
  8
0
 10
3.39778800
 20
1.80671700
  0
VERTEX
  8
0
 10
3.40042000
 20
1.80724000
  0
VERTEX
  8
0
 10
3.40316400
 20
1.80781100
  0
VERTEX
  8
0
 10
3.40602000
 20
1.80843100
  0
VERTEX
  8
0
 10
3.40898600
 20
1.80910200
  0
VERTEX
  8
0
 10
3.41206300
 20
1.80982700
  0
VERTEX
  8
0
 10
3.41524800
 20
1.81060700
  0
VERTEX
  8
0
 10
3.41854300
 20
1.81144300
  0
VERTEX
  8
0
 10
3.42194500
 20
1.81233900
  0
VERTEX
  8
0
 10
3.42545500
 20
1.81329600
  0
VERTEX
  8
0
 10
3.42907100
 20
1.81431600
  0
VERTEX
  8
0
 10
3.43279200
 20
1.81540100
  0
VERTEX
  8
0
 10
3.43661800
 20
1.81655200
  0
VERTEX
  8
0
 10
3.44054800
 20
1.81777300
  0
VERTEX
  8
0
 10
3.44458000
 20
1.81906400
  0
VERTEX
  8
0
 10
3.44871500
 20
1.82042700
  0
VERTEX
  8
0
 10
3.45295000
 20
1.82186500
  0
VERTEX
  8
0
 10
3.45728500
 20
1.82337900
  0
VERTEX
  8
0
 10
3.46171900
 20
1.82497100
  0
VERTEX
  8
0
 10
3.46625100
 20
1.82664300
  0
VERTEX
  8
0
 10
3.47087900
 20
1.82839700
  0
VERTEX
  8
0
 10
3.47560400
 20
1.83023400
  0
VERTEX
  8
0
 10
3.48042300
 20
1.83215600
  0
VERTEX
  8
0
 10
3.48533500
 20
1.83416600
  0
VERTEX
  8
0
 10
3.49033900
 20
1.83626500
  0
VERTEX
  8
0
 10
3.49543500
 20
1.83845400
  0
VERTEX
  8
0
 10
3.50062000
 20
1.84073600
  0
VERTEX
  8
0
 10
3.50589400
 20
1.84311200
  0
VERTEX
  8
0
 10
3.51125600
 20
1.84558400
  0
VERTEX
  8
0
 10
3.51670400
 20
1.84815300
  0
VERTEX
  8
0
 10
3.52223600
 20
1.85082100
  0
VERTEX
  8
0
 10
3.52785200
 20
1.85359100
  0
VERTEX
  8
0
 10
3.53355000
 20
1.85646300
  0
VERTEX
  8
0
 10
3.53932800
 20
1.85943900
  0
VERTEX
  8
0
 10
3.54518600
 20
1.86252200
  0
VERTEX
  8
0
 10
3.55112200
 20
1.86571100
  0
VERTEX
  8
0
 10
3.55713500
 20
1.86901000
  0
VERTEX
  8
0
 10
3.56322300
 20
1.87241900
  0
VERTEX
  8
0
 10
3.56938400
 20
1.87594100
  0
VERTEX
  8
0
 10
3.57561700
 20
1.87957600
  0
VERTEX
  8
0
 10
3.58192100
 20
1.88332600
  0
VERTEX
  8
0
 10
3.58829300
 20
1.88719400
  0
VERTEX
  8
0
 10
3.59473400
 20
1.89117900
  0
VERTEX
  8
0
 10
3.60124000
 20
1.89528400
  0
VERTEX
  8
0
 10
3.60607200
 20
1.89839200
  0
VERTEX
  8
0
 10
3.59809600
 20
1.99743600
  0
VERTEX
  8
0
 10
3.59282800
 20
1.99973100
  0
VERTEX
  8
0
 10
3.58574900
 20
2.00274200
  0
VERTEX
  8
0
 10
3.57875400
 20
2.00564600
  0
VERTEX
  8
0
 10
3.57184500
 20
2.00844300
  0
VERTEX
  8
0
 10
3.56502200
 20
2.01113700
  0
VERTEX
  8
0
 10
3.55828800
 20
2.01372700
  0
VERTEX
  8
0
 10
3.55164200
 20
2.01621800
  0
VERTEX
  8
0
 10
3.54508800
 20
2.01860900
  0
VERTEX
  8
0
 10
3.53862500
 20
2.02090300
  0
VERTEX
  8
0
 10
3.53225500
 20
2.02310200
  0
VERTEX
  8
0
 10
3.52597900
 20
2.02520700
  0
VERTEX
  8
0
 10
3.51979900
 20
2.02722000
  0
VERTEX
  8
0
 10
3.51371400
 20
2.02914300
  0
VERTEX
  8
0
 10
3.50772800
 20
2.03097800
  0
VERTEX
  8
0
 10
3.50184000
 20
2.03272700
  0
VERTEX
  8
0
 10
3.49605100
 20
2.03439200
  0
VERTEX
  8
0
 10
3.49036300
 20
2.03597400
  0
VERTEX
  8
0
 10
3.48477700
 20
2.03747500
  0
VERTEX
  8
0
 10
3.47929300
 20
2.03889700
  0
VERTEX
  8
0
 10
3.47391300
 20
2.04024300
  0
VERTEX
  8
0
 10
3.46863700
 20
2.04151400
  0
VERTEX
  8
0
 10
3.46346600
 20
2.04271200
  0
VERTEX
  8
0
 10
3.45840200
 20
2.04383800
  0
VERTEX
  8
0
 10
3.45344500
 20
2.04489600
  0
VERTEX
  8
0
 10
3.44859500
 20
2.04588600
  0
VERTEX
  8
0
 10
3.44385400
 20
2.04681200
  0
VERTEX
  8
0
 10
3.43922200
 20
2.04767400
  0
VERTEX
  8
0
 10
3.43470100
 20
2.04847400
  0
VERTEX
  8
0
 10
3.43029000
 20
2.04921600
  0
VERTEX
  8
0
 10
3.42599100
 20
2.04990000
  0
VERTEX
  8
0
 10
3.42180400
 20
2.05052900
  0
VERTEX
  8
0
 10
3.41773000
 20
2.05110500
  0
VERTEX
  8
0
 10
3.41376900
 20
2.05162900
  0
VERTEX
  8
0
 10
3.40992200
 20
2.05210500
  0
VERTEX
  8
0
 10
3.40618900
 20
2.05253300
  0
VERTEX
  8
0
 10
3.40257200
 20
2.05291600
  0
VERTEX
  8
0
 10
3.39907000
 20
2.05325600
  0
VERTEX
  8
0
 10
3.39568400
 20
2.05355400
  0
VERTEX
  8
0
 10
3.39241400
 20
2.05381400
  0
VERTEX
  8
0
 10
3.38926100
 20
2.05403700
  0
VERTEX
  8
0
 10
3.38622600
 20
2.05422500
  0
VERTEX
  8
0
 10
3.38330800
 20
2.05438000
  0
VERTEX
  8
0
 10
3.38050800
 20
2.05450500
  0
VERTEX
  8
0
 10
3.37782600
 20
2.05460000
  0
VERTEX
  8
0
 10
3.37526300
 20
2.05466900
  0
VERTEX
  8
0
 10
3.37281800
 20
2.05471400
  0
VERTEX
  8
0
 10
3.37049200
 20
2.05473600
  0
VERTEX
  8
0
 10
3.36828600
 20
2.05473800
  0
VERTEX
  8
0
 10
3.36619900
 20
2.05472100
  0
VERTEX
  8
0
 10
3.36238300
 20
2.05464100
  0
VERTEX
  8
0
 10
3.35904600
 20
2.05451300
  0
VERTEX
  8
0
 10
3.35618800
 20
2.05435400
  0
VERTEX
  8
0
 10
3.35380900
 20
2.05417900
  0
VERTEX
  8
0
 10
3.35113700
 20
2.05392600
  0
VERTEX
  8
0
 10
3.34900800
 20
2.05365700
  0
VERTEX
  8
0
 10
3.27685100
 20
2.04196000
  0
VERTEX
  8
0
 10
3.24521700
 20
2.18946700
  0
VERTEX
  8
0
 10
3.31582500
 20
2.20838700
  0
VERTEX
  8
0
 10
3.31787800
 20
2.20901400
  0
VERTEX
  8
0
 10
3.32041800
 20
2.20987900
  0
VERTEX
  8
0
 10
3.32265900
 20
2.21069600
  0
VERTEX
  8
0
 10
3.32533100
 20
2.21172200
  0
VERTEX
  8
0
 10
3.32842800
 20
2.21297400
  0
VERTEX
  8
0
 10
3.33194000
 20
2.21446500
  0
VERTEX
  8
0
 10
3.33385100
 20
2.21530600
  0
VERTEX
  8
0
 10
3.33586300
 20
2.21621300
  0
VERTEX
  8
0
 10
3.33797500
 20
2.21718600
  0
VERTEX
  8
0
 10
3.34018600
 20
2.21822900
  0
VERTEX
  8
0
 10
3.34249600
 20
2.21934300
  0
VERTEX
  8
0
 10
3.34490200
 20
2.22053000
  0
VERTEX
  8
0
 10
3.34740500
 20
2.22179200
  0
VERTEX
  8
0
 10
3.35000300
 20
2.22313000
  0
VERTEX
  8
0
 10
3.35269500
 20
2.22454600
  0
VERTEX
  8
0
 10
3.35547900
 20
2.22604200
  0
VERTEX
  8
0
 10
3.35835400
 20
2.22762000
  0
VERTEX
  8
0
 10
3.36132000
 20
2.22928100
  0
VERTEX
  8
0
 10
3.36437500
 20
2.23102700
  0
VERTEX
  8
0
 10
3.36751700
 20
2.23286000
  0
VERTEX
  8
0
 10
3.37074600
 20
2.23478100
  0
VERTEX
  8
0
 10
3.37405900
 20
2.23679200
  0
VERTEX
  8
0
 10
3.37745700
 20
2.23889400
  0
VERTEX
  8
0
 10
3.38093700
 20
2.24109000
  0
VERTEX
  8
0
 10
3.38449800
 20
2.24338100
  0
VERTEX
  8
0
 10
3.38813800
 20
2.24576700
  0
VERTEX
  8
0
 10
3.39185700
 20
2.24825200
  0
VERTEX
  8
0
 10
3.39565300
 20
2.25083700
  0
VERTEX
  8
0
 10
3.39952400
 20
2.25352200
  0
VERTEX
  8
0
 10
3.40346800
 20
2.25631000
  0
VERTEX
  8
0
 10
3.40748500
 20
2.25920200
  0
VERTEX
  8
0
 10
3.41157300
 20
2.26219900
  0
VERTEX
  8
0
 10
3.41573000
 20
2.26530400
  0
VERTEX
  8
0
 10
3.41995500
 20
2.26851600
  0
VERTEX
  8
0
 10
3.42424600
 20
2.27183900
  0
VERTEX
  8
0
 10
3.42860100
 20
2.27527200
  0
VERTEX
  8
0
 10
3.43301900
 20
2.27881800
  0
VERTEX
  8
0
 10
3.43749900
 20
2.28247800
  0
VERTEX
  8
0
 10
3.44203800
 20
2.28625400
  0
VERTEX
  8
0
 10
3.44663500
 20
2.29014500
  0
VERTEX
  8
0
 10
3.45128800
 20
2.29415500
  0
VERTEX
  8
0
 10
3.45599500
 20
2.29828400
  0
VERTEX
  8
0
 10
3.46075600
 20
2.30253300
  0
VERTEX
  8
0
 10
3.46556700
 20
2.30690300
  0
VERTEX
  8
0
 10
3.47042800
 20
2.31139600
  0
VERTEX
  8
0
 10
3.47533600
 20
2.31601400
  0
VERTEX
  8
0
 10
3.48029000
 20
2.32075600
  0
VERTEX
  8
0
 10
3.48528800
 20
2.32562500
  0
VERTEX
  8
0
 10
3.49032800
 20
2.33062100
  0
VERTEX
  8
0
 10
3.49540800
 20
2.33574600
  0
VERTEX
  8
0
 10
3.50052600
 20
2.34100000
  0
VERTEX
  8
0
 10
3.50568100
 20
2.34638500
  0
VERTEX
  8
0
 10
3.51087000
 20
2.35190100
  0
VERTEX
  8
0
 10
3.51609200
 20
2.35755000
  0
VERTEX
  8
0
 10
3.51995500
 20
2.36180300
  0
VERTEX
  8
0
 10
3.48661600
 20
2.45540800
  0
VERTEX
  8
0
 10
3.48093400
 20
2.45626100
  0
VERTEX
  8
0
 10
3.47331700
 20
2.45733800
  0
VERTEX
  8
0
 10
3.46580900
 20
2.45833200
  0
VERTEX
  8
0
 10
3.45841100
 20
2.45924600
  0
VERTEX
  8
0
 10
3.45112400
 20
2.46008100
  0
VERTEX
  8
0
 10
3.44394800
 20
2.46084100
  0
VERTEX
  8
0
 10
3.43688500
 20
2.46152600
  0
VERTEX
  8
0
 10
3.42993400
 20
2.46214000
  0
VERTEX
  8
0
 10
3.42309800
 20
2.46268300
  0
VERTEX
  8
0
 10
3.41637600
 20
2.46315800
  0
VERTEX
  8
0
 10
3.40976900
 20
2.46356700
  0
VERTEX
  8
0
 10
3.40327800
 20
2.46391200
  0
VERTEX
  8
0
 10
3.39690400
 20
2.46419500
  0
VERTEX
  8
0
 10
3.39064600
 20
2.46441800
  0
VERTEX
  8
0
 10
3.38450600
 20
2.46458300
  0
VERTEX
  8
0
 10
3.37848400
 20
2.46469300
  0
VERTEX
  8
0
 10
3.37258000
 20
2.46474900
  0
VERTEX
  8
0
 10
3.36679600
 20
2.46475300
  0
VERTEX
  8
0
 10
3.36113100
 20
2.46470800
  0
VERTEX
  8
0
 10
3.35558500
 20
2.46461500
  0
VERTEX
  8
0
 10
3.35016000
 20
2.46447700
  0
VERTEX
  8
0
 10
3.34485600
 20
2.46429600
  0
VERTEX
  8
0
 10
3.33967200
 20
2.46407400
  0
VERTEX
  8
0
 10
3.33461000
 20
2.46381200
  0
VERTEX
  8
0
 10
3.32967000
 20
2.46351400
  0
VERTEX
  8
0
 10
3.32485100
 20
2.46318000
  0
VERTEX
  8
0
 10
3.32015400
 20
2.46281400
  0
VERTEX
  8
0
 10
3.31557900
 20
2.46241700
  0
VERTEX
  8
0
 10
3.31112700
 20
2.46199200
  0
VERTEX
  8
0
 10
3.30679700
 20
2.46154000
  0
VERTEX
  8
0
 10
3.30259000
 20
2.46106400
  0
VERTEX
  8
0
 10
3.29850500
 20
2.46056600
  0
VERTEX
  8
0
 10
3.29454400
 20
2.46004700
  0
VERTEX
  8
0
 10
3.29070500
 20
2.45951000
  0
VERTEX
  8
0
 10
3.28698900
 20
2.45895800
  0
VERTEX
  8
0
 10
3.28339500
 20
2.45839200
  0
VERTEX
  8
0
 10
3.27992500
 20
2.45781300
  0
VERTEX
  8
0
 10
3.27657700
 20
2.45722600
  0
VERTEX
  8
0
 10
3.27335100
 20
2.45663000
  0
VERTEX
  8
0
 10
3.27024800
 20
2.45603000
  0
VERTEX
  8
0
 10
3.26726700
 20
2.45542600
  0
VERTEX
  8
0
 10
3.26440900
 20
2.45482000
  0
VERTEX
  8
0
 10
3.26167200
 20
2.45421600
  0
VERTEX
  8
0
 10
3.25905700
 20
2.45361400
  0
VERTEX
  8
0
 10
3.25656300
 20
2.45301700
  0
VERTEX
  8
0
 10
3.25419000
 20
2.45242800
  0
VERTEX
  8
0
 10
3.25193800
 20
2.45184700
  0
VERTEX
  8
0
 10
3.24980600
 20
2.45127800
  0
VERTEX
  8
0
 10
3.24779400
 20
2.45072100
  0
VERTEX
  8
0
 10
3.24412900
 20
2.44965700
  0
VERTEX
  8
0
 10
3.24093900
 20
2.44866900
  0
VERTEX
  8
0
 10
3.23822000
 20
2.44777600
  0
VERTEX
  8
0
 10
3.23596700
 20
2.44699100
  0
VERTEX
  8
0
 10
3.23345200
 20
2.44605600
  0
VERTEX
  8
0
 10
3.23146400
 20
2.44524400
  0
VERTEX
  8
0
 10
3.16479400
 20
2.41527000
  0
VERTEX
  8
0
 10
3.09606000
 20
2.54956400
  0
VERTEX
  8
0
 10
3.15936500
 20
2.58611300
  0
VERTEX
  8
0
 10
3.16118600
 20
2.58725100
  0
VERTEX
  8
0
 10
3.16341600
 20
2.58874400
  0
VERTEX
  8
0
 10
3.16536900
 20
2.59011200
  0
VERTEX
  8
0
 10
3.16768500
 20
2.59179500
  0
VERTEX
  8
0
 10
3.17035100
 20
2.59380600
  0
VERTEX
  8
0
 10
3.17335800
 20
2.59615600
  0
VERTEX
  8
0
 10
3.17498600
 20
2.59746200
  0
VERTEX
  8
0
 10
3.17669500
 20
2.59885900
  0
VERTEX
  8
0
 10
3.17848300
 20
2.60034600
  0
VERTEX
  8
0
 10
3.18034900
 20
2.60192600
  0
VERTEX
  8
0
 10
3.18229200
 20
2.60360000
  0
VERTEX
  8
0
 10
3.18430900
 20
2.60536900
  0
VERTEX
  8
0
 10
3.18640000
 20
2.60723500
  0
VERTEX
  8
0
 10
3.18856300
 20
2.60920000
  0
VERTEX
  8
0
 10
3.19079600
 20
2.61126500
  0
VERTEX
  8
0
 10
3.19309800
 20
2.61343000
  0
VERTEX
  8
0
 10
3.19546700
 20
2.61569900
  0
VERTEX
  8
0
 10
3.19790200
 20
2.61807100
  0
VERTEX
  8
0
 10
3.20040100
 20
2.62054800
  0
VERTEX
  8
0
 10
3.20296200
 20
2.62313100
  0
VERTEX
  8
0
 10
3.20558300
 20
2.62582200
  0
VERTEX
  8
0
 10
3.20826400
 20
2.62862200
  0
VERTEX
  8
0
 10
3.21100200
 20
2.63153300
  0
VERTEX
  8
0
 10
3.21379400
 20
2.63455400
  0
VERTEX
  8
0
 10
3.21664100
 20
2.63768900
  0
VERTEX
  8
0
 10
3.21954000
 20
2.64093600
  0
VERTEX
  8
0
 10
3.22248900
 20
2.64429900
  0
VERTEX
  8
0
 10
3.22548600
 20
2.64777800
  0
VERTEX
  8
0
 10
3.22853000
 20
2.65137400
  0
VERTEX
  8
0
 10
3.23161900
 20
2.65508700
  0
VERTEX
  8
0
 10
3.23475100
 20
2.65892100
  0
VERTEX
  8
0
 10
3.23792300
 20
2.66287400
  0
VERTEX
  8
0
 10
3.24113500
 20
2.66694800
  0
VERTEX
  8
0
 10
3.24438400
 20
2.67114500
  0
VERTEX
  8
0
 10
3.24766900
 20
2.67546500
  0
VERTEX
  8
0
 10
3.25098700
 20
2.67990800
  0
VERTEX
  8
0
 10
3.25433700
 20
2.68447700
  0
VERTEX
  8
0
 10
3.25771700
 20
2.68917200
  0
VERTEX
  8
0
 10
3.26112400
 20
2.69399300
  0
VERTEX
  8
0
 10
3.26455700
 20
2.69894200
  0
VERTEX
  8
0
 10
3.26801400
 20
2.70401900
  0
VERTEX
  8
0
 10
3.27149300
 20
2.70922600
  0
VERTEX
  8
0
 10
3.27499100
 20
2.71456200
  0
VERTEX
  8
0
 10
3.27850700
 20
2.72002900
  0
VERTEX
  8
0
 10
3.28204000
 20
2.72562700
  0
VERTEX
  8
0
 10
3.28558600
 20
2.73135800
  0
VERTEX
  8
0
 10
3.28914300
 20
2.73722100
  0
VERTEX
  8
0
 10
3.29271100
 20
2.74321700
  0
VERTEX
  8
0
 10
3.29628600
 20
2.74934700
  0
VERTEX
  8
0
 10
3.29986600
 20
2.75561200
  0
VERTEX
  8
0
 10
3.30345000
 20
2.76201200
  0
VERTEX
  8
0
 10
3.30703500
 20
2.76854700
  0
VERTEX
  8
0
 10
3.31062000
 20
2.77521900
  0
VERTEX
  8
0
 10
3.31420200
 20
2.78202700
  0
VERTEX
  8
0
 10
3.31683300
 20
2.78713500
  0
VERTEX
  8
0
 10
3.26040300
 20
2.86892100
  0
VERTEX
  8
0
 10
3.25469400
 20
2.86827500
  0
VERTEX
  8
0
 10
3.24705800
 20
2.86734300
  0
VERTEX
  8
0
 10
3.23954800
 20
2.86636000
  0
VERTEX
  8
0
 10
3.23216600
 20
2.86532800
  0
VERTEX
  8
0
 10
3.22491100
 20
2.86424900
  0
VERTEX
  8
0
 10
3.21778300
 20
2.86312600
  0
VERTEX
  8
0
 10
3.21078300
 20
2.86196000
  0
VERTEX
  8
0
 10
3.20391100
 20
2.86075300
  0
VERTEX
  8
0
 10
3.19716700
 20
2.85950900
  0
VERTEX
  8
0
 10
3.19055100
 20
2.85822800
  0
VERTEX
  8
0
 10
3.18406300
 20
2.85691300
  0
VERTEX
  8
0
 10
3.17770400
 20
2.85556600
  0
VERTEX
  8
0
 10
3.17147300
 20
2.85419000
  0
VERTEX
  8
0
 10
3.16537100
 20
2.85278600
  0
VERTEX
  8
0
 10
3.15939800
 20
2.85135600
  0
VERTEX
  8
0
 10
3.15355200
 20
2.84990300
  0
VERTEX
  8
0
 10
3.14783500
 20
2.84842900
  0
VERTEX
  8
0
 10
3.14224700
 20
2.84693600
  0
VERTEX
  8
0
 10
3.13678600
 20
2.84542700
  0
VERTEX
  8
0
 10
3.13145400
 20
2.84390200
  0
VERTEX
  8
0
 10
3.12625000
 20
2.84236400
  0
VERTEX
  8
0
 10
3.12117300
 20
2.84081600
  0
VERTEX
  8
0
 10
3.11622400
 20
2.83926000
  0
VERTEX
  8
0
 10
3.11140200
 20
2.83769700
  0
VERTEX
  8
0
 10
3.10670700
 20
2.83613000
  0
VERTEX
  8
0
 10
3.10213800
 20
2.83456100
  0
VERTEX
  8
0
 10
3.09769600
 20
2.83299200
  0
VERTEX
  8
0
 10
3.09338000
 20
2.83142400
  0
VERTEX
  8
0
 10
3.08919000
 20
2.82986100
  0
VERTEX
  8
0
 10
3.08512400
 20
2.82830400
  0
VERTEX
  8
0
 10
3.08118400
 20
2.82675500
  0
VERTEX
  8
0
 10
3.07736700
 20
2.82521700
  0
VERTEX
  8
0
 10
3.07367500
 20
2.82369000
  0
VERTEX
  8
0
 10
3.07010600
 20
2.82217900
  0
VERTEX
  8
0
 10
3.06665900
 20
2.82068300
  0
VERTEX
  8
0
 10
3.06333500
 20
2.81920600
  0
VERTEX
  8
0
 10
3.06013200
 20
2.81774900
  0
VERTEX
  8
0
 10
3.05705000
 20
2.81631500
  0
VERTEX
  8
0
 10
3.05408900
 20
2.81490500
  0
VERTEX
  8
0
 10
3.05124700
 20
2.81352200
  0
VERTEX
  8
0
 10
3.04852400
 20
2.81216700
  0
VERTEX
  8
0
 10
3.04591900
 20
2.81084200
  0
VERTEX
  8
0
 10
3.04343200
 20
2.80955000
  0
VERTEX
  8
0
 10
3.04106200
 20
2.80829200
  0
VERTEX
  8
0
 10
3.03880800
 20
2.80707000
  0
VERTEX
  8
0
 10
3.03666800
 20
2.80588600
  0
VERTEX
  8
0
 10
3.03464300
 20
2.80474300
  0
VERTEX
  8
0
 10
3.03273100
 20
2.80364100
  0
VERTEX
  8
0
 10
3.03093200
 20
2.80258300
  0
VERTEX
  8
0
 10
3.02766800
 20
2.80060600
  0
VERTEX
  8
0
 10
3.02484200
 20
2.79882700
  0
VERTEX
  8
0
 10
3.02244600
 20
2.79725900
  0
VERTEX
  8
0
 10
3.02047300
 20
2.79591900
  0
VERTEX
  8
0
 10
3.01828600
 20
2.79436400
  0
VERTEX
  8
0
 10
3.01657600
 20
2.79306600
  0
VERTEX
  8
0
 10
2.95993500
 20
2.74685700
  0
VERTEX
  8
0
 10
2.85878600
 20
2.85878600
  0
VERTEX
  8
0
 10
2.91047400
 20
2.91047400
  0
VERTEX
  8
0
 10
2.91193800
 20
2.91204400
  0
VERTEX
  8
0
 10
2.91370600
 20
2.91406300
  0
VERTEX
  8
0
 10
2.91523900
 20
2.91589100
  0
VERTEX
  8
0
 10
2.91704000
 20
2.91811600
  0
VERTEX
  8
0
 10
2.91909500
 20
2.92074800
  0
VERTEX
  8
0
 10
2.92139100
 20
2.92379700
  0
VERTEX
  8
0
 10
2.92262500
 20
2.92548000
  0
VERTEX
  8
0
 10
2.92391500
 20
2.92727100
  0
VERTEX
  8
0
 10
2.92525700
 20
2.92917000
  0
VERTEX
  8
0
 10
2.92665000
 20
2.93117900
  0
VERTEX
  8
0
 10
2.92809300
 20
2.93329900
  0
VERTEX
  8
0
 10
2.92958400
 20
2.93553000
  0
VERTEX
  8
0
 10
2.93112100
 20
2.93787400
  0
VERTEX
  8
0
 10
2.93270200
 20
2.94033200
  0
VERTEX
  8
0
 10
2.93432500
 20
2.94290400
  0
VERTEX
  8
0
 10
2.93598800
 20
2.94559100
  0
VERTEX
  8
0
 10
2.93768900
 20
2.94839600
  0
VERTEX
  8
0
 10
2.93942700
 20
2.95131700
  0
VERTEX
  8
0
 10
2.94119900
 20
2.95435600
  0
VERTEX
  8
0
 10
2.94300400
 20
2.95751500
  0
VERTEX
  8
0
 10
2.94484000
 20
2.96079300
  0
VERTEX
  8
0
 10
2.94670400
 20
2.96419100
  0
VERTEX
  8
0
 10
2.94859600
 20
2.96771100
  0
VERTEX
  8
0
 10
2.95051100
 20
2.97135200
  0
VERTEX
  8
0
 10
2.95245000
 20
2.97511700
  0
VERTEX
  8
0
 10
2.95440900
 20
2.97900400
  0
VERTEX
  8
0
 10
2.95638700
 20
2.98301500
  0
VERTEX
  8
0
 10
2.95838200
 20
2.98715100
  0
VERTEX
  8
0
 10
2.96039200
 20
2.99141200
  0
VERTEX
  8
0
 10
2.96241400
 20
2.99579900
  0
VERTEX
  8
0
 10
2.96444700
 20
3.00031200
  0
VERTEX
  8
0
 10
2.96648800
 20
3.00495200
  0
VERTEX
  8
0
 10
2.96853600
 20
3.00971900
  0
VERTEX
  8
0
 10
2.97058900
 20
3.01461300
  0
VERTEX
  8
0
 10
2.97264300
 20
3.01963600
  0
VERTEX
  8
0
 10
2.97469800
 20
3.02478700
  0
VERTEX
  8
0
 10
2.97675100
 20
3.03006700
  0
VERTEX
  8
0
 10
2.97880100
 20
3.03547700
  0
VERTEX
  8
0
 10
2.98084400
 20
3.04101600
  0
VERTEX
  8
0
 10
2.98287900
 20
3.04668400
  0
VERTEX
  8
0
 10
2.98490400
 20
3.05248300
  0
VERTEX
  8
0
 10
2.98691700
 20
3.05841300
  0
VERTEX
  8
0
 10
2.98891500
 20
3.06447300
  0
VERTEX
  8
0
 10
2.99089700
 20
3.07066300
  0
VERTEX
  8
0
 10
2.99286000
 20
3.07698500
  0
VERTEX
  8
0
 10
2.99480200
 20
3.08343800
  0
VERTEX
  8
0
 10
2.99672100
 20
3.09002200
  0
VERTEX
  8
0
 10
2.99861400
 20
3.09673700
  0
VERTEX
  8
0
 10
3.00048100
 20
3.10358400
  0
VERTEX
  8
0
 10
3.00231800
 20
3.11056200
  0
VERTEX
  8
0
 10
3.00412300
 20
3.11767100
  0
VERTEX
  8
0
 10
3.00589500
 20
3.12491200
  0
VERTEX
  8
0
 10
3.00763100
 20
3.13228400
  0
VERTEX
  8
0
 10
3.00932900
 20
3.13978700
  0
VERTEX
  8
0
 10
3.01054800
 20
3.14540200
  0
VERTEX
  8
0
 10
2.93487300
 20
3.20979700
  0
VERTEX
  8
0
 10
2.92952600
 20
3.20769500
  0
VERTEX
  8
0
 10
2.92239100
 20
3.20481800
  0
VERTEX
  8
0
 10
2.91539200
 20
3.20192500
  0
VERTEX
  8
0
 10
2.90852800
 20
3.19901800
  0
VERTEX
  8
0
 10
2.90179900
 20
3.19609800
  0
VERTEX
  8
0
 10
2.89520500
 20
3.19316800
  0
VERTEX
  8
0
 10
2.88874500
 20
3.19023000
  0
VERTEX
  8
0
 10
2.88241900
 20
3.18728600
  0
VERTEX
  8
0
 10
2.87622700
 20
3.18433800
  0
VERTEX
  8
0
 10
2.87016800
 20
3.18138800
  0
VERTEX
  8
0
 10
2.86424200
 20
3.17843900
  0
VERTEX
  8
0
 10
2.85844800
 20
3.17549200
  0
VERTEX
  8
0
 10
2.85278600
 20
3.17255000
  0
VERTEX
  8
0
 10
2.84725500
 20
3.16961500
  0
VERTEX
  8
0
 10
2.84185500
 20
3.16668800
  0
VERTEX
  8
0
 10
2.83658500
 20
3.16377200
  0
VERTEX
  8
0
 10
2.83144500
 20
3.16086800
  0
VERTEX
  8
0
 10
2.82643300
 20
3.15798000
  0
VERTEX
  8
0
 10
2.82154900
 20
3.15510800
  0
VERTEX
  8
0
 10
2.81679300
 20
3.15225500
  0
VERTEX
  8
0
 10
2.81216400
 20
3.14942300
  0
VERTEX
  8
0
 10
2.80766100
 20
3.14661400
  0
VERTEX
  8
0
 10
2.80328300
 20
3.14383000
  0
VERTEX
  8
0
 10
2.79903000
 20
3.14107200
  0
VERTEX
  8
0
 10
2.79490100
 20
3.13834300
  0
VERTEX
  8
0
 10
2.79089400
 20
3.13564500
  0
VERTEX
  8
0
 10
2.78701000
 20
3.13298000
  0
VERTEX
  8
0
 10
2.78324600
 20
3.13034800
  0
VERTEX
  8
0
 10
2.77960300
 20
3.12775400
  0
VERTEX
  8
0
 10
2.77607900
 20
3.12519800
  0
VERTEX
  8
0
 10
2.77267400
 20
3.12268200
  0
VERTEX
  8
0
 10
2.76938600
 20
3.12020800
  0
VERTEX
  8
0
 10
2.76621400
 20
3.11777800
  0
VERTEX
  8
0
 10
2.76315800
 20
3.11539400
  0
VERTEX
  8
0
 10
2.76021600
 20
3.11305700
  0
VERTEX
  8
0
 10
2.75738700
 20
3.11077000
  0
VERTEX
  8
0
 10
2.75467000
 20
3.10853400
  0
VERTEX
  8
0
 10
2.75206500
 20
3.10635100
  0
VERTEX
  8
0
 10
2.74956900
 20
3.10422300
  0
VERTEX
  8
0
 10
2.74718200
 20
3.10215100
  0
VERTEX
  8
0
 10
2.74490300
 20
3.10013800
  0
VERTEX
  8
0
 10
2.74273000
 20
3.09818400
  0
VERTEX
  8
0
 10
2.74066200
 20
3.09629200
  0
VERTEX
  8
0
 10
2.73869800
 20
3.09446300
  0
VERTEX
  8
0
 10
2.73683600
 20
3.09270000
  0
VERTEX
  8
0
 10
2.73507600
 20
3.09100300
  0
VERTEX
  8
0
 10
2.73341600
 20
3.08937400
  0
VERTEX
  8
0
 10
2.73185500
 20
3.08781500
  0
VERTEX
  8
0
 10
2.73039100
 20
3.08632700
  0
VERTEX
  8
0
 10
2.72774900
 20
3.08357300
  0
VERTEX
  8
0
 10
2.72548000
 20
3.08112200
  0
VERTEX
  8
0
 10
2.72357200
 20
3.07898900
  0
VERTEX
  8
0
 10
2.72201300
 20
3.07718300
  0
VERTEX
  8
0
 10
2.72030300
 20
3.07511500
  0
VERTEX
  8
0
 10
2.71898700
 20
3.07341900
  0
VERTEX
  8
0
 10
2.67623600
 20
3.01412500
  0
VERTEX
  8
0
 10
2.54956400
 20
3.09606000
  0
VERTEX
  8
0
 10
2.58611300
 20
3.15936500
  0
VERTEX
  8
0
 10
2.58712100
 20
3.16126100
  0
VERTEX
  8
0
 10
2.58830600
 20
3.16366900
  0
VERTEX
  8
0
 10
2.58931300
 20
3.16583100
  0
VERTEX
  8
0
 10
2.59047700
 20
3.16844600
  0
VERTEX
  8
0
 10
2.59178100
 20
3.17152000
  0
VERTEX
  8
0
 10
2.59321000
 20
3.17505900
  0
VERTEX
  8
0
 10
2.59396700
 20
3.17700500
  0
VERTEX
  8
0
 10
2.59474800
 20
3.17906800
  0
VERTEX
  8
0
 10
2.59555300
 20
3.18125000
  0
VERTEX
  8
0
 10
2.59637900
 20
3.18355100
  0
VERTEX
  8
0
 10
2.59722500
 20
3.18597200
  0
VERTEX
  8
0
 10
2.59808700
 20
3.18851300
  0
VERTEX
  8
0
 10
2.59896500
 20
3.19117500
  0
VERTEX
  8
0
 10
2.59985600
 20
3.19395800
  0
VERTEX
  8
0
 10
2.60075700
 20
3.19686300
  0
VERTEX
  8
0
 10
2.60166800
 20
3.19988900
  0
VERTEX
  8
0
 10
2.60258600
 20
3.20303800
  0
VERTEX
  8
0
 10
2.60350800
 20
3.20631000
  0
VERTEX
  8
0
 10
2.60443400
 20
3.20970400
  0
VERTEX
  8
0
 10
2.60536000
 20
3.21322200
  0
VERTEX
  8
0
 10
2.60628500
 20
3.21686400
  0
VERTEX
  8
0
 10
2.60720600
 20
3.22062900
  0
VERTEX
  8
0
 10
2.60812200
 20
3.22451800
  0
VERTEX
  8
0
 10
2.60903000
 20
3.22853100
  0
VERTEX
  8
0
 10
2.60992800
 20
3.23266900
  0
VERTEX
  8
0
 10
2.61081400
 20
3.23693100
  0
VERTEX
  8
0
 10
2.61168700
 20
3.24131800
  0
VERTEX
  8
0
 10
2.61254300
 20
3.24582900
  0
VERTEX
  8
0
 10
2.61338100
 20
3.25046500
  0
VERTEX
  8
0
 10
2.61419900
 20
3.25522600
  0
VERTEX
  8
0
 10
2.61499500
 20
3.26011100
  0
VERTEX
  8
0
 10
2.61576600
 20
3.26512100
  0
VERTEX
  8
0
 10
2.61651000
 20
3.27025500
  0
VERTEX
  8
0
 10
2.61722600
 20
3.27551500
  0
VERTEX
  8
0
 10
2.61791100
 20
3.28089800
  0
VERTEX
  8
0
 10
2.61856200
 20
3.28640500
  0
VERTEX
  8
0
 10
2.61917900
 20
3.29203700
  0
VERTEX
  8
0
 10
2.61975900
 20
3.29779300
  0
VERTEX
  8
0
 10
2.62029900
 20
3.30367200
  0
VERTEX
  8
0
 10
2.62079700
 20
3.30967400
  0
VERTEX
  8
0
 10
2.62125300
 20
3.31580000
  0
VERTEX
  8
0
 10
2.62166200
 20
3.32204800
  0
VERTEX
  8
0
 10
2.62202400
 20
3.32841800
  0
VERTEX
  8
0
 10
2.62233500
 20
3.33491100
  0
VERTEX
  8
0
 10
2.62259500
 20
3.34152500
  0
VERTEX
  8
0
 10
2.62280100
 20
3.34826100
  0
VERTEX
  8
0
 10
2.62295000
 20
3.35511700
  0
VERTEX
  8
0
 10
2.62304200
 20
3.36209400
  0
VERTEX
  8
0
 10
2.62307300
 20
3.36919000
  0
VERTEX
  8
0
 10
2.62304100
 20
3.37640600
  0
VERTEX
  8
0
 10
2.62294500
 20
3.38374000
  0
VERTEX
  8
0
 10
2.62278200
 20
3.39119300
  0
VERTEX
  8
0
 10
2.62255100
 20
3.39876300
  0
VERTEX
  8
0
 10
2.62224900
 20
3.40645000
  0
VERTEX
  8
0
 10
2.62197300
 20
3.41218900
  0
VERTEX
  8
0
 10
2.53221000
 20
3.45480300
  0
VERTEX
  8
0
 10
2.52758900
 20
3.45138900
  0
VERTEX
  8
0
 10
2.52144200
 20
3.44676400
  0
VERTEX
  8
0
 10
2.51543000
 20
3.44215800
  0
VERTEX
  8
0
 10
2.50955300
 20
3.43757300
  0
VERTEX
  8
0
 10
2.50380900
 20
3.43301100
  0
VERTEX
  8
0
 10
2.49819800
 20
3.42847400
  0
VERTEX
  8
0
 10
2.49271800
 20
3.42396400
  0
VERTEX
  8
0
 10
2.48737000
 20
3.41948300
  0
VERTEX
  8
0
 10
2.48215200
 20
3.41503300
  0
VERTEX
  8
0
 10
2.47706300
 20
3.41061600
  0
VERTEX
  8
0
 10
2.47210200
 20
3.40623400
  0
VERTEX
  8
0
 10
2.46726800
 20
3.40188800
  0
VERTEX
  8
0
 10
2.46256100
 20
3.39758100
  0
VERTEX
  8
0
 10
2.45797800
 20
3.39331300
  0
VERTEX
  8
0
 10
2.45351900
 20
3.38908900
  0
VERTEX
  8
0
 10
2.44918400
 20
3.38490800
  0
VERTEX
  8
0
 10
2.44497000
 20
3.38077300
  0
VERTEX
  8
0
 10
2.44087600
 20
3.37668600
  0
VERTEX
  8
0
 10
2.43690200
 20
3.37264800
  0
VERTEX
  8
0
 10
2.43304700
 20
3.36866100
  0
VERTEX
  8
0
 10
2.42930800
 20
3.36472800
  0
VERTEX
  8
0
 10
2.42568600
 20
3.36084900
  0
VERTEX
  8
0
 10
2.42217800
 20
3.35702600
  0
VERTEX
  8
0
 10
2.41878300
 20
3.35326200
  0
VERTEX
  8
0
 10
2.41550100
 20
3.34955700
  0
VERTEX
  8
0
 10
2.41232900
 20
3.34591400
  0
VERTEX
  8
0
 10
2.40926700
 20
3.34233400
  0
VERTEX
  8
0
 10
2.40631300
 20
3.33881800
  0
VERTEX
  8
0
 10
2.40346500
 20
3.33536900
  0
VERTEX
  8
0
 10
2.40072300
 20
3.33198800
  0
VERTEX
  8
0
 10
2.39808500
 20
3.32867700
  0
VERTEX
  8
0
 10
2.39554900
 20
3.32543600
  0
VERTEX
  8
0
 10
2.39311400
 20
3.32226800
  0
VERTEX
  8
0
 10
2.39077900
 20
3.31917400
  0
VERTEX
  8
0
 10
2.38854200
 20
3.31615600
  0
VERTEX
  8
0
 10
2.38640200
 20
3.31321400
  0
VERTEX
  8
0
 10
2.38435600
 20
3.31035200
  0
VERTEX
  8
0
 10
2.38240500
 20
3.30756800
  0
VERTEX
  8
0
 10
2.38054500
 20
3.30486700
  0
VERTEX
  8
0
 10
2.37877500
 20
3.30224800
  0
VERTEX
  8
0
 10
2.37709500
 20
3.29971300
  0
VERTEX
  8
0
 10
2.37550100
 20
3.29726400
  0
VERTEX
  8
0
 10
2.37399400
 20
3.29490100
  0
VERTEX
  8
0
 10
2.37257000
 20
3.29262600
  0
VERTEX
  8
0
 10
2.37122800
 20
3.29044100
  0
VERTEX
  8
0
 10
2.36996800
 20
3.28834600
  0
VERTEX
  8
0
 10
2.36878600
 20
3.28634300
  0
VERTEX
  8
0
 10
2.36768100
 20
3.28443300
  0
VERTEX
  8
0
 10
2.36665200
 20
3.28261700
  0
VERTEX
  8
0
 10
2.36481300
 20
3.27927300
  0
VERTEX
  8
0
 10
2.36325500
 20
3.27631900
  0
VERTEX
  8
0
 10
2.36196400
 20
3.27376400
  0
VERTEX
  8
0
 10
2.36092600
 20
3.27161600
  0
VERTEX
  8
0
 10
2.35980900
 20
3.26917600
  0
VERTEX
  8
0
 10
2.35897800
 20
3.26719700
  0
VERTEX
  8
0
 10
2.33303000
 20
3.19885900
  0
VERTEX
  8
0
 10
2.18946700
 20
3.24521700
  0
VERTEX
  8
0
 10
2.20838700
 20
3.31582500
  0
VERTEX
  8
0
 10
2.20886900
 20
3.31791700
  0
VERTEX
  8
0
 10
2.20939100
 20
3.32054900
  0
VERTEX
  8
0
 10
2.20980400
 20
3.32289800
  0
VERTEX
  8
0
 10
2.21025100
 20
3.32572600
  0
VERTEX
  8
0
 10
2.21071500
 20
3.32903300
  0
VERTEX
  8
0
 10
2.21118000
 20
3.33282100
  0
VERTEX
  8
0
 10
2.21140700
 20
3.33489600
  0
VERTEX
  8
0
 10
2.21162800
 20
3.33709100
  0
VERTEX
  8
0
 10
2.21184100
 20
3.33940700
  0
VERTEX
  8
0
 10
2.21204300
 20
3.34184400
  0
VERTEX
  8
0
 10
2.21223300
 20
3.34440100
  0
VERTEX
  8
0
 10
2.21240800
 20
3.34707900
  0
VERTEX
  8
0
 10
2.21256700
 20
3.34987700
  0
VERTEX
  8
0
 10
2.21270700
 20
3.35279600
  0
VERTEX
  8
0
 10
2.21282700
 20
3.35583500
  0
VERTEX
  8
0
 10
2.21292300
 20
3.35899400
  0
VERTEX
  8
0
 10
2.21299500
 20
3.36227300
  0
VERTEX
  8
0
 10
2.21303900
 20
3.36567200
  0
VERTEX
  8
0
 10
2.21305400
 20
3.36919000
  0
VERTEX
  8
0
 10
2.21303800
 20
3.37282800
  0
VERTEX
  8
0
 10
2.21298900
 20
3.37658500
  0
VERTEX
  8
0
 10
2.21290400
 20
3.38046000
  0
VERTEX
  8
0
 10
2.21278200
 20
3.38445400
  0
VERTEX
  8
0
 10
2.21262100
 20
3.38856500
  0
VERTEX
  8
0
 10
2.21241700
 20
3.39279400
  0
VERTEX
  8
0
 10
2.21217100
 20
3.39714100
  0
VERTEX
  8
0
 10
2.21187800
 20
3.40160400
  0
VERTEX
  8
0
 10
2.21153800
 20
3.40618300
  0
VERTEX
  8
0
 10
2.21114700
 20
3.41087800
  0
VERTEX
  8
0
 10
2.21070500
 20
3.41568800
  0
VERTEX
  8
0
 10
2.21020900
 20
3.42061300
  0
VERTEX
  8
0
 10
2.20965700
 20
3.42565200
  0
VERTEX
  8
0
 10
2.20904700
 20
3.43080400
  0
VERTEX
  8
0
 10
2.20837800
 20
3.43606900
  0
VERTEX
  8
0
 10
2.20764600
 20
3.44144600
  0
VERTEX
  8
0
 10
2.20685000
 20
3.44693500
  0
VERTEX
  8
0
 10
2.20598800
 20
3.45253400
  0
VERTEX
  8
0
 10
2.20505800
 20
3.45824300
  0
VERTEX
  8
0
 10
2.20405800
 20
3.46406200
  0
VERTEX
  8
0
 10
2.20298600
 20
3.46998900
  0
VERTEX
  8
0
 10
2.20184000
 20
3.47602300
  0
VERTEX
  8
0
 10
2.20061900
 20
3.48216500
  0
VERTEX
  8
0
 10
2.19931900
 20
3.48841200
  0
VERTEX
  8
0
 10
2.19794000
 20
3.49476400
  0
VERTEX
  8
0
 10
2.19647900
 20
3.50122000
  0
VERTEX
  8
0
 10
2.19493400
 20
3.50777900
  0
VERTEX
  8
0
 10
2.19330400
 20
3.51444100
  0
VERTEX
  8
0
 10
2.19158700
 20
3.52120300
  0
VERTEX
  8
0
 10
2.18978000
 20
3.52806600
  0
VERTEX
  8
0
 10
2.18788200
 20
3.53502800
  0
VERTEX
  8
0
 10
2.18589100
 20
3.54208700
  0
VERTEX
  8
0
 10
2.18380500
 20
3.54924400
  0
VERTEX
  8
0
 10
2.18162200
 20
3.55649600
  0
VERTEX
  8
0
 10
2.17934100
 20
3.56384300
  0
VERTEX
  8
0
 10
2.17758900
 20
3.56931500
  0
VERTEX
  8
0
 10
2.07985500
 20
3.58724500
  0
VERTEX
  8
0
 10
2.07627500
 20
3.58275100
  0
VERTEX
  8
0
 10
2.07153500
 20
3.57669300
  0
VERTEX
  8
0
 10
2.06692000
 20
3.57068800
  0
VERTEX
  8
0
 10
2.06242900
 20
3.56473700
  0
VERTEX
  8
0
 10
2.05806200
 20
3.55884400
  0
VERTEX
  8
0
 10
2.05381600
 20
3.55301000
  0
VERTEX
  8
0
 10
2.04969100
 20
3.54723600
  0
VERTEX
  8
0
 10
2.04568500
 20
3.54152300
  0
VERTEX
  8
0
 10
2.04179600
 20
3.53587400
  0
VERTEX
  8
0
 10
2.03802400
 20
3.53029000
  0
VERTEX
  8
0
 10
2.03436600
 20
3.52477300
  0
VERTEX
  8
0
 10
2.03082200
 20
3.51932400
  0
VERTEX
  8
0
 10
2.02738900
 20
3.51394500
  0
VERTEX
  8
0
 10
2.02406700
 20
3.50863800
  0
VERTEX
  8
0
 10
2.02085400
 20
3.50340300
  0
VERTEX
  8
0
 10
2.01774800
 20
3.49824200
  0
VERTEX
  8
0
 10
2.01474800
 20
3.49315800
  0
VERTEX
  8
0
 10
2.01185200
 20
3.48815000
  0
VERTEX
  8
0
 10
2.00905900
 20
3.48322100
  0
VERTEX
  8
0
 10
2.00636600
 20
3.47837300
  0
VERTEX
  8
0
 10
2.00377300
 20
3.47360600
  0
VERTEX
  8
0
 10
2.00127800
 20
3.46892100
  0
VERTEX
  8
0
 10
1.99887900
 20
3.46432100
  0
VERTEX
  8
0
 10
1.99657400
 20
3.45980600
  0
VERTEX
  8
0
 10
1.99436200
 20
3.45537800
  0
VERTEX
  8
0
 10
1.99224200
 20
3.45103800
  0
VERTEX
  8
0
 10
1.99021000
 20
3.44678800
  0
VERTEX
  8
0
 10
1.98826700
 20
3.44262700
  0
VERTEX
  8
0
 10
1.98640900
 20
3.43855900
  0
VERTEX
  8
0
 10
1.98463500
 20
3.43458300
  0
VERTEX
  8
0
 10
1.98294400
 20
3.43070200
  0
VERTEX
  8
0
 10
1.98133300
 20
3.42691500
  0
VERTEX
  8
0
 10
1.97980200
 20
3.42322500
  0
VERTEX
  8
0
 10
1.97834700
 20
3.41963200
  0
VERTEX
  8
0
 10
1.97696700
 20
3.41613800
  0
VERTEX
  8
0
 10
1.97566100
 20
3.41274300
  0
VERTEX
  8
0
 10
1.97442600
 20
3.40944800
  0
VERTEX
  8
0
 10
1.97326100
 20
3.40625400
  0
VERTEX
  8
0
 10
1.97216400
 20
3.40316400
  0
VERTEX
  8
0
 10
1.97113300
 20
3.40017600
  0
VERTEX
  8
0
 10
1.97016600
 20
3.39729200
  0
VERTEX
  8
0
 10
1.96926100
 20
3.39451400
  0
VERTEX
  8
0
 10
1.96841600
 20
3.39184200
  0
VERTEX
  8
0
 10
1.96762900
 20
3.38927600
  0
VERTEX
  8
0
 10
1.96689900
 20
3.38681800
  0
VERTEX
  8
0
 10
1.96622300
 20
3.38446800
  0
VERTEX
  8
0
 10
1.96560000
 20
3.38222700
  0
VERTEX
  8
0
 10
1.96502700
 20
3.38009600
  0
VERTEX
  8
0
 10
1.96450300
 20
3.37807600
  0
VERTEX
  8
0
 10
1.96359300
 20
3.37437000
  0
VERTEX
  8
0
 10
1.96285300
 20
3.37111300
  0
VERTEX
  8
0
 10
1.96226700
 20
3.36831100
  0
VERTEX
  8
0
 10
1.96182000
 20
3.36596800
  0
VERTEX
  8
0
 10
1.96137300
 20
3.36332200
  0
VERTEX
  8
0
 10
1.96108200
 20
3.36119500
  0
VERTEX
  8
0
 10
1.95370500
 20
3.28847000
  0
VERTEX
  8
0
 10
1.80303600
 20
3.29609200
  0
VERTEX
  8
0
 10
1.80303600
 20
3.36919000
  0
VERTEX
  8
0
 10
1.80296100
 20
3.37133600
  0
VERTEX
  8
0
 10
1.80278300
 20
3.37401300
  0
VERTEX
  8
0
 10
1.80257500
 20
3.37639000
  0
VERTEX
  8
0
 10
1.80227500
 20
3.37923600
  0
VERTEX
  8
0
 10
1.80186700
 20
3.38255100
  0
VERTEX
  8
0
 10
1.80133500
 20
3.38633000
  0
VERTEX
  8
0
 10
1.80101800
 20
3.38839300
  0
VERTEX
  8
0
 10
1.80066300
 20
3.39057100
  0
VERTEX
  8
0
 10
1.80026900
 20
3.39286300
  0
VERTEX
  8
0
 10
1.79983400
 20
3.39526900
  0
VERTEX
  8
0
 10
1.79935500
 20
3.39778800
  0
VERTEX
  8
0
 10
1.79883200
 20
3.40042000
  0
VERTEX
  8
0
 10
1.79826100
 20
3.40316400
  0
VERTEX
  8
0
 10
1.79764100
 20
3.40602000
  0
VERTEX
  8
0
 10
1.79697000
 20
3.40898600
  0
VERTEX
  8
0
 10
1.79624500
 20
3.41206300
  0
VERTEX
  8
0
 10
1.79546500
 20
3.41524800
  0
VERTEX
  8
0
 10
1.79462900
 20
3.41854300
  0
VERTEX
  8
0
 10
1.79373300
 20
3.42194500
  0
VERTEX
  8
0
 10
1.79277600
 20
3.42545500
  0
VERTEX
  8
0
 10
1.79175600
 20
3.42907100
  0
VERTEX
  8
0
 10
1.79067100
 20
3.43279200
  0
VERTEX
  8
0
 10
1.78952000
 20
3.43661800
  0
VERTEX
  8
0
 10
1.78829900
 20
3.44054800
  0
VERTEX
  8
0
 10
1.78700800
 20
3.44458000
  0
VERTEX
  8
0
 10
1.78564500
 20
3.44871500
  0
VERTEX
  8
0
 10
1.78420700
 20
3.45295000
  0
VERTEX
  8
0
 10
1.78269300
 20
3.45728500
  0
VERTEX
  8
0
 10
1.78110100
 20
3.46171900
  0
VERTEX
  8
0
 10
1.77942900
 20
3.46625100
  0
VERTEX
  8
0
 10
1.77767500
 20
3.47087900
  0
VERTEX
  8
0
 10
1.77583800
 20
3.47560400
  0
VERTEX
  8
0
 10
1.77391600
 20
3.48042300
  0
VERTEX
  8
0
 10
1.77190600
 20
3.48533500
  0
VERTEX
  8
0
 10
1.76980700
 20
3.49033900
  0
VERTEX
  8
0
 10
1.76761800
 20
3.49543500
  0
VERTEX
  8
0
 10
1.76533600
 20
3.50062000
  0
VERTEX
  8
0
 10
1.76296000
 20
3.50589400
  0
VERTEX
  8
0
 10
1.76048800
 20
3.51125600
  0
VERTEX
  8
0
 10
1.75791900
 20
3.51670400
  0
VERTEX
  8
0
 10
1.75525100
 20
3.52223600
  0
VERTEX
  8
0
 10
1.75248100
 20
3.52785200
  0
VERTEX
  8
0
 10
1.74960900
 20
3.53355000
  0
VERTEX
  8
0
 10
1.74663300
 20
3.53932800
  0
VERTEX
  8
0
 10
1.74355000
 20
3.54518600
  0
VERTEX
  8
0
 10
1.74036100
 20
3.55112200
  0
VERTEX
  8
0
 10
1.73706200
 20
3.55713500
  0
VERTEX
  8
0
 10
1.73365300
 20
3.56322300
  0
VERTEX
  8
0
 10
1.73013100
 20
3.56938400
  0
VERTEX
  8
0
 10
1.72649600
 20
3.57561700
  0
VERTEX
  8
0
 10
1.72274600
 20
3.58192100
  0
VERTEX
  8
0
 10
1.71887800
 20
3.58829300
  0
VERTEX
  8
0
 10
1.71489300
 20
3.59473400
  0
VERTEX
  8
0
 10
1.71078800
 20
3.60124000
  0
VERTEX
  8
0
 10
1.70768000
 20
3.60607200
  0
VERTEX
  8
0
 10
1.60863600
 20
3.59809600
  0
VERTEX
  8
0
 10
1.60634100
 20
3.59282800
  0
VERTEX
  8
0
 10
1.60333000
 20
3.58574900
  0
VERTEX
  8
0
 10
1.60042600
 20
3.57875400
  0
VERTEX
  8
0
 10
1.59762900
 20
3.57184500
  0
VERTEX
  8
0
 10
1.59493500
 20
3.56502200
  0
VERTEX
  8
0
 10
1.59234500
 20
3.55828800
  0
VERTEX
  8
0
 10
1.58985400
 20
3.55164200
  0
VERTEX
  8
0
 10
1.58746300
 20
3.54508800
  0
VERTEX
  8
0
 10
1.58516900
 20
3.53862500
  0
VERTEX
  8
0
 10
1.58297000
 20
3.53225500
  0
VERTEX
  8
0
 10
1.58086500
 20
3.52597900
  0
VERTEX
  8
0
 10
1.57885200
 20
3.51979900
  0
VERTEX
  8
0
 10
1.57692900
 20
3.51371400
  0
VERTEX
  8
0
 10
1.57509400
 20
3.50772800
  0
VERTEX
  8
0
 10
1.57334500
 20
3.50184000
  0
VERTEX
  8
0
 10
1.57168000
 20
3.49605100
  0
VERTEX
  8
0
 10
1.57009800
 20
3.49036300
  0
VERTEX
  8
0
 10
1.56859700
 20
3.48477700
  0
VERTEX
  8
0
 10
1.56717500
 20
3.47929300
  0
VERTEX
  8
0
 10
1.56582900
 20
3.47391300
  0
VERTEX
  8
0
 10
1.56455800
 20
3.46863700
  0
VERTEX
  8
0
 10
1.56336000
 20
3.46346600
  0
VERTEX
  8
0
 10
1.56223400
 20
3.45840200
  0
VERTEX
  8
0
 10
1.56117600
 20
3.45344500
  0
VERTEX
  8
0
 10
1.56018600
 20
3.44859500
  0
VERTEX
  8
0
 10
1.55926000
 20
3.44385400
  0
VERTEX
  8
0
 10
1.55839800
 20
3.43922200
  0
VERTEX
  8
0
 10
1.55759800
 20
3.43470100
  0
VERTEX
  8
0
 10
1.55685600
 20
3.43029000
  0
VERTEX
  8
0
 10
1.55617200
 20
3.42599100
  0
VERTEX
  8
0
 10
1.55554300
 20
3.42180400
  0
VERTEX
  8
0
 10
1.55496700
 20
3.41773000
  0
VERTEX
  8
0
 10
1.55444300
 20
3.41376900
  0
VERTEX
  8
0
 10
1.55396700
 20
3.40992200
  0
VERTEX
  8
0
 10
1.55353900
 20
3.40618900
  0
VERTEX
  8
0
 10
1.55315600
 20
3.40257200
  0
VERTEX
  8
0
 10
1.55281600
 20
3.39907000
  0
VERTEX
  8
0
 10
1.55251800
 20
3.39568400
  0
VERTEX
  8
0
 10
1.55225800
 20
3.39241400
  0
VERTEX
  8
0
 10
1.55203500
 20
3.38926100
  0
VERTEX
  8
0
 10
1.55184700
 20
3.38622600
  0
VERTEX
  8
0
 10
1.55169200
 20
3.38330800
  0
VERTEX
  8
0
 10
1.55156700
 20
3.38050800
  0
VERTEX
  8
0
 10
1.55147200
 20
3.37782600
  0
VERTEX
  8
0
 10
1.55140300
 20
3.37526300
  0
VERTEX
  8
0
 10
1.55135800
 20
3.37281800
  0
VERTEX
  8
0
 10
1.55133600
 20
3.37049200
  0
VERTEX
  8
0
 10
1.55133400
 20
3.36828600
  0
VERTEX
  8
0
 10
1.55135100
 20
3.36619900
  0
VERTEX
  8
0
 10
1.55143100
 20
3.36238300
  0
VERTEX
  8
0
 10
1.55155900
 20
3.35904600
  0
VERTEX
  8
0
 10
1.55171800
 20
3.35618800
  0
VERTEX
  8
0
 10
1.55189300
 20
3.35380900
  0
VERTEX
  8
0
 10
1.55214600
 20
3.35113700
  0
VERTEX
  8
0
 10
1.55241500
 20
3.34900800
  0
VERTEX
  8
0
 10
1.56411200
 20
3.27685100
  0
VERTEX
  8
0
 10
1.41660500
 20
3.24521700
  0
VERTEX
  8
0
 10
1.39768500
 20
3.31582500
  0
VERTEX
  8
0
 10
1.39705800
 20
3.31787800
  0
VERTEX
  8
0
 10
1.39619300
 20
3.32041800
  0
VERTEX
  8
0
 10
1.39537600
 20
3.32265900
  0
VERTEX
  8
0
 10
1.39435000
 20
3.32533100
  0
VERTEX
  8
0
 10
1.39309800
 20
3.32842800
  0
VERTEX
  8
0
 10
1.39160700
 20
3.33194000
  0
VERTEX
  8
0
 10
1.39076600
 20
3.33385100
  0
VERTEX
  8
0
 10
1.38985900
 20
3.33586300
  0
VERTEX
  8
0
 10
1.38888600
 20
3.33797500
  0
VERTEX
  8
0
 10
1.38784300
 20
3.34018600
  0
VERTEX
  8
0
 10
1.38672900
 20
3.34249600
  0
VERTEX
  8
0
 10
1.38554200
 20
3.34490200
  0
VERTEX
  8
0
 10
1.38428000
 20
3.34740500
  0
VERTEX
  8
0
 10
1.38294200
 20
3.35000300
  0
VERTEX
  8
0
 10
1.38152600
 20
3.35269500
  0
VERTEX
  8
0
 10
1.38003000
 20
3.35547900
  0
VERTEX
  8
0
 10
1.37845200
 20
3.35835400
  0
VERTEX
  8
0
 10
1.37679100
 20
3.36132000
  0
VERTEX
  8
0
 10
1.37504500
 20
3.36437500
  0
VERTEX
  8
0
 10
1.37321200
 20
3.36751700
  0
VERTEX
  8
0
 10
1.37129100
 20
3.37074600
  0
VERTEX
  8
0
 10
1.36928000
 20
3.37405900
  0
VERTEX
  8
0
 10
1.36717800
 20
3.37745700
  0
VERTEX
  8
0
 10
1.36498200
 20
3.38093700
  0
VERTEX
  8
0
 10
1.36269100
 20
3.38449800
  0
VERTEX
  8
0
 10
1.36030500
 20
3.38813800
  0
VERTEX
  8
0
 10
1.35782000
 20
3.39185700
  0
VERTEX
  8
0
 10
1.35523500
 20
3.39565300
  0
VERTEX
  8
0
 10
1.35255000
 20
3.39952400
  0
VERTEX
  8
0
 10
1.34976200
 20
3.40346800
  0
VERTEX
  8
0
 10
1.34687000
 20
3.40748500
  0
VERTEX
  8
0
 10
1.34387300
 20
3.41157300
  0
VERTEX
  8
0
 10
1.34076800
 20
3.41573000
  0
VERTEX
  8
0
 10
1.33755600
 20
3.41995500
  0
VERTEX
  8
0
 10
1.33423300
 20
3.42424600
  0
VERTEX
  8
0
 10
1.33080000
 20
3.42860100
  0
VERTEX
  8
0
 10
1.32725400
 20
3.43301900
  0
VERTEX
  8
0
 10
1.32359400
 20
3.43749900
  0
VERTEX
  8
0
 10
1.31981800
 20
3.44203800
  0
VERTEX
  8
0
 10
1.31592700
 20
3.44663500
  0
VERTEX
  8
0
 10
1.31191700
 20
3.45128800
  0
VERTEX
  8
0
 10
1.30778800
 20
3.45599500
  0
VERTEX
  8
0
 10
1.30353900
 20
3.46075600
  0
VERTEX
  8
0
 10
1.29916900
 20
3.46556700
  0
VERTEX
  8
0
 10
1.29467600
 20
3.47042800
  0
VERTEX
  8
0
 10
1.29005800
 20
3.47533600
  0
VERTEX
  8
0
 10
1.28531600
 20
3.48029000
  0
VERTEX
  8
0
 10
1.28044700
 20
3.48528800
  0
VERTEX
  8
0
 10
1.27545100
 20
3.49032800
  0
VERTEX
  8
0
 10
1.27032600
 20
3.49540800
  0
VERTEX
  8
0
 10
1.26507200
 20
3.50052600
  0
VERTEX
  8
0
 10
1.25968700
 20
3.50568100
  0
VERTEX
  8
0
 10
1.25417100
 20
3.51087000
  0
VERTEX
  8
0
 10
1.24852200
 20
3.51609200
  0
VERTEX
  8
0
 10
1.24426900
 20
3.51995500
  0
VERTEX
  8
0
 10
1.15066400
 20
3.48661600
  0
VERTEX
  8
0
 10
1.14981100
 20
3.48093400
  0
VERTEX
  8
0
 10
1.14873400
 20
3.47331700
  0
VERTEX
  8
0
 10
1.14774000
 20
3.46580900
  0
VERTEX
  8
0
 10
1.14682600
 20
3.45841100
  0
VERTEX
  8
0
 10
1.14599100
 20
3.45112400
  0
VERTEX
  8
0
 10
1.14523100
 20
3.44394800
  0
VERTEX
  8
0
 10
1.14454600
 20
3.43688500
  0
VERTEX
  8
0
 10
1.14393200
 20
3.42993400
  0
VERTEX
  8
0
 10
1.14338900
 20
3.42309800
  0
VERTEX
  8
0
 10
1.14291400
 20
3.41637600
  0
VERTEX
  8
0
 10
1.14250500
 20
3.40976900
  0
VERTEX
  8
0
 10
1.14216000
 20
3.40327800
  0
VERTEX
  8
0
 10
1.14187700
 20
3.39690400
  0
VERTEX
  8
0
 10
1.14165400
 20
3.39064600
  0
VERTEX
  8
0
 10
1.14148900
 20
3.38450600
  0
VERTEX
  8
0
 10
1.14137900
 20
3.37848400
  0
VERTEX
  8
0
 10
1.14132300
 20
3.37258000
  0
VERTEX
  8
0
 10
1.14131900
 20
3.36679600
  0
VERTEX
  8
0
 10
1.14136400
 20
3.36113100
  0
VERTEX
  8
0
 10
1.14145700
 20
3.35558500
  0
VERTEX
  8
0
 10
1.14159500
 20
3.35016000
  0
VERTEX
  8
0
 10
1.14177600
 20
3.34485600
  0
VERTEX
  8
0
 10
1.14199800
 20
3.33967200
  0
VERTEX
  8
0
 10
1.14226000
 20
3.33461000
  0
VERTEX
  8
0
 10
1.14255800
 20
3.32967000
  0
VERTEX
  8
0
 10
1.14289200
 20
3.32485100
  0
VERTEX
  8
0
 10
1.14325800
 20
3.32015400
  0
VERTEX
  8
0
 10
1.14365500
 20
3.31557900
  0
VERTEX
  8
0
 10
1.14408000
 20
3.31112700
  0
VERTEX
  8
0
 10
1.14453200
 20
3.30679700
  0
VERTEX
  8
0
 10
1.14500800
 20
3.30259000
  0
VERTEX
  8
0
 10
1.14550600
 20
3.29850500
  0
VERTEX
  8
0
 10
1.14602500
 20
3.29454400
  0
VERTEX
  8
0
 10
1.14656200
 20
3.29070500
  0
VERTEX
  8
0
 10
1.14711400
 20
3.28698900
  0
VERTEX
  8
0
 10
1.14768000
 20
3.28339500
  0
VERTEX
  8
0
 10
1.14825900
 20
3.27992500
  0
VERTEX
  8
0
 10
1.14884600
 20
3.27657700
  0
VERTEX
  8
0
 10
1.14944200
 20
3.27335100
  0
VERTEX
  8
0
 10
1.15004200
 20
3.27024800
  0
VERTEX
  8
0
 10
1.15064600
 20
3.26726700
  0
VERTEX
  8
0
 10
1.15125200
 20
3.26440900
  0
VERTEX
  8
0
 10
1.15185600
 20
3.26167200
  0
VERTEX
  8
0
 10
1.15245800
 20
3.25905700
  0
VERTEX
  8
0
 10
1.15305500
 20
3.25656300
  0
VERTEX
  8
0
 10
1.15364400
 20
3.25419000
  0
VERTEX
  8
0
 10
1.15422500
 20
3.25193800
  0
VERTEX
  8
0
 10
1.15479400
 20
3.24980600
  0
VERTEX
  8
0
 10
1.15535100
 20
3.24779400
  0
VERTEX
  8
0
 10
1.15641500
 20
3.24412900
  0
VERTEX
  8
0
 10
1.15740300
 20
3.24093900
  0
VERTEX
  8
0
 10
1.15829600
 20
3.23822000
  0
VERTEX
  8
0
 10
1.15908100
 20
3.23596700
  0
VERTEX
  8
0
 10
1.16001600
 20
3.23345200
  0
VERTEX
  8
0
 10
1.16082800
 20
3.23146400
  0
VERTEX
  8
0
 10
1.19080200
 20
3.16479400
  0
VERTEX
  8
0
 10
1.05650800
 20
3.09606000
  0
VERTEX
  8
0
 10
1.01995900
 20
3.15936500
  0
VERTEX
  8
0
 10
1.01882100
 20
3.16118600
  0
VERTEX
  8
0
 10
1.01732800
 20
3.16341600
  0
VERTEX
  8
0
 10
1.01596000
 20
3.16536900
  0
VERTEX
  8
0
 10
1.01427700
 20
3.16768500
  0
VERTEX
  8
0
 10
1.01226600
 20
3.17035100
  0
VERTEX
  8
0
 10
1.00991600
 20
3.17335800
  0
VERTEX
  8
0
 10
1.00861000
 20
3.17498600
  0
VERTEX
  8
0
 10
1.00721300
 20
3.17669500
  0
VERTEX
  8
0
 10
1.00572600
 20
3.17848300
  0
VERTEX
  8
0
 10
1.00414600
 20
3.18034900
  0
VERTEX
  8
0
 10
1.00247200
 20
3.18229200
  0
VERTEX
  8
0
 10
1.00070300
 20
3.18430900
  0
VERTEX
  8
0
 10
0.99883700
 20
3.18640000
  0
VERTEX
  8
0
 10
0.99687200
 20
3.18856300
  0
VERTEX
  8
0
 10
0.99480700
 20
3.19079600
  0
VERTEX
  8
0
 10
0.99264200
 20
3.19309800
  0
VERTEX
  8
0
 10
0.99037300
 20
3.19546700
  0
VERTEX
  8
0
 10
0.98800100
 20
3.19790200
  0
VERTEX
  8
0
 10
0.98552400
 20
3.20040100
  0
VERTEX
  8
0
 10
0.98294100
 20
3.20296200
  0
VERTEX
  8
0
 10
0.98025000
 20
3.20558300
  0
VERTEX
  8
0
 10
0.97745000
 20
3.20826400
  0
VERTEX
  8
0
 10
0.97453900
 20
3.21100200
  0
VERTEX
  8
0
 10
0.97151800
 20
3.21379400
  0
VERTEX
  8
0
 10
0.96838300
 20
3.21664100
  0
VERTEX
  8
0
 10
0.96513600
 20
3.21954000
  0
VERTEX
  8
0
 10
0.96177300
 20
3.22248900
  0
VERTEX
  8
0
 10
0.95829400
 20
3.22548600
  0
VERTEX
  8
0
 10
0.95469800
 20
3.22853000
  0
VERTEX
  8
0
 10
0.95098500
 20
3.23161900
  0
VERTEX
  8
0
 10
0.94715100
 20
3.23475100
  0
VERTEX
  8
0
 10
0.94319800
 20
3.23792300
  0
VERTEX
  8
0
 10
0.93912400
 20
3.24113500
  0
VERTEX
  8
0
 10
0.93492700
 20
3.24438400
  0
VERTEX
  8
0
 10
0.93060700
 20
3.24766900
  0
VERTEX
  8
0
 10
0.92616400
 20
3.25098700
  0
VERTEX
  8
0
 10
0.92159500
 20
3.25433700
  0
VERTEX
  8
0
 10
0.91690000
 20
3.25771700
  0
VERTEX
  8
0
 10
0.91207900
 20
3.26112400
  0
VERTEX
  8
0
 10
0.90713000
 20
3.26455700
  0
VERTEX
  8
0
 10
0.90205300
 20
3.26801400
  0
VERTEX
  8
0
 10
0.89684600
 20
3.27149300
  0
VERTEX
  8
0
 10
0.89151000
 20
3.27499100
  0
VERTEX
  8
0
 10
0.88604300
 20
3.27850700
  0
VERTEX
  8
0
 10
0.88044500
 20
3.28204000
  0
VERTEX
  8
0
 10
0.87471400
 20
3.28558600
  0
VERTEX
  8
0
 10
0.86885100
 20
3.28914300
  0
VERTEX
  8
0
 10
0.86285500
 20
3.29271100
  0
VERTEX
  8
0
 10
0.85672500
 20
3.29628600
  0
VERTEX
  8
0
 10
0.85046000
 20
3.29986600
  0
VERTEX
  8
0
 10
0.84406000
 20
3.30345000
  0
VERTEX
  8
0
 10
0.83752500
 20
3.30703500
  0
VERTEX
  8
0
 10
0.83085300
 20
3.31062000
  0
VERTEX
  8
0
 10
0.82404500
 20
3.31420200
  0
VERTEX
  8
0
 10
0.81893700
 20
3.31683300
  0
VERTEX
  8
0
 10
0.73715100
 20
3.26040300
  0
VERTEX
  8
0
 10
0.73779700
 20
3.25469400
  0
VERTEX
  8
0
 10
0.73872900
 20
3.24705800
  0
VERTEX
  8
0
 10
0.73971200
 20
3.23954800
  0
VERTEX
  8
0
 10
0.74074400
 20
3.23216600
  0
VERTEX
  8
0
 10
0.74182300
 20
3.22491100
  0
VERTEX
  8
0
 10
0.74294600
 20
3.21778300
  0
VERTEX
  8
0
 10
0.74411200
 20
3.21078300
  0
VERTEX
  8
0
 10
0.74531900
 20
3.20391100
  0
VERTEX
  8
0
 10
0.74656300
 20
3.19716700
  0
VERTEX
  8
0
 10
0.74784400
 20
3.19055100
  0
VERTEX
  8
0
 10
0.74915900
 20
3.18406300
  0
VERTEX
  8
0
 10
0.75050600
 20
3.17770400
  0
VERTEX
  8
0
 10
0.75188200
 20
3.17147300
  0
VERTEX
  8
0
 10
0.75328600
 20
3.16537100
  0
VERTEX
  8
0
 10
0.75471600
 20
3.15939800
  0
VERTEX
  8
0
 10
0.75616900
 20
3.15355200
  0
VERTEX
  8
0
 10
0.75764300
 20
3.14783500
  0
VERTEX
  8
0
 10
0.75913600
 20
3.14224700
  0
VERTEX
  8
0
 10
0.76064500
 20
3.13678600
  0
VERTEX
  8
0
 10
0.76217000
 20
3.13145400
  0
VERTEX
  8
0
 10
0.76370800
 20
3.12625000
  0
VERTEX
  8
0
 10
0.76525600
 20
3.12117300
  0
VERTEX
  8
0
 10
0.76681200
 20
3.11622400
  0
VERTEX
  8
0
 10
0.76837500
 20
3.11140200
  0
VERTEX
  8
0
 10
0.76994200
 20
3.10670700
  0
VERTEX
  8
0
 10
0.77151100
 20
3.10213800
  0
VERTEX
  8
0
 10
0.77308000
 20
3.09769600
  0
VERTEX
  8
0
 10
0.77464800
 20
3.09338000
  0
VERTEX
  8
0
 10
0.77621100
 20
3.08919000
  0
VERTEX
  8
0
 10
0.77776800
 20
3.08512400
  0
VERTEX
  8
0
 10
0.77931700
 20
3.08118400
  0
VERTEX
  8
0
 10
0.78085500
 20
3.07736700
  0
VERTEX
  8
0
 10
0.78238200
 20
3.07367500
  0
VERTEX
  8
0
 10
0.78389300
 20
3.07010600
  0
VERTEX
  8
0
 10
0.78538900
 20
3.06665900
  0
VERTEX
  8
0
 10
0.78686600
 20
3.06333500
  0
VERTEX
  8
0
 10
0.78832300
 20
3.06013200
  0
VERTEX
  8
0
 10
0.78975700
 20
3.05705000
  0
VERTEX
  8
0
 10
0.79116700
 20
3.05408900
  0
VERTEX
  8
0
 10
0.79255000
 20
3.05124700
  0
VERTEX
  8
0
 10
0.79390500
 20
3.04852400
  0
VERTEX
  8
0
 10
0.79523000
 20
3.04591900
  0
VERTEX
  8
0
 10
0.79652200
 20
3.04343200
  0
VERTEX
  8
0
 10
0.79778000
 20
3.04106200
  0
VERTEX
  8
0
 10
0.79900200
 20
3.03880800
  0
VERTEX
  8
0
 10
0.80018600
 20
3.03666800
  0
VERTEX
  8
0
 10
0.80132900
 20
3.03464300
  0
VERTEX
  8
0
 10
0.80243100
 20
3.03273100
  0
VERTEX
  8
0
 10
0.80348900
 20
3.03093200
  0
VERTEX
  8
0
 10
0.80546600
 20
3.02766800
  0
VERTEX
  8
0
 10
0.80724500
 20
3.02484200
  0
VERTEX
  8
0
 10
0.80881300
 20
3.02244600
  0
VERTEX
  8
0
 10
0.81015300
 20
3.02047300
  0
VERTEX
  8
0
 10
0.81170800
 20
3.01828600
  0
VERTEX
  8
0
 10
0.81300600
 20
3.01657600
  0
VERTEX
  8
0
 10
0.85921500
 20
2.95993500
  0
VERTEX
  8
0
 10
0.74728600
 20
2.85878600
  0
VERTEX
  8
0
 10
0.69559800
 20
2.91047400
  0
VERTEX
  8
0
 10
0.69402800
 20
2.91193800
  0
VERTEX
  8
0
 10
0.69200900
 20
2.91370600
  0
VERTEX
  8
0
 10
0.69018100
 20
2.91523900
  0
VERTEX
  8
0
 10
0.68795600
 20
2.91704000
  0
VERTEX
  8
0
 10
0.68532400
 20
2.91909500
  0
VERTEX
  8
0
 10
0.68227500
 20
2.92139100
  0
VERTEX
  8
0
 10
0.68059200
 20
2.92262500
  0
VERTEX
  8
0
 10
0.67880100
 20
2.92391500
  0
VERTEX
  8
0
 10
0.67690200
 20
2.92525700
  0
VERTEX
  8
0
 10
0.67489300
 20
2.92665000
  0
VERTEX
  8
0
 10
0.67277300
 20
2.92809300
  0
VERTEX
  8
0
 10
0.67054200
 20
2.92958400
  0
VERTEX
  8
0
 10
0.66819800
 20
2.93112100
  0
VERTEX
  8
0
 10
0.66574000
 20
2.93270200
  0
VERTEX
  8
0
 10
0.66316800
 20
2.93432500
  0
VERTEX
  8
0
 10
0.66048100
 20
2.93598800
  0
VERTEX
  8
0
 10
0.65767600
 20
2.93768900
  0
VERTEX
  8
0
 10
0.65475500
 20
2.93942700
  0
VERTEX
  8
0
 10
0.65171600
 20
2.94119900
  0
VERTEX
  8
0
 10
0.64855700
 20
2.94300400
  0
VERTEX
  8
0
 10
0.64527900
 20
2.94484000
  0
VERTEX
  8
0
 10
0.64188100
 20
2.94670400
  0
VERTEX
  8
0
 10
0.63836100
 20
2.94859600
  0
VERTEX
  8
0
 10
0.63472000
 20
2.95051100
  0
VERTEX
  8
0
 10
0.63095500
 20
2.95245000
  0
VERTEX
  8
0
 10
0.62706800
 20
2.95440900
  0
VERTEX
  8
0
 10
0.62305700
 20
2.95638700
  0
VERTEX
  8
0
 10
0.61892100
 20
2.95838200
  0
VERTEX
  8
0
 10
0.61466000
 20
2.96039200
  0
VERTEX
  8
0
 10
0.61027300
 20
2.96241400
  0
VERTEX
  8
0
 10
0.60576000
 20
2.96444700
  0
VERTEX
  8
0
 10
0.60112000
 20
2.96648800
  0
VERTEX
  8
0
 10
0.59635300
 20
2.96853600
  0
VERTEX
  8
0
 10
0.59145900
 20
2.97058900
  0
VERTEX
  8
0
 10
0.58643600
 20
2.97264300
  0
VERTEX
  8
0
 10
0.58128500
 20
2.97469800
  0
VERTEX
  8
0
 10
0.57600500
 20
2.97675100
  0
VERTEX
  8
0
 10
0.57059500
 20
2.97880100
  0
VERTEX
  8
0
 10
0.56505600
 20
2.98084400
  0
VERTEX
  8
0
 10
0.55938800
 20
2.98287900
  0
VERTEX
  8
0
 10
0.55358900
 20
2.98490400
  0
VERTEX
  8
0
 10
0.54765900
 20
2.98691700
  0
VERTEX
  8
0
 10
0.54159900
 20
2.98891500
  0
VERTEX
  8
0
 10
0.53540900
 20
2.99089700
  0
VERTEX
  8
0
 10
0.52908700
 20
2.99286000
  0
VERTEX
  8
0
 10
0.52263400
 20
2.99480200
  0
VERTEX
  8
0
 10
0.51605000
 20
2.99672100
  0
VERTEX
  8
0
 10
0.50933500
 20
2.99861400
  0
VERTEX
  8
0
 10
0.50248800
 20
3.00048100
  0
VERTEX
  8
0
 10
0.49551000
 20
3.00231800
  0
VERTEX
  8
0
 10
0.48840100
 20
3.00412300
  0
VERTEX
  8
0
 10
0.48116000
 20
3.00589500
  0
VERTEX
  8
0
 10
0.47378800
 20
3.00763100
  0
VERTEX
  8
0
 10
0.46628500
 20
3.00932900
  0
VERTEX
  8
0
 10
0.46067000
 20
3.01054800
  0
VERTEX
  8
0
 10
0.39627500
 20
2.93487300
  0
VERTEX
  8
0
 10
0.39837700
 20
2.92952600
  0
VERTEX
  8
0
 10
0.40125400
 20
2.92239100
  0
VERTEX
  8
0
 10
0.40414700
 20
2.91539200
  0
VERTEX
  8
0
 10
0.40705400
 20
2.90852800
  0
VERTEX
  8
0
 10
0.40997400
 20
2.90179900
  0
VERTEX
  8
0
 10
0.41290400
 20
2.89520500
  0
VERTEX
  8
0
 10
0.41584200
 20
2.88874500
  0
VERTEX
  8
0
 10
0.41878600
 20
2.88241900
  0
VERTEX
  8
0
 10
0.42173400
 20
2.87622700
  0
VERTEX
  8
0
 10
0.42468400
 20
2.87016800
  0
VERTEX
  8
0
 10
0.42763300
 20
2.86424200
  0
VERTEX
  8
0
 10
0.43058000
 20
2.85844800
  0
VERTEX
  8
0
 10
0.43352200
 20
2.85278600
  0
VERTEX
  8
0
 10
0.43645700
 20
2.84725500
  0
VERTEX
  8
0
 10
0.43938400
 20
2.84185500
  0
VERTEX
  8
0
 10
0.44230000
 20
2.83658500
  0
VERTEX
  8
0
 10
0.44520400
 20
2.83144500
  0
VERTEX
  8
0
 10
0.44809200
 20
2.82643300
  0
VERTEX
  8
0
 10
0.45096400
 20
2.82154900
  0
VERTEX
  8
0
 10
0.45381700
 20
2.81679300
  0
VERTEX
  8
0
 10
0.45664900
 20
2.81216400
  0
VERTEX
  8
0
 10
0.45945800
 20
2.80766100
  0
VERTEX
  8
0
 10
0.46224200
 20
2.80328300
  0
VERTEX
  8
0
 10
0.46500000
 20
2.79903000
  0
VERTEX
  8
0
 10
0.46772900
 20
2.79490100
  0
VERTEX
  8
0
 10
0.47042700
 20
2.79089400
  0
VERTEX
  8
0
 10
0.47309200
 20
2.78701000
  0
VERTEX
  8
0
 10
0.47572400
 20
2.78324600
  0
VERTEX
  8
0
 10
0.47831800
 20
2.77960300
  0
VERTEX
  8
0
 10
0.48087400
 20
2.77607900
  0
VERTEX
  8
0
 10
0.48339000
 20
2.77267400
  0
VERTEX
  8
0
 10
0.48586400
 20
2.76938600
  0
VERTEX
  8
0
 10
0.48829400
 20
2.76621400
  0
VERTEX
  8
0
 10
0.49067800
 20
2.76315800
  0
VERTEX
  8
0
 10
0.49301500
 20
2.76021600
  0
VERTEX
  8
0
 10
0.49530200
 20
2.75738700
  0
VERTEX
  8
0
 10
0.49753800
 20
2.75467000
  0
VERTEX
  8
0
 10
0.49972100
 20
2.75206500
  0
VERTEX
  8
0
 10
0.50184900
 20
2.74956900
  0
VERTEX
  8
0
 10
0.50392100
 20
2.74718200
  0
VERTEX
  8
0
 10
0.50593400
 20
2.74490300
  0
VERTEX
  8
0
 10
0.50788800
 20
2.74273000
  0
VERTEX
  8
0
 10
0.50978000
 20
2.74066200
  0
VERTEX
  8
0
 10
0.51160900
 20
2.73869800
  0
VERTEX
  8
0
 10
0.51337200
 20
2.73683600
  0
VERTEX
  8
0
 10
0.51506900
 20
2.73507600
  0
VERTEX
  8
0
 10
0.51669800
 20
2.73341600
  0
VERTEX
  8
0
 10
0.51825700
 20
2.73185500
  0
VERTEX
  8
0
 10
0.51974500
 20
2.73039100
  0
VERTEX
  8
0
 10
0.52249900
 20
2.72774900
  0
VERTEX
  8
0
 10
0.52495000
 20
2.72548000
  0
VERTEX
  8
0
 10
0.52708300
 20
2.72357200
  0
VERTEX
  8
0
 10
0.52888900
 20
2.72201300
  0
VERTEX
  8
0
 10
0.53095700
 20
2.72030300
  0
VERTEX
  8
0
 10
0.53265300
 20
2.71898700
  0
VERTEX
  8
0
 10
0.59194700
 20
2.67623600
  0
VERTEX
  8
0
 10
0.51001200
 20
2.54956400
  0
VERTEX
  8
0
 10
0.44670700
 20
2.58611300
  0
VERTEX
  8
0
 10
0.44481100
 20
2.58712100
  0
VERTEX
  8
0
 10
0.44240300
 20
2.58830600
  0
VERTEX
  8
0
 10
0.44024100
 20
2.58931300
  0
VERTEX
  8
0
 10
0.43762600
 20
2.59047700
  0
VERTEX
  8
0
 10
0.43455200
 20
2.59178100
  0
VERTEX
  8
0
 10
0.43101300
 20
2.59321000
  0
VERTEX
  8
0
 10
0.42906700
 20
2.59396700
  0
VERTEX
  8
0
 10
0.42700400
 20
2.59474800
  0
VERTEX
  8
0
 10
0.42482200
 20
2.59555300
  0
VERTEX
  8
0
 10
0.42252100
 20
2.59637900
  0
VERTEX
  8
0
 10
0.42010000
 20
2.59722500
  0
VERTEX
  8
0
 10
0.41755900
 20
2.59808700
  0
VERTEX
  8
0
 10
0.41489700
 20
2.59896500
  0
VERTEX
  8
0
 10
0.41211400
 20
2.59985600
  0
VERTEX
  8
0
 10
0.40920900
 20
2.60075700
  0
VERTEX
  8
0
 10
0.40618300
 20
2.60166800
  0
VERTEX
  8
0
 10
0.40303400
 20
2.60258600
  0
VERTEX
  8
0
 10
0.39976200
 20
2.60350800
  0
VERTEX
  8
0
 10
0.39636800
 20
2.60443400
  0
VERTEX
  8
0
 10
0.39285000
 20
2.60536000
  0
VERTEX
  8
0
 10
0.38920800
 20
2.60628500
  0
VERTEX
  8
0
 10
0.38544300
 20
2.60720600
  0
VERTEX
  8
0
 10
0.38155400
 20
2.60812200
  0
VERTEX
  8
0
 10
0.37754100
 20
2.60903000
  0
VERTEX
  8
0
 10
0.37340300
 20
2.60992800
  0
VERTEX
  8
0
 10
0.36914100
 20
2.61081400
  0
VERTEX
  8
0
 10
0.36475400
 20
2.61168700
  0
VERTEX
  8
0
 10
0.36024300
 20
2.61254300
  0
VERTEX
  8
0
 10
0.35560700
 20
2.61338100
  0
VERTEX
  8
0
 10
0.35084600
 20
2.61419900
  0
VERTEX
  8
0
 10
0.34596100
 20
2.61499500
  0
VERTEX
  8
0
 10
0.34095100
 20
2.61576600
  0
VERTEX
  8
0
 10
0.33581700
 20
2.61651000
  0
VERTEX
  8
0
 10
0.33055700
 20
2.61722600
  0
VERTEX
  8
0
 10
0.32517400
 20
2.61791100
  0
VERTEX
  8
0
 10
0.31966700
 20
2.61856200
  0
VERTEX
  8
0
 10
0.31403500
 20
2.61917900
  0
VERTEX
  8
0
 10
0.30827900
 20
2.61975900
  0
VERTEX
  8
0
 10
0.30240000
 20
2.62029900
  0
VERTEX
  8
0
 10
0.29639800
 20
2.62079700
  0
VERTEX
  8
0
 10
0.29027200
 20
2.62125300
  0
VERTEX
  8
0
 10
0.28402400
 20
2.62166200
  0
VERTEX
  8
0
 10
0.27765400
 20
2.62202400
  0
VERTEX
  8
0
 10
0.27116100
 20
2.62233500
  0
VERTEX
  8
0
 10
0.26454700
 20
2.62259500
  0
VERTEX
  8
0
 10
0.25781100
 20
2.62280100
  0
VERTEX
  8
0
 10
0.25095500
 20
2.62295000
  0
VERTEX
  8
0
 10
0.24397800
 20
2.62304200
  0
VERTEX
  8
0
 10
0.23688200
 20
2.62307300
  0
VERTEX
  8
0
 10
0.22966600
 20
2.62304100
  0
VERTEX
  8
0
 10
0.22233200
 20
2.62294500
  0
VERTEX
  8
0
 10
0.21487900
 20
2.62278200
  0
VERTEX
  8
0
 10
0.20730900
 20
2.62255100
  0
VERTEX
  8
0
 10
0.19962200
 20
2.62224900
  0
VERTEX
  8
0
 10
0.19388300
 20
2.62197300
  0
VERTEX
  8
0
 10
0.15126900
 20
2.53221000
  0
VERTEX
  8
0
 10
0.15468300
 20
2.52758900
  0
VERTEX
  8
0
 10
0.15930800
 20
2.52144200
  0
VERTEX
  8
0
 10
0.16391400
 20
2.51543000
  0
VERTEX
  8
0
 10
0.16849900
 20
2.50955300
  0
VERTEX
  8
0
 10
0.17306100
 20
2.50380900
  0
VERTEX
  8
0
 10
0.17759800
 20
2.49819800
  0
VERTEX
  8
0
 10
0.18210800
 20
2.49271800
  0
VERTEX
  8
0
 10
0.18658900
 20
2.48737000
  0
VERTEX
  8
0
 10
0.19103900
 20
2.48215200
  0
VERTEX
  8
0
 10
0.19545600
 20
2.47706300
  0
VERTEX
  8
0
 10
0.19983800
 20
2.47210200
  0
VERTEX
  8
0
 10
0.20418400
 20
2.46726800
  0
VERTEX
  8
0
 10
0.20849100
 20
2.46256100
  0
VERTEX
  8
0
 10
0.21275900
 20
2.45797800
  0
VERTEX
  8
0
 10
0.21698300
 20
2.45351900
  0
VERTEX
  8
0
 10
0.22116400
 20
2.44918400
  0
VERTEX
  8
0
 10
0.22529900
 20
2.44497000
  0
VERTEX
  8
0
 10
0.22938600
 20
2.44087600
  0
VERTEX
  8
0
 10
0.23342400
 20
2.43690200
  0
VERTEX
  8
0
 10
0.23741100
 20
2.43304700
  0
VERTEX
  8
0
 10
0.24134400
 20
2.42930800
  0
VERTEX
  8
0
 10
0.24522300
 20
2.42568600
  0
VERTEX
  8
0
 10
0.24904600
 20
2.42217800
  0
VERTEX
  8
0
 10
0.25281000
 20
2.41878300
  0
VERTEX
  8
0
 10
0.25651500
 20
2.41550100
  0
VERTEX
  8
0
 10
0.26015800
 20
2.41232900
  0
VERTEX
  8
0
 10
0.26373800
 20
2.40926700
  0
VERTEX
  8
0
 10
0.26725400
 20
2.40631300
  0
VERTEX
  8
0
 10
0.27070300
 20
2.40346500
  0
VERTEX
  8
0
 10
0.27408400
 20
2.40072300
  0
VERTEX
  8
0
 10
0.27739500
 20
2.39808500
  0
VERTEX
  8
0
 10
0.28063600
 20
2.39554900
  0
VERTEX
  8
0
 10
0.28380400
 20
2.39311400
  0
VERTEX
  8
0
 10
0.28689800
 20
2.39077900
  0
VERTEX
  8
0
 10
0.28991600
 20
2.38854200
  0
VERTEX
  8
0
 10
0.29285800
 20
2.38640200
  0
VERTEX
  8
0
 10
0.29572000
 20
2.38435600
  0
VERTEX
  8
0
 10
0.29850400
 20
2.38240500
  0
VERTEX
  8
0
 10
0.30120500
 20
2.38054500
  0
VERTEX
  8
0
 10
0.30382400
 20
2.37877500
  0
VERTEX
  8
0
 10
0.30635900
 20
2.37709500
  0
VERTEX
  8
0
 10
0.30880800
 20
2.37550100
  0
VERTEX
  8
0
 10
0.31117100
 20
2.37399400
  0
VERTEX
  8
0
 10
0.31344600
 20
2.37257000
  0
VERTEX
  8
0
 10
0.31563100
 20
2.37122800
  0
VERTEX
  8
0
 10
0.31772600
 20
2.36996800
  0
VERTEX
  8
0
 10
0.31972900
 20
2.36878600
  0
VERTEX
  8
0
 10
0.32163900
 20
2.36768100
  0
VERTEX
  8
0
 10
0.32345500
 20
2.36665200
  0
VERTEX
  8
0
 10
0.32679900
 20
2.36481300
  0
VERTEX
  8
0
 10
0.32975300
 20
2.36325500
  0
VERTEX
  8
0
 10
0.33230800
 20
2.36196400
  0
VERTEX
  8
0
 10
0.33445600
 20
2.36092600
  0
VERTEX
  8
0
 10
0.33689600
 20
2.35980900
  0
VERTEX
  8
0
 10
0.33887500
 20
2.35897800
  0
VERTEX
  8
0
 10
0.40721300
 20
2.33303000
  0
VERTEX
  8
0
 10
0.36085500
 20
2.18946700
  0
VERTEX
  8
0
 10
0.29024700
 20
2.20838700
  0
VERTEX
  8
0
 10
0.28815500
 20
2.20886900
  0
VERTEX
  8
0
 10
0.28552300
 20
2.20939100
  0
VERTEX
  8
0
 10
0.28317400
 20
2.20980400
  0
VERTEX
  8
0
 10
0.28034600
 20
2.21025100
  0
VERTEX
  8
0
 10
0.27703900
 20
2.21071500
  0
VERTEX
  8
0
 10
0.27325100
 20
2.21118000
  0
VERTEX
  8
0
 10
0.27117600
 20
2.21140700
  0
VERTEX
  8
0
 10
0.26898100
 20
2.21162800
  0
VERTEX
  8
0
 10
0.26666500
 20
2.21184100
  0
VERTEX
  8
0
 10
0.26422800
 20
2.21204300
  0
VERTEX
  8
0
 10
0.26167100
 20
2.21223300
  0
VERTEX
  8
0
 10
0.25899300
 20
2.21240800
  0
VERTEX
  8
0
 10
0.25619500
 20
2.21256700
  0
VERTEX
  8
0
 10
0.25327600
 20
2.21270700
  0
VERTEX
  8
0
 10
0.25023700
 20
2.21282700
  0
VERTEX
  8
0
 10
0.24707800
 20
2.21292300
  0
VERTEX
  8
0
 10
0.24379900
 20
2.21299500
  0
VERTEX
  8
0
 10
0.24040000
 20
2.21303900
  0
VERTEX
  8
0
 10
0.23688200
 20
2.21305400
  0
VERTEX
  8
0
 10
0.23324400
 20
2.21303800
  0
VERTEX
  8
0
 10
0.22948700
 20
2.21298900
  0
VERTEX
  8
0
 10
0.22561200
 20
2.21290400
  0
VERTEX
  8
0
 10
0.22161800
 20
2.21278200
  0
VERTEX
  8
0
 10
0.21750700
 20
2.21262100
  0
VERTEX
  8
0
 10
0.21327800
 20
2.21241700
  0
VERTEX
  8
0
 10
0.20893100
 20
2.21217100
  0
VERTEX
  8
0
 10
0.20446800
 20
2.21187800
  0
VERTEX
  8
0
 10
0.19988900
 20
2.21153800
  0
VERTEX
  8
0
 10
0.19519400
 20
2.21114700
  0
VERTEX
  8
0
 10
0.19038400
 20
2.21070500
  0
VERTEX
  8
0
 10
0.18545900
 20
2.21020900
  0
VERTEX
  8
0
 10
0.18042000
 20
2.20965700
  0
VERTEX
  8
0
 10
0.17526800
 20
2.20904700
  0
VERTEX
  8
0
 10
0.17000300
 20
2.20837800
  0
VERTEX
  8
0
 10
0.16462600
 20
2.20764600
  0
VERTEX
  8
0
 10
0.15913700
 20
2.20685000
  0
VERTEX
  8
0
 10
0.15353800
 20
2.20598800
  0
VERTEX
  8
0
 10
0.14782900
 20
2.20505800
  0
VERTEX
  8
0
 10
0.14201000
 20
2.20405800
  0
VERTEX
  8
0
 10
0.13608300
 20
2.20298600
  0
VERTEX
  8
0
 10
0.13004900
 20
2.20184000
  0
VERTEX
  8
0
 10
0.12390700
 20
2.20061900
  0
VERTEX
  8
0
 10
0.11766000
 20
2.19931900
  0
VERTEX
  8
0
 10
0.11130800
 20
2.19794000
  0
VERTEX
  8
0
 10
0.10485200
 20
2.19647900
  0
VERTEX
  8
0
 10
0.09829300
 20
2.19493400
  0
VERTEX
  8
0
 10
0.09163100
 20
2.19330400
  0
VERTEX
  8
0
 10
0.08486900
 20
2.19158700
  0
VERTEX
  8
0
 10
0.07800600
 20
2.18978000
  0
VERTEX
  8
0
 10
0.07104400
 20
2.18788200
  0
VERTEX
  8
0
 10
0.06398500
 20
2.18589100
  0
VERTEX
  8
0
 10
0.05682800
 20
2.18380500
  0
VERTEX
  8
0
 10
0.04957600
 20
2.18162200
  0
VERTEX
  8
0
 10
0.04222900
 20
2.17934100
  0
VERTEX
  8
0
 10
0.03675700
 20
2.17758900
  0
VERTEX
  8
0
 10
0.01882700
 20
2.07985500
  0
VERTEX
  8
0
 10
0.02332100
 20
2.07627500
  0
VERTEX
  8
0
 10
0.02937900
 20
2.07153500
  0
VERTEX
  8
0
 10
0.03538400
 20
2.06692000
  0
VERTEX
  8
0
 10
0.04133500
 20
2.06242900
  0
VERTEX
  8
0
 10
0.04722800
 20
2.05806200
  0
VERTEX
  8
0
 10
0.05306200
 20
2.05381600
  0
VERTEX
  8
0
 10
0.05883600
 20
2.04969100
  0
VERTEX
  8
0
 10
0.06454900
 20
2.04568500
  0
VERTEX
  8
0
 10
0.07019800
 20
2.04179600
  0
VERTEX
  8
0
 10
0.07578200
 20
2.03802400
  0
VERTEX
  8
0
 10
0.08129900
 20
2.03436600
  0
VERTEX
  8
0
 10
0.08674800
 20
2.03082200
  0
VERTEX
  8
0
 10
0.09212700
 20
2.02738900
  0
VERTEX
  8
0
 10
0.09743400
 20
2.02406700
  0
VERTEX
  8
0
 10
0.10266900
 20
2.02085400
  0
VERTEX
  8
0
 10
0.10783000
 20
2.01774800
  0
VERTEX
  8
0
 10
0.11291400
 20
2.01474800
  0
VERTEX
  8
0
 10
0.11792200
 20
2.01185200
  0
VERTEX
  8
0
 10
0.12285100
 20
2.00905900
  0
VERTEX
  8
0
 10
0.12769900
 20
2.00636600
  0
VERTEX
  8
0
 10
0.13246600
 20
2.00377300
  0
VERTEX
  8
0
 10
0.13715100
 20
2.00127800
  0
VERTEX
  8
0
 10
0.14175100
 20
1.99887900
  0
VERTEX
  8
0
 10
0.14626600
 20
1.99657400
  0
VERTEX
  8
0
 10
0.15069400
 20
1.99436200
  0
VERTEX
  8
0
 10
0.15503400
 20
1.99224200
  0
VERTEX
  8
0
 10
0.15928400
 20
1.99021000
  0
VERTEX
  8
0
 10
0.16344500
 20
1.98826700
  0
VERTEX
  8
0
 10
0.16751300
 20
1.98640900
  0
VERTEX
  8
0
 10
0.17148900
 20
1.98463500
  0
VERTEX
  8
0
 10
0.17537000
 20
1.98294400
  0
VERTEX
  8
0
 10
0.17915700
 20
1.98133300
  0
VERTEX
  8
0
 10
0.18284700
 20
1.97980200
  0
VERTEX
  8
0
 10
0.18644000
 20
1.97834700
  0
VERTEX
  8
0
 10
0.18993400
 20
1.97696700
  0
VERTEX
  8
0
 10
0.19332900
 20
1.97566100
  0
VERTEX
  8
0
 10
0.19662400
 20
1.97442600
  0
VERTEX
  8
0
 10
0.19981800
 20
1.97326100
  0
VERTEX
  8
0
 10
0.20290800
 20
1.97216400
  0
VERTEX
  8
0
 10
0.20589600
 20
1.97113300
  0
VERTEX
  8
0
 10
0.20878000
 20
1.97016600
  0
VERTEX
  8
0
 10
0.21155800
 20
1.96926100
  0
VERTEX
  8
0
 10
0.21423000
 20
1.96841600
  0
VERTEX
  8
0
 10
0.21679600
 20
1.96762900
  0
VERTEX
  8
0
 10
0.21925400
 20
1.96689900
  0
VERTEX
  8
0
 10
0.22160400
 20
1.96622300
  0
VERTEX
  8
0
 10
0.22384500
 20
1.96560000
  0
VERTEX
  8
0
 10
0.22597600
 20
1.96502700
  0
VERTEX
  8
0
 10
0.22799600
 20
1.96450300
  0
VERTEX
  8
0
 10
0.23170200
 20
1.96359300
  0
VERTEX
  8
0
 10
0.23495900
 20
1.96285300
  0
VERTEX
  8
0
 10
0.23776100
 20
1.96226700
  0
VERTEX
  8
0
 10
0.24010400
 20
1.96182000
  0
VERTEX
  8
0
 10
0.24275000
 20
1.96137300
  0
VERTEX
  8
0
 10
0.24487700
 20
1.96108200
  0
VERTEX
  8
0
 10
0.31760200
 20
1.95370500
  0
VERTEX
  8
0
 10
0.30998000
 20
1.80303600
  0
VERTEX
  8
0
 10
0.23688200
 20
1.80303600
  0
VERTEX
  8
0
 10
0.23473600
 20
1.80296100
  0
VERTEX
  8
0
 10
0.23205900
 20
1.80278300
  0
VERTEX
  8
0
 10
0.22968200
 20
1.80257500
  0
VERTEX
  8
0
 10
0.22683600
 20
1.80227500
  0
VERTEX
  8
0
 10
0.22352100
 20
1.80186700
  0
VERTEX
  8
0
 10
0.21974200
 20
1.80133500
  0
VERTEX
  8
0
 10
0.21767900
 20
1.80101800
  0
VERTEX
  8
0
 10
0.21550100
 20
1.80066300
  0
VERTEX
  8
0
 10
0.21320900
 20
1.80026900
  0
VERTEX
  8
0
 10
0.21080300
 20
1.79983400
  0
VERTEX
  8
0
 10
0.20828400
 20
1.79935500
  0
VERTEX
  8
0
 10
0.20565200
 20
1.79883200
  0
VERTEX
  8
0
 10
0.20290800
 20
1.79826100
  0
VERTEX
  8
0
 10
0.20005200
 20
1.79764100
  0
VERTEX
  8
0
 10
0.19708600
 20
1.79697000
  0
VERTEX
  8
0
 10
0.19400900
 20
1.79624500
  0
VERTEX
  8
0
 10
0.19082400
 20
1.79546500
  0
VERTEX
  8
0
 10
0.18752900
 20
1.79462900
  0
VERTEX
  8
0
 10
0.18412700
 20
1.79373300
  0
VERTEX
  8
0
 10
0.18061700
 20
1.79277600
  0
VERTEX
  8
0
 10
0.17700100
 20
1.79175600
  0
VERTEX
  8
0
 10
0.17328000
 20
1.79067100
  0
VERTEX
  8
0
 10
0.16945400
 20
1.78952000
  0
VERTEX
  8
0
 10
0.16552400
 20
1.78829900
  0
VERTEX
  8
0
 10
0.16149200
 20
1.78700800
  0
VERTEX
  8
0
 10
0.15735700
 20
1.78564500
  0
VERTEX
  8
0
 10
0.15312200
 20
1.78420700
  0
VERTEX
  8
0
 10
0.14878700
 20
1.78269300
  0
VERTEX
  8
0
 10
0.14435300
 20
1.78110100
  0
VERTEX
  8
0
 10
0.13982100
 20
1.77942900
  0
VERTEX
  8
0
 10
0.13519300
 20
1.77767500
  0
VERTEX
  8
0
 10
0.13046800
 20
1.77583800
  0
VERTEX
  8
0
 10
0.12564900
 20
1.77391600
  0
VERTEX
  8
0
 10
0.12073700
 20
1.77190600
  0
VERTEX
  8
0
 10
0.11573300
 20
1.76980700
  0
VERTEX
  8
0
 10
0.11063700
 20
1.76761800
  0
VERTEX
  8
0
 10
0.10545200
 20
1.76533600
  0
VERTEX
  8
0
 10
0.10017800
 20
1.76296000
  0
VERTEX
  8
0
 10
0.09481600
 20
1.76048800
  0
VERTEX
  8
0
 10
0.08936800
 20
1.75791900
  0
VERTEX
  8
0
 10
0.08383600
 20
1.75525100
  0
VERTEX
  8
0
 10
0.07822000
 20
1.75248100
  0
VERTEX
  8
0
 10
0.07252200
 20
1.74960900
  0
VERTEX
  8
0
 10
0.06674400
 20
1.74663300
  0
VERTEX
  8
0
 10
0.06088600
 20
1.74355000
  0
VERTEX
  8
0
 10
0.05495000
 20
1.74036100
  0
VERTEX
  8
0
 10
0.04893700
 20
1.73706200
  0
VERTEX
  8
0
 10
0.04284900
 20
1.73365300
  0
VERTEX
  8
0
 10
0.03668800
 20
1.73013100
  0
VERTEX
  8
0
 10
0.03045500
 20
1.72649600
  0
VERTEX
  8
0
 10
0.02415100
 20
1.72274600
  0
VERTEX
  8
0
 10
0.01777900
 20
1.71887800
  0
VERTEX
  8
0
 10
0.01133800
 20
1.71489300
  0
VERTEX
  8
0
 10
0.00483200
 20
1.71078800
  0
VERTEX
  8
0
 10
0.00000000
 20
1.70768000
  0
VERTEX
  8
0
 10
0.00797600
 20
1.60863600
  0
VERTEX
  8
0
 10
0.01324400
 20
1.60634100
  0
VERTEX
  8
0
 10
0.02032300
 20
1.60333000
  0
VERTEX
  8
0
 10
0.02731800
 20
1.60042600
  0
VERTEX
  8
0
 10
0.03422700
 20
1.59762900
  0
VERTEX
  8
0
 10
0.04105000
 20
1.59493500
  0
VERTEX
  8
0
 10
0.04778400
 20
1.59234500
  0
VERTEX
  8
0
 10
0.05443000
 20
1.58985400
  0
VERTEX
  8
0
 10
0.06098400
 20
1.58746300
  0
VERTEX
  8
0
 10
0.06744700
 20
1.58516900
  0
VERTEX
  8
0
 10
0.07381700
 20
1.58297000
  0
VERTEX
  8
0
 10
0.08009300
 20
1.58086500
  0
VERTEX
  8
0
 10
0.08627300
 20
1.57885200
  0
VERTEX
  8
0
 10
0.09235800
 20
1.57692900
  0
VERTEX
  8
0
 10
0.09834400
 20
1.57509400
  0
VERTEX
  8
0
 10
0.10423200
 20
1.57334500
  0
VERTEX
  8
0
 10
0.11002100
 20
1.57168000
  0
VERTEX
  8
0
 10
0.11570900
 20
1.57009800
  0
VERTEX
  8
0
 10
0.12129500
 20
1.56859700
  0
VERTEX
  8
0
 10
0.12677900
 20
1.56717500
  0
VERTEX
  8
0
 10
0.13215900
 20
1.56582900
  0
VERTEX
  8
0
 10
0.13743500
 20
1.56455800
  0
VERTEX
  8
0
 10
0.14260600
 20
1.56336000
  0
VERTEX
  8
0
 10
0.14767000
 20
1.56223400
  0
VERTEX
  8
0
 10
0.15262700
 20
1.56117600
  0
VERTEX
  8
0
 10
0.15747700
 20
1.56018600
  0
VERTEX
  8
0
 10
0.16221800
 20
1.55926000
  0
VERTEX
  8
0
 10
0.16685000
 20
1.55839800
  0
VERTEX
  8
0
 10
0.17137100
 20
1.55759800
  0
VERTEX
  8
0
 10
0.17578200
 20
1.55685600
  0
VERTEX
  8
0
 10
0.18008100
 20
1.55617200
  0
VERTEX
  8
0
 10
0.18426800
 20
1.55554300
  0
VERTEX
  8
0
 10
0.18834200
 20
1.55496700
  0
VERTEX
  8
0
 10
0.19230300
 20
1.55444300
  0
VERTEX
  8
0
 10
0.19615000
 20
1.55396700
  0
VERTEX
  8
0
 10
0.19988300
 20
1.55353900
  0
VERTEX
  8
0
 10
0.20350000
 20
1.55315600
  0
VERTEX
  8
0
 10
0.20700200
 20
1.55281600
  0
VERTEX
  8
0
 10
0.21038800
 20
1.55251800
  0
VERTEX
  8
0
 10
0.21365800
 20
1.55225800
  0
VERTEX
  8
0
 10
0.21681100
 20
1.55203500
  0
VERTEX
  8
0
 10
0.21984600
 20
1.55184700
  0
VERTEX
  8
0
 10
0.22276400
 20
1.55169200
  0
VERTEX
  8
0
 10
0.22556400
 20
1.55156700
  0
VERTEX
  8
0
 10
0.22824600
 20
1.55147200
  0
VERTEX
  8
0
 10
0.23080900
 20
1.55140300
  0
VERTEX
  8
0
 10
0.23325400
 20
1.55135800
  0
VERTEX
  8
0
 10
0.23558000
 20
1.55133600
  0
VERTEX
  8
0
 10
0.23778600
 20
1.55133400
  0
VERTEX
  8
0
 10
0.23987300
 20
1.55135100
  0
VERTEX
  8
0
 10
0.24368900
 20
1.55143100
  0
VERTEX
  8
0
 10
0.24702600
 20
1.55155900
  0
VERTEX
  8
0
 10
0.24988400
 20
1.55171800
  0
VERTEX
  8
0
 10
0.25226300
 20
1.55189300
  0
VERTEX
  8
0
 10
0.25493500
 20
1.55214600
  0
VERTEX
  8
0
 10
0.25706400
 20
1.55241500
  0
VERTEX
  8
0
 10
0.32922100
 20
1.56411200
  0
VERTEX
  8
0
 10
0.36085500
 20
1.41660500
  0
VERTEX
  8
0
 10
0.29024700
 20
1.39768500
  0
VERTEX
  8
0
 10
0.28819400
 20
1.39705800
  0
VERTEX
  8
0
 10
0.28565400
 20
1.39619300
  0
VERTEX
  8
0
 10
0.28341300
 20
1.39537600
  0
VERTEX
  8
0
 10
0.28074100
 20
1.39435000
  0
VERTEX
  8
0
 10
0.27764400
 20
1.39309800
  0
VERTEX
  8
0
 10
0.27413200
 20
1.39160700
  0
VERTEX
  8
0
 10
0.27222100
 20
1.39076600
  0
VERTEX
  8
0
 10
0.27020900
 20
1.38985900
  0
VERTEX
  8
0
 10
0.26809700
 20
1.38888600
  0
VERTEX
  8
0
 10
0.26588600
 20
1.38784300
  0
VERTEX
  8
0
 10
0.26357600
 20
1.38672900
  0
VERTEX
  8
0
 10
0.26117000
 20
1.38554200
  0
VERTEX
  8
0
 10
0.25866700
 20
1.38428000
  0
VERTEX
  8
0
 10
0.25606900
 20
1.38294200
  0
VERTEX
  8
0
 10
0.25337700
 20
1.38152600
  0
VERTEX
  8
0
 10
0.25059300
 20
1.38003000
  0
VERTEX
  8
0
 10
0.24771800
 20
1.37845200
  0
VERTEX
  8
0
 10
0.24475200
 20
1.37679100
  0
VERTEX
  8
0
 10
0.24169700
 20
1.37504500
  0
VERTEX
  8
0
 10
0.23855500
 20
1.37321200
  0
VERTEX
  8
0
 10
0.23532600
 20
1.37129100
  0
VERTEX
  8
0
 10
0.23201300
 20
1.36928000
  0
VERTEX
  8
0
 10
0.22861500
 20
1.36717800
  0
VERTEX
  8
0
 10
0.22513500
 20
1.36498200
  0
VERTEX
  8
0
 10
0.22157400
 20
1.36269100
  0
VERTEX
  8
0
 10
0.21793400
 20
1.36030500
  0
VERTEX
  8
0
 10
0.21421500
 20
1.35782000
  0
VERTEX
  8
0
 10
0.21041900
 20
1.35523500
  0
VERTEX
  8
0
 10
0.20654800
 20
1.35255000
  0
VERTEX
  8
0
 10
0.20260400
 20
1.34976200
  0
VERTEX
  8
0
 10
0.19858700
 20
1.34687000
  0
VERTEX
  8
0
 10
0.19449900
 20
1.34387300
  0
VERTEX
  8
0
 10
0.19034200
 20
1.34076800
  0
VERTEX
  8
0
 10
0.18611700
 20
1.33755600
  0
VERTEX
  8
0
 10
0.18182600
 20
1.33423300
  0
VERTEX
  8
0
 10
0.17747100
 20
1.33080000
  0
VERTEX
  8
0
 10
0.17305300
 20
1.32725400
  0
VERTEX
  8
0
 10
0.16857300
 20
1.32359400
  0
VERTEX
  8
0
 10
0.16403400
 20
1.31981800
  0
VERTEX
  8
0
 10
0.15943700
 20
1.31592700
  0
VERTEX
  8
0
 10
0.15478400
 20
1.31191700
  0
VERTEX
  8
0
 10
0.15007700
 20
1.30778800
  0
VERTEX
  8
0
 10
0.14531600
 20
1.30353900
  0
VERTEX
  8
0
 10
0.14050500
 20
1.29916900
  0
VERTEX
  8
0
 10
0.13564400
 20
1.29467600
  0
VERTEX
  8
0
 10
0.13073600
 20
1.29005800
  0
VERTEX
  8
0
 10
0.12578200
 20
1.28531600
  0
VERTEX
  8
0
 10
0.12078400
 20
1.28044700
  0
VERTEX
  8
0
 10
0.11574400
 20
1.27545100
  0
VERTEX
  8
0
 10
0.11066400
 20
1.27032600
  0
VERTEX
  8
0
 10
0.10554600
 20
1.26507200
  0
VERTEX
  8
0
 10
0.10039100
 20
1.25968700
  0
VERTEX
  8
0
 10
0.09520200
 20
1.25417100
  0
VERTEX
  8
0
 10
0.08998000
 20
1.24852200
  0
VERTEX
  8
0
 10
0.08611700
 20
1.24426900
  0
VERTEX
  8
0
 10
0.11945600
 20
1.15066400
  0
VERTEX
  8
0
 10
0.12513800
 20
1.14981100
  0
VERTEX
  8
0
 10
0.13275500
 20
1.14873400
  0
VERTEX
  8
0
 10
0.14026300
 20
1.14774000
  0
VERTEX
  8
0
 10
0.14766100
 20
1.14682600
  0
VERTEX
  8
0
 10
0.15494800
 20
1.14599100
  0
VERTEX
  8
0
 10
0.16212400
 20
1.14523100
  0
VERTEX
  8
0
 10
0.16918700
 20
1.14454600
  0
VERTEX
  8
0
 10
0.17613800
 20
1.14393200
  0
VERTEX
  8
0
 10
0.18297400
 20
1.14338900
  0
VERTEX
  8
0
 10
0.18969600
 20
1.14291400
  0
VERTEX
  8
0
 10
0.19630300
 20
1.14250500
  0
VERTEX
  8
0
 10
0.20279400
 20
1.14216000
  0
VERTEX
  8
0
 10
0.20916800
 20
1.14187700
  0
VERTEX
  8
0
 10
0.21542600
 20
1.14165400
  0
VERTEX
  8
0
 10
0.22156600
 20
1.14148900
  0
VERTEX
  8
0
 10
0.22758800
 20
1.14137900
  0
VERTEX
  8
0
 10
0.23349200
 20
1.14132300
  0
VERTEX
  8
0
 10
0.23927600
 20
1.14131900
  0
VERTEX
  8
0
 10
0.24494100
 20
1.14136400
  0
VERTEX
  8
0
 10
0.25048700
 20
1.14145700
  0
VERTEX
  8
0
 10
0.25591200
 20
1.14159500
  0
VERTEX
  8
0
 10
0.26121600
 20
1.14177600
  0
VERTEX
  8
0
 10
0.26640000
 20
1.14199800
  0
VERTEX
  8
0
 10
0.27146200
 20
1.14226000
  0
VERTEX
  8
0
 10
0.27640200
 20
1.14255800
  0
VERTEX
  8
0
 10
0.28122100
 20
1.14289200
  0
VERTEX
  8
0
 10
0.28591800
 20
1.14325800
  0
VERTEX
  8
0
 10
0.29049300
 20
1.14365500
  0
VERTEX
  8
0
 10
0.29494500
 20
1.14408000
  0
VERTEX
  8
0
 10
0.29927500
 20
1.14453200
  0
VERTEX
  8
0
 10
0.30348200
 20
1.14500800
  0
VERTEX
  8
0
 10
0.30756700
 20
1.14550600
  0
VERTEX
  8
0
 10
0.31152800
 20
1.14602500
  0
VERTEX
  8
0
 10
0.31536700
 20
1.14656200
  0
VERTEX
  8
0
 10
0.31908300
 20
1.14711400
  0
VERTEX
  8
0
 10
0.32267700
 20
1.14768000
  0
VERTEX
  8
0
 10
0.32614700
 20
1.14825900
  0
VERTEX
  8
0
 10
0.32949500
 20
1.14884600
  0
VERTEX
  8
0
 10
0.33272100
 20
1.14944200
  0
VERTEX
  8
0
 10
0.33582400
 20
1.15004200
  0
VERTEX
  8
0
 10
0.33880500
 20
1.15064600
  0
VERTEX
  8
0
 10
0.34166300
 20
1.15125200
  0
VERTEX
  8
0
 10
0.34440000
 20
1.15185600
  0
VERTEX
  8
0
 10
0.34701500
 20
1.15245800
  0
VERTEX
  8
0
 10
0.34950900
 20
1.15305500
  0
VERTEX
  8
0
 10
0.35188200
 20
1.15364400
  0
VERTEX
  8
0
 10
0.35413400
 20
1.15422500
  0
VERTEX
  8
0
 10
0.35626600
 20
1.15479400
  0
VERTEX
  8
0
 10
0.35827800
 20
1.15535100
  0
VERTEX
  8
0
 10
0.36194300
 20
1.15641500
  0
VERTEX
  8
0
 10
0.36513300
 20
1.15740300
  0
VERTEX
  8
0
 10
0.36785200
 20
1.15829600
  0
VERTEX
  8
0
 10
0.37010500
 20
1.15908100
  0
VERTEX
  8
0
 10
0.37262000
 20
1.16001600
  0
VERTEX
  8
0
 10
0.37460800
 20
1.16082800
  0
VERTEX
  8
0
 10
0.44127800
 20
1.19080200
  0
VERTEX
  8
0
 10
0.51001200
 20
1.05650800
  0
VERTEX
  8
0
 10
0.44670700
 20
1.01995900
  0
VERTEX
  8
0
 10
0.44488600
 20
1.01882100
  0
VERTEX
  8
0
 10
0.44265600
 20
1.01732800
  0
VERTEX
  8
0
 10
0.44070300
 20
1.01596000
  0
VERTEX
  8
0
 10
0.43838700
 20
1.01427700
  0
VERTEX
  8
0
 10
0.43572100
 20
1.01226600
  0
VERTEX
  8
0
 10
0.43271400
 20
1.00991600
  0
VERTEX
  8
0
 10
0.43108600
 20
1.00861000
  0
VERTEX
  8
0
 10
0.42937700
 20
1.00721300
  0
VERTEX
  8
0
 10
0.42758900
 20
1.00572600
  0
VERTEX
  8
0
 10
0.42572300
 20
1.00414600
  0
VERTEX
  8
0
 10
0.42378000
 20
1.00247200
  0
VERTEX
  8
0
 10
0.42176300
 20
1.00070300
  0
VERTEX
  8
0
 10
0.41967200
 20
0.99883700
  0
VERTEX
  8
0
 10
0.41750900
 20
0.99687200
  0
VERTEX
  8
0
 10
0.41527600
 20
0.99480700
  0
VERTEX
  8
0
 10
0.41297400
 20
0.99264200
  0
VERTEX
  8
0
 10
0.41060500
 20
0.99037300
  0
VERTEX
  8
0
 10
0.40817000
 20
0.98800100
  0
VERTEX
  8
0
 10
0.40567100
 20
0.98552400
  0
VERTEX
  8
0
 10
0.40311000
 20
0.98294100
  0
VERTEX
  8
0
 10
0.40048900
 20
0.98025000
  0
VERTEX
  8
0
 10
0.39780800
 20
0.97745000
  0
VERTEX
  8
0
 10
0.39507000
 20
0.97453900
  0
VERTEX
  8
0
 10
0.39227800
 20
0.97151800
  0
VERTEX
  8
0
 10
0.38943100
 20
0.96838300
  0
VERTEX
  8
0
 10
0.38653200
 20
0.96513600
  0
VERTEX
  8
0
 10
0.38358300
 20
0.96177300
  0
VERTEX
  8
0
 10
0.38058600
 20
0.95829400
  0
VERTEX
  8
0
 10
0.37754200
 20
0.95469800
  0
VERTEX
  8
0
 10
0.37445300
 20
0.95098500
  0
VERTEX
  8
0
 10
0.37132100
 20
0.94715100
  0
VERTEX
  8
0
 10
0.36814900
 20
0.94319800
  0
VERTEX
  8
0
 10
0.36493700
 20
0.93912400
  0
VERTEX
  8
0
 10
0.36168800
 20
0.93492700
  0
VERTEX
  8
0
 10
0.35840300
 20
0.93060700
  0
VERTEX
  8
0
 10
0.35508500
 20
0.92616400
  0
VERTEX
  8
0
 10
0.35173500
 20
0.92159500
  0
VERTEX
  8
0
 10
0.34835500
 20
0.91690000
  0
VERTEX
  8
0
 10
0.34494800
 20
0.91207900
  0
VERTEX
  8
0
 10
0.34151500
 20
0.90713000
  0
VERTEX
  8
0
 10
0.33805800
 20
0.90205300
  0
VERTEX
  8
0
 10
0.33457900
 20
0.89684600
  0
VERTEX
  8
0
 10
0.33108100
 20
0.89151000
  0
VERTEX
  8
0
 10
0.32756500
 20
0.88604300
  0
VERTEX
  8
0
 10
0.32403200
 20
0.88044500
  0
VERTEX
  8
0
 10
0.32048600
 20
0.87471400
  0
VERTEX
  8
0
 10
0.31692900
 20
0.86885100
  0
VERTEX
  8
0
 10
0.31336100
 20
0.86285500
  0
VERTEX
  8
0
 10
0.30978600
 20
0.85672500
  0
VERTEX
  8
0
 10
0.30620600
 20
0.85046000
  0
VERTEX
  8
0
 10
0.30262200
 20
0.84406000
  0
VERTEX
  8
0
 10
0.29903700
 20
0.83752500
  0
VERTEX
  8
0
 10
0.29545200
 20
0.83085300
  0
VERTEX
  8
0
 10
0.29187000
 20
0.82404500
  0
VERTEX
  8
0
 10
0.28923900
 20
0.81893700
  0
VERTEX
  8
0
 10
0.34566900
 20
0.73715100
  0
VERTEX
  8
0
 10
0.35137800
 20
0.73779700
  0
VERTEX
  8
0
 10
0.35901400
 20
0.73872900
  0
VERTEX
  8
0
 10
0.36652400
 20
0.73971200
  0
VERTEX
  8
0
 10
0.37390600
 20
0.74074400
  0
VERTEX
  8
0
 10
0.38116100
 20
0.74182300
  0
VERTEX
  8
0
 10
0.38828900
 20
0.74294600
  0
VERTEX
  8
0
 10
0.39528900
 20
0.74411200
  0
VERTEX
  8
0
 10
0.40216100
 20
0.74531900
  0
VERTEX
  8
0
 10
0.40890500
 20
0.74656300
  0
VERTEX
  8
0
 10
0.41552100
 20
0.74784400
  0
VERTEX
  8
0
 10
0.42200900
 20
0.74915900
  0
VERTEX
  8
0
 10
0.42836800
 20
0.75050600
  0
VERTEX
  8
0
 10
0.43459900
 20
0.75188200
  0
VERTEX
  8
0
 10
0.44070100
 20
0.75328600
  0
VERTEX
  8
0
 10
0.44667400
 20
0.75471600
  0
VERTEX
  8
0
 10
0.45252000
 20
0.75616900
  0
VERTEX
  8
0
 10
0.45823700
 20
0.75764300
  0
VERTEX
  8
0
 10
0.46382500
 20
0.75913600
  0
VERTEX
  8
0
 10
0.46928600
 20
0.76064500
  0
VERTEX
  8
0
 10
0.47461800
 20
0.76217000
  0
VERTEX
  8
0
 10
0.47982200
 20
0.76370800
  0
VERTEX
  8
0
 10
0.48489900
 20
0.76525600
  0
VERTEX
  8
0
 10
0.48984800
 20
0.76681200
  0
VERTEX
  8
0
 10
0.49467000
 20
0.76837500
  0
VERTEX
  8
0
 10
0.49936500
 20
0.76994200
  0
VERTEX
  8
0
 10
0.50393400
 20
0.77151100
  0
VERTEX
  8
0
 10
0.50837600
 20
0.77308000
  0
VERTEX
  8
0
 10
0.51269200
 20
0.77464800
  0
VERTEX
  8
0
 10
0.51688200
 20
0.77621100
  0
VERTEX
  8
0
 10
0.52094800
 20
0.77776800
  0
VERTEX
  8
0
 10
0.52488800
 20
0.77931700
  0
VERTEX
  8
0
 10
0.52870500
 20
0.78085500
  0
VERTEX
  8
0
 10
0.53239700
 20
0.78238200
  0
VERTEX
  8
0
 10
0.53596600
 20
0.78389300
  0
VERTEX
  8
0
 10
0.53941300
 20
0.78538900
  0
VERTEX
  8
0
 10
0.54273700
 20
0.78686600
  0
VERTEX
  8
0
 10
0.54594000
 20
0.78832300
  0
VERTEX
  8
0
 10
0.54902200
 20
0.78975700
  0
VERTEX
  8
0
 10
0.55198300
 20
0.79116700
  0
VERTEX
  8
0
 10
0.55482500
 20
0.79255000
  0
VERTEX
  8
0
 10
0.55754800
 20
0.79390500
  0
VERTEX
  8
0
 10
0.56015300
 20
0.79523000
  0
VERTEX
  8
0
 10
0.56264000
 20
0.79652200
  0
VERTEX
  8
0
 10
0.56501000
 20
0.79778000
  0
VERTEX
  8
0
 10
0.56726400
 20
0.79900200
  0
VERTEX
  8
0
 10
0.56940400
 20
0.80018600
  0
VERTEX
  8
0
 10
0.57142900
 20
0.80132900
  0
VERTEX
  8
0
 10
0.57334100
 20
0.80243100
  0
VERTEX
  8
0
 10
0.57514000
 20
0.80348900
  0
VERTEX
  8
0
 10
0.57840400
 20
0.80546600
  0
VERTEX
  8
0
 10
0.58123000
 20
0.80724500
  0
VERTEX
  8
0
 10
0.58362600
 20
0.80881300
  0
VERTEX
  8
0
 10
0.58559900
 20
0.81015300
  0
VERTEX
  8
0
 10
0.58778600
 20
0.81170800
  0
VERTEX
  8
0
 10
0.58949600
 20
0.81300600
  0
VERTEX
  8
0
 10
0.64613700
 20
0.85921500
  0
VERTEX
  8
0
 10
0.74728600
 20
0.74728600
  0
VERTEX
  8
0
 10
0.69559800
 20
0.69559800
  0
VERTEX
  8
0
 10
0.69413400
 20
0.69402800
  0
VERTEX
  8
0
 10
0.69236600
 20
0.69200900
  0
VERTEX
  8
0
 10
0.69083300
 20
0.69018100
  0
VERTEX
  8
0
 10
0.68903200
 20
0.68795600
  0
VERTEX
  8
0
 10
0.68697700
 20
0.68532400
  0
VERTEX
  8
0
 10
0.68468100
 20
0.68227500
  0
VERTEX
  8
0
 10
0.68344700
 20
0.68059200
  0
VERTEX
  8
0
 10
0.68215700
 20
0.67880100
  0
VERTEX
  8
0
 10
0.68081500
 20
0.67690200
  0
VERTEX
  8
0
 10
0.67942200
 20
0.67489300
  0
VERTEX
  8
0
 10
0.67797900
 20
0.67277300
  0
VERTEX
  8
0
 10
0.67648800
 20
0.67054200
  0
VERTEX
  8
0
 10
0.67495100
 20
0.66819800
  0
VERTEX
  8
0
 10
0.67337000
 20
0.66574000
  0
VERTEX
  8
0
 10
0.67174700
 20
0.66316800
  0
VERTEX
  8
0
 10
0.67008400
 20
0.66048100
  0
VERTEX
  8
0
 10
0.66838300
 20
0.65767600
  0
VERTEX
  8
0
 10
0.66664500
 20
0.65475500
  0
VERTEX
  8
0
 10
0.66487300
 20
0.65171600
  0
VERTEX
  8
0
 10
0.66306800
 20
0.64855700
  0
VERTEX
  8
0
 10
0.66123200
 20
0.64527900
  0
VERTEX
  8
0
 10
0.65936800
 20
0.64188100
  0
VERTEX
  8
0
 10
0.65747600
 20
0.63836100
  0
VERTEX
  8
0
 10
0.65556100
 20
0.63472000
  0
VERTEX
  8
0
 10
0.65362200
 20
0.63095500
  0
VERTEX
  8
0
 10
0.65166300
 20
0.62706800
  0
VERTEX
  8
0
 10
0.64968500
 20
0.62305700
  0
VERTEX
  8
0
 10
0.64769000
 20
0.61892100
  0
VERTEX
  8
0
 10
0.64568000
 20
0.61466000
  0
VERTEX
  8
0
 10
0.64365800
 20
0.61027300
  0
VERTEX
  8
0
 10
0.64162500
 20
0.60576000
  0
VERTEX
  8
0
 10
0.63958400
 20
0.60112000
  0
VERTEX
  8
0
 10
0.63753600
 20
0.59635300
  0
VERTEX
  8
0
 10
0.63548300
 20
0.59145900
  0
VERTEX
  8
0
 10
0.63342900
 20
0.58643600
  0
VERTEX
  8
0
 10
0.63137400
 20
0.58128500
  0
VERTEX
  8
0
 10
0.62932100
 20
0.57600500
  0
VERTEX
  8
0
 10
0.62727100
 20
0.57059500
  0
VERTEX
  8
0
 10
0.62522800
 20
0.56505600
  0
VERTEX
  8
0
 10
0.62319300
 20
0.55938800
  0
VERTEX
  8
0
 10
0.62116800
 20
0.55358900
  0
VERTEX
  8
0
 10
0.61915500
 20
0.54765900
  0
VERTEX
  8
0
 10
0.61715700
 20
0.54159900
  0
VERTEX
  8
0
 10
0.61517500
 20
0.53540900
  0
VERTEX
  8
0
 10
0.61321200
 20
0.52908700
  0
VERTEX
  8
0
 10
0.61127000
 20
0.52263400
  0
VERTEX
  8
0
 10
0.60935100
 20
0.51605000
  0
VERTEX
  8
0
 10
0.60745800
 20
0.50933500
  0
VERTEX
  8
0
 10
0.60559100
 20
0.50248800
  0
VERTEX
  8
0
 10
0.60375400
 20
0.49551000
  0
VERTEX
  8
0
 10
0.60194900
 20
0.48840100
  0
VERTEX
  8
0
 10
0.60017700
 20
0.48116000
  0
VERTEX
  8
0
 10
0.59844100
 20
0.47378800
  0
VERTEX
  8
0
 10
0.59674300
 20
0.46628500
  0
VERTEX
  8
0
 10
0.59552400
 20
0.46067000
  0
VERTEX
  8
0
 10
0.67119900
 20
0.39627500
  0
VERTEX
  8
0
 10
0.67654600
 20
0.39837700
  0
VERTEX
  8
0
 10
0.68368100
 20
0.40125400
  0
VERTEX
  8
0
 10
0.69068000
 20
0.40414700
  0
VERTEX
  8
0
 10
0.69754400
 20
0.40705400
  0
VERTEX
  8
0
 10
0.70427300
 20
0.40997400
  0
VERTEX
  8
0
 10
0.71086700
 20
0.41290400
  0
VERTEX
  8
0
 10
0.71732700
 20
0.41584200
  0
VERTEX
  8
0
 10
0.72365300
 20
0.41878600
  0
VERTEX
  8
0
 10
0.72984500
 20
0.42173400
  0
VERTEX
  8
0
 10
0.73590400
 20
0.42468400
  0
VERTEX
  8
0
 10
0.74183000
 20
0.42763300
  0
VERTEX
  8
0
 10
0.74762400
 20
0.43058000
  0
VERTEX
  8
0
 10
0.75328600
 20
0.43352200
  0
VERTEX
  8
0
 10
0.75881700
 20
0.43645700
  0
VERTEX
  8
0
 10
0.76421700
 20
0.43938400
  0
VERTEX
  8
0
 10
0.76948700
 20
0.44230000
  0
VERTEX
  8
0
 10
0.77462700
 20
0.44520400
  0
VERTEX
  8
0
 10
0.77963900
 20
0.44809200
  0
VERTEX
  8
0
 10
0.78452300
 20
0.45096400
  0
VERTEX
  8
0
 10
0.78927900
 20
0.45381700
  0
VERTEX
  8
0
 10
0.79390800
 20
0.45664900
  0
VERTEX
  8
0
 10
0.79841100
 20
0.45945800
  0
VERTEX
  8
0
 10
0.80278900
 20
0.46224200
  0
VERTEX
  8
0
 10
0.80704200
 20
0.46500000
  0
VERTEX
  8
0
 10
0.81117100
 20
0.46772900
  0
VERTEX
  8
0
 10
0.81517800
 20
0.47042700
  0
VERTEX
  8
0
 10
0.81906200
 20
0.47309200
  0
VERTEX
  8
0
 10
0.82282600
 20
0.47572400
  0
VERTEX
  8
0
 10
0.82646900
 20
0.47831800
  0
VERTEX
  8
0
 10
0.82999300
 20
0.48087400
  0
VERTEX
  8
0
 10
0.83339800
 20
0.48339000
  0
VERTEX
  8
0
 10
0.83668600
 20
0.48586400
  0
VERTEX
  8
0
 10
0.83985800
 20
0.48829400
  0
VERTEX
  8
0
 10
0.84291400
 20
0.49067800
  0
VERTEX
  8
0
 10
0.84585600
 20
0.49301500
  0
VERTEX
  8
0
 10
0.84868500
 20
0.49530200
  0
VERTEX
  8
0
 10
0.85140200
 20
0.49753800
  0
VERTEX
  8
0
 10
0.85400700
 20
0.49972100
  0
VERTEX
  8
0
 10
0.85650300
 20
0.50184900
  0
VERTEX
  8
0
 10
0.85889000
 20
0.50392100
  0
VERTEX
  8
0
 10
0.86116900
 20
0.50593400
  0
VERTEX
  8
0
 10
0.86334200
 20
0.50788800
  0
VERTEX
  8
0
 10
0.86541000
 20
0.50978000
  0
VERTEX
  8
0
 10
0.86737400
 20
0.51160900
  0
VERTEX
  8
0
 10
0.86923600
 20
0.51337200
  0
VERTEX
  8
0
 10
0.87099600
 20
0.51506900
  0
VERTEX
  8
0
 10
0.87265600
 20
0.51669800
  0
VERTEX
  8
0
 10
0.87421700
 20
0.51825700
  0
VERTEX
  8
0
 10
0.87568100
 20
0.51974500
  0
VERTEX
  8
0
 10
0.87832300
 20
0.52249900
  0
VERTEX
  8
0
 10
0.88059200
 20
0.52495000
  0
VERTEX
  8
0
 10
0.88250000
 20
0.52708300
  0
VERTEX
  8
0
 10
0.88405900
 20
0.52888900
  0
VERTEX
  8
0
 10
0.88576900
 20
0.53095700
  0
VERTEX
  8
0
 10
0.88708500
 20
0.53265300
  0
VERTEX
  8
0
 10
0.92983600
 20
0.59194700
  0
VERTEX
  8
0
 10
1.05650800
 20
0.51001200
  0
VERTEX
  8
0
 10
1.01995900
 20
0.44670700
  0
VERTEX
  8
0
 10
1.01895100
 20
0.44481100
  0
VERTEX
  8
0
 10
1.01776600
 20
0.44240300
  0
VERTEX
  8
0
 10
1.01675900
 20
0.44024100
  0
VERTEX
  8
0
 10
1.01559500
 20
0.43762600
  0
VERTEX
  8
0
 10
1.01429100
 20
0.43455200
  0
VERTEX
  8
0
 10
1.01286200
 20
0.43101300
  0
VERTEX
  8
0
 10
1.01210500
 20
0.42906700
  0
VERTEX
  8
0
 10
1.01132400
 20
0.42700400
  0
VERTEX
  8
0
 10
1.01051900
 20
0.42482200
  0
VERTEX
  8
0
 10
1.00969300
 20
0.42252100
  0
VERTEX
  8
0
 10
1.00884700
 20
0.42010000
  0
VERTEX
  8
0
 10
1.00798500
 20
0.41755900
  0
VERTEX
  8
0
 10
1.00710700
 20
0.41489700
  0
VERTEX
  8
0
 10
1.00621600
 20
0.41211400
  0
VERTEX
  8
0
 10
1.00531500
 20
0.40920900
  0
VERTEX
  8
0
 10
1.00440400
 20
0.40618300
  0
VERTEX
  8
0
 10
1.00348600
 20
0.40303400
  0
VERTEX
  8
0
 10
1.00256400
 20
0.39976200
  0
VERTEX
  8
0
 10
1.00163800
 20
0.39636800
  0
VERTEX
  8
0
 10
1.00071200
 20
0.39285000
  0
VERTEX
  8
0
 10
0.99978700
 20
0.38920800
  0
VERTEX
  8
0
 10
0.99886600
 20
0.38544300
  0
VERTEX
  8
0
 10
0.99795000
 20
0.38155400
  0
VERTEX
  8
0
 10
0.99704200
 20
0.37754100
  0
VERTEX
  8
0
 10
0.99614400
 20
0.37340300
  0
VERTEX
  8
0
 10
0.99525800
 20
0.36914100
  0
VERTEX
  8
0
 10
0.99438500
 20
0.36475400
  0
VERTEX
  8
0
 10
0.99352900
 20
0.36024300
  0
VERTEX
  8
0
 10
0.99269100
 20
0.35560700
  0
VERTEX
  8
0
 10
0.99187300
 20
0.35084600
  0
VERTEX
  8
0
 10
0.99107700
 20
0.34596100
  0
VERTEX
  8
0
 10
0.99030600
 20
0.34095100
  0
VERTEX
  8
0
 10
0.98956200
 20
0.33581700
  0
VERTEX
  8
0
 10
0.98884600
 20
0.33055700
  0
VERTEX
  8
0
 10
0.98816100
 20
0.32517400
  0
VERTEX
  8
0
 10
0.98751000
 20
0.31966700
  0
VERTEX
  8
0
 10
0.98689300
 20
0.31403500
  0
VERTEX
  8
0
 10
0.98631300
 20
0.30827900
  0
VERTEX
  8
0
 10
0.98577300
 20
0.30240000
  0
VERTEX
  8
0
 10
0.98527500
 20
0.29639800
  0
VERTEX
  8
0
 10
0.98481900
 20
0.29027200
  0
VERTEX
  8
0
 10
0.98441000
 20
0.28402400
  0
VERTEX
  8
0
 10
0.98404800
 20
0.27765400
  0
VERTEX
  8
0
 10
0.98373700
 20
0.27116100
  0
VERTEX
  8
0
 10
0.98347700
 20
0.26454700
  0
VERTEX
  8
0
 10
0.98327100
 20
0.25781100
  0
VERTEX
  8
0
 10
0.98312200
 20
0.25095500
  0
VERTEX
  8
0
 10
0.98303000
 20
0.24397800
  0
VERTEX
  8
0
 10
0.98299900
 20
0.23688200
  0
VERTEX
  8
0
 10
0.98303100
 20
0.22966600
  0
VERTEX
  8
0
 10
0.98312700
 20
0.22233200
  0
VERTEX
  8
0
 10
0.98329000
 20
0.21487900
  0
VERTEX
  8
0
 10
0.98352100
 20
0.20730900
  0
VERTEX
  8
0
 10
0.98382300
 20
0.19962200
  0
VERTEX
  8
0
 10
0.98409900
 20
0.19388300
  0
VERTEX
  8
0
 10
1.07386200
 20
0.15126900
  0
VERTEX
  8
0
 10
1.07848300
 20
0.15468300
  0
VERTEX
  8
0
 10
1.08463000
 20
0.15930800
  0
VERTEX
  8
0
 10
1.09064200
 20
0.16391400
  0
VERTEX
  8
0
 10
1.09651900
 20
0.16849900
  0
VERTEX
  8
0
 10
1.10226300
 20
0.17306100
  0
VERTEX
  8
0
 10
1.10787400
 20
0.17759800
  0
VERTEX
  8
0
 10
1.11335400
 20
0.18210800
  0
VERTEX
  8
0
 10
1.11870200
 20
0.18658900
  0
VERTEX
  8
0
 10
1.12392000
 20
0.19103900
  0
VERTEX
  8
0
 10
1.12900900
 20
0.19545600
  0
VERTEX
  8
0
 10
1.13397000
 20
0.19983800
  0
VERTEX
  8
0
 10
1.13880400
 20
0.20418400
  0
VERTEX
  8
0
 10
1.14351100
 20
0.20849100
  0
VERTEX
  8
0
 10
1.14809400
 20
0.21275900
  0
VERTEX
  8
0
 10
1.15255300
 20
0.21698300
  0
VERTEX
  8
0
 10
1.15688800
 20
0.22116400
  0
VERTEX
  8
0
 10
1.16110200
 20
0.22529900
  0
VERTEX
  8
0
 10
1.16519600
 20
0.22938600
  0
VERTEX
  8
0
 10
1.16917000
 20
0.23342400
  0
VERTEX
  8
0
 10
1.17302500
 20
0.23741100
  0
VERTEX
  8
0
 10
1.17676400
 20
0.24134400
  0
VERTEX
  8
0
 10
1.18038600
 20
0.24522300
  0
VERTEX
  8
0
 10
1.18389400
 20
0.24904600
  0
VERTEX
  8
0
 10
1.18728900
 20
0.25281000
  0
VERTEX
  8
0
 10
1.19057100
 20
0.25651500
  0
VERTEX
  8
0
 10
1.19374300
 20
0.26015800
  0
VERTEX
  8
0
 10
1.19680500
 20
0.26373800
  0
VERTEX
  8
0
 10
1.19975900
 20
0.26725400
  0
VERTEX
  8
0
 10
1.20260700
 20
0.27070300
  0
VERTEX
  8
0
 10
1.20534900
 20
0.27408400
  0
VERTEX
  8
0
 10
1.20798700
 20
0.27739500
  0
VERTEX
  8
0
 10
1.21052300
 20
0.28063600
  0
VERTEX
  8
0
 10
1.21295800
 20
0.28380400
  0
VERTEX
  8
0
 10
1.21529300
 20
0.28689800
  0
VERTEX
  8
0
 10
1.21753000
 20
0.28991600
  0
VERTEX
  8
0
 10
1.21967000
 20
0.29285800
  0
VERTEX
  8
0
 10
1.22171600
 20
0.29572000
  0
VERTEX
  8
0
 10
1.22366700
 20
0.29850400
  0
VERTEX
  8
0
 10
1.22552700
 20
0.30120500
  0
VERTEX
  8
0
 10
1.22729700
 20
0.30382400
  0
VERTEX
  8
0
 10
1.22897700
 20
0.30635900
  0
VERTEX
  8
0
 10
1.23057100
 20
0.30880800
  0
VERTEX
  8
0
 10
1.23207800
 20
0.31117100
  0
VERTEX
  8
0
 10
1.23350200
 20
0.31344600
  0
VERTEX
  8
0
 10
1.23484400
 20
0.31563100
  0
VERTEX
  8
0
 10
1.23610400
 20
0.31772600
  0
VERTEX
  8
0
 10
1.23728600
 20
0.31972900
  0
VERTEX
  8
0
 10
1.23839100
 20
0.32163900
  0
VERTEX
  8
0
 10
1.23942000
 20
0.32345500
  0
VERTEX
  8
0
 10
1.24125900
 20
0.32679900
  0
VERTEX
  8
0
 10
1.24281700
 20
0.32975300
  0
VERTEX
  8
0
 10
1.24410800
 20
0.33230800
  0
VERTEX
  8
0
 10
1.24514600
 20
0.33445600
  0
VERTEX
  8
0
 10
1.24626300
 20
0.33689600
  0
VERTEX
  8
0
 10
1.24709400
 20
0.33887500
  0
VERTEX
  8
0
 10
1.27304200
 20
0.40721300
  0
VERTEX
  8
0
 10
1.41660500
 20
0.36085500
  0
VERTEX
  8
0
 10
1.39768500
 20
0.29024700
  0
VERTEX
  8
0
 10
1.39720300
 20
0.28815500
  0
VERTEX
  8
0
 10
1.39668100
 20
0.28552300
  0
VERTEX
  8
0
 10
1.39626800
 20
0.28317400
  0
VERTEX
  8
0
 10
1.39582100
 20
0.28034600
  0
VERTEX
  8
0
 10
1.39535700
 20
0.27703900
  0
VERTEX
  8
0
 10
1.39489200
 20
0.27325100
  0
VERTEX
  8
0
 10
1.39466500
 20
0.27117600
  0
VERTEX
  8
0
 10
1.39444400
 20
0.26898100
  0
VERTEX
  8
0
 10
1.39423100
 20
0.26666500
  0
VERTEX
  8
0
 10
1.39402900
 20
0.26422800
  0
VERTEX
  8
0
 10
1.39383900
 20
0.26167100
  0
VERTEX
  8
0
 10
1.39366400
 20
0.25899300
  0
VERTEX
  8
0
 10
1.39350500
 20
0.25619500
  0
VERTEX
  8
0
 10
1.39336500
 20
0.25327600
  0
VERTEX
  8
0
 10
1.39324500
 20
0.25023700
  0
VERTEX
  8
0
 10
1.39314900
 20
0.24707800
  0
VERTEX
  8
0
 10
1.39307700
 20
0.24379900
  0
VERTEX
  8
0
 10
1.39303300
 20
0.24040000
  0
VERTEX
  8
0
 10
1.39301800
 20
0.23688200
  0
VERTEX
  8
0
 10
1.39303400
 20
0.23324400
  0
VERTEX
  8
0
 10
1.39308300
 20
0.22948700
  0
VERTEX
  8
0
 10
1.39316800
 20
0.22561200
  0
VERTEX
  8
0
 10
1.39329000
 20
0.22161800
  0
VERTEX
  8
0
 10
1.39345100
 20
0.21750700
  0
VERTEX
  8
0
 10
1.39365500
 20
0.21327800
  0
VERTEX
  8
0
 10
1.39390100
 20
0.20893100
  0
VERTEX
  8
0
 10
1.39419400
 20
0.20446800
  0
VERTEX
  8
0
 10
1.39453400
 20
0.19988900
  0
VERTEX
  8
0
 10
1.39492500
 20
0.19519400
  0
VERTEX
  8
0
 10
1.39536700
 20
0.19038400
  0
VERTEX
  8
0
 10
1.39586300
 20
0.18545900
  0
VERTEX
  8
0
 10
1.39641500
 20
0.18042000
  0
VERTEX
  8
0
 10
1.39702500
 20
0.17526800
  0
VERTEX
  8
0
 10
1.39769400
 20
0.17000300
  0
VERTEX
  8
0
 10
1.39842600
 20
0.16462600
  0
VERTEX
  8
0
 10
1.39922200
 20
0.15913700
  0
VERTEX
  8
0
 10
1.40008400
 20
0.15353800
  0
VERTEX
  8
0
 10
1.40101400
 20
0.14782900
  0
VERTEX
  8
0
 10
1.40201400
 20
0.14201000
  0
VERTEX
  8
0
 10
1.40308600
 20
0.13608300
  0
VERTEX
  8
0
 10
1.40423200
 20
0.13004900
  0
VERTEX
  8
0
 10
1.40545300
 20
0.12390700
  0
VERTEX
  8
0
 10
1.40675300
 20
0.11766000
  0
VERTEX
  8
0
 10
1.40813200
 20
0.11130800
  0
VERTEX
  8
0
 10
1.40959300
 20
0.10485200
  0
VERTEX
  8
0
 10
1.41113800
 20
0.09829300
  0
VERTEX
  8
0
 10
1.41276800
 20
0.09163100
  0
VERTEX
  8
0
 10
1.41448500
 20
0.08486900
  0
VERTEX
  8
0
 10
1.41629200
 20
0.07800600
  0
VERTEX
  8
0
 10
1.41819000
 20
0.07104400
  0
VERTEX
  8
0
 10
1.42018100
 20
0.06398500
  0
VERTEX
  8
0
 10
1.42226700
 20
0.05682800
  0
VERTEX
  8
0
 10
1.42445000
 20
0.04957600
  0
VERTEX
  8
0
 10
1.42673100
 20
0.04222900
  0
VERTEX
  8
0
 10
1.42848300
 20
0.03675700
  0
VERTEX
  8
0
 10
1.52621700
 20
0.01882700
  0
VERTEX
  8
0
 10
1.52979700
 20
0.02332100
  0
VERTEX
  8
0
 10
1.53453700
 20
0.02937900
  0
VERTEX
  8
0
 10
1.53915200
 20
0.03538400
  0
VERTEX
  8
0
 10
1.54364300
 20
0.04133500
  0
VERTEX
  8
0
 10
1.54801000
 20
0.04722800
  0
VERTEX
  8
0
 10
1.55225600
 20
0.05306200
  0
VERTEX
  8
0
 10
1.55638100
 20
0.05883600
  0
VERTEX
  8
0
 10
1.56038700
 20
0.06454900
  0
VERTEX
  8
0
 10
1.56427600
 20
0.07019800
  0
VERTEX
  8
0
 10
1.56804800
 20
0.07578200
  0
VERTEX
  8
0
 10
1.57170600
 20
0.08129900
  0
VERTEX
  8
0
 10
1.57525000
 20
0.08674800
  0
VERTEX
  8
0
 10
1.57868300
 20
0.09212700
  0
VERTEX
  8
0
 10
1.58200500
 20
0.09743400
  0
VERTEX
  8
0
 10
1.58521800
 20
0.10266900
  0
VERTEX
  8
0
 10
1.58832400
 20
0.10783000
  0
VERTEX
  8
0
 10
1.59132400
 20
0.11291400
  0
VERTEX
  8
0
 10
1.59422000
 20
0.11792200
  0
VERTEX
  8
0
 10
1.59701300
 20
0.12285100
  0
VERTEX
  8
0
 10
1.59970600
 20
0.12769900
  0
VERTEX
  8
0
 10
1.60229900
 20
0.13246600
  0
VERTEX
  8
0
 10
1.60479400
 20
0.13715100
  0
VERTEX
  8
0
 10
1.60719300
 20
0.14175100
  0
VERTEX
  8
0
 10
1.60949800
 20
0.14626600
  0
VERTEX
  8
0
 10
1.61171000
 20
0.15069400
  0
VERTEX
  8
0
 10
1.61383000
 20
0.15503400
  0
VERTEX
  8
0
 10
1.61586200
 20
0.15928400
  0
VERTEX
  8
0
 10
1.61780500
 20
0.16344500
  0
VERTEX
  8
0
 10
1.61966300
 20
0.16751300
  0
VERTEX
  8
0
 10
1.62143700
 20
0.17148900
  0
VERTEX
  8
0
 10
1.62312800
 20
0.17537000
  0
VERTEX
  8
0
 10
1.62473900
 20
0.17915700
  0
VERTEX
  8
0
 10
1.62627000
 20
0.18284700
  0
VERTEX
  8
0
 10
1.62772500
 20
0.18644000
  0
VERTEX
  8
0
 10
1.62910500
 20
0.18993400
  0
VERTEX
  8
0
 10
1.63041100
 20
0.19332900
  0
VERTEX
  8
0
 10
1.63164600
 20
0.19662400
  0
VERTEX
  8
0
 10
1.63281100
 20
0.19981800
  0
VERTEX
  8
0
 10
1.63390800
 20
0.20290800
  0
VERTEX
  8
0
 10
1.63493900
 20
0.20589600
  0
VERTEX
  8
0
 10
1.63590600
 20
0.20878000
  0
VERTEX
  8
0
 10
1.63681100
 20
0.21155800
  0
VERTEX
  8
0
 10
1.63765600
 20
0.21423000
  0
VERTEX
  8
0
 10
1.63844300
 20
0.21679600
  0
VERTEX
  8
0
 10
1.63917300
 20
0.21925400
  0
VERTEX
  8
0
 10
1.63984900
 20
0.22160400
  0
VERTEX
  8
0
 10
1.64047200
 20
0.22384500
  0
VERTEX
  8
0
 10
1.64104500
 20
0.22597600
  0
VERTEX
  8
0
 10
1.64156900
 20
0.22799600
  0
VERTEX
  8
0
 10
1.64247900
 20
0.23170200
  0
VERTEX
  8
0
 10
1.64321900
 20
0.23495900
  0
VERTEX
  8
0
 10
1.64380500
 20
0.23776100
  0
VERTEX
  8
0
 10
1.64425200
 20
0.24010400
  0
VERTEX
  8
0
 10
1.64469900
 20
0.24275000
  0
VERTEX
  8
0
 10
1.64499000
 20
0.24487700
  0
VERTEX
  8
0
 10
1.65236700
 20
0.31760200
  0
VERTEX
  8
0
 10
1.80303600
 20
0.30998000
  0
VERTEX
  8
0
 10
1.80303600
 20
0.23688200
  0
VERTEX
  8
0
 10
1.80311100
 20
0.23473600
  0
VERTEX
  8
0
 10
1.80328900
 20
0.23205900
  0
VERTEX
  8
0
 10
1.80349700
 20
0.22968200
  0
VERTEX
  8
0
 10
1.80379700
 20
0.22683600
  0
VERTEX
  8
0
 10
1.80420500
 20
0.22352100
  0
VERTEX
  8
0
 10
1.80473700
 20
0.21974200
  0
VERTEX
  8
0
 10
1.80505400
 20
0.21767900
  0
VERTEX
  8
0
 10
1.80540900
 20
0.21550100
  0
VERTEX
  8
0
 10
1.80580300
 20
0.21320900
  0
VERTEX
  8
0
 10
1.80623800
 20
0.21080300
  0
VERTEX
  8
0
 10
1.80671700
 20
0.20828400
  0
VERTEX
  8
0
 10
1.80724000
 20
0.20565200
  0
VERTEX
  8
0
 10
1.80781100
 20
0.20290800
  0
VERTEX
  8
0
 10
1.80843100
 20
0.20005200
  0
VERTEX
  8
0
 10
1.80910200
 20
0.19708600
  0
VERTEX
  8
0
 10
1.80982700
 20
0.19400900
  0
VERTEX
  8
0
 10
1.81060700
 20
0.19082400
  0
VERTEX
  8
0
 10
1.81144300
 20
0.18752900
  0
VERTEX
  8
0
 10
1.81233900
 20
0.18412700
  0
VERTEX
  8
0
 10
1.81329600
 20
0.18061700
  0
VERTEX
  8
0
 10
1.81431600
 20
0.17700100
  0
VERTEX
  8
0
 10
1.81540100
 20
0.17328000
  0
VERTEX
  8
0
 10
1.81655200
 20
0.16945400
  0
VERTEX
  8
0
 10
1.81777300
 20
0.16552400
  0
VERTEX
  8
0
 10
1.81906400
 20
0.16149200
  0
VERTEX
  8
0
 10
1.82042700
 20
0.15735700
  0
VERTEX
  8
0
 10
1.82186500
 20
0.15312200
  0
VERTEX
  8
0
 10
1.82337900
 20
0.14878700
  0
VERTEX
  8
0
 10
1.82497100
 20
0.14435300
  0
VERTEX
  8
0
 10
1.82664300
 20
0.13982100
  0
VERTEX
  8
0
 10
1.82839700
 20
0.13519300
  0
VERTEX
  8
0
 10
1.83023400
 20
0.13046800
  0
VERTEX
  8
0
 10
1.83215600
 20
0.12564900
  0
VERTEX
  8
0
 10
1.83416600
 20
0.12073700
  0
VERTEX
  8
0
 10
1.83626500
 20
0.11573300
  0
VERTEX
  8
0
 10
1.83845400
 20
0.11063700
  0
VERTEX
  8
0
 10
1.84073600
 20
0.10545200
  0
VERTEX
  8
0
 10
1.84311200
 20
0.10017800
  0
VERTEX
  8
0
 10
1.84558400
 20
0.09481600
  0
VERTEX
  8
0
 10
1.84815300
 20
0.08936800
  0
VERTEX
  8
0
 10
1.85082100
 20
0.08383600
  0
VERTEX
  8
0
 10
1.85359100
 20
0.07822000
  0
VERTEX
  8
0
 10
1.85646300
 20
0.07252200
  0
VERTEX
  8
0
 10
1.85943900
 20
0.06674400
  0
VERTEX
  8
0
 10
1.86252200
 20
0.06088600
  0
VERTEX
  8
0
 10
1.86571100
 20
0.05495000
  0
VERTEX
  8
0
 10
1.86901000
 20
0.04893700
  0
VERTEX
  8
0
 10
1.87241900
 20
0.04284900
  0
VERTEX
  8
0
 10
1.87594100
 20
0.03668800
  0
VERTEX
  8
0
 10
1.87957600
 20
0.03045500
  0
VERTEX
  8
0
 10
1.88332600
 20
0.02415100
  0
VERTEX
  8
0
 10
1.88719400
 20
0.01777900
  0
VERTEX
  8
0
 10
1.89117900
 20
0.01133800
  0
VERTEX
  8
0
 10
1.89528400
 20
0.00483200
  0
VERTEX
  8
0
 10
1.89839200
 20
0.00000000
  0
VERTEX
  8
0
 10
1.99743600
 20
0.00797600
  0
VERTEX
  8
0
 10
1.99973100
 20
0.01324400
  0
VERTEX
  8
0
 10
2.00274200
 20
0.02032300
  0
VERTEX
  8
0
 10
2.00564600
 20
0.02731800
  0
VERTEX
  8
0
 10
2.00844300
 20
0.03422700
  0
VERTEX
  8
0
 10
2.01113700
 20
0.04105000
  0
VERTEX
  8
0
 10
2.01372700
 20
0.04778400
  0
VERTEX
  8
0
 10
2.01621800
 20
0.05443000
  0
VERTEX
  8
0
 10
2.01860900
 20
0.06098400
  0
VERTEX
  8
0
 10
2.02090300
 20
0.06744700
  0
VERTEX
  8
0
 10
2.02310200
 20
0.07381700
  0
VERTEX
  8
0
 10
2.02520700
 20
0.08009300
  0
VERTEX
  8
0
 10
2.02722000
 20
0.08627300
  0
VERTEX
  8
0
 10
2.02914300
 20
0.09235800
  0
VERTEX
  8
0
 10
2.03097800
 20
0.09834400
  0
VERTEX
  8
0
 10
2.03272700
 20
0.10423200
  0
VERTEX
  8
0
 10
2.03439200
 20
0.11002100
  0
VERTEX
  8
0
 10
2.03597400
 20
0.11570900
  0
VERTEX
  8
0
 10
2.03747500
 20
0.12129500
  0
VERTEX
  8
0
 10
2.03889700
 20
0.12677900
  0
VERTEX
  8
0
 10
2.04024300
 20
0.13215900
  0
VERTEX
  8
0
 10
2.04151400
 20
0.13743500
  0
VERTEX
  8
0
 10
2.04271200
 20
0.14260600
  0
VERTEX
  8
0
 10
2.04383800
 20
0.14767000
  0
VERTEX
  8
0
 10
2.04489600
 20
0.15262700
  0
VERTEX
  8
0
 10
2.04588600
 20
0.15747700
  0
VERTEX
  8
0
 10
2.04681200
 20
0.16221800
  0
VERTEX
  8
0
 10
2.04767400
 20
0.16685000
  0
VERTEX
  8
0
 10
2.04847400
 20
0.17137100
  0
VERTEX
  8
0
 10
2.04921600
 20
0.17578200
  0
VERTEX
  8
0
 10
2.04990000
 20
0.18008100
  0
VERTEX
  8
0
 10
2.05052900
 20
0.18426800
  0
VERTEX
  8
0
 10
2.05110500
 20
0.18834200
  0
VERTEX
  8
0
 10
2.05162900
 20
0.19230300
  0
VERTEX
  8
0
 10
2.05210500
 20
0.19615000
  0
VERTEX
  8
0
 10
2.05253300
 20
0.19988300
  0
VERTEX
  8
0
 10
2.05291600
 20
0.20350000
  0
VERTEX
  8
0
 10
2.05325600
 20
0.20700200
  0
VERTEX
  8
0
 10
2.05355400
 20
0.21038800
  0
VERTEX
  8
0
 10
2.05381400
 20
0.21365800
  0
VERTEX
  8
0
 10
2.05403700
 20
0.21681100
  0
VERTEX
  8
0
 10
2.05422500
 20
0.21984600
  0
VERTEX
  8
0
 10
2.05438000
 20
0.22276400
  0
VERTEX
  8
0
 10
2.05450500
 20
0.22556400
  0
VERTEX
  8
0
 10
2.05460000
 20
0.22824600
  0
VERTEX
  8
0
 10
2.05466900
 20
0.23080900
  0
VERTEX
  8
0
 10
2.05471400
 20
0.23325400
  0
VERTEX
  8
0
 10
2.05473600
 20
0.23558000
  0
VERTEX
  8
0
 10
2.05473800
 20
0.23778600
  0
VERTEX
  8
0
 10
2.05472100
 20
0.23987300
  0
VERTEX
  8
0
 10
2.05464100
 20
0.24368900
  0
VERTEX
  8
0
 10
2.05451300
 20
0.24702600
  0
VERTEX
  8
0
 10
2.05435400
 20
0.24988400
  0
VERTEX
  8
0
 10
2.05417900
 20
0.25226300
  0
VERTEX
  8
0
 10
2.05392600
 20
0.25493500
  0
VERTEX
  8
0
 10
2.05365700
 20
0.25706400
  0
VERTEX
  8
0
 10
2.04196000
 20
0.32922100
  0
VERTEX
  8
0
 10
2.18946700
 20
0.36085500
  0
VERTEX
  8
0
 10
2.20838700
 20
0.29024700
  0
VERTEX
  8
0
 10
2.20901400
 20
0.28819400
  0
VERTEX
  8
0
 10
2.20987900
 20
0.28565400
  0
VERTEX
  8
0
 10
2.21069600
 20
0.28341300
  0
VERTEX
  8
0
 10
2.21172200
 20
0.28074100
  0
VERTEX
  8
0
 10
2.21297400
 20
0.27764400
  0
VERTEX
  8
0
 10
2.21446500
 20
0.27413200
  0
VERTEX
  8
0
 10
2.21530600
 20
0.27222100
  0
VERTEX
  8
0
 10
2.21621300
 20
0.27020900
  0
VERTEX
  8
0
 10
2.21718600
 20
0.26809700
  0
VERTEX
  8
0
 10
2.21822900
 20
0.26588600
  0
VERTEX
  8
0
 10
2.21934300
 20
0.26357600
  0
VERTEX
  8
0
 10
2.22053000
 20
0.26117000
  0
VERTEX
  8
0
 10
2.22179200
 20
0.25866700
  0
VERTEX
  8
0
 10
2.22313000
 20
0.25606900
  0
VERTEX
  8
0
 10
2.22454600
 20
0.25337700
  0
VERTEX
  8
0
 10
2.22604200
 20
0.25059300
  0
VERTEX
  8
0
 10
2.22762000
 20
0.24771800
  0
VERTEX
  8
0
 10
2.22928100
 20
0.24475200
  0
VERTEX
  8
0
 10
2.23102700
 20
0.24169700
  0
VERTEX
  8
0
 10
2.23286000
 20
0.23855500
  0
VERTEX
  8
0
 10
2.23478100
 20
0.23532600
  0
VERTEX
  8
0
 10
2.23679200
 20
0.23201300
  0
VERTEX
  8
0
 10
2.23889400
 20
0.22861500
  0
VERTEX
  8
0
 10
2.24109000
 20
0.22513500
  0
VERTEX
  8
0
 10
2.24338100
 20
0.22157400
  0
VERTEX
  8
0
 10
2.24576700
 20
0.21793400
  0
VERTEX
  8
0
 10
2.24825200
 20
0.21421500
  0
VERTEX
  8
0
 10
2.25083700
 20
0.21041900
  0
VERTEX
  8
0
 10
2.25352200
 20
0.20654800
  0
VERTEX
  8
0
 10
2.25631000
 20
0.20260400
  0
VERTEX
  8
0
 10
2.25920200
 20
0.19858700
  0
VERTEX
  8
0
 10
2.26219900
 20
0.19449900
  0
VERTEX
  8
0
 10
2.26530400
 20
0.19034200
  0
VERTEX
  8
0
 10
2.26851600
 20
0.18611700
  0
VERTEX
  8
0
 10
2.27183900
 20
0.18182600
  0
VERTEX
  8
0
 10
2.27527200
 20
0.17747100
  0
VERTEX
  8
0
 10
2.27881800
 20
0.17305300
  0
VERTEX
  8
0
 10
2.28247800
 20
0.16857300
  0
VERTEX
  8
0
 10
2.28625400
 20
0.16403400
  0
VERTEX
  8
0
 10
2.29014500
 20
0.15943700
  0
VERTEX
  8
0
 10
2.29415500
 20
0.15478400
  0
VERTEX
  8
0
 10
2.29828400
 20
0.15007700
  0
VERTEX
  8
0
 10
2.30253300
 20
0.14531600
  0
VERTEX
  8
0
 10
2.30690300
 20
0.14050500
  0
VERTEX
  8
0
 10
2.31139600
 20
0.13564400
  0
VERTEX
  8
0
 10
2.31601400
 20
0.13073600
  0
VERTEX
  8
0
 10
2.32075600
 20
0.12578200
  0
VERTEX
  8
0
 10
2.32562500
 20
0.12078400
  0
VERTEX
  8
0
 10
2.33062100
 20
0.11574400
  0
VERTEX
  8
0
 10
2.33574600
 20
0.11066400
  0
VERTEX
  8
0
 10
2.34100000
 20
0.10554600
  0
VERTEX
  8
0
 10
2.34638500
 20
0.10039100
  0
VERTEX
  8
0
 10
2.35190100
 20
0.09520200
  0
VERTEX
  8
0
 10
2.35755000
 20
0.08998000
  0
VERTEX
  8
0
 10
2.36180300
 20
0.08611700
  0
VERTEX
  8
0
 10
2.45540800
 20
0.11945600
  0
VERTEX
  8
0
 10
2.45626100
 20
0.12513800
  0
VERTEX
  8
0
 10
2.45733800
 20
0.13275500
  0
VERTEX
  8
0
 10
2.45833200
 20
0.14026300
  0
VERTEX
  8
0
 10
2.45924600
 20
0.14766100
  0
VERTEX
  8
0
 10
2.46008100
 20
0.15494800
  0
VERTEX
  8
0
 10
2.46084100
 20
0.16212400
  0
VERTEX
  8
0
 10
2.46152600
 20
0.16918700
  0
VERTEX
  8
0
 10
2.46214000
 20
0.17613800
  0
VERTEX
  8
0
 10
2.46268300
 20
0.18297400
  0
VERTEX
  8
0
 10
2.46315800
 20
0.18969600
  0
VERTEX
  8
0
 10
2.46356700
 20
0.19630300
  0
VERTEX
  8
0
 10
2.46391200
 20
0.20279400
  0
VERTEX
  8
0
 10
2.46419500
 20
0.20916800
  0
VERTEX
  8
0
 10
2.46441800
 20
0.21542600
  0
VERTEX
  8
0
 10
2.46458300
 20
0.22156600
  0
VERTEX
  8
0
 10
2.46469300
 20
0.22758800
  0
VERTEX
  8
0
 10
2.46474900
 20
0.23349200
  0
VERTEX
  8
0
 10
2.46475300
 20
0.23927600
  0
VERTEX
  8
0
 10
2.46470800
 20
0.24494100
  0
VERTEX
  8
0
 10
2.46461500
 20
0.25048700
  0
VERTEX
  8
0
 10
2.46447700
 20
0.25591200
  0
VERTEX
  8
0
 10
2.46429600
 20
0.26121600
  0
VERTEX
  8
0
 10
2.46407400
 20
0.26640000
  0
VERTEX
  8
0
 10
2.46381200
 20
0.27146200
  0
VERTEX
  8
0
 10
2.46351400
 20
0.27640200
  0
VERTEX
  8
0
 10
2.46318000
 20
0.28122100
  0
VERTEX
  8
0
 10
2.46281400
 20
0.28591800
  0
VERTEX
  8
0
 10
2.46241700
 20
0.29049300
  0
VERTEX
  8
0
 10
2.46199200
 20
0.29494500
  0
VERTEX
  8
0
 10
2.46154000
 20
0.29927500
  0
VERTEX
  8
0
 10
2.46106400
 20
0.30348200
  0
VERTEX
  8
0
 10
2.46056600
 20
0.30756700
  0
VERTEX
  8
0
 10
2.46004700
 20
0.31152800
  0
VERTEX
  8
0
 10
2.45951000
 20
0.31536700
  0
VERTEX
  8
0
 10
2.45895800
 20
0.31908300
  0
VERTEX
  8
0
 10
2.45839200
 20
0.32267700
  0
VERTEX
  8
0
 10
2.45781300
 20
0.32614700
  0
VERTEX
  8
0
 10
2.45722600
 20
0.32949500
  0
VERTEX
  8
0
 10
2.45663000
 20
0.33272100
  0
VERTEX
  8
0
 10
2.45603000
 20
0.33582400
  0
VERTEX
  8
0
 10
2.45542600
 20
0.33880500
  0
VERTEX
  8
0
 10
2.45482000
 20
0.34166300
  0
VERTEX
  8
0
 10
2.45421600
 20
0.34440000
  0
VERTEX
  8
0
 10
2.45361400
 20
0.34701500
  0
VERTEX
  8
0
 10
2.45301700
 20
0.34950900
  0
VERTEX
  8
0
 10
2.45242800
 20
0.35188200
  0
VERTEX
  8
0
 10
2.45184700
 20
0.35413400
  0
VERTEX
  8
0
 10
2.45127800
 20
0.35626600
  0
VERTEX
  8
0
 10
2.45072100
 20
0.35827800
  0
VERTEX
  8
0
 10
2.44965700
 20
0.36194300
  0
VERTEX
  8
0
 10
2.44866900
 20
0.36513300
  0
VERTEX
  8
0
 10
2.44777600
 20
0.36785200
  0
VERTEX
  8
0
 10
2.44699100
 20
0.37010500
  0
VERTEX
  8
0
 10
2.44605600
 20
0.37262000
  0
VERTEX
  8
0
 10
2.44524400
 20
0.37460800
  0
VERTEX
  8
0
 10
2.41527000
 20
0.44127800
  0
VERTEX
  8
0
 10
2.54956400
 20
0.51001200
  0
VERTEX
  8
0
 10
2.58611300
 20
0.44670700
  0
VERTEX
  8
0
 10
2.58725100
 20
0.44488600
  0
VERTEX
  8
0
 10
2.58874400
 20
0.44265600
  0
VERTEX
  8
0
 10
2.59011200
 20
0.44070300
  0
VERTEX
  8
0
 10
2.59179500
 20
0.43838700
  0
VERTEX
  8
0
 10
2.59380600
 20
0.43572100
  0
VERTEX
  8
0
 10
2.59615600
 20
0.43271400
  0
VERTEX
  8
0
 10
2.59746200
 20
0.43108600
  0
VERTEX
  8
0
 10
2.59885900
 20
0.42937700
  0
VERTEX
  8
0
 10
2.60034600
 20
0.42758900
  0
VERTEX
  8
0
 10
2.60192600
 20
0.42572300
  0
VERTEX
  8
0
 10
2.60360000
 20
0.42378000
  0
VERTEX
  8
0
 10
2.60536900
 20
0.42176300
  0
VERTEX
  8
0
 10
2.60723500
 20
0.41967200
  0
VERTEX
  8
0
 10
2.60920000
 20
0.41750900
  0
VERTEX
  8
0
 10
2.61126500
 20
0.41527600
  0
VERTEX
  8
0
 10
2.61343000
 20
0.41297400
  0
VERTEX
  8
0
 10
2.61569900
 20
0.41060500
  0
VERTEX
  8
0
 10
2.61807100
 20
0.40817000
  0
VERTEX
  8
0
 10
2.62054800
 20
0.40567100
  0
VERTEX
  8
0
 10
2.62313100
 20
0.40311000
  0
VERTEX
  8
0
 10
2.62582200
 20
0.40048900
  0
VERTEX
  8
0
 10
2.62862200
 20
0.39780800
  0
VERTEX
  8
0
 10
2.63153300
 20
0.39507000
  0
VERTEX
  8
0
 10
2.63455400
 20
0.39227800
  0
VERTEX
  8
0
 10
2.63768900
 20
0.38943100
  0
VERTEX
  8
0
 10
2.64093600
 20
0.38653200
  0
VERTEX
  8
0
 10
2.64429900
 20
0.38358300
  0
VERTEX
  8
0
 10
2.64777800
 20
0.38058600
  0
VERTEX
  8
0
 10
2.65137400
 20
0.37754200
  0
VERTEX
  8
0
 10
2.65508700
 20
0.37445300
  0
VERTEX
  8
0
 10
2.65892100
 20
0.37132100
  0
VERTEX
  8
0
 10
2.66287400
 20
0.36814900
  0
VERTEX
  8
0
 10
2.66694800
 20
0.36493700
  0
VERTEX
  8
0
 10
2.67114500
 20
0.36168800
  0
VERTEX
  8
0
 10
2.67546500
 20
0.35840300
  0
VERTEX
  8
0
 10
2.67990800
 20
0.35508500
  0
VERTEX
  8
0
 10
2.68447700
 20
0.35173500
  0
VERTEX
  8
0
 10
2.68917200
 20
0.34835500
  0
VERTEX
  8
0
 10
2.69399300
 20
0.34494800
  0
VERTEX
  8
0
 10
2.69894200
 20
0.34151500
  0
VERTEX
  8
0
 10
2.70401900
 20
0.33805800
  0
VERTEX
  8
0
 10
2.70922600
 20
0.33457900
  0
VERTEX
  8
0
 10
2.71456200
 20
0.33108100
  0
VERTEX
  8
0
 10
2.72002900
 20
0.32756500
  0
VERTEX
  8
0
 10
2.72562700
 20
0.32403200
  0
VERTEX
  8
0
 10
2.73135800
 20
0.32048600
  0
VERTEX
  8
0
 10
2.73722100
 20
0.31692900
  0
VERTEX
  8
0
 10
2.74321700
 20
0.31336100
  0
VERTEX
  8
0
 10
2.74934700
 20
0.30978600
  0
VERTEX
  8
0
 10
2.75561200
 20
0.30620600
  0
VERTEX
  8
0
 10
2.76201200
 20
0.30262200
  0
VERTEX
  8
0
 10
2.76854700
 20
0.29903700
  0
VERTEX
  8
0
 10
2.77521900
 20
0.29545200
  0
VERTEX
  8
0
 10
2.78202700
 20
0.29187000
  0
VERTEX
  8
0
 10
2.78713500
 20
0.28923900
  0
VERTEX
  8
0
 10
2.86892100
 20
0.34566900
  0
VERTEX
  8
0
 10
2.86827500
 20
0.35137800
  0
VERTEX
  8
0
 10
2.86734300
 20
0.35901400
  0
VERTEX
  8
0
 10
2.86636000
 20
0.36652400
  0
VERTEX
  8
0
 10
2.86532800
 20
0.37390600
  0
VERTEX
  8
0
 10
2.86424900
 20
0.38116100
  0
VERTEX
  8
0
 10
2.86312600
 20
0.38828900
  0
VERTEX
  8
0
 10
2.86196000
 20
0.39528900
  0
VERTEX
  8
0
 10
2.86075300
 20
0.40216100
  0
VERTEX
  8
0
 10
2.85950900
 20
0.40890500
  0
VERTEX
  8
0
 10
2.85822800
 20
0.41552100
  0
VERTEX
  8
0
 10
2.85691300
 20
0.42200900
  0
VERTEX
  8
0
 10
2.85556600
 20
0.42836800
  0
VERTEX
  8
0
 10
2.85419000
 20
0.43459900
  0
VERTEX
  8
0
 10
2.85278600
 20
0.44070100
  0
VERTEX
  8
0
 10
2.85135600
 20
0.44667400
  0
VERTEX
  8
0
 10
2.84990300
 20
0.45252000
  0
VERTEX
  8
0
 10
2.84842900
 20
0.45823700
  0
VERTEX
  8
0
 10
2.84693600
 20
0.46382500
  0
VERTEX
  8
0
 10
2.84542700
 20
0.46928600
  0
VERTEX
  8
0
 10
2.84390200
 20
0.47461800
  0
VERTEX
  8
0
 10
2.84236400
 20
0.47982200
  0
VERTEX
  8
0
 10
2.84081600
 20
0.48489900
  0
VERTEX
  8
0
 10
2.83926000
 20
0.48984800
  0
VERTEX
  8
0
 10
2.83769700
 20
0.49467000
  0
VERTEX
  8
0
 10
2.83613000
 20
0.49936500
  0
VERTEX
  8
0
 10
2.83456100
 20
0.50393400
  0
VERTEX
  8
0
 10
2.83299200
 20
0.50837600
  0
VERTEX
  8
0
 10
2.83142400
 20
0.51269200
  0
VERTEX
  8
0
 10
2.82986100
 20
0.51688200
  0
VERTEX
  8
0
 10
2.82830400
 20
0.52094800
  0
VERTEX
  8
0
 10
2.82675500
 20
0.52488800
  0
VERTEX
  8
0
 10
2.82521700
 20
0.52870500
  0
VERTEX
  8
0
 10
2.82369000
 20
0.53239700
  0
VERTEX
  8
0
 10
2.82217900
 20
0.53596600
  0
VERTEX
  8
0
 10
2.82068300
 20
0.53941300
  0
VERTEX
  8
0
 10
2.81920600
 20
0.54273700
  0
VERTEX
  8
0
 10
2.81774900
 20
0.54594000
  0
VERTEX
  8
0
 10
2.81631500
 20
0.54902200
  0
VERTEX
  8
0
 10
2.81490500
 20
0.55198300
  0
VERTEX
  8
0
 10
2.81352200
 20
0.55482500
  0
VERTEX
  8
0
 10
2.81216700
 20
0.55754800
  0
VERTEX
  8
0
 10
2.81084200
 20
0.56015300
  0
VERTEX
  8
0
 10
2.80955000
 20
0.56264000
  0
VERTEX
  8
0
 10
2.80829200
 20
0.56501000
  0
VERTEX
  8
0
 10
2.80707000
 20
0.56726400
  0
VERTEX
  8
0
 10
2.80588600
 20
0.56940400
  0
VERTEX
  8
0
 10
2.80474300
 20
0.57142900
  0
VERTEX
  8
0
 10
2.80364100
 20
0.57334100
  0
VERTEX
  8
0
 10
2.80258300
 20
0.57514000
  0
VERTEX
  8
0
 10
2.80060600
 20
0.57840400
  0
VERTEX
  8
0
 10
2.79882700
 20
0.58123000
  0
VERTEX
  8
0
 10
2.79725900
 20
0.58362600
  0
VERTEX
  8
0
 10
2.79591900
 20
0.58559900
  0
VERTEX
  8
0
 10
2.79436400
 20
0.58778600
  0
VERTEX
  8
0
 10
2.79306600
 20
0.58949600
  0
VERTEX
  8
0
 10
2.74685700
 20
0.64613700
  0
VERTEX
  8
0
 10
2.85878600
 20
0.74728600
  0
VERTEX
  8
0
 10
2.91047400
 20
0.69559800
  0
VERTEX
  8
0
 10
2.91204400
 20
0.69413400
  0
VERTEX
  8
0
 10
2.91406300
 20
0.69236600
  0
VERTEX
  8
0
 10
2.91589100
 20
0.69083300
  0
VERTEX
  8
0
 10
2.91811600
 20
0.68903200
  0
VERTEX
  8
0
 10
2.92074800
 20
0.68697700
  0
VERTEX
  8
0
 10
2.92379700
 20
0.68468100
  0
VERTEX
  8
0
 10
2.92548000
 20
0.68344700
  0
VERTEX
  8
0
 10
2.92727100
 20
0.68215700
  0
VERTEX
  8
0
 10
2.92917000
 20
0.68081500
  0
VERTEX
  8
0
 10
2.93117900
 20
0.67942200
  0
VERTEX
  8
0
 10
2.93329900
 20
0.67797900
  0
VERTEX
  8
0
 10
2.93553000
 20
0.67648800
  0
VERTEX
  8
0
 10
2.93787400
 20
0.67495100
  0
VERTEX
  8
0
 10
2.94033200
 20
0.67337000
  0
VERTEX
  8
0
 10
2.94290400
 20
0.67174700
  0
VERTEX
  8
0
 10
2.94559100
 20
0.67008400
  0
VERTEX
  8
0
 10
2.94839600
 20
0.66838300
  0
VERTEX
  8
0
 10
2.95131700
 20
0.66664500
  0
VERTEX
  8
0
 10
2.95435600
 20
0.66487300
  0
VERTEX
  8
0
 10
2.95751500
 20
0.66306800
  0
VERTEX
  8
0
 10
2.96079300
 20
0.66123200
  0
VERTEX
  8
0
 10
2.96419100
 20
0.65936800
  0
VERTEX
  8
0
 10
2.96771100
 20
0.65747600
  0
VERTEX
  8
0
 10
2.97135200
 20
0.65556100
  0
VERTEX
  8
0
 10
2.97511700
 20
0.65362200
  0
VERTEX
  8
0
 10
2.97900400
 20
0.65166300
  0
VERTEX
  8
0
 10
2.98301500
 20
0.64968500
  0
VERTEX
  8
0
 10
2.98715100
 20
0.64769000
  0
VERTEX
  8
0
 10
2.99141200
 20
0.64568000
  0
VERTEX
  8
0
 10
2.99579900
 20
0.64365800
  0
VERTEX
  8
0
 10
3.00031200
 20
0.64162500
  0
VERTEX
  8
0
 10
3.00495200
 20
0.63958400
  0
VERTEX
  8
0
 10
3.00971900
 20
0.63753600
  0
VERTEX
  8
0
 10
3.01461300
 20
0.63548300
  0
VERTEX
  8
0
 10
3.01963600
 20
0.63342900
  0
VERTEX
  8
0
 10
3.02478700
 20
0.63137400
  0
VERTEX
  8
0
 10
3.03006700
 20
0.62932100
  0
VERTEX
  8
0
 10
3.03547700
 20
0.62727100
  0
VERTEX
  8
0
 10
3.04101600
 20
0.62522800
  0
VERTEX
  8
0
 10
3.04668400
 20
0.62319300
  0
VERTEX
  8
0
 10
3.05248300
 20
0.62116800
  0
VERTEX
  8
0
 10
3.05841300
 20
0.61915500
  0
VERTEX
  8
0
 10
3.06447300
 20
0.61715700
  0
VERTEX
  8
0
 10
3.07066300
 20
0.61517500
  0
VERTEX
  8
0
 10
3.07698500
 20
0.61321200
  0
VERTEX
  8
0
 10
3.08343800
 20
0.61127000
  0
VERTEX
  8
0
 10
3.09002200
 20
0.60935100
  0
VERTEX
  8
0
 10
3.09673700
 20
0.60745800
  0
VERTEX
  8
0
 10
3.10358400
 20
0.60559100
  0
VERTEX
  8
0
 10
3.11056200
 20
0.60375400
  0
VERTEX
  8
0
 10
3.11767100
 20
0.60194900
  0
VERTEX
  8
0
 10
3.12491200
 20
0.60017700
  0
VERTEX
  8
0
 10
3.13228400
 20
0.59844100
  0
VERTEX
  8
0
 10
3.13978700
 20
0.59674300
  0
VERTEX
  8
0
 10
3.14540200
 20
0.59552400
  0
VERTEX
  8
0
 10
3.20979700
 20
0.67119900
  0
VERTEX
  8
0
 10
3.20769500
 20
0.67654600
  0
VERTEX
  8
0
 10
3.20481800
 20
0.68368100
  0
VERTEX
  8
0
 10
3.20192500
 20
0.69068000
  0
VERTEX
  8
0
 10
3.19901800
 20
0.69754400
  0
VERTEX
  8
0
 10
3.19609800
 20
0.70427300
  0
VERTEX
  8
0
 10
3.19316800
 20
0.71086700
  0
VERTEX
  8
0
 10
3.19023000
 20
0.71732700
  0
VERTEX
  8
0
 10
3.18728600
 20
0.72365300
  0
VERTEX
  8
0
 10
3.18433800
 20
0.72984500
  0
VERTEX
  8
0
 10
3.18138800
 20
0.73590400
  0
VERTEX
  8
0
 10
3.17843900
 20
0.74183000
  0
VERTEX
  8
0
 10
3.17549200
 20
0.74762400
  0
VERTEX
  8
0
 10
3.17255000
 20
0.75328600
  0
VERTEX
  8
0
 10
3.16961500
 20
0.75881700
  0
VERTEX
  8
0
 10
3.16668800
 20
0.76421700
  0
VERTEX
  8
0
 10
3.16377200
 20
0.76948700
  0
VERTEX
  8
0
 10
3.16086800
 20
0.77462700
  0
VERTEX
  8
0
 10
3.15798000
 20
0.77963900
  0
VERTEX
  8
0
 10
3.15510800
 20
0.78452300
  0
VERTEX
  8
0
 10
3.15225500
 20
0.78927900
  0
VERTEX
  8
0
 10
3.14942300
 20
0.79390800
  0
VERTEX
  8
0
 10
3.14661400
 20
0.79841100
  0
VERTEX
  8
0
 10
3.14383000
 20
0.80278900
  0
VERTEX
  8
0
 10
3.14107200
 20
0.80704200
  0
VERTEX
  8
0
 10
3.13834300
 20
0.81117100
  0
VERTEX
  8
0
 10
3.13564500
 20
0.81517800
  0
VERTEX
  8
0
 10
3.13298000
 20
0.81906200
  0
VERTEX
  8
0
 10
3.13034800
 20
0.82282600
  0
VERTEX
  8
0
 10
3.12775400
 20
0.82646900
  0
VERTEX
  8
0
 10
3.12519800
 20
0.82999300
  0
VERTEX
  8
0
 10
3.12268200
 20
0.83339800
  0
VERTEX
  8
0
 10
3.12020800
 20
0.83668600
  0
VERTEX
  8
0
 10
3.11777800
 20
0.83985800
  0
VERTEX
  8
0
 10
3.11539400
 20
0.84291400
  0
VERTEX
  8
0
 10
3.11305700
 20
0.84585600
  0
VERTEX
  8
0
 10
3.11077000
 20
0.84868500
  0
VERTEX
  8
0
 10
3.10853400
 20
0.85140200
  0
VERTEX
  8
0
 10
3.10635100
 20
0.85400700
  0
VERTEX
  8
0
 10
3.10422300
 20
0.85650300
  0
VERTEX
  8
0
 10
3.10215100
 20
0.85889000
  0
VERTEX
  8
0
 10
3.10013800
 20
0.86116900
  0
VERTEX
  8
0
 10
3.09818400
 20
0.86334200
  0
VERTEX
  8
0
 10
3.09629200
 20
0.86541000
  0
VERTEX
  8
0
 10
3.09446300
 20
0.86737400
  0
VERTEX
  8
0
 10
3.09270000
 20
0.86923600
  0
VERTEX
  8
0
 10
3.09100300
 20
0.87099600
  0
VERTEX
  8
0
 10
3.08937400
 20
0.87265600
  0
VERTEX
  8
0
 10
3.08781500
 20
0.87421700
  0
VERTEX
  8
0
 10
3.08632700
 20
0.87568100
  0
VERTEX
  8
0
 10
3.08357300
 20
0.87832300
  0
VERTEX
  8
0
 10
3.08112200
 20
0.88059200
  0
VERTEX
  8
0
 10
3.07898900
 20
0.88250000
  0
VERTEX
  8
0
 10
3.07718300
 20
0.88405900
  0
VERTEX
  8
0
 10
3.07511500
 20
0.88576900
  0
VERTEX
  8
0
 10
3.07341900
 20
0.88708500
  0
VERTEX
  8
0
 10
3.01412500
 20
0.92983600
  0
VERTEX
  8
0
 10
3.09606000
 20
1.05650800
  0
VERTEX
  8
0
 10
3.15936500
 20
1.01995900
  0
VERTEX
  8
0
 10
3.16126100
 20
1.01895100
  0
VERTEX
  8
0
 10
3.16366900
 20
1.01776600
  0
VERTEX
  8
0
 10
3.16583100
 20
1.01675900
  0
VERTEX
  8
0
 10
3.16844600
 20
1.01559500
  0
VERTEX
  8
0
 10
3.17152000
 20
1.01429100
  0
VERTEX
  8
0
 10
3.17505900
 20
1.01286200
  0
VERTEX
  8
0
 10
3.17700500
 20
1.01210500
  0
VERTEX
  8
0
 10
3.17906800
 20
1.01132400
  0
VERTEX
  8
0
 10
3.18125000
 20
1.01051900
  0
VERTEX
  8
0
 10
3.18355100
 20
1.00969300
  0
VERTEX
  8
0
 10
3.18597200
 20
1.00884700
  0
VERTEX
  8
0
 10
3.18851300
 20
1.00798500
  0
VERTEX
  8
0
 10
3.19117500
 20
1.00710700
  0
VERTEX
  8
0
 10
3.19395800
 20
1.00621600
  0
VERTEX
  8
0
 10
3.19686300
 20
1.00531500
  0
VERTEX
  8
0
 10
3.19988900
 20
1.00440400
  0
VERTEX
  8
0
 10
3.20303800
 20
1.00348600
  0
VERTEX
  8
0
 10
3.20631000
 20
1.00256400
  0
VERTEX
  8
0
 10
3.20970400
 20
1.00163800
  0
VERTEX
  8
0
 10
3.21322200
 20
1.00071200
  0
VERTEX
  8
0
 10
3.21686400
 20
0.99978700
  0
VERTEX
  8
0
 10
3.22062900
 20
0.99886600
  0
VERTEX
  8
0
 10
3.22451800
 20
0.99795000
  0
VERTEX
  8
0
 10
3.22853100
 20
0.99704200
  0
VERTEX
  8
0
 10
3.23266900
 20
0.99614400
  0
VERTEX
  8
0
 10
3.23693100
 20
0.99525800
  0
VERTEX
  8
0
 10
3.24131800
 20
0.99438500
  0
VERTEX
  8
0
 10
3.24582900
 20
0.99352900
  0
VERTEX
  8
0
 10
3.25046500
 20
0.99269100
  0
VERTEX
  8
0
 10
3.25522600
 20
0.99187300
  0
VERTEX
  8
0
 10
3.26011100
 20
0.99107700
  0
VERTEX
  8
0
 10
3.26512100
 20
0.99030600
  0
VERTEX
  8
0
 10
3.27025500
 20
0.98956200
  0
VERTEX
  8
0
 10
3.27551500
 20
0.98884600
  0
VERTEX
  8
0
 10
3.28089800
 20
0.98816100
  0
VERTEX
  8
0
 10
3.28640500
 20
0.98751000
  0
VERTEX
  8
0
 10
3.29203700
 20
0.98689300
  0
VERTEX
  8
0
 10
3.29779300
 20
0.98631300
  0
VERTEX
  8
0
 10
3.30367200
 20
0.98577300
  0
VERTEX
  8
0
 10
3.30967400
 20
0.98527500
  0
VERTEX
  8
0
 10
3.31580000
 20
0.98481900
  0
VERTEX
  8
0
 10
3.32204800
 20
0.98441000
  0
VERTEX
  8
0
 10
3.32841800
 20
0.98404800
  0
VERTEX
  8
0
 10
3.33491100
 20
0.98373700
  0
VERTEX
  8
0
 10
3.34152500
 20
0.98347700
  0
VERTEX
  8
0
 10
3.34826100
 20
0.98327100
  0
VERTEX
  8
0
 10
3.35511700
 20
0.98312200
  0
VERTEX
  8
0
 10
3.36209400
 20
0.98303000
  0
VERTEX
  8
0
 10
3.36919000
 20
0.98299900
  0
VERTEX
  8
0
 10
3.37640600
 20
0.98303100
  0
VERTEX
  8
0
 10
3.38374000
 20
0.98312700
  0
VERTEX
  8
0
 10
3.39119300
 20
0.98329000
  0
VERTEX
  8
0
 10
3.39876300
 20
0.98352100
  0
VERTEX
  8
0
 10
3.40645000
 20
0.98382300
  0
VERTEX
  8
0
 10
3.41218900
 20
0.98409900
  0
VERTEX
  8
0
 10
3.45480300
 20
1.07386200
  0
VERTEX
  8
0
 10
3.45138900
 20
1.07848300
  0
VERTEX
  8
0
 10
3.44676400
 20
1.08463000
  0
VERTEX
  8
0
 10
3.44215800
 20
1.09064200
  0
VERTEX
  8
0
 10
3.43757300
 20
1.09651900
  0
VERTEX
  8
0
 10
3.43301100
 20
1.10226300
  0
VERTEX
  8
0
 10
3.42847400
 20
1.10787400
  0
VERTEX
  8
0
 10
3.42396400
 20
1.11335400
  0
VERTEX
  8
0
 10
3.41948300
 20
1.11870200
  0
VERTEX
  8
0
 10
3.41503300
 20
1.12392000
  0
VERTEX
  8
0
 10
3.41061600
 20
1.12900900
  0
VERTEX
  8
0
 10
3.40623400
 20
1.13397000
  0
VERTEX
  8
0
 10
3.40188800
 20
1.13880400
  0
VERTEX
  8
0
 10
3.39758100
 20
1.14351100
  0
VERTEX
  8
0
 10
3.39331300
 20
1.14809400
  0
VERTEX
  8
0
 10
3.38908900
 20
1.15255300
  0
VERTEX
  8
0
 10
3.38490800
 20
1.15688800
  0
VERTEX
  8
0
 10
3.38077300
 20
1.16110200
  0
VERTEX
  8
0
 10
3.37668600
 20
1.16519600
  0
VERTEX
  8
0
 10
3.37264800
 20
1.16917000
  0
VERTEX
  8
0
 10
3.36866100
 20
1.17302500
  0
VERTEX
  8
0
 10
3.36472800
 20
1.17676400
  0
VERTEX
  8
0
 10
3.36084900
 20
1.18038600
  0
VERTEX
  8
0
 10
3.35702600
 20
1.18389400
  0
VERTEX
  8
0
 10
3.35326200
 20
1.18728900
  0
VERTEX
  8
0
 10
3.34955700
 20
1.19057100
  0
VERTEX
  8
0
 10
3.34591400
 20
1.19374300
  0
VERTEX
  8
0
 10
3.34233400
 20
1.19680500
  0
VERTEX
  8
0
 10
3.33881800
 20
1.19975900
  0
VERTEX
  8
0
 10
3.33536900
 20
1.20260700
  0
VERTEX
  8
0
 10
3.33198800
 20
1.20534900
  0
VERTEX
  8
0
 10
3.32867700
 20
1.20798700
  0
VERTEX
  8
0
 10
3.32543600
 20
1.21052300
  0
VERTEX
  8
0
 10
3.32226800
 20
1.21295800
  0
VERTEX
  8
0
 10
3.31917400
 20
1.21529300
  0
VERTEX
  8
0
 10
3.31615600
 20
1.21753000
  0
VERTEX
  8
0
 10
3.31321400
 20
1.21967000
  0
VERTEX
  8
0
 10
3.31035200
 20
1.22171600
  0
VERTEX
  8
0
 10
3.30756800
 20
1.22366700
  0
VERTEX
  8
0
 10
3.30486700
 20
1.22552700
  0
VERTEX
  8
0
 10
3.30224800
 20
1.22729700
  0
VERTEX
  8
0
 10
3.29971300
 20
1.22897700
  0
VERTEX
  8
0
 10
3.29726400
 20
1.23057100
  0
VERTEX
  8
0
 10
3.29490100
 20
1.23207800
  0
VERTEX
  8
0
 10
3.29262600
 20
1.23350200
  0
VERTEX
  8
0
 10
3.29044100
 20
1.23484400
  0
VERTEX
  8
0
 10
3.28834600
 20
1.23610400
  0
VERTEX
  8
0
 10
3.28634300
 20
1.23728600
  0
VERTEX
  8
0
 10
3.28443300
 20
1.23839100
  0
VERTEX
  8
0
 10
3.28261700
 20
1.23942000
  0
VERTEX
  8
0
 10
3.27927300
 20
1.24125900
  0
VERTEX
  8
0
 10
3.27631900
 20
1.24281700
  0
VERTEX
  8
0
 10
3.27376400
 20
1.24410800
  0
VERTEX
  8
0
 10
3.27161600
 20
1.24514600
  0
VERTEX
  8
0
 10
3.26917600
 20
1.24626300
  0
VERTEX
  8
0
 10
3.26719700
 20
1.24709400
  0
VERTEX
  8
0
 10
3.19885900
 20
1.27304200
  0
VERTEX
  8
0
 10
3.24521700
 20
1.41660500
  0
VERTEX
  8
0
 10
3.31582500
 20
1.39768500
  0
VERTEX
  8
0
 10
3.31791700
 20
1.39720300
  0
VERTEX
  8
0
 10
3.32054900
 20
1.39668100
  0
VERTEX
  8
0
 10
3.32289800
 20
1.39626800
  0
VERTEX
  8
0
 10
3.32572600
 20
1.39582100
  0
VERTEX
  8
0
 10
3.32903300
 20
1.39535700
  0
VERTEX
  8
0
 10
3.33282100
 20
1.39489200
  0
VERTEX
  8
0
 10
3.33489600
 20
1.39466500
  0
VERTEX
  8
0
 10
3.33709100
 20
1.39444400
  0
VERTEX
  8
0
 10
3.33940700
 20
1.39423100
  0
VERTEX
  8
0
 10
3.34184400
 20
1.39402900
  0
VERTEX
  8
0
 10
3.34440100
 20
1.39383900
  0
VERTEX
  8
0
 10
3.34707900
 20
1.39366400
  0
VERTEX
  8
0
 10
3.34987700
 20
1.39350500
  0
VERTEX
  8
0
 10
3.35279600
 20
1.39336500
  0
VERTEX
  8
0
 10
3.35583500
 20
1.39324500
  0
VERTEX
  8
0
 10
3.35899400
 20
1.39314900
  0
VERTEX
  8
0
 10
3.36227300
 20
1.39307700
  0
VERTEX
  8
0
 10
3.36567200
 20
1.39303300
  0
VERTEX
  8
0
 10
3.36919000
 20
1.39301800
  0
VERTEX
  8
0
 10
3.37282800
 20
1.39303400
  0
VERTEX
  8
0
 10
3.37658500
 20
1.39308300
  0
VERTEX
  8
0
 10
3.38046000
 20
1.39316800
  0
VERTEX
  8
0
 10
3.38445400
 20
1.39329000
  0
VERTEX
  8
0
 10
3.38856500
 20
1.39345100
  0
VERTEX
  8
0
 10
3.39279400
 20
1.39365500
  0
VERTEX
  8
0
 10
3.39714100
 20
1.39390100
  0
VERTEX
  8
0
 10
3.40160400
 20
1.39419400
  0
VERTEX
  8
0
 10
3.40618300
 20
1.39453400
  0
VERTEX
  8
0
 10
3.41087800
 20
1.39492500
  0
VERTEX
  8
0
 10
3.41568800
 20
1.39536700
  0
VERTEX
  8
0
 10
3.42061300
 20
1.39586300
  0
VERTEX
  8
0
 10
3.42565200
 20
1.39641500
  0
VERTEX
  8
0
 10
3.43080400
 20
1.39702500
  0
VERTEX
  8
0
 10
3.43606900
 20
1.39769400
  0
VERTEX
  8
0
 10
3.44144600
 20
1.39842600
  0
VERTEX
  8
0
 10
3.44693500
 20
1.39922200
  0
VERTEX
  8
0
 10
3.45253400
 20
1.40008400
  0
VERTEX
  8
0
 10
3.45824300
 20
1.40101400
  0
VERTEX
  8
0
 10
3.46406200
 20
1.40201400
  0
VERTEX
  8
0
 10
3.46998900
 20
1.40308600
  0
VERTEX
  8
0
 10
3.47602300
 20
1.40423200
  0
VERTEX
  8
0
 10
3.48216500
 20
1.40545300
  0
VERTEX
  8
0
 10
3.48841200
 20
1.40675300
  0
VERTEX
  8
0
 10
3.49476400
 20
1.40813200
  0
VERTEX
  8
0
 10
3.50122000
 20
1.40959300
  0
VERTEX
  8
0
 10
3.50777900
 20
1.41113800
  0
VERTEX
  8
0
 10
3.51444100
 20
1.41276800
  0
VERTEX
  8
0
 10
3.52120300
 20
1.41448500
  0
VERTEX
  8
0
 10
3.52806600
 20
1.41629200
  0
VERTEX
  8
0
 10
3.53502800
 20
1.41819000
  0
VERTEX
  8
0
 10
3.54208700
 20
1.42018100
  0
VERTEX
  8
0
 10
3.54924400
 20
1.42226700
  0
VERTEX
  8
0
 10
3.55649600
 20
1.42445000
  0
VERTEX
  8
0
 10
3.56384300
 20
1.42673100
  0
VERTEX
  8
0
 10
3.56931500
 20
1.42848300
  0
VERTEX
  8
0
 10
3.58724500
 20
1.52621700
  0
VERTEX
  8
0
 10
3.58275100
 20
1.52979700
  0
VERTEX
  8
0
 10
3.57669300
 20
1.53453700
  0
VERTEX
  8
0
 10
3.57068800
 20
1.53915200
  0
VERTEX
  8
0
 10
3.56473700
 20
1.54364300
  0
VERTEX
  8
0
 10
3.55884400
 20
1.54801000
  0
VERTEX
  8
0
 10
3.55301000
 20
1.55225600
  0
VERTEX
  8
0
 10
3.54723600
 20
1.55638100
  0
VERTEX
  8
0
 10
3.54152300
 20
1.56038700
  0
VERTEX
  8
0
 10
3.53587400
 20
1.56427600
  0
VERTEX
  8
0
 10
3.53029000
 20
1.56804800
  0
VERTEX
  8
0
 10
3.52477300
 20
1.57170600
  0
VERTEX
  8
0
 10
3.51932400
 20
1.57525000
  0
VERTEX
  8
0
 10
3.51394500
 20
1.57868300
  0
VERTEX
  8
0
 10
3.50863800
 20
1.58200500
  0
VERTEX
  8
0
 10
3.50340300
 20
1.58521800
  0
VERTEX
  8
0
 10
3.49824200
 20
1.58832400
  0
VERTEX
  8
0
 10
3.49315800
 20
1.59132400
  0
VERTEX
  8
0
 10
3.48815000
 20
1.59422000
  0
VERTEX
  8
0
 10
3.48322100
 20
1.59701300
  0
VERTEX
  8
0
 10
3.47837300
 20
1.59970600
  0
VERTEX
  8
0
 10
3.47360600
 20
1.60229900
  0
VERTEX
  8
0
 10
3.46892100
 20
1.60479400
  0
VERTEX
  8
0
 10
3.46432100
 20
1.60719300
  0
VERTEX
  8
0
 10
3.45980600
 20
1.60949800
  0
VERTEX
  8
0
 10
3.45537800
 20
1.61171000
  0
VERTEX
  8
0
 10
3.45103800
 20
1.61383000
  0
VERTEX
  8
0
 10
3.44678800
 20
1.61586200
  0
VERTEX
  8
0
 10
3.44262700
 20
1.61780500
  0
VERTEX
  8
0
 10
3.43855900
 20
1.61966300
  0
VERTEX
  8
0
 10
3.43458300
 20
1.62143700
  0
VERTEX
  8
0
 10
3.43070200
 20
1.62312800
  0
VERTEX
  8
0
 10
3.42691500
 20
1.62473900
  0
VERTEX
  8
0
 10
3.42322500
 20
1.62627000
  0
VERTEX
  8
0
 10
3.41963200
 20
1.62772500
  0
VERTEX
  8
0
 10
3.41613800
 20
1.62910500
  0
VERTEX
  8
0
 10
3.41274300
 20
1.63041100
  0
VERTEX
  8
0
 10
3.40944800
 20
1.63164600
  0
VERTEX
  8
0
 10
3.40625400
 20
1.63281100
  0
VERTEX
  8
0
 10
3.40316400
 20
1.63390800
  0
VERTEX
  8
0
 10
3.40017600
 20
1.63493900
  0
VERTEX
  8
0
 10
3.39729200
 20
1.63590600
  0
VERTEX
  8
0
 10
3.39451400
 20
1.63681100
  0
VERTEX
  8
0
 10
3.39184200
 20
1.63765600
  0
VERTEX
  8
0
 10
3.38927600
 20
1.63844300
  0
VERTEX
  8
0
 10
3.38681800
 20
1.63917300
  0
VERTEX
  8
0
 10
3.38446800
 20
1.63984900
  0
VERTEX
  8
0
 10
3.38222700
 20
1.64047200
  0
VERTEX
  8
0
 10
3.38009600
 20
1.64104500
  0
VERTEX
  8
0
 10
3.37807600
 20
1.64156900
  0
VERTEX
  8
0
 10
3.37437000
 20
1.64247900
  0
VERTEX
  8
0
 10
3.37111300
 20
1.64321900
  0
VERTEX
  8
0
 10
3.36831100
 20
1.64380500
  0
VERTEX
  8
0
 10
3.36596800
 20
1.64425200
  0
VERTEX
  8
0
 10
3.36332200
 20
1.64469900
  0
VERTEX
  8
0
 10
3.36119500
 20
1.64499000
  0
VERTEX
  8
0
 10
3.28847000
 20
1.65236700
  0
VERTEX
  8
0
 10
3.29609200
 20
1.80303600
  0
SEQEND
  0
POLYLINE
  8
Default Layer
 66
   1
 39
0.000000
 70
    1
  0
VERTEX
  8
0
 10
0.80303600
 20
1.80303600
  0
VERTEX
  8
0
 10
0.80433719
 20
1.85449587
  0
VERTEX
  8
0
 10
0.80819889
 20
1.90528019
  0
VERTEX
  8
0
 10
0.81455825
 20
1.95532614
  0
VERTEX
  8
0
 10
0.82335245
 20
2.00457088
  0
VERTEX
  8
0
 10
0.83451865
 20
2.05295158
  0
VERTEX
  8
0
 10
0.84799402
 20
2.10040541
  0
VERTEX
  8
0
 10
0.86371573
 20
2.14686954
  0
VERTEX
  8
0
 10
0.88162096
 20
2.19228113
  0
VERTEX
  8
0
 10
0.90164686
 20
2.23657735
  0
VERTEX
  8
0
 10
0.92373060
 20
2.27969538
  0
VERTEX
  8
0
 10
0.94780936
 20
2.32157238
  0
VERTEX
  8
0
 10
0.97382029
 20
2.36214551
  0
VERTEX
  8
0
 10
1.00170058
 20
2.40135195
  0
VERTEX
  8
0
 10
1.03138739
 20
2.43912886
  0
VERTEX
  8
0
 10
1.06281788
 20
2.47541342
  0
VERTEX
  8
0
 10
1.09592922
 20
2.51014278
  0
VERTEX
  8
0
 10
1.13065858
 20
2.54325412
  0
VERTEX
  8
0
 10
1.16694314
 20
2.57468461
  0
VERTEX
  8
0
 10
1.20472005
 20
2.60437142
  0
VERTEX
  8
0
 10
1.24392649
 20
2.63225171
  0
VERTEX
  8
0
 10
1.28449962
 20
2.65826264
  0
VERTEX
  8
0
 10
1.32637662
 20
2.68234140
  0
VERTEX
  8
0
 10
1.36949465
 20
2.70442514
  0
VERTEX
  8
0
 10
1.41379087
 20
2.72445104
  0
VERTEX
  8
0
 10
1.45920246
 20
2.74235627
  0
VERTEX
  8
0
 10
1.50566659
 20
2.75807798
  0
VERTEX
  8
0
 10
1.55312042
 20
2.77155335
  0
VERTEX
  8
0
 10
1.60150112
 20
2.78271955
  0
VERTEX
  8
0
 10
1.65074586
 20
2.79151375
  0
VERTEX
  8
0
 10
1.70079181
 20
2.79787311
  0
VERTEX
  8
0
 10
1.75157613
 20
2.80173481
  0
VERTEX
  8
0
 10
1.80303600
 20
2.80303600
  0
VERTEX
  8
0
 10
1.85449587
 20
2.80173481
  0
VERTEX
  8
0
 10
1.90528019
 20
2.79787311
  0
VERTEX
  8
0
 10
1.95532614
 20
2.79151375
  0
VERTEX
  8
0
 10
2.00457088
 20
2.78271955
  0
VERTEX
  8
0
 10
2.05295158
 20
2.77155335
  0
VERTEX
  8
0
 10
2.10040541
 20
2.75807798
  0
VERTEX
  8
0
 10
2.14686954
 20
2.74235627
  0
VERTEX
  8
0
 10
2.19228113
 20
2.72445104
  0
VERTEX
  8
0
 10
2.23657735
 20
2.70442514
  0
VERTEX
  8
0
 10
2.27969538
 20
2.68234140
  0
VERTEX
  8
0
 10
2.32157238
 20
2.65826264
  0
VERTEX
  8
0
 10
2.36214551
 20
2.63225171
  0
VERTEX
  8
0
 10
2.40135195
 20
2.60437142
  0
VERTEX
  8
0
 10
2.43912886
 20
2.57468461
  0
VERTEX
  8
0
 10
2.47541342
 20
2.54325412
  0
VERTEX
  8
0
 10
2.51014278
 20
2.51014278
  0
VERTEX
  8
0
 10
2.54325412
 20
2.47541342
  0
VERTEX
  8
0
 10
2.57468461
 20
2.43912886
  0
VERTEX
  8
0
 10
2.60437142
 20
2.40135195
  0
VERTEX
  8
0
 10
2.63225171
 20
2.36214551
  0
VERTEX
  8
0
 10
2.65826264
 20
2.32157238
  0
VERTEX
  8
0
 10
2.68234140
 20
2.27969538
  0
VERTEX
  8
0
 10
2.70442514
 20
2.23657735
  0
VERTEX
  8
0
 10
2.72445104
 20
2.19228113
  0
VERTEX
  8
0
 10
2.74235627
 20
2.14686954
  0
VERTEX
  8
0
 10
2.75807798
 20
2.10040541
  0
VERTEX
  8
0
 10
2.77155335
 20
2.05295158
  0
VERTEX
  8
0
 10
2.78271955
 20
2.00457088
  0
VERTEX
  8
0
 10
2.79151375
 20
1.95532614
  0
VERTEX
  8
0
 10
2.79787311
 20
1.90528019
  0
VERTEX
  8
0
 10
2.80173481
 20
1.85449587
  0
VERTEX
  8
0
 10
2.80303600
 20
1.80303600
  0
VERTEX
  8
0
 10
2.80173481
 20
1.75157613
  0
VERTEX
  8
0
 10
2.79787311
 20
1.70079181
  0
VERTEX
  8
0
 10
2.79151375
 20
1.65074586
  0
VERTEX
  8
0
 10
2.78271955
 20
1.60150112
  0
VERTEX
  8
0
 10
2.77155335
 20
1.55312042
  0
VERTEX
  8
0
 10
2.75807798
 20
1.50566659
  0
VERTEX
  8
0
 10
2.74235627
 20
1.45920246
  0
VERTEX
  8
0
 10
2.72445104
 20
1.41379087
  0
VERTEX
  8
0
 10
2.70442514
 20
1.36949465
  0
VERTEX
  8
0
 10
2.68234140
 20
1.32637662
  0
VERTEX
  8
0
 10
2.65826264
 20
1.28449962
  0
VERTEX
  8
0
 10
2.63225171
 20
1.24392649
  0
VERTEX
  8
0
 10
2.60437142
 20
1.20472005
  0
VERTEX
  8
0
 10
2.57468461
 20
1.16694314
  0
VERTEX
  8
0
 10
2.54325412
 20
1.13065858
  0
VERTEX
  8
0
 10
2.51014278
 20
1.09592922
  0
VERTEX
  8
0
 10
2.47541342
 20
1.06281788
  0
VERTEX
  8
0
 10
2.43912886
 20
1.03138739
  0
VERTEX
  8
0
 10
2.40135195
 20
1.00170058
  0
VERTEX
  8
0
 10
2.36214551
 20
0.97382029
  0
VERTEX
  8
0
 10
2.32157238
 20
0.94780936
  0
VERTEX
  8
0
 10
2.27969538
 20
0.92373060
  0
VERTEX
  8
0
 10
2.23657735
 20
0.90164686
  0
VERTEX
  8
0
 10
2.19228113
 20
0.88162096
  0
VERTEX
  8
0
 10
2.14686954
 20
0.86371573
  0
VERTEX
  8
0
 10
2.10040541
 20
0.84799402
  0
VERTEX
  8
0
 10
2.05295158
 20
0.83451865
  0
VERTEX
  8
0
 10
2.00457088
 20
0.82335245
  0
VERTEX
  8
0
 10
1.95532614
 20
0.81455825
  0
VERTEX
  8
0
 10
1.90528019
 20
0.80819889
  0
VERTEX
  8
0
 10
1.85449587
 20
0.80433719
  0
VERTEX
  8
0
 10
1.80303600
 20
0.80303600
  0
VERTEX
  8
0
 10
1.75157613
 20
0.80433719
  0
VERTEX
  8
0
 10
1.70079181
 20
0.80819889
  0
VERTEX
  8
0
 10
1.65074586
 20
0.81455825
  0
VERTEX
  8
0
 10
1.60150112
 20
0.82335245
  0
VERTEX
  8
0
 10
1.55312042
 20
0.83451865
  0
VERTEX
  8
0
 10
1.50566659
 20
0.84799402
  0
VERTEX
  8
0
 10
1.45920246
 20
0.86371573
  0
VERTEX
  8
0
 10
1.41379087
 20
0.88162096
  0
VERTEX
  8
0
 10
1.36949465
 20
0.90164686
  0
VERTEX
  8
0
 10
1.32637662
 20
0.92373060
  0
VERTEX
  8
0
 10
1.28449962
 20
0.94780936
  0
VERTEX
  8
0
 10
1.24392649
 20
0.97382029
  0
VERTEX
  8
0
 10
1.20472005
 20
1.00170058
  0
VERTEX
  8
0
 10
1.16694314
 20
1.03138739
  0
VERTEX
  8
0
 10
1.13065858
 20
1.06281788
  0
VERTEX
  8
0
 10
1.09592922
 20
1.09592922
  0
VERTEX
  8
0
 10
1.06281788
 20
1.13065858
  0
VERTEX
  8
0
 10
1.03138739
 20
1.16694314
  0
VERTEX
  8
0
 10
1.00170058
 20
1.20472005
  0
VERTEX
  8
0
 10
0.97382029
 20
1.24392649
  0
VERTEX
  8
0
 10
0.94780936
 20
1.28449962
  0
VERTEX
  8
0
 10
0.92373060
 20
1.32637662
  0
VERTEX
  8
0
 10
0.90164686
 20
1.36949465
  0
VERTEX
  8
0
 10
0.88162096
 20
1.41379087
  0
VERTEX
  8
0
 10
0.86371573
 20
1.45920246
  0
VERTEX
  8
0
 10
0.84799402
 20
1.50566659
  0
VERTEX
  8
0
 10
0.83451865
 20
1.55312042
  0
VERTEX
  8
0
 10
0.82335245
 20
1.60150112
  0
VERTEX
  8
0
 10
0.81455825
 20
1.65074586
  0
VERTEX
  8
0
 10
0.80819889
 20
1.70079181
  0
VERTEX
  8
0
 10
0.80433719
 20
1.75157613
  0
VERTEX
  8
0
 10
0.80303600
 20
1.80303600
  0
SEQEND
  0
POLYLINE
  8
Default Layer
 66
   1
 39
0.000000
 70
    1
  0
VERTEX
  8
0
 10
2.80303600
 20
1.80303600
  0
VERTEX
  8
0
 10
2.80173481
 20
1.85449587
  0
VERTEX
  8
0
 10
2.79787311
 20
1.90528019
  0
VERTEX
  8
0
 10
2.79151375
 20
1.95532614
  0
VERTEX
  8
0
 10
2.78271955
 20
2.00457088
  0
VERTEX
  8
0
 10
2.77155335
 20
2.05295158
  0
VERTEX
  8
0
 10
2.75807798
 20
2.10040541
  0
VERTEX
  8
0
 10
2.74235627
 20
2.14686954
  0
VERTEX
  8
0
 10
2.72445104
 20
2.19228113
  0
VERTEX
  8
0
 10
2.70442514
 20
2.23657735
  0
VERTEX
  8
0
 10
2.68234140
 20
2.27969538
  0
VERTEX
  8
0
 10
2.65826264
 20
2.32157238
  0
VERTEX
  8
0
 10
2.63225171
 20
2.36214551
  0
VERTEX
  8
0
 10
2.60437142
 20
2.40135195
  0
VERTEX
  8
0
 10
2.57468461
 20
2.43912886
  0
VERTEX
  8
0
 10
2.54325412
 20
2.47541342
  0
VERTEX
  8
0
 10
2.51014278
 20
2.51014278
  0
VERTEX
  8
0
 10
2.47541342
 20
2.54325412
  0
VERTEX
  8
0
 10
2.43912886
 20
2.57468461
  0
VERTEX
  8
0
 10
2.40135195
 20
2.60437142
  0
VERTEX
  8
0
 10
2.36214551
 20
2.63225171
  0
VERTEX
  8
0
 10
2.32157238
 20
2.65826264
  0
VERTEX
  8
0
 10
2.27969538
 20
2.68234140
  0
VERTEX
  8
0
 10
2.23657735
 20
2.70442514
  0
VERTEX
  8
0
 10
2.19228113
 20
2.72445104
  0
VERTEX
  8
0
 10
2.14686954
 20
2.74235627
  0
VERTEX
  8
0
 10
2.10040541
 20
2.75807798
  0
VERTEX
  8
0
 10
2.05295158
 20
2.77155335
  0
VERTEX
  8
0
 10
2.00457088
 20
2.78271955
  0
VERTEX
  8
0
 10
1.95532614
 20
2.79151375
  0
VERTEX
  8
0
 10
1.90528019
 20
2.79787311
  0
VERTEX
  8
0
 10
1.85449587
 20
2.80173481
  0
VERTEX
  8
0
 10
1.80303600
 20
2.80303600
  0
VERTEX
  8
0
 10
1.75157613
 20
2.80173481
  0
VERTEX
  8
0
 10
1.70079181
 20
2.79787311
  0
VERTEX
  8
0
 10
1.65074586
 20
2.79151375
  0
VERTEX
  8
0
 10
1.60150112
 20
2.78271955
  0
VERTEX
  8
0
 10
1.55312042
 20
2.77155335
  0
VERTEX
  8
0
 10
1.50566659
 20
2.75807798
  0
VERTEX
  8
0
 10
1.45920246
 20
2.74235627
  0
VERTEX
  8
0
 10
1.41379087
 20
2.72445104
  0
VERTEX
  8
0
 10
1.36949465
 20
2.70442514
  0
VERTEX
  8
0
 10
1.32637662
 20
2.68234140
  0
VERTEX
  8
0
 10
1.28449962
 20
2.65826264
  0
VERTEX
  8
0
 10
1.24392649
 20
2.63225171
  0
VERTEX
  8
0
 10
1.20472005
 20
2.60437142
  0
VERTEX
  8
0
 10
1.16694314
 20
2.57468461
  0
VERTEX
  8
0
 10
1.13065858
 20
2.54325412
  0
VERTEX
  8
0
 10
1.09592922
 20
2.51014278
  0
VERTEX
  8
0
 10
1.06281788
 20
2.47541342
  0
VERTEX
  8
0
 10
1.03138739
 20
2.43912886
  0
VERTEX
  8
0
 10
1.00170058
 20
2.40135195
  0
VERTEX
  8
0
 10
0.97382029
 20
2.36214551
  0
VERTEX
  8
0
 10
0.94780936
 20
2.32157238
  0
VERTEX
  8
0
 10
0.92373060
 20
2.27969538
  0
VERTEX
  8
0
 10
0.90164686
 20
2.23657735
  0
VERTEX
  8
0
 10
0.88162096
 20
2.19228113
  0
VERTEX
  8
0
 10
0.86371573
 20
2.14686954
  0
VERTEX
  8
0
 10
0.84799402
 20
2.10040541
  0
VERTEX
  8
0
 10
0.83451865
 20
2.05295158
  0
VERTEX
  8
0
 10
0.82335245
 20
2.00457088
  0
VERTEX
  8
0
 10
0.81455825
 20
1.95532614
  0
VERTEX
  8
0
 10
0.80819889
 20
1.90528019
  0
VERTEX
  8
0
 10
0.80433719
 20
1.85449587
  0
VERTEX
  8
0
 10
0.80303600
 20
1.80303600
  0
VERTEX
  8
0
 10
0.80433719
 20
1.75157613
  0
VERTEX
  8
0
 10
0.80819889
 20
1.70079181
  0
VERTEX
  8
0
 10
0.81455825
 20
1.65074586
  0
VERTEX
  8
0
 10
0.82335245
 20
1.60150112
  0
VERTEX
  8
0
 10
0.83451865
 20
1.55312042
  0
VERTEX
  8
0
 10
0.84799402
 20
1.50566659
  0
VERTEX
  8
0
 10
0.86371573
 20
1.45920246
  0
VERTEX
  8
0
 10
0.88162096
 20
1.41379087
  0
VERTEX
  8
0
 10
0.90164686
 20
1.36949465
  0
VERTEX
  8
0
 10
0.92373060
 20
1.32637662
  0
VERTEX
  8
0
 10
0.94780936
 20
1.28449962
  0
VERTEX
  8
0
 10
0.97382029
 20
1.24392649
  0
VERTEX
  8
0
 10
1.00170058
 20
1.20472005
  0
VERTEX
  8
0
 10
1.03138739
 20
1.16694314
  0
VERTEX
  8
0
 10
1.06281788
 20
1.13065858
  0
VERTEX
  8
0
 10
1.09592922
 20
1.09592922
  0
VERTEX
  8
0
 10
1.13065858
 20
1.06281788
  0
VERTEX
  8
0
 10
1.16694314
 20
1.03138739
  0
VERTEX
  8
0
 10
1.20472005
 20
1.00170058
  0
VERTEX
  8
0
 10
1.24392649
 20
0.97382029
  0
VERTEX
  8
0
 10
1.28449962
 20
0.94780936
  0
VERTEX
  8
0
 10
1.32637662
 20
0.92373060
  0
VERTEX
  8
0
 10
1.36949465
 20
0.90164686
  0
VERTEX
  8
0
 10
1.41379087
 20
0.88162096
  0
VERTEX
  8
0
 10
1.45920246
 20
0.86371573
  0
VERTEX
  8
0
 10
1.50566659
 20
0.84799402
  0
VERTEX
  8
0
 10
1.55312042
 20
0.83451865
  0
VERTEX
  8
0
 10
1.60150112
 20
0.82335245
  0
VERTEX
  8
0
 10
1.65074586
 20
0.81455825
  0
VERTEX
  8
0
 10
1.70079181
 20
0.80819889
  0
VERTEX
  8
0
 10
1.75157613
 20
0.80433719
  0
VERTEX
  8
0
 10
1.80303600
 20
0.80303600
  0
VERTEX
  8
0
 10
1.85449587
 20
0.80433719
  0
VERTEX
  8
0
 10
1.90528019
 20
0.80819889
  0
VERTEX
  8
0
 10
1.95532614
 20
0.81455825
  0
VERTEX
  8
0
 10
2.00457088
 20
0.82335245
  0
VERTEX
  8
0
 10
2.05295158
 20
0.83451865
  0
VERTEX
  8
0
 10
2.10040541
 20
0.84799402
  0
VERTEX
  8
0
 10
2.14686954
 20
0.86371573
  0
VERTEX
  8
0
 10
2.19228113
 20
0.88162096
  0
VERTEX
  8
0
 10
2.23657735
 20
0.90164686
  0
VERTEX
  8
0
 10
2.27969538
 20
0.92373060
  0
VERTEX
  8
0
 10
2.32157238
 20
0.94780936
  0
VERTEX
  8
0
 10
2.36214551
 20
0.97382029
  0
VERTEX
  8
0
 10
2.40135195
 20
1.00170058
  0
VERTEX
  8
0
 10
2.43912886
 20
1.03138739
  0
VERTEX
  8
0
 10
2.47541342
 20
1.06281788
  0
VERTEX
  8
0
 10
2.51014278
 20
1.09592922
  0
VERTEX
  8
0
 10
2.54325412
 20
1.13065858
  0
VERTEX
  8
0
 10
2.57468461
 20
1.16694314
  0
VERTEX
  8
0
 10
2.60437142
 20
1.20472005
  0
VERTEX
  8
0
 10
2.63225171
 20
1.24392649
  0
VERTEX
  8
0
 10
2.65826264
 20
1.28449962
  0
VERTEX
  8
0
 10
2.68234140
 20
1.32637662
  0
VERTEX
  8
0
 10
2.70442514
 20
1.36949465
  0
VERTEX
  8
0
 10
2.72445104
 20
1.41379087
  0
VERTEX
  8
0
 10
2.74235627
 20
1.45920246
  0
VERTEX
  8
0
 10
2.75807798
 20
1.50566659
  0
VERTEX
  8
0
 10
2.77155335
 20
1.55312042
  0
VERTEX
  8
0
 10
2.78271955
 20
1.60150112
  0
VERTEX
  8
0
 10
2.79151375
 20
1.65074586
  0
VERTEX
  8
0
 10
2.79787311
 20
1.70079181
  0
VERTEX
  8
0
 10
2.80173481
 20
1.75157613
  0
VERTEX
  8
0
 10
2.80303600
 20
1.80303600
  0
SEQEND
  0
POLYLINE
  8
Default Layer
 66
   1
 39
0.000000
 70
    1
  0
VERTEX
  8
0
 10
1.57808200
 20
2.40308200
  0
VERTEX
  8
0
 10
1.57924365
 20
2.42608694
  0
VERTEX
  8
0
 10
1.58265320
 20
2.44842735
  0
VERTEX
  8
0
 10
1.58819755
 20
2.46999012
  0
VERTEX
  8
0
 10
1.59576362
 20
2.49066215
  0
VERTEX
  8
0
 10
1.60523828
 20
2.51033036
  0
VERTEX
  8
0
 10
1.61650847
 20
2.52888164
  0
VERTEX
  8
0
 10
1.62946106
 20
2.54620289
  0
VERTEX
  8
0
 10
1.64398297
 20
2.56218103
  0
VERTEX
  8
0
 10
1.65996111
 20
2.57670294
  0
VERTEX
  8
0
 10
1.67728236
 20
2.58965553
  0
VERTEX
  8
0
 10
1.69583364
 20
2.60092572
  0
VERTEX
  8
0
 10
1.71550185
 20
2.61040038
  0
VERTEX
  8
0
 10
1.73617388
 20
2.61796645
  0
VERTEX
  8
0
 10
1.75773665
 20
2.62351080
  0
VERTEX
  8
0
 10
1.78007706
 20
2.62692035
  0
VERTEX
  8
0
 10
1.80308200
 20
2.62808200
  0
VERTEX
  8
0
 10
1.82608694
 20
2.62692035
  0
VERTEX
  8
0
 10
1.84842735
 20
2.62351080
  0
VERTEX
  8
0
 10
1.86999012
 20
2.61796645
  0
VERTEX
  8
0
 10
1.89066215
 20
2.61040038
  0
VERTEX
  8
0
 10
1.91033036
 20
2.60092572
  0
VERTEX
  8
0
 10
1.92888164
 20
2.58965553
  0
VERTEX
  8
0
 10
1.94620289
 20
2.57670294
  0
VERTEX
  8
0
 10
1.96218103
 20
2.56218103
  0
VERTEX
  8
0
 10
1.97670294
 20
2.54620289
  0
VERTEX
  8
0
 10
1.98965553
 20
2.52888164
  0
VERTEX
  8
0
 10
2.00092572
 20
2.51033036
  0
VERTEX
  8
0
 10
2.01040038
 20
2.49066215
  0
VERTEX
  8
0
 10
2.01796645
 20
2.46999012
  0
VERTEX
  8
0
 10
2.02351080
 20
2.44842735
  0
VERTEX
  8
0
 10
2.02692035
 20
2.42608694
  0
VERTEX
  8
0
 10
2.02808200
 20
2.40308200
  0
VERTEX
  8
0
 10
2.02692035
 20
2.38007706
  0
VERTEX
  8
0
 10
2.02351080
 20
2.35773665
  0
VERTEX
  8
0
 10
2.01796645
 20
2.33617388
  0
VERTEX
  8
0
 10
2.01040038
 20
2.31550185
  0
VERTEX
  8
0
 10
2.00092572
 20
2.29583364
  0
VERTEX
  8
0
 10
1.98965553
 20
2.27728236
  0
VERTEX
  8
0
 10
1.97670294
 20
2.25996111
  0
VERTEX
  8
0
 10
1.96218103
 20
2.24398297
  0
VERTEX
  8
0
 10
1.94620289
 20
2.22946106
  0
VERTEX
  8
0
 10
1.92888164
 20
2.21650847
  0
VERTEX
  8
0
 10
1.91033036
 20
2.20523828
  0
VERTEX
  8
0
 10
1.89066215
 20
2.19576362
  0
VERTEX
  8
0
 10
1.86999012
 20
2.18819755
  0
VERTEX
  8
0
 10
1.84842735
 20
2.18265320
  0
VERTEX
  8
0
 10
1.82608694
 20
2.17924365
  0
VERTEX
  8
0
 10
1.80308200
 20
2.17808200
  0
VERTEX
  8
0
 10
1.78007706
 20
2.17924365
  0
VERTEX
  8
0
 10
1.75773665
 20
2.18265320
  0
VERTEX
  8
0
 10
1.73617388
 20
2.18819755
  0
VERTEX
  8
0
 10
1.71550185
 20
2.19576362
  0
VERTEX
  8
0
 10
1.69583364
 20
2.20523828
  0
VERTEX
  8
0
 10
1.67728236
 20
2.21650847
  0
VERTEX
  8
0
 10
1.65996111
 20
2.22946106
  0
VERTEX
  8
0
 10
1.64398297
 20
2.24398297
  0
VERTEX
  8
0
 10
1.62946106
 20
2.25996111
  0
VERTEX
  8
0
 10
1.61650847
 20
2.27728236
  0
VERTEX
  8
0
 10
1.60523828
 20
2.29583364
  0
VERTEX
  8
0
 10
1.59576362
 20
2.31550185
  0
VERTEX
  8
0
 10
1.58819755
 20
2.33617388
  0
VERTEX
  8
0
 10
1.58265320
 20
2.35773665
  0
VERTEX
  8
0
 10
1.57924365
 20
2.38007706
  0
VERTEX
  8
0
 10
1.57808200
 20
2.40308200
  0
SEQEND
  0
POLYLINE
  8
Default Layer
 66
   1
 39
0.000000
 70
    1
  0
VERTEX
  8
0
 10
1.57808200
 20
1.20308200
  0
VERTEX
  8
0
 10
1.57924365
 20
1.22608694
  0
VERTEX
  8
0
 10
1.58265320
 20
1.24842735
  0
VERTEX
  8
0
 10
1.58819755
 20
1.26999012
  0
VERTEX
  8
0
 10
1.59576362
 20
1.29066215
  0
VERTEX
  8
0
 10
1.60523828
 20
1.31033036
  0
VERTEX
  8
0
 10
1.61650847
 20
1.32888164
  0
VERTEX
  8
0
 10
1.62946106
 20
1.34620289
  0
VERTEX
  8
0
 10
1.64398297
 20
1.36218103
  0
VERTEX
  8
0
 10
1.65996111
 20
1.37670294
  0
VERTEX
  8
0
 10
1.67728236
 20
1.38965553
  0
VERTEX
  8
0
 10
1.69583364
 20
1.40092572
  0
VERTEX
  8
0
 10
1.71550185
 20
1.41040038
  0
VERTEX
  8
0
 10
1.73617388
 20
1.41796645
  0
VERTEX
  8
0
 10
1.75773665
 20
1.42351080
  0
VERTEX
  8
0
 10
1.78007706
 20
1.42692035
  0
VERTEX
  8
0
 10
1.80308200
 20
1.42808200
  0
VERTEX
  8
0
 10
1.82608694
 20
1.42692035
  0
VERTEX
  8
0
 10
1.84842735
 20
1.42351080
  0
VERTEX
  8
0
 10
1.86999012
 20
1.41796645
  0
VERTEX
  8
0
 10
1.89066215
 20
1.41040038
  0
VERTEX
  8
0
 10
1.91033036
 20
1.40092572
  0
VERTEX
  8
0
 10
1.92888164
 20
1.38965553
  0
VERTEX
  8
0
 10
1.94620289
 20
1.37670294
  0
VERTEX
  8
0
 10
1.96218103
 20
1.36218103
  0
VERTEX
  8
0
 10
1.97670294
 20
1.34620289
  0
VERTEX
  8
0
 10
1.98965553
 20
1.32888164
  0
VERTEX
  8
0
 10
2.00092572
 20
1.31033036
  0
VERTEX
  8
0
 10
2.01040038
 20
1.29066215
  0
VERTEX
  8
0
 10
2.01796645
 20
1.26999012
  0
VERTEX
  8
0
 10
2.02351080
 20
1.24842735
  0
VERTEX
  8
0
 10
2.02692035
 20
1.22608694
  0
VERTEX
  8
0
 10
2.02808200
 20
1.20308200
  0
VERTEX
  8
0
 10
2.02692035
 20
1.18007706
  0
VERTEX
  8
0
 10
2.02351080
 20
1.15773665
  0
VERTEX
  8
0
 10
2.01796645
 20
1.13617388
  0
VERTEX
  8
0
 10
2.01040038
 20
1.11550185
  0
VERTEX
  8
0
 10
2.00092572
 20
1.09583364
  0
VERTEX
  8
0
 10
1.98965553
 20
1.07728236
  0
VERTEX
  8
0
 10
1.97670294
 20
1.05996111
  0
VERTEX
  8
0
 10
1.96218103
 20
1.04398297
  0
VERTEX
  8
0
 10
1.94620289
 20
1.02946106
  0
VERTEX
  8
0
 10
1.92888164
 20
1.01650847
  0
VERTEX
  8
0
 10
1.91033036
 20
1.00523828
  0
VERTEX
  8
0
 10
1.89066215
 20
0.99576362
  0
VERTEX
  8
0
 10
1.86999012
 20
0.98819755
  0
VERTEX
  8
0
 10
1.84842735
 20
0.98265320
  0
VERTEX
  8
0
 10
1.82608694
 20
0.97924365
  0
VERTEX
  8
0
 10
1.80308200
 20
0.97808200
  0
VERTEX
  8
0
 10
1.78007706
 20
0.97924365
  0
VERTEX
  8
0
 10
1.75773665
 20
0.98265320
  0
VERTEX
  8
0
 10
1.73617388
 20
0.98819755
  0
VERTEX
  8
0
 10
1.71550185
 20
0.99576362
  0
VERTEX
  8
0
 10
1.69583364
 20
1.00523828
  0
VERTEX
  8
0
 10
1.67728236
 20
1.01650847
  0
VERTEX
  8
0
 10
1.65996111
 20
1.02946106
  0
VERTEX
  8
0
 10
1.64398297
 20
1.04398297
  0
VERTEX
  8
0
 10
1.62946106
 20
1.05996111
  0
VERTEX
  8
0
 10
1.61650847
 20
1.07728236
  0
VERTEX
  8
0
 10
1.60523828
 20
1.09583364
  0
VERTEX
  8
0
 10
1.59576362
 20
1.11550185
  0
VERTEX
  8
0
 10
1.58819755
 20
1.13617388
  0
VERTEX
  8
0
 10
1.58265320
 20
1.15773665
  0
VERTEX
  8
0
 10
1.57924365
 20
1.18007706
  0
VERTEX
  8
0
 10
1.57808200
 20
1.20308200
  0
SEQEND
  0
POLYLINE
  8
Default Layer
 66
   1
 39
0.000000
 70
    1
  0
VERTEX
  8
0
 10
1.14053600
 20
1.80303600
  0
VERTEX
  8
0
 10
1.14180578
 20
1.81563193
  0
VERTEX
  8
0
 10
1.14544756
 20
1.82736382
  0
VERTEX
  8
0
 10
1.15121002
 20
1.83798034
  0
VERTEX
  8
0
 10
1.15884183
 20
1.84723017
  0
VERTEX
  8
0
 10
1.16809166
 20
1.85486198
  0
VERTEX
  8
0
 10
1.17870818
 20
1.86062444
  0
VERTEX
  8
0
 10
1.19044007
 20
1.86426622
  0
VERTEX
  8
0
 10
1.20303600
 20
1.86553600
  0
VERTEX
  8
0
 10
1.21563193
 20
1.86426622
  0
VERTEX
  8
0
 10
1.22736382
 20
1.86062444
  0
VERTEX
  8
0
 10
1.23798034
 20
1.85486198
  0
VERTEX
  8
0
 10
1.24723017
 20
1.84723017
  0
VERTEX
  8
0
 10
1.25486198
 20
1.83798034
  0
VERTEX
  8
0
 10
1.26062444
 20
1.82736382
  0
VERTEX
  8
0
 10
1.26426622
 20
1.81563193
  0
VERTEX
  8
0
 10
1.26553600
 20
1.80303600
  0
VERTEX
  8
0
 10
1.26426622
 20
1.79044007
  0
VERTEX
  8
0
 10
1.26062444
 20
1.77870818
  0
VERTEX
  8
0
 10
1.25486198
 20
1.76809166
  0
VERTEX
  8
0
 10
1.24723017
 20
1.75884183
  0
VERTEX
  8
0
 10
1.23798034
 20
1.75121002
  0
VERTEX
  8
0
 10
1.22736382
 20
1.74544756
  0
VERTEX
  8
0
 10
1.21563193
 20
1.74180578
  0
VERTEX
  8
0
 10
1.20303600
 20
1.74053600
  0
VERTEX
  8
0
 10
1.19044007
 20
1.74180578
  0
VERTEX
  8
0
 10
1.17870818
 20
1.74544756
  0
VERTEX
  8
0
 10
1.16809166
 20
1.75121002
  0
VERTEX
  8
0
 10
1.15884183
 20
1.75884183
  0
VERTEX
  8
0
 10
1.15121002
 20
1.76809166
  0
VERTEX
  8
0
 10
1.14544756
 20
1.77870818
  0
VERTEX
  8
0
 10
1.14180578
 20
1.79044007
  0
VERTEX
  8
0
 10
1.14053600
 20
1.80303600
  0
SEQEND
  0
POLYLINE
  8
Default Layer
 66
   1
 39
0.000000
 70
    1
  0
VERTEX
  8
0
 10
2.34053600
 20
1.80303600
  0
VERTEX
  8
0
 10
2.34180578
 20
1.81563193
  0
VERTEX
  8
0
 10
2.34544756
 20
1.82736382
  0
VERTEX
  8
0
 10
2.35121002
 20
1.83798034
  0
VERTEX
  8
0
 10
2.35884183
 20
1.84723017
  0
VERTEX
  8
0
 10
2.36809166
 20
1.85486198
  0
VERTEX
  8
0
 10
2.37870818
 20
1.86062444
  0
VERTEX
  8
0
 10
2.39044007
 20
1.86426622
  0
VERTEX
  8
0
 10
2.40303600
 20
1.86553600
  0
VERTEX
  8
0
 10
2.41563193
 20
1.86426622
  0
VERTEX
  8
0
 10
2.42736382
 20
1.86062444
  0
VERTEX
  8
0
 10
2.43798034
 20
1.85486198
  0
VERTEX
  8
0
 10
2.44723017
 20
1.84723017
  0
VERTEX
  8
0
 10
2.45486198
 20
1.83798034
  0
VERTEX
  8
0
 10
2.46062444
 20
1.82736382
  0
VERTEX
  8
0
 10
2.46426622
 20
1.81563193
  0
VERTEX
  8
0
 10
2.46553600
 20
1.80303600
  0
VERTEX
  8
0
 10
2.46426622
 20
1.79044007
  0
VERTEX
  8
0
 10
2.46062444
 20
1.77870818
  0
VERTEX
  8
0
 10
2.45486198
 20
1.76809166
  0
VERTEX
  8
0
 10
2.44723017
 20
1.75884183
  0
VERTEX
  8
0
 10
2.43798034
 20
1.75121002
  0
VERTEX
  8
0
 10
2.42736382
 20
1.74544756
  0
VERTEX
  8
0
 10
2.41563193
 20
1.74180578
  0
VERTEX
  8
0
 10
2.40303600
 20
1.74053600
  0
VERTEX
  8
0
 10
2.39044007
 20
1.74180578
  0
VERTEX
  8
0
 10
2.37870818
 20
1.74544756
  0
VERTEX
  8
0
 10
2.36809166
 20
1.75121002
  0
VERTEX
  8
0
 10
2.35884183
 20
1.75884183
  0
VERTEX
  8
0
 10
2.35121002
 20
1.76809166
  0
VERTEX
  8
0
 10
2.34544756
 20
1.77870818
  0
VERTEX
  8
0
 10
2.34180578
 20
1.79044007
  0
VERTEX
  8
0
 10
2.34053600
 20
1.80303600
  0
SEQEND
  0
POLYLINE
  8
Default Layer
 66
   1
 39
0.000000
 70
    1
  0
VERTEX
  8
0
 10
1.72301800
 20
2.40303600
  0
VERTEX
  8
0
 10
1.72343103
 20
2.41121554
  0
VERTEX
  8
0
 10
1.72464332
 20
2.41915879
  0
VERTEX
  8
0
 10
1.72661464
 20
2.42682555
  0
VERTEX
  8
0
 10
1.72930480
 20
2.43417561
  0
VERTEX
  8
0
 10
1.73267357
 20
2.44116875
  0
VERTEX
  8
0
 10
1.73668074
 20
2.44776476
  0
VERTEX
  8
0
 10
1.74644946
 20
2.45960454
  0
VERTEX
  8
0
 10
1.75828924
 20
2.46937326
  0
VERTEX
  8
0
 10
1.76488525
 20
2.47338043
  0
VERTEX
  8
0
 10
1.77187839
 20
2.47674920
  0
VERTEX
  8
0
 10
1.77922845
 20
2.47943936
  0
VERTEX
  8
0
 10
1.78689521
 20
2.48141068
  0
VERTEX
  8
0
 10
1.79483846
 20
2.48262297
  0
VERTEX
  8
0
 10
1.80301800
 20
2.48303600
  0
VERTEX
  8
0
 10
1.81119754
 20
2.48262297
  0
VERTEX
  8
0
 10
1.81914079
 20
2.48141068
  0
VERTEX
  8
0
 10
1.82680755
 20
2.47943936
  0
VERTEX
  8
0
 10
1.83415761
 20
2.47674920
  0
VERTEX
  8
0
 10
1.84115075
 20
2.47338043
  0
VERTEX
  8
0
 10
1.84774676
 20
2.46937326
  0
VERTEX
  8
0
 10
1.85958654
 20
2.45960454
  0
VERTEX
  8
0
 10
1.86935526
 20
2.44776476
  0
VERTEX
  8
0
 10
1.87336243
 20
2.44116875
  0
VERTEX
  8
0
 10
1.87673120
 20
2.43417561
  0
VERTEX
  8
0
 10
1.87942136
 20
2.42682555
  0
VERTEX
  8
0
 10
1.88139268
 20
2.41915879
  0
VERTEX
  8
0
 10
1.88260497
 20
2.41121554
  0
VERTEX
  8
0
 10
1.88301800
 20
2.40303600
  0
VERTEX
  8
0
 10
1.88260497
 20
2.39485646
  0
VERTEX
  8
0
 10
1.88139268
 20
2.38691321
  0
VERTEX
  8
0
 10
1.87942136
 20
2.37924645
  0
VERTEX
  8
0
 10
1.87673120
 20
2.37189639
  0
VERTEX
  8
0
 10
1.87336243
 20
2.36490325
  0
VERTEX
  8
0
 10
1.86935526
 20
2.35830724
  0
VERTEX
  8
0
 10
1.85958654
 20
2.34646746
  0
VERTEX
  8
0
 10
1.84774676
 20
2.33669874
  0
VERTEX
  8
0
 10
1.84115075
 20
2.33269157
  0
VERTEX
  8
0
 10
1.83415761
 20
2.32932280
  0
VERTEX
  8
0
 10
1.82680755
 20
2.32663264
  0
VERTEX
  8
0
 10
1.81914079
 20
2.32466132
  0
VERTEX
  8
0
 10
1.81119754
 20
2.32344903
  0
VERTEX
  8
0
 10
1.80301800
 20
2.32303600
  0
VERTEX
  8
0
 10
1.79483846
 20
2.32344903
  0
VERTEX
  8
0
 10
1.78689521
 20
2.32466132
  0
VERTEX
  8
0
 10
1.77922845
 20
2.32663264
  0
VERTEX
  8
0
 10
1.77187839
 20
2.32932280
  0
VERTEX
  8
0
 10
1.76488525
 20
2.33269157
  0
VERTEX
  8
0
 10
1.75828924
 20
2.33669874
  0
VERTEX
  8
0
 10
1.74644946
 20
2.34646746
  0
VERTEX
  8
0
 10
1.73668074
 20
2.35830724
  0
VERTEX
  8
0
 10
1.73267357
 20
2.36490325
  0
VERTEX
  8
0
 10
1.72930480
 20
2.37189639
  0
VERTEX
  8
0
 10
1.72661464
 20
2.37924645
  0
VERTEX
  8
0
 10
1.72464332
 20
2.38691321
  0
VERTEX
  8
0
 10
1.72343103
 20
2.39485646
  0
VERTEX
  8
0
 10
1.72301800
 20
2.40303600
  0
SEQEND
  0
POLYLINE
  8
Default Layer
 66
   1
 39
0.000000
 70
    1
  0
VERTEX
  8
0
 10
1.72301800
 20
1.20303600
  0
VERTEX
  8
0
 10
1.72343103
 20
1.21121554
  0
VERTEX
  8
0
 10
1.72464332
 20
1.21915879
  0
VERTEX
  8
0
 10
1.72661464
 20
1.22682555
  0
VERTEX
  8
0
 10
1.72930480
 20
1.23417561
  0
VERTEX
  8
0
 10
1.73267357
 20
1.24116875
  0
VERTEX
  8
0
 10
1.73668074
 20
1.24776476
  0
VERTEX
  8
0
 10
1.74644946
 20
1.25960454
  0
VERTEX
  8
0
 10
1.75828924
 20
1.26937326
  0
VERTEX
  8
0
 10
1.76488525
 20
1.27338043
  0
VERTEX
  8
0
 10
1.77187839
 20
1.27674920
  0
VERTEX
  8
0
 10
1.77922845
 20
1.27943936
  0
VERTEX
  8
0
 10
1.78689521
 20
1.28141068
  0
VERTEX
  8
0
 10
1.79483846
 20
1.28262297
  0
VERTEX
  8
0
 10
1.80301800
 20
1.28303600
  0
VERTEX
  8
0
 10
1.81119754
 20
1.28262297
  0
VERTEX
  8
0
 10
1.81914079
 20
1.28141068
  0
VERTEX
  8
0
 10
1.82680755
 20
1.27943936
  0
VERTEX
  8
0
 10
1.83415761
 20
1.27674920
  0
VERTEX
  8
0
 10
1.84115075
 20
1.27338043
  0
VERTEX
  8
0
 10
1.84774676
 20
1.26937326
  0
VERTEX
  8
0
 10
1.85958654
 20
1.25960454
  0
VERTEX
  8
0
 10
1.86935526
 20
1.24776476
  0
VERTEX
  8
0
 10
1.87336243
 20
1.24116875
  0
VERTEX
  8
0
 10
1.87673120
 20
1.23417561
  0
VERTEX
  8
0
 10
1.87942136
 20
1.22682555
  0
VERTEX
  8
0
 10
1.88139268
 20
1.21915879
  0
VERTEX
  8
0
 10
1.88260497
 20
1.21121554
  0
VERTEX
  8
0
 10
1.88301800
 20
1.20303600
  0
VERTEX
  8
0
 10
1.88260497
 20
1.19485646
  0
VERTEX
  8
0
 10
1.88139268
 20
1.18691321
  0
VERTEX
  8
0
 10
1.87942136
 20
1.17924645
  0
VERTEX
  8
0
 10
1.87673120
 20
1.17189639
  0
VERTEX
  8
0
 10
1.87336243
 20
1.16490325
  0
VERTEX
  8
0
 10
1.86935526
 20
1.15830724
  0
VERTEX
  8
0
 10
1.85958654
 20
1.14646746
  0
VERTEX
  8
0
 10
1.84774676
 20
1.13669874
  0
VERTEX
  8
0
 10
1.84115075
 20
1.13269157
  0
VERTEX
  8
0
 10
1.83415761
 20
1.12932280
  0
VERTEX
  8
0
 10
1.82680755
 20
1.12663264
  0
VERTEX
  8
0
 10
1.81914079
 20
1.12466132
  0
VERTEX
  8
0
 10
1.81119754
 20
1.12344903
  0
VERTEX
  8
0
 10
1.80301800
 20
1.12303600
  0
VERTEX
  8
0
 10
1.79483846
 20
1.12344903
  0
VERTEX
  8
0
 10
1.78689521
 20
1.12466132
  0
VERTEX
  8
0
 10
1.77922845
 20
1.12663264
  0
VERTEX
  8
0
 10
1.77187839
 20
1.12932280
  0
VERTEX
  8
0
 10
1.76488525
 20
1.13269157
  0
VERTEX
  8
0
 10
1.75828924
 20
1.13669874
  0
VERTEX
  8
0
 10
1.74644946
 20
1.14646746
  0
VERTEX
  8
0
 10
1.73668074
 20
1.15830724
  0
VERTEX
  8
0
 10
1.73267357
 20
1.16490325
  0
VERTEX
  8
0
 10
1.72930480
 20
1.17189639
  0
VERTEX
  8
0
 10
1.72661464
 20
1.17924645
  0
VERTEX
  8
0
 10
1.72464332
 20
1.18691321
  0
VERTEX
  8
0
 10
1.72343103
 20
1.19485646
  0
VERTEX
  8
0
 10
1.72301800
 20
1.20303600
  0
SEQEND
  0
POLYLINE
  8
Default Layer
 66
   1
 39
0.000000
 70
    1
  0
VERTEX
  8
0
 10
1.66800000
 20
1.80310000
  0
VERTEX
  8
0
 10
1.66869699
 20
1.81690297
  0
VERTEX
  8
0
 10
1.67074272
 20
1.83030721
  0
VERTEX
  8
0
 10
1.67406933
 20
1.84324487
  0
VERTEX
  8
0
 10
1.67860897
 20
1.85564809
  0
VERTEX
  8
0
 10
1.68429377
 20
1.86744902
  0
VERTEX
  8
0
 10
1.69105588
 20
1.87857978
  0
VERTEX
  8
0
 10
1.69882744
 20
1.88897254
  0
VERTEX
  8
0
 10
1.70754058
 20
1.89855942
  0
VERTEX
  8
0
 10
1.71712746
 20
1.90727256
  0
VERTEX
  8
0
 10
1.72752022
 20
1.91504412
  0
VERTEX
  8
0
 10
1.73865098
 20
1.92180623
  0
VERTEX
  8
0
 10
1.75045191
 20
1.92749103
  0
VERTEX
  8
0
 10
1.76285513
 20
1.93203067
  0
VERTEX
  8
0
 10
1.77579279
 20
1.93535728
  0
VERTEX
  8
0
 10
1.78919703
 20
1.93740301
  0
VERTEX
  8
0
 10
1.80300000
 20
1.93810000
  0
VERTEX
  8
0
 10
1.81680297
 20
1.93740301
  0
VERTEX
  8
0
 10
1.83020721
 20
1.93535728
  0
VERTEX
  8
0
 10
1.84314487
 20
1.93203067
  0
VERTEX
  8
0
 10
1.85554809
 20
1.92749103
  0
VERTEX
  8
0
 10
1.86734902
 20
1.92180623
  0
VERTEX
  8
0
 10
1.87847978
 20
1.91504412
  0
VERTEX
  8
0
 10
1.88887254
 20
1.90727256
  0
VERTEX
  8
0
 10
1.89845942
 20
1.89855942
  0
VERTEX
  8
0
 10
1.90717256
 20
1.88897254
  0
VERTEX
  8
0
 10
1.91494412
 20
1.87857978
  0
VERTEX
  8
0
 10
1.92170623
 20
1.86744902
  0
VERTEX
  8
0
 10
1.92739103
 20
1.85564809
  0
VERTEX
  8
0
 10
1.93193067
 20
1.84324487
  0
VERTEX
  8
0
 10
1.93525728
 20
1.83030721
  0
VERTEX
  8
0
 10
1.93730301
 20
1.81690297
  0
VERTEX
  8
0
 10
1.93800000
 20
1.80310000
  0
VERTEX
  8
0
 10
1.93730301
 20
1.78929703
  0
VERTEX
  8
0
 10
1.93525728
 20
1.77589279
  0
VERTEX
  8
0
 10
1.93193067
 20
1.76295513
  0
VERTEX
  8
0
 10
1.92739103
 20
1.75055191
  0
VERTEX
  8
0
 10
1.92170623
 20
1.73875098
  0
VERTEX
  8
0
 10
1.91494412
 20
1.72762022
  0
VERTEX
  8
0
 10
1.90717256
 20
1.71722746
  0
VERTEX
  8
0
 10
1.89845942
 20
1.70764058
  0
VERTEX
  8
0
 10
1.88887254
 20
1.69892744
  0
VERTEX
  8
0
 10
1.87847978
 20
1.69115588
  0
VERTEX
  8
0
 10
1.86734902
 20
1.68439377
  0
VERTEX
  8
0
 10
1.85554809
 20
1.67870897
  0
VERTEX
  8
0
 10
1.84314487
 20
1.67416933
  0
VERTEX
  8
0
 10
1.83020721
 20
1.67084272
  0
VERTEX
  8
0
 10
1.81680297
 20
1.66879699
  0
VERTEX
  8
0
 10
1.80300000
 20
1.66810000
  0
VERTEX
  8
0
 10
1.78919703
 20
1.66879699
  0
VERTEX
  8
0
 10
1.77579279
 20
1.67084272
  0
VERTEX
  8
0
 10
1.76285513
 20
1.67416933
  0
VERTEX
  8
0
 10
1.75045191
 20
1.67870897
  0
VERTEX
  8
0
 10
1.73865098
 20
1.68439377
  0
VERTEX
  8
0
 10
1.72752022
 20
1.69115588
  0
VERTEX
  8
0
 10
1.71712746
 20
1.69892744
  0
VERTEX
  8
0
 10
1.70754058
 20
1.70764058
  0
VERTEX
  8
0
 10
1.69882744
 20
1.71722746
  0
VERTEX
  8
0
 10
1.69105588
 20
1.72762022
  0
VERTEX
  8
0
 10
1.68429377
 20
1.73875098
  0
VERTEX
  8
0
 10
1.67860897
 20
1.75055191
  0
VERTEX
  8
0
 10
1.67406933
 20
1.76295513
  0
VERTEX
  8
0
 10
1.67074272
 20
1.77589279
  0
VERTEX
  8
0
 10
1.66869699
 20
1.78929703
  0
VERTEX
  8
0
 10
1.66800000
 20
1.80310000
  0
SEQEND
  0
ENDSEC
  0
EOF
