  0
SECTION
  2
HEADER
  9
$ACADVER
  1
AC1009
  9
$EXTMIN
 10
0.00000000
 20
0.00000000
 30
0.0
  9
$EXTMAX
 10
1.51606400
 20
1.49695900
 30
0.0
  0
ENDSEC
  0
SECTION
  2
TABLES
  0
TABLE
  2
LAYER
 70
2
 0
LAYER
 2
1
 70
0
 62
1
 6
CONTINUOUS
 0
LAYER
 2
Default Layer
 70
0
 62
1
 6
CONTINUOUS
 0
ENDTAB
 0
ENDSEC
  0
SECTION
  2
ENTITIES
  0
POLYLINE
  8
1
 66
   1
 39
0.000000
 70
    1
  0
VERTEX
  8
0
 10
1.21081900
 20
0.73358200
  0
VERTEX
  8
0
 10
1.34673800
 20
0.73358200
  0
VERTEX
  8
0
 10
1.34897000
 20
0.73371200
  0
VERTEX
  8
0
 10
1.35110500
 20
0.73393800
  0
VERTEX
  8
0
 10
1.35316500
 20
0.73422000
  0
VERTEX
  8
0
 10
1.35561500
 20
0.73462000
  0
VERTEX
  8
0
 10
1.35844900
 20
0.73515900
  0
VERTEX
  8
0
 10
1.36054900
 20
0.73560500
  0
VERTEX
  8
0
 10
1.36281500
 20
0.73612900
  0
VERTEX
  8
0
 10
1.36524500
 20
0.73673500
  0
VERTEX
  8
0
 10
1.36783700
 20
0.73743000
  0
VERTEX
  8
0
 10
1.37058900
 20
0.73821900
  0
VERTEX
  8
0
 10
1.37349700
 20
0.73910800
  0
VERTEX
  8
0
 10
1.37656000
 20
0.74010400
  0
VERTEX
  8
0
 10
1.37977300
 20
0.74121100
  0
VERTEX
  8
0
 10
1.38313600
 20
0.74243500
  0
VERTEX
  8
0
 10
1.38664300
 20
0.74378100
  0
VERTEX
  8
0
 10
1.39029200
 20
0.74525600
  0
VERTEX
  8
0
 10
1.39216900
 20
0.74604300
  0
VERTEX
  8
0
 10
1.39408000
 20
0.74686400
  0
VERTEX
  8
0
 10
1.39602400
 20
0.74771900
  0
VERTEX
  8
0
 10
1.39800200
 20
0.74861000
  0
VERTEX
  8
0
 10
1.40001300
 20
0.74953700
  0
VERTEX
  8
0
 10
1.40205500
 20
0.75050100
  0
VERTEX
  8
0
 10
1.40413000
 20
0.75150200
  0
VERTEX
  8
0
 10
1.40623600
 20
0.75254000
  0
VERTEX
  8
0
 10
1.40837300
 20
0.75361700
  0
VERTEX
  8
0
 10
1.41054000
 20
0.75473300
  0
VERTEX
  8
0
 10
1.41273600
 20
0.75588900
  0
VERTEX
  8
0
 10
1.41496200
 20
0.75708500
  0
VERTEX
  8
0
 10
1.41721700
 20
0.75832200
  0
VERTEX
  8
0
 10
1.41950000
 20
0.75960100
  0
VERTEX
  8
0
 10
1.42181000
 20
0.76092100
  0
VERTEX
  8
0
 10
1.42414800
 20
0.76228400
  0
VERTEX
  8
0
 10
1.42651200
 20
0.76369100
  0
VERTEX
  8
0
 10
1.42890200
 20
0.76514100
  0
VERTEX
  8
0
 10
1.43131700
 20
0.76663600
  0
VERTEX
  8
0
 10
1.43375600
 20
0.76817500
  0
VERTEX
  8
0
 10
1.43622000
 20
0.76976000
  0
VERTEX
  8
0
 10
1.43870800
 20
0.77139100
  0
VERTEX
  8
0
 10
1.44121800
 20
0.77306800
  0
VERTEX
  8
0
 10
1.44375000
 20
0.77479200
  0
VERTEX
  8
0
 10
1.44630400
 20
0.77656400
  0
VERTEX
  8
0
 10
1.44887900
 20
0.77838400
  0
VERTEX
  8
0
 10
1.45147500
 20
0.78025200
  0
VERTEX
  8
0
 10
1.45409000
 20
0.78217000
  0
VERTEX
  8
0
 10
1.45672400
 20
0.78413700
  0
VERTEX
  8
0
 10
1.45937600
 20
0.78615400
  0
VERTEX
  8
0
 10
1.46204600
 20
0.78822100
  0
VERTEX
  8
0
 10
1.46473300
 20
0.79033900
  0
VERTEX
  8
0
 10
1.46743600
 20
0.79250900
  0
VERTEX
  8
0
 10
1.47015500
 20
0.79473000
  0
VERTEX
  8
0
 10
1.47288900
 20
0.79700400
  0
VERTEX
  8
0
 10
1.47563700
 20
0.79933000
  0
VERTEX
  8
0
 10
1.47839800
 20
0.80171000
  0
VERTEX
  8
0
 10
1.48117200
 20
0.80414300
  0
VERTEX
  8
0
 10
1.48395800
 20
0.80663000
  0
VERTEX
  8
0
 10
1.48675600
 20
0.80917100
  0
VERTEX
  8
0
 10
1.48956400
 20
0.81176700
  0
VERTEX
  8
0
 10
1.49238200
 20
0.81441700
  0
VERTEX
  8
0
 10
1.49520900
 20
0.81712400
  0
VERTEX
  8
0
 10
1.49804400
 20
0.81988600
  0
VERTEX
  8
0
 10
1.50088700
 20
0.82270400
  0
VERTEX
  8
0
 10
1.50373700
 20
0.82557900
  0
VERTEX
  8
0
 10
1.50659200
 20
0.82851000
  0
VERTEX
  8
0
 10
1.50945300
 20
0.83149800
  0
VERTEX
  8
0
 10
1.51231800
 20
0.83454400
  0
VERTEX
  8
0
 10
1.51606400
 20
0.83861300
  0
VERTEX
  8
0
 10
1.50124800
 20
0.91587800
  0
VERTEX
  8
0
 10
1.49626300
 20
0.91827300
  0
VERTEX
  8
0
 10
1.49247500
 20
0.92004300
  0
VERTEX
  8
0
 10
1.48871100
 20
0.92176100
  0
VERTEX
  8
0
 10
1.48497400
 20
0.92342900
  0
VERTEX
  8
0
 10
1.48126300
 20
0.92504500
  0
VERTEX
  8
0
 10
1.47757900
 20
0.92661200
  0
VERTEX
  8
0
 10
1.47392400
 20
0.92812900
  0
VERTEX
  8
0
 10
1.47029600
 20
0.92959800
  0
VERTEX
  8
0
 10
1.46669700
 20
0.93101900
  0
VERTEX
  8
0
 10
1.46312800
 20
0.93239200
  0
VERTEX
  8
0
 10
1.45958900
 20
0.93371800
  0
VERTEX
  8
0
 10
1.45608100
 20
0.93499700
  0
VERTEX
  8
0
 10
1.45260400
 20
0.93623200
  0
VERTEX
  8
0
 10
1.44915800
 20
0.93742100
  0
VERTEX
  8
0
 10
1.44574400
 20
0.93856600
  0
VERTEX
  8
0
 10
1.44236300
 20
0.93966700
  0
VERTEX
  8
0
 10
1.43901600
 20
0.94072500
  0
VERTEX
  8
0
 10
1.43570200
 20
0.94174100
  0
VERTEX
  8
0
 10
1.43242200
 20
0.94271500
  0
VERTEX
  8
0
 10
1.42917600
 20
0.94364800
  0
VERTEX
  8
0
 10
1.42596600
 20
0.94454100
  0
VERTEX
  8
0
 10
1.42279100
 20
0.94539400
  0
VERTEX
  8
0
 10
1.41965300
 20
0.94620800
  0
VERTEX
  8
0
 10
1.41655000
 20
0.94698400
  0
VERTEX
  8
0
 10
1.41348500
 20
0.94772200
  0
VERTEX
  8
0
 10
1.41045600
 20
0.94842400
  0
VERTEX
  8
0
 10
1.40746600
 20
0.94908900
  0
VERTEX
  8
0
 10
1.40451300
 20
0.94971900
  0
VERTEX
  8
0
 10
1.40159900
 20
0.95031400
  0
VERTEX
  8
0
 10
1.39872400
 20
0.95087500
  0
VERTEX
  8
0
 10
1.39588800
 20
0.95140300
  0
VERTEX
  8
0
 10
1.39309100
 20
0.95189800
  0
VERTEX
  8
0
 10
1.39033400
 20
0.95236100
  0
VERTEX
  8
0
 10
1.38761800
 20
0.95279400
  0
VERTEX
  8
0
 10
1.38494200
 20
0.95319600
  0
VERTEX
  8
0
 10
1.38230700
 20
0.95356800
  0
VERTEX
  8
0
 10
1.37971300
 20
0.95391100
  0
VERTEX
  8
0
 10
1.37716100
 20
0.95422600
  0
VERTEX
  8
0
 10
1.37465000
 20
0.95451400
  0
VERTEX
  8
0
 10
1.37218200
 20
0.95477600
  0
VERTEX
  8
0
 10
1.36975500
 20
0.95501100
  0
VERTEX
  8
0
 10
1.36737200
 20
0.95522100
  0
VERTEX
  8
0
 10
1.36503100
 20
0.95540700
  0
VERTEX
  8
0
 10
1.36273300
 20
0.95556900
  0
VERTEX
  8
0
 10
1.36047900
 20
0.95570900
  0
VERTEX
  8
0
 10
1.35826800
 20
0.95582600
  0
VERTEX
  8
0
 10
1.35610100
 20
0.95592300
  0
VERTEX
  8
0
 10
1.35397800
 20
0.95599800
  0
VERTEX
  8
0
 10
1.35189900
 20
0.95605400
  0
VERTEX
  8
0
 10
1.34986400
 20
0.95609100
  0
VERTEX
  8
0
 10
1.34592900
 20
0.95611200
  0
VERTEX
  8
0
 10
1.34217200
 20
0.95606500
  0
VERTEX
  8
0
 10
1.33859600
 20
0.95595900
  0
VERTEX
  8
0
 10
1.33520000
 20
0.95579800
  0
VERTEX
  8
0
 10
1.33198700
 20
0.95559000
  0
VERTEX
  8
0
 10
1.32895600
 20
0.95534100
  0
VERTEX
  8
0
 10
1.32610700
 20
0.95505600
  0
VERTEX
  8
0
 10
1.32344200
 20
0.95474300
  0
VERTEX
  8
0
 10
1.32096000
 20
0.95440700
  0
VERTEX
  8
0
 10
1.31866100
 20
0.95405500
  0
VERTEX
  8
0
 10
1.31654500
 20
0.95369400
  0
VERTEX
  8
0
 10
1.31371300
 20
0.95314600
  0
VERTEX
  8
0
 10
1.31128900
 20
0.95261100
  0
VERTEX
  8
0
 10
1.30927000
 20
0.95211100
  0
VERTEX
  8
0
 10
1.30720300
 20
0.95153100
  0
VERTEX
  8
0
 10
1.30508100
 20
0.95082600
  0
VERTEX
  8
0
 10
1.17880300
 20
0.90055000
  0
VERTEX
  8
0
 10
1.10521400
 20
1.02372900
  0
VERTEX
  8
0
 10
1.20933400
 20
1.11109600
  0
VERTEX
  8
0
 10
1.21096000
 20
1.11263100
  0
VERTEX
  8
0
 10
1.21245000
 20
1.11417600
  0
VERTEX
  8
0
 10
1.21384800
 20
1.11571600
  0
VERTEX
  8
0
 10
1.21546700
 20
1.11759700
  0
VERTEX
  8
0
 10
1.21729200
 20
1.11983200
  0
VERTEX
  8
0
 10
1.21861300
 20
1.12152400
  0
VERTEX
  8
0
 10
1.22001300
 20
1.12338100
  0
VERTEX
  8
0
 10
1.22148500
 20
1.12540800
  0
VERTEX
  8
0
 10
1.22302400
 20
1.12760600
  0
VERTEX
  8
0
 10
1.22462400
 20
1.12997900
  0
VERTEX
  8
0
 10
1.22628000
 20
1.13253000
  0
VERTEX
  8
0
 10
1.22798700
 20
1.13526100
  0
VERTEX
  8
0
 10
1.22973700
 20
1.13817500
  0
VERTEX
  8
0
 10
1.23152600
 20
1.14127400
  0
VERTEX
  8
0
 10
1.23334700
 20
1.14456000
  0
VERTEX
  8
0
 10
1.23519500
 20
1.14803500
  0
VERTEX
  8
0
 10
1.23612600
 20
1.14984400
  0
VERTEX
  8
0
 10
1.23706200
 20
1.15170100
  0
VERTEX
  8
0
 10
1.23800200
 20
1.15360700
  0
VERTEX
  8
0
 10
1.23894400
 20
1.15556100
  0
VERTEX
  8
0
 10
1.23988900
 20
1.15756300
  0
VERTEX
  8
0
 10
1.24083400
 20
1.15961400
  0
VERTEX
  8
0
 10
1.24178000
 20
1.16171400
  0
VERTEX
  8
0
 10
1.24272600
 20
1.16386400
  0
VERTEX
  8
0
 10
1.24367100
 20
1.16606200
  0
VERTEX
  8
0
 10
1.24461300
 20
1.16831000
  0
VERTEX
  8
0
 10
1.24555300
 20
1.17060800
  0
VERTEX
  8
0
 10
1.24648900
 20
1.17295500
  0
VERTEX
  8
0
 10
1.24742200
 20
1.17535200
  0
VERTEX
  8
0
 10
1.24834800
 20
1.17779800
  0
VERTEX
  8
0
 10
1.24927000
 20
1.18029500
  0
VERTEX
  8
0
 10
1.25018400
 20
1.18284200
  0
VERTEX
  8
0
 10
1.25109100
 20
1.18543900
  0
VERTEX
  8
0
 10
1.25198900
 20
1.18808600
  0
VERTEX
  8
0
 10
1.25287900
 20
1.19078300
  0
VERTEX
  8
0
 10
1.25375800
 20
1.19353000
  0
VERTEX
  8
0
 10
1.25462700
 20
1.19632800
  0
VERTEX
  8
0
 10
1.25548400
 20
1.19917600
  0
VERTEX
  8
0
 10
1.25632900
 20
1.20207500
  0
VERTEX
  8
0
 10
1.25716000
 20
1.20502300
  0
VERTEX
  8
0
 10
1.25797800
 20
1.20802200
  0
VERTEX
  8
0
 10
1.25878100
 20
1.21107200
  0
VERTEX
  8
0
 10
1.25956800
 20
1.21417100
  0
VERTEX
  8
0
 10
1.26033800
 20
1.21732100
  0
VERTEX
  8
0
 10
1.26109200
 20
1.22052100
  0
VERTEX
  8
0
 10
1.26182700
 20
1.22377100
  0
VERTEX
  8
0
 10
1.26254400
 20
1.22707100
  0
VERTEX
  8
0
 10
1.26324000
 20
1.23042000
  0
VERTEX
  8
0
 10
1.26391700
 20
1.23382000
  0
VERTEX
  8
0
 10
1.26457100
 20
1.23727000
  0
VERTEX
  8
0
 10
1.26520400
 20
1.24076800
  0
VERTEX
  8
0
 10
1.26581400
 20
1.24431700
  0
VERTEX
  8
0
 10
1.26640000
 20
1.24791500
  0
VERTEX
  8
0
 10
1.26696100
 20
1.25156200
  0
VERTEX
  8
0
 10
1.26749700
 20
1.25525800
  0
VERTEX
  8
0
 10
1.26800600
 20
1.25900200
  0
VERTEX
  8
0
 10
1.26848900
 20
1.26279600
  0
VERTEX
  8
0
 10
1.26894400
 20
1.26663800
  0
VERTEX
  8
0
 10
1.26937000
 20
1.27052800
  0
VERTEX
  8
0
 10
1.26976600
 20
1.27446600
  0
VERTEX
  8
0
 10
1.27013300
 20
1.27845300
  0
VERTEX
  8
0
 10
1.27046800
 20
1.28248600
  0
VERTEX
  8
0
 10
1.27077100
 20
1.28656800
  0
VERTEX
  8
0
 10
1.27104100
 20
1.29069600
  0
VERTEX
  8
0
 10
1.27127900
 20
1.29487100
  0
VERTEX
  8
0
 10
1.27153200
 20
1.30039500
  0
VERTEX
  8
0
 10
1.21051800
 20
1.35006100
  0
VERTEX
  8
0
 10
1.20516000
 20
1.34869100
  0
VERTEX
  8
0
 10
1.20112000
 20
1.34761200
  0
VERTEX
  8
0
 10
1.19713200
 20
1.34650900
  0
VERTEX
  8
0
 10
1.19319800
 20
1.34538400
  0
VERTEX
  8
0
 10
1.18931600
 20
1.34423700
  0
VERTEX
  8
0
 10
1.18548700
 20
1.34306900
  0
VERTEX
  8
0
 10
1.18171100
 20
1.34188200
  0
VERTEX
  8
0
 10
1.17798800
 20
1.34067500
  0
VERTEX
  8
0
 10
1.17431900
 20
1.33945000
  0
VERTEX
  8
0
 10
1.17070200
 20
1.33820800
  0
VERTEX
  8
0
 10
1.16713800
 20
1.33694900
  0
VERTEX
  8
0
 10
1.16362800
 20
1.33567400
  0
VERTEX
  8
0
 10
1.16017100
 20
1.33438400
  0
VERTEX
  8
0
 10
1.15676700
 20
1.33308000
  0
VERTEX
  8
0
 10
1.15341600
 20
1.33176300
  0
VERTEX
  8
0
 10
1.15011800
 20
1.33043300
  0
VERTEX
  8
0
 10
1.14687400
 20
1.32909200
  0
VERTEX
  8
0
 10
1.14368200
 20
1.32774000
  0
VERTEX
  8
0
 10
1.14054300
 20
1.32637800
  0
VERTEX
  8
0
 10
1.13745700
 20
1.32500700
  0
VERTEX
  8
0
 10
1.13442400
 20
1.32362700
  0
VERTEX
  8
0
 10
1.13144400
 20
1.32224000
  0
VERTEX
  8
0
 10
1.12851600
 20
1.32084600
  0
VERTEX
  8
0
 10
1.12564100
 20
1.31944600
  0
VERTEX
  8
0
 10
1.12281800
 20
1.31804100
  0
VERTEX
  8
0
 10
1.12004700
 20
1.31663200
  0
VERTEX
  8
0
 10
1.11732900
 20
1.31521900
  0
VERTEX
  8
0
 10
1.11466200
 20
1.31380400
  0
VERTEX
  8
0
 10
1.11204700
 20
1.31238700
  0
VERTEX
  8
0
 10
1.10948400
 20
1.31096800
  0
VERTEX
  8
0
 10
1.10697200
 20
1.30954900
  0
VERTEX
  8
0
 10
1.10451200
 20
1.30813100
  0
VERTEX
  8
0
 10
1.10210200
 20
1.30671400
  0
VERTEX
  8
0
 10
1.09974300
 20
1.30529900
  0
VERTEX
  8
0
 10
1.09743500
 20
1.30388700
  0
VERTEX
  8
0
 10
1.09517700
 20
1.30247800
  0
VERTEX
  8
0
 10
1.09297000
 20
1.30107400
  0
VERTEX
  8
0
 10
1.09081200
 20
1.29967500
  0
VERTEX
  8
0
 10
1.08870300
 20
1.29828200
  0
VERTEX
  8
0
 10
1.08664500
 20
1.29689500
  0
VERTEX
  8
0
 10
1.08463500
 20
1.29551600
  0
VERTEX
  8
0
 10
1.08267400
 20
1.29414500
  0
VERTEX
  8
0
 10
1.08076100
 20
1.29278300
  0
VERTEX
  8
0
 10
1.07889700
 20
1.29143000
  0
VERTEX
  8
0
 10
1.07708000
 20
1.29008800
  0
VERTEX
  8
0
 10
1.07531100
 20
1.28875700
  0
VERTEX
  8
0
 10
1.07358900
 20
1.28743800
  0
VERTEX
  8
0
 10
1.07191400
 20
1.28613100
  0
VERTEX
  8
0
 10
1.07028500
 20
1.28483800
  0
VERTEX
  8
0
 10
1.06870300
 20
1.28355800
  0
VERTEX
  8
0
 10
1.06567500
 20
1.28104400
  0
VERTEX
  8
0
 10
1.06282700
 20
1.27859300
  0
VERTEX
  8
0
 10
1.06015600
 20
1.27621300
  0
VERTEX
  8
0
 10
1.05765800
 20
1.27390800
  0
VERTEX
  8
0
 10
1.05533000
 20
1.27168300
  0
VERTEX
  8
0
 10
1.05316800
 20
1.26954300
  0
VERTEX
  8
0
 10
1.05116900
 20
1.26749400
  0
VERTEX
  8
0
 10
1.04932900
 20
1.26554100
  0
VERTEX
  8
0
 10
1.04764300
 20
1.26368900
  0
VERTEX
  8
0
 10
1.04610800
 20
1.26194100
  0
VERTEX
  8
0
 10
1.04472000
 20
1.26030400
  0
VERTEX
  8
0
 10
1.04290200
 20
1.25806400
  0
VERTEX
  8
0
 10
1.04138900
 20
1.25609600
  0
VERTEX
  8
0
 10
1.04016500
 20
1.25441500
  0
VERTEX
  8
0
 10
1.03895400
 20
1.25264300
  0
VERTEX
  8
0
 10
1.03778100
 20
1.25073900
  0
VERTEX
  8
0
 10
0.97336300
 20
1.13105500
  0
VERTEX
  8
0
 10
0.83781300
 20
1.17811300
  0
VERTEX
  8
0
 10
0.86141500
 20
1.31196700
  0
VERTEX
  8
0
 10
0.86167500
 20
1.31418800
  0
VERTEX
  8
0
 10
0.86182200
 20
1.31633000
  0
VERTEX
  8
0
 10
0.86190300
 20
1.31840800
  0
VERTEX
  8
0
 10
0.86193500
 20
1.32089000
  0
VERTEX
  8
0
 10
0.86189600
 20
1.32377400
  0
VERTEX
  8
0
 10
0.86182100
 20
1.32592000
  0
VERTEX
  8
0
 10
0.86169900
 20
1.32824200
  0
VERTEX
  8
0
 10
0.86152400
 20
1.33074100
  0
VERTEX
  8
0
 10
0.86129000
 20
1.33341400
  0
VERTEX
  8
0
 10
0.86099000
 20
1.33626100
  0
VERTEX
  8
0
 10
0.86061900
 20
1.33928000
  0
VERTEX
  8
0
 10
0.86017100
 20
1.34246800
  0
VERTEX
  8
0
 10
0.85963900
 20
1.34582600
  0
VERTEX
  8
0
 10
0.85901700
 20
1.34934900
  0
VERTEX
  8
0
 10
0.85830000
 20
1.35303700
  0
VERTEX
  8
0
 10
0.85748200
 20
1.35688700
  0
VERTEX
  8
0
 10
0.85703200
 20
1.35887200
  0
VERTEX
  8
0
 10
0.85655600
 20
1.36089600
  0
VERTEX
  8
0
 10
0.85605100
 20
1.36296000
  0
VERTEX
  8
0
 10
0.85551700
 20
1.36506200
  0
VERTEX
  8
0
 10
0.85495300
 20
1.36720300
  0
VERTEX
  8
0
 10
0.85435900
 20
1.36938200
  0
VERTEX
  8
0
 10
0.85373400
 20
1.37159900
  0
VERTEX
  8
0
 10
0.85307700
 20
1.37385400
  0
VERTEX
  8
0
 10
0.85238700
 20
1.37614500
  0
VERTEX
  8
0
 10
0.85166400
 20
1.37847300
  0
VERTEX
  8
0
 10
0.85090700
 20
1.38083700
  0
VERTEX
  8
0
 10
0.85011600
 20
1.38323700
  0
VERTEX
  8
0
 10
0.84928900
 20
1.38567200
  0
VERTEX
  8
0
 10
0.84842700
 20
1.38814200
  0
VERTEX
  8
0
 10
0.84752700
 20
1.39064700
  0
VERTEX
  8
0
 10
0.84659100
 20
1.39318500
  0
VERTEX
  8
0
 10
0.84561600
 20
1.39575800
  0
VERTEX
  8
0
 10
0.84460300
 20
1.39836300
  0
VERTEX
  8
0
 10
0.84355000
 20
1.40100100
  0
VERTEX
  8
0
 10
0.84245800
 20
1.40367100
  0
VERTEX
  8
0
 10
0.84132500
 20
1.40637200
  0
VERTEX
  8
0
 10
0.84015100
 20
1.40910500
  0
VERTEX
  8
0
 10
0.83893500
 20
1.41186800
  0
VERTEX
  8
0
 10
0.83767700
 20
1.41466200
  0
VERTEX
  8
0
 10
0.83637500
 20
1.41748500
  0
VERTEX
  8
0
 10
0.83503000
 20
1.42033700
  0
VERTEX
  8
0
 10
0.83364100
 20
1.42321700
  0
VERTEX
  8
0
 10
0.83220700
 20
1.42612500
  0
VERTEX
  8
0
 10
0.83072700
 20
1.42906100
  0
VERTEX
  8
0
 10
0.82920100
 20
1.43202300
  0
VERTEX
  8
0
 10
0.82762900
 20
1.43501100
  0
VERTEX
  8
0
 10
0.82601000
 20
1.43802500
  0
VERTEX
  8
0
 10
0.82434200
 20
1.44106400
  0
VERTEX
  8
0
 10
0.82262700
 20
1.44412800
  0
VERTEX
  8
0
 10
0.82086200
 20
1.44721500
  0
VERTEX
  8
0
 10
0.81904800
 20
1.45032500
  0
VERTEX
  8
0
 10
0.81718500
 20
1.45345800
  0
VERTEX
  8
0
 10
0.81527000
 20
1.45661200
  0
VERTEX
  8
0
 10
0.81330500
 20
1.45978800
  0
VERTEX
  8
0
 10
0.81128800
 20
1.46298400
  0
VERTEX
  8
0
 10
0.80922000
 20
1.46620000
  0
VERTEX
  8
0
 10
0.80709800
 20
1.46943600
  0
VERTEX
  8
0
 10
0.80492400
 20
1.47269000
  0
VERTEX
  8
0
 10
0.80269600
 20
1.47596100
  0
VERTEX
  8
0
 10
0.80041500
 20
1.47925000
  0
VERTEX
  8
0
 10
0.79807900
 20
1.48255600
  0
VERTEX
  8
0
 10
0.79568800
 20
1.48587700
  0
VERTEX
  8
0
 10
0.79324100
 20
1.48921400
  0
VERTEX
  8
0
 10
0.79073900
 20
1.49256400
  0
VERTEX
  8
0
 10
0.78738300
 20
1.49695900
  0
VERTEX
  8
0
 10
0.70871800
 20
1.49578600
  0
VERTEX
  8
0
 10
0.70549500
 20
1.49129300
  0
VERTEX
  8
0
 10
0.70309400
 20
1.48786900
  0
VERTEX
  8
0
 10
0.70074800
 20
1.48446100
  0
VERTEX
  8
0
 10
0.69845700
 20
1.48107000
  0
VERTEX
  8
0
 10
0.69622000
 20
1.47769600
  0
VERTEX
  8
0
 10
0.69403800
 20
1.47434000
  0
VERTEX
  8
0
 10
0.69190900
 20
1.47100400
  0
VERTEX
  8
0
 10
0.68983200
 20
1.46768600
  0
VERTEX
  8
0
 10
0.68780900
 20
1.46438900
  0
VERTEX
  8
0
 10
0.68583700
 20
1.46111300
  0
VERTEX
  8
0
 10
0.68391600
 20
1.45785800
  0
VERTEX
  8
0
 10
0.68204700
 20
1.45462500
  0
VERTEX
  8
0
 10
0.68022700
 20
1.45141400
  0
VERTEX
  8
0
 10
0.67845800
 20
1.44822800
  0
VERTEX
  8
0
 10
0.67673800
 20
1.44506500
  0
VERTEX
  8
0
 10
0.67506600
 20
1.44192600
  0
VERTEX
  8
0
 10
0.67344300
 20
1.43881300
  0
VERTEX
  8
0
 10
0.67186700
 20
1.43572600
  0
VERTEX
  8
0
 10
0.67033800
 20
1.43266500
  0
VERTEX
  8
0
 10
0.66885500
 20
1.42963100
  0
VERTEX
  8
0
 10
0.66741900
 20
1.42662500
  0
VERTEX
  8
0
 10
0.66602700
 20
1.42364600
  0
VERTEX
  8
0
 10
0.66468000
 20
1.42069600
  0
VERTEX
  8
0
 10
0.66337800
 20
1.41777600
  0
VERTEX
  8
0
 10
0.66211800
 20
1.41488500
  0
VERTEX
  8
0
 10
0.66090200
 20
1.41202500
  0
VERTEX
  8
0
 10
0.65972700
 20
1.40919500
  0
VERTEX
  8
0
 10
0.65859400
 20
1.40639700
  0
VERTEX
  8
0
 10
0.65750200
 20
1.40363000
  0
VERTEX
  8
0
 10
0.65645000
 20
1.40089600
  0
VERTEX
  8
0
 10
0.65543800
 20
1.39819500
  0
VERTEX
  8
0
 10
0.65446500
 20
1.39552600
  0
VERTEX
  8
0
 10
0.65353000
 20
1.39289200
  0
VERTEX
  8
0
 10
0.65263200
 20
1.39029200
  0
VERTEX
  8
0
 10
0.65177200
 20
1.38772700
  0
VERTEX
  8
0
 10
0.65094800
 20
1.38519600
  0
VERTEX
  8
0
 10
0.65015900
 20
1.38270100
  0
VERTEX
  8
0
 10
0.64940500
 20
1.38024300
  0
VERTEX
  8
0
 10
0.64868600
 20
1.37782000
  0
VERTEX
  8
0
 10
0.64800000
 20
1.37543400
  0
VERTEX
  8
0
 10
0.64734700
 20
1.37308600
  0
VERTEX
  8
0
 10
0.64672600
 20
1.37077500
  0
VERTEX
  8
0
 10
0.64613600
 20
1.36850200
  0
VERTEX
  8
0
 10
0.64557800
 20
1.36626800
  0
VERTEX
  8
0
 10
0.64504900
 20
1.36407200
  0
VERTEX
  8
0
 10
0.64454900
 20
1.36191500
  0
VERTEX
  8
0
 10
0.64407800
 20
1.35979800
  0
VERTEX
  8
0
 10
0.64363500
 20
1.35772000
  0
VERTEX
  8
0
 10
0.64321900
 20
1.35568200
  0
VERTEX
  8
0
 10
0.64282900
 20
1.35368500
  0
VERTEX
  8
0
 10
0.64212600
 20
1.34981200
  0
VERTEX
  8
0
 10
0.64151900
 20
1.34610500
  0
VERTEX
  8
0
 10
0.64100300
 20
1.34256400
  0
VERTEX
  8
0
 10
0.64057100
 20
1.33919200
  0
VERTEX
  8
0
 10
0.64021800
 20
1.33599200
  0
VERTEX
  8
0
 10
0.63993700
 20
1.33296300
  0
VERTEX
  8
0
 10
0.63972300
 20
1.33010900
  0
VERTEX
  8
0
 10
0.63956900
 20
1.32743000
  0
VERTEX
  8
0
 10
0.63946800
 20
1.32492700
  0
VERTEX
  8
0
 10
0.63941600
 20
1.32260200
  0
VERTEX
  8
0
 10
0.63940400
 20
1.32045500
  0
VERTEX
  8
0
 10
0.63945200
 20
1.31757100
  0
VERTEX
  8
0
 10
0.63955700
 20
1.31509100
  0
VERTEX
  8
0
 10
0.63970000
 20
1.31301600
  0
VERTEX
  8
0
 10
0.63991200
 20
1.31088000
  0
VERTEX
  8
0
 10
0.64023700
 20
1.30866800
  0
VERTEX
  8
0
 10
0.66782200
 20
1.17557700
  0
VERTEX
  8
0
 10
0.53373600
 20
1.12449600
  0
VERTEX
  8
0
 10
0.46577600
 20
1.24220600
  0
VERTEX
  8
0
 10
0.46454700
 20
1.24407400
  0
VERTEX
  8
0
 10
0.46328400
 20
1.24580900
  0
VERTEX
  8
0
 10
0.46201000
 20
1.24745300
  0
VERTEX
  8
0
 10
0.46043900
 20
1.24937500
  0
VERTEX
  8
0
 10
0.45855500
 20
1.25155900
  0
VERTEX
  8
0
 10
0.45711800
 20
1.25315500
  0
VERTEX
  8
0
 10
0.45553200
 20
1.25485500
  0
VERTEX
  8
0
 10
0.45379200
 20
1.25665700
  0
VERTEX
  8
0
 10
0.45189400
 20
1.25855400
  0
VERTEX
  8
0
 10
0.44983500
 20
1.26054200
  0
VERTEX
  8
0
 10
0.44761100
 20
1.26261600
  0
VERTEX
  8
0
 10
0.44521700
 20
1.26477100
  0
VERTEX
  8
0
 10
0.44265200
 20
1.26700100
  0
VERTEX
  8
0
 10
0.43991100
 20
1.26930100
  0
VERTEX
  8
0
 10
0.43699100
 20
1.27166500
  0
VERTEX
  8
0
 10
0.43388900
 20
1.27408800
  0
VERTEX
  8
0
 10
0.43226900
 20
1.27531900
  0
VERTEX
  8
0
 10
0.43060300
 20
1.27656400
  0
VERTEX
  8
0
 10
0.42889000
 20
1.27782000
  0
VERTEX
  8
0
 10
0.42712900
 20
1.27908700
  0
VERTEX
  8
0
 10
0.42532100
 20
1.28036500
  0
VERTEX
  8
0
 10
0.42346500
 20
1.28165200
  0
VERTEX
  8
0
 10
0.42156100
 20
1.28294900
  0
VERTEX
  8
0
 10
0.41960900
 20
1.28425300
  0
VERTEX
  8
0
 10
0.41760800
 20
1.28556500
  0
VERTEX
  8
0
 10
0.41555800
 20
1.28688400
  0
VERTEX
  8
0
 10
0.41345800
 20
1.28820800
  0
VERTEX
  8
0
 10
0.41130900
 20
1.28953800
  0
VERTEX
  8
0
 10
0.40911100
 20
1.29087200
  0
VERTEX
  8
0
 10
0.40686200
 20
1.29221000
  0
VERTEX
  8
0
 10
0.40456300
 20
1.29355100
  0
VERTEX
  8
0
 10
0.40221400
 20
1.29489300
  0
VERTEX
  8
0
 10
0.39981400
 20
1.29623700
  0
VERTEX
  8
0
 10
0.39736300
 20
1.29758200
  0
VERTEX
  8
0
 10
0.39486100
 20
1.29892600
  0
VERTEX
  8
0
 10
0.39230800
 20
1.30026900
  0
VERTEX
  8
0
 10
0.38970400
 20
1.30161100
  0
VERTEX
  8
0
 10
0.38704800
 20
1.30294900
  0
VERTEX
  8
0
 10
0.38434000
 20
1.30428400
  0
VERTEX
  8
0
 10
0.38158100
 20
1.30561600
  0
VERTEX
  8
0
 10
0.37876900
 20
1.30694100
  0
VERTEX
  8
0
 10
0.37590600
 20
1.30826200
  0
VERTEX
  8
0
 10
0.37299000
 20
1.30957500
  0
VERTEX
  8
0
 10
0.37002200
 20
1.31088100
  0
VERTEX
  8
0
 10
0.36700200
 20
1.31217900
  0
VERTEX
  8
0
 10
0.36392900
 20
1.31346700
  0
VERTEX
  8
0
 10
0.36080300
 20
1.31474600
  0
VERTEX
  8
0
 10
0.35762500
 20
1.31601300
  0
VERTEX
  8
0
 10
0.35439500
 20
1.31727000
  0
VERTEX
  8
0
 10
0.35111200
 20
1.31851400
  0
VERTEX
  8
0
 10
0.34777600
 20
1.31974400
  0
VERTEX
  8
0
 10
0.34438700
 20
1.32096100
  0
VERTEX
  8
0
 10
0.34094600
 20
1.32216300
  0
VERTEX
  8
0
 10
0.33745100
 20
1.32334900
  0
VERTEX
  8
0
 10
0.33390500
 20
1.32451800
  0
VERTEX
  8
0
 10
0.33030500
 20
1.32567000
  0
VERTEX
  8
0
 10
0.32665300
 20
1.32680400
  0
VERTEX
  8
0
 10
0.32294900
 20
1.32791900
  0
VERTEX
  8
0
 10
0.31919100
 20
1.32901400
  0
VERTEX
  8
0
 10
0.31538200
 20
1.33008900
  0
VERTEX
  8
0
 10
0.31152000
 20
1.33114200
  0
VERTEX
  8
0
 10
0.30760500
 20
1.33217200
  0
VERTEX
  8
0
 10
0.30363900
 20
1.33317900
  0
VERTEX
  8
0
 10
0.29962000
 20
1.33416300
  0
VERTEX
  8
0
 10
0.29555000
 20
1.33512100
  0
VERTEX
  8
0
 10
0.29015400
 20
1.33633100
  0
VERTEX
  8
0
 10
0.23064800
 20
1.28486700
  0
VERTEX
  8
0
 10
0.23106600
 20
1.27935300
  0
VERTEX
  8
0
 10
0.23142800
 20
1.27518700
  0
VERTEX
  8
0
 10
0.23182100
 20
1.27106800
  0
VERTEX
  8
0
 10
0.23224600
 20
1.26699800
  0
VERTEX
  8
0
 10
0.23270100
 20
1.26297600
  0
VERTEX
  8
0
 10
0.23318600
 20
1.25900300
  0
VERTEX
  8
0
 10
0.23370000
 20
1.25507800
  0
VERTEX
  8
0
 10
0.23424200
 20
1.25120200
  0
VERTEX
  8
0
 10
0.23481100
 20
1.24737500
  0
VERTEX
  8
0
 10
0.23540700
 20
1.24359800
  0
VERTEX
  8
0
 10
0.23602800
 20
1.23987000
  0
VERTEX
  8
0
 10
0.23667400
 20
1.23619200
  0
VERTEX
  8
0
 10
0.23734300
 20
1.23256300
  0
VERTEX
  8
0
 10
0.23803600
 20
1.22898400
  0
VERTEX
  8
0
 10
0.23875200
 20
1.22545600
  0
VERTEX
  8
0
 10
0.23948800
 20
1.22197700
  0
VERTEX
  8
0
 10
0.24024600
 20
1.21854900
  0
VERTEX
  8
0
 10
0.24102300
 20
1.21517100
  0
VERTEX
  8
0
 10
0.24182000
 20
1.21184300
  0
VERTEX
  8
0
 10
0.24263400
 20
1.20856600
  0
VERTEX
  8
0
 10
0.24346600
 20
1.20534000
  0
VERTEX
  8
0
 10
0.24431500
 20
1.20216400
  0
VERTEX
  8
0
 10
0.24517900
 20
1.19903800
  0
VERTEX
  8
0
 10
0.24605800
 20
1.19596400
  0
VERTEX
  8
0
 10
0.24695200
 20
1.19294000
  0
VERTEX
  8
0
 10
0.24785800
 20
1.18996600
  0
VERTEX
  8
0
 10
0.24877800
 20
1.18704400
  0
VERTEX
  8
0
 10
0.24970800
 20
1.18417200
  0
VERTEX
  8
0
 10
0.25065000
 20
1.18135100
  0
VERTEX
  8
0
 10
0.25160200
 20
1.17858000
  0
VERTEX
  8
0
 10
0.25256300
 20
1.17586000
  0
VERTEX
  8
0
 10
0.25353200
 20
1.17319100
  0
VERTEX
  8
0
 10
0.25450900
 20
1.17057100
  0
VERTEX
  8
0
 10
0.25549300
 20
1.16800300
  0
VERTEX
  8
0
 10
0.25648300
 20
1.16548400
  0
VERTEX
  8
0
 10
0.25747800
 20
1.16301600
  0
VERTEX
  8
0
 10
0.25847800
 20
1.16059800
  0
VERTEX
  8
0
 10
0.25948100
 20
1.15823000
  0
VERTEX
  8
0
 10
0.26048700
 20
1.15591200
  0
VERTEX
  8
0
 10
0.26149500
 20
1.15364400
  0
VERTEX
  8
0
 10
0.26250400
 20
1.15142500
  0
VERTEX
  8
0
 10
0.26351400
 20
1.14925600
  0
VERTEX
  8
0
 10
0.26452300
 20
1.14713500
  0
VERTEX
  8
0
 10
0.26553100
 20
1.14506400
  0
VERTEX
  8
0
 10
0.26653800
 20
1.14304200
  0
VERTEX
  8
0
 10
0.26754100
 20
1.14106900
  0
VERTEX
  8
0
 10
0.26854200
 20
1.13914400
  0
VERTEX
  8
0
 10
0.26953800
 20
1.13726800
  0
VERTEX
  8
0
 10
0.27052900
 20
1.13543900
  0
VERTEX
  8
0
 10
0.27151400
 20
1.13365900
  0
VERTEX
  8
0
 10
0.27346400
 20
1.13024000
  0
VERTEX
  8
0
 10
0.27538300
 20
1.12701000
  0
VERTEX
  8
0
 10
0.27726300
 20
1.12396600
  0
VERTEX
  8
0
 10
0.27910000
 20
1.12110500
  0
VERTEX
  8
0
 10
0.28088700
 20
1.11842700
  0
VERTEX
  8
0
 10
0.28261800
 20
1.11592600
  0
VERTEX
  8
0
 10
0.28428900
 20
1.11360200
  0
VERTEX
  8
0
 10
0.28589300
 20
1.11145000
  0
VERTEX
  8
0
 10
0.28742500
 20
1.10946900
  0
VERTEX
  8
0
 10
0.28887900
 20
1.10765400
  0
VERTEX
  8
0
 10
0.29025000
 20
1.10600200
  0
VERTEX
  8
0
 10
0.29214100
 20
1.10382300
  0
VERTEX
  8
0
 10
0.29381600
 20
1.10199100
  0
VERTEX
  8
0
 10
0.29525900
 20
1.10049300
  0
VERTEX
  8
0
 10
0.29679400
 20
1.09899300
  0
VERTEX
  8
0
 10
0.29846500
 20
1.09750800
  0
VERTEX
  8
0
 10
0.40514500
 20
1.01328500
  0
VERTEX
  8
0
 10
0.33526300
 20
0.88796600
  0
VERTEX
  8
0
 10
0.20754100
 20
0.93445300
  0
VERTEX
  8
0
 10
0.20539900
 20
0.93509400
  0
VERTEX
  8
0
 10
0.20331600
 20
0.93561200
  0
VERTEX
  8
0
 10
0.20128300
 20
0.93605200
  0
VERTEX
  8
0
 10
0.19884400
 20
0.93651400
  0
VERTEX
  8
0
 10
0.19599700
 20
0.93697700
  0
VERTEX
  8
0
 10
0.19387100
 20
0.93727600
  0
VERTEX
  8
0
 10
0.19156300
 20
0.93755900
  0
VERTEX
  8
0
 10
0.18907200
 20
0.93782000
  0
VERTEX
  8
0
 10
0.18639800
 20
0.93805400
  0
VERTEX
  8
0
 10
0.18354300
 20
0.93825300
  0
VERTEX
  8
0
 10
0.18050600
 20
0.93841200
  0
VERTEX
  8
0
 10
0.17728700
 20
0.93852400
  0
VERTEX
  8
0
 10
0.17388900
 20
0.93858300
  0
VERTEX
  8
0
 10
0.17031100
 20
0.93858300
  0
VERTEX
  8
0
 10
0.16655400
 20
0.93851700
  0
VERTEX
  8
0
 10
0.16262100
 20
0.93838000
  0
VERTEX
  8
0
 10
0.16058800
 20
0.93828200
  0
VERTEX
  8
0
 10
0.15851200
 20
0.93816400
  0
VERTEX
  8
0
 10
0.15639200
 20
0.93802500
  0
VERTEX
  8
0
 10
0.15422900
 20
0.93786400
  0
VERTEX
  8
0
 10
0.15202200
 20
0.93768100
  0
VERTEX
  8
0
 10
0.14977300
 20
0.93747400
  0
VERTEX
  8
0
 10
0.14748100
 20
0.93724400
  0
VERTEX
  8
0
 10
0.14514700
 20
0.93698800
  0
VERTEX
  8
0
 10
0.14277100
 20
0.93670700
  0
VERTEX
  8
0
 10
0.14035300
 20
0.93639900
  0
VERTEX
  8
0
 10
0.13789300
 20
0.93606400
  0
VERTEX
  8
0
 10
0.13539200
 20
0.93570200
  0
VERTEX
  8
0
 10
0.13285100
 20
0.93531000
  0
VERTEX
  8
0
 10
0.13026800
 20
0.93489000
  0
VERTEX
  8
0
 10
0.12764500
 20
0.93443900
  0
VERTEX
  8
0
 10
0.12498300
 20
0.93395700
  0
VERTEX
  8
0
 10
0.12228000
 20
0.93344400
  0
VERTEX
  8
0
 10
0.11953900
 20
0.93289900
  0
VERTEX
  8
0
 10
0.11675800
 20
0.93232100
  0
VERTEX
  8
0
 10
0.11393900
 20
0.93170800
  0
VERTEX
  8
0
 10
0.11108200
 20
0.93106200
  0
VERTEX
  8
0
 10
0.10818700
 20
0.93038000
  0
VERTEX
  8
0
 10
0.10525400
 20
0.92966200
  0
VERTEX
  8
0
 10
0.10228500
 20
0.92890800
  0
VERTEX
  8
0
 10
0.09927900
 20
0.92811700
  0
VERTEX
  8
0
 10
0.09623700
 20
0.92728700
  0
VERTEX
  8
0
 10
0.09315900
 20
0.92641900
  0
VERTEX
  8
0
 10
0.09004600
 20
0.92551200
  0
VERTEX
  8
0
 10
0.08689800
 20
0.92456500
  0
VERTEX
  8
0
 10
0.08371600
 20
0.92357600
  0
VERTEX
  8
0
 10
0.08049900
 20
0.92254700
  0
VERTEX
  8
0
 10
0.07725000
 20
0.92147500
  0
VERTEX
  8
0
 10
0.07396800
 20
0.92036100
  0
VERTEX
  8
0
 10
0.07065300
 20
0.91920400
  0
VERTEX
  8
0
 10
0.06730700
 20
0.91800200
  0
VERTEX
  8
0
 10
0.06392900
 20
0.91675600
  0
VERTEX
  8
0
 10
0.06052000
 20
0.91546400
  0
VERTEX
  8
0
 10
0.05708100
 20
0.91412700
  0
VERTEX
  8
0
 10
0.05361200
 20
0.91274300
  0
VERTEX
  8
0
 10
0.05011400
 20
0.91131200
  0
VERTEX
  8
0
 10
0.04658800
 20
0.90983300
  0
VERTEX
  8
0
 10
0.04303300
 20
0.90830600
  0
VERTEX
  8
0
 10
0.03945100
 20
0.90673000
  0
VERTEX
  8
0
 10
0.03584200
 20
0.90510400
  0
VERTEX
  8
0
 10
0.03220700
 20
0.90342800
  0
VERTEX
  8
0
 10
0.02854600
 20
0.90170100
  0
VERTEX
  8
0
 10
0.02486000
 20
0.89992300
  0
VERTEX
  8
0
 10
0.02114900
 20
0.89809400
  0
VERTEX
  8
0
 10
0.01741500
 20
0.89621100
  0
VERTEX
  8
0
 10
0.01250400
 20
0.89366900
  0
VERTEX
  8
0
 10
0.00000000
 20
0.81599600
  0
VERTEX
  8
0
 10
0.00386500
 20
0.81204100
  0
VERTEX
  8
0
 10
0.00682000
 20
0.80908200
  0
VERTEX
  8
0
 10
0.00976900
 20
0.80618000
  0
VERTEX
  8
0
 10
0.01271000
 20
0.80333500
  0
VERTEX
  8
0
 10
0.01564400
 20
0.80054700
  0
VERTEX
  8
0
 10
0.01857000
 20
0.79781500
  0
VERTEX
  8
0
 10
0.02148700
 20
0.79513800
  0
VERTEX
  8
0
 10
0.02439300
 20
0.79251800
  0
VERTEX
  8
0
 10
0.02728900
 20
0.78995200
  0
VERTEX
  8
0
 10
0.03017300
 20
0.78744100
  0
VERTEX
  8
0
 10
0.03304500
 20
0.78498500
  0
VERTEX
  8
0
 10
0.03590400
 20
0.78258200
  0
VERTEX
  8
0
 10
0.03875000
 20
0.78023300
  0
VERTEX
  8
0
 10
0.04158100
 20
0.77793700
  0
VERTEX
  8
0
 10
0.04439700
 20
0.77569400
  0
VERTEX
  8
0
 10
0.04719700
 20
0.77350200
  0
VERTEX
  8
0
 10
0.04998100
 20
0.77136300
  0
VERTEX
  8
0
 10
0.05274800
 20
0.76927500
  0
VERTEX
  8
0
 10
0.05549700
 20
0.76723800
  0
VERTEX
  8
0
 10
0.05822700
 20
0.76525100
  0
VERTEX
  8
0
 10
0.06093900
 20
0.76331400
  0
VERTEX
  8
0
 10
0.06363000
 20
0.76142700
  0
VERTEX
  8
0
 10
0.06630100
 20
0.75958800
  0
VERTEX
  8
0
 10
0.06895100
 20
0.75779800
  0
VERTEX
  8
0
 10
0.07157900
 20
0.75605600
  0
VERTEX
  8
0
 10
0.07418500
 20
0.75436100
  0
VERTEX
  8
0
 10
0.07676800
 20
0.75271300
  0
VERTEX
  8
0
 10
0.07932700
 20
0.75111100
  0
VERTEX
  8
0
 10
0.08186200
 20
0.74955500
  0
VERTEX
  8
0
 10
0.08437200
 20
0.74804500
  0
VERTEX
  8
0
 10
0.08685600
 20
0.74657900
  0
VERTEX
  8
0
 10
0.08931500
 20
0.74515700
  0
VERTEX
  8
0
 10
0.09174700
 20
0.74377900
  0
VERTEX
  8
0
 10
0.09415200
 20
0.74244300
  0
VERTEX
  8
0
 10
0.09652900
 20
0.74115000
  0
VERTEX
  8
0
 10
0.09887800
 20
0.73989900
  0
VERTEX
  8
0
 10
0.10119800
 20
0.73869000
  0
VERTEX
  8
0
 10
0.10348800
 20
0.73752000
  0
VERTEX
  8
0
 10
0.10574900
 20
0.73639100
  0
VERTEX
  8
0
 10
0.10797900
 20
0.73530100
  0
VERTEX
  8
0
 10
0.11017800
 20
0.73425000
  0
VERTEX
  8
0
 10
0.11234600
 20
0.73323800
  0
VERTEX
  8
0
 10
0.11448200
 20
0.73226200
  0
VERTEX
  8
0
 10
0.11658600
 20
0.73132400
  0
VERTEX
  8
0
 10
0.11865700
 20
0.73042200
  0
VERTEX
  8
0
 10
0.12069400
 20
0.72955500
  0
VERTEX
  8
0
 10
0.12269700
 20
0.72872400
  0
VERTEX
  8
0
 10
0.12466700
 20
0.72792600
  0
VERTEX
  8
0
 10
0.12660100
 20
0.72716300
  0
VERTEX
  8
0
 10
0.12850000
 20
0.72643200
  0
VERTEX
  8
0
 10
0.13219200
 20
0.72506700
  0
VERTEX
  8
0
 10
0.13573800
 20
0.72382600
  0
VERTEX
  8
0
 10
0.13913500
 20
0.72270200
  0
VERTEX
  8
0
 10
0.14238100
 20
0.72169200
  0
VERTEX
  8
0
 10
0.14547100
 20
0.72078800
  0
VERTEX
  8
0
 10
0.14840500
 20
0.71998600
  0
VERTEX
  8
0
 10
0.15117900
 20
0.71927900
  0
VERTEX
  8
0
 10
0.15379000
 20
0.71866200
  0
VERTEX
  8
0
 10
0.15623700
 20
0.71812900
  0
VERTEX
  8
0
 10
0.15851800
 20
0.71767300
  0
VERTEX
  8
0
 10
0.16063000
 20
0.71728900
  0
VERTEX
  8
0
 10
0.16347900
 20
0.71683500
  0
VERTEX
  8
0
 10
0.16594000
 20
0.71650900
  0
VERTEX
  8
0
 10
0.16800800
 20
0.71628900
  0
VERTEX
  8
0
 10
0.17014800
 20
0.71612600
  0
VERTEX
  8
0
 10
0.17238300
 20
0.71606300
  0
VERTEX
  8
0
 10
0.30824200
 20
0.72011700
  0
VERTEX
  8
0
 10
0.33526300
 20
0.57919800
  0
VERTEX
  8
0
 10
0.20754100
 20
0.53271100
  0
VERTEX
  8
0
 10
0.20548800
 20
0.53182500
  0
VERTEX
  8
0
 10
0.20356000
 20
0.53088200
  0
VERTEX
  8
0
 10
0.20171900
 20
0.52991300
  0
VERTEX
  8
0
 10
0.19955400
 20
0.52870000
  0
VERTEX
  8
0
 10
0.19707500
 20
0.52722400
  0
VERTEX
  8
0
 10
0.19525500
 20
0.52608600
  0
VERTEX
  8
0
 10
0.19330500
 20
0.52481900
  0
VERTEX
  8
0
 10
0.19122800
 20
0.52341800
  0
VERTEX
  8
0
 10
0.18903000
 20
0.52187900
  0
VERTEX
  8
0
 10
0.18671500
 20
0.52019600
  0
VERTEX
  8
0
 10
0.18428600
 20
0.51836600
  0
VERTEX
  8
0
 10
0.18174800
 20
0.51638300
  0
VERTEX
  8
0
 10
0.17910700
 20
0.51424400
  0
VERTEX
  8
0
 10
0.17636600
 20
0.51194300
  0
VERTEX
  8
0
 10
0.17353100
 20
0.50947800
  0
VERTEX
  8
0
 10
0.17060600
 20
0.50684500
  0
VERTEX
  8
0
 10
0.16911200
 20
0.50546300
  0
VERTEX
  8
0
 10
0.16759700
 20
0.50403800
  0
VERTEX
  8
0
 10
0.16606200
 20
0.50256900
  0
VERTEX
  8
0
 10
0.16450900
 20
0.50105500
  0
VERTEX
  8
0
 10
0.16293600
 20
0.49949700
  0
VERTEX
  8
0
 10
0.16134600
 20
0.49789300
  0
VERTEX
  8
0
 10
0.15973900
 20
0.49624300
  0
VERTEX
  8
0
 10
0.15811500
 20
0.49454700
  0
VERTEX
  8
0
 10
0.15647600
 20
0.49280400
  0
VERTEX
  8
0
 10
0.15482100
 20
0.49101400
  0
VERTEX
  8
0
 10
0.15315200
 20
0.48917600
  0
VERTEX
  8
0
 10
0.15147000
 20
0.48729100
  0
VERTEX
  8
0
 10
0.14977400
 20
0.48535700
  0
VERTEX
  8
0
 10
0.14806600
 20
0.48337500
  0
VERTEX
  8
0
 10
0.14634700
 20
0.48134400
  0
VERTEX
  8
0
 10
0.14461600
 20
0.47926400
  0
VERTEX
  8
0
 10
0.14287600
 20
0.47713300
  0
VERTEX
  8
0
 10
0.14112600
 20
0.47495300
  0
VERTEX
  8
0
 10
0.13936800
 20
0.47272300
  0
VERTEX
  8
0
 10
0.13760200
 20
0.47044200
  0
VERTEX
  8
0
 10
0.13582900
 20
0.46811000
  0
VERTEX
  8
0
 10
0.13404900
 20
0.46572700
  0
VERTEX
  8
0
 10
0.13226400
 20
0.46329200
  0
VERTEX
  8
0
 10
0.13047400
 20
0.46080600
  0
VERTEX
  8
0
 10
0.12868000
 20
0.45826700
  0
VERTEX
  8
0
 10
0.12688300
 20
0.45567600
  0
VERTEX
  8
0
 10
0.12508300
 20
0.45303300
  0
VERTEX
  8
0
 10
0.12328200
 20
0.45033700
  0
VERTEX
  8
0
 10
0.12147900
 20
0.44758800
  0
VERTEX
  8
0
 10
0.11967700
 20
0.44478500
  0
VERTEX
  8
0
 10
0.11787500
 20
0.44192900
  0
VERTEX
  8
0
 10
0.11607400
 20
0.43902000
  0
VERTEX
  8
0
 10
0.11427600
 20
0.43605700
  0
VERTEX
  8
0
 10
0.11248100
 20
0.43303900
  0
VERTEX
  8
0
 10
0.11069000
 20
0.42996800
  0
VERTEX
  8
0
 10
0.10890300
 20
0.42684200
  0
VERTEX
  8
0
 10
0.10712200
 20
0.42366100
  0
VERTEX
  8
0
 10
0.10534700
 20
0.42042600
  0
VERTEX
  8
0
 10
0.10358000
 20
0.41713600
  0
VERTEX
  8
0
 10
0.10182000
 20
0.41379200
  0
VERTEX
  8
0
 10
0.10006900
 20
0.41039200
  0
VERTEX
  8
0
 10
0.09832800
 20
0.40693700
  0
VERTEX
  8
0
 10
0.09659700
 20
0.40342700
  0
VERTEX
  8
0
 10
0.09487700
 20
0.39986200
  0
VERTEX
  8
0
 10
0.09317000
 20
0.39624200
  0
VERTEX
  8
0
 10
0.09147500
 20
0.39256600
  0
VERTEX
  8
0
 10
0.08979400
 20
0.38883400
  0
VERTEX
  8
0
 10
0.08812800
 20
0.38504800
  0
VERTEX
  8
0
 10
0.08647800
 20
0.38120500
  0
VERTEX
  8
0
 10
0.08435000
 20
0.37610100
  0
VERTEX
  8
0
 10
0.12469800
 20
0.30856300
  0
VERTEX
  8
0
 10
0.13020100
 20
0.30801700
  0
VERTEX
  8
0
 10
0.13436700
 20
0.30765000
  0
VERTEX
  8
0
 10
0.13849100
 20
0.30732200
  0
VERTEX
  8
0
 10
0.14257300
 20
0.30703400
  0
VERTEX
  8
0
 10
0.14661300
 20
0.30678400
  0
VERTEX
  8
0
 10
0.15061100
 20
0.30657100
  0
VERTEX
  8
0
 10
0.15456500
 20
0.30639600
  0
VERTEX
  8
0
 10
0.15847600
 20
0.30625700
  0
VERTEX
  8
0
 10
0.16234300
 20
0.30615300
  0
VERTEX
  8
0
 10
0.16616700
 20
0.30608300
  0
VERTEX
  8
0
 10
0.16994600
 20
0.30604700
  0
VERTEX
  8
0
 10
0.17368000
 20
0.30604500
  0
VERTEX
  8
0
 10
0.17737000
 20
0.30607400
  0
VERTEX
  8
0
 10
0.18101500
 20
0.30613500
  0
VERTEX
  8
0
 10
0.18461400
 20
0.30622700
  0
VERTEX
  8
0
 10
0.18816800
 20
0.30634800
  0
VERTEX
  8
0
 10
0.19167600
 20
0.30649900
  0
VERTEX
  8
0
 10
0.19513700
 20
0.30667800
  0
VERTEX
  8
0
 10
0.19855200
 20
0.30688400
  0
VERTEX
  8
0
 10
0.20192100
 20
0.30711800
  0
VERTEX
  8
0
 10
0.20524300
 20
0.30737700
  0
VERTEX
  8
0
 10
0.20851800
 20
0.30766100
  0
VERTEX
  8
0
 10
0.21174600
 20
0.30796900
  0
VERTEX
  8
0
 10
0.21492700
 20
0.30830100
  0
VERTEX
  8
0
 10
0.21806000
 20
0.30865600
  0
VERTEX
  8
0
 10
0.22114600
 20
0.30903300
  0
VERTEX
  8
0
 10
0.22418300
 20
0.30943000
  0
VERTEX
  8
0
 10
0.22717300
 20
0.30984800
  0
VERTEX
  8
0
 10
0.23011500
 20
0.31028600
  0
VERTEX
  8
0
 10
0.23300900
 20
0.31074200
  0
VERTEX
  8
0
 10
0.23585500
 20
0.31121600
  0
VERTEX
  8
0
 10
0.23865200
 20
0.31170700
  0
VERTEX
  8
0
 10
0.24140100
 20
0.31221500
  0
VERTEX
  8
0
 10
0.24410100
 20
0.31273800
  0
VERTEX
  8
0
 10
0.24675300
 20
0.31327500
  0
VERTEX
  8
0
 10
0.24935700
 20
0.31382700
  0
VERTEX
  8
0
 10
0.25191200
 20
0.31439100
  0
VERTEX
  8
0
 10
0.25441800
 20
0.31496800
  0
VERTEX
  8
0
 10
0.25687500
 20
0.31555600
  0
VERTEX
  8
0
 10
0.25928400
 20
0.31615500
  0
VERTEX
  8
0
 10
0.26164500
 20
0.31676300
  0
VERTEX
  8
0
 10
0.26395700
 20
0.31738100
  0
VERTEX
  8
0
 10
0.26622000
 20
0.31800700
  0
VERTEX
  8
0
 10
0.26843400
 20
0.31864000
  0
VERTEX
  8
0
 10
0.27060000
 20
0.31928000
  0
VERTEX
  8
0
 10
0.27271800
 20
0.31992600
  0
VERTEX
  8
0
 10
0.27478700
 20
0.32057700
  0
VERTEX
  8
0
 10
0.27680800
 20
0.32123200
  0
VERTEX
  8
0
 10
0.27878100
 20
0.32189000
  0
VERTEX
  8
0
 10
0.28070600
 20
0.32255100
  0
VERTEX
  8
0
 10
0.28441100
 20
0.32387800
  0
VERTEX
  8
0
 10
0.28792500
 20
0.32520700
  0
VERTEX
  8
0
 10
0.29125000
 20
0.32653000
  0
VERTEX
  8
0
 10
0.29438500
 20
0.32784200
  0
VERTEX
  8
0
 10
0.29733400
 20
0.32913700
  0
VERTEX
  8
0
 10
0.30009700
 20
0.33040800
  0
VERTEX
  8
0
 10
0.30267600
 20
0.33164900
  0
VERTEX
  8
0
 10
0.30507300
 20
0.33285500
  0
VERTEX
  8
0
 10
0.30729100
 20
0.33401900
  0
VERTEX
  8
0
 10
0.30933100
 20
0.33513600
  0
VERTEX
  8
0
 10
0.31119600
 20
0.33620000
  0
VERTEX
  8
0
 10
0.31367000
 20
0.33768300
  0
VERTEX
  8
0
 10
0.31576500
 20
0.33901500
  0
VERTEX
  8
0
 10
0.31749000
 20
0.34017600
  0
VERTEX
  8
0
 10
0.31923500
 20
0.34142700
  0
VERTEX
  8
0
 10
0.32098700
 20
0.34281500
  0
VERTEX
  8
0
 10
0.42245500
 20
0.43324900
  0
VERTEX
  8
0
 10
0.53373600
 20
0.34266800
  0
VERTEX
  8
0
 10
0.46577600
 20
0.22495800
  0
VERTEX
  8
0
 10
0.46477300
 20
0.22296000
  0
VERTEX
  8
0
 10
0.46390100
 20
0.22099800
  0
VERTEX
  8
0
 10
0.46311500
 20
0.21907300
  0
VERTEX
  8
0
 10
0.46223600
 20
0.21675200
  0
VERTEX
  8
0
 10
0.46128600
 20
0.21402800
  0
VERTEX
  8
0
 10
0.46062300
 20
0.21198600
  0
VERTEX
  8
0
 10
0.45994300
 20
0.20976200
  0
VERTEX
  8
0
 10
0.45925300
 20
0.20735400
  0
VERTEX
  8
0
 10
0.45855900
 20
0.20476200
  0
VERTEX
  8
0
 10
0.45786600
 20
0.20198500
  0
VERTEX
  8
0
 10
0.45718200
 20
0.19902100
  0
VERTEX
  8
0
 10
0.45651300
 20
0.19587100
  0
VERTEX
  8
0
 10
0.45586500
 20
0.19253500
  0
VERTEX
  8
0
 10
0.45524400
 20
0.18901100
  0
VERTEX
  8
0
 10
0.45465600
 20
0.18530000
  0
VERTEX
  8
0
 10
0.45410900
 20
0.18140300
  0
VERTEX
  8
0
 10
0.45385200
 20
0.17938400
  0
VERTEX
  8
0
 10
0.45360800
 20
0.17731800
  0
VERTEX
  8
0
 10
0.45337600
 20
0.17520700
  0
VERTEX
  8
0
 10
0.45315900
 20
0.17304800
  0
VERTEX
  8
0
 10
0.45295600
 20
0.17084400
  0
VERTEX
  8
0
 10
0.45276900
 20
0.16859300
  0
VERTEX
  8
0
 10
0.45259900
 20
0.16629600
  0
VERTEX
  8
0
 10
0.45244500
 20
0.16395300
  0
VERTEX
  8
0
 10
0.45231000
 20
0.16156400
  0
VERTEX
  8
0
 10
0.45219300
 20
0.15912900
  0
VERTEX
  8
0
 10
0.45209500
 20
0.15664800
  0
VERTEX
  8
0
 10
0.45201800
 20
0.15412300
  0
VERTEX
  8
0
 10
0.45196200
 20
0.15155100
  0
VERTEX
  8
0
 10
0.45192800
 20
0.14893500
  0
VERTEX
  8
0
 10
0.45191600
 20
0.14627400
  0
VERTEX
  8
0
 10
0.45192800
 20
0.14356800
  0
VERTEX
  8
0
 10
0.45196400
 20
0.14081800
  0
VERTEX
  8
0
 10
0.45202500
 20
0.13802300
  0
VERTEX
  8
0
 10
0.45211200
 20
0.13518400
  0
VERTEX
  8
0
 10
0.45222500
 20
0.13230200
  0
VERTEX
  8
0
 10
0.45236600
 20
0.12937600
  0
VERTEX
  8
0
 10
0.45253400
 20
0.12640600
  0
VERTEX
  8
0
 10
0.45273200
 20
0.12339400
  0
VERTEX
  8
0
 10
0.45295900
 20
0.12033800
  0
VERTEX
  8
0
 10
0.45321600
 20
0.11724000
  0
VERTEX
  8
0
 10
0.45350500
 20
0.11410000
  0
VERTEX
  8
0
 10
0.45382500
 20
0.11091900
  0
VERTEX
  8
0
 10
0.45417800
 20
0.10769500
  0
VERTEX
  8
0
 10
0.45456500
 20
0.10443100
  0
VERTEX
  8
0
 10
0.45498500
 20
0.10112500
  0
VERTEX
  8
0
 10
0.45544100
 20
0.09777900
  0
VERTEX
  8
0
 10
0.45593200
 20
0.09439300
  0
VERTEX
  8
0
 10
0.45645900
 20
0.09096700
  0
VERTEX
  8
0
 10
0.45702400
 20
0.08750200
  0
VERTEX
  8
0
 10
0.45762600
 20
0.08399800
  0
VERTEX
  8
0
 10
0.45826600
 20
0.08045500
  0
VERTEX
  8
0
 10
0.45894600
 20
0.07687400
  0
VERTEX
  8
0
 10
0.45966600
 20
0.07325500
  0
VERTEX
  8
0
 10
0.46042700
 20
0.06959800
  0
VERTEX
  8
0
 10
0.46122900
 20
0.06590500
  0
VERTEX
  8
0
 10
0.46207300
 20
0.06217500
  0
VERTEX
  8
0
 10
0.46296000
 20
0.05840900
  0
VERTEX
  8
0
 10
0.46389000
 20
0.05460800
  0
VERTEX
  8
0
 10
0.46486400
 20
0.05077200
  0
VERTEX
  8
0
 10
0.46588300
 20
0.04690000
  0
VERTEX
  8
0
 10
0.46694800
 20
0.04299500
  0
VERTEX
  8
0
 10
0.46805900
 20
0.03905700
  0
VERTEX
  8
0
 10
0.46921700
 20
0.03508500
  0
VERTEX
  8
0
 10
0.47042200
 20
0.03108000
  0
VERTEX
  8
0
 10
0.47207300
 20
0.02580200
  0
VERTEX
  8
0
 10
0.54639400
 20
0.00000000
  0
VERTEX
  8
0
 10
0.55096000
 20
0.00312000
  0
VERTEX
  8
0
 10
0.55438800
 20
0.00551600
  0
VERTEX
  8
0
 10
0.55775800
 20
0.00791600
  0
VERTEX
  8
0
 10
0.56107000
 20
0.01031900
  0
VERTEX
  8
0
 10
0.56432600
 20
0.01272500
  0
VERTEX
  8
0
 10
0.56752400
 20
0.01513100
  0
VERTEX
  8
0
 10
0.57066600
 20
0.01753900
  0
VERTEX
  8
0
 10
0.57375200
 20
0.01994600
  0
VERTEX
  8
0
 10
0.57678100
 20
0.02235200
  0
VERTEX
  8
0
 10
0.57975500
 20
0.02475700
  0
VERTEX
  8
0
 10
0.58267300
 20
0.02715800
  0
VERTEX
  8
0
 10
0.58553500
 20
0.02955700
  0
VERTEX
  8
0
 10
0.58834300
 20
0.03195100
  0
VERTEX
  8
0
 10
0.59109600
 20
0.03434100
  0
VERTEX
  8
0
 10
0.59379400
 20
0.03672400
  0
VERTEX
  8
0
 10
0.59643800
 20
0.03910200
  0
VERTEX
  8
0
 10
0.59902800
 20
0.04147200
  0
VERTEX
  8
0
 10
0.60156500
 20
0.04383400
  0
VERTEX
  8
0
 10
0.60404900
 20
0.04618800
  0
VERTEX
  8
0
 10
0.60648000
 20
0.04853200
  0
VERTEX
  8
0
 10
0.60885800
 20
0.05086500
  0
VERTEX
  8
0
 10
0.61118400
 20
0.05318800
  0
VERTEX
  8
0
 10
0.61345800
 20
0.05549900
  0
VERTEX
  8
0
 10
0.61568200
 20
0.05779800
  0
VERTEX
  8
0
 10
0.61785400
 20
0.06008400
  0
VERTEX
  8
0
 10
0.61997500
 20
0.06235600
  0
VERTEX
  8
0
 10
0.62204700
 20
0.06461300
  0
VERTEX
  8
0
 10
0.62406800
 20
0.06685500
  0
VERTEX
  8
0
 10
0.62604100
 20
0.06908100
  0
VERTEX
  8
0
 10
0.62796400
 20
0.07129100
  0
VERTEX
  8
0
 10
0.62984000
 20
0.07348300
  0
VERTEX
  8
0
 10
0.63166700
 20
0.07565700
  0
VERTEX
  8
0
 10
0.63344600
 20
0.07781300
  0
VERTEX
  8
0
 10
0.63517900
 20
0.07995000
  0
VERTEX
  8
0
 10
0.63686500
 20
0.08206600
  0
VERTEX
  8
0
 10
0.63850500
 20
0.08416200
  0
VERTEX
  8
0
 10
0.64009900
 20
0.08623600
  0
VERTEX
  8
0
 10
0.64164800
 20
0.08828900
  0
VERTEX
  8
0
 10
0.64315300
 20
0.09031900
  0
VERTEX
  8
0
 10
0.64461300
 20
0.09232700
  0
VERTEX
  8
0
 10
0.64603000
 20
0.09431000
  0
VERTEX
  8
0
 10
0.64740400
 20
0.09626900
  0
VERTEX
  8
0
 10
0.64873600
 20
0.09820300
  0
VERTEX
  8
0
 10
0.65002500
 20
0.10011200
  0
VERTEX
  8
0
 10
0.65127300
 20
0.10199500
  0
VERTEX
  8
0
 10
0.65248000
 20
0.10385100
  0
VERTEX
  8
0
 10
0.65364700
 20
0.10567900
  0
VERTEX
  8
0
 10
0.65477400
 20
0.10748000
  0
VERTEX
  8
0
 10
0.65586200
 20
0.10925200
  0
VERTEX
  8
0
 10
0.65691100
 20
0.11099600
  0
VERTEX
  8
0
 10
0.65889700
 20
0.11439400
  0
VERTEX
  8
0
 10
0.66073500
 20
0.11767100
  0
VERTEX
  8
0
 10
0.66243100
 20
0.12082200
  0
VERTEX
  8
0
 10
0.66399000
 20
0.12384200
  0
VERTEX
  8
0
 10
0.66541600
 20
0.12672900
  0
VERTEX
  8
0
 10
0.66671600
 20
0.12947900
  0
VERTEX
  8
0
 10
0.66789400
 20
0.13208800
  0
VERTEX
  8
0
 10
0.66895500
 20
0.13455300
  0
VERTEX
  8
0
 10
0.66990500
 20
0.13687000
  0
VERTEX
  8
0
 10
0.67075000
 20
0.13903700
  0
VERTEX
  8
0
 10
0.67149500
 20
0.14105000
  0
VERTEX
  8
0
 10
0.67243700
 20
0.14377700
  0
VERTEX
  8
0
 10
0.67318600
 20
0.14614400
  0
VERTEX
  8
0
 10
0.67376100
 20
0.14814200
  0
VERTEX
  8
0
 10
0.67429300
 20
0.15022200
  0
VERTEX
  8
0
 10
0.67474300
 20
0.15241200
  0
VERTEX
  8
0
 10
0.69434200
 20
0.28691000
  0
VERTEX
  8
0
 10
0.83781300
 20
0.28905100
  0
VERTEX
  8
0
 10
0.86141500
 20
0.15519700
  0
VERTEX
  8
0
 10
0.86193100
 20
0.15302100
  0
VERTEX
  8
0
 10
0.86252400
 20
0.15095800
  0
VERTEX
  8
0
 10
0.86315900
 20
0.14897800
  0
VERTEX
  8
0
 10
0.86397800
 20
0.14663400
  0
VERTEX
  8
0
 10
0.86500100
 20
0.14393700
  0
VERTEX
  8
0
 10
0.86580600
 20
0.14194700
  0
VERTEX
  8
0
 10
0.86671500
 20
0.13980600
  0
VERTEX
  8
0
 10
0.86773400
 20
0.13751800
  0
VERTEX
  8
0
 10
0.86886800
 20
0.13508600
  0
VERTEX
  8
0
 10
0.87012300
 20
0.13251300
  0
VERTEX
  8
0
 10
0.87150400
 20
0.12980400
  0
VERTEX
  8
0
 10
0.87301600
 20
0.12696000
  0
VERTEX
  8
0
 10
0.87466400
 20
0.12398800
  0
VERTEX
  8
0
 10
0.87645300
 20
0.12088900
  0
VERTEX
  8
0
 10
0.87838900
 20
0.11766900
  0
VERTEX
  8
0
 10
0.88047400
 20
0.11433100
  0
VERTEX
  8
0
 10
0.88157500
 20
0.11262000
  0
VERTEX
  8
0
 10
0.88271600
 20
0.11088000
  0
VERTEX
  8
0
 10
0.88389600
 20
0.10911400
  0
VERTEX
  8
0
 10
0.88511700
 20
0.10732100
  0
VERTEX
  8
0
 10
0.88637900
 20
0.10550200
  0
VERTEX
  8
0
 10
0.88768300
 20
0.10365800
  0
VERTEX
  8
0
 10
0.88902800
 20
0.10178800
  0
VERTEX
  8
0
 10
0.89041700
 20
0.09989500
  0
VERTEX
  8
0
 10
0.89184800
 20
0.09797700
  0
VERTEX
  8
0
 10
0.89332400
 20
0.09603700
  0
VERTEX
  8
0
 10
0.89484400
 20
0.09407400
  0
VERTEX
  8
0
 10
0.89640800
 20
0.09209000
  0
VERTEX
  8
0
 10
0.89801800
 20
0.09008400
  0
VERTEX
  8
0
 10
0.89967300
 20
0.08805800
  0
VERTEX
  8
0
 10
0.90137500
 20
0.08601200
  0
VERTEX
  8
0
 10
0.90312300
 20
0.08394700
  0
VERTEX
  8
0
 10
0.90491900
 20
0.08186300
  0
VERTEX
  8
0
 10
0.90676200
 20
0.07976100
  0
VERTEX
  8
0
 10
0.90865300
 20
0.07764300
  0
VERTEX
  8
0
 10
0.91059300
 20
0.07550700
  0
VERTEX
  8
0
 10
0.91258200
 20
0.07335600
  0
VERTEX
  8
0
 10
0.91462000
 20
0.07119000
  0
VERTEX
  8
0
 10
0.91670700
 20
0.06900900
  0
VERTEX
  8
0
 10
0.91884500
 20
0.06681400
  0
VERTEX
  8
0
 10
0.92103400
 20
0.06460700
  0
VERTEX
  8
0
 10
0.92327300
 20
0.06238700
  0
VERTEX
  8
0
 10
0.92556400
 20
0.06015500
  0
VERTEX
  8
0
 10
0.92790600
 20
0.05791300
  0
VERTEX
  8
0
 10
0.93030000
 20
0.05566100
  0
VERTEX
  8
0
 10
0.93274700
 20
0.05339900
  0
VERTEX
  8
0
 10
0.93524700
 20
0.05112800
  0
VERTEX
  8
0
 10
0.93780000
 20
0.04885000
  0
VERTEX
  8
0
 10
0.94040600
 20
0.04656500
  0
VERTEX
  8
0
 10
0.94306500
 20
0.04427300
  0
VERTEX
  8
0
 10
0.94577900
 20
0.04197600
  0
VERTEX
  8
0
 10
0.94854700
 20
0.03967300
  0
VERTEX
  8
0
 10
0.95137000
 20
0.03736700
  0
VERTEX
  8
0
 10
0.95424800
 20
0.03505700
  0
VERTEX
  8
0
 10
0.95718100
 20
0.03274500
  0
VERTEX
  8
0
 10
0.96016900
 20
0.03043200
  0
VERTEX
  8
0
 10
0.96321300
 20
0.02811700
  0
VERTEX
  8
0
 10
0.96631300
 20
0.02580200
  0
VERTEX
  8
0
 10
0.96946900
 20
0.02348800
  0
VERTEX
  8
0
 10
0.97268200
 20
0.02117600
  0
VERTEX
  8
0
 10
0.97595100
 20
0.01886500
  0
VERTEX
  8
0
 10
0.97927600
 20
0.01655800
  0
VERTEX
  8
0
 10
0.98265900
 20
0.01425500
  0
VERTEX
  8
0
 10
0.98609900
 20
0.01195600
  0
VERTEX
  8
0
 10
0.98959600
 20
0.00966400
  0
VERTEX
  8
0
 10
0.99425300
 20
0.00668200
  0
VERTEX
  8
0
 10
1.06777200
 20
0.03468900
  0
VERTEX
  8
0
 10
1.06926500
 20
0.04001400
  0
VERTEX
  8
0
 10
1.07035000
 20
0.04405300
  0
VERTEX
  8
0
 10
1.07138900
 20
0.04805700
  0
VERTEX
  8
0
 10
1.07238200
 20
0.05202700
  0
VERTEX
  8
0
 10
1.07333000
 20
0.05596200
  0
VERTEX
  8
0
 10
1.07423300
 20
0.05986200
  0
VERTEX
  8
0
 10
1.07509200
 20
0.06372600
  0
VERTEX
  8
0
 10
1.07590900
 20
0.06755400
  0
VERTEX
  8
0
 10
1.07668300
 20
0.07134400
  0
VERTEX
  8
0
 10
1.07741500
 20
0.07509700
  0
VERTEX
  8
0
 10
1.07810700
 20
0.07881300
  0
VERTEX
  8
0
 10
1.07875800
 20
0.08249000
  0
VERTEX
  8
0
 10
1.07936900
 20
0.08612900
  0
VERTEX
  8
0
 10
1.07994200
 20
0.08972900
  0
VERTEX
  8
0
 10
1.08047700
 20
0.09328900
  0
VERTEX
  8
0
 10
1.08097400
 20
0.09681000
  0
VERTEX
  8
0
 10
1.08143500
 20
0.10029100
  0
VERTEX
  8
0
 10
1.08186000
 20
0.10373100
  0
VERTEX
  8
0
 10
1.08225000
 20
0.10713000
  0
VERTEX
  8
0
 10
1.08260500
 20
0.11048800
  0
VERTEX
  8
0
 10
1.08292700
 20
0.11380500
  0
VERTEX
  8
0
 10
1.08321600
 20
0.11707900
  0
VERTEX
  8
0
 10
1.08347200
 20
0.12031200
  0
VERTEX
  8
0
 10
1.08369800
 20
0.12350200
  0
VERTEX
  8
0
 10
1.08389300
 20
0.12664900
  0
VERTEX
  8
0
 10
1.08405700
 20
0.12975300
  0
VERTEX
  8
0
 10
1.08419300
 20
0.13281400
  0
VERTEX
  8
0
 10
1.08430100
 20
0.13583100
  0
VERTEX
  8
0
 10
1.08438100
 20
0.13880400
  0
VERTEX
  8
0
 10
1.08443400
 20
0.14173300
  0
VERTEX
  8
0
 10
1.08446100
 20
0.14461800
  0
VERTEX
  8
0
 10
1.08446300
 20
0.14745800
  0
VERTEX
  8
0
 10
1.08444100
 20
0.15025300
  0
VERTEX
  8
0
 10
1.08439500
 20
0.15300300
  0
VERTEX
  8
0
 10
1.08432600
 20
0.15570800
  0
VERTEX
  8
0
 10
1.08423500
 20
0.15836800
  0
VERTEX
  8
0
 10
1.08412300
 20
0.16098200
  0
VERTEX
  8
0
 10
1.08399000
 20
0.16355100
  0
VERTEX
  8
0
 10
1.08383800
 20
0.16607300
  0
VERTEX
  8
0
 10
1.08366600
 20
0.16854900
  0
VERTEX
  8
0
 10
1.08347700
 20
0.17097900
  0
VERTEX
  8
0
 10
1.08327000
 20
0.17336300
  0
VERTEX
  8
0
 10
1.08304700
 20
0.17570100
  0
VERTEX
  8
0
 10
1.08280800
 20
0.17799200
  0
VERTEX
  8
0
 10
1.08255300
 20
0.18023600
  0
VERTEX
  8
0
 10
1.08228500
 20
0.18243400
  0
VERTEX
  8
0
 10
1.08200400
 20
0.18458500
  0
VERTEX
  8
0
 10
1.08171000
 20
0.18668900
  0
VERTEX
  8
0
 10
1.08140400
 20
0.18874600
  0
VERTEX
  8
0
 10
1.08108700
 20
0.19075600
  0
VERTEX
  8
0
 10
1.08042300
 20
0.19463500
  0
VERTEX
  8
0
 10
1.07972500
 20
0.19832700
  0
VERTEX
  8
0
 10
1.07899900
 20
0.20183100
  0
VERTEX
  8
0
 10
1.07825200
 20
0.20514700
  0
VERTEX
  8
0
 10
1.07748900
 20
0.20827500
  0
VERTEX
  8
0
 10
1.07671700
 20
0.21121700
  0
VERTEX
  8
0
 10
1.07594200
 20
0.21397200
  0
VERTEX
  8
0
 10
1.07517100
 20
0.21654300
  0
VERTEX
  8
0
 10
1.07440900
 20
0.21892900
  0
VERTEX
  8
0
 10
1.07366300
 20
0.22113200
  0
VERTEX
  8
0
 10
1.07294000
 20
0.22315300
  0
VERTEX
  8
0
 10
1.07190900
 20
0.22584700
  0
VERTEX
  8
0
 10
1.07096100
 20
0.22814100
  0
VERTEX
  8
0
 10
1.07011700
 20
0.23004200
  0
VERTEX
  8
0
 10
1.06918800
 20
0.23197700
  0
VERTEX
  8
0
 10
1.06812500
 20
0.23394400
  0
VERTEX
  8
0
 10
0.99668500
 20
0.34957400
  0
VERTEX
  8
0
 10
1.10521400
 20
0.44343500
  0
VERTEX
  8
0
 10
1.20933400
 20
0.35606800
  0
VERTEX
  8
0
 10
1.21112700
 20
0.35473300
  0
VERTEX
  8
0
 10
1.21290800
 20
0.35353400
  0
VERTEX
  8
0
 10
1.21466800
 20
0.35242500
  0
VERTEX
  8
0
 10
1.21680100
 20
0.35115600
  0
VERTEX
  8
0
 10
1.21931900
 20
0.34974800
  0
VERTEX
  8
0
 10
1.22121400
 20
0.34874000
  0
VERTEX
  8
0
 10
1.22328700
 20
0.34768400
  0
VERTEX
  8
0
 10
1.22553800
 20
0.34658700
  0
VERTEX
  8
0
 10
1.22797000
 20
0.34545300
  0
VERTEX
  8
0
 10
1.23058500
 20
0.34428900
  0
VERTEX
  8
0
 10
1.23338500
 20
0.34310100
  0
VERTEX
  8
0
 10
1.23637100
 20
0.34189500
  0
VERTEX
  8
0
 10
1.23954400
 20
0.34067700
  0
VERTEX
  8
0
 10
1.24290700
 20
0.33945300
  0
VERTEX
  8
0
 10
1.24645900
 20
0.33823000
  0
VERTEX
  8
0
 10
1.25020200
 20
0.33701400
  0
VERTEX
  8
0
 10
1.25214600
 20
0.33641100
  0
VERTEX
  8
0
 10
1.25413700
 20
0.33581200
  0
VERTEX
  8
0
 10
1.25617700
 20
0.33521700
  0
VERTEX
  8
0
 10
1.25826500
 20
0.33462800
  0
VERTEX
  8
0
 10
1.26040100
 20
0.33404600
  0
VERTEX
  8
0
 10
1.26258500
 20
0.33347100
  0
VERTEX
  8
0
 10
1.26481700
 20
0.33290400
  0
VERTEX
  8
0
 10
1.26709800
 20
0.33234600
  0
VERTEX
  8
0
 10
1.26942700
 20
0.33179800
  0
VERTEX
  8
0
 10
1.27180500
 20
0.33126000
  0
VERTEX
  8
0
 10
1.27423100
 20
0.33073300
  0
VERTEX
  8
0
 10
1.27670500
 20
0.33021800
  0
VERTEX
  8
0
 10
1.27922700
 20
0.32971700
  0
VERTEX
  8
0
 10
1.28179700
 20
0.32922900
  0
VERTEX
  8
0
 10
1.28441600
 20
0.32875500
  0
VERTEX
  8
0
 10
1.28708300
 20
0.32829700
  0
VERTEX
  8
0
 10
1.28979800
 20
0.32785500
  0
VERTEX
  8
0
 10
1.29256100
 20
0.32743000
  0
VERTEX
  8
0
 10
1.29537100
 20
0.32702200
  0
VERTEX
  8
0
 10
1.29823000
 20
0.32663300
  0
VERTEX
  8
0
 10
1.30113600
 20
0.32626300
  0
VERTEX
  8
0
 10
1.30409000
 20
0.32591400
  0
VERTEX
  8
0
 10
1.30709100
 20
0.32558500
  0
VERTEX
  8
0
 10
1.31013900
 20
0.32527800
  0
VERTEX
  8
0
 10
1.31323500
 20
0.32499400
  0
VERTEX
  8
0
 10
1.31637700
 20
0.32473300
  0
VERTEX
  8
0
 10
1.31956600
 20
0.32449600
  0
VERTEX
  8
0
 10
1.32280200
 20
0.32428400
  0
VERTEX
  8
0
 10
1.32608400
 20
0.32409700
  0
VERTEX
  8
0
 10
1.32941200
 20
0.32393800
  0
VERTEX
  8
0
 10
1.33278600
 20
0.32380500
  0
VERTEX
  8
0
 10
1.33620600
 20
0.32370100
  0
VERTEX
  8
0
 10
1.33967200
 20
0.32362500
  0
VERTEX
  8
0
 10
1.34318200
 20
0.32357900
  0
VERTEX
  8
0
 10
1.34673800
 20
0.32356400
  0
VERTEX
  8
0
 10
1.35033800
 20
0.32357900
  0
VERTEX
  8
0
 10
1.35398300
 20
0.32362700
  0
VERTEX
  8
0
 10
1.35767200
 20
0.32370800
  0
VERTEX
  8
0
 10
1.36140500
 20
0.32382200
  0
VERTEX
  8
0
 10
1.36518100
 20
0.32397000
  0
VERTEX
  8
0
 10
1.36900100
 20
0.32415400
  0
VERTEX
  8
0
 10
1.37286400
 20
0.32437300
  0
VERTEX
  8
0
 10
1.37676900
 20
0.32462900
  0
VERTEX
  8
0
 10
1.38071600
 20
0.32492200
  0
VERTEX
  8
0
 10
1.38470500
 20
0.32525400
  0
VERTEX
  8
0
 10
1.38873600
 20
0.32562400
  0
VERTEX
  8
0
 10
1.39280800
 20
0.32603400
  0
VERTEX
  8
0
 10
1.39692100
 20
0.32648500
  0
VERTEX
  8
0
 10
1.40107300
 20
0.32697600
  0
VERTEX
  8
0
 10
1.40655800
 20
0.32768600
  0
VERTEX
  8
0
 10
1.44487400
 20
0.39639800
  0
VERTEX
  8
0
 10
1.44259400
 20
0.40143600
  0
VERTEX
  8
0
 10
1.44083000
 20
0.40522700
  0
VERTEX
  8
0
 10
1.43905100
 20
0.40896300
  0
VERTEX
  8
0
 10
1.43726000
 20
0.41264200
  0
VERTEX
  8
0
 10
1.43545600
 20
0.41626600
  0
VERTEX
  8
0
 10
1.43364200
 20
0.41983400
  0
VERTEX
  8
0
 10
1.43181700
 20
0.42334600
  0
VERTEX
  8
0
 10
1.42998200
 20
0.42680300
  0
VERTEX
  8
0
 10
1.42813800
 20
0.43020400
  0
VERTEX
  8
0
 10
1.42628700
 20
0.43355000
  0
VERTEX
  8
0
 10
1.42442800
 20
0.43684100
  0
VERTEX
  8
0
 10
1.42256300
 20
0.44007700
  0
VERTEX
  8
0
 10
1.42069200
 20
0.44325700
  0
VERTEX
  8
0
 10
1.41881700
 20
0.44638300
  0
VERTEX
  8
0
 10
1.41693800
 20
0.44945400
  0
VERTEX
  8
0
 10
1.41505600
 20
0.45247100
  0
VERTEX
  8
0
 10
1.41317200
 20
0.45543400
  0
VERTEX
  8
0
 10
1.41128600
 20
0.45834200
  0
VERTEX
  8
0
 10
1.40940000
 20
0.46119700
  0
VERTEX
  8
0
 10
1.40751300
 20
0.46399700
  0
VERTEX
  8
0
 10
1.40562800
 20
0.46674500
  0
VERTEX
  8
0
 10
1.40374400
 20
0.46943900
  0
VERTEX
  8
0
 10
1.40186300
 20
0.47208000
  0
VERTEX
  8
0
 10
1.39998600
 20
0.47466900
  0
VERTEX
  8
0
 10
1.39811200
 20
0.47720500
  0
VERTEX
  8
0
 10
1.39624300
 20
0.47968900
  0
VERTEX
  8
0
 10
1.39438000
 20
0.48212100
  0
VERTEX
  8
0
 10
1.39252300
 20
0.48450100
  0
VERTEX
  8
0
 10
1.39067300
 20
0.48683000
  0
VERTEX
  8
0
 10
1.38883100
 20
0.48910800
  0
VERTEX
  8
0
 10
1.38699700
 20
0.49133500
  0
VERTEX
  8
0
 10
1.38517300
 20
0.49351200
  0
VERTEX
  8
0
 10
1.38335900
 20
0.49563900
  0
VERTEX
  8
0
 10
1.38155600
 20
0.49771600
  0
VERTEX
  8
0
 10
1.37976500
 20
0.49974400
  0
VERTEX
  8
0
 10
1.37798600
 20
0.50172300
  0
VERTEX
  8
0
 10
1.37621900
 20
0.50365400
  0
VERTEX
  8
0
 10
1.37446700
 20
0.50553600
  0
VERTEX
  8
0
 10
1.37272900
 20
0.50737000
  0
VERTEX
  8
0
 10
1.37100500
 20
0.50915700
  0
VERTEX
  8
0
 10
1.36929800
 20
0.51089700
  0
VERTEX
  8
0
 10
1.36760700
 20
0.51259000
  0
VERTEX
  8
0
 10
1.36593400
 20
0.51423700
  0
VERTEX
  8
0
 10
1.36427800
 20
0.51583800
  0
VERTEX
  8
0
 10
1.36264100
 20
0.51739400
  0
VERTEX
  8
0
 10
1.36102300
 20
0.51890500
  0
VERTEX
  8
0
 10
1.35942500
 20
0.52037200
  0
VERTEX
  8
0
 10
1.35784700
 20
0.52179500
  0
VERTEX
  8
0
 10
1.35629000
 20
0.52317400
  0
VERTEX
  8
0
 10
1.35475500
 20
0.52451000
  0
VERTEX
  8
0
 10
1.35175300
 20
0.52705500
  0
VERTEX
  8
0
 10
1.34884600
 20
0.52943500
  0
VERTEX
  8
0
 10
1.34603800
 20
0.53165200
  0
VERTEX
  8
0
 10
1.34333300
 20
0.53371200
  0
VERTEX
  8
0
 10
1.34073800
 20
0.53561800
  0
VERTEX
  8
0
 10
1.33825600
 20
0.53737500
  0
VERTEX
  8
0
 10
1.33589100
 20
0.53898800
  0
VERTEX
  8
0
 10
1.33364800
 20
0.54046100
  0
VERTEX
  8
0
 10
1.33153100
 20
0.54179900
  0
VERTEX
  8
0
 10
1.32954400
 20
0.54300800
  0
VERTEX
  8
0
 10
1.32769000
 20
0.54409100
  0
VERTEX
  8
0
 10
1.32516800
 20
0.54549200
  0
VERTEX
  8
0
 10
1.32296800
 20
0.54664000
  0
VERTEX
  8
0
 10
1.32110000
 20
0.54755400
  0
VERTEX
  8
0
 10
1.31914400
 20
0.54843900
  0
VERTEX
  8
0
 10
1.31706500
 20
0.54926300
  0
VERTEX
  8
0
 10
1.18801300
 20
0.59191900
  0
VERTEX
  8
0
 10
1.21081900
 20
0.73358200
  0
SEQEND
  0
POLYLINE
  8
Default Layer
 66
   1
 39
0.000000
 70
    1
  0
VERTEX
  8
0
 10
0.66303200
 20
0.74847950
  0
VERTEX
  8
0
 10
0.66352247
 20
0.75819270
  0
VERTEX
  8
0
 10
0.66496206
 20
0.76762531
  0
VERTEX
  8
0
 10
0.66730301
 20
0.77672959
  0
VERTEX
  8
0
 10
0.67049757
 20
0.78545779
  0
VERTEX
  8
0
 10
0.67449799
 20
0.79376214
  0
VERTEX
  8
0
 10
0.67925651
 20
0.80159490
  0
VERTEX
  8
0
 10
0.68472538
 20
0.80890832
  0
VERTEX
  8
0
 10
0.69085686
 20
0.81565464
  0
VERTEX
  8
0
 10
0.69760318
 20
0.82178612
  0
VERTEX
  8
0
 10
0.70491660
 20
0.82725499
  0
VERTEX
  8
0
 10
0.71274936
 20
0.83201351
  0
VERTEX
  8
0
 10
0.72105371
 20
0.83601393
  0
VERTEX
  8
0
 10
0.72978191
 20
0.83920849
  0
VERTEX
  8
0
 10
0.73888619
 20
0.84154944
  0
VERTEX
  8
0
 10
0.74831880
 20
0.84298903
  0
VERTEX
  8
0
 10
0.75803200
 20
0.84347950
  0
VERTEX
  8
0
 10
0.76774520
 20
0.84298903
  0
VERTEX
  8
0
 10
0.77717781
 20
0.84154944
  0
VERTEX
  8
0
 10
0.78628209
 20
0.83920849
  0
VERTEX
  8
0
 10
0.79501029
 20
0.83601393
  0
VERTEX
  8
0
 10
0.80331464
 20
0.83201351
  0
VERTEX
  8
0
 10
0.81114740
 20
0.82725499
  0
VERTEX
  8
0
 10
0.81846082
 20
0.82178612
  0
VERTEX
  8
0
 10
0.82520714
 20
0.81565464
  0
VERTEX
  8
0
 10
0.83133862
 20
0.80890832
  0
VERTEX
  8
0
 10
0.83680749
 20
0.80159490
  0
VERTEX
  8
0
 10
0.84156601
 20
0.79376214
  0
VERTEX
  8
0
 10
0.84556643
 20
0.78545779
  0
VERTEX
  8
0
 10
0.84876099
 20
0.77672959
  0
VERTEX
  8
0
 10
0.85110194
 20
0.76762531
  0
VERTEX
  8
0
 10
0.85254153
 20
0.75819270
  0
VERTEX
  8
0
 10
0.85303200
 20
0.74847950
  0
VERTEX
  8
0
 10
0.85254153
 20
0.73876630
  0
VERTEX
  8
0
 10
0.85110194
 20
0.72933369
  0
VERTEX
  8
0
 10
0.84876099
 20
0.72022941
  0
VERTEX
  8
0
 10
0.84556643
 20
0.71150121
  0
VERTEX
  8
0
 10
0.84156601
 20
0.70319686
  0
VERTEX
  8
0
 10
0.83680749
 20
0.69536410
  0
VERTEX
  8
0
 10
0.83133862
 20
0.68805068
  0
VERTEX
  8
0
 10
0.82520714
 20
0.68130436
  0
VERTEX
  8
0
 10
0.81846082
 20
0.67517288
  0
VERTEX
  8
0
 10
0.81114740
 20
0.66970401
  0
VERTEX
  8
0
 10
0.80331464
 20
0.66494549
  0
VERTEX
  8
0
 10
0.79501029
 20
0.66094507
  0
VERTEX
  8
0
 10
0.78628209
 20
0.65775051
  0
VERTEX
  8
0
 10
0.77717781
 20
0.65540956
  0
VERTEX
  8
0
 10
0.76774520
 20
0.65396997
  0
VERTEX
  8
0
 10
0.75803200
 20
0.65347950
  0
VERTEX
  8
0
 10
0.74831880
 20
0.65396997
  0
VERTEX
  8
0
 10
0.73888619
 20
0.65540956
  0
VERTEX
  8
0
 10
0.72978191
 20
0.65775051
  0
VERTEX
  8
0
 10
0.72105371
 20
0.66094507
  0
VERTEX
  8
0
 10
0.71274936
 20
0.66494549
  0
VERTEX
  8
0
 10
0.70491660
 20
0.66970401
  0
VERTEX
  8
0
 10
0.69760318
 20
0.67517288
  0
VERTEX
  8
0
 10
0.69085686
 20
0.68130436
  0
VERTEX
  8
0
 10
0.68472538
 20
0.68805068
  0
VERTEX
  8
0
 10
0.67925651
 20
0.69536410
  0
VERTEX
  8
0
 10
0.67449799
 20
0.70319686
  0
VERTEX
  8
0
 10
0.67049757
 20
0.71150121
  0
VERTEX
  8
0
 10
0.66730301
 20
0.72022941
  0
VERTEX
  8
0
 10
0.66496206
 20
0.72933369
  0
VERTEX
  8
0
 10
0.66352247
 20
0.73876630
  0
VERTEX
  8
0
 10
0.66303200
 20
0.74847950
  0
SEQEND
  0
ENDSEC
  0
EOF
