  0
SECTION
  2
HEADER
  9
$ACADVER
  1
AC1009
  9
$EXTMIN
 10
0.18120617
 20
1.26869159
 30
0.0
  9
$EXTMAX
 10
3.38120617
 20
3.51869159
 30
0.0
  0
ENDSEC
  0
SECTION
  2
TABLES
  0
TABLE
  2
LAYER
 70
1
 0
LAYER
 2
Default Layer
 70
0
 62
1
 6
CONTINUOUS
 0
ENDTAB
 0
ENDSEC
  0
SECTION
  2
ENTITIES
  0
POLYLINE
  8
Default Layer
 66
   1
 39
0.000000
 70
    1
  0
VERTEX
  8
0
 10
2.99120617
 20
2.39369159
  0
VERTEX
  8
0
 10
2.99167083
 20
2.40289357
  0
VERTEX
  8
0
 10
2.99303465
 20
2.41182973
  0
VERTEX
  8
0
 10
2.99525239
 20
2.42045484
  0
VERTEX
  8
0
 10
2.99827882
 20
2.42872365
  0
VERTEX
  8
0
 10
3.00206869
 20
2.43659093
  0
VERTEX
  8
0
 10
3.00657676
 20
2.44401144
  0
VERTEX
  8
0
 10
3.01175780
 20
2.45093995
  0
VERTEX
  8
0
 10
3.01756656
 20
2.45733120
  0
VERTEX
  8
0
 10
3.02395781
 20
2.46313996
  0
VERTEX
  8
0
 10
3.03088632
 20
2.46832100
  0
VERTEX
  8
0
 10
3.03830683
 20
2.47282907
  0
VERTEX
  8
0
 10
3.04617411
 20
2.47661894
  0
VERTEX
  8
0
 10
3.05444292
 20
2.47964537
  0
VERTEX
  8
0
 10
3.06306803
 20
2.48186311
  0
VERTEX
  8
0
 10
3.07200419
 20
2.48322693
  0
VERTEX
  8
0
 10
3.08120617
 20
2.48369159
  0
VERTEX
  8
0
 10
3.09040815
 20
2.48322693
  0
VERTEX
  8
0
 10
3.09934431
 20
2.48186311
  0
VERTEX
  8
0
 10
3.10796942
 20
2.47964537
  0
VERTEX
  8
0
 10
3.11623823
 20
2.47661894
  0
VERTEX
  8
0
 10
3.12410552
 20
2.47282907
  0
VERTEX
  8
0
 10
3.13152603
 20
2.46832100
  0
VERTEX
  8
0
 10
3.13845453
 20
2.46313996
  0
VERTEX
  8
0
 10
3.14484578
 20
2.45733120
  0
VERTEX
  8
0
 10
3.15065455
 20
2.45093995
  0
VERTEX
  8
0
 10
3.15583558
 20
2.44401144
  0
VERTEX
  8
0
 10
3.16034366
 20
2.43659093
  0
VERTEX
  8
0
 10
3.16413352
 20
2.42872365
  0
VERTEX
  8
0
 10
3.16715995
 20
2.42045484
  0
VERTEX
  8
0
 10
3.16937769
 20
2.41182973
  0
VERTEX
  8
0
 10
3.17074151
 20
2.40289357
  0
VERTEX
  8
0
 10
3.17120617
 20
2.39369159
  0
VERTEX
  8
0
 10
3.17074151
 20
2.38448961
  0
VERTEX
  8
0
 10
3.16937769
 20
2.37555345
  0
VERTEX
  8
0
 10
3.16715995
 20
2.36692834
  0
VERTEX
  8
0
 10
3.16413352
 20
2.35865953
  0
VERTEX
  8
0
 10
3.16034366
 20
2.35079224
  0
VERTEX
  8
0
 10
3.15583558
 20
2.34337173
  0
VERTEX
  8
0
 10
3.15065455
 20
2.33644323
  0
VERTEX
  8
0
 10
3.14484578
 20
2.33005198
  0
VERTEX
  8
0
 10
3.13845453
 20
2.32424321
  0
VERTEX
  8
0
 10
3.13152603
 20
2.31906218
  0
VERTEX
  8
0
 10
3.12410552
 20
2.31455410
  0
VERTEX
  8
0
 10
3.11623823
 20
2.31076423
  0
VERTEX
  8
0
 10
3.10796942
 20
2.30773781
  0
VERTEX
  8
0
 10
3.09934431
 20
2.30552007
  0
VERTEX
  8
0
 10
3.09040815
 20
2.30415625
  0
VERTEX
  8
0
 10
3.08120617
 20
2.30369159
  0
VERTEX
  8
0
 10
3.07200419
 20
2.30415625
  0
VERTEX
  8
0
 10
3.06306803
 20
2.30552007
  0
VERTEX
  8
0
 10
3.05444292
 20
2.30773781
  0
VERTEX
  8
0
 10
3.04617411
 20
2.31076423
  0
VERTEX
  8
0
 10
3.03830683
 20
2.31455410
  0
VERTEX
  8
0
 10
3.03088632
 20
2.31906218
  0
VERTEX
  8
0
 10
3.02395781
 20
2.32424321
  0
VERTEX
  8
0
 10
3.01756656
 20
2.33005198
  0
VERTEX
  8
0
 10
3.01175780
 20
2.33644323
  0
VERTEX
  8
0
 10
3.00657676
 20
2.34337173
  0
VERTEX
  8
0
 10
3.00206869
 20
2.35079224
  0
VERTEX
  8
0
 10
2.99827882
 20
2.35865953
  0
VERTEX
  8
0
 10
2.99525239
 20
2.36692834
  0
VERTEX
  8
0
 10
2.99303465
 20
2.37555345
  0
VERTEX
  8
0
 10
2.99167083
 20
2.38448961
  0
VERTEX
  8
0
 10
2.99120617
 20
2.39369159
  0
SEQEND
  0
POLYLINE
  8
Default Layer
 66
   1
 39
0.000000
 70
    1
  0
VERTEX
  8
0
 10
0.39120617
 20
2.39369159
  0
VERTEX
  8
0
 10
0.39167083
 20
2.40289357
  0
VERTEX
  8
0
 10
0.39303465
 20
2.41182973
  0
VERTEX
  8
0
 10
0.39525239
 20
2.42045484
  0
VERTEX
  8
0
 10
0.39827882
 20
2.42872365
  0
VERTEX
  8
0
 10
0.40206869
 20
2.43659093
  0
VERTEX
  8
0
 10
0.40657676
 20
2.44401144
  0
VERTEX
  8
0
 10
0.41175780
 20
2.45093995
  0
VERTEX
  8
0
 10
0.41756656
 20
2.45733120
  0
VERTEX
  8
0
 10
0.42395781
 20
2.46313996
  0
VERTEX
  8
0
 10
0.43088632
 20
2.46832100
  0
VERTEX
  8
0
 10
0.43830683
 20
2.47282907
  0
VERTEX
  8
0
 10
0.44617411
 20
2.47661894
  0
VERTEX
  8
0
 10
0.45444292
 20
2.47964537
  0
VERTEX
  8
0
 10
0.46306803
 20
2.48186311
  0
VERTEX
  8
0
 10
0.47200419
 20
2.48322693
  0
VERTEX
  8
0
 10
0.48120617
 20
2.48369159
  0
VERTEX
  8
0
 10
0.49040815
 20
2.48322693
  0
VERTEX
  8
0
 10
0.49934431
 20
2.48186311
  0
VERTEX
  8
0
 10
0.50796942
 20
2.47964537
  0
VERTEX
  8
0
 10
0.51623823
 20
2.47661894
  0
VERTEX
  8
0
 10
0.52410552
 20
2.47282907
  0
VERTEX
  8
0
 10
0.53152603
 20
2.46832100
  0
VERTEX
  8
0
 10
0.53845453
 20
2.46313996
  0
VERTEX
  8
0
 10
0.54484578
 20
2.45733120
  0
VERTEX
  8
0
 10
0.55065455
 20
2.45093995
  0
VERTEX
  8
0
 10
0.55583558
 20
2.44401144
  0
VERTEX
  8
0
 10
0.56034366
 20
2.43659093
  0
VERTEX
  8
0
 10
0.56413352
 20
2.42872365
  0
VERTEX
  8
0
 10
0.56715995
 20
2.42045484
  0
VERTEX
  8
0
 10
0.56937769
 20
2.41182973
  0
VERTEX
  8
0
 10
0.57074151
 20
2.40289357
  0
VERTEX
  8
0
 10
0.57120617
 20
2.39369159
  0
VERTEX
  8
0
 10
0.57074151
 20
2.38448961
  0
VERTEX
  8
0
 10
0.56937769
 20
2.37555345
  0
VERTEX
  8
0
 10
0.56715995
 20
2.36692834
  0
VERTEX
  8
0
 10
0.56413352
 20
2.35865953
  0
VERTEX
  8
0
 10
0.56034366
 20
2.35079224
  0
VERTEX
  8
0
 10
0.55583558
 20
2.34337173
  0
VERTEX
  8
0
 10
0.55065455
 20
2.33644323
  0
VERTEX
  8
0
 10
0.54484578
 20
2.33005198
  0
VERTEX
  8
0
 10
0.53845453
 20
2.32424321
  0
VERTEX
  8
0
 10
0.53152603
 20
2.31906218
  0
VERTEX
  8
0
 10
0.52410552
 20
2.31455410
  0
VERTEX
  8
0
 10
0.51623823
 20
2.31076423
  0
VERTEX
  8
0
 10
0.50796942
 20
2.30773781
  0
VERTEX
  8
0
 10
0.49934431
 20
2.30552007
  0
VERTEX
  8
0
 10
0.49040815
 20
2.30415625
  0
VERTEX
  8
0
 10
0.48120617
 20
2.30369159
  0
VERTEX
  8
0
 10
0.47200419
 20
2.30415625
  0
VERTEX
  8
0
 10
0.46306803
 20
2.30552007
  0
VERTEX
  8
0
 10
0.45444292
 20
2.30773781
  0
VERTEX
  8
0
 10
0.44617411
 20
2.31076423
  0
VERTEX
  8
0
 10
0.43830683
 20
2.31455410
  0
VERTEX
  8
0
 10
0.43088632
 20
2.31906218
  0
VERTEX
  8
0
 10
0.42395781
 20
2.32424321
  0
VERTEX
  8
0
 10
0.41756656
 20
2.33005198
  0
VERTEX
  8
0
 10
0.41175780
 20
2.33644323
  0
VERTEX
  8
0
 10
0.40657676
 20
2.34337173
  0
VERTEX
  8
0
 10
0.40206869
 20
2.35079224
  0
VERTEX
  8
0
 10
0.39827882
 20
2.35865953
  0
VERTEX
  8
0
 10
0.39525239
 20
2.36692834
  0
VERTEX
  8
0
 10
0.39303465
 20
2.37555345
  0
VERTEX
  8
0
 10
0.39167083
 20
2.38448961
  0
VERTEX
  8
0
 10
0.39120617
 20
2.39369159
  0
SEQEND
  0
POLYLINE
  8
Default Layer
 66
   1
 39
0.000000
 70
    1
  0
VERTEX
  8
0
 10
0.96563027
 20
1.61882312
  0
VERTEX
  8
0
 10
1.00502397
 20
1.57935445
  0
VERTEX
  8
0
 10
1.04632642
 20
1.54186587
  0
VERTEX
  8
0
 10
1.08945948
 20
1.50643552
  0
VERTEX
  8
0
 10
1.13434496
 20
1.47314154
  0
VERTEX
  8
0
 10
1.18090470
 20
1.44206206
  0
VERTEX
  8
0
 10
1.22906052
 20
1.41327522
  0
VERTEX
  8
0
 10
1.27873427
 20
1.38685916
  0
VERTEX
  8
0
 10
1.32984776
 20
1.36289200
  0
VERTEX
  8
0
 10
1.38232282
 20
1.34145188
  0
VERTEX
  8
0
 10
1.43608129
 20
1.32261694
  0
VERTEX
  8
0
 10
1.49104501
 20
1.30646531
  0
VERTEX
  8
0
 10
1.54713578
 20
1.29307513
  0
VERTEX
  8
0
 10
1.57557939
 20
1.28744000
  0
VERTEX
  8
0
 10
1.60427546
 20
1.28252453
  0
VERTEX
  8
0
 10
1.63321421
 20
1.27833850
  0
VERTEX
  8
0
 10
1.66238586
 20
1.27489165
  0
VERTEX
  8
0
 10
1.69178066
 20
1.27219378
  0
VERTEX
  8
0
 10
1.72138882
 20
1.27025463
  0
VERTEX
  8
0
 10
1.75120058
 20
1.26908398
  0
VERTEX
  8
0
 10
1.78120617
 20
1.26869159
  0
VERTEX
  8
0
 10
1.81122703
 20
1.26908437
  0
VERTEX
  8
0
 10
1.84105380
 20
1.27025614
  0
VERTEX
  8
0
 10
1.87067664
 20
1.27219706
  0
VERTEX
  8
0
 10
1.90008571
 20
1.27489729
  0
VERTEX
  8
0
 10
1.92927116
 20
1.27834699
  0
VERTEX
  8
0
 10
1.95822315
 20
1.28253631
  0
VERTEX
  8
0
 10
1.98693184
 20
1.28745542
  0
VERTEX
  8
0
 10
2.01538738
 20
1.29309446
  0
VERTEX
  8
0
 10
2.07149963
 20
1.30649300
  0
VERTEX
  8
0
 10
2.12648116
 20
1.32265318
  0
VERTEX
  8
0
 10
2.18025323
 20
1.34149628
  0
VERTEX
  8
0
 10
2.23273708
 20
1.36294354
  0
VERTEX
  8
0
 10
2.28385396
 20
1.38691624
  0
VERTEX
  8
0
 10
2.33352513
 20
1.41333563
  0
VERTEX
  8
0
 10
2.38167182
 20
1.44212297
  0
VERTEX
  8
0
 10
2.42821530
 20
1.47319953
  0
VERTEX
  8
0
 10
2.47307682
 20
1.50648656
  0
VERTEX
  8
0
 10
2.51617762
 20
1.54190533
  0
VERTEX
  8
0
 10
2.55743895
 20
1.57937710
  0
VERTEX
  8
0
 10
2.59678207
 20
1.61882312
  0
VERTEX
  8
0
 10
2.64035561
 20
1.63390392
  0
VERTEX
  8
0
 10
2.68299208
 20
1.64973914
  0
VERTEX
  8
0
 10
2.72466222
 20
1.66631227
  0
VERTEX
  8
0
 10
2.76533677
 20
1.68360679
  0
VERTEX
  8
0
 10
2.80498646
 20
1.70160619
  0
VERTEX
  8
0
 10
2.84358204
 20
1.72029396
  0
VERTEX
  8
0
 10
2.88109423
 20
1.73965357
  0
VERTEX
  8
0
 10
2.91749377
 20
1.75966853
  0
VERTEX
  8
0
 10
2.95275141
 20
1.78032231
  0
VERTEX
  8
0
 10
2.98683788
 20
1.80159839
  0
VERTEX
  8
0
 10
3.01972392
 20
1.82348027
  0
VERTEX
  8
0
 10
3.05138026
 20
1.84595143
  0
VERTEX
  8
0
 10
3.08177764
 20
1.86899536
  0
VERTEX
  8
0
 10
3.11088680
 20
1.89259554
  0
VERTEX
  8
0
 10
3.13867847
 20
1.91673545
  0
VERTEX
  8
0
 10
3.16512340
 20
1.94139859
  0
VERTEX
  8
0
 10
3.19019232
 20
1.96656844
  0
VERTEX
  8
0
 10
3.21385596
 20
1.99222848
  0
VERTEX
  8
0
 10
3.23608507
 20
2.01836221
  0
VERTEX
  8
0
 10
3.25685038
 20
2.04495310
  0
VERTEX
  8
0
 10
3.27612263
 20
2.07198464
  0
VERTEX
  8
0
 10
3.29387256
 20
2.09944032
  0
VERTEX
  8
0
 10
3.31007090
 20
2.12730362
  0
VERTEX
  8
0
 10
3.32468838
 20
2.15555804
  0
VERTEX
  8
0
 10
3.33769576
 20
2.18418704
  0
VERTEX
  8
0
 10
3.34906376
 20
2.21317414
  0
VERTEX
  8
0
 10
3.35876313
 20
2.24250279
  0
VERTEX
  8
0
 10
3.36676459
 20
2.27215650
  0
VERTEX
  8
0
 10
3.37303889
 20
2.30211875
  0
VERTEX
  8
0
 10
3.37755676
 20
2.33237303
  0
VERTEX
  8
0
 10
3.38028894
 20
2.36290281
  0
VERTEX
  8
0
 10
3.38120617
 20
2.39369159
  0
VERTEX
  8
0
 10
3.38028855
 20
2.42448703
  0
VERTEX
  8
0
 10
3.37755526
 20
2.45502333
  0
VERTEX
  8
0
 10
3.37303562
 20
2.48528397
  0
VERTEX
  8
0
 10
3.36675898
 20
2.51525238
  0
VERTEX
  8
0
 10
3.35875467
 20
2.54491203
  0
VERTEX
  8
0
 10
3.34905204
 20
2.57424638
  0
VERTEX
  8
0
 10
3.33768042
 20
2.60323888
  0
VERTEX
  8
0
 10
3.32466915
 20
2.63187298
  0
VERTEX
  8
0
 10
3.31004757
 20
2.66013215
  0
VERTEX
  8
0
 10
3.29384501
 20
2.68799984
  0
VERTEX
  8
0
 10
3.27609081
 20
2.71545950
  0
VERTEX
  8
0
 10
3.25681432
 20
2.74249459
  0
VERTEX
  8
0
 10
3.23604486
 20
2.76908858
  0
VERTEX
  8
0
 10
3.21381179
 20
2.79522491
  0
VERTEX
  8
0
 10
3.19014442
 20
2.82088704
  0
VERTEX
  8
0
 10
3.16507211
 20
2.84605843
  0
VERTEX
  8
0
 10
3.13862419
 20
2.87072253
  0
VERTEX
  8
0
 10
3.11083000
 20
2.89486281
  0
VERTEX
  8
0
 10
3.08171887
 20
2.91846271
  0
VERTEX
  8
0
 10
3.05132015
 20
2.94150569
  0
VERTEX
  8
0
 10
3.01966318
 20
2.96397521
  0
VERTEX
  8
0
 10
2.98677728
 20
2.98585473
  0
VERTEX
  8
0
 10
2.95269180
 20
3.00712770
  0
VERTEX
  8
0
 10
2.91743607
 20
3.02777758
  0
VERTEX
  8
0
 10
2.88103945
 20
3.04778782
  0
VERTEX
  8
0
 10
2.84353125
 20
3.06714188
  0
VERTEX
  8
0
 10
2.80494082
 20
3.08582322
  0
VERTEX
  8
0
 10
2.76529750
 20
3.10381530
  0
VERTEX
  8
0
 10
2.72463063
 20
3.12110156
  0
VERTEX
  8
0
 10
2.68296954
 20
3.13766547
  0
VERTEX
  8
0
 10
2.64034358
 20
3.15349048
  0
VERTEX
  8
0
 10
2.59678207
 20
3.16856005
  0
VERTEX
  8
0
 10
2.55738838
 20
3.20802873
  0
VERTEX
  8
0
 10
2.51608592
 20
3.24551731
  0
VERTEX
  8
0
 10
2.47295286
 20
3.28094766
  0
VERTEX
  8
0
 10
2.42806738
 20
3.31424164
  0
VERTEX
  8
0
 10
2.38150764
 20
3.34532111
  0
VERTEX
  8
0
 10
2.33335182
 20
3.37410795
  0
VERTEX
  8
0
 10
2.28367808
 20
3.40052402
  0
VERTEX
  8
0
 10
2.23256459
 20
3.42449118
  0
VERTEX
  8
0
 10
2.18008952
 20
3.44593130
  0
VERTEX
  8
0
 10
2.12633105
 20
3.46476624
  0
VERTEX
  8
0
 10
2.07136734
 20
3.48091787
  0
VERTEX
  8
0
 10
2.01527656
 20
3.49430805
  0
VERTEX
  8
0
 10
1.98683295
 20
3.49994318
  0
VERTEX
  8
0
 10
1.95813688
 20
3.50485864
  0
VERTEX
  8
0
 10
1.92919814
 20
3.50904468
  0
VERTEX
  8
0
 10
1.90002648
 20
3.51249152
  0
VERTEX
  8
0
 10
1.87063168
 20
3.51518940
  0
VERTEX
  8
0
 10
1.84102352
 20
3.51712855
  0
VERTEX
  8
0
 10
1.81121176
 20
3.51829920
  0
VERTEX
  8
0
 10
1.78120617
 20
3.51869159
  0
VERTEX
  8
0
 10
1.75118531
 20
3.51829881
  0
VERTEX
  8
0
 10
1.72135854
 20
3.51712704
  0
VERTEX
  8
0
 10
1.69173570
 20
3.51518612
  0
VERTEX
  8
0
 10
1.66232663
 20
3.51248589
  0
VERTEX
  8
0
 10
1.63314118
 20
3.50903619
  0
VERTEX
  8
0
 10
1.60418919
 20
3.50484686
  0
VERTEX
  8
0
 10
1.57548050
 20
3.49992776
  0
VERTEX
  8
0
 10
1.54702497
 20
3.49428872
  0
VERTEX
  8
0
 10
1.49091271
 20
3.48089018
  0
VERTEX
  8
0
 10
1.43593118
 20
3.46473000
  0
VERTEX
  8
0
 10
1.38215911
 20
3.44588690
  0
VERTEX
  8
0
 10
1.32967526
 20
3.42443964
  0
VERTEX
  8
0
 10
1.27855838
 20
3.40046694
  0
VERTEX
  8
0
 10
1.22888722
 20
3.37404755
  0
VERTEX
  8
0
 10
1.18074052
 20
3.34526020
  0
VERTEX
  8
0
 10
1.13419704
 20
3.31418365
  0
VERTEX
  8
0
 10
1.08933552
 20
3.28089661
  0
VERTEX
  8
0
 10
1.04623473
 20
3.24547784
  0
VERTEX
  8
0
 10
1.00497339
 20
3.20800608
  0
VERTEX
  8
0
 10
0.96563027
 20
3.16856005
  0
VERTEX
  8
0
 10
0.92205673
 20
3.15347926
  0
VERTEX
  8
0
 10
0.87942026
 20
3.13764404
  0
VERTEX
  8
0
 10
0.83775012
 20
3.12107091
  0
VERTEX
  8
0
 10
0.79707557
 20
3.10377639
  0
VERTEX
  8
0
 10
0.75742588
 20
3.08577699
  0
VERTEX
  8
0
 10
0.71883031
 20
3.06708922
  0
VERTEX
  8
0
 10
0.68131812
 20
3.04772960
  0
VERTEX
  8
0
 10
0.64491857
 20
3.02771465
  0
VERTEX
  8
0
 10
0.60966093
 20
3.00706087
  0
VERTEX
  8
0
 10
0.57557446
 20
2.98578479
  0
VERTEX
  8
0
 10
0.54268843
 20
2.96390291
  0
VERTEX
  8
0
 10
0.51103209
 20
2.94143174
  0
VERTEX
  8
0
 10
0.48063471
 20
2.91838782
  0
VERTEX
  8
0
 10
0.45152555
 20
2.89478764
  0
VERTEX
  8
0
 10
0.42373387
 20
2.87064773
  0
VERTEX
  8
0
 10
0.39728894
 20
2.84598459
  0
VERTEX
  8
0
 10
0.37222003
 20
2.82081474
  0
VERTEX
  8
0
 10
0.34855638
 20
2.79515470
  0
VERTEX
  8
0
 10
0.32632727
 20
2.76902097
  0
VERTEX
  8
0
 10
0.30556196
 20
2.74243008
  0
VERTEX
  8
0
 10
0.28628971
 20
2.71539854
  0
VERTEX
  8
0
 10
0.26853979
 20
2.68794286
  0
VERTEX
  8
0
 10
0.25234145
 20
2.66007956
  0
VERTEX
  8
0
 10
0.23772396
 20
2.63182514
  0
VERTEX
  8
0
 10
0.22471658
 20
2.60319613
  0
VERTEX
  8
0
 10
0.21334858
 20
2.57420904
  0
VERTEX
  8
0
 10
0.20364922
 20
2.54488038
  0
VERTEX
  8
0
 10
0.19564775
 20
2.51522667
  0
VERTEX
  8
0
 10
0.18937346
 20
2.48526443
  0
VERTEX
  8
0
 10
0.18485558
 20
2.45501015
  0
VERTEX
  8
0
 10
0.18212340
 20
2.42448037
  0
VERTEX
  8
0
 10
0.18120617
 20
2.39369159
  0
VERTEX
  8
0
 10
0.18212379
 20
2.36289615
  0
VERTEX
  8
0
 10
0.18485709
 20
2.33235984
  0
VERTEX
  8
0
 10
0.18937672
 20
2.30209921
  0
VERTEX
  8
0
 10
0.19565336
 20
2.27213080
  0
VERTEX
  8
0
 10
0.20365767
 20
2.24247115
  0
VERTEX
  8
0
 10
0.21336030
 20
2.21313680
  0
VERTEX
  8
0
 10
0.22473192
 20
2.18414430
  0
VERTEX
  8
0
 10
0.23774319
 20
2.15551020
  0
VERTEX
  8
0
 10
0.25236477
 20
2.12725103
  0
VERTEX
  8
0
 10
0.26856733
 20
2.09938334
  0
VERTEX
  8
0
 10
0.28632153
 20
2.07192368
  0
VERTEX
  8
0
 10
0.30559802
 20
2.04488858
  0
VERTEX
  8
0
 10
0.32636748
 20
2.01829460
  0
VERTEX
  8
0
 10
0.34860056
 20
1.99215827
  0
VERTEX
  8
0
 10
0.37226792
 20
1.96649614
  0
VERTEX
  8
0
 10
0.39734023
 20
1.94132475
  0
VERTEX
  8
0
 10
0.42378815
 20
1.91666065
  0
VERTEX
  8
0
 10
0.45158234
 20
1.89252037
  0
VERTEX
  8
0
 10
0.48069347
 20
1.86892047
  0
VERTEX
  8
0
 10
0.51109219
 20
1.84587749
  0
VERTEX
  8
0
 10
0.54274917
 20
1.82340797
  0
VERTEX
  8
0
 10
0.57563506
 20
1.80152845
  0
VERTEX
  8
0
 10
0.60972054
 20
1.78025548
  0
VERTEX
  8
0
 10
0.64497627
 20
1.75960560
  0
VERTEX
  8
0
 10
0.68137290
 20
1.73959536
  0
VERTEX
  8
0
 10
0.71888109
 20
1.72024130
  0
VERTEX
  8
0
 10
0.75747152
 20
1.70155996
  0
VERTEX
  8
0
 10
0.79711484
 20
1.68356788
  0
VERTEX
  8
0
 10
0.83778171
 20
1.66628162
  0
VERTEX
  8
0
 10
0.87944280
 20
1.64971771
  0
VERTEX
  8
0
 10
0.92206877
 20
1.63389269
  0
VERTEX
  8
0
 10
0.96563027
 20
1.61882312
  0
SEQEND
  0
POLYLINE
  8
Default Layer
 66
   1
 39
0.000000
 70
    1
  0
VERTEX
  8
0
 10
0.65620617
 20
2.39369159
  0
VERTEX
  8
0
 10
0.65767001
 20
2.45158394
  0
VERTEX
  8
0
 10
0.66201442
 20
2.50871630
  0
VERTEX
  8
0
 10
0.66916870
 20
2.56501800
  0
VERTEX
  8
0
 10
0.67906217
 20
2.62041833
  0
VERTEX
  8
0
 10
0.69162415
 20
2.67484662
  0
VERTEX
  8
0
 10
0.70678394
 20
2.72823218
  0
VERTEX
  8
0
 10
0.72447087
 20
2.78050432
  0
VERTEX
  8
0
 10
0.74461425
 20
2.83159236
  0
VERTEX
  8
0
 10
0.76714338
 20
2.88142561
  0
VERTEX
  8
0
 10
0.79198760
 20
2.92993339
  0
VERTEX
  8
0
 10
0.81907620
 20
2.97704501
  0
VERTEX
  8
0
 10
0.84833850
 20
3.02268979
  0
VERTEX
  8
0
 10
0.87970383
 20
3.06679703
  0
VERTEX
  8
0
 10
0.91310148
 20
3.10929606
  0
VERTEX
  8
0
 10
0.94846078
 20
3.15011618
  0
VERTEX
  8
0
 10
0.98571104
 20
3.18918672
  0
VERTEX
  8
0
 10
1.02478158
 20
3.22643698
  0
VERTEX
  8
0
 10
1.06560170
 20
3.26179628
  0
VERTEX
  8
0
 10
1.10810073
 20
3.29519393
  0
VERTEX
  8
0
 10
1.15220797
 20
3.32655926
  0
VERTEX
  8
0
 10
1.19785275
 20
3.35582156
  0
VERTEX
  8
0
 10
1.24496437
 20
3.38291016
  0
VERTEX
  8
0
 10
1.29347215
 20
3.40775438
  0
VERTEX
  8
0
 10
1.34330540
 20
3.43028351
  0
VERTEX
  8
0
 10
1.39439344
 20
3.45042689
  0
VERTEX
  8
0
 10
1.44666558
 20
3.46811382
  0
VERTEX
  8
0
 10
1.50005114
 20
3.48327361
  0
VERTEX
  8
0
 10
1.55447943
 20
3.49583559
  0
VERTEX
  8
0
 10
1.60987976
 20
3.50572906
  0
VERTEX
  8
0
 10
1.66618146
 20
3.51288334
  0
VERTEX
  8
0
 10
1.72331382
 20
3.51722775
  0
VERTEX
  8
0
 10
1.78120617
 20
3.51869159
  0
VERTEX
  8
0
 10
1.83909852
 20
3.51722775
  0
VERTEX
  8
0
 10
1.89623089
 20
3.51288334
  0
VERTEX
  8
0
 10
1.95253258
 20
3.50572906
  0
VERTEX
  8
0
 10
2.00793291
 20
3.49583559
  0
VERTEX
  8
0
 10
2.06236120
 20
3.48327361
  0
VERTEX
  8
0
 10
2.11574676
 20
3.46811382
  0
VERTEX
  8
0
 10
2.16801890
 20
3.45042689
  0
VERTEX
  8
0
 10
2.21910694
 20
3.43028351
  0
VERTEX
  8
0
 10
2.26894019
 20
3.40775438
  0
VERTEX
  8
0
 10
2.31744797
 20
3.38291016
  0
VERTEX
  8
0
 10
2.36455959
 20
3.35582156
  0
VERTEX
  8
0
 10
2.41020437
 20
3.32655926
  0
VERTEX
  8
0
 10
2.45431161
 20
3.29519393
  0
VERTEX
  8
0
 10
2.49681064
 20
3.26179628
  0
VERTEX
  8
0
 10
2.53763076
 20
3.22643698
  0
VERTEX
  8
0
 10
2.57670130
 20
3.18918672
  0
VERTEX
  8
0
 10
2.61395156
 20
3.15011618
  0
VERTEX
  8
0
 10
2.64931086
 20
3.10929606
  0
VERTEX
  8
0
 10
2.68270852
 20
3.06679703
  0
VERTEX
  8
0
 10
2.71407384
 20
3.02268979
  0
VERTEX
  8
0
 10
2.74333614
 20
2.97704501
  0
VERTEX
  8
0
 10
2.77042475
 20
2.92993339
  0
VERTEX
  8
0
 10
2.79526896
 20
2.88142561
  0
VERTEX
  8
0
 10
2.81779809
 20
2.83159236
  0
VERTEX
  8
0
 10
2.83794147
 20
2.78050432
  0
VERTEX
  8
0
 10
2.85562840
 20
2.72823218
  0
VERTEX
  8
0
 10
2.87078819
 20
2.67484662
  0
VERTEX
  8
0
 10
2.88335017
 20
2.62041833
  0
VERTEX
  8
0
 10
2.89324364
 20
2.56501800
  0
VERTEX
  8
0
 10
2.90039792
 20
2.50871630
  0
VERTEX
  8
0
 10
2.90474233
 20
2.45158394
  0
VERTEX
  8
0
 10
2.90620617
 20
2.39369159
  0
VERTEX
  8
0
 10
2.90474233
 20
2.33579924
  0
VERTEX
  8
0
 10
2.90039792
 20
2.27866687
  0
VERTEX
  8
0
 10
2.89324364
 20
2.22236518
  0
VERTEX
  8
0
 10
2.88335017
 20
2.16696485
  0
VERTEX
  8
0
 10
2.87078819
 20
2.11253656
  0
VERTEX
  8
0
 10
2.85562840
 20
2.05915100
  0
VERTEX
  8
0
 10
2.83794147
 20
2.00687886
  0
VERTEX
  8
0
 10
2.81779809
 20
1.95579082
  0
VERTEX
  8
0
 10
2.79526896
 20
1.90595757
  0
VERTEX
  8
0
 10
2.77042475
 20
1.85744979
  0
VERTEX
  8
0
 10
2.74333614
 20
1.81033817
  0
VERTEX
  8
0
 10
2.71407384
 20
1.76469339
  0
VERTEX
  8
0
 10
2.68270852
 20
1.72058615
  0
VERTEX
  8
0
 10
2.64931086
 20
1.67808712
  0
VERTEX
  8
0
 10
2.61395156
 20
1.63726700
  0
VERTEX
  8
0
 10
2.57670130
 20
1.59819646
  0
VERTEX
  8
0
 10
2.53763076
 20
1.56094620
  0
VERTEX
  8
0
 10
2.49681064
 20
1.52558690
  0
VERTEX
  8
0
 10
2.45431161
 20
1.49218924
  0
VERTEX
  8
0
 10
2.41020437
 20
1.46082392
  0
VERTEX
  8
0
 10
2.36455959
 20
1.43156162
  0
VERTEX
  8
0
 10
2.31744797
 20
1.40447301
  0
VERTEX
  8
0
 10
2.26894019
 20
1.37962880
  0
VERTEX
  8
0
 10
2.21910694
 20
1.35709967
  0
VERTEX
  8
0
 10
2.16801890
 20
1.33695629
  0
VERTEX
  8
0
 10
2.11574676
 20
1.31926936
  0
VERTEX
  8
0
 10
2.06236120
 20
1.30410957
  0
VERTEX
  8
0
 10
2.00793291
 20
1.29154759
  0
VERTEX
  8
0
 10
1.95253258
 20
1.28165412
  0
VERTEX
  8
0
 10
1.89623089
 20
1.27449984
  0
VERTEX
  8
0
 10
1.83909852
 20
1.27015543
  0
VERTEX
  8
0
 10
1.78120617
 20
1.26869159
  0
VERTEX
  8
0
 10
1.72331382
 20
1.27015543
  0
VERTEX
  8
0
 10
1.66618146
 20
1.27449984
  0
VERTEX
  8
0
 10
1.60987976
 20
1.28165412
  0
VERTEX
  8
0
 10
1.55447943
 20
1.29154759
  0
VERTEX
  8
0
 10
1.50005114
 20
1.30410957
  0
VERTEX
  8
0
 10
1.44666558
 20
1.31926936
  0
VERTEX
  8
0
 10
1.39439344
 20
1.33695629
  0
VERTEX
  8
0
 10
1.34330540
 20
1.35709967
  0
VERTEX
  8
0
 10
1.29347215
 20
1.37962880
  0
VERTEX
  8
0
 10
1.24496437
 20
1.40447301
  0
VERTEX
  8
0
 10
1.19785275
 20
1.43156162
  0
VERTEX
  8
0
 10
1.15220797
 20
1.46082392
  0
VERTEX
  8
0
 10
1.10810073
 20
1.49218924
  0
VERTEX
  8
0
 10
1.06560170
 20
1.52558690
  0
VERTEX
  8
0
 10
1.02478158
 20
1.56094620
  0
VERTEX
  8
0
 10
0.98571104
 20
1.59819646
  0
VERTEX
  8
0
 10
0.94846078
 20
1.63726700
  0
VERTEX
  8
0
 10
0.91310148
 20
1.67808712
  0
VERTEX
  8
0
 10
0.87970383
 20
1.72058615
  0
VERTEX
  8
0
 10
0.84833850
 20
1.76469339
  0
VERTEX
  8
0
 10
0.81907620
 20
1.81033817
  0
VERTEX
  8
0
 10
0.79198760
 20
1.85744979
  0
VERTEX
  8
0
 10
0.76714338
 20
1.90595757
  0
VERTEX
  8
0
 10
0.74461425
 20
1.95579082
  0
VERTEX
  8
0
 10
0.72447087
 20
2.00687886
  0
VERTEX
  8
0
 10
0.70678394
 20
2.05915100
  0
VERTEX
  8
0
 10
0.69162415
 20
2.11253656
  0
VERTEX
  8
0
 10
0.67906217
 20
2.16696485
  0
VERTEX
  8
0
 10
0.66916870
 20
2.22236518
  0
VERTEX
  8
0
 10
0.66201442
 20
2.27866687
  0
VERTEX
  8
0
 10
0.65767001
 20
2.33579924
  0
VERTEX
  8
0
 10
0.65620617
 20
2.39369159
  0
SEQEND
  0
POLYLINE
  8
Default Layer
 66
   1
 39
0.000000
 70
    1
  0
VERTEX
  8
0
 10
1.53120617
 20
2.39369159
  0
VERTEX
  8
0
 10
1.53249689
 20
2.41925264
  0
VERTEX
  8
0
 10
1.53628528
 20
2.44407531
  0
VERTEX
  8
0
 10
1.54244568
 20
2.46803394
  0
VERTEX
  8
0
 10
1.55085241
 20
2.49100287
  0
VERTEX
  8
0
 10
1.56137982
 20
2.51285643
  0
VERTEX
  8
0
 10
1.57390224
 20
2.53346897
  0
VERTEX
  8
0
 10
1.58829402
 20
2.55271480
  0
VERTEX
  8
0
 10
1.60442948
 20
2.57046828
  0
VERTEX
  8
0
 10
1.62218296
 20
2.58660374
  0
VERTEX
  8
0
 10
1.64142879
 20
2.60099552
  0
VERTEX
  8
0
 10
1.66204133
 20
2.61351794
  0
VERTEX
  8
0
 10
1.68389489
 20
2.62404535
  0
VERTEX
  8
0
 10
1.70686382
 20
2.63245208
  0
VERTEX
  8
0
 10
1.73082245
 20
2.63861248
  0
VERTEX
  8
0
 10
1.75564512
 20
2.64240087
  0
VERTEX
  8
0
 10
1.78120617
 20
2.64369159
  0
VERTEX
  8
0
 10
1.80676722
 20
2.64240087
  0
VERTEX
  8
0
 10
1.83158989
 20
2.63861248
  0
VERTEX
  8
0
 10
1.85554852
 20
2.63245208
  0
VERTEX
  8
0
 10
1.87851745
 20
2.62404535
  0
VERTEX
  8
0
 10
1.90037102
 20
2.61351794
  0
VERTEX
  8
0
 10
1.92098355
 20
2.60099552
  0
VERTEX
  8
0
 10
1.94022939
 20
2.58660374
  0
VERTEX
  8
0
 10
1.95798287
 20
2.57046828
  0
VERTEX
  8
0
 10
1.97411832
 20
2.55271480
  0
VERTEX
  8
0
 10
1.98851010
 20
2.53346897
  0
VERTEX
  8
0
 10
2.00103252
 20
2.51285643
  0
VERTEX
  8
0
 10
2.01155993
 20
2.49100287
  0
VERTEX
  8
0
 10
2.01996667
 20
2.46803394
  0
VERTEX
  8
0
 10
2.02612706
 20
2.44407531
  0
VERTEX
  8
0
 10
2.02991545
 20
2.41925264
  0
VERTEX
  8
0
 10
2.03120617
 20
2.39369159
  0
VERTEX
  8
0
 10
2.02991545
 20
2.36813054
  0
VERTEX
  8
0
 10
2.02612706
 20
2.34330787
  0
VERTEX
  8
0
 10
2.01996667
 20
2.31934924
  0
VERTEX
  8
0
 10
2.01155993
 20
2.29638031
  0
VERTEX
  8
0
 10
2.00103252
 20
2.27452674
  0
VERTEX
  8
0
 10
1.98851010
 20
2.25391421
  0
VERTEX
  8
0
 10
1.97411832
 20
2.23466837
  0
VERTEX
  8
0
 10
1.95798287
 20
2.21691489
  0
VERTEX
  8
0
 10
1.94022939
 20
2.20077944
  0
VERTEX
  8
0
 10
1.92098355
 20
2.18638766
  0
VERTEX
  8
0
 10
1.90037102
 20
2.17386524
  0
VERTEX
  8
0
 10
1.87851745
 20
2.16333783
  0
VERTEX
  8
0
 10
1.85554852
 20
2.15493109
  0
VERTEX
  8
0
 10
1.83158989
 20
2.14877070
  0
VERTEX
  8
0
 10
1.80676722
 20
2.14498231
  0
VERTEX
  8
0
 10
1.78120617
 20
2.14369159
  0
VERTEX
  8
0
 10
1.75564512
 20
2.14498231
  0
VERTEX
  8
0
 10
1.73082245
 20
2.14877070
  0
VERTEX
  8
0
 10
1.70686382
 20
2.15493109
  0
VERTEX
  8
0
 10
1.68389489
 20
2.16333783
  0
VERTEX
  8
0
 10
1.66204133
 20
2.17386524
  0
VERTEX
  8
0
 10
1.64142879
 20
2.18638766
  0
VERTEX
  8
0
 10
1.62218296
 20
2.20077944
  0
VERTEX
  8
0
 10
1.60442948
 20
2.21691489
  0
VERTEX
  8
0
 10
1.58829402
 20
2.23466837
  0
VERTEX
  8
0
 10
1.57390224
 20
2.25391421
  0
VERTEX
  8
0
 10
1.56137982
 20
2.27452674
  0
VERTEX
  8
0
 10
1.55085241
 20
2.29638031
  0
VERTEX
  8
0
 10
1.54244568
 20
2.31934924
  0
VERTEX
  8
0
 10
1.53628528
 20
2.34330787
  0
VERTEX
  8
0
 10
1.53249689
 20
2.36813054
  0
VERTEX
  8
0
 10
1.53120617
 20
2.39369159
  0
SEQEND
  0
ENDSEC
  0
EOF
